<?xml version="1.0" encoding="utf-8" standalone="no"?><!DOCTYPE svg PUBLIC "-//W3C//DTD SVG 1.1//EN"  "http://www.w3.org/Graphics/SVG/1.1/DTD/svg11.dtd"><svg xmlns:xlink="http://www.w3.org/1999/xlink" width="392.208pt" height="144.36pt" viewBox="-10.0 -10.0 412.208 164.36" xmlns="http://www.w3.org/2000/svg" version="1.1"> <metadata>  <rdf:RDF xmlns:dc="http://purl.org/dc/elements/1.1/" xmlns:cc="http://creativecommons.org/ns#" xmlns:rdf="http://www.w3.org/1999/02/22-rdf-syntax-ns#">   <cc:Work>    <dc:type rdf:resource="http://purl.org/dc/dcmitype/StillImage"/>    <dc:date>2026-03-29T21:19:00.420134</dc:date>    <dc:format>image/svg+xml</dc:format>    <dc:creator>     <cc:Agent>      <dc:title>Matplotlib v3.10.8, https://matplotlib.org/</dc:title>     </cc:Agent>    </dc:creator>   </cc:Work>  </rdf:RDF> </metadata> <defs>  <style type="text/css">*{stroke-linejoin: round; stroke-linecap: butt}</style> </defs> <g id="figure_1">  <g id="patch_1">   <path d="M 0 144.36 L 392.208 144.36 L 392.208 0 L 0 0 L 0 144.36 z" style="fill: none"/>  </g>  <g id="axes_1">   <g id="patch_2">    <path d="M 81.408 27 C 82.553677 27 83.652585 26.544818 84.462701 25.734701 C 85.272818 24.924585 85.728 23.825677 85.728 22.68 C 85.728 21.534323 85.272818 20.435415 84.462701 19.625299 C 83.652585 18.815182 82.553677 18.36 81.408 18.36 C 80.262323 18.36 79.163415 18.815182 78.353299 19.625299 C 77.543182 20.435415 77.088 21.534323 77.088 22.68 C 77.088 23.825677 77.543182 24.924585 78.353299 25.734701 C 79.163415 26.544818 80.262323 27 81.408 27 L 81.408 27 z" clip-path="url(#p026b569f31)" style="fill: none; stroke: #333333; stroke-width: 2; stroke-linejoin: miter"/>   </g>   <g id="line2d_1">    <path d="M 17.688 22.68 L 35.688 22.68 L 53.688 22.68 " clip-path="url(#p026b569f31)" style="fill: none; stroke: #333333; stroke-width: 2; stroke-linecap: round"/>   </g>   <g id="line2d_2">    <path d="M 53.688 22.68 M 85.728 22.68 " clip-path="url(#p026b569f31)" style="fill: none; stroke: #333333; stroke-width: 2; stroke-linecap: round"/>   </g>   <g id="line2d_3">    <path d="M 53.688 4.68 L 77.088 22.68 L 53.688 40.68 L 53.688 4.68 " clip-path="url(#p026b569f31)" style="fill: none; stroke: #333333; stroke-width: 2; stroke-linecap: round"/>   </g>   <g id="line2d_4">    <path d="M 197.688 49.68 L 198.841264 49.643017 L 199.989789 49.53222 L 201.128855 49.348065 L 202.253783 49.091308 L 203.359948 48.763003 L 204.442806 48.364502 L 205.497907 47.89744 L 206.520916 47.363737 L 207.507628 46.765586 L 208.45399 46.105445 L 209.356111 45.386027 L 210.210286 44.610288 L 211.013004 43.781416 L 211.760967 42.902816 L 212.451101 41.9781 L 213.08057 41.011066 L 213.646788 40.005689 L 214.147427 38.9661 L 214.580432 37.896571 L 214.944021 36.801497 L 215.236702 35.685377 L 215.457272 34.552798 L 215.604824 33.408414 L 215.678752 32.256928 L 215.678752 31.103072 L 215.604824 29.951586 L 215.457272 28.807202 L 215.236702 27.674623 L 214.944021 26.558503 L 214.580432 25.463429 L 214.147427 24.3939 L 213.646788 23.354311 L 213.08057 22.348934 L 212.451101 21.3819 L 211.760967 20.457184 L 211.013004 19.578584 L 210.210286 18.749712 L 209.356111 17.973973 L 208.45399 17.254555 L 207.507628 16.594414 L 206.520916 15.996263 L 205.497907 15.46256 L 204.442806 14.995498 L 203.359948 14.596997 L 202.253783 14.268692 L 201.128855 14.011935 L 199.989789 13.82778 L 198.841264 13.716983 L 197.688 13.68 L 197.688 13.68 L 174.288 13.68 L 174.288 31.68 L 174.288 49.68 L 197.688 49.68 " clip-path="url(#p026b569f31)" style="fill: none; stroke: #333333; stroke-width: 2; stroke-linecap: round"/>   </g>   <g id="line2d_5">    <path d="M 161.688 40.68 L 174.288 40.68 " clip-path="url(#p026b569f31)" style="fill: none; stroke: #333333; stroke-width: 2; stroke-linecap: round"/>   </g>   <g id="line2d_6">    <path d="M 161.688 22.68 L 174.288 22.68 " clip-path="url(#p026b569f31)" style="fill: none; stroke: #333333; stroke-width: 2; stroke-linecap: round"/>   </g>   <g id="line2d_7">    <path d="M 215.688 31.68 L 228.288 31.68 " clip-path="url(#p026b569f31)" style="fill: none; stroke: #333333; stroke-width: 2; stroke-linecap: round"/>   </g>   <g id="line2d_8">    <path d="M 197.688 139.68 L 198.841264 139.643017 L 199.989789 139.53222 L 201.128855 139.348065 L 202.253783 139.091308 L 203.359948 138.763003 L 204.442806 138.364502 L 205.497907 137.89744 L 206.520916 137.363737 L 207.507628 136.765586 L 208.45399 136.105445 L 209.356111 135.386027 L 210.210286 134.610288 L 211.013004 133.781416 L 211.760967 132.902816 L 212.451101 131.9781 L 213.08057 131.011066 L 213.646788 130.005689 L 214.147427 128.9661 L 214.580432 127.896571 L 214.944021 126.801497 L 215.236702 125.685377 L 215.457272 124.552798 L 215.604824 123.408414 L 215.678752 122.256928 L 215.678752 121.103072 L 215.604824 119.951586 L 215.457272 118.807202 L 215.236702 117.674623 L 214.944021 116.558503 L 214.580432 115.463429 L 214.147427 114.3939 L 213.646788 113.354311 L 213.08057 112.348934 L 212.451101 111.3819 L 211.760967 110.457184 L 211.013004 109.578584 L 210.210286 108.749712 L 209.356111 107.973973 L 208.45399 107.254555 L 207.507628 106.594414 L 206.520916 105.996263 L 205.497907 105.46256 L 204.442806 104.995498 L 203.359948 104.596997 L 202.253783 104.268692 L 201.128855 104.011935 L 199.989789 103.82778 L 198.841264 103.716983 L 197.688 103.68 L 197.688 103.68 L 174.288 103.68 L 174.288 121.68 L 174.288 139.68 L 197.688 139.68 " clip-path="url(#p026b569f31)" style="fill: none; stroke: #333333; stroke-width: 2; stroke-linecap: round"/>   </g>   <g id="line2d_9">    <path d="M 161.688 130.68 L 174.288 130.68 " clip-path="url(#p026b569f31)" style="fill: none; stroke: #333333; stroke-width: 2; stroke-linecap: round"/>   </g>   <g id="line2d_10">    <path d="M 161.688 112.68 L 174.288 112.68 " clip-path="url(#p026b569f31)" style="fill: none; stroke: #333333; stroke-width: 2; stroke-linecap: round"/>   </g>   <g id="line2d_11">    <path d="M 215.688 121.68 L 228.288 121.68 " clip-path="url(#p026b569f31)" style="fill: none; stroke: #333333; stroke-width: 2; stroke-linecap: round"/>   </g>   <g id="line2d_12">    <path d="M 85.728 22.68 L 94.728 22.68 L 103.728 22.68 " clip-path="url(#p026b569f31)" style="fill: none; stroke: #333333; stroke-width: 2; stroke-linecap: round"/>   </g>   <g id="line2d_13">    <path d="M 103.728 22.68 L 132.708 22.68 L 161.688 22.68 " clip-path="url(#p026b569f31)" style="fill: none; stroke: #333333; stroke-width: 2; stroke-linecap: round"/>   </g>   <g id="line2d_14">    <path d="M 17.688 40.68 L 71.688 40.68 L 125.688 40.68 " clip-path="url(#p026b569f31)" style="fill: none; stroke: #333333; stroke-width: 2; stroke-linecap: round"/>   </g>   <g id="line2d_15">    <path d="M 125.688 40.68 L 143.688 40.68 L 161.688 40.68 " clip-path="url(#p026b569f31)" style="fill: none; stroke: #333333; stroke-width: 2; stroke-linecap: round"/>   </g>   <g id="line2d_16">    <path d="M 125.688 40.68 L 125.688 76.68 L 125.688 112.68 " clip-path="url(#p026b569f31)" style="fill: none; stroke: #333333; stroke-width: 2; stroke-linecap: round"/>   </g>   <g id="line2d_17">    <path d="M 125.688 112.68 L 143.688 112.68 L 161.688 112.68 " clip-path="url(#p026b569f31)" style="fill: none; stroke: #333333; stroke-width: 2; stroke-linecap: round"/>   </g>   <g id="line2d_18">    <path d="M 17.688 130.68 L 89.688 130.68 L 161.688 130.68 " clip-path="url(#p026b569f31)" style="fill: none; stroke: #333333; stroke-width: 2; stroke-linecap: round"/>   </g>   <g id="line2d_19">    <path d="M 300.288 94.32 L 319.830857 94.253878 L 321.888 93.96 L 323.945143 93.43102 L 326.002286 92.666939 L 328.059429 91.667755 L 330.116571 90.433469 L 332.173714 88.964082 L 334.230857 87.259592 L 336.802286 84.798367 L 339.373714 81.969796 L 341.945143 78.773878 L 343.488 76.68 L 343.488 76.68 L 340.916571 73.263673 L 338.345143 70.214694 L 335.773714 67.533061 L 333.202286 65.218776 L 331.145143 63.631837 L 329.088 62.28 L 327.030857 61.163265 L 324.973714 60.281633 L 322.916571 59.635102 L 320.859429 59.223673 L 318.802286 59.047347 L 318.288 59.04 L 300.288 59.04 L 300.288 59.04 L 302.2752 61.2 L 304.0032 63.36 L 305.472 65.52 L 306.6816 67.68 L 307.632 69.84 L 308.3232 72 L 308.7552 74.16 L 308.928 76.32 L 308.8416 78.48 L 308.496 80.64 L 307.8912 82.8 L 307.0272 84.96 L 305.904 87.12 L 304.5216 89.28 L 302.88 91.44 L 300.9792 93.6 L 300.288 94.32 L 300.288 94.32 " clip-path="url(#p026b569f31)" style="fill: none; stroke: #333333; stroke-width: 2; stroke-linecap: round"/>   </g>   <g id="line2d_20">    <path d="M 287.688 85.68 L 306.6816 85.68 " clip-path="url(#p026b569f31)" style="fill: none; stroke: #333333; stroke-width: 2; stroke-linecap: round"/>   </g>   <g id="line2d_21">    <path d="M 287.688 67.68 L 306.6816 67.68 " clip-path="url(#p026b569f31)" style="fill: none; stroke: #333333; stroke-width: 2; stroke-linecap: round"/>   </g>   <g id="line2d_22">    <path d="M 343.488 76.68 L 356.088 76.68 " clip-path="url(#p026b569f31)" style="fill: none; stroke: #333333; stroke-width: 2; stroke-linecap: round"/>   </g>   <g id="line2d_23">    <path d="M 228.288 31.68 L 242.688 31.68 L 257.088 31.68 " clip-path="url(#p026b569f31)" style="fill: none; stroke: #333333; stroke-width: 2; stroke-linecap: round"/>   </g>   <g id="line2d_24">    <path d="M 257.088 31.68 L 272.388 31.68 L 287.688 31.68 " clip-path="url(#p026b569f31)" style="fill: none; stroke: #333333; stroke-width: 2; stroke-linecap: round"/>   </g>   <g id="line2d_25">    <path d="M 287.688 31.68 L 287.688 49.68 L 287.688 67.68 " clip-path="url(#p026b569f31)" style="fill: none; stroke: #333333; stroke-width: 2; stroke-linecap: round"/>   </g>   <g id="line2d_26">    <path d="M 228.288 121.68 L 242.688 121.68 L 257.088 121.68 " clip-path="url(#p026b569f31)" style="fill: none; stroke: #333333; stroke-width: 2; stroke-linecap: round"/>   </g>   <g id="line2d_27">    <path d="M 257.088 121.68 L 272.388 121.68 L 287.688 121.68 " clip-path="url(#p026b569f31)" style="fill: none; stroke: #333333; stroke-width: 2; stroke-linecap: round"/>   </g>   <g id="line2d_28">    <path d="M 287.688 121.68 L 287.688 103.68 L 287.688 85.68 " clip-path="url(#p026b569f31)" style="fill: none; stroke: #333333; stroke-width: 2; stroke-linecap: round"/>   </g>   <g id="line2d_29">    <path d="M 356.088 76.68 L 365.088 76.68 L 374.088 76.68 " clip-path="url(#p026b569f31)" style="fill: none; stroke: #333333; stroke-width: 2; stroke-linecap: round"/>   </g>   <g id="text_1">    <text style="font-size: 14px; font-family: 'DejaVu Sans', 'Bitstream Vera Sans', 'Computer Modern Sans Serif', 'Lucida Grande', 'Verdana', 'Geneva', 'Lucid', 'Arial', 'Helvetica', 'Avant Garde', sans-serif; text-anchor: end; fill: #333333" x="14.088" y="26.543125" transform="rotate(-0 14.088 26.543125)">A</text>   </g>   <g id="text_2">    <!-- $u = \overline{A}$ -->    <g style="fill: #333333" transform="translate(76.878 16.168437)">     <text>      <tspan x="0" y="-0.331875" style="font-style: oblique; font-size: 14px; font-family: 'DejaVu Sans'; fill: #333333">u</tspan>      <tspan x="26.058594" y="0.078125" style="font-style: oblique; font-size: 14px; font-family: 'DejaVu Sans'; fill: #333333">A</tspan>      <tspan x="11.600586" y="-0.331875" style="font-size: 14px; font-family: 'DejaVu Sans'; fill: #333333">=</tspan>     </text>     <rect x="26.058594" y="-13.25" width="9.577148" height="0.875"/>    </g>   </g>   <g id="text_3">    <text style="font-size: 14px; font-family: 'DejaVu Sans', 'Bitstream Vera Sans', 'Computer Modern Sans Serif', 'Lucida Grande', 'Verdana', 'Geneva', 'Lucid', 'Arial', 'Helvetica', 'Avant Garde', sans-serif; text-anchor: end; fill: #333333" x="14.088" y="44.543125" transform="rotate(-0 14.088 44.543125)">B</text>   </g>   <g id="text_4">    <text style="font-size: 14px; font-family: 'DejaVu Sans', 'Bitstream Vera Sans', 'Computer Modern Sans Serif', 'Lucida Grande', 'Verdana', 'Geneva', 'Lucid', 'Arial', 'Helvetica', 'Avant Garde', sans-serif; text-anchor: end; fill: #333333" x="14.088" y="134.543125" transform="rotate(-0 14.088 134.543125)">C</text>   </g>   <g id="text_5">    <!-- $v = \overline{A}B$ -->    <g style="fill: #333333" transform="translate(220.358 25.168437)">     <text>      <tspan x="0" y="-0.331875" style="font-style: oblique; font-size: 14px; font-family: 'DejaVu Sans'; fill: #333333">v</tspan>      <tspan x="25.470703" y="0.078125" style="font-style: oblique; font-size: 14px; font-family: 'DejaVu Sans'; fill: #333333">A</tspan>      <tspan x="35.047852" y="-0.331875" style="font-style: oblique; font-size: 14px; font-family: 'DejaVu Sans'; fill: #333333">B</tspan>      <tspan x="11.012695" y="-0.331875" style="font-size: 14px; font-family: 'DejaVu Sans'; fill: #333333">=</tspan>     </text>     <rect x="25.470703" y="-13.25" width="9.577148" height="0.875"/>    </g>   </g>   <g id="text_6">    <!-- $w = BC$ -->    <g style="fill: #333333" transform="translate(218.678 115.168437)">     <text>      <tspan x="0" y="-0.609375" style="font-style: oblique; font-size: 14px; font-family: 'DejaVu Sans'; fill: #333333">w</tspan>      <tspan x="28.635742" y="-0.609375" style="font-style: oblique; font-size: 14px; font-family: 'DejaVu Sans'; fill: #333333">B</tspan>      <tspan x="38.240234" y="-0.609375" style="font-style: oblique; font-size: 14px; font-family: 'DejaVu Sans'; fill: #333333">C</tspan>      <tspan x="14.177734" y="-0.609375" style="font-size: 14px; font-family: 'DejaVu Sans'; fill: #333333">=</tspan>     </text>    </g>   </g>   <g id="patch_3">    <path d="M 374.088 79.38 C 374.804048 79.38 375.490866 79.095511 375.997188 78.589188 C 376.503511 78.082866 376.788 77.396048 376.788 76.68 C 376.788 75.963952 376.503511 75.277134 375.997188 74.770812 C 375.490866 74.264489 374.804048 73.98 374.088 73.98 C 373.371952 73.98 372.685134 74.264489 372.178812 74.770812 C 371.672489 75.277134 371.388 75.963952 371.388 76.68 C 371.388 77.396048 371.672489 78.082866 372.178812 78.589188 C 372.685134 79.095511 373.371952 79.38 374.088 79.38 z" clip-path="url(#p026b569f31)" style="fill: #ffffff; stroke: #333333; stroke-width: 2; stroke-linejoin: miter"/>   </g>   <g id="text_7">    <text style="font-size: 14px; font-family: 'DejaVu Sans', 'Bitstream Vera Sans', 'Computer Modern Sans Serif', 'Lucida Grande', 'Verdana', 'Geneva', 'Lucid', 'Arial', 'Helvetica', 'Avant Garde', sans-serif; text-anchor: start; fill: #333333" x="380.388" y="80.543125" transform="rotate(-0 380.388 80.543125)">x</text>   </g>   <g id="patch_4">    <path d="M 125.688 43.38 C 126.404048 43.38 127.090866 43.095511 127.597188 42.589188 C 128.103511 42.082866 128.388 41.396048 128.388 40.68 C 128.388 39.963952 128.103511 39.277134 127.597188 38.770812 C 127.090866 38.264489 126.404048 37.98 125.688 37.98 C 124.971952 37.98 124.285134 38.264489 123.778812 38.770812 C 123.272489 39.277134 122.988 39.963952 122.988 40.68 C 122.988 41.396048 123.272489 42.082866 123.778812 42.589188 C 124.285134 43.095511 124.971952 43.38 125.688 43.38 z" clip-path="url(#p026b569f31)" style="fill: #333333; stroke: #333333; stroke-width: 2; stroke-linejoin: miter"/>   </g>   <g id="patch_5">    <path d="M 125.688 115.38 C 126.404048 115.38 127.090866 115.095511 127.597188 114.589188 C 128.103511 114.082866 128.388 113.396048 128.388 112.68 C 128.388 111.963952 128.103511 111.277134 127.597188 110.770812 C 127.090866 110.264489 126.404048 109.98 125.688 109.98 C 124.971952 109.98 124.285134 110.264489 123.778812 110.770812 C 123.272489 111.277134 122.988 111.963952 122.988 112.68 C 122.988 113.396048 123.272489 114.082866 123.778812 114.589188 C 124.285134 115.095511 124.971952 115.38 125.688 115.38 z" clip-path="url(#p026b569f31)" style="fill: #333333; stroke: #333333; stroke-width: 2; stroke-linejoin: miter"/>   </g>  </g> </g> <defs>  <clipPath id="p026b569f31">   <rect x="0" y="0" width="392.208" height="144.36"/>  </clipPath> </defs></svg>