<?xml version="1.0" encoding="utf-8" standalone="no"?><!DOCTYPE svg PUBLIC "-//W3C//DTD SVG 1.1//EN"  "http://www.w3.org/Graphics/SVG/1.1/DTD/svg11.dtd"><svg xmlns:xlink="http://www.w3.org/1999/xlink" width="524.46pt" height="314.96pt" viewBox="-10.0 -10.0 544.46 334.96" xmlns="http://www.w3.org/2000/svg" version="1.1"> <metadata>  <rdf:RDF xmlns:dc="http://purl.org/dc/elements/1.1/" xmlns:cc="http://creativecommons.org/ns#" xmlns:rdf="http://www.w3.org/1999/02/22-rdf-syntax-ns#">   <cc:Work>    <dc:type rdf:resource="http://purl.org/dc/dcmitype/StillImage"/>    <dc:date>2026-03-29T21:19:00.919486</dc:date>    <dc:format>image/svg+xml</dc:format>    <dc:creator>     <cc:Agent>      <dc:title>Matplotlib v3.10.8, https://matplotlib.org/</dc:title>     </cc:Agent>    </dc:creator>   </cc:Work>  </rdf:RDF> </metadata> <defs>  <style type="text/css">*{stroke-linejoin: round; stroke-linecap: butt}</style> </defs> <g id="figure_1">  <g id="patch_1">   <path d="M 0 314.96 L 524.46 314.96 L 524.46 0 L 0 0 L 0 314.96 z" style="fill: none"/>  </g>  <g id="axes_1">   <g id="patch_2">    <path d="M 132.36 178.304 C 133.161974 178.304 133.93121 177.985372 134.498291 177.418291 C 135.065372 176.85121 135.384 176.081974 135.384 175.28 C 135.384 174.478026 135.065372 173.70879 134.498291 173.141709 C 133.93121 172.574628 133.161974 172.256 132.36 172.256 C 131.558026 172.256 130.78879 172.574628 130.221709 173.141709 C 129.654628 173.70879 129.336 174.478026 129.336 175.28 C 129.336 176.081974 129.654628 176.85121 130.221709 177.418291 C 130.78879 177.985372 131.558026 178.304 132.36 178.304 L 132.36 178.304 z" clip-path="url(#pb2eaaf1699)" style="fill: none; stroke: #333333; stroke-width: 2; stroke-linejoin: miter"/>   </g>   <g id="patch_3">    <path d="M 132.36 265.424 C 133.161974 265.424 133.93121 265.105372 134.498291 264.538291 C 135.065372 263.97121 135.384 263.201974 135.384 262.4 C 135.384 261.598026 135.065372 260.82879 134.498291 260.261709 C 133.93121 259.694628 133.161974 259.376 132.36 259.376 C 131.558026 259.376 130.78879 259.694628 130.221709 260.261709 C 129.654628 260.82879 129.336 261.598026 129.336 262.4 C 129.336 263.201974 129.654628 263.97121 130.221709 264.538291 C 130.78879 265.105372 131.558026 265.424 132.36 265.424 L 132.36 265.424 z" clip-path="url(#pb2eaaf1699)" style="fill: none; stroke: #333333; stroke-width: 2; stroke-linejoin: miter"/>   </g>   <g id="line2d_1">    <path d="M 171.384 76.28 L 172.537264 76.243017 L 173.685789 76.13222 L 174.824855 75.948065 L 175.949783 75.691308 L 177.055948 75.363003 L 178.138806 74.964502 L 179.193907 74.49744 L 180.216916 73.963737 L 181.203628 73.365586 L 182.14999 72.705445 L 183.052111 71.986027 L 183.906286 71.210288 L 184.709004 70.381416 L 185.456967 69.502816 L 186.147101 68.5781 L 186.77657 67.611066 L 187.342788 66.605689 L 187.843427 65.5661 L 188.276432 64.496571 L 188.640021 63.401497 L 188.932702 62.285377 L 189.153272 61.152798 L 189.300824 60.008414 L 189.374752 58.856928 L 189.374752 57.703072 L 189.300824 56.551586 L 189.153272 55.407202 L 188.932702 54.274623 L 188.640021 53.158503 L 188.276432 52.063429 L 187.843427 50.9939 L 187.342788 49.954311 L 186.77657 48.948934 L 186.147101 47.9819 L 185.456967 47.057184 L 184.709004 46.178584 L 183.906286 45.349712 L 183.052111 44.573973 L 182.14999 43.854555 L 181.203628 43.194414 L 180.216916 42.596263 L 179.193907 42.06256 L 178.138806 41.595498 L 177.055948 41.196997 L 175.949783 40.868692 L 174.824855 40.611935 L 173.685789 40.42778 L 172.537264 40.316983 L 171.384 40.28 L 171.384 40.28 L 147.984 40.28 L 147.984 58.28 L 147.984 76.28 L 171.384 76.28 " clip-path="url(#pb2eaaf1699)" style="fill: none; stroke: #333333; stroke-width: 2; stroke-linecap: round"/>   </g>   <g id="line2d_2">    <path d="M 135.384 67.28 L 147.984 67.28 " clip-path="url(#pb2eaaf1699)" style="fill: none; stroke: #333333; stroke-width: 2; stroke-linecap: round"/>   </g>   <g id="line2d_3">    <path d="M 135.384 49.28 L 147.984 49.28 " clip-path="url(#pb2eaaf1699)" style="fill: none; stroke: #333333; stroke-width: 2; stroke-linecap: round"/>   </g>   <g id="line2d_4">    <path d="M 189.384 58.28 L 201.984 58.28 " clip-path="url(#pb2eaaf1699)" style="fill: none; stroke: #333333; stroke-width: 2; stroke-linecap: round"/>   </g>   <g id="line2d_5">    <path d="M 171.384 184.28 L 172.537264 184.243017 L 173.685789 184.13222 L 174.824855 183.948065 L 175.949783 183.691308 L 177.055948 183.363003 L 178.138806 182.964502 L 179.193907 182.49744 L 180.216916 181.963737 L 181.203628 181.365586 L 182.14999 180.705445 L 183.052111 179.986027 L 183.906286 179.210288 L 184.709004 178.381416 L 185.456967 177.502816 L 186.147101 176.5781 L 186.77657 175.611066 L 187.342788 174.605689 L 187.843427 173.5661 L 188.276432 172.496571 L 188.640021 171.401497 L 188.932702 170.285377 L 189.153272 169.152798 L 189.300824 168.008414 L 189.374752 166.856928 L 189.374752 165.703072 L 189.300824 164.551586 L 189.153272 163.407202 L 188.932702 162.274623 L 188.640021 161.158503 L 188.276432 160.063429 L 187.843427 158.9939 L 187.342788 157.954311 L 186.77657 156.948934 L 186.147101 155.9819 L 185.456967 155.057184 L 184.709004 154.178584 L 183.906286 153.349712 L 183.052111 152.573973 L 182.14999 151.854555 L 181.203628 151.194414 L 180.216916 150.596263 L 179.193907 150.06256 L 178.138806 149.595498 L 177.055948 149.196997 L 175.949783 148.868692 L 174.824855 148.611935 L 173.685789 148.42778 L 172.537264 148.316983 L 171.384 148.28 L 171.384 148.28 L 147.984 148.28 L 147.984 166.28 L 147.984 184.28 L 171.384 184.28 " clip-path="url(#pb2eaaf1699)" style="fill: none; stroke: #333333; stroke-width: 2; stroke-linecap: round"/>   </g>   <g id="line2d_6">    <path d="M 135.384 175.28 L 147.984 175.28 " clip-path="url(#pb2eaaf1699)" style="fill: none; stroke: #333333; stroke-width: 2; stroke-linecap: round"/>   </g>   <g id="line2d_7">    <path d="M 135.384 157.28 L 147.984 157.28 " clip-path="url(#pb2eaaf1699)" style="fill: none; stroke: #333333; stroke-width: 2; stroke-linecap: round"/>   </g>   <g id="line2d_8">    <path d="M 189.384 166.28 L 201.984 166.28 " clip-path="url(#pb2eaaf1699)" style="fill: none; stroke: #333333; stroke-width: 2; stroke-linecap: round"/>   </g>   <g id="line2d_9">    <path d="M 171.384 292.28 L 172.537264 292.243017 L 173.685789 292.13222 L 174.824855 291.948065 L 175.949783 291.691308 L 177.055948 291.363003 L 178.138806 290.964502 L 179.193907 290.49744 L 180.216916 289.963737 L 181.203628 289.365586 L 182.14999 288.705445 L 183.052111 287.986027 L 183.906286 287.210288 L 184.709004 286.381416 L 185.456967 285.502816 L 186.147101 284.5781 L 186.77657 283.611066 L 187.342788 282.605689 L 187.843427 281.5661 L 188.276432 280.496571 L 188.640021 279.401497 L 188.932702 278.285377 L 189.153272 277.152798 L 189.300824 276.008414 L 189.374752 274.856928 L 189.374752 273.703072 L 189.300824 272.551586 L 189.153272 271.407202 L 188.932702 270.274623 L 188.640021 269.158503 L 188.276432 268.063429 L 187.843427 266.9939 L 187.342788 265.954311 L 186.77657 264.948934 L 186.147101 263.9819 L 185.456967 263.057184 L 184.709004 262.178584 L 183.906286 261.349712 L 183.052111 260.573973 L 182.14999 259.854555 L 181.203628 259.194414 L 180.216916 258.596263 L 179.193907 258.06256 L 178.138806 257.595498 L 177.055948 257.196997 L 175.949783 256.868692 L 174.824855 256.611935 L 173.685789 256.42778 L 172.537264 256.316983 L 171.384 256.28 L 171.384 256.28 L 147.984 256.28 L 147.984 274.28 L 147.984 292.28 L 171.384 292.28 " clip-path="url(#pb2eaaf1699)" style="fill: none; stroke: #333333; stroke-width: 2; stroke-linecap: round"/>   </g>   <g id="line2d_10">    <path d="M 135.384 286.16 L 147.984 286.16 " clip-path="url(#pb2eaaf1699)" style="fill: none; stroke: #333333; stroke-width: 2; stroke-linecap: round"/>   </g>   <g id="line2d_11">    <path d="M 135.384 274.28 L 147.984 274.28 " clip-path="url(#pb2eaaf1699)" style="fill: none; stroke: #333333; stroke-width: 2; stroke-linecap: round"/>   </g>   <g id="line2d_12">    <path d="M 135.384 262.4 L 147.984 262.4 " clip-path="url(#pb2eaaf1699)" style="fill: none; stroke: #333333; stroke-width: 2; stroke-linecap: round"/>   </g>   <g id="line2d_13">    <path d="M 189.384 274.28 L 201.984 274.28 " clip-path="url(#pb2eaaf1699)" style="fill: none; stroke: #333333; stroke-width: 2; stroke-linecap: round"/>   </g>   <g id="line2d_14">    <path d="M 273.984 183.92 L 293.526857 183.853878 L 295.584 183.56 L 297.641143 183.03102 L 299.698286 182.266939 L 301.755429 181.267755 L 303.812571 180.033469 L 305.869714 178.564082 L 307.926857 176.859592 L 310.498286 174.398367 L 313.069714 171.569796 L 315.641143 168.373878 L 317.184 166.28 L 317.184 166.28 L 314.612571 162.863673 L 312.041143 159.814694 L 309.469714 157.133061 L 306.898286 154.818776 L 304.841143 153.231837 L 302.784 151.88 L 300.726857 150.763265 L 298.669714 149.881633 L 296.612571 149.235102 L 294.555429 148.823673 L 292.498286 148.647347 L 291.984 148.64 L 273.984 148.64 L 273.984 148.64 L 275.9712 150.8 L 277.6992 152.96 L 279.168 155.12 L 280.3776 157.28 L 281.328 159.44 L 282.0192 161.6 L 282.4512 163.76 L 282.624 165.92 L 282.5376 168.08 L 282.192 170.24 L 281.5872 172.4 L 280.7232 174.56 L 279.6 176.72 L 278.2176 178.88 L 276.576 181.04 L 274.6752 183.2 L 273.984 183.92 L 273.984 183.92 " clip-path="url(#pb2eaaf1699)" style="fill: none; stroke: #333333; stroke-width: 2; stroke-linecap: round"/>   </g>   <g id="line2d_15">    <path d="M 261.384 178.16 L 278.7072 178.16 " clip-path="url(#pb2eaaf1699)" style="fill: none; stroke: #333333; stroke-width: 2; stroke-linecap: round"/>   </g>   <g id="line2d_16">    <path d="M 261.384 166.28 L 282.6276 166.28 " clip-path="url(#pb2eaaf1699)" style="fill: none; stroke: #333333; stroke-width: 2; stroke-linecap: round"/>   </g>   <g id="line2d_17">    <path d="M 261.384 154.4 L 278.7072 154.4 " clip-path="url(#pb2eaaf1699)" style="fill: none; stroke: #333333; stroke-width: 2; stroke-linecap: round"/>   </g>   <g id="line2d_18">    <path d="M 317.184 166.28 L 329.784 166.28 " clip-path="url(#pb2eaaf1699)" style="fill: none; stroke: #333333; stroke-width: 2; stroke-linecap: round"/>   </g>   <g id="line2d_19">    <path d="M 110.67 175.28 L 112.956 175.28 M 135.384 175.28 L 137.67 175.28 " clip-path="url(#pb2eaaf1699)" style="fill: none; stroke: #333333; stroke-width: 2; stroke-linecap: round"/>   </g>   <g id="line2d_20">    <path d="M 112.956 162.68 L 129.336 175.28 L 112.956 187.88 L 112.956 162.68 " clip-path="url(#pb2eaaf1699)" style="fill: none; stroke: #333333; stroke-width: 2; stroke-linecap: round"/>   </g>   <g id="line2d_21">    <path d="M 110.67 262.4 L 112.956 262.4 M 135.384 262.4 L 137.67 262.4 " clip-path="url(#pb2eaaf1699)" style="fill: none; stroke: #333333; stroke-width: 2; stroke-linecap: round"/>   </g>   <g id="line2d_22">    <path d="M 112.956 249.8 L 129.336 262.4 L 112.956 275 L 112.956 249.8 " clip-path="url(#pb2eaaf1699)" style="fill: none; stroke: #333333; stroke-width: 2; stroke-linecap: round"/>   </g>   <g id="line2d_23">    <path d="M 201.984 58.28 L 231.684 58.28 L 261.384 58.28 " clip-path="url(#pb2eaaf1699)" style="fill: none; stroke: #333333; stroke-width: 2; stroke-linecap: round"/>   </g>   <g id="line2d_24">    <path d="M 261.384 58.28 L 261.384 106.34 L 261.384 154.4 " clip-path="url(#pb2eaaf1699)" style="fill: none; stroke: #333333; stroke-width: 2; stroke-linecap: round"/>   </g>   <g id="line2d_25">    <path d="M 201.984 166.28 L 231.684 166.28 L 261.384 166.28 " clip-path="url(#pb2eaaf1699)" style="fill: none; stroke: #333333; stroke-width: 2; stroke-linecap: round"/>   </g>   <g id="line2d_26">    <path d="M 201.984 274.28 L 231.684 274.28 L 261.384 274.28 " clip-path="url(#pb2eaaf1699)" style="fill: none; stroke: #333333; stroke-width: 2; stroke-linecap: round"/>   </g>   <g id="line2d_27">    <path d="M 261.384 274.28 L 261.384 226.22 L 261.384 178.16 " clip-path="url(#pb2eaaf1699)" style="fill: none; stroke: #333333; stroke-width: 2; stroke-linecap: round"/>   </g>   <g id="line2d_28">    <path d="M 9.384 22.28 L 9.384 166.28 L 9.384 310.28 " clip-path="url(#pb2eaaf1699)" style="fill: none; stroke: #333333; stroke-width: 2; stroke-linecap: round"/>   </g>   <g id="line2d_29">    <path d="M 45.384 22.28 L 45.384 166.28 L 45.384 310.28 " clip-path="url(#pb2eaaf1699)" style="fill: none; stroke: #333333; stroke-width: 2; stroke-linecap: round"/>   </g>   <g id="line2d_30">    <path d="M 81.384 22.28 L 81.384 166.28 L 81.384 310.28 " clip-path="url(#pb2eaaf1699)" style="fill: none; stroke: #333333; stroke-width: 2; stroke-linecap: round"/>   </g>   <g id="line2d_31">    <path d="M 9.384 49.28 L 72.384 49.28 L 135.384 49.28 " clip-path="url(#pb2eaaf1699)" style="fill: none; stroke: #333333; stroke-width: 2; stroke-linecap: round"/>   </g>   <g id="line2d_32">    <path d="M 81.384 67.28 L 108.384 67.28 L 135.384 67.28 " clip-path="url(#pb2eaaf1699)" style="fill: none; stroke: #333333; stroke-width: 2; stroke-linecap: round"/>   </g>   <g id="line2d_33">    <path d="M 45.384 157.28 L 90.384 157.28 L 135.384 157.28 " clip-path="url(#pb2eaaf1699)" style="fill: none; stroke: #333333; stroke-width: 2; stroke-linecap: round"/>   </g>   <g id="line2d_34">    <path d="M 81.384 175.28 L 97.17 175.28 L 112.956 175.28 " clip-path="url(#pb2eaaf1699)" style="fill: none; stroke: #333333; stroke-width: 2; stroke-linecap: round"/>   </g>   <g id="line2d_35">    <path d="M 9.384 262.4 L 61.17 262.4 L 112.956 262.4 " clip-path="url(#pb2eaaf1699)" style="fill: none; stroke: #333333; stroke-width: 2; stroke-linecap: round"/>   </g>   <g id="line2d_36">    <path d="M 45.384 274.28 L 90.384 274.28 L 135.384 274.28 " clip-path="url(#pb2eaaf1699)" style="fill: none; stroke: #333333; stroke-width: 2; stroke-linecap: round"/>   </g>   <g id="line2d_37">    <path d="M 81.384 286.16 L 108.384 286.16 L 135.384 286.16 " clip-path="url(#pb2eaaf1699)" style="fill: none; stroke: #333333; stroke-width: 2; stroke-linecap: round"/>   </g>   <g id="text_1">    <!-- $AC$ -->    <g style="fill: #808080" transform="translate(205.584 55.368437)">     <text>      <tspan x="0" y="-0.609375" style="font-style: oblique; font-size: 14px; font-family: 'DejaVu Sans'; fill: #808080">A</tspan>      <tspan x="9.577148" y="-0.609375" style="font-style: oblique; font-size: 14px; font-family: 'DejaVu Sans'; fill: #808080">C</tspan>     </text>    </g>   </g>   <g id="text_2">    <!-- $B\overline{C}$ -->    <g style="fill: #808080" transform="translate(205.584 163.368437)">     <text>      <tspan x="0" y="-0.144375" style="font-style: oblique; font-size: 14px; font-family: 'DejaVu Sans'; fill: #808080">B</tspan>      <tspan x="9.604492" y="0.265625" style="font-style: oblique; font-size: 14px; font-family: 'DejaVu Sans'; fill: #808080">C</tspan>     </text>     <rect x="9.604492" y="-13.25" width="9.775391" height="0.875"/>    </g>   </g>   <g id="text_3">    <!-- $\overline{A}BC$ -->    <g style="fill: #808080" transform="translate(205.584 271.368437)">     <text>      <tspan x="0" y="0.078125" style="font-style: oblique; font-size: 14px; font-family: 'DejaVu Sans'; fill: #808080">A</tspan>      <tspan x="9.577148" y="-0.331875" style="font-style: oblique; font-size: 14px; font-family: 'DejaVu Sans'; fill: #808080">B</tspan>      <tspan x="19.181641" y="-0.331875" style="font-style: oblique; font-size: 14px; font-family: 'DejaVu Sans'; fill: #808080">C</tspan>     </text>     <rect x="0" y="-13.25" width="9.577148" height="0.875"/>    </g>   </g>   <g id="text_4">    <!-- $y = AC + B\overline{C} + \overline{A}BC$ -->    <g style="fill: #333333" transform="translate(333.384 171.74)">     <text>      <tspan x="0" y="-0.144375" style="font-style: oblique; font-size: 14px; font-family: 'DejaVu Sans'; fill: #333333">y</tspan>      <tspan x="25.470703" y="-0.144375" style="font-style: oblique; font-size: 14px; font-family: 'DejaVu Sans'; fill: #333333">A</tspan>      <tspan x="35.047852" y="-0.144375" style="font-style: oblique; font-size: 14px; font-family: 'DejaVu Sans'; fill: #333333">C</tspan>      <tspan x="62.008789" y="-0.144375" style="font-style: oblique; font-size: 14px; font-family: 'DejaVu Sans'; fill: #333333">B</tspan>      <tspan x="71.613281" y="0.265625" style="font-style: oblique; font-size: 14px; font-family: 'DejaVu Sans'; fill: #333333">C</tspan>      <tspan x="98.574219" y="0.265625" style="font-style: oblique; font-size: 14px; font-family: 'DejaVu Sans'; fill: #333333">A</tspan>      <tspan x="108.151367" y="-0.144375" style="font-style: oblique; font-size: 14px; font-family: 'DejaVu Sans'; fill: #333333">B</tspan>      <tspan x="117.755859" y="-0.144375" style="font-style: oblique; font-size: 14px; font-family: 'DejaVu Sans'; fill: #333333">C</tspan>      <tspan x="11.012695" y="-0.144375" style="font-size: 14px; font-family: 'DejaVu Sans'; fill: #333333">=</tspan>      <tspan x="47.550781" y="-0.144375" style="font-size: 14px; font-family: 'DejaVu Sans'; fill: #333333">+</tspan>      <tspan x="84.116211" y="-0.144375" style="font-size: 14px; font-family: 'DejaVu Sans'; fill: #333333">+</tspan>     </text>     <rect x="71.613281" y="-13.25" width="9.775391" height="0.875"/>     <rect x="98.574219" y="-13.0625" width="9.577148" height="0.875"/>    </g>   </g>   <g id="text_5">    <text style="font-size: 14px; font-family: 'DejaVu Sans', 'Bitstream Vera Sans', 'Computer Modern Sans Serif', 'Lucida Grande', 'Verdana', 'Geneva', 'Lucid', 'Arial', 'Helvetica', 'Avant Garde', sans-serif; text-anchor: middle; fill: #333333" x="9.384" y="15.768438" transform="rotate(-0 9.384 15.768438)">A</text>   </g>   <g id="text_6">    <text style="font-size: 14px; font-family: 'DejaVu Sans', 'Bitstream Vera Sans', 'Computer Modern Sans Serif', 'Lucida Grande', 'Verdana', 'Geneva', 'Lucid', 'Arial', 'Helvetica', 'Avant Garde', sans-serif; text-anchor: middle; fill: #333333" x="45.384" y="15.768438" transform="rotate(-0 45.384 15.768438)">B</text>   </g>   <g id="text_7">    <text style="font-size: 14px; font-family: 'DejaVu Sans', 'Bitstream Vera Sans', 'Computer Modern Sans Serif', 'Lucida Grande', 'Verdana', 'Geneva', 'Lucid', 'Arial', 'Helvetica', 'Avant Garde', sans-serif; text-anchor: middle; fill: #333333" x="81.384" y="15.768438" transform="rotate(-0 81.384 15.768438)">C</text>   </g>   <g id="patch_4">    <path d="M 9.384 24.98 C 10.100048 24.98 10.786866 24.695511 11.293188 24.189188 C 11.799511 23.682866 12.084 22.996048 12.084 22.28 C 12.084 21.563952 11.799511 20.877134 11.293188 20.370812 C 10.786866 19.864489 10.100048 19.58 9.384 19.58 C 8.667952 19.58 7.981134 19.864489 7.474812 20.370812 C 6.968489 20.877134 6.684 21.563952 6.684 22.28 C 6.684 22.996048 6.968489 23.682866 7.474812 24.189188 C 7.981134 24.695511 8.667952 24.98 9.384 24.98 z" clip-path="url(#pb2eaaf1699)" style="fill: #333333; stroke: #333333; stroke-width: 2; stroke-linejoin: miter"/>   </g>   <g id="patch_5">    <path d="M 45.384 24.98 C 46.100048 24.98 46.786866 24.695511 47.293188 24.189188 C 47.799511 23.682866 48.084 22.996048 48.084 22.28 C 48.084 21.563952 47.799511 20.877134 47.293188 20.370812 C 46.786866 19.864489 46.100048 19.58 45.384 19.58 C 44.667952 19.58 43.981134 19.864489 43.474812 20.370812 C 42.968489 20.877134 42.684 21.563952 42.684 22.28 C 42.684 22.996048 42.968489 23.682866 43.474812 24.189188 C 43.981134 24.695511 44.667952 24.98 45.384 24.98 z" clip-path="url(#pb2eaaf1699)" style="fill: #333333; stroke: #333333; stroke-width: 2; stroke-linejoin: miter"/>   </g>   <g id="patch_6">    <path d="M 81.384 24.98 C 82.100048 24.98 82.786866 24.695511 83.293188 24.189188 C 83.799511 23.682866 84.084 22.996048 84.084 22.28 C 84.084 21.563952 83.799511 20.877134 83.293188 20.370812 C 82.786866 19.864489 82.100048 19.58 81.384 19.58 C 80.667952 19.58 79.981134 19.864489 79.474812 20.370812 C 78.968489 20.877134 78.684 21.563952 78.684 22.28 C 78.684 22.996048 78.968489 23.682866 79.474812 24.189188 C 79.981134 24.695511 80.667952 24.98 81.384 24.98 z" clip-path="url(#pb2eaaf1699)" style="fill: #333333; stroke: #333333; stroke-width: 2; stroke-linejoin: miter"/>   </g>   <g id="patch_7">    <path d="M 9.384 51.98 C 10.100048 51.98 10.786866 51.695511 11.293188 51.189188 C 11.799511 50.682866 12.084 49.996048 12.084 49.28 C 12.084 48.563952 11.799511 47.877134 11.293188 47.370812 C 10.786866 46.864489 10.100048 46.58 9.384 46.58 C 8.667952 46.58 7.981134 46.864489 7.474812 47.370812 C 6.968489 47.877134 6.684 48.563952 6.684 49.28 C 6.684 49.996048 6.968489 50.682866 7.474812 51.189188 C 7.981134 51.695511 8.667952 51.98 9.384 51.98 z" clip-path="url(#pb2eaaf1699)" style="fill: #333333; stroke: #333333; stroke-width: 2; stroke-linejoin: miter"/>   </g>   <g id="patch_8">    <path d="M 81.384 69.98 C 82.100048 69.98 82.786866 69.695511 83.293188 69.189188 C 83.799511 68.682866 84.084 67.996048 84.084 67.28 C 84.084 66.563952 83.799511 65.877134 83.293188 65.370812 C 82.786866 64.864489 82.100048 64.58 81.384 64.58 C 80.667952 64.58 79.981134 64.864489 79.474812 65.370812 C 78.968489 65.877134 78.684 66.563952 78.684 67.28 C 78.684 67.996048 78.968489 68.682866 79.474812 69.189188 C 79.981134 69.695511 80.667952 69.98 81.384 69.98 z" clip-path="url(#pb2eaaf1699)" style="fill: #333333; stroke: #333333; stroke-width: 2; stroke-linejoin: miter"/>   </g>   <g id="patch_9">    <path d="M 45.384 159.98 C 46.100048 159.98 46.786866 159.695511 47.293188 159.189188 C 47.799511 158.682866 48.084 157.996048 48.084 157.28 C 48.084 156.563952 47.799511 155.877134 47.293188 155.370812 C 46.786866 154.864489 46.100048 154.58 45.384 154.58 C 44.667952 154.58 43.981134 154.864489 43.474812 155.370812 C 42.968489 155.877134 42.684 156.563952 42.684 157.28 C 42.684 157.996048 42.968489 158.682866 43.474812 159.189188 C 43.981134 159.695511 44.667952 159.98 45.384 159.98 z" clip-path="url(#pb2eaaf1699)" style="fill: #333333; stroke: #333333; stroke-width: 2; stroke-linejoin: miter"/>   </g>   <g id="patch_10">    <path d="M 81.384 177.98 C 82.100048 177.98 82.786866 177.695511 83.293188 177.189188 C 83.799511 176.682866 84.084 175.996048 84.084 175.28 C 84.084 174.563952 83.799511 173.877134 83.293188 173.370812 C 82.786866 172.864489 82.100048 172.58 81.384 172.58 C 80.667952 172.58 79.981134 172.864489 79.474812 173.370812 C 78.968489 173.877134 78.684 174.563952 78.684 175.28 C 78.684 175.996048 78.968489 176.682866 79.474812 177.189188 C 79.981134 177.695511 80.667952 177.98 81.384 177.98 z" clip-path="url(#pb2eaaf1699)" style="fill: #333333; stroke: #333333; stroke-width: 2; stroke-linejoin: miter"/>   </g>   <g id="patch_11">    <path d="M 9.384 265.1 C 10.100048 265.1 10.786866 264.815511 11.293188 264.309188 C 11.799511 263.802866 12.084 263.116048 12.084 262.4 C 12.084 261.683952 11.799511 260.997134 11.293188 260.490812 C 10.786866 259.984489 10.100048 259.7 9.384 259.7 C 8.667952 259.7 7.981134 259.984489 7.474812 260.490812 C 6.968489 260.997134 6.684 261.683952 6.684 262.4 C 6.684 263.116048 6.968489 263.802866 7.474812 264.309188 C 7.981134 264.815511 8.667952 265.1 9.384 265.1 z" clip-path="url(#pb2eaaf1699)" style="fill: #333333; stroke: #333333; stroke-width: 2; stroke-linejoin: miter"/>   </g>   <g id="patch_12">    <path d="M 45.384 276.98 C 46.100048 276.98 46.786866 276.695511 47.293188 276.189188 C 47.799511 275.682866 48.084 274.996048 48.084 274.28 C 48.084 273.563952 47.799511 272.877134 47.293188 272.370812 C 46.786866 271.864489 46.100048 271.58 45.384 271.58 C 44.667952 271.58 43.981134 271.864489 43.474812 272.370812 C 42.968489 272.877134 42.684 273.563952 42.684 274.28 C 42.684 274.996048 42.968489 275.682866 43.474812 276.189188 C 43.981134 276.695511 44.667952 276.98 45.384 276.98 z" clip-path="url(#pb2eaaf1699)" style="fill: #333333; stroke: #333333; stroke-width: 2; stroke-linejoin: miter"/>   </g>   <g id="patch_13">    <path d="M 81.384 288.86 C 82.100048 288.86 82.786866 288.575511 83.293188 288.069188 C 83.799511 287.562866 84.084 286.876048 84.084 286.16 C 84.084 285.443952 83.799511 284.757134 83.293188 284.250812 C 82.786866 283.744489 82.100048 283.46 81.384 283.46 C 80.667952 283.46 79.981134 283.744489 79.474812 284.250812 C 78.968489 284.757134 78.684 285.443952 78.684 286.16 C 78.684 286.876048 78.968489 287.562866 79.474812 288.069188 C 79.981134 288.575511 80.667952 288.86 81.384 288.86 z" clip-path="url(#pb2eaaf1699)" style="fill: #333333; stroke: #333333; stroke-width: 2; stroke-linejoin: miter"/>   </g>  </g> </g> <defs>  <clipPath id="pb2eaaf1699">   <rect x="0" y="0" width="524.46" height="314.96"/>  </clipPath> </defs></svg>