<?xml version="1.0" encoding="utf-8" standalone="no"?><!DOCTYPE svg PUBLIC "-//W3C//DTD SVG 1.1//EN"  "http://www.w3.org/Graphics/SVG/1.1/DTD/svg11.dtd"><svg xmlns:xlink="http://www.w3.org/1999/xlink" width="114.54pt" height="47.48pt" viewBox="-10.0 -10.0 134.54000000000002 67.47999999999999" xmlns="http://www.w3.org/2000/svg" version="1.1"> <metadata>  <rdf:RDF xmlns:dc="http://purl.org/dc/elements/1.1/" xmlns:cc="http://creativecommons.org/ns#" xmlns:rdf="http://www.w3.org/1999/02/22-rdf-syntax-ns#">   <cc:Work>    <dc:type rdf:resource="http://purl.org/dc/dcmitype/StillImage"/>    <dc:date>2026-03-29T21:19:01.347075</dc:date>    <dc:format>image/svg+xml</dc:format>    <dc:creator>     <cc:Agent>      <dc:title>Matplotlib v3.10.8, https://matplotlib.org/</dc:title>     </cc:Agent>    </dc:creator>   </cc:Work>  </rdf:RDF> </metadata> <defs>  <style type="text/css">*{stroke-linejoin: round; stroke-linecap: butt}</style> </defs> <g id="figure_1">  <g id="patch_1">   <path d="M 0 47.48 L 114.54 47.48 L 114.54 0 L 0 0 L 0 47.48 z" style="fill: none"/>  </g>  <g id="axes_1">   <g id="line2d_1">    <path d="M 36.06 42.8 L 55.602857 42.733878 L 57.66 42.44 L 59.717143 41.91102 L 61.774286 41.146939 L 63.831429 40.147755 L 65.888571 38.913469 L 67.945714 37.444082 L 70.002857 35.739592 L 72.574286 33.278367 L 75.145714 30.449796 L 77.717143 27.253878 L 79.26 25.16 L 79.26 25.16 L 76.688571 21.743673 L 74.117143 18.694694 L 71.545714 16.013061 L 68.974286 13.698776 L 66.917143 12.111837 L 64.86 10.76 L 62.802857 9.643265 L 60.745714 8.761633 L 58.688571 8.115102 L 56.631429 7.703673 L 54.574286 7.527347 L 54.06 7.52 L 36.06 7.52 L 36.06 7.52 L 38.0472 9.68 L 39.7752 11.84 L 41.244 14 L 42.4536 16.16 L 43.404 18.32 L 44.0952 20.48 L 44.5272 22.64 L 44.7 24.8 L 44.6136 26.96 L 44.268 29.12 L 43.6632 31.28 L 42.7992 33.44 L 41.676 35.6 L 40.2936 37.76 L 38.652 39.92 L 36.7512 42.08 L 36.06 42.8 L 36.06 42.8 " clip-path="url(#pf9d66d06aa)" style="fill: none; stroke: #333333; stroke-width: 2; stroke-linecap: round"/>   </g>   <g id="line2d_2">    <path d="M 23.46 37.04 L 40.7832 37.04 " clip-path="url(#pf9d66d06aa)" style="fill: none; stroke: #333333; stroke-width: 2; stroke-linecap: round"/>   </g>   <g id="line2d_3">    <path d="M 23.46 25.16 L 44.7036 25.16 " clip-path="url(#pf9d66d06aa)" style="fill: none; stroke: #333333; stroke-width: 2; stroke-linecap: round"/>   </g>   <g id="line2d_4">    <path d="M 23.46 13.28 L 40.7832 13.28 " clip-path="url(#pf9d66d06aa)" style="fill: none; stroke: #333333; stroke-width: 2; stroke-linecap: round"/>   </g>   <g id="line2d_5">    <path d="M 79.26 25.16 L 91.86 25.16 " clip-path="url(#pf9d66d06aa)" style="fill: none; stroke: #333333; stroke-width: 2; stroke-linecap: round"/>   </g>   <g id="line2d_6">    <path d="M 91.86 25.16 L 100.86 25.16 L 109.86 25.16 " clip-path="url(#pf9d66d06aa)" style="fill: none; stroke: #333333; stroke-width: 2; stroke-linecap: round"/>   </g>   <g id="text_1">    <text style="font-size: 10px; font-family: 'DejaVu Sans', 'Bitstream Vera Sans', 'Computer Modern Sans Serif', 'Lucida Grande', 'Verdana', 'Geneva', 'Lucid', 'Arial', 'Helvetica', 'Avant Garde', sans-serif; text-anchor: end; fill: #333333" x="27.06" y="12.439375" transform="rotate(-0 27.06 12.439375)">AC</text>   </g>   <g id="text_2">    <!-- B$\overline{C}$ -->    <g style="fill: #333333" transform="translate(13.16 24.530313)">     <text>      <tspan x="0" y="-0.103125" style="font-size: 10px; font-family: 'DejaVu Sans'; fill: #333333">B</tspan>      <tspan x="6.860352" y="0.046875" style="font-style: oblique; font-size: 10px; font-family: 'DejaVu Sans'; fill: #333333">C</tspan>     </text>     <rect x="6.860352" y="-9.75" width="6.982422" height="0.625"/>    </g>   </g>   <g id="text_3">    <!-- $\overline{A}$BC -->    <g style="fill: #333333" transform="translate(6.36 36.360312)">     <text>      <tspan x="0" y="-0.078125" style="font-style: oblique; font-size: 10px; font-family: 'DejaVu Sans'; fill: #333333">A</tspan>      <tspan x="6.84082" y="-0.228125" style="font-size: 10px; font-family: 'DejaVu Sans'; fill: #333333">B</tspan>      <tspan x="13.701172" y="-0.228125" style="font-size: 10px; font-family: 'DejaVu Sans'; fill: #333333">C</tspan>     </text>     <rect x="0" y="-9.75" width="6.84082" height="0.625"/>    </g>   </g>   <g id="text_4">    <text style="font-size: 10px; font-family: 'DejaVu Sans', 'Bitstream Vera Sans', 'Computer Modern Sans Serif', 'Lucida Grande', 'Verdana', 'Geneva', 'Lucid', 'Arial', 'Helvetica', 'Avant Garde', sans-serif; text-anchor: start; fill: #333333" x="95.46" y="24.319375" transform="rotate(-0 95.46 24.319375)">y</text>   </g>  </g> </g> <defs>  <clipPath id="pf9d66d06aa">   <rect x="0" y="0" width="114.54" height="47.48"/>  </clipPath> </defs></svg>