<?xml version="1.0" encoding="utf-8" standalone="no"?><!DOCTYPE svg PUBLIC "-//W3C//DTD SVG 1.1//EN"  "http://www.w3.org/Graphics/SVG/1.1/DTD/svg11.dtd"><svg xmlns:xlink="http://www.w3.org/1999/xlink" width="117.708pt" height="45.36pt" viewBox="-10.0 -10.0 137.708 65.36" xmlns="http://www.w3.org/2000/svg" version="1.1"> <metadata>  <rdf:RDF xmlns:dc="http://purl.org/dc/elements/1.1/" xmlns:cc="http://creativecommons.org/ns#" xmlns:rdf="http://www.w3.org/1999/02/22-rdf-syntax-ns#">   <cc:Work>    <dc:type rdf:resource="http://purl.org/dc/dcmitype/StillImage"/>    <dc:date>2026-03-29T21:19:00.150730</dc:date>    <dc:format>image/svg+xml</dc:format>    <dc:creator>     <cc:Agent>      <dc:title>Matplotlib v3.10.8, https://matplotlib.org/</dc:title>     </cc:Agent>    </dc:creator>   </cc:Work>  </rdf:RDF> </metadata> <defs>  <style type="text/css">*{stroke-linejoin: round; stroke-linecap: butt}</style> </defs> <g id="figure_1">  <g id="patch_1">   <path d="M 0 45.36 L 117.708 45.36 L 117.708 0 L 0 0 L 0 45.36 z" style="fill: none"/>  </g>  <g id="axes_1">   <g id="line2d_1">    <path d="M 68.088 40.68 L 69.241264 40.643017 L 70.389789 40.53222 L 71.528855 40.348065 L 72.653783 40.091308 L 73.759948 39.763003 L 74.842806 39.364502 L 75.897907 38.89744 L 76.920916 38.363737 L 77.907628 37.765586 L 78.85399 37.105445 L 79.756111 36.386027 L 80.610286 35.610288 L 81.413004 34.781416 L 82.160967 33.902816 L 82.851101 32.9781 L 83.48057 32.011066 L 84.046788 31.005689 L 84.547427 29.9661 L 84.980432 28.896571 L 85.344021 27.801497 L 85.636702 26.685377 L 85.857272 25.552798 L 86.004824 24.408414 L 86.078752 23.256928 L 86.078752 22.103072 L 86.004824 20.951586 L 85.857272 19.807202 L 85.636702 18.674623 L 85.344021 17.558503 L 84.980432 16.463429 L 84.547427 15.3939 L 84.046788 14.354311 L 83.48057 13.348934 L 82.851101 12.3819 L 82.160967 11.457184 L 81.413004 10.578584 L 80.610286 9.749712 L 79.756111 8.973973 L 78.85399 8.254555 L 77.907628 7.594414 L 76.920916 6.996263 L 75.897907 6.46256 L 74.842806 5.995498 L 73.759948 5.596997 L 72.653783 5.268692 L 71.528855 5.011935 L 70.389789 4.82778 L 69.241264 4.716983 L 68.088 4.68 L 68.088 4.68 L 44.688 4.68 L 44.688 22.68 L 44.688 40.68 L 68.088 40.68 " clip-path="url(#p25e9950aa9)" style="fill: none; stroke: #333333; stroke-width: 2; stroke-linecap: round"/>   </g>   <g id="line2d_2">    <path d="M 44.688 31.68 L 44.688 31.68 " clip-path="url(#p25e9950aa9)" style="fill: none; stroke: #333333; stroke-width: 2; stroke-linecap: round"/>   </g>   <g id="line2d_3">    <path d="M 44.688 13.68 L 44.688 13.68 " clip-path="url(#p25e9950aa9)" style="fill: none; stroke: #333333; stroke-width: 2; stroke-linecap: round"/>   </g>   <g id="line2d_4">    <path d="M 86.088 22.68 L 98.688 22.68 " clip-path="url(#p25e9950aa9)" style="fill: none; stroke: #333333; stroke-width: 2; stroke-linecap: round"/>   </g>   <g id="line2d_5">    <path d="M 33.888 22.68 L 25.788 22.68 L 17.688 22.68 " clip-path="url(#p25e9950aa9)" style="fill: none; stroke: #333333; stroke-width: 2; stroke-linecap: round"/>   </g>   <g id="line2d_6">    <path d="M 33.888 22.68 L 33.888 18.18 L 33.888 13.68 " clip-path="url(#p25e9950aa9)" style="fill: none; stroke: #333333; stroke-width: 2; stroke-linecap: round"/>   </g>   <g id="line2d_7">    <path d="M 33.888 13.68 L 39.288 13.68 L 44.688 13.68 " clip-path="url(#p25e9950aa9)" style="fill: none; stroke: #333333; stroke-width: 2; stroke-linecap: round"/>   </g>   <g id="line2d_8">    <path d="M 33.888 22.68 L 33.888 27.18 L 33.888 31.68 " clip-path="url(#p25e9950aa9)" style="fill: none; stroke: #333333; stroke-width: 2; stroke-linecap: round"/>   </g>   <g id="line2d_9">    <path d="M 33.888 31.68 L 39.288 31.68 L 44.688 31.68 " clip-path="url(#p25e9950aa9)" style="fill: none; stroke: #333333; stroke-width: 2; stroke-linecap: round"/>   </g>   <g id="line2d_10">    <path d="M 98.688 22.68 L 100.488 22.68 L 102.288 22.68 " clip-path="url(#p25e9950aa9)" style="fill: none; stroke: #333333; stroke-width: 2; stroke-linecap: round"/>   </g>   <g id="text_1">    <text style="font-size: 14px; font-family: 'DejaVu Sans', 'Bitstream Vera Sans', 'Computer Modern Sans Serif', 'Lucida Grande', 'Verdana', 'Geneva', 'Lucid', 'Arial', 'Helvetica', 'Avant Garde', sans-serif; text-anchor: end; fill: #333333" x="14.088" y="26.543125" transform="rotate(-0 14.088 26.543125)">A</text>   </g>   <g id="text_2">    <text style="font-size: 14px; font-family: 'DejaVu Sans', 'Bitstream Vera Sans', 'Computer Modern Sans Serif', 'Lucida Grande', 'Verdana', 'Geneva', 'Lucid', 'Arial', 'Helvetica', 'Avant Garde', sans-serif; text-anchor: start; fill: #333333" x="105.888" y="26.543125" transform="rotate(-0 105.888 26.543125)">x</text>   </g>   <g id="patch_2">    <path d="M 33.888 25.38 C 34.604048 25.38 35.290866 25.095511 35.797188 24.589188 C 36.303511 24.082866 36.588 23.396048 36.588 22.68 C 36.588 21.963952 36.303511 21.277134 35.797188 20.770812 C 35.290866 20.264489 34.604048 19.98 33.888 19.98 C 33.171952 19.98 32.485134 20.264489 31.978812 20.770812 C 31.472489 21.277134 31.188 21.963952 31.188 22.68 C 31.188 23.396048 31.472489 24.082866 31.978812 24.589188 C 32.485134 25.095511 33.171952 25.38 33.888 25.38 z" clip-path="url(#p25e9950aa9)" style="fill: #333333; stroke: #333333; stroke-width: 2; stroke-linejoin: miter"/>   </g>   <g id="patch_3">    <path d="M 44.688 34.38 C 45.404048 34.38 46.090866 34.095511 46.597188 33.589188 C 47.103511 33.082866 47.388 32.396048 47.388 31.68 C 47.388 30.963952 47.103511 30.277134 46.597188 29.770812 C 46.090866 29.264489 45.404048 28.98 44.688 28.98 C 43.971952 28.98 43.285134 29.264489 42.778812 29.770812 C 42.272489 30.277134 41.988 30.963952 41.988 31.68 C 41.988 32.396048 42.272489 33.082866 42.778812 33.589188 C 43.285134 34.095511 43.971952 34.38 44.688 34.38 z" clip-path="url(#p25e9950aa9)" style="fill: #ffffff; stroke: #333333; stroke-width: 2; stroke-linejoin: miter"/>   </g>  </g> </g> <defs>  <clipPath id="p25e9950aa9">   <rect x="0" y="0" width="117.708" height="45.36"/>  </clipPath> </defs></svg>