<?xml version="1.0" encoding="utf-8" standalone="no"?><!DOCTYPE svg PUBLIC "-//W3C//DTD SVG 1.1//EN"  "http://www.w3.org/Graphics/SVG/1.1/DTD/svg11.dtd"><svg xmlns:xlink="http://www.w3.org/1999/xlink" width="392.208pt" height="144.36pt" viewBox="-10.0 -10.0 412.208 164.36" xmlns="http://www.w3.org/2000/svg" version="1.1"> <metadata>  <rdf:RDF xmlns:dc="http://purl.org/dc/elements/1.1/" xmlns:cc="http://creativecommons.org/ns#" xmlns:rdf="http://www.w3.org/1999/02/22-rdf-syntax-ns#">   <cc:Work>    <dc:type rdf:resource="http://purl.org/dc/dcmitype/StillImage"/>    <dc:date>2026-03-31T11:00:55.539711</dc:date>    <dc:format>image/svg+xml</dc:format>    <dc:creator>     <cc:Agent>      <dc:title>Matplotlib v3.10.8, https://matplotlib.org/</dc:title>     </cc:Agent>    </dc:creator>   </cc:Work>  </rdf:RDF> </metadata> <defs>  <style type="text/css">*{stroke-linejoin: round; stroke-linecap: butt}</style> </defs> <g id="figure_1">  <g id="patch_1">   <path d="M 0 144.36 L 393.208 144.36 M 0 -1 L 0 144.36 " style="fill: none"/>  </g>  <g id="axes_1">   <g id="patch_2">    <path d="M 88.608 19.8 C 89.753677 19.8 90.852585 19.344818 91.662701 18.534701 C 92.472818 17.724585 92.928 16.625677 92.928 15.48 C 92.928 14.334323 92.472818 13.235415 91.662701 12.425299 C 90.852585 11.615182 89.753677 11.16 88.608 11.16 C 87.462323 11.16 86.363415 11.615182 85.553299 12.425299 C 84.743182 13.235415 84.288 14.334323 84.288 15.48 C 84.288 16.625677 84.743182 17.724585 85.553299 18.534701 C 86.363415 19.344818 87.462323 19.8 88.608 19.8 L 88.608 19.8 z" clip-path="url(#pb628a8b69f)" style="fill: none; stroke: #333333; stroke-width: 2; stroke-linejoin: miter"/>   </g>   <g id="line2d_1">    <path d="M 24.888 15.48 L 42.888 15.48 L 60.888 15.48 " clip-path="url(#pb628a8b69f)" style="fill: none; stroke: #333333; stroke-width: 2; stroke-linecap: round"/>   </g>   <g id="line2d_2">    <path d="M 60.888 15.48 M 92.928 15.48 " clip-path="url(#pb628a8b69f)" style="fill: none; stroke: #333333; stroke-width: 2; stroke-linecap: round"/>   </g>   <g id="line2d_3">    <path d="M 62.864 -1 L 84.288 15.48 L 60.888 33.48 L 60.888 -1 " clip-path="url(#pb628a8b69f)" style="fill: none; stroke: #333333; stroke-width: 2; stroke-linecap: round"/>   </g>   <g id="line2d_4">    <path d="M 204.888 42.48 L 206.041264 42.443017 L 207.189789 42.33222 L 208.328855 42.148065 L 209.453783 41.891308 L 210.559948 41.563003 L 211.642806 41.164502 L 212.697907 40.69744 L 213.720916 40.163737 L 214.707628 39.565586 L 215.65399 38.905445 L 216.556111 38.186027 L 217.410286 37.410288 L 218.213004 36.581416 L 218.960967 35.702816 L 219.651101 34.7781 L 220.28057 33.811066 L 220.846788 32.805689 L 221.347427 31.7661 L 221.780432 30.696571 L 222.144021 29.601497 L 222.436702 28.485377 L 222.657272 27.352798 L 222.804824 26.208414 L 222.878752 25.056928 L 222.878752 23.903072 L 222.804824 22.751586 L 222.657272 21.607202 L 222.436702 20.474623 L 222.144021 19.358503 L 221.780432 18.263429 L 221.347427 17.1939 L 220.846788 16.154311 L 220.28057 15.148934 L 219.651101 14.1819 L 218.960967 13.257184 L 218.213004 12.378584 L 217.410286 11.549712 L 216.556111 10.773973 L 215.65399 10.054555 L 214.707628 9.394414 L 213.720916 8.796263 L 212.697907 8.26256 L 211.642806 7.795498 L 210.559948 7.396997 L 209.453783 7.068692 L 208.328855 6.811935 L 207.189789 6.62778 L 206.041264 6.516983 L 204.888 6.48 L 204.888 6.48 L 181.488 6.48 L 181.488 24.48 L 181.488 42.48 L 204.888 42.48 " clip-path="url(#pb628a8b69f)" style="fill: none; stroke: #333333; stroke-width: 2; stroke-linecap: round"/>   </g>   <g id="line2d_5">    <path d="M 168.888 33.48 L 181.488 33.48 " clip-path="url(#pb628a8b69f)" style="fill: none; stroke: #333333; stroke-width: 2; stroke-linecap: round"/>   </g>   <g id="line2d_6">    <path d="M 168.888 15.48 L 181.488 15.48 " clip-path="url(#pb628a8b69f)" style="fill: none; stroke: #333333; stroke-width: 2; stroke-linecap: round"/>   </g>   <g id="line2d_7">    <path d="M 222.888 24.48 L 235.488 24.48 " clip-path="url(#pb628a8b69f)" style="fill: none; stroke: #333333; stroke-width: 2; stroke-linecap: round"/>   </g>   <g id="line2d_8">    <path d="M 204.888 132.48 L 206.041264 132.443017 L 207.189789 132.33222 L 208.328855 132.148065 L 209.453783 131.891308 L 210.559948 131.563003 L 211.642806 131.164502 L 212.697907 130.69744 L 213.720916 130.163737 L 214.707628 129.565586 L 215.65399 128.905445 L 216.556111 128.186027 L 217.410286 127.410288 L 218.213004 126.581416 L 218.960967 125.702816 L 219.651101 124.7781 L 220.28057 123.811066 L 220.846788 122.805689 L 221.347427 121.7661 L 221.780432 120.696571 L 222.144021 119.601497 L 222.436702 118.485377 L 222.657272 117.352798 L 222.804824 116.208414 L 222.878752 115.056928 L 222.878752 113.903072 L 222.804824 112.751586 L 222.657272 111.607202 L 222.436702 110.474623 L 222.144021 109.358503 L 221.780432 108.263429 L 221.347427 107.1939 L 220.846788 106.154311 L 220.28057 105.148934 L 219.651101 104.1819 L 218.960967 103.257184 L 218.213004 102.378584 L 217.410286 101.549712 L 216.556111 100.773973 L 215.65399 100.054555 L 214.707628 99.394414 L 213.720916 98.796263 L 212.697907 98.26256 L 211.642806 97.795498 L 210.559948 97.396997 L 209.453783 97.068692 L 208.328855 96.811935 L 207.189789 96.62778 L 206.041264 96.516983 L 204.888 96.48 L 204.888 96.48 L 181.488 96.48 L 181.488 114.48 L 181.488 132.48 L 204.888 132.48 " clip-path="url(#pb628a8b69f)" style="fill: none; stroke: #333333; stroke-width: 2; stroke-linecap: round"/>   </g>   <g id="line2d_9">    <path d="M 168.888 123.48 L 181.488 123.48 " clip-path="url(#pb628a8b69f)" style="fill: none; stroke: #333333; stroke-width: 2; stroke-linecap: round"/>   </g>   <g id="line2d_10">    <path d="M 168.888 105.48 L 181.488 105.48 " clip-path="url(#pb628a8b69f)" style="fill: none; stroke: #333333; stroke-width: 2; stroke-linecap: round"/>   </g>   <g id="line2d_11">    <path d="M 222.888 114.48 L 235.488 114.48 " clip-path="url(#pb628a8b69f)" style="fill: none; stroke: #333333; stroke-width: 2; stroke-linecap: round"/>   </g>   <g id="line2d_12">    <path d="M 92.928 15.48 L 101.928 15.48 L 110.928 15.48 " clip-path="url(#pb628a8b69f)" style="fill: none; stroke: #333333; stroke-width: 2; stroke-linecap: round"/>   </g>   <g id="line2d_13">    <path d="M 110.928 15.48 L 139.908 15.48 L 168.888 15.48 " clip-path="url(#pb628a8b69f)" style="fill: none; stroke: #333333; stroke-width: 2; stroke-linecap: round"/>   </g>   <g id="line2d_14">    <path d="M 24.888 33.48 L 78.888 33.48 L 132.888 33.48 " clip-path="url(#pb628a8b69f)" style="fill: none; stroke: #333333; stroke-width: 2; stroke-linecap: round"/>   </g>   <g id="line2d_15">    <path d="M 132.888 33.48 L 150.888 33.48 L 168.888 33.48 " clip-path="url(#pb628a8b69f)" style="fill: none; stroke: #333333; stroke-width: 2; stroke-linecap: round"/>   </g>   <g id="line2d_16">    <path d="M 132.888 33.48 L 132.888 69.48 L 132.888 105.48 " clip-path="url(#pb628a8b69f)" style="fill: none; stroke: #333333; stroke-width: 2; stroke-linecap: round"/>   </g>   <g id="line2d_17">    <path d="M 132.888 105.48 L 150.888 105.48 L 168.888 105.48 " clip-path="url(#pb628a8b69f)" style="fill: none; stroke: #333333; stroke-width: 2; stroke-linecap: round"/>   </g>   <g id="line2d_18">    <path d="M 24.888 123.48 L 96.888 123.48 L 168.888 123.48 " clip-path="url(#pb628a8b69f)" style="fill: none; stroke: #333333; stroke-width: 2; stroke-linecap: round"/>   </g>   <g id="line2d_19">    <path d="M 307.488 87.12 L 327.030857 87.053878 L 329.088 86.76 L 331.145143 86.23102 L 333.202286 85.466939 L 335.259429 84.467755 L 337.316571 83.233469 L 339.373714 81.764082 L 341.430857 80.059592 L 344.002286 77.598367 L 346.573714 74.769796 L 349.145143 71.573878 L 350.688 69.48 L 350.688 69.48 L 348.116571 66.063673 L 345.545143 63.014694 L 342.973714 60.333061 L 340.402286 58.018776 L 338.345143 56.431837 L 336.288 55.08 L 334.230857 53.963265 L 332.173714 53.081633 L 330.116571 52.435102 L 328.059429 52.023673 L 326.002286 51.847347 L 325.488 51.84 L 307.488 51.84 L 307.488 51.84 L 309.4752 54 L 311.2032 56.16 L 312.672 58.32 L 313.8816 60.48 L 314.832 62.64 L 315.5232 64.8 L 315.9552 66.96 L 316.128 69.12 L 316.0416 71.28 L 315.696 73.44 L 315.0912 75.6 L 314.2272 77.76 L 313.104 79.92 L 311.7216 82.08 L 310.08 84.24 L 308.1792 86.4 L 307.488 87.12 L 307.488 87.12 " clip-path="url(#pb628a8b69f)" style="fill: none; stroke: #333333; stroke-width: 2; stroke-linecap: round"/>   </g>   <g id="line2d_20">    <path d="M 294.888 78.48 L 313.8816 78.48 " clip-path="url(#pb628a8b69f)" style="fill: none; stroke: #333333; stroke-width: 2; stroke-linecap: round"/>   </g>   <g id="line2d_21">    <path d="M 294.888 60.48 L 313.8816 60.48 " clip-path="url(#pb628a8b69f)" style="fill: none; stroke: #333333; stroke-width: 2; stroke-linecap: round"/>   </g>   <g id="line2d_22">    <path d="M 350.688 69.48 L 363.288 69.48 " clip-path="url(#pb628a8b69f)" style="fill: none; stroke: #333333; stroke-width: 2; stroke-linecap: round"/>   </g>   <g id="line2d_23">    <path d="M 235.488 24.48 L 249.888 24.48 L 264.288 24.48 " clip-path="url(#pb628a8b69f)" style="fill: none; stroke: #333333; stroke-width: 2; stroke-linecap: round"/>   </g>   <g id="line2d_24">    <path d="M 264.288 24.48 L 279.588 24.48 L 294.888 24.48 " clip-path="url(#pb628a8b69f)" style="fill: none; stroke: #333333; stroke-width: 2; stroke-linecap: round"/>   </g>   <g id="line2d_25">    <path d="M 294.888 24.48 L 294.888 42.48 L 294.888 60.48 " clip-path="url(#pb628a8b69f)" style="fill: none; stroke: #333333; stroke-width: 2; stroke-linecap: round"/>   </g>   <g id="line2d_26">    <path d="M 235.488 114.48 L 249.888 114.48 L 264.288 114.48 " clip-path="url(#pb628a8b69f)" style="fill: none; stroke: #333333; stroke-width: 2; stroke-linecap: round"/>   </g>   <g id="line2d_27">    <path d="M 264.288 114.48 L 279.588 114.48 L 294.888 114.48 " clip-path="url(#pb628a8b69f)" style="fill: none; stroke: #333333; stroke-width: 2; stroke-linecap: round"/>   </g>   <g id="line2d_28">    <path d="M 294.888 114.48 L 294.888 96.48 L 294.888 78.48 " clip-path="url(#pb628a8b69f)" style="fill: none; stroke: #333333; stroke-width: 2; stroke-linecap: round"/>   </g>   <g id="line2d_29">    <path d="M 363.288 69.48 L 372.288 69.48 L 381.288 69.48 " clip-path="url(#pb628a8b69f)" style="fill: none; stroke: #333333; stroke-width: 2; stroke-linecap: round"/>   </g>   <g id="text_1">    <text style="font-size: 14px; font-family: 'DejaVu Sans', 'Bitstream Vera Sans', 'Computer Modern Sans Serif', 'Lucida Grande', 'Verdana', 'Geneva', 'Lucid', 'Arial', 'Helvetica', 'Avant Garde', sans-serif; text-anchor: end; fill: #333333" x="21.288" y="19.343125" transform="rotate(-0 21.288 19.343125)">A</text>   </g>   <g id="text_2">    <!-- $u = \overline{A}$ -->    <g style="fill: #333333" transform="translate(84.078 8.968437)">     <text>      <tspan x="0" y="-0.331875" style="font-style: oblique; font-size: 14px; font-family: 'DejaVu Sans'; fill: #333333">u</tspan>      <tspan x="26.058594" y="0.078125" style="font-style: oblique; font-size: 14px; font-family: 'DejaVu Sans'; fill: #333333">A</tspan>      <tspan x="11.600586" y="-0.331875" style="font-size: 14px; font-family: 'DejaVu Sans'; fill: #333333">=</tspan>     </text>     <rect x="26.058594" y="-13.25" width="9.577148" height="0.875"/>    </g>   </g>   <g id="text_3">    <text style="font-size: 14px; font-family: 'DejaVu Sans', 'Bitstream Vera Sans', 'Computer Modern Sans Serif', 'Lucida Grande', 'Verdana', 'Geneva', 'Lucid', 'Arial', 'Helvetica', 'Avant Garde', sans-serif; text-anchor: end; fill: #333333" x="21.288" y="37.343125" transform="rotate(-0 21.288 37.343125)">B</text>   </g>   <g id="text_4">    <text style="font-size: 14px; font-family: 'DejaVu Sans', 'Bitstream Vera Sans', 'Computer Modern Sans Serif', 'Lucida Grande', 'Verdana', 'Geneva', 'Lucid', 'Arial', 'Helvetica', 'Avant Garde', sans-serif; text-anchor: end; fill: #333333" x="21.288" y="127.343125" transform="rotate(-0 21.288 127.343125)">C</text>   </g>   <g id="text_5">    <!-- $v = \overline{A}B$ -->    <g style="fill: #333333" transform="translate(227.558 17.968437)">     <text>      <tspan x="0" y="-0.331875" style="font-style: oblique; font-size: 14px; font-family: 'DejaVu Sans'; fill: #333333">v</tspan>      <tspan x="25.470703" y="0.078125" style="font-style: oblique; font-size: 14px; font-family: 'DejaVu Sans'; fill: #333333">A</tspan>      <tspan x="35.047852" y="-0.331875" style="font-style: oblique; font-size: 14px; font-family: 'DejaVu Sans'; fill: #333333">B</tspan>      <tspan x="11.012695" y="-0.331875" style="font-size: 14px; font-family: 'DejaVu Sans'; fill: #333333">=</tspan>     </text>     <rect x="25.470703" y="-13.25" width="9.577148" height="0.875"/>    </g>   </g>   <g id="text_6">    <!-- $w = BC$ -->    <g style="fill: #333333" transform="translate(225.878 107.968437)">     <text>      <tspan x="0" y="-0.609375" style="font-style: oblique; font-size: 14px; font-family: 'DejaVu Sans'; fill: #333333">w</tspan>      <tspan x="28.635742" y="-0.609375" style="font-style: oblique; font-size: 14px; font-family: 'DejaVu Sans'; fill: #333333">B</tspan>      <tspan x="38.240234" y="-0.609375" style="font-style: oblique; font-size: 14px; font-family: 'DejaVu Sans'; fill: #333333">C</tspan>      <tspan x="14.177734" y="-0.609375" style="font-size: 14px; font-family: 'DejaVu Sans'; fill: #333333">=</tspan>     </text>    </g>   </g>   <g id="patch_3">    <path d="M 381.288 72.18 C 382.004048 72.18 382.690866 71.895511 383.197188 71.389188 C 383.703511 70.882866 383.988 70.196048 383.988 69.48 C 383.988 68.763952 383.703511 68.077134 383.197188 67.570812 C 382.690866 67.064489 382.004048 66.78 381.288 66.78 C 380.571952 66.78 379.885134 67.064489 379.378812 67.570812 C 378.872489 68.077134 378.588 68.763952 378.588 69.48 C 378.588 70.196048 378.872489 70.882866 379.378812 71.389188 C 379.885134 71.895511 380.571952 72.18 381.288 72.18 z" clip-path="url(#pb628a8b69f)" style="fill: #ffffff; stroke: #333333; stroke-width: 2; stroke-linejoin: miter"/>   </g>   <g id="text_7">    <text style="font-size: 14px; font-family: 'DejaVu Sans', 'Bitstream Vera Sans', 'Computer Modern Sans Serif', 'Lucida Grande', 'Verdana', 'Geneva', 'Lucid', 'Arial', 'Helvetica', 'Avant Garde', sans-serif; text-anchor: start; fill: #333333" x="387.588" y="73.343125" transform="rotate(-0 387.588 73.343125)">x</text>   </g>   <g id="patch_4">    <path d="M 132.888 36.18 C 133.604048 36.18 134.290866 35.895511 134.797188 35.389188 C 135.303511 34.882866 135.588 34.196048 135.588 33.48 C 135.588 32.763952 135.303511 32.077134 134.797188 31.570812 C 134.290866 31.064489 133.604048 30.78 132.888 30.78 C 132.171952 30.78 131.485134 31.064489 130.978812 31.570812 C 130.472489 32.077134 130.188 32.763952 130.188 33.48 C 130.188 34.196048 130.472489 34.882866 130.978812 35.389188 C 131.485134 35.895511 132.171952 36.18 132.888 36.18 z" clip-path="url(#pb628a8b69f)" style="fill: #333333; stroke: #333333; stroke-width: 2; stroke-linejoin: miter"/>   </g>   <g id="patch_5">    <path d="M 132.888 108.18 C 133.604048 108.18 134.290866 107.895511 134.797188 107.389188 C 135.303511 106.882866 135.588 106.196048 135.588 105.48 C 135.588 104.763952 135.303511 104.077134 134.797188 103.570812 C 134.290866 103.064489 133.604048 102.78 132.888 102.78 C 132.171952 102.78 131.485134 103.064489 130.978812 103.570812 C 130.472489 104.077134 130.188 104.763952 130.188 105.48 C 130.188 106.196048 130.472489 106.882866 130.978812 107.389188 C 131.485134 107.895511 132.171952 108.18 132.888 108.18 z" clip-path="url(#pb628a8b69f)" style="fill: #333333; stroke: #333333; stroke-width: 2; stroke-linejoin: miter"/>   </g>  </g> </g> <defs>  <clipPath id="pb628a8b69f">   <rect x="7.2" y="-7.2" width="392.208" height="144.36"/>  </clipPath> </defs></svg>