<?xml version="1.0" encoding="utf-8" standalone="no"?><!DOCTYPE svg PUBLIC "-//W3C//DTD SVG 1.1//EN"  "http://www.w3.org/Graphics/SVG/1.1/DTD/svg11.dtd"><svg xmlns:xlink="http://www.w3.org/1999/xlink" width="293.736pt" height="52.12pt" viewBox="-10.0 -10.0 313.736 72.12" xmlns="http://www.w3.org/2000/svg" version="1.1"> <metadata>  <rdf:RDF xmlns:dc="http://purl.org/dc/elements/1.1/" xmlns:cc="http://creativecommons.org/ns#" xmlns:rdf="http://www.w3.org/1999/02/22-rdf-syntax-ns#">   <cc:Work>    <dc:type rdf:resource="http://purl.org/dc/dcmitype/StillImage"/>    <dc:date>2026-03-29T21:19:00.767216</dc:date>    <dc:format>image/svg+xml</dc:format>    <dc:creator>     <cc:Agent>      <dc:title>Matplotlib v3.10.8, https://matplotlib.org/</dc:title>     </cc:Agent>    </dc:creator>   </cc:Work>  </rdf:RDF> </metadata> <defs>  <style type="text/css">*{stroke-linejoin: round; stroke-linecap: butt}</style> </defs> <g id="figure_1">  <g id="patch_1">   <path d="M 0 52.12 L 293.736 52.12 L 293.736 0 L 0 0 L 0 52.12 z" style="fill: none"/>  </g>  <g id="axes_1">   <g id="line2d_1">    <path d="M 43.26 44.6 L 62.802857 44.533878 L 64.86 44.24 L 66.917143 43.71102 L 68.974286 42.946939 L 71.031429 41.947755 L 73.088571 40.713469 L 75.145714 39.244082 L 77.202857 37.539592 L 79.774286 35.078367 L 82.345714 32.249796 L 84.917143 29.053878 L 86.46 26.96 L 86.46 26.96 L 83.888571 23.543673 L 81.317143 20.494694 L 78.745714 17.813061 L 76.174286 15.498776 L 74.117143 13.911837 L 72.06 12.56 L 70.002857 11.443265 L 67.945714 10.561633 L 65.888571 9.915102 L 63.831429 9.503673 L 61.774286 9.327347 L 61.26 9.32 L 43.26 9.32 L 43.26 9.32 L 45.2472 11.48 L 46.9752 13.64 L 48.444 15.8 L 49.6536 17.96 L 50.604 20.12 L 51.2952 22.28 L 51.7272 24.44 L 51.9 26.6 L 51.8136 28.76 L 51.468 30.92 L 50.8632 33.08 L 49.9992 35.24 L 48.876 37.4 L 47.4936 39.56 L 45.852 41.72 L 43.9512 43.88 L 43.26 44.6 L 43.26 44.6 " clip-path="url(#pd333918a1f)" style="fill: none; stroke: #333333; stroke-width: 2; stroke-linecap: round"/>   </g>   <g id="line2d_2">    <path d="M 30.66 38.84 L 47.9832 38.84 " clip-path="url(#pd333918a1f)" style="fill: none; stroke: #333333; stroke-width: 2; stroke-linecap: round"/>   </g>   <g id="line2d_3">    <path d="M 30.66 26.96 L 51.9036 26.96 " clip-path="url(#pd333918a1f)" style="fill: none; stroke: #333333; stroke-width: 2; stroke-linecap: round"/>   </g>   <g id="line2d_4">    <path d="M 30.66 15.08 L 47.9832 15.08 " clip-path="url(#pd333918a1f)" style="fill: none; stroke: #333333; stroke-width: 2; stroke-linecap: round"/>   </g>   <g id="line2d_5">    <path d="M 86.46 26.96 L 99.06 26.96 " clip-path="url(#pd333918a1f)" style="fill: none; stroke: #333333; stroke-width: 2; stroke-linecap: round"/>   </g>   <g id="text_1">    <!-- $y = AC + B\overline{C} + \overline{A}BC$ -->    <g style="fill: #333333" transform="translate(102.66 32.42)">     <text>      <tspan x="0" y="-0.144375" style="font-style: oblique; font-size: 14px; font-family: 'DejaVu Sans'; fill: #333333">y</tspan>      <tspan x="25.470703" y="-0.144375" style="font-style: oblique; font-size: 14px; font-family: 'DejaVu Sans'; fill: #333333">A</tspan>      <tspan x="35.047852" y="-0.144375" style="font-style: oblique; font-size: 14px; font-family: 'DejaVu Sans'; fill: #333333">C</tspan>      <tspan x="62.008789" y="-0.144375" style="font-style: oblique; font-size: 14px; font-family: 'DejaVu Sans'; fill: #333333">B</tspan>      <tspan x="71.613281" y="0.265625" style="font-style: oblique; font-size: 14px; font-family: 'DejaVu Sans'; fill: #333333">C</tspan>      <tspan x="98.574219" y="0.265625" style="font-style: oblique; font-size: 14px; font-family: 'DejaVu Sans'; fill: #333333">A</tspan>      <tspan x="108.151367" y="-0.144375" style="font-style: oblique; font-size: 14px; font-family: 'DejaVu Sans'; fill: #333333">B</tspan>      <tspan x="117.755859" y="-0.144375" style="font-style: oblique; font-size: 14px; font-family: 'DejaVu Sans'; fill: #333333">C</tspan>      <tspan x="11.012695" y="-0.144375" style="font-size: 14px; font-family: 'DejaVu Sans'; fill: #333333">=</tspan>      <tspan x="47.550781" y="-0.144375" style="font-size: 14px; font-family: 'DejaVu Sans'; fill: #333333">+</tspan>      <tspan x="84.116211" y="-0.144375" style="font-size: 14px; font-family: 'DejaVu Sans'; fill: #333333">+</tspan>     </text>     <rect x="71.613281" y="-13.25" width="9.775391" height="0.875"/>     <rect x="98.574219" y="-13.0625" width="9.577148" height="0.875"/>    </g>   </g>   <g id="text_2">    <!-- $AC$ -->    <g style="fill: #333333" transform="translate(13.16 12.439375)">     <text>      <tspan x="0" y="-0.578125" style="font-style: oblique; font-size: 10px; font-family: 'DejaVu Sans'; fill: #333333">A</tspan>      <tspan x="6.84082" y="-0.578125" style="font-style: oblique; font-size: 10px; font-family: 'DejaVu Sans'; fill: #333333">C</tspan>     </text>    </g>   </g>   <g id="text_3">    <!-- $B\overline{C}$ -->    <g style="fill: #333333" transform="translate(13.16 29.930312)">     <text>      <tspan x="0" y="-0.103125" style="font-style: oblique; font-size: 10px; font-family: 'DejaVu Sans'; fill: #333333">B</tspan>      <tspan x="6.860352" y="0.046875" style="font-style: oblique; font-size: 10px; font-family: 'DejaVu Sans'; fill: #333333">C</tspan>     </text>     <rect x="6.860352" y="-9.75" width="6.982422" height="0.625"/>    </g>   </g>   <g id="text_4">    <!-- $\overline{A}BC$ -->    <g style="fill: #333333" transform="translate(6.36 45.360312)">     <text>      <tspan x="0" y="-0.078125" style="font-style: oblique; font-size: 10px; font-family: 'DejaVu Sans'; fill: #333333">A</tspan>      <tspan x="6.84082" y="-0.228125" style="font-style: oblique; font-size: 10px; font-family: 'DejaVu Sans'; fill: #333333">B</tspan>      <tspan x="13.701172" y="-0.228125" style="font-style: oblique; font-size: 10px; font-family: 'DejaVu Sans'; fill: #333333">C</tspan>     </text>     <rect x="0" y="-9.75" width="6.84082" height="0.625"/>    </g>   </g>  </g> </g> <defs>  <clipPath id="pd333918a1f">   <rect x="0" y="0" width="293.736" height="52.12"/>  </clipPath> </defs></svg>