<?xml version="1.0" encoding="utf-8" standalone="no"?><!DOCTYPE svg PUBLIC "-//W3C//DTD SVG 1.1//EN"  "http://www.w3.org/Graphics/SVG/1.1/DTD/svg11.dtd"><svg xmlns:xlink="http://www.w3.org/1999/xlink" width="342.538884pt" height="213.6pt" viewBox="-10.0 -10.0 362.538884 233.6" xmlns="http://www.w3.org/2000/svg" version="1.1"> <metadata>  <rdf:RDF xmlns:dc="http://purl.org/dc/elements/1.1/" xmlns:cc="http://creativecommons.org/ns#" xmlns:rdf="http://www.w3.org/1999/02/22-rdf-syntax-ns#">   <cc:Work>    <dc:type rdf:resource="http://purl.org/dc/dcmitype/StillImage"/>    <dc:date>2026-03-29T21:18:59.018486</dc:date>    <dc:format>image/svg+xml</dc:format>    <dc:creator>     <cc:Agent>      <dc:title>Matplotlib v3.10.8, https://matplotlib.org/</dc:title>     </cc:Agent>    </dc:creator>   </cc:Work>  </rdf:RDF> </metadata> <defs>  <style type="text/css">*{stroke-linejoin: round; stroke-linecap: butt}</style> </defs> <g id="figure_1">  <g id="patch_1">   <path d="M 0 213.6 L 342.538884 213.6 L 342.538884 0 L 0 0 L 0 213.6 z" style="fill: none"/>  </g>  <g id="axes_1">   <g id="patch_2">    <path d="M 76.5 42.6 C 77.645677 42.6 78.744585 42.144818 79.554701 41.334701 C 80.364818 40.524585 80.82 39.425677 80.82 38.28 C 80.82 37.134323 80.364818 36.035415 79.554701 35.225299 C 78.744585 34.415182 77.645677 33.96 76.5 33.96 C 75.354323 33.96 74.255415 34.415182 73.445299 35.225299 C 72.635182 36.035415 72.18 37.134323 72.18 38.28 C 72.18 39.425677 72.635182 40.524585 73.445299 41.334701 C 74.255415 42.144818 75.354323 42.6 76.5 42.6 L 76.5 42.6 z" clip-path="url(#pa859e5eec8)" style="fill: none; stroke: #333333; stroke-width: 2; stroke-linejoin: miter"/>   </g>   <g id="patch_3">    <path d="M 103.86 42.6 C 105.005677 42.6 106.104585 42.144818 106.914701 41.334701 C 107.724818 40.524585 108.18 39.425677 108.18 38.28 C 108.18 37.134323 107.724818 36.035415 106.914701 35.225299 C 106.104585 34.415182 105.005677 33.96 103.86 33.96 C 102.714323 33.96 101.615415 34.415182 100.805299 35.225299 C 99.995182 36.035415 99.54 37.134323 99.54 38.28 C 99.54 39.425677 99.995182 40.524585 100.805299 41.334701 C 101.615415 42.144818 102.714323 42.6 103.86 42.6 L 103.86 42.6 z" clip-path="url(#pa859e5eec8)" style="fill: none; stroke: #333333; stroke-width: 2; stroke-linejoin: miter"/>   </g>   <g id="line2d_1">    <path d="M 18.18 182.28 L 18.18 196.68 L 9.18 196.68 L 27.18 196.68 M 11.88 201 L 24.48 201 M 16.38 205.32 L 19.98 205.32 " clip-path="url(#pa859e5eec8)" style="fill: none; stroke: #333333; stroke-width: 2; stroke-linecap: round"/>   </g>   <g id="line2d_2">    <path d="M 18.18 182.28 L 18.18 173.28 L 18.18 164.28 " clip-path="url(#pa859e5eec8)" style="fill: none; stroke: #333333; stroke-width: 2; stroke-linecap: round"/>   </g>   <g id="line2d_3">    <path d="M 18.18 164.28 L 18.18 120.405 M 18.18 100.155 L 18.18 56.28 " clip-path="url(#pa859e5eec8)" style="fill: none; stroke: #333333; stroke-width: 2; stroke-linecap: round"/>   </g>   <g id="line2d_4">    <path d="M 4.68 120.405 L 31.68 120.405 " clip-path="url(#pa859e5eec8)" style="fill: none; stroke: #333333; stroke-width: 2; stroke-linecap: round"/>   </g>   <g id="line2d_5">    <path d="M 11.43 113.655 L 24.93 113.655 " clip-path="url(#pa859e5eec8)" style="fill: none; stroke: #333333; stroke-width: 2; stroke-linecap: round"/>   </g>   <g id="line2d_6">    <path d="M 4.68 106.905 L 31.68 106.905 " clip-path="url(#pa859e5eec8)" style="fill: none; stroke: #333333; stroke-width: 2; stroke-linecap: round"/>   </g>   <g id="line2d_7">    <path d="M 11.43 100.155 L 24.93 100.155 " clip-path="url(#pa859e5eec8)" style="fill: none; stroke: #333333; stroke-width: 2; stroke-linecap: round"/>   </g>   <g id="line2d_8">    <path d="M 18.18 56.28 L 18.18 47.28 L 18.18 38.28 " clip-path="url(#pa859e5eec8)" style="fill: none; stroke: #333333; stroke-width: 2; stroke-linecap: round"/>   </g>   <g id="line2d_9">    <path d="M 18.18 38.28 L 27.18 38.28 L 36.18 38.28 " clip-path="url(#pa859e5eec8)" style="fill: none; stroke: #333333; stroke-width: 2; stroke-linecap: round"/>   </g>   <g id="line2d_10">    <path d="M 36.18 38.28 L 72.18 38.28 M 76.5 27.48 L 103.86 27.48 M 90.18 27.48 L 90.18 20.28 M 108.18 38.28 L 144.18 38.28 " clip-path="url(#pa859e5eec8)" style="fill: none; stroke: #333333; stroke-width: 2; stroke-linecap: round"/>   </g>   <g id="line2d_11">    <path d="M 144.18 38.28 L 234.18 38.28 L 324.18 38.28 " clip-path="url(#pa859e5eec8)" style="fill: none; stroke: #333333; stroke-width: 2; stroke-linecap: round"/>   </g>   <g id="line2d_12">    <path d="M 324.18 38.28 L 324.18 48.18 L 324.18 58.08 " clip-path="url(#pa859e5eec8)" style="fill: none; stroke: #333333; stroke-width: 2; stroke-linecap: round"/>   </g>   <g id="line2d_13">    <path d="M 324.18 58.08 L 324.18 94.08 L 327.144187 94.21407 L 330.135107 94.62176 L 332.901917 95.294001 L 335.212568 96.199538 L 336.134308 96.724567 L 336.873271 97.287547 L 337.413881 97.879767 L 337.744744 98.491902 L 337.858884 99.114207 L 337.753898 99.73672 L 337.431996 100.349478 L 336.899965 100.942723 L 336.169018 101.507106 L 335.254564 102.033888 L 332.955691 102.943825 L 330.19615 103.621342 L 327.20738 104.03474 L 324.240043 104.174472 L 321.543006 104.053942 L 319.342465 103.708382 L 317.822976 103.191898 L 317.361011 102.890537 L 317.111977 102.572928 L 317.081122 102.248923 L 317.269097 101.928509 L 317.67194 101.621597 L 319.083915 101.086292 L 321.198626 100.713029 L 323.838716 100.558236 L 326.782764 100.660019 L 329.783858 101.034963 L 332.5903 101.676748 L 334.966719 102.556671 L 335.929494 103.071402 L 336.713808 103.626057 L 337.303131 104.212102 L 337.685041 104.820342 L 337.851487 105.441113 L 337.798962 106.064487 L 337.528572 106.680482 L 337.046017 107.279271 L 336.361468 107.85139 L 335.489355 108.387935 L 333.259529 109.322621 L 330.543553 110.03006 L 327.569211 110.476046 L 324.585956 110.648297 L 321.84399 110.55749 L 319.573277 110.236365 L 317.964258 109.736977 L 317.452569 109.440936 L 317.15188 109.126332 L 317.068529 108.802952 L 317.204275 108.480768 L 317.556254 108.169731 L 318.117048 107.879551 L 319.813648 107.398228 L 322.151782 107.102289 L 324.935355 107.041678 L 327.930913 107.246602 L 330.887224 107.724998 L 333.556345 108.461866 L 335.714422 109.420531 L 336.543138 109.966371 L 337.18046 110.545713 L 337.612955 111.149502 L 337.831505 111.768169 L 337.831505 112.391831 L 337.612955 113.010498 L 337.18046 113.614287 L 336.543138 114.193629 L 335.714422 114.739469 L 334.71178 115.24346 L 332.272473 116.097065 L 329.429798 116.707979 L 326.422165 117.050087 L 323.501822 117.119821 L 320.913691 116.936457 L 318.874837 116.540496 L 317.556254 115.990269 L 317.204275 115.679232 L 317.068529 115.357048 L 317.15188 115.033668 L 317.452569 114.719064 L 317.964258 114.423023 L 319.573277 113.923635 L 321.84399 113.60251 L 324.585956 113.511703 L 327.569211 113.683954 L 330.543553 114.12994 L 333.259529 114.837379 L 335.489355 115.772065 L 336.361468 116.30861 L 337.046017 116.880729 L 337.528572 117.479518 L 337.798962 118.095513 L 337.851487 118.718887 L 337.685041 119.339658 L 337.303131 119.947898 L 336.713808 120.533943 L 335.929494 121.088598 L 334.966719 121.603329 L 332.5903 122.483252 L 329.783858 123.125037 L 326.782764 123.499981 L 323.838716 123.601764 L 321.198626 123.446971 L 319.083915 123.073708 L 317.67194 122.538403 L 317.269097 122.231491 L 317.081122 121.911077 L 317.111977 121.587072 L 317.361011 121.269463 L 317.822976 120.968102 L 319.342465 120.451618 L 321.543006 120.106058 L 324.240043 119.985528 L 327.20738 120.12526 L 330.19615 120.538658 L 332.955691 121.216175 L 335.254564 122.126112 L 336.169018 122.652894 L 336.899965 123.217277 L 337.431996 123.810522 L 337.753898 124.42328 L 337.858884 125.045793 L 337.744744 125.668098 L 337.413881 126.280233 L 336.873271 126.872453 L 336.134308 127.435433 L 335.212568 127.960462 L 332.901917 128.865999 L 330.135107 129.53824 L 327.144187 129.94593 L 324.18 130.08 L 324.18 166.08 L 324.18 166.08 " clip-path="url(#pa859e5eec8)" style="fill: none; stroke: #333333; stroke-width: 2; stroke-linecap: round"/>   </g>   <g id="line2d_14">    <path d="M 324.18 166.08 L 324.18 175.98 L 324.18 185.88 " clip-path="url(#pa859e5eec8)" style="fill: none; stroke: #333333; stroke-width: 2; stroke-linecap: round"/>   </g>   <g id="line2d_15">    <path d="M 324.18 185.88 L 324.18 200.28 L 315.18 200.28 L 333.18 200.28 M 317.88 204.6 L 330.48 204.6 M 322.38 208.92 L 325.98 208.92 " clip-path="url(#pa859e5eec8)" style="fill: none; stroke: #333333; stroke-width: 2; stroke-linecap: round"/>   </g>   <g id="text_1">    <text style="font-size: 12px; font-family: 'DejaVu Sans', 'Bitstream Vera Sans', 'Computer Modern Sans Serif', 'Lucida Grande', 'Verdana', 'Geneva', 'Lucid', 'Arial', 'Helvetica', 'Avant Garde', sans-serif; text-anchor: start; fill: #333333" x="35.28" y="113.59125" transform="rotate(-0 35.28 113.59125)">Bateria</text>   </g>   <g id="text_2">    <text style="font-size: 12px; font-family: 'DejaVu Sans', 'Bitstream Vera Sans', 'Computer Modern Sans Serif', 'Lucida Grande', 'Verdana', 'Geneva', 'Lucid', 'Arial', 'Helvetica', 'Avant Garde', sans-serif; text-anchor: middle; fill: #333333" x="90.18" y="14.184375" transform="rotate(-0 90.18 14.184375)">Chave</text>   </g>   <g id="text_3">    <text style="font-size: 12px; font-family: 'DejaVu Sans', 'Bitstream Vera Sans', 'Computer Modern Sans Serif', 'Lucida Grande', 'Verdana', 'Geneva', 'Lucid', 'Arial', 'Helvetica', 'Avant Garde', sans-serif; text-anchor: middle; fill: #333333" x="234.18" y="32.184375" transform="rotate(-0 234.18 32.184375)">Cabo do telégrafo</text>   </g>   <g id="text_4">    <text style="font-size: 12px; font-family: 'DejaVu Sans', 'Bitstream Vera Sans', 'Computer Modern Sans Serif', 'Lucida Grande', 'Verdana', 'Geneva', 'Lucid', 'Arial', 'Helvetica', 'Avant Garde', sans-serif; fill: #333333" transform="translate(271.982279 109.584375)">Bobina</text>    <text style="font-size: 12px; font-family: 'DejaVu Sans', 'Bitstream Vera Sans', 'Computer Modern Sans Serif', 'Lucida Grande', 'Verdana', 'Geneva', 'Lucid', 'Arial', 'Helvetica', 'Avant Garde', sans-serif; fill: #333333" transform="translate(244.697279 121.198125)">da matraca</text>   </g>  </g> </g> <defs>  <clipPath id="pa859e5eec8">   <rect x="0" y="-0" width="342.538884" height="213.6"/>  </clipPath> </defs></svg>