<?xml version="1.0" encoding="utf-8" standalone="no"?><!DOCTYPE svg PUBLIC "-//W3C//DTD SVG 1.1//EN"  "http://www.w3.org/Graphics/SVG/1.1/DTD/svg11.dtd"><svg xmlns:xlink="http://www.w3.org/1999/xlink" width="128.508pt" height="44.64pt" viewBox="-10.0 -10.0 148.508 64.64" xmlns="http://www.w3.org/2000/svg" version="1.1"> <metadata>  <rdf:RDF xmlns:dc="http://purl.org/dc/elements/1.1/" xmlns:cc="http://creativecommons.org/ns#" xmlns:rdf="http://www.w3.org/1999/02/22-rdf-syntax-ns#">   <cc:Work>    <dc:type rdf:resource="http://purl.org/dc/dcmitype/StillImage"/>    <dc:date>2026-03-31T11:00:54.291790</dc:date>    <dc:format>image/svg+xml</dc:format>    <dc:creator>     <cc:Agent>      <dc:title>Matplotlib v3.10.8, https://matplotlib.org/</dc:title>     </cc:Agent>    </dc:creator>   </cc:Work>  </rdf:RDF> </metadata> <defs>  <style type="text/css">*{stroke-linejoin: round; stroke-linecap: butt}</style> </defs> <g id="figure_1">  <g id="patch_1">   <path d="M 0 44.64 L 128.508 44.64 L 128.508 0 L 0 0 L 0 44.64 z" style="fill: none"/>  </g>  <g id="axes_1">   <g id="line2d_1">    <path d="M 48.288 39.96 L 67.830857 39.893878 L 69.888 39.6 L 71.945143 39.07102 L 74.002286 38.306939 L 76.059429 37.307755 L 78.116571 36.073469 L 80.173714 34.604082 L 82.230857 32.899592 L 84.802286 30.438367 L 87.373714 27.609796 L 89.945143 24.413878 L 91.488 22.32 L 91.488 22.32 L 88.916571 18.903673 L 86.345143 15.854694 L 83.773714 13.173061 L 81.202286 10.858776 L 79.145143 9.271837 L 77.088 7.92 L 75.030857 6.803265 L 72.973714 5.921633 L 70.916571 5.275102 L 68.859429 4.863673 L 66.802286 4.687347 L 66.288 4.68 L 48.288 4.68 L 48.288 4.68 L 50.2752 6.84 L 52.0032 9 L 53.472 11.16 L 54.6816 13.32 L 55.632 15.48 L 56.3232 17.64 L 56.7552 19.8 L 56.928 21.96 L 56.8416 24.12 L 56.496 26.28 L 55.8912 28.44 L 55.0272 30.6 L 53.904 32.76 L 52.5216 34.92 L 50.88 37.08 L 48.9792 39.24 L 48.288 39.96 L 48.288 39.96 " clip-path="url(#p679d2cbccf)" style="fill: none; stroke: #333333; stroke-width: 2; stroke-linecap: round"/>   </g>   <g id="line2d_2">    <path d="M 35.688 31.32 L 54.6816 31.32 " clip-path="url(#p679d2cbccf)" style="fill: none; stroke: #333333; stroke-width: 2; stroke-linecap: round"/>   </g>   <g id="line2d_3">    <path d="M 35.688 13.32 L 54.6816 13.32 " clip-path="url(#p679d2cbccf)" style="fill: none; stroke: #333333; stroke-width: 2; stroke-linecap: round"/>   </g>   <g id="line2d_4">    <path d="M 91.488 22.32 L 104.088 22.32 " clip-path="url(#p679d2cbccf)" style="fill: none; stroke: #333333; stroke-width: 2; stroke-linecap: round"/>   </g>   <g id="line2d_5">    <path d="M 35.688 22.32 L 26.688 22.32 L 17.688 22.32 " clip-path="url(#p679d2cbccf)" style="fill: none; stroke: #333333; stroke-width: 2; stroke-linecap: round"/>   </g>   <g id="line2d_6">    <path d="M 35.688 22.32 L 35.688 17.82 L 35.688 13.32 " clip-path="url(#p679d2cbccf)" style="fill: none; stroke: #333333; stroke-width: 2; stroke-linecap: round"/>   </g>   <g id="line2d_7">    <path d="M 35.688 22.32 L 35.688 26.82 L 35.688 31.32 " clip-path="url(#p679d2cbccf)" style="fill: none; stroke: #333333; stroke-width: 2; stroke-linecap: round"/>   </g>   <g id="line2d_8">    <path d="M 104.088 22.32 L 108.588 22.32 L 113.088 22.32 " clip-path="url(#p679d2cbccf)" style="fill: none; stroke: #333333; stroke-width: 2; stroke-linecap: round"/>   </g>   <g id="text_1">    <text style="font-size: 14px; font-family: 'DejaVu Sans', 'Bitstream Vera Sans', 'Computer Modern Sans Serif', 'Lucida Grande', 'Verdana', 'Geneva', 'Lucid', 'Arial', 'Helvetica', 'Avant Garde', sans-serif; text-anchor: end; fill: #333333" x="14.088" y="26.183125" transform="rotate(-0 14.088 26.183125)">A</text>   </g>   <g id="text_2">    <text style="font-size: 14px; font-family: 'DejaVu Sans', 'Bitstream Vera Sans', 'Computer Modern Sans Serif', 'Lucida Grande', 'Verdana', 'Geneva', 'Lucid', 'Arial', 'Helvetica', 'Avant Garde', sans-serif; text-anchor: start; fill: #333333" x="116.688" y="26.183125" transform="rotate(-0 116.688 26.183125)">x</text>   </g>   <g id="patch_2">    <path d="M 35.688 25.02 C 36.404048 25.02 37.090866 24.735511 37.597188 24.229188 C 38.103511 23.722866 38.388 23.036048 38.388 22.32 C 38.388 21.603952 38.103511 20.917134 37.597188 20.410812 C 37.090866 19.904489 36.404048 19.62 35.688 19.62 C 34.971952 19.62 34.285134 19.904489 33.778812 20.410812 C 33.272489 20.917134 32.988 21.603952 32.988 22.32 C 32.988 23.036048 33.272489 23.722866 33.778812 24.229188 C 34.285134 24.735511 34.971952 25.02 35.688 25.02 z" clip-path="url(#p679d2cbccf)" style="fill: #333333; stroke: #333333; stroke-width: 2; stroke-linejoin: miter"/>   </g>  </g> </g> <defs>  <clipPath id="p679d2cbccf">   <rect x="0" y="0" width="128.508" height="44.64"/>  </clipPath> </defs></svg>