<?xml version="1.0" encoding="utf-8" standalone="no"?><!DOCTYPE svg PUBLIC "-//W3C//DTD SVG 1.1//EN"  "http://www.w3.org/Graphics/SVG/1.1/DTD/svg11.dtd"><svg xmlns:xlink="http://www.w3.org/1999/xlink" width="126.708pt" height="45.36pt" viewBox="-10.0 -10.0 146.708 65.36" xmlns="http://www.w3.org/2000/svg" version="1.1"> <metadata>  <rdf:RDF xmlns:dc="http://purl.org/dc/elements/1.1/" xmlns:cc="http://creativecommons.org/ns#" xmlns:rdf="http://www.w3.org/1999/02/22-rdf-syntax-ns#">   <cc:Work>    <dc:type rdf:resource="http://purl.org/dc/dcmitype/StillImage"/>    <dc:date>2026-03-31T11:00:53.592349</dc:date>    <dc:format>image/svg+xml</dc:format>    <dc:creator>     <cc:Agent>      <dc:title>Matplotlib v3.10.8, https://matplotlib.org/</dc:title>     </cc:Agent>    </dc:creator>   </cc:Work>  </rdf:RDF> </metadata> <defs>  <style type="text/css">*{stroke-linejoin: round; stroke-linecap: butt}</style> </defs> <g id="figure_1">  <g id="patch_1">   <path d="M 0 45.36 L 126.708 45.36 L 126.708 0 L 0 0 L 0 45.36 z" style="fill: none"/>  </g>  <g id="axes_1">   <g id="line2d_1">    <path d="M 71.688 40.68 L 72.841264 40.643017 L 73.989789 40.53222 L 75.128855 40.348065 L 76.253783 40.091308 L 77.359948 39.763003 L 78.442806 39.364502 L 79.497907 38.89744 L 80.520916 38.363737 L 81.507628 37.765586 L 82.45399 37.105445 L 83.356111 36.386027 L 84.210286 35.610288 L 85.013004 34.781416 L 85.760967 33.902816 L 86.451101 32.9781 L 87.08057 32.011066 L 87.646788 31.005689 L 88.147427 29.9661 L 88.580432 28.896571 L 88.944021 27.801497 L 89.236702 26.685377 L 89.457272 25.552798 L 89.604824 24.408414 L 89.678752 23.256928 L 89.678752 22.103072 L 89.604824 20.951586 L 89.457272 19.807202 L 89.236702 18.674623 L 88.944021 17.558503 L 88.580432 16.463429 L 88.147427 15.3939 L 87.646788 14.354311 L 87.08057 13.348934 L 86.451101 12.3819 L 85.760967 11.457184 L 85.013004 10.578584 L 84.210286 9.749712 L 83.356111 8.973973 L 82.45399 8.254555 L 81.507628 7.594414 L 80.520916 6.996263 L 79.497907 6.46256 L 78.442806 5.995498 L 77.359948 5.596997 L 76.253783 5.268692 L 75.128855 5.011935 L 73.989789 4.82778 L 72.841264 4.716983 L 71.688 4.68 L 71.688 4.68 L 48.288 4.68 L 48.288 22.68 L 48.288 40.68 L 71.688 40.68 " clip-path="url(#pe6c364b075)" style="fill: none; stroke: #333333; stroke-width: 2; stroke-linecap: round"/>   </g>   <g id="line2d_2">    <path d="M 35.688 31.68 L 48.288 31.68 " clip-path="url(#pe6c364b075)" style="fill: none; stroke: #333333; stroke-width: 2; stroke-linecap: round"/>   </g>   <g id="line2d_3">    <path d="M 35.688 13.68 L 48.288 13.68 " clip-path="url(#pe6c364b075)" style="fill: none; stroke: #333333; stroke-width: 2; stroke-linecap: round"/>   </g>   <g id="line2d_4">    <path d="M 89.688 22.68 L 102.288 22.68 " clip-path="url(#pe6c364b075)" style="fill: none; stroke: #333333; stroke-width: 2; stroke-linecap: round"/>   </g>   <g id="line2d_5">    <path d="M 35.688 22.68 L 26.688 22.68 L 17.688 22.68 " clip-path="url(#pe6c364b075)" style="fill: none; stroke: #333333; stroke-width: 2; stroke-linecap: round"/>   </g>   <g id="line2d_6">    <path d="M 35.688 22.68 L 35.688 18.18 L 35.688 13.68 " clip-path="url(#pe6c364b075)" style="fill: none; stroke: #333333; stroke-width: 2; stroke-linecap: round"/>   </g>   <g id="line2d_7">    <path d="M 35.688 22.68 L 35.688 27.18 L 35.688 31.68 " clip-path="url(#pe6c364b075)" style="fill: none; stroke: #333333; stroke-width: 2; stroke-linecap: round"/>   </g>   <g id="line2d_8">    <path d="M 102.288 22.68 L 106.788 22.68 L 111.288 22.68 " clip-path="url(#pe6c364b075)" style="fill: none; stroke: #333333; stroke-width: 2; stroke-linecap: round"/>   </g>   <g id="text_1">    <text style="font-size: 14px; font-family: 'DejaVu Sans', 'Bitstream Vera Sans', 'Computer Modern Sans Serif', 'Lucida Grande', 'Verdana', 'Geneva', 'Lucid', 'Arial', 'Helvetica', 'Avant Garde', sans-serif; text-anchor: end; fill: #333333" x="14.088" y="26.543125" transform="rotate(-0 14.088 26.543125)">A</text>   </g>   <g id="text_2">    <text style="font-size: 14px; font-family: 'DejaVu Sans', 'Bitstream Vera Sans', 'Computer Modern Sans Serif', 'Lucida Grande', 'Verdana', 'Geneva', 'Lucid', 'Arial', 'Helvetica', 'Avant Garde', sans-serif; text-anchor: start; fill: #333333" x="114.888" y="26.543125" transform="rotate(-0 114.888 26.543125)">x</text>   </g>   <g id="patch_2">    <path d="M 35.688 25.38 C 36.404048 25.38 37.090866 25.095511 37.597188 24.589188 C 38.103511 24.082866 38.388 23.396048 38.388 22.68 C 38.388 21.963952 38.103511 21.277134 37.597188 20.770812 C 37.090866 20.264489 36.404048 19.98 35.688 19.98 C 34.971952 19.98 34.285134 20.264489 33.778812 20.770812 C 33.272489 21.277134 32.988 21.963952 32.988 22.68 C 32.988 23.396048 33.272489 24.082866 33.778812 24.589188 C 34.285134 25.095511 34.971952 25.38 35.688 25.38 z" clip-path="url(#pe6c364b075)" style="fill: #333333; stroke: #333333; stroke-width: 2; stroke-linejoin: miter"/>   </g>  </g> </g> <defs>  <clipPath id="pe6c364b075">   <rect x="0" y="0" width="126.708" height="45.36"/>  </clipPath> </defs></svg>