<?xml version="1.0" encoding="utf-8" standalone="no"?><!DOCTYPE svg PUBLIC "-//W3C//DTD SVG 1.1//EN"  "http://www.w3.org/Graphics/SVG/1.1/DTD/svg11.dtd"><svg xmlns:xlink="http://www.w3.org/1999/xlink" width="119.508pt" height="44.64pt" viewBox="-10.0 -10.0 139.50799999999998 64.64" xmlns="http://www.w3.org/2000/svg" version="1.1"> <metadata>  <rdf:RDF xmlns:dc="http://purl.org/dc/elements/1.1/" xmlns:cc="http://creativecommons.org/ns#" xmlns:rdf="http://www.w3.org/1999/02/22-rdf-syntax-ns#">   <cc:Work>    <dc:type rdf:resource="http://purl.org/dc/dcmitype/StillImage"/>    <dc:date>2026-03-31T11:00:54.615676</dc:date>    <dc:format>image/svg+xml</dc:format>    <dc:creator>     <cc:Agent>      <dc:title>Matplotlib v3.10.8, https://matplotlib.org/</dc:title>     </cc:Agent>    </dc:creator>   </cc:Work>  </rdf:RDF> </metadata> <defs>  <style type="text/css">*{stroke-linejoin: round; stroke-linecap: butt}</style> </defs> <g id="figure_1">  <g id="patch_1">   <path d="M 0 44.64 L 119.508 44.64 L 119.508 0 L 0 0 L 0 44.64 z" style="fill: none"/>  </g>  <g id="axes_1">   <g id="line2d_1">    <path d="M 44.688 39.96 L 64.230857 39.893878 L 66.288 39.6 L 68.345143 39.07102 L 70.402286 38.306939 L 72.459429 37.307755 L 74.516571 36.073469 L 76.573714 34.604082 L 78.630857 32.899592 L 81.202286 30.438367 L 83.773714 27.609796 L 86.345143 24.413878 L 87.888 22.32 L 87.888 22.32 L 85.316571 18.903673 L 82.745143 15.854694 L 80.173714 13.173061 L 77.602286 10.858776 L 75.545143 9.271837 L 73.488 7.92 L 71.430857 6.803265 L 69.373714 5.921633 L 67.316571 5.275102 L 65.259429 4.863673 L 63.202286 4.687347 L 62.688 4.68 L 44.688 4.68 L 44.688 4.68 L 46.6752 6.84 L 48.4032 9 L 49.872 11.16 L 51.0816 13.32 L 52.032 15.48 L 52.7232 17.64 L 53.1552 19.8 L 53.328 21.96 L 53.2416 24.12 L 52.896 26.28 L 52.2912 28.44 L 51.4272 30.6 L 50.304 32.76 L 48.9216 34.92 L 47.28 37.08 L 45.3792 39.24 L 44.688 39.96 L 44.688 39.96 " clip-path="url(#p20222aed11)" style="fill: none; stroke: #333333; stroke-width: 2; stroke-linecap: round"/>   </g>   <g id="line2d_2">    <path d="M 44.688 31.32 L 51.0816 31.32 " clip-path="url(#p20222aed11)" style="fill: none; stroke: #333333; stroke-width: 2; stroke-linecap: round"/>   </g>   <g id="line2d_3">    <path d="M 44.688 13.32 L 51.0816 13.32 " clip-path="url(#p20222aed11)" style="fill: none; stroke: #333333; stroke-width: 2; stroke-linecap: round"/>   </g>   <g id="line2d_4">    <path d="M 87.888 22.32 L 100.488 22.32 " clip-path="url(#p20222aed11)" style="fill: none; stroke: #333333; stroke-width: 2; stroke-linecap: round"/>   </g>   <g id="line2d_5">    <path d="M 33.888 22.32 L 25.788 22.32 L 17.688 22.32 " clip-path="url(#p20222aed11)" style="fill: none; stroke: #333333; stroke-width: 2; stroke-linecap: round"/>   </g>   <g id="line2d_6">    <path d="M 33.888 22.32 L 33.888 17.82 L 33.888 13.32 " clip-path="url(#p20222aed11)" style="fill: none; stroke: #333333; stroke-width: 2; stroke-linecap: round"/>   </g>   <g id="line2d_7">    <path d="M 33.888 13.32 L 39.288 13.32 L 44.688 13.32 " clip-path="url(#p20222aed11)" style="fill: none; stroke: #333333; stroke-width: 2; stroke-linecap: round"/>   </g>   <g id="line2d_8">    <path d="M 33.888 22.32 L 33.888 26.82 L 33.888 31.32 " clip-path="url(#p20222aed11)" style="fill: none; stroke: #333333; stroke-width: 2; stroke-linecap: round"/>   </g>   <g id="line2d_9">    <path d="M 33.888 31.32 L 39.288 31.32 L 44.688 31.32 " clip-path="url(#p20222aed11)" style="fill: none; stroke: #333333; stroke-width: 2; stroke-linecap: round"/>   </g>   <g id="line2d_10">    <path d="M 100.488 22.32 L 102.288 22.32 L 104.088 22.32 " clip-path="url(#p20222aed11)" style="fill: none; stroke: #333333; stroke-width: 2; stroke-linecap: round"/>   </g>   <g id="text_1">    <text style="font-size: 14px; font-family: 'DejaVu Sans', 'Bitstream Vera Sans', 'Computer Modern Sans Serif', 'Lucida Grande', 'Verdana', 'Geneva', 'Lucid', 'Arial', 'Helvetica', 'Avant Garde', sans-serif; text-anchor: end; fill: #333333" x="14.088" y="26.183125" transform="rotate(-0 14.088 26.183125)">A</text>   </g>   <g id="text_2">    <text style="font-size: 14px; font-family: 'DejaVu Sans', 'Bitstream Vera Sans', 'Computer Modern Sans Serif', 'Lucida Grande', 'Verdana', 'Geneva', 'Lucid', 'Arial', 'Helvetica', 'Avant Garde', sans-serif; text-anchor: start; fill: #333333" x="107.688" y="26.183125" transform="rotate(-0 107.688 26.183125)">x</text>   </g>   <g id="patch_2">    <path d="M 33.888 25.02 C 34.604048 25.02 35.290866 24.735511 35.797188 24.229188 C 36.303511 23.722866 36.588 23.036048 36.588 22.32 C 36.588 21.603952 36.303511 20.917134 35.797188 20.410812 C 35.290866 19.904489 34.604048 19.62 33.888 19.62 C 33.171952 19.62 32.485134 19.904489 31.978812 20.410812 C 31.472489 20.917134 31.188 21.603952 31.188 22.32 C 31.188 23.036048 31.472489 23.722866 31.978812 24.229188 C 32.485134 24.735511 33.171952 25.02 33.888 25.02 z" clip-path="url(#p20222aed11)" style="fill: #333333; stroke: #333333; stroke-width: 2; stroke-linejoin: miter"/>   </g>   <g id="patch_3">    <path d="M 44.688 34.02 C 45.404048 34.02 46.090866 33.735511 46.597188 33.229188 C 47.103511 32.722866 47.388 32.036048 47.388 31.32 C 47.388 30.603952 47.103511 29.917134 46.597188 29.410812 C 46.090866 28.904489 45.404048 28.62 44.688 28.62 C 43.971952 28.62 43.285134 28.904489 42.778812 29.410812 C 42.272489 29.917134 41.988 30.603952 41.988 31.32 C 41.988 32.036048 42.272489 32.722866 42.778812 33.229188 C 43.285134 33.735511 43.971952 34.02 44.688 34.02 z" clip-path="url(#p20222aed11)" style="fill: #ffffff; stroke: #333333; stroke-width: 2; stroke-linejoin: miter"/>   </g>  </g> </g> <defs>  <clipPath id="p20222aed11">   <rect x="0" y="0" width="119.508" height="44.64"/>  </clipPath> </defs></svg>