<?xml version="1.0" encoding="utf-8" standalone="no"?><!DOCTYPE svg PUBLIC "-//W3C//DTD SVG 1.1//EN"  "http://www.w3.org/Graphics/SVG/1.1/DTD/svg11.dtd"><svg xmlns:xlink="http://www.w3.org/1999/xlink" width="509.016pt" height="106.56pt" viewBox="-10.0 -10.0 529.0160000000001 126.56" xmlns="http://www.w3.org/2000/svg" version="1.1"> <metadata>  <rdf:RDF xmlns:dc="http://purl.org/dc/elements/1.1/" xmlns:cc="http://creativecommons.org/ns#" xmlns:rdf="http://www.w3.org/1999/02/22-rdf-syntax-ns#">   <cc:Work>    <dc:type rdf:resource="http://purl.org/dc/dcmitype/StillImage"/>    <dc:date>2026-03-31T11:00:53.134827</dc:date>    <dc:format>image/svg+xml</dc:format>    <dc:creator>     <cc:Agent>      <dc:title>Matplotlib v3.10.8, https://matplotlib.org/</dc:title>     </cc:Agent>    </dc:creator>   </cc:Work>  </rdf:RDF> </metadata> <defs>  <style type="text/css">*{stroke-linejoin: round; stroke-linecap: butt}</style> </defs> <g id="figure_1">  <g id="patch_1">   <path d="M 0 106.56 L 509.016 106.56 L 509.016 0 L 0 0 L 0 106.56 z" style="fill: none"/>  </g>  <g id="axes_1">   <g id="patch_2">    <path d="M 106.908 42.48 C 111.681656 42.48 116.260438 40.583406 119.635922 37.207922 C 123.011406 33.832438 124.908 29.253656 124.908 24.48 C 124.908 19.706344 123.011406 15.127562 119.635922 11.752078 C 116.260438 8.376594 111.681656 6.48 106.908 6.48 C 102.134344 6.48 97.555562 8.376594 94.180078 11.752078 C 90.804594 15.127562 88.908 19.706344 88.908 24.48 C 88.908 29.253656 90.804594 33.832438 94.180078 37.207922 C 97.555562 40.583406 102.134344 42.48 106.908 42.48 L 106.908 42.48 z" clip-path="url(#pb276221223)" style="fill: none; stroke: #333333; stroke-width: 2; stroke-linejoin: miter"/>   </g>   <g id="line2d_1">    <path d="M 186.108 24.48 L 186.108 4.68 L 243.708 4.68 L 243.708 44.28 L 186.108 44.28 L 186.108 24.48 " clip-path="url(#pb276221223)" style="fill: none; stroke: #333333; stroke-width: 2; stroke-linecap: round"/>   </g>   <g id="line2d_2">    <path d="M 294.108 24.48 L 294.108 4.68 L 351.708 4.68 L 351.708 44.28 L 294.108 44.28 L 294.108 24.48 " clip-path="url(#pb276221223)" style="fill: none; stroke: #333333; stroke-width: 2; stroke-linecap: round"/>   </g>   <g id="line2d_3">    <path d="M 240.108 82.08 L 240.108 62.28 L 297.708 62.28 L 297.708 101.88 L 240.108 101.88 L 240.108 82.08 " clip-path="url(#pb276221223)" style="fill: none; stroke: #333333; stroke-width: 2; stroke-linecap: round"/>   </g>   <g id="line2d_4">    <path d="M 430.908 24.48 L 452.508 24.48 L 465.108 24.48 " clip-path="url(#pb276221223)" style="fill: none; stroke: #333333; stroke-width: 2; stroke-linecap: round"/>   </g>   <g id="patch_3">    <path d="M 465.108 21.78 L 474.108 24.48 L 465.108 27.18 z" clip-path="url(#pb276221223)" style="fill: #333333"/>   </g>   <g id="line2d_5">    <path d="M 34.908 24.48 L 61.908 24.48 L 79.908 24.48 " clip-path="url(#pb276221223)" style="fill: none; stroke: #333333; stroke-width: 2; stroke-linecap: round"/>   </g>   <g id="patch_4">    <path d="M 79.908 21.78 L 88.908 24.48 L 79.908 27.18 z" clip-path="url(#pb276221223)" style="fill: #333333"/>   </g>   <g id="line2d_6">    <path d="M 124.908 24.48 L 155.508 24.48 L 177.108 24.48 " clip-path="url(#pb276221223)" style="fill: none; stroke: #333333; stroke-width: 2; stroke-linecap: round"/>   </g>   <g id="patch_5">    <path d="M 177.108 21.78 L 186.108 24.48 L 177.108 27.18 z" clip-path="url(#pb276221223)" style="fill: #333333"/>   </g>   <g id="line2d_7">    <path d="M 243.708 24.48 L 268.908 24.48 L 285.108 24.48 " clip-path="url(#pb276221223)" style="fill: none; stroke: #333333; stroke-width: 2; stroke-linecap: round"/>   </g>   <g id="patch_6">    <path d="M 285.108 21.78 L 294.108 24.48 L 285.108 27.18 z" clip-path="url(#pb276221223)" style="fill: #333333"/>   </g>   <g id="line2d_8">    <path d="M 351.708 24.48 L 391.308 24.48 L 421.908 24.48 " clip-path="url(#pb276221223)" style="fill: none; stroke: #333333; stroke-width: 2; stroke-linecap: round"/>   </g>   <g id="patch_7">    <path d="M 421.908 21.78 L 430.908 24.48 L 421.908 27.18 z" clip-path="url(#pb276221223)" style="fill: #333333"/>   </g>   <g id="line2d_9">    <path d="M 430.908 24.48 L 430.908 53.28 L 430.908 82.08 " clip-path="url(#pb276221223)" style="fill: none; stroke: #333333; stroke-width: 2; stroke-linecap: round"/>   </g>   <g id="line2d_10">    <path d="M 430.908 82.08 L 364.308 82.08 L 306.708 82.08 " clip-path="url(#pb276221223)" style="fill: none; stroke: #333333; stroke-width: 2; stroke-linecap: round"/>   </g>   <g id="patch_8">    <path d="M 306.708 84.78 L 297.708 82.08 L 306.708 79.38 z" clip-path="url(#pb276221223)" style="fill: #333333"/>   </g>   <g id="line2d_11">    <path d="M 240.108 82.08 L 173.508 82.08 L 106.908 82.08 " clip-path="url(#pb276221223)" style="fill: none; stroke: #333333; stroke-width: 2; stroke-linecap: round"/>   </g>   <g id="line2d_12">    <path d="M 106.908 82.08 L 106.908 62.28 L 106.908 51.48 " clip-path="url(#pb276221223)" style="fill: none; stroke: #333333; stroke-width: 2; stroke-linecap: round"/>   </g>   <g id="patch_9">    <path d="M 104.208 51.48 L 106.908 42.48 L 109.608 51.48 z" clip-path="url(#pb276221223)" style="fill: #333333"/>   </g>   <g id="text_1">    <!-- $\Sigma$ -->    <g style="fill: #333333" transform="translate(100.628 28.343125)">     <text>      <tspan x="0" y="-0.796875" style="font-size: 14px; font-family: 'DejaVu Sans'; fill: #333333">Σ</tspan>     </text>    </g>   </g>   <g id="text_2">    <!-- $G_1(s)$ -->    <g style="fill: #333333" transform="translate(197.058 28.343125)">     <text>      <tspan x="0" y="-0.375" style="font-style: oblique; font-size: 14px; font-family: 'DejaVu Sans'; fill: #333333">G</tspan>      <tspan x="22.928418" y="-0.375" style="font-style: oblique; font-size: 14px; font-family: 'DejaVu Sans'; fill: #333333">s</tspan>      <tspan x="10.848633" y="1.921875" style="font-size: 9.8px; font-family: 'DejaVu Sans'; fill: #333333">1</tspan>      <tspan x="17.466504" y="-0.375" style="font-size: 14px; font-family: 'DejaVu Sans'; fill: #333333">(</tspan>      <tspan x="30.222363" y="-0.375" style="font-size: 14px; font-family: 'DejaVu Sans'; fill: #333333">)</tspan>     </text>    </g>   </g>   <g id="text_3">    <!-- $G_2(s)$ -->    <g style="fill: #333333" transform="translate(305.058 28.343125)">     <text>      <tspan x="0" y="-0.375" style="font-style: oblique; font-size: 14px; font-family: 'DejaVu Sans'; fill: #333333">G</tspan>      <tspan x="22.928418" y="-0.375" style="font-style: oblique; font-size: 14px; font-family: 'DejaVu Sans'; fill: #333333">s</tspan>      <tspan x="10.848633" y="1.921875" style="font-size: 9.8px; font-family: 'DejaVu Sans'; fill: #333333">2</tspan>      <tspan x="17.466504" y="-0.375" style="font-size: 14px; font-family: 'DejaVu Sans'; fill: #333333">(</tspan>      <tspan x="30.222363" y="-0.375" style="font-size: 14px; font-family: 'DejaVu Sans'; fill: #333333">)</tspan>     </text>    </g>   </g>   <g id="text_4">    <!-- $H(s)$ -->    <g style="fill: #333333" transform="translate(254.488 85.943125)">     <text>      <tspan x="0" y="-0.375" style="font-style: oblique; font-size: 14px; font-family: 'DejaVu Sans'; fill: #333333">H</tspan>      <tspan x="15.989258" y="-0.375" style="font-style: oblique; font-size: 14px; font-family: 'DejaVu Sans'; fill: #333333">s</tspan>      <tspan x="10.527344" y="-0.375" style="font-size: 14px; font-family: 'DejaVu Sans'; fill: #333333">(</tspan>      <tspan x="23.283203" y="-0.375" style="font-size: 14px; font-family: 'DejaVu Sans'; fill: #333333">)</tspan>     </text>    </g>   </g>   <g id="text_5">    <text style="font-size: 14px; font-family: 'DejaVu Sans', 'Bitstream Vera Sans', 'Computer Modern Sans Serif', 'Lucida Grande', 'Verdana', 'Geneva', 'Lucid', 'Arial', 'Helvetica', 'Avant Garde', sans-serif; text-anchor: start; fill: #333333" x="477.708" y="28.343125" transform="rotate(-0 477.708 28.343125)">Y(s)</text>   </g>   <g id="text_6">    <text style="font-size: 14px; font-family: 'DejaVu Sans', 'Bitstream Vera Sans', 'Computer Modern Sans Serif', 'Lucida Grande', 'Verdana', 'Geneva', 'Lucid', 'Arial', 'Helvetica', 'Avant Garde', sans-serif; text-anchor: end; fill: #333333" x="31.308" y="28.343125" transform="rotate(-0 31.308 28.343125)">X(s)</text>   </g>   <g id="text_7">    <!-- $-$ -->    <g style="fill: #333333" transform="translate(101.028 96.317813)">     <text>      <tspan x="0" y="-0.03125" style="font-size: 14px; font-family: 'DejaVu Sans'; fill: #333333">−</tspan>     </text>    </g>   </g>   <g id="patch_10">    <path d="M 430.908 27.18 C 431.624048 27.18 432.310866 26.895511 432.817188 26.389188 C 433.323511 25.882866 433.608 25.196048 433.608 24.48 C 433.608 23.763952 433.323511 23.077134 432.817188 22.570812 C 432.310866 22.064489 431.624048 21.78 430.908 21.78 C 430.191952 21.78 429.505134 22.064489 428.998812 22.570812 C 428.492489 23.077134 428.208 23.763952 428.208 24.48 C 428.208 25.196048 428.492489 25.882866 428.998812 26.389188 C 429.505134 26.895511 430.191952 27.18 430.908 27.18 z" clip-path="url(#pb276221223)" style="fill: #333333; stroke: #333333; stroke-width: 2; stroke-linejoin: miter"/>   </g>  </g> </g> <defs>  <clipPath id="pb276221223">   <rect x="0" y="0" width="509.016" height="106.56"/>  </clipPath> </defs></svg>