<?xml version="1.0" encoding="utf-8" standalone="no"?><!DOCTYPE svg PUBLIC "-//W3C//DTD SVG 1.1//EN"  "http://www.w3.org/Graphics/SVG/1.1/DTD/svg11.dtd"><svg xmlns:xlink="http://www.w3.org/1999/xlink" width="509.016pt" height="164.16pt" viewBox="-10.0 -10.0 529.0160000000001 184.16" xmlns="http://www.w3.org/2000/svg" version="1.1"> <metadata>  <rdf:RDF xmlns:dc="http://purl.org/dc/elements/1.1/" xmlns:cc="http://creativecommons.org/ns#" xmlns:rdf="http://www.w3.org/1999/02/22-rdf-syntax-ns#">   <cc:Work>    <dc:type rdf:resource="http://purl.org/dc/dcmitype/StillImage"/>    <dc:date>2026-03-29T21:18:59.786442</dc:date>    <dc:format>image/svg+xml</dc:format>    <dc:creator>     <cc:Agent>      <dc:title>Matplotlib v3.10.8, https://matplotlib.org/</dc:title>     </cc:Agent>    </dc:creator>   </cc:Work>  </rdf:RDF> </metadata> <defs>  <style type="text/css">*{stroke-linejoin: round; stroke-linecap: butt}</style> </defs> <g id="figure_1">  <g id="patch_1">   <path d="M 0 164.16 L 509.016 164.16 L 509.016 0 L 0 0 L 0 164.16 z" style="fill: none"/>  </g>  <g id="axes_1">   <g id="patch_2">    <path d="M 294.108 100.08 C 298.881656 100.08 303.460438 98.183406 306.835922 94.807922 C 310.211406 91.432438 312.108 86.853656 312.108 82.08 C 312.108 77.306344 310.211406 72.727562 306.835922 69.352078 C 303.460438 65.976594 298.881656 64.08 294.108 64.08 C 289.334344 64.08 284.755562 65.976594 281.380078 69.352078 C 278.004594 72.727562 276.108 77.306344 276.108 82.08 C 276.108 86.853656 278.004594 91.432438 281.380078 94.807922 C 284.755562 98.183406 289.334344 100.08 294.108 100.08 L 294.108 100.08 z" clip-path="url(#p16c5347f89)" style="fill: none; stroke: #333333; stroke-width: 2; stroke-linejoin: miter"/>   </g>   <g id="line2d_1">    <path d="M 157.308 24.48 L 157.308 4.68 L 214.908 4.68 L 214.908 44.28 L 157.308 44.28 L 157.308 24.48 " clip-path="url(#p16c5347f89)" style="fill: none; stroke: #333333; stroke-width: 2; stroke-linecap: round"/>   </g>   <g id="line2d_2">    <path d="M 373.308 82.08 L 373.308 62.28 L 430.908 62.28 L 430.908 101.88 L 373.308 101.88 L 373.308 82.08 " clip-path="url(#p16c5347f89)" style="fill: none; stroke: #333333; stroke-width: 2; stroke-linecap: round"/>   </g>   <g id="line2d_3">    <path d="M 157.308 139.68 L 157.308 119.88 L 214.908 119.88 L 214.908 159.48 L 157.308 159.48 L 157.308 139.68 " clip-path="url(#p16c5347f89)" style="fill: none; stroke: #333333; stroke-width: 2; stroke-linecap: round"/>   </g>   <g id="line2d_4">    <path d="M 34.908 82.08 L 56.508 82.08 L 78.108 82.08 " clip-path="url(#p16c5347f89)" style="fill: none; stroke: #333333; stroke-width: 2; stroke-linecap: round"/>   </g>   <g id="line2d_5">    <path d="M 78.108 82.08 L 78.108 53.28 L 78.108 24.48 " clip-path="url(#p16c5347f89)" style="fill: none; stroke: #333333; stroke-width: 2; stroke-linecap: round"/>   </g>   <g id="line2d_6">    <path d="M 78.108 24.48 L 117.708 24.48 L 157.308 24.48 " clip-path="url(#p16c5347f89)" style="fill: none; stroke: #333333; stroke-width: 2; stroke-linecap: round"/>   </g>   <g id="line2d_7">    <path d="M 214.908 24.48 L 254.508 24.48 L 294.108 24.48 " clip-path="url(#p16c5347f89)" style="fill: none; stroke: #333333; stroke-width: 2; stroke-linecap: round"/>   </g>   <g id="line2d_8">    <path d="M 294.108 24.48 L 294.108 44.28 L 294.108 55.08 " clip-path="url(#p16c5347f89)" style="fill: none; stroke: #333333; stroke-width: 2; stroke-linecap: round"/>   </g>   <g id="patch_3">    <path d="M 296.808 55.08 L 294.108 64.08 L 291.408 55.08 z" clip-path="url(#p16c5347f89)" style="fill: #333333"/>   </g>   <g id="line2d_9">    <path d="M 312.108 82.08 L 342.708 82.08 L 364.308 82.08 " clip-path="url(#p16c5347f89)" style="fill: none; stroke: #333333; stroke-width: 2; stroke-linecap: round"/>   </g>   <g id="patch_4">    <path d="M 364.308 79.38 L 373.308 82.08 L 364.308 84.78 z" clip-path="url(#p16c5347f89)" style="fill: #333333"/>   </g>   <g id="line2d_10">    <path d="M 430.908 82.08 L 452.508 82.08 L 465.108 82.08 " clip-path="url(#p16c5347f89)" style="fill: none; stroke: #333333; stroke-width: 2; stroke-linecap: round"/>   </g>   <g id="patch_5">    <path d="M 465.108 79.38 L 474.108 82.08 L 465.108 84.78 z" clip-path="url(#p16c5347f89)" style="fill: #333333"/>   </g>   <g id="line2d_11">    <path d="M 78.108 82.08 L 78.108 110.88 L 78.108 139.68 " clip-path="url(#p16c5347f89)" style="fill: none; stroke: #333333; stroke-width: 2; stroke-linecap: round"/>   </g>   <g id="line2d_12">    <path d="M 78.108 139.68 L 117.708 139.68 L 157.308 139.68 " clip-path="url(#p16c5347f89)" style="fill: none; stroke: #333333; stroke-width: 2; stroke-linecap: round"/>   </g>   <g id="line2d_13">    <path d="M 214.908 139.68 L 254.508 139.68 L 294.108 139.68 " clip-path="url(#p16c5347f89)" style="fill: none; stroke: #333333; stroke-width: 2; stroke-linecap: round"/>   </g>   <g id="line2d_14">    <path d="M 294.108 139.68 L 294.108 119.88 L 294.108 109.08 " clip-path="url(#p16c5347f89)" style="fill: none; stroke: #333333; stroke-width: 2; stroke-linecap: round"/>   </g>   <g id="patch_6">    <path d="M 291.408 109.08 L 294.108 100.08 L 296.808 109.08 z" clip-path="url(#p16c5347f89)" style="fill: #333333"/>   </g>   <g id="text_1">    <!-- $H_1(s)$ -->    <g style="fill: #333333" transform="translate(168.398 28.343125)">     <text>      <tspan x="0" y="-0.375" style="font-style: oblique; font-size: 14px; font-family: 'DejaVu Sans'; fill: #333333">H</tspan>      <tspan x="22.607129" y="-0.375" style="font-style: oblique; font-size: 14px; font-family: 'DejaVu Sans'; fill: #333333">s</tspan>      <tspan x="10.527344" y="1.921875" style="font-size: 9.8px; font-family: 'DejaVu Sans'; fill: #333333">1</tspan>      <tspan x="17.145215" y="-0.375" style="font-size: 14px; font-family: 'DejaVu Sans'; fill: #333333">(</tspan>      <tspan x="29.901074" y="-0.375" style="font-size: 14px; font-family: 'DejaVu Sans'; fill: #333333">)</tspan>     </text>    </g>   </g>   <g id="text_2">    <!-- $\Sigma$ -->    <g style="fill: #333333" transform="translate(287.828 85.943125)">     <text>      <tspan x="0" y="-0.796875" style="font-size: 14px; font-family: 'DejaVu Sans'; fill: #333333">Σ</tspan>     </text>    </g>   </g>   <g id="text_3">    <!-- $H_3(s)$ -->    <g style="fill: #333333" transform="translate(384.398 85.943125)">     <text>      <tspan x="0" y="-0.375" style="font-style: oblique; font-size: 14px; font-family: 'DejaVu Sans'; fill: #333333">H</tspan>      <tspan x="22.607129" y="-0.375" style="font-style: oblique; font-size: 14px; font-family: 'DejaVu Sans'; fill: #333333">s</tspan>      <tspan x="10.527344" y="1.921875" style="font-size: 9.8px; font-family: 'DejaVu Sans'; fill: #333333">3</tspan>      <tspan x="17.145215" y="-0.375" style="font-size: 14px; font-family: 'DejaVu Sans'; fill: #333333">(</tspan>      <tspan x="29.901074" y="-0.375" style="font-size: 14px; font-family: 'DejaVu Sans'; fill: #333333">)</tspan>     </text>    </g>   </g>   <g id="text_4">    <!-- $H_2(s)$ -->    <g style="fill: #333333" transform="translate(168.398 143.543125)">     <text>      <tspan x="0" y="-0.375" style="font-style: oblique; font-size: 14px; font-family: 'DejaVu Sans'; fill: #333333">H</tspan>      <tspan x="22.607129" y="-0.375" style="font-style: oblique; font-size: 14px; font-family: 'DejaVu Sans'; fill: #333333">s</tspan>      <tspan x="10.527344" y="1.921875" style="font-size: 9.8px; font-family: 'DejaVu Sans'; fill: #333333">2</tspan>      <tspan x="17.145215" y="-0.375" style="font-size: 14px; font-family: 'DejaVu Sans'; fill: #333333">(</tspan>      <tspan x="29.901074" y="-0.375" style="font-size: 14px; font-family: 'DejaVu Sans'; fill: #333333">)</tspan>     </text>    </g>   </g>   <g id="text_5">    <text style="font-size: 14px; font-family: 'DejaVu Sans', 'Bitstream Vera Sans', 'Computer Modern Sans Serif', 'Lucida Grande', 'Verdana', 'Geneva', 'Lucid', 'Arial', 'Helvetica', 'Avant Garde', sans-serif; text-anchor: end; fill: #333333" x="31.308" y="85.943125" transform="rotate(-0 31.308 85.943125)">X(s)</text>   </g>   <g id="text_6">    <text style="font-size: 14px; font-family: 'DejaVu Sans', 'Bitstream Vera Sans', 'Computer Modern Sans Serif', 'Lucida Grande', 'Verdana', 'Geneva', 'Lucid', 'Arial', 'Helvetica', 'Avant Garde', sans-serif; text-anchor: start; fill: #333333" x="477.708" y="85.943125" transform="rotate(-0 477.708 85.943125)">Y(s)</text>   </g>   <g id="patch_7">    <path d="M 78.108 84.78 C 78.824048 84.78 79.510866 84.495511 80.017188 83.989188 C 80.523511 83.482866 80.808 82.796048 80.808 82.08 C 80.808 81.363952 80.523511 80.677134 80.017188 80.170812 C 79.510866 79.664489 78.824048 79.38 78.108 79.38 C 77.391952 79.38 76.705134 79.664489 76.198812 80.170812 C 75.692489 80.677134 75.408 81.363952 75.408 82.08 C 75.408 82.796048 75.692489 83.482866 76.198812 83.989188 C 76.705134 84.495511 77.391952 84.78 78.108 84.78 z" clip-path="url(#p16c5347f89)" style="fill: #333333; stroke: #333333; stroke-width: 2; stroke-linejoin: miter"/>   </g>  </g> </g> <defs>  <clipPath id="p16c5347f89">   <rect x="0" y="0" width="509.016" height="164.16"/>  </clipPath> </defs></svg>