<svg class="kmap-graph" xmlns="http://www.w3.org/2000/svg" xmlns:xlink="http://www.w3.org/1999/xlink" xml:lang="en" height="112.29188309203678pt" width="180.35588309203678pt" viewBox="-31.75588309203678 -107.69188309203679 180.35588309203678 112.29188309203678"><path d="M 0.0,-0.0 L 144.0,-0.0 L 144.0,-72.0 L 0.0,-72.0 L 0.0,-0.0" style="stroke:black;fill:none;stroke-width:1.25;stroke-dasharray:-;stroke-linecap:round;stroke-linejoin:round;" /><path d="M 0.0,-0.0 L 144.0,-0.0" style="stroke:black;fill:none;stroke-width:1.25;stroke-dasharray:-;stroke-linecap:round;stroke-linejoin:round;" /><path d="M 0.0,-36.0 L 144.0,-36.0" style="stroke:black;fill:none;stroke-width:1.25;stroke-dasharray:-;stroke-linecap:round;stroke-linejoin:round;" /><path d="M 0.0,-0.0 L 0.0,-72.0" style="stroke:black;fill:none;stroke-width:1.25;stroke-dasharray:-;stroke-linecap:round;stroke-linejoin:round;" /><path d="M 36.0,-0.0 L 36.0,-72.0" style="stroke:black;fill:none;stroke-width:1.25;stroke-dasharray:-;stroke-linecap:round;stroke-linejoin:round;" /><path d="M 72.0,-0.0 L 72.0,-72.0" style="stroke:black;fill:none;stroke-width:1.25;stroke-dasharray:-;stroke-linecap:round;stroke-linejoin:round;" /><path d="M 108.0,-0.0 L 108.0,-72.0" style="stroke:black;fill:none;stroke-width:1.25;stroke-dasharray:-;stroke-linecap:round;stroke-linejoin:round;" /><path d="M 0.0,-72.0 L -25.45584412271571,-97.4558441227157" style="stroke:black;fill:none;stroke-width:1.25;stroke-dasharray:-;stroke-linecap:round;stroke-linejoin:round;" /><polygon points="95.39999999999999,-3.600000000000003 95.54279367451326,-3.6011328509351275 95.68555140148261,-3.6045311185513373 95.82823724241368,-3.6101939473529314 95.97081527690908,-3.6181199117530434 96.1132496117111,-3.6283070164325215 96.25550438973764,-3.6407526968422417 96.39754379910909,-3.655453819848716 96.53933208216374,-3.672406684522845 96.68083354445956,-3.691607023071609 96.82201256376015,-3.7130500019124546 96.96283359900237,-3.736730222890131 97.10326119924369,-3.762641724635643 97.24326001258672,-3.7907779840669944 97.38279479507887,-3.8211319180313397 97.52183041958484,-3.853695885088128 97.66033188462971,-3.888461687432797 97.79826432321032,-3.9254205729605247 97.93559301157286,-3.9645632374695268 98.07228337795448,-4.005879827003338 98.20830101128638,-4.049359940331494 98.3436116698568,-4.094992631567987 98.47818128993102,-4.142766412926829 98.61197599432684,-4.192669257614043 98.74496210094294,-4.24468860285535 98.87710613123816,-4.298811353058771 99.00837481865952,-4.355023883111377 99.13873511701698,-4.413312041809339 99.26815420880254,-4.473661155420412 99.39659951345196,-4.5360560313779805 99.5240386955467,-4.600480962105692 99.65043967295415,-4.666919728971765 99.77577062490423,-4.735355606371939 99.89999999999999,-4.805771365940056 100.02309652416065,-4.878149280885211 100.14502920849452,-4.9524711304543745 100.26576735710037,-5.0287182045193735 100.38528057479499,-5.106871308287062 100.50353877476493,-5.186910767131509 100.62051218614077,-5.268816431546982 100.73617136149176,-5.352567682220475 100.850487184239,-5.438143435222514 100.96343087598544,-5.525522147314915 101.0749740037607,-5.614681821374192 101.18508848717886,-5.705600011929201 101.29374660550755,-5.798253830811679 101.40092100464662,-5.892619952918211 101.50658470401419,-5.988674622082204 101.610711103339,-6.086393657054373 101.71327398935689,-6.185752457590238 101.81424754240976,-6.286726010643113 101.91360634294563,-6.389288896660996 102.01132537791779,-6.493415295985814 102.10738004708179,-6.599078995353379 102.20174616918833,-6.706253394492438 102.29439998807081,-6.8149115128211495 102.38531817862582,-6.9250259962393015 102.47447785268508,-7.036569124014557 102.56185656477749,-7.149512815761003 102.64743231777952,-7.263828638508239 102.73118356845302,-7.37948781385922 102.81308923286849,-7.496461225235066 102.89312869171295,-7.614719425205011 102.97128179548064,-7.7342326428996255 103.04752886954562,-7.854970791505481 103.1218507191148,-7.976903475839347 103.19422863405995,-8.100000000000005 103.26464439362806,-8.224229375095785 103.33308027102824,-8.34956032704586 103.39951903789431,-8.47596130445331 103.46394396862202,-8.603400486548038 103.52633884457958,-8.73184579119746 103.58668795819065,-8.861264882983026 103.64497611688863,-8.99162518134048 103.70118864694123,-9.122893868761846 103.75531139714465,-9.255037899057056 103.80733074238596,-9.388024005673158 103.85723358707318,-9.521818710068983 103.90500736843201,-9.65638833014321 103.9506400596685,-9.79169898871362 103.99412017299666,-9.92771662204553 104.03543676253047,-10.064406988427137 104.07457942703947,-10.201735676789689 104.1115383125672,-10.33966811537029 104.14630411491187,-10.478169580415159 104.17886808196866,-10.61720520492114 104.20922201593301,-10.756739987413289 104.23735827536436,-10.896738800756312 104.26326977710985,-11.03716640099763 104.28694999808754,-11.177987436239857 104.30839297692839,-11.319166455540438 104.32759331547716,-11.46066791783626 104.34454618015128,-11.602456200890904 104.35924730315776,-11.74449561026236 104.37169298356747,-11.886750388288908 104.38188008824696,-12.029184723090923 104.38980605264706,-12.171762757586325 104.39546888144865,-12.314448598517394 104.39886714906487,-12.457206325486734 104.39999999999999,-12.600000000000003 104.39999999999999,-59.4 104.39886714906487,-59.54279367451327 104.39546888144865,-59.685551401482606 104.38980605264706,-59.82823724241368 104.38188008824696,-59.97081527690908 104.37169298356747,-60.11324961171109 104.35924730315776,-60.255504389737645 104.34454618015128,-60.397543799109094 104.32759331547716,-60.539332082163746 104.30839297692839,-60.68083354445957 104.28694999808754,-60.82201256376015 104.26326977710985,-60.962833599002366 104.23735827536436,-61.10326119924369 104.20922201593301,-61.24326001258671 104.17886808196866,-61.382794795078865 104.14630411491187,-61.52183041958484 104.1115383125672,-61.66033188462971 104.07457942703947,-61.79826432321031 104.03543676253047,-61.93559301157286 103.99412017299666,-62.07228337795448 103.9506400596685,-62.20830101128638 103.90500736843201,-62.34361166985679 103.85723358707318,-62.478181289931015 103.80733074238596,-62.61197599432685 103.75531139714465,-62.74496210094295 103.70118864694123,-62.87710613123815 103.64497611688863,-63.00837481865952 103.58668795819065,-63.13873511701697 103.52633884457958,-63.26815420880254 103.46394396862202,-63.39659951345197 103.39951903789431,-63.52403869554669 103.33308027102824,-63.650439672954136 103.26464439362806,-63.77577062490422 103.19422863405995,-63.9 103.1218507191148,-64.02309652416065 103.04752886954562,-64.14502920849452 102.97128179548064,-64.26576735710037 102.89312869171295,-64.38528057479499 102.81308923286849,-64.50353877476493 102.73118356845302,-64.62051218614077 102.64743231777952,-64.73617136149176 102.56185656477749,-64.850487184239 102.47447785268508,-64.96343087598544 102.38531817862582,-65.0749740037607 102.29439998807081,-65.18508848717886 102.20174616918833,-65.29374660550756 102.10738004708179,-65.40092100464662 102.01132537791779,-65.50658470401419 101.91360634294563,-65.610711103339 101.81424754240976,-65.71327398935689 101.71327398935689,-65.81424754240976 101.610711103339,-65.91360634294563 101.50658470401419,-66.0113253779178 101.40092100464662,-66.10738004708179 101.29374660550755,-66.20174616918833 101.18508848717886,-66.2943999880708 101.0749740037607,-66.38531817862581 100.96343087598544,-66.47447785268508 100.850487184239,-66.56185656477749 100.73617136149176,-66.64743231777953 100.62051218614077,-66.73118356845302 100.50353877476493,-66.81308923286849 100.38528057479499,-66.89312869171295 100.26576735710037,-66.97128179548062 100.14502920849452,-67.04752886954563 100.02309652416065,-67.12185071911479 99.89999999999999,-67.19422863405994 99.77577062490423,-67.26464439362806 99.65043967295415,-67.33308027102824 99.5240386955467,-67.39951903789431 99.39659951345196,-67.46394396862202 99.26815420880254,-67.52633884457958 99.13873511701698,-67.58668795819065 99.00837481865952,-67.64497611688863 98.87710613123816,-67.70118864694123 98.74496210094294,-67.75531139714465 98.61197599432684,-67.80733074238596 98.47818128993102,-67.85723358707317 98.3436116698568,-67.90500736843201 98.20830101128638,-67.9506400596685 98.07228337795448,-67.99412017299666 97.93559301157286,-68.03543676253048 97.79826432321032,-68.07457942703947 97.66033188462971,-68.1115383125672 97.52183041958484,-68.14630411491187 97.38279479507885,-68.17886808196866 97.24326001258672,-68.20922201593301 97.10326119924369,-68.23735827536436 96.96283359900237,-68.26326977710987 96.82201256376015,-68.28694999808755 96.68083354445956,-68.30839297692839 96.53933208216374,-68.32759331547716 96.39754379910909,-68.34454618015128 96.25550438973764,-68.35924730315776 96.1132496117111,-68.37169298356748 95.97081527690908,-68.38188008824696 95.82823724241366,-68.38980605264706 95.68555140148261,-68.39546888144866 95.54279367451326,-68.39886714906487 95.39999999999999,-68.39999999999999 48.6,-68.39999999999999 48.45720632548673,-68.39886714906487 48.314448598517394,-68.39546888144866 48.17176275758632,-68.38980605264706 48.02918472309092,-68.38188008824696 47.88675038828891,-68.37169298356748 47.744495610262355,-68.35924730315776 47.602456200890906,-68.34454618015128 47.46066791783626,-68.32759331547716 47.31916645554043,-68.30839297692839 47.17798743623985,-68.28694999808754 47.037166400997634,-68.26326977710987 46.89673880075632,-68.23735827536436 46.75673998741329,-68.20922201593301 46.617205204921135,-68.17886808196866 46.47816958041516,-68.14630411491187 46.33966811537029,-68.1115383125672 46.20173567678969,-68.07457942703947 46.06440698842714,-68.03543676253048 45.92771662204552,-67.99412017299666 45.79169898871362,-67.9506400596685 45.65638833014321,-67.90500736843201 45.521818710068985,-67.85723358707318 45.38802400567316,-67.80733074238596 45.25503789905705,-67.75531139714465 45.12289386876185,-67.70118864694123 44.99162518134048,-67.64497611688863 44.86126488298303,-67.58668795819065 44.73184579119746,-67.52633884457958 44.60340048654803,-67.46394396862202 44.47596130445331,-67.39951903789431 44.349560327045864,-67.33308027102824 44.22422937509579,-67.26464439362806 44.1,-67.19422863405994 43.97690347583935,-67.12185071911479 43.85497079150548,-67.04752886954563 43.73423264289962,-66.97128179548062 43.61471942520501,-66.89312869171295 43.49646122523507,-66.81308923286849 43.37948781385922,-66.73118356845302 43.26382863850824,-66.64743231777953 43.14951281576101,-66.56185656477749 43.03656912401456,-66.47447785268508 42.9250259962393,-66.38531817862581 42.81491151282115,-66.2943999880708 42.706253394492435,-66.20174616918833 42.59907899535338,-66.10738004708179 42.49341529598581,-66.0113253779178 42.38928889666099,-65.91360634294563 42.286726010643115,-65.81424754240976 42.18575245759023,-65.71327398935689 42.086393657054366,-65.610711103339 41.9886746220822,-65.50658470401419 41.89261995291821,-65.40092100464662 41.79825383081168,-65.29374660550756 41.7056000119292,-65.18508848717886 41.61468182137419,-65.0749740037607 41.52552214731492,-64.96343087598545 41.438143435222514,-64.850487184239 41.352567682220474,-64.73617136149176 41.26881643154698,-64.62051218614077 41.18691076713151,-64.50353877476493 41.10687130828706,-64.38528057479499 41.02871820451937,-64.26576735710037 40.95247113045437,-64.14502920849452 40.87814928088521,-64.02309652416065 40.80577136594006,-63.9 40.73535560637194,-63.77577062490422 40.66691972897176,-63.650439672954136 40.60048096210569,-63.52403869554669 40.53605603137798,-63.39659951345196 40.47366115542041,-63.26815420880254 40.41331204180934,-63.13873511701697 40.35502388311138,-63.00837481865952 40.298811353058774,-62.87710613123815 40.24468860285535,-62.74496210094295 40.19266925761404,-62.61197599432685 40.14276641292683,-62.47818128993102 40.09499263156798,-62.34361166985679 40.0493599403315,-62.20830101128637 40.005879827003334,-62.07228337795448 39.96456323746953,-61.93559301157286 39.925420572960526,-61.79826432321031 39.8884616874328,-61.66033188462971 39.85369588508813,-61.52183041958484 39.82113191803134,-61.382794795078865 39.79077798406699,-61.24326001258671 39.76264172463565,-61.10326119924369 39.73673022289013,-60.962833599002366 39.71305000191246,-60.82201256376015 39.69160702307161,-60.68083354445957 39.67240668452285,-60.539332082163746 39.65545381984872,-60.3975437991091 39.64075269684224,-60.25550438973764 39.62830701643252,-60.11324961171109 39.61811991175304,-59.97081527690908 39.61019394735293,-59.82823724241368 39.604531118551336,-59.685551401482606 39.60113285093513,-59.54279367451327 39.6,-59.4 39.6,-12.600000000000001 39.60113285093513,-12.45720632548673 39.604531118551336,-12.314448598517393 39.61019394735293,-12.17176275758632 39.61811991175304,-12.029184723090918 39.62830701643252,-11.886750388288904 39.64075269684224,-11.744495610262355 39.65545381984872,-11.602456200890902 39.67240668452285,-11.460667917836258 39.69160702307161,-11.319166455540437 39.71305000191245,-11.177987436239851 39.73673022289013,-11.037166400997629 39.76264172463564,-10.896738800756307 39.79077798406699,-10.756739987413283 39.82113191803134,-10.617205204921133 39.85369588508813,-10.478169580415155 39.8884616874328,-10.339668115370287 39.925420572960526,-10.201735676789685 39.96456323746953,-10.064406988427136 40.005879827003334,-9.927716622045525 40.0493599403315,-9.791698988713616 40.09499263156798,-9.656388330143205 40.142766412926825,-9.521818710068981 40.19266925761404,-9.388024005673152 40.24468860285535,-9.255037899057053 40.298811353058774,-9.122893868761844 40.35502388311138,-8.991625181340476 40.41331204180934,-8.86126488298302 40.47366115542041,-8.731845791197456 40.53605603137798,-8.603400486548033 40.60048096210569,-8.475961304453307 40.66691972897176,-8.349560327045856 40.73535560637194,-8.224229375095783 40.80577136594006,-8.099999999999998 40.87814928088521,-7.976903475839345 40.95247113045437,-7.854970791505477 41.02871820451937,-7.734232642899621 41.10687130828706,-7.614719425205007 41.18691076713151,-7.4964612252350635 41.26881643154698,-7.379487813859217 41.352567682220474,-7.263828638508237 41.438143435222514,-7.1495128157610015 41.525522147314916,-7.036569124014552 41.61468182137419,-6.925025996239297 41.7056000119292,-6.814911512821146 41.79825383081168,-6.7062533944924345 41.89261995291821,-6.599078995353375 41.9886746220822,-6.493415295985812 42.086393657054366,-6.389288896660993 42.18575245759023,-6.286726010643107 42.286726010643115,-6.185752457590233 42.38928889666099,-6.0863936570543675 42.49341529598581,-5.9886746220822005 42.59907899535338,-5.892619952918208 42.706253394492435,-5.798253830811676 42.81491151282115,-5.705600011929198 42.9250259962393,-5.6146818213741865 43.03656912401455,-5.525522147314914 43.149512815761,-5.438143435222511 43.26382863850824,-5.352567682220474 43.37948781385922,-5.268816431546979 43.496461225235066,-5.186910767131507 43.61471942520501,-5.106871308287058 43.73423264289963,-5.028718204519368 43.85497079150548,-4.952471130454372 43.97690347583935,-4.878149280885205 44.1,-4.80577136594005 44.22422937509578,-4.735355606371935 44.34956032704585,-4.666919728971764 44.47596130445331,-4.600480962105689 44.60340048654804,-4.536056031377975 44.73184579119746,-4.47366115542041 44.86126488298303,-4.413312041809333 44.99162518134048,-4.3550238831113735 45.12289386876185,-4.298811353058767 45.25503789905705,-4.244688602855347 45.38802400567315,-4.192669257614039 45.521818710068985,-4.142766412926823 45.65638833014321,-4.094992631567984 45.79169898871362,-4.04935994033149 45.92771662204552,-4.005879827003335 46.06440698842714,-3.9645632374695228 46.20173567678968,-3.9254205729605216 46.33966811537029,-3.888461687432793 46.47816958041516,-3.8536958850881233 46.617205204921135,-3.8211319180313357 46.75673998741329,-3.7907779840669904 46.89673880075631,-3.76264172463564 47.037166400997634,-3.736730222890127 47.177987436239846,-3.7130500019124506 47.31916645554043,-3.691607023071605 47.46066791783626,-3.672406684522841 47.6024562008909,-3.655453819848712 47.744495610262355,-3.640752696842238 47.88675038828891,-3.628307016432519 48.02918472309092,-3.6181199117530394 48.171762757586315,-3.6101939473529274 48.314448598517394,-3.6045311185513333 48.45720632548674,-3.6011328509351235 48.6,-3.599999999999999 95.39999999999999,-3.600000000000003 " style="stroke:#ffcc99;fill:#ffebcc;stroke-width:2;stroke-dasharray:-;stroke-linecap:round;stroke-linejoin:round;" /><text x="0.0" y="-103.09188309203678" dominant-baseline="ideographic" fill="black" font-size="12" font-family="sans" text-anchor="end"><tspan x="0.0" dy="12">BC</tspan></text><text x="-19.09188309203678" y="-84.0" dominant-baseline="ideographic" fill="black" font-size="12" font-family="sans" text-anchor="end"><tspan x="-19.09188309203678" dy="12">A</tspan></text><text x="18.0" y="-83.8" dominant-baseline="ideographic" fill="black" font-size="10" font-family="sans" text-anchor="middle"><tspan x="18.0" dy="10">00</tspan></text><text x="54.0" y="-83.8" dominant-baseline="ideographic" fill="black" font-size="10" font-family="sans" text-anchor="middle"><tspan x="54.0" dy="10">01</tspan></text><text x="126.0" y="-83.8" dominant-baseline="ideographic" fill="black" font-size="10" font-family="sans" text-anchor="middle"><tspan x="126.0" dy="10">10</tspan></text><text x="90.0" y="-83.8" dominant-baseline="ideographic" fill="black" font-size="10" font-family="sans" text-anchor="middle"><tspan x="90.0" dy="10">11</tspan></text><text x="-3.6" y="-64.0" dominant-baseline="central" fill="black" font-size="10" font-family="sans" text-anchor="end"><tspan x="-3.6" dy="10">0</tspan></text><text x="-3.6" y="-28.0" dominant-baseline="central" fill="black" font-size="10" font-family="sans" text-anchor="end"><tspan x="-3.6" dy="10">1</tspan></text><text x="18.0" y="-66.0" dominant-baseline="central" fill="black" font-size="12" font-family="sans" text-anchor="middle"><tspan x="18.0" dy="12">1</tspan></text><text x="18.0" y="-30.0" dominant-baseline="central" fill="black" font-size="12" font-family="sans" text-anchor="middle"><tspan x="18.0" dy="12">1</tspan></text><text x="54.0" y="-66.0" dominant-baseline="central" fill="black" font-size="12" font-family="sans" text-anchor="middle"><tspan x="54.0" dy="12">0</tspan></text><text x="54.0" y="-30.0" dominant-baseline="central" fill="black" font-size="12" font-family="sans" text-anchor="middle"><tspan x="54.0" dy="12">0</tspan></text><text x="126.0" y="-66.0" dominant-baseline="central" fill="black" font-size="12" font-family="sans" text-anchor="middle"><tspan x="126.0" dy="12">1</tspan></text><text x="126.0" y="-30.0" dominant-baseline="central" fill="black" font-size="12" font-family="sans" text-anchor="middle"><tspan x="126.0" dy="12">1</tspan></text><text x="90.0" y="-66.0" dominant-baseline="central" fill="black" font-size="12" font-family="sans" text-anchor="middle"><tspan x="90.0" dy="12">0</tspan></text><text x="90.0" y="-30.0" dominant-baseline="central" fill="black" font-size="12" font-family="sans" text-anchor="middle"><tspan x="90.0" dy="12">0</tspan></text></svg>