<svg class="kmap-graph" xmlns="http://www.w3.org/2000/svg" xmlns:xlink="http://www.w3.org/1999/xlink" xml:lang="en" height="184.2918830920368pt" width="188.4198830920368pt" viewBox="-39.819883092036775 -179.6918830920368 188.4198830920368 184.2918830920368"><path d="M 0.0,-0.0 L 144.0,-0.0 L 144.0,-144.0 L 0.0,-144.0 L 0.0,-0.0" style="stroke:black;fill:none;stroke-width:1.25;stroke-dasharray:-;stroke-linecap:round;stroke-linejoin:round;" /><path d="M 0.0,-0.0 L 144.0,-0.0" style="stroke:black;fill:none;stroke-width:1.25;stroke-dasharray:-;stroke-linecap:round;stroke-linejoin:round;" /><path d="M 0.0,-36.0 L 144.0,-36.0" style="stroke:black;fill:none;stroke-width:1.25;stroke-dasharray:-;stroke-linecap:round;stroke-linejoin:round;" /><path d="M 0.0,-72.0 L 144.0,-72.0" style="stroke:black;fill:none;stroke-width:1.25;stroke-dasharray:-;stroke-linecap:round;stroke-linejoin:round;" /><path d="M 0.0,-108.0 L 144.0,-108.0" style="stroke:black;fill:none;stroke-width:1.25;stroke-dasharray:-;stroke-linecap:round;stroke-linejoin:round;" /><path d="M 0.0,-0.0 L 0.0,-144.0" style="stroke:black;fill:none;stroke-width:1.25;stroke-dasharray:-;stroke-linecap:round;stroke-linejoin:round;" /><path d="M 36.0,-0.0 L 36.0,-144.0" style="stroke:black;fill:none;stroke-width:1.25;stroke-dasharray:-;stroke-linecap:round;stroke-linejoin:round;" /><path d="M 72.0,-0.0 L 72.0,-144.0" style="stroke:black;fill:none;stroke-width:1.25;stroke-dasharray:-;stroke-linecap:round;stroke-linejoin:round;" /><path d="M 108.0,-0.0 L 108.0,-144.0" style="stroke:black;fill:none;stroke-width:1.25;stroke-dasharray:-;stroke-linecap:round;stroke-linejoin:round;" /><path d="M 0.0,-144.0 L -25.45584412271571,-169.45584412271572" style="stroke:black;fill:none;stroke-width:1.25;stroke-dasharray:-;stroke-linecap:round;stroke-linejoin:round;" /><polygon points="131.4,-75.60000000000001 131.54279367451326,-75.60113285093513 131.6855514014826,-75.60453111855135 131.82823724241368,-75.61019394735294 131.97081527690906,-75.61811991175304 132.1132496117111,-75.62830701643253 132.25550438973764,-75.64075269684224 132.3975437991091,-75.65545381984872 132.53933208216375,-75.67240668452285 132.68083354445955,-75.69160702307161 132.82201256376015,-75.71305000191246 132.96283359900238,-75.73673022289015 133.1032611992437,-75.76264172463564 133.24326001258672,-75.79077798406699 133.38279479507887,-75.82113191803134 133.52183041958483,-75.85369588508813 133.66033188462973,-75.8884616874328 133.7982643232103,-75.92542057296053 133.93559301157288,-75.96456323746953 134.07228337795448,-76.00587982700334 134.20830101128638,-76.0493599403315 134.34361166985678,-76.09499263156799 134.478181289931,-76.14276641292685 134.61197599432683,-76.19266925761404 134.74496210094293,-76.24468860285536 134.87710613123815,-76.29881135305877 135.00837481865952,-76.35502388311139 135.13873511701695,-76.41331204180935 135.26815420880254,-76.47366115542042 135.39659951345195,-76.53605603137798 135.5240386955467,-76.60048096210569 135.65043967295412,-76.66691972897176 135.7757706249042,-76.73535560637194 135.9,-76.80577136594006 136.02309652416065,-76.87814928088522 136.14502920849452,-76.95247113045438 136.26576735710037,-77.02871820451938 136.385280574795,-77.10687130828705 136.50353877476493,-77.18691076713152 136.6205121861408,-77.26881643154698 136.73617136149176,-77.35256768222048 136.85048718423897,-77.43814343522251 136.96343087598544,-77.52552214731492 137.07497400376067,-77.6146818213742 137.18508848717883,-77.7056000119292 137.29374660550755,-77.79825383081167 137.40092100464662,-77.89261995291822 137.5065847040142,-77.98867462208221 137.61071110333899,-78.08639365705437 137.71327398935688,-78.18575245759024 137.81424754240976,-78.28672601064312 137.91360634294563,-78.389288896661 138.01132537791779,-78.49341529598581 138.1073800470818,-78.59907899535338 138.2017461691883,-78.70625339449245 138.29439998807078,-78.81491151282117 138.3853181786258,-78.9250259962393 138.47447785268508,-79.03656912401456 138.5618565647775,-79.14951281576101 138.64743231777953,-79.26382863850824 138.73118356845302,-79.37948781385923 138.8130892328685,-79.49646122523507 138.89312869171292,-79.61471942520501 138.97128179548062,-79.73423264289964 139.04752886954563,-79.8549707915055 139.12185071911478,-79.97690347583935 139.19422863405993,-80.10000000000001 139.26464439362803,-80.2242293750958 139.33308027102822,-80.34956032704586 139.3995190378943,-80.47596130445332 139.463943968622,-80.60340048654804 139.52633884457958,-80.73184579119746 139.58668795819065,-80.86126488298304 139.6449761168886,-80.99162518134048 139.7011886469412,-81.12289386876185 139.75531139714462,-81.25503789905706 139.80733074238594,-81.38802400567316 139.85723358707315,-81.521818710069 139.905007368432,-81.6563883301432 139.9506400596685,-81.79169898871362 139.99412017299665,-81.92771662204552 140.03543676253048,-82.06440698842714 140.07457942703945,-82.2017356767897 140.11153831256718,-82.33966811537029 140.14630411491186,-82.47816958041516 140.17886808196863,-82.61720520492115 140.209222015933,-82.75673998741328 140.23735827536433,-82.89673880075631 140.26326977710985,-83.03716640099763 140.28694999808752,-83.17798743623986 140.3083929769284,-83.31916645554044 140.32759331547715,-83.46066791783626 140.34454618015127,-83.60245620089091 140.35924730315776,-83.74449561026236 140.37169298356747,-83.8867503882889 140.38188008824693,-84.02918472309092 140.38980605264706,-84.17176275758634 140.39546888144864,-84.31444859851739 140.39886714906487,-84.45720632548674 140.39999999999998,-84.60000000000001 140.4,-131.4 140.39886714906487,-131.54279367451326 140.39546888144866,-131.6855514014826 140.38980605264706,-131.82823724241368 140.38188008824696,-131.97081527690906 140.37169298356747,-132.1132496117111 140.35924730315776,-132.25550438973764 140.34454618015127,-132.3975437991091 140.32759331547715,-132.53933208216375 140.3083929769284,-132.68083354445955 140.28694999808755,-132.82201256376013 140.26326977710985,-132.96283359900238 140.23735827536436,-133.1032611992437 140.209222015933,-133.24326001258672 140.17886808196866,-133.38279479507887 140.14630411491189,-133.52183041958483 140.1115383125672,-133.66033188462973 140.07457942703948,-133.7982643232103 140.03543676253048,-133.93559301157288 139.99412017299667,-134.07228337795448 139.9506400596685,-134.20830101128638 139.905007368432,-134.34361166985678 139.85723358707315,-134.478181289931 139.80733074238594,-134.61197599432683 139.75531139714462,-134.74496210094296 139.70118864694123,-134.87710613123815 139.6449761168886,-135.00837481865952 139.58668795819065,-135.13873511701695 139.52633884457958,-135.26815420880254 139.463943968622,-135.39659951345195 139.3995190378943,-135.5240386955467 139.33308027102822,-135.65043967295412 139.26464439362806,-135.7757706249042 139.19422863405993,-135.9 139.12185071911478,-136.02309652416065 139.04752886954563,-136.14502920849452 138.97128179548062,-136.26576735710037 138.89312869171295,-136.385280574795 138.8130892328685,-136.50353877476493 138.73118356845302,-136.6205121861408 138.64743231777953,-136.73617136149176 138.5618565647775,-136.85048718423897 138.47447785268508,-136.96343087598544 138.3853181786258,-137.07497400376067 138.29439998807078,-137.18508848717883 138.2017461691883,-137.29374660550755 138.1073800470818,-137.40092100464662 138.01132537791779,-137.5065847040142 137.91360634294563,-137.61071110333899 137.81424754240976,-137.71327398935688 137.71327398935688,-137.81424754240976 137.610711103339,-137.91360634294563 137.5065847040142,-138.01132537791779 137.40092100464662,-138.1073800470818 137.29374660550755,-138.2017461691883 137.18508848717883,-138.29439998807078 137.0749740037607,-138.3853181786258 136.96343087598544,-138.47447785268508 136.85048718423897,-138.5618565647775 136.73617136149176,-138.64743231777953 136.6205121861408,-138.73118356845302 136.50353877476493,-138.8130892328685 136.385280574795,-138.89312869171292 136.26576735710037,-138.97128179548062 136.14502920849452,-139.04752886954563 136.02309652416065,-139.12185071911478 135.9,-139.19422863405993 135.7757706249042,-139.26464439362803 135.65043967295412,-139.33308027102822 135.5240386955467,-139.3995190378943 135.39659951345195,-139.463943968622 135.26815420880254,-139.52633884457958 135.13873511701695,-139.58668795819065 135.00837481865952,-139.6449761168886 134.87710613123815,-139.7011886469412 134.74496210094296,-139.75531139714462 134.61197599432683,-139.80733074238594 134.478181289931,-139.85723358707315 134.34361166985678,-139.905007368432 134.20830101128638,-139.9506400596685 134.07228337795448,-139.99412017299665 133.93559301157288,-140.03543676253048 133.7982643232103,-140.07457942703945 133.66033188462973,-140.11153831256718 133.52183041958483,-140.14630411491186 133.38279479507887,-140.17886808196863 133.24326001258672,-140.209222015933 133.1032611992437,-140.23735827536433 132.96283359900238,-140.26326977710985 132.82201256376013,-140.28694999808752 132.68083354445955,-140.3083929769284 132.53933208216375,-140.32759331547715 132.3975437991091,-140.34454618015127 132.25550438973764,-140.35924730315776 132.1132496117111,-140.37169298356747 131.97081527690906,-140.38188008824693 131.82823724241368,-140.38980605264706 131.6855514014826,-140.39546888144864 131.54279367451326,-140.39886714906487 131.4,-140.39999999999998 84.60000000000001,-140.4 84.45720632548674,-140.39886714906487 84.31444859851739,-140.39546888144866 84.17176275758632,-140.38980605264706 84.02918472309092,-140.38188008824696 83.8867503882889,-140.37169298356747 83.74449561026236,-140.35924730315776 83.60245620089091,-140.34454618015127 83.46066791783626,-140.32759331547717 83.31916645554044,-140.3083929769284 83.17798743623985,-140.28694999808755 83.03716640099763,-140.26326977710985 82.89673880075631,-140.23735827536436 82.75673998741328,-140.209222015933 82.61720520492115,-140.17886808196866 82.47816958041516,-140.14630411491189 82.33966811537029,-140.1115383125672 82.2017356767897,-140.07457942703948 82.06440698842714,-140.03543676253048 81.92771662204552,-139.99412017299667 81.79169898871362,-139.9506400596685 81.6563883301432,-139.905007368432 81.52181871006898,-139.85723358707318 81.38802400567316,-139.80733074238594 81.25503789905706,-139.75531139714465 81.12289386876184,-139.70118864694123 80.99162518134048,-139.64497611688864 80.86126488298302,-139.58668795819065 80.73184579119746,-139.52633884457958 80.60340048654804,-139.463943968622 80.47596130445332,-139.3995190378943 80.34956032704585,-139.33308027102822 80.22422937509577,-139.26464439362806 80.10000000000001,-139.19422863405995 79.97690347583935,-139.1218507191148 79.85497079150548,-139.04752886954563 79.73423264289963,-138.97128179548062 79.61471942520501,-138.89312869171295 79.49646122523507,-138.8130892328685 79.37948781385923,-138.73118356845302 79.26382863850824,-138.64743231777953 79.149512815761,-138.5618565647775 79.03656912401456,-138.47447785268508 78.9250259962393,-138.38531817862582 78.81491151282114,-138.2943999880708 78.70625339449245,-138.2017461691883 78.59907899535338,-138.1073800470818 78.49341529598581,-138.01132537791779 78.389288896661,-137.91360634294563 78.28672601064311,-137.81424754240976 78.18575245759024,-137.7132739893569 78.08639365705437,-137.610711103339 77.98867462208221,-137.5065847040142 77.89261995291821,-137.40092100464662 77.79825383081167,-137.29374660550758 77.7056000119292,-137.18508848717886 77.61468182137418,-137.0749740037607 77.52552214731492,-136.96343087598544 77.43814343522251,-136.850487184239 77.35256768222048,-136.73617136149176 77.26881643154698,-136.6205121861408 77.18691076713151,-136.50353877476493 77.10687130828705,-136.385280574795 77.02871820451936,-136.26576735710037 76.95247113045438,-136.14502920849452 76.8781492808852,-136.02309652416065 76.80577136594005,-135.9 76.73535560637194,-135.77577062490423 76.66691972897176,-135.65043967295415 76.60048096210569,-135.5240386955467 76.53605603137798,-135.39659951345195 76.47366115542042,-135.26815420880254 76.41331204180935,-135.13873511701698 76.35502388311139,-135.00837481865952 76.29881135305877,-134.87710613123815 76.24468860285535,-134.74496210094296 76.19266925761404,-134.61197599432683 76.14276641292682,-134.47818128993103 76.09499263156799,-134.34361166985678 76.0493599403315,-134.20830101128638 76.00587982700334,-134.07228337795448 75.96456323746953,-133.93559301157288 75.92542057296053,-133.79826432321033 75.8884616874328,-133.66033188462973 75.85369588508813,-133.52183041958483 75.82113191803134,-133.38279479507887 75.79077798406699,-133.24326001258672 75.76264172463564,-133.1032611992437 75.73673022289015,-132.96283359900238 75.71305000191246,-132.82201256376015 75.69160702307161,-132.68083354445955 75.67240668452284,-132.53933208216375 75.65545381984872,-132.3975437991091 75.64075269684224,-132.25550438973764 75.62830701643253,-132.1132496117111 75.61811991175304,-131.97081527690906 75.61019394735294,-131.82823724241368 75.60453111855135,-131.6855514014826 75.60113285093513,-131.54279367451326 75.60000000000001,-131.4 75.60000000000001,-84.60000000000001 75.60113285093513,-84.45720632548674 75.60453111855134,-84.31444859851739 75.61019394735294,-84.17176275758634 75.61811991175304,-84.02918472309092 75.62830701643253,-83.8867503882889 75.64075269684224,-83.74449561026236 75.65545381984872,-83.60245620089091 75.67240668452284,-83.46066791783626 75.69160702307161,-83.31916645554044 75.71305000191246,-83.17798743623986 75.73673022289015,-83.03716640099763 75.76264172463564,-82.89673880075631 75.79077798406699,-82.75673998741328 75.82113191803134,-82.61720520492115 75.85369588508813,-82.47816958041516 75.8884616874328,-82.33966811537029 75.92542057296053,-82.2017356767897 75.96456323746953,-82.06440698842714 76.00587982700334,-81.92771662204552 76.0493599403315,-81.79169898871362 76.09499263156799,-81.6563883301432 76.14276641292682,-81.52181871006898 76.19266925761404,-81.38802400567316 76.24468860285535,-81.25503789905706 76.29881135305877,-81.12289386876184 76.35502388311137,-80.99162518134048 76.41331204180935,-80.86126488298302 76.47366115542042,-80.73184579119746 76.53605603137798,-80.60340048654804 76.60048096210569,-80.47596130445332 76.66691972897176,-80.34956032704585 76.73535560637194,-80.22422937509577 76.80577136594005,-80.10000000000001 76.8781492808852,-79.97690347583935 76.95247113045438,-79.85497079150548 77.02871820451936,-79.73423264289963 77.10687130828705,-79.61471942520501 77.18691076713151,-79.49646122523507 77.26881643154698,-79.37948781385923 77.35256768222048,-79.26382863850824 77.4381434352225,-79.149512815761 77.52552214731492,-79.03656912401456 77.61468182137418,-78.9250259962393 77.70560001192919,-78.81491151282114 77.79825383081167,-78.70625339449245 77.89261995291821,-78.59907899535338 77.98867462208221,-78.49341529598581 78.08639365705437,-78.389288896661 78.18575245759024,-78.28672601064311 78.28672601064311,-78.18575245759024 78.389288896661,-78.08639365705437 78.49341529598581,-77.98867462208221 78.59907899535338,-77.89261995291821 78.70625339449242,-77.79825383081167 78.81491151282114,-77.7056000119292 78.9250259962393,-77.61468182137418 79.03656912401456,-77.52552214731492 79.149512815761,-77.43814343522251 79.26382863850823,-77.35256768222048 79.37948781385923,-77.26881643154698 79.49646122523505,-77.18691076713151 79.61471942520501,-77.10687130828705 79.73423264289963,-77.02871820451936 79.85497079150548,-76.95247113045438 79.97690347583935,-76.8781492808852 80.10000000000001,-76.80577136594005 80.22422937509577,-76.73535560637194 80.34956032704585,-76.66691972897176 80.4759613044533,-76.60048096210569 80.60340048654804,-76.53605603137798 80.73184579119746,-76.47366115542042 80.86126488298302,-76.41331204180935 80.99162518134048,-76.35502388311139 81.12289386876184,-76.29881135305877 81.25503789905706,-76.24468860285535 81.38802400567316,-76.19266925761404 81.52181871006898,-76.14276641292682 81.6563883301432,-76.09499263156799 81.79169898871362,-76.0493599403315 81.92771662204552,-76.00587982700334 82.06440698842714,-75.96456323746953 82.20173567678968,-75.92542057296053 82.33966811537029,-75.8884616874328 82.47816958041516,-75.85369588508813 82.61720520492113,-75.82113191803134 82.75673998741328,-75.79077798406699 82.89673880075631,-75.76264172463564 83.03716640099763,-75.73673022289015 83.17798743623985,-75.71305000191246 83.31916645554044,-75.69160702307161 83.46066791783626,-75.67240668452284 83.60245620089091,-75.65545381984872 83.74449561026236,-75.64075269684224 83.8867503882889,-75.62830701643253 84.02918472309092,-75.61811991175304 84.17176275758632,-75.61019394735294 84.31444859851739,-75.60453111855135 84.45720632548674,-75.60113285093513 84.60000000000001,-75.60000000000001 131.4,-75.60000000000001 " style="stroke:#ff9999;fill:#ffcccc;stroke-width:2;stroke-dasharray:-;stroke-linecap:round;stroke-linejoin:round;" /><polygon points="95.39999999999999,-39.6 95.54279367451326,-39.60113285093513 95.68555140148261,-39.604531118551336 95.82823724241368,-39.61019394735293 95.97081527690908,-39.61811991175304 96.1132496117111,-39.62830701643252 96.25550438973764,-39.64075269684224 96.39754379910909,-39.65545381984872 96.53933208216374,-39.67240668452285 96.68083354445956,-39.69160702307161 96.82201256376015,-39.71305000191246 96.96283359900237,-39.73673022289013 97.10326119924369,-39.76264172463564 97.24326001258672,-39.79077798406699 97.38279479507887,-39.82113191803134 97.52183041958484,-39.85369588508813 97.66033188462971,-39.8884616874328 97.79826432321032,-39.925420572960526 97.93559301157286,-39.96456323746953 98.07228337795448,-40.005879827003334 98.20830101128638,-40.0493599403315 98.3436116698568,-40.09499263156798 98.47818128993102,-40.14276641292683 98.61197599432684,-40.19266925761404 98.74496210094294,-40.24468860285535 98.87710613123816,-40.298811353058774 99.00837481865952,-40.35502388311138 99.13873511701698,-40.41331204180934 99.26815420880254,-40.47366115542041 99.39659951345196,-40.53605603137798 99.5240386955467,-40.60048096210569 99.65043967295415,-40.66691972897176 99.77577062490423,-40.73535560637194 99.89999999999999,-40.80577136594006 100.02309652416065,-40.87814928088521 100.14502920849452,-40.95247113045437 100.26576735710037,-41.02871820451937 100.38528057479499,-41.10687130828706 100.50353877476493,-41.18691076713151 100.62051218614077,-41.26881643154698 100.73617136149176,-41.352567682220474 100.850487184239,-41.438143435222514 100.96343087598544,-41.525522147314916 101.0749740037607,-41.61468182137419 101.18508848717886,-41.7056000119292 101.29374660550755,-41.79825383081168 101.40092100464662,-41.89261995291821 101.50658470401419,-41.9886746220822 101.610711103339,-42.08639365705437 101.71327398935689,-42.18575245759023 101.81424754240976,-42.286726010643115 101.91360634294563,-42.38928889666099 102.01132537791779,-42.49341529598581 102.10738004708179,-42.59907899535338 102.20174616918833,-42.706253394492435 102.29439998807081,-42.81491151282115 102.38531817862582,-42.9250259962393 102.47447785268508,-43.03656912401456 102.56185656477749,-43.149512815761 102.64743231777952,-43.26382863850824 102.73118356845302,-43.37948781385922 102.81308923286849,-43.496461225235066 102.89312869171295,-43.61471942520501 102.97128179548064,-43.73423264289963 103.04752886954562,-43.85497079150548 103.1218507191148,-43.97690347583935 103.19422863405995,-44.1 103.26464439362806,-44.22422937509579 103.33308027102824,-44.349560327045864 103.39951903789431,-44.47596130445331 103.46394396862202,-44.60340048654804 103.52633884457958,-44.73184579119746 103.58668795819065,-44.86126488298303 103.64497611688863,-44.99162518134048 103.70118864694123,-45.12289386876185 103.75531139714465,-45.25503789905705 103.80733074238596,-45.38802400567315 103.85723358707318,-45.521818710068985 103.90500736843201,-45.65638833014321 103.9506400596685,-45.79169898871362 103.99412017299666,-45.92771662204552 104.03543676253047,-46.06440698842714 104.07457942703947,-46.20173567678969 104.1115383125672,-46.33966811537029 104.14630411491187,-46.47816958041516 104.17886808196866,-46.617205204921135 104.20922201593301,-46.75673998741329 104.23735827536436,-46.89673880075632 104.26326977710985,-47.037166400997634 104.28694999808754,-47.17798743623985 104.30839297692839,-47.31916645554043 104.32759331547716,-47.46066791783626 104.34454618015128,-47.602456200890906 104.35924730315776,-47.744495610262355 104.37169298356747,-47.88675038828891 104.38188008824696,-48.02918472309092 104.38980605264706,-48.17176275758632 104.39546888144865,-48.314448598517394 104.39886714906487,-48.45720632548673 104.39999999999999,-48.6 104.39999999999999,-95.39999999999999 104.39886714906487,-95.54279367451326 104.39546888144865,-95.68555140148261 104.38980605264706,-95.82823724241368 104.38188008824696,-95.97081527690908 104.37169298356747,-96.1132496117111 104.35924730315776,-96.25550438973764 104.34454618015128,-96.39754379910909 104.32759331547716,-96.53933208216374 104.30839297692839,-96.68083354445956 104.28694999808754,-96.82201256376015 104.26326977710985,-96.96283359900237 104.23735827536436,-97.10326119924369 104.20922201593301,-97.24326001258672 104.17886808196866,-97.38279479507885 104.14630411491187,-97.52183041958484 104.1115383125672,-97.66033188462971 104.07457942703947,-97.79826432321032 104.03543676253047,-97.93559301157286 103.99412017299666,-98.07228337795448 103.9506400596685,-98.20830101128638 103.90500736843201,-98.3436116698568 103.85723358707318,-98.47818128993102 103.80733074238596,-98.61197599432684 103.75531139714465,-98.74496210094294 103.70118864694123,-98.87710613123816 103.64497611688863,-99.00837481865952 103.58668795819065,-99.13873511701698 103.52633884457958,-99.26815420880254 103.46394396862202,-99.39659951345196 103.39951903789431,-99.52403869554668 103.33308027102824,-99.65043967295415 103.26464439362806,-99.77577062490423 103.19422863405995,-99.89999999999999 103.1218507191148,-100.02309652416065 103.04752886954562,-100.14502920849452 102.97128179548064,-100.26576735710037 102.89312869171295,-100.38528057479499 102.81308923286849,-100.50353877476493 102.73118356845302,-100.62051218614077 102.64743231777952,-100.73617136149176 102.56185656477749,-100.850487184239 102.47447785268508,-100.96343087598544 102.38531817862582,-101.0749740037607 102.29439998807081,-101.18508848717886 102.20174616918833,-101.29374660550755 102.10738004708179,-101.40092100464662 102.01132537791779,-101.50658470401419 101.91360634294563,-101.610711103339 101.81424754240976,-101.71327398935689 101.71327398935689,-101.81424754240976 101.610711103339,-101.91360634294563 101.50658470401419,-102.01132537791779 101.40092100464662,-102.10738004708179 101.29374660550755,-102.20174616918833 101.18508848717886,-102.29439998807081 101.0749740037607,-102.38531817862582 100.96343087598544,-102.47447785268508 100.850487184239,-102.56185656477749 100.73617136149176,-102.64743231777952 100.62051218614077,-102.73118356845302 100.50353877476493,-102.81308923286849 100.38528057479499,-102.89312869171295 100.26576735710037,-102.97128179548064 100.14502920849452,-103.04752886954562 100.02309652416065,-103.1218507191148 99.89999999999999,-103.19422863405995 99.77577062490423,-103.26464439362806 99.65043967295415,-103.33308027102824 99.5240386955467,-103.39951903789431 99.39659951345196,-103.46394396862202 99.26815420880254,-103.52633884457958 99.13873511701698,-103.58668795819065 99.00837481865952,-103.64497611688863 98.87710613123816,-103.70118864694123 98.74496210094294,-103.75531139714465 98.61197599432684,-103.80733074238596 98.47818128993102,-103.85723358707318 98.3436116698568,-103.90500736843201 98.20830101128638,-103.9506400596685 98.07228337795448,-103.99412017299666 97.93559301157286,-104.03543676253047 97.79826432321032,-104.07457942703947 97.66033188462971,-104.1115383125672 97.52183041958484,-104.14630411491187 97.38279479507885,-104.17886808196866 97.24326001258672,-104.20922201593301 97.10326119924369,-104.23735827536436 96.96283359900237,-104.26326977710985 96.82201256376015,-104.28694999808754 96.68083354445956,-104.30839297692839 96.53933208216374,-104.32759331547716 96.39754379910909,-104.34454618015128 96.25550438973764,-104.35924730315776 96.1132496117111,-104.37169298356747 95.97081527690908,-104.38188008824696 95.82823724241366,-104.38980605264706 95.68555140148261,-104.39546888144865 95.54279367451326,-104.39886714906487 95.39999999999999,-104.39999999999999 48.6,-104.39999999999999 48.45720632548673,-104.39886714906487 48.314448598517394,-104.39546888144865 48.17176275758632,-104.38980605264706 48.02918472309092,-104.38188008824696 47.88675038828891,-104.37169298356747 47.744495610262355,-104.35924730315776 47.602456200890906,-104.34454618015128 47.46066791783626,-104.32759331547716 47.31916645554043,-104.30839297692839 47.17798743623985,-104.28694999808754 47.037166400997634,-104.26326977710985 46.89673880075632,-104.23735827536436 46.75673998741329,-104.20922201593301 46.617205204921135,-104.17886808196866 46.47816958041516,-104.14630411491187 46.33966811537029,-104.1115383125672 46.20173567678969,-104.07457942703947 46.06440698842714,-104.03543676253047 45.92771662204552,-103.99412017299666 45.79169898871362,-103.9506400596685 45.65638833014321,-103.90500736843201 45.521818710068985,-103.85723358707318 45.38802400567316,-103.80733074238596 45.25503789905705,-103.75531139714465 45.12289386876185,-103.70118864694123 44.99162518134048,-103.64497611688863 44.86126488298303,-103.58668795819065 44.73184579119746,-103.52633884457958 44.60340048654803,-103.46394396862202 44.47596130445331,-103.39951903789431 44.349560327045864,-103.33308027102824 44.22422937509579,-103.26464439362806 44.1,-103.19422863405995 43.97690347583935,-103.1218507191148 43.85497079150548,-103.04752886954562 43.73423264289962,-102.97128179548064 43.61471942520501,-102.89312869171295 43.49646122523507,-102.81308923286849 43.37948781385922,-102.73118356845302 43.26382863850824,-102.64743231777952 43.14951281576101,-102.5618565647775 43.03656912401456,-102.47447785268508 42.9250259962393,-102.38531817862582 42.81491151282115,-102.29439998807081 42.706253394492435,-102.20174616918833 42.59907899535338,-102.10738004708179 42.49341529598581,-102.01132537791779 42.38928889666099,-101.91360634294563 42.286726010643115,-101.81424754240976 42.18575245759023,-101.71327398935689 42.086393657054366,-101.610711103339 41.9886746220822,-101.50658470401419 41.89261995291821,-101.40092100464662 41.79825383081168,-101.29374660550758 41.7056000119292,-101.18508848717886 41.61468182137419,-101.0749740037607 41.52552214731492,-100.96343087598544 41.438143435222514,-100.850487184239 41.352567682220474,-100.73617136149176 41.26881643154698,-100.62051218614077 41.18691076713151,-100.50353877476493 41.10687130828706,-100.38528057479499 41.02871820451937,-100.26576735710037 40.95247113045437,-100.14502920849452 40.87814928088521,-100.02309652416065 40.80577136594006,-99.89999999999999 40.73535560637194,-99.77577062490423 40.66691972897176,-99.65043967295415 40.60048096210569,-99.5240386955467 40.53605603137798,-99.39659951345196 40.47366115542041,-99.26815420880254 40.41331204180934,-99.13873511701698 40.35502388311138,-99.00837481865952 40.298811353058774,-98.87710613123816 40.24468860285535,-98.74496210094294 40.19266925761404,-98.61197599432684 40.14276641292683,-98.47818128993102 40.09499263156798,-98.3436116698568 40.0493599403315,-98.20830101128638 40.005879827003334,-98.07228337795448 39.96456323746953,-97.93559301157286 39.925420572960526,-97.79826432321032 39.8884616874328,-97.66033188462971 39.85369588508813,-97.52183041958484 39.82113191803134,-97.38279479507887 39.79077798406699,-97.24326001258672 39.76264172463565,-97.10326119924369 39.73673022289013,-96.96283359900237 39.71305000191246,-96.82201256376015 39.69160702307161,-96.68083354445956 39.67240668452285,-96.53933208216374 39.65545381984872,-96.39754379910909 39.64075269684224,-96.25550438973764 39.62830701643252,-96.1132496117111 39.61811991175304,-95.97081527690908 39.61019394735293,-95.82823724241366 39.604531118551336,-95.68555140148261 39.60113285093513,-95.54279367451326 39.6,-95.39999999999999 39.6,-48.6 39.60113285093513,-48.45720632548674 39.604531118551336,-48.314448598517394 39.61019394735293,-48.17176275758632 39.61811991175304,-48.02918472309092 39.62830701643252,-47.88675038828891 39.64075269684224,-47.744495610262355 39.65545381984872,-47.602456200890906 39.67240668452285,-47.46066791783626 39.69160702307161,-47.31916645554043 39.71305000191245,-47.17798743623985 39.73673022289013,-47.037166400997634 39.76264172463564,-46.89673880075631 39.79077798406699,-46.75673998741329 39.82113191803134,-46.617205204921135 39.85369588508813,-46.47816958041516 39.8884616874328,-46.339668115370294 39.925420572960526,-46.20173567678969 39.96456323746953,-46.06440698842714 40.005879827003334,-45.92771662204552 40.0493599403315,-45.79169898871362 40.09499263156798,-45.65638833014321 40.142766412926825,-45.521818710068985 40.19266925761404,-45.38802400567316 40.24468860285535,-45.25503789905706 40.298811353058774,-45.12289386876185 40.35502388311138,-44.99162518134048 40.41331204180934,-44.86126488298303 40.47366115542041,-44.73184579119746 40.53605603137798,-44.60340048654803 40.60048096210569,-44.47596130445331 40.66691972897176,-44.349560327045864 40.73535560637194,-44.22422937509579 40.80577136594006,-44.1 40.87814928088521,-43.97690347583935 40.95247113045437,-43.85497079150548 41.02871820451937,-43.73423264289963 41.10687130828706,-43.61471942520501 41.18691076713151,-43.49646122523507 41.26881643154698,-43.37948781385922 41.352567682220474,-43.26382863850824 41.438143435222514,-43.14951281576101 41.525522147314916,-43.03656912401456 41.61468182137419,-42.9250259962393 41.7056000119292,-42.81491151282115 41.79825383081168,-42.706253394492435 41.89261995291821,-42.59907899535338 41.9886746220822,-42.49341529598582 42.086393657054366,-42.38928889666099 42.18575245759023,-42.286726010643115 42.286726010643115,-42.18575245759023 42.38928889666099,-42.086393657054366 42.49341529598581,-41.9886746220822 42.59907899535338,-41.89261995291821 42.706253394492435,-41.79825383081168 42.81491151282115,-41.7056000119292 42.9250259962393,-41.61468182137419 43.03656912401455,-41.52552214731492 43.149512815761,-41.438143435222514 43.26382863850824,-41.35256768222048 43.37948781385922,-41.26881643154698 43.496461225235066,-41.186910767131515 43.61471942520501,-41.10687130828706 43.73423264289963,-41.02871820451937 43.85497079150548,-40.95247113045437 43.97690347583935,-40.87814928088521 44.1,-40.805771365940046 44.22422937509578,-40.73535560637194 44.34956032704585,-40.66691972897176 44.47596130445331,-40.60048096210569 44.60340048654804,-40.53605603137798 44.73184579119746,-40.47366115542041 44.86126488298303,-40.41331204180934 44.99162518134048,-40.35502388311138 45.12289386876185,-40.298811353058774 45.25503789905705,-40.244688602855355 45.38802400567315,-40.19266925761404 45.521818710068985,-40.142766412926825 45.65638833014321,-40.09499263156799 45.79169898871362,-40.0493599403315 45.92771662204552,-40.005879827003334 46.06440698842714,-39.96456323746953 46.20173567678968,-39.925420572960526 46.33966811537029,-39.8884616874328 46.47816958041516,-39.85369588508813 46.617205204921135,-39.82113191803134 46.75673998741329,-39.79077798406699 46.89673880075631,-39.76264172463565 47.037166400997634,-39.73673022289013 47.177987436239846,-39.71305000191246 47.31916645554043,-39.69160702307161 47.46066791783626,-39.67240668452285 47.6024562008909,-39.65545381984872 47.744495610262355,-39.64075269684224 47.88675038828891,-39.62830701643252 48.02918472309092,-39.61811991175304 48.171762757586315,-39.61019394735293 48.314448598517394,-39.604531118551336 48.45720632548674,-39.60113285093513 48.6,-39.6 95.39999999999999,-39.6 " style="stroke:#9999ff;fill:#ccccff;stroke-width:2;stroke-dasharray:-;stroke-linecap:round;stroke-linejoin:round;" /><text x="0.0" y="-175.09188309203677" dominant-baseline="ideographic" fill="black" font-size="12" font-family="sans" text-anchor="end"><tspan x="0.0" dy="12">CD</tspan></text><text x="-19.09188309203678" y="-156.0" dominant-baseline="ideographic" fill="black" font-size="12" font-family="sans" text-anchor="end"><tspan x="-19.09188309203678" dy="12">AB</tspan></text><text x="18.0" y="-155.79999999999998" dominant-baseline="ideographic" fill="black" font-size="10" font-family="sans" text-anchor="middle"><tspan x="18.0" dy="10">00</tspan></text><text x="54.0" y="-155.79999999999998" dominant-baseline="ideographic" fill="black" font-size="10" font-family="sans" text-anchor="middle"><tspan x="54.0" dy="10">01</tspan></text><text x="126.0" y="-155.79999999999998" dominant-baseline="ideographic" fill="black" font-size="10" font-family="sans" text-anchor="middle"><tspan x="126.0" dy="10">10</tspan></text><text x="90.0" y="-155.79999999999998" dominant-baseline="ideographic" fill="black" font-size="10" font-family="sans" text-anchor="middle"><tspan x="90.0" dy="10">11</tspan></text><text x="-3.6" y="-136.0" dominant-baseline="central" fill="black" font-size="10" font-family="sans" text-anchor="end"><tspan x="-3.6" dy="10">00</tspan></text><text x="-3.6" y="-100.0" dominant-baseline="central" fill="black" font-size="10" font-family="sans" text-anchor="end"><tspan x="-3.6" dy="10">01</tspan></text><text x="-3.6" y="-28.0" dominant-baseline="central" fill="black" font-size="10" font-family="sans" text-anchor="end"><tspan x="-3.6" dy="10">10</tspan></text><text x="-3.6" y="-64.0" dominant-baseline="central" fill="black" font-size="10" font-family="sans" text-anchor="end"><tspan x="-3.6" dy="10">11</tspan></text><text x="18.0" y="-138.0" dominant-baseline="central" fill="black" font-size="12" font-family="sans" text-anchor="middle"><tspan x="18.0" dy="12">0</tspan></text><text x="18.0" y="-102.0" dominant-baseline="central" fill="black" font-size="12" font-family="sans" text-anchor="middle"><tspan x="18.0" dy="12">0</tspan></text><text x="18.0" y="-30.0" dominant-baseline="central" fill="black" font-size="12" font-family="sans" text-anchor="middle"><tspan x="18.0" dy="12">0</tspan></text><text x="18.0" y="-66.0" dominant-baseline="central" fill="black" font-size="12" font-family="sans" text-anchor="middle"><tspan x="18.0" dy="12">0</tspan></text><text x="54.0" y="-138.0" dominant-baseline="central" fill="black" font-size="12" font-family="sans" text-anchor="middle"><tspan x="54.0" dy="12">0</tspan></text><text x="54.0" y="-102.0" dominant-baseline="central" fill="black" font-size="12" font-family="sans" text-anchor="middle"><tspan x="54.0" dy="12">1</tspan></text><text x="54.0" y="-30.0" dominant-baseline="central" fill="black" font-size="12" font-family="sans" text-anchor="middle"><tspan x="54.0" dy="12">0</tspan></text><text x="54.0" y="-66.0" dominant-baseline="central" fill="black" font-size="12" font-family="sans" text-anchor="middle"><tspan x="54.0" dy="12">1</tspan></text><text x="126.0" y="-138.0" dominant-baseline="central" fill="black" font-size="12" font-family="sans" text-anchor="middle"><tspan x="126.0" dy="12">1</tspan></text><text x="126.0" y="-102.0" dominant-baseline="central" fill="black" font-size="12" font-family="sans" text-anchor="middle"><tspan x="126.0" dy="12">0</tspan></text><text x="126.0" y="-30.0" dominant-baseline="central" fill="black" font-size="12" font-family="sans" text-anchor="middle"><tspan x="126.0" dy="12">0</tspan></text><text x="126.0" y="-66.0" dominant-baseline="central" fill="black" font-size="12" font-family="sans" text-anchor="middle"><tspan x="126.0" dy="12">0</tspan></text><text x="90.0" y="-138.0" dominant-baseline="central" fill="black" font-size="12" font-family="sans" text-anchor="middle"><tspan x="90.0" dy="12">1</tspan></text><text x="90.0" y="-102.0" dominant-baseline="central" fill="black" font-size="12" font-family="sans" text-anchor="middle"><tspan x="90.0" dy="12">1</tspan></text><text x="90.0" y="-30.0" dominant-baseline="central" fill="black" font-size="12" font-family="sans" text-anchor="middle"><tspan x="90.0" dy="12">0</tspan></text><text x="90.0" y="-66.0" dominant-baseline="central" fill="black" font-size="12" font-family="sans" text-anchor="middle"><tspan x="90.0" dy="12">1</tspan></text></svg>