<svg class="kmap-graph" xmlns="http://www.w3.org/2000/svg" xmlns:xlink="http://www.w3.org/1999/xlink" xml:lang="en" height="187.89188309203678pt" width="192.01988309203676pt" viewBox="-39.819883092036775 -179.6918830920368 192.01988309203676 187.89188309203678"><path d="M 0.0,-0.0 L 144.0,-0.0 L 144.0,-144.0 L 0.0,-144.0 L 0.0,-0.0" style="stroke:#333;fill:none;stroke-width:1.25;stroke-dasharray:-;stroke-linecap:round;stroke-linejoin:round;" /><path d="M 0.0,-0.0 L 144.0,-0.0" style="stroke:#333;fill:none;stroke-width:1.25;stroke-dasharray:-;stroke-linecap:round;stroke-linejoin:round;" /><path d="M 0.0,-36.0 L 144.0,-36.0" style="stroke:#333;fill:none;stroke-width:1.25;stroke-dasharray:-;stroke-linecap:round;stroke-linejoin:round;" /><path d="M 0.0,-72.0 L 144.0,-72.0" style="stroke:#333;fill:none;stroke-width:1.25;stroke-dasharray:-;stroke-linecap:round;stroke-linejoin:round;" /><path d="M 0.0,-108.0 L 144.0,-108.0" style="stroke:#333;fill:none;stroke-width:1.25;stroke-dasharray:-;stroke-linecap:round;stroke-linejoin:round;" /><path d="M 0.0,-0.0 L 0.0,-144.0" style="stroke:#333;fill:none;stroke-width:1.25;stroke-dasharray:-;stroke-linecap:round;stroke-linejoin:round;" /><path d="M 36.0,-0.0 L 36.0,-144.0" style="stroke:#333;fill:none;stroke-width:1.25;stroke-dasharray:-;stroke-linecap:round;stroke-linejoin:round;" /><path d="M 72.0,-0.0 L 72.0,-144.0" style="stroke:#333;fill:none;stroke-width:1.25;stroke-dasharray:-;stroke-linecap:round;stroke-linejoin:round;" /><path d="M 108.0,-0.0 L 108.0,-144.0" style="stroke:#333;fill:none;stroke-width:1.25;stroke-dasharray:-;stroke-linecap:round;stroke-linejoin:round;" /><path d="M 0.0,-144.0 L -25.45584412271571,-169.45584412271572" style="stroke:#333;fill:none;stroke-width:1.25;stroke-dasharray:-;stroke-linecap:round;stroke-linejoin:round;" /><polygon points="138.6,3.5999999999999983 138.74279367451325,3.5988671490648736 138.8855514014826,3.5954688814486637 139.02823724241367,3.58980605264707 139.17081527690908,3.581880088246958 139.3132496117111,3.5716929835674796 139.45550438973763,3.5592473031577594 139.59754379910908,3.5445461801512854 139.73933208216374,3.5275933154771564 139.88083354445953,3.508392976928392 140.02201256376014,3.486949998087547 140.16283359900237,3.46326977710987 140.30326119924368,3.4373582753643586 140.4432600125867,3.4092220159330067 140.58279479507885,3.378868081968662 140.72183041958482,3.346304114911873 140.86033188462972,3.3115383125672047 140.99826432321032,3.274579427039477 141.13559301157287,3.2354367625304743 141.27228337795447,3.194120172996663 141.40830101128637,3.150640059668507 141.54361166985677,3.1050073684320143 141.67818128993102,3.0572335870731733 141.81197599432681,3.007330742385958 141.94496210094294,2.9553113971446514 142.07710613123814,2.9011886469412307 142.2083748186595,2.8449761168886245 142.33873511701697,2.7866879581906634 142.46815420880253,2.7263388445795886 142.59659951345196,2.663943968622021 142.72403869554668,2.5995190378943094 142.85043967295414,2.5330802710282367 142.97577062490421,2.4646443936280624 143.1,2.3942286340599455 143.22309652416064,2.321850719114791 143.3450292084945,2.2475288695456266 143.46576735710036,2.171281795480628 143.58528057479498,2.09312869171294 143.70353877476492,2.0130892328684924 143.82051218614077,1.9311835684530188 143.93617136149174,1.8474323177795258 144.050487184239,1.761856564777487 144.16343087598545,1.6744778526850856 144.2749740037607,1.5853181786258097 144.38508848717885,1.4943999880708003 144.49374660550754,1.4017461691883226 144.60092100464664,1.3073800470817902 144.70658470401418,1.211325377917797 144.810711103339,1.113606342945629 144.9132739893569,1.0142475424097634 145.01424754240975,0.9132739893568886 145.11360634294562,0.8107111033390055 145.21132537791777,0.7065847040141868 145.30738004708178,0.6009210046466228 145.4017461691883,0.4937466055075631 145.4943999880708,0.38508848717885147 145.58531817862578,0.2749740037606998 145.67447785268507,0.1634308759854447 145.76185656477747,0.05048718423899767 145.84743231777952,-0.06382863850823817 145.931183568453,-0.17948781385921841 146.01308923286848,-0.29646122523506513 146.09312869171293,-0.4147194252050095 146.17128179548064,-0.5342326428996238 146.24752886954562,-0.6549707915054804 146.32185071911476,-0.776903475839345 146.3942286340599,-0.9000000000000032 146.46464439362805,-1.0242293750957845 146.53308027102824,-1.1495603270458579 146.5995190378943,-1.275961304453308 146.66394396862202,-1.403400486548036 146.72633884457957,-1.531845791197458 146.78668795819067,-1.6612648829830243 146.84497611688863,-1.7916251813404784 146.90118864694122,-1.9228938687618453 146.95531139714464,-2.0550378990570546 147.00733074238593,-2.1880240056731552 147.05723358707317,-2.3218187100689827 147.10500736843198,-2.4563883301432083 147.15064005966852,-2.591698988713618 147.19412017299666,-2.727716622045528 147.23543676253047,-2.8644069884271364 147.27457942703947,-3.001735676789688 147.3115383125672,-3.1396681153702892 147.34630411491187,-3.278169580415157 147.37886808196865,-3.417205204921138 147.40922201593298,-3.556739987413287 147.43735827536435,-3.69673880075631 147.46326977710987,-3.8371664009976287 147.48694999808754,-3.977987436239854 147.5083929769284,-4.119166455540436 147.52759331547713,-4.260667917836258 147.5445461801513,-4.402456200890902 147.55924730315775,-4.544495610262359 147.57169298356746,-4.686750388288907 147.58188008824695,-4.829184723090922 147.58980605264705,-4.971762757586323 147.59546888144865,-5.114448598517393 147.59886714906486,-5.257206325486731 147.6,-5.400000000000002 147.6,-23.4 147.59886714906486,-23.542793674513266 147.59546888144865,-23.685551401482606 147.58980605264705,-23.828237242413678 147.58188008824695,-23.97081527690908 147.57169298356746,-24.11324961171109 147.55924730315775,-24.255504389737638 147.5445461801513,-24.397543799109098 147.52759331547713,-24.53933208216374 147.50839297692838,-24.680833544459563 147.48694999808754,-24.822012563760143 147.46326977710987,-24.962833599002373 147.43735827536435,-25.10326119924369 147.40922201593298,-25.243260012586713 147.37886808196865,-25.382794795078862 147.34630411491187,-25.521830419584845 147.3115383125672,-25.66033188462971 147.27457942703947,-25.79826432321031 147.23543676253047,-25.935593011572863 147.19412017299666,-26.07228337795447 147.15064005966852,-26.20830101128638 147.10500736843198,-26.34361166985679 147.05723358707317,-26.478181289931015 147.00733074238593,-26.611975994326844 146.95531139714464,-26.744962100942942 146.90118864694122,-26.877106131238154 146.84497611688863,-27.008374818659522 146.78668795819067,-27.138735117016974 146.72633884457957,-27.268154208802542 146.66394396862202,-27.396599513451964 146.5995190378943,-27.52403869554669 146.53308027102824,-27.650439672954143 146.46464439362805,-27.775770624904215 146.3942286340599,-27.9 146.32185071911476,-28.02309652416065 146.24752886954562,-28.145029208494517 146.17128179548064,-28.265767357100376 146.0931286917129,-28.38528057479499 146.01308923286848,-28.503538774764934 145.931183568453,-28.620512186140783 145.84743231777952,-28.736171361491763 145.76185656477747,-28.850487184238997 145.67447785268507,-28.96343087598544 145.58531817862578,-29.0749740037607 145.4943999880708,-29.18508848717885 145.4017461691883,-29.293746605507565 145.30738004708178,-29.40092100464662 145.21132537791777,-29.506584704014188 145.11360634294562,-29.610711103339007 145.01424754240975,-29.713273989356885 144.9132739893569,-29.814247542409763 144.810711103339,-29.913606342945627 144.70658470401418,-30.0113253779178 144.60092100464664,-30.107380047081787 144.49374660550754,-30.20174616918832 144.38508848717885,-30.294399988070797 144.2749740037607,-30.38531817862581 144.16343087598545,-30.474477852685087 144.050487184239,-30.561856564777486 143.93617136149174,-30.647432317779526 143.82051218614077,-30.73118356845302 143.70353877476492,-30.81308923286849 143.58528057479498,-30.89312869171294 143.46576735710036,-30.971281795480625 143.3450292084945,-31.047528869545626 143.22309652416064,-31.12185071911479 143.1,-31.194228634059947 142.97577062490421,-31.26464439362806 142.85043967295414,-31.333080271028233 142.72403869554668,-31.399519037894308 142.59659951345196,-31.46394396862202 142.46815420880253,-31.52633884457959 142.33873511701697,-31.586687958190662 142.2083748186595,-31.64497611688862 142.07710613123814,-31.70118864694123 141.94496210094294,-31.75531139714465 141.81197599432681,-31.807330742385957 141.67818128993102,-31.85723358707317 141.54361166985677,-31.905007368432013 141.40830101128637,-31.950640059668505 141.27228337795447,-31.99412017299666 141.13559301157287,-32.03543676253047 140.99826432321032,-32.074579427039474 140.86033188462972,-32.111538312567205 140.72183041958482,-32.14630411491187 140.58279479507885,-32.17886808196866 140.4432600125867,-32.20922201593301 140.30326119924368,-32.23735827536436 140.16283359900237,-32.26326977710987 140.02201256376014,-32.28694999808754 139.88083354445953,-32.30839297692839 139.73933208216374,-32.32759331547715 139.59754379910908,-32.34454618015128 139.45550438973763,-32.35924730315776 139.3132496117111,-32.37169298356748 139.17081527690908,-32.38188008824696 139.02823724241367,-32.38980605264707 138.8855514014826,-32.395468881448664 138.74279367451325,-32.39886714906487 138.6,-32.4 120.60000000000001,-32.4 120.45720632548674,-32.39886714906487 120.31444859851739,-32.395468881448664 120.17176275758632,-32.38980605264707 120.02918472309092,-32.38188008824696 119.8867503882889,-32.37169298356748 119.74449561026236,-32.35924730315776 119.60245620089091,-32.34454618015128 119.46066791783626,-32.32759331547715 119.31916645554044,-32.30839297692839 119.17798743623985,-32.28694999808754 119.03716640099763,-32.26326977710987 118.89673880075631,-32.23735827536436 118.75673998741328,-32.20922201593301 118.61720520492115,-32.17886808196866 118.47816958041516,-32.14630411491187 118.33966811537029,-32.111538312567205 118.2017356767897,-32.074579427039474 118.06440698842714,-32.03543676253047 117.92771662204552,-31.99412017299666 117.79169898871362,-31.950640059668505 117.6563883301432,-31.905007368432013 117.52181871006898,-31.85723358707317 117.38802400567316,-31.807330742385957 117.25503789905706,-31.75531139714465 117.12289386876184,-31.70118864694123 116.99162518134048,-31.64497611688862 116.86126488298302,-31.586687958190662 116.73184579119746,-31.52633884457959 116.60340048654804,-31.46394396862202 116.47596130445332,-31.399519037894308 116.34956032704585,-31.333080271028233 116.22422937509577,-31.26464439362806 116.10000000000001,-31.194228634059943 115.97690347583935,-31.121850719114793 115.85497079150548,-31.047528869545626 115.73423264289963,-30.971281795480625 115.61471942520501,-30.89312869171294 115.49646122523507,-30.813089232868492 115.37948781385923,-30.73118356845302 115.26382863850824,-30.647432317779526 115.149512815761,-30.561856564777486 115.03656912401456,-30.474477852685084 114.9250259962393,-30.38531817862581 114.81491151282114,-30.294399988070797 114.70625339449245,-30.20174616918832 114.59907899535338,-30.10738004708179 114.49341529598581,-30.0113253779178 114.389288896661,-29.91360634294563 114.28672601064311,-29.81424754240976 114.18575245759024,-29.713273989356885 114.08639365705437,-29.610711103339007 113.98867462208221,-29.506584704014188 113.89261995291821,-29.400921004646623 113.79825383081167,-29.293746605507565 113.7056000119292,-29.185088487178852 113.61468182137418,-29.0749740037607 113.52552214731492,-28.963430875985445 113.43814343522251,-28.850487184238997 113.35256768222048,-28.736171361491763 113.26881643154698,-28.620512186140783 113.18691076713151,-28.503538774764937 113.10687130828705,-28.38528057479499 113.02871820451936,-28.265767357100376 112.95247113045438,-28.14502920849452 112.8781492808852,-28.02309652416065 112.80577136594005,-27.9 112.73535560637194,-27.775770624904215 112.66691972897176,-27.650439672954143 112.60048096210569,-27.52403869554669 112.53605603137798,-27.396599513451964 112.47366115542042,-27.268154208802546 112.41331204180935,-27.13873511701697 112.35502388311139,-27.008374818659522 112.29881135305877,-26.877106131238154 112.24468860285535,-26.744962100942942 112.19266925761404,-26.611975994326844 112.14276641292682,-26.478181289931015 112.09499263156799,-26.34361166985679 112.0493599403315,-26.20830101128638 112.00587982700334,-26.072283377954474 111.96456323746953,-25.935593011572863 111.92542057296053,-25.79826432321031 111.8884616874328,-25.66033188462971 111.85369588508813,-25.521830419584845 111.82113191803134,-25.382794795078862 111.79077798406699,-25.24326001258671 111.76264172463564,-25.103261199243693 111.73673022289015,-24.962833599002366 111.71305000191246,-24.822012563760143 111.69160702307161,-24.680833544459563 111.67240668452284,-24.53933208216374 111.65545381984872,-24.397543799109098 111.64075269684224,-24.255504389737638 111.62830701643253,-24.113249611711097 111.61811991175304,-23.97081527690908 111.61019394735294,-23.828237242413678 111.60453111855135,-23.685551401482606 111.60113285093513,-23.54279367451327 111.60000000000001,-23.4 111.60000000000001,-5.399999999999998 111.60113285093513,-5.257206325486727 111.60453111855135,-5.11444859851739 111.61019394735294,-4.971762757586318 111.61811991175304,-4.829184723090916 111.62830701643253,-4.686750388288901 111.64075269684224,-4.544495610262352 111.65545381984872,-4.4024562008908985 111.67240668452284,-4.260667917836255 111.69160702307161,-4.119166455540432 111.71305000191246,-3.9779874362398497 111.73673022289015,-3.837166400997626 111.76264172463564,-3.6967388007563042 111.79077798406699,-3.5567399874132803 111.82113191803134,-3.4172052049211317 111.85369588508813,-3.2781695804151525 111.8884616874328,-3.1396681153702852 111.92542057296053,-3.0017356767896834 111.96456323746953,-2.864406988427132 112.00587982700334,-2.727716622045522 112.0493599403315,-2.591698988713613 112.09499263156799,-2.456388330143202 112.14276641292682,-2.321818710068979 112.19266925761404,-2.1880240056731513 112.24468860285535,-2.0550378990570506 112.29881135305877,-1.9228938687618413 112.35502388311139,-1.7916251813404729 112.41331204180935,-1.6612648829830183 112.47366115542042,-1.5318457911974526 112.53605603137798,-1.4034004865480303 112.60048096210569,-1.275961304453304 112.66691972897176,-1.1495603270458539 112.73535560637194,-1.0242293750957805 112.80577136594005,-0.8999999999999958 112.8781492808852,-0.776903475839342 112.95247113045438,-0.6549707915054744 113.02871820451936,-0.5342326428996188 113.10687130828705,-0.4147194252050055 113.18691076713151,-0.29646122523506113 113.26881643154698,-0.17948781385921442 113.35256768222048,-0.06382863850823517 113.43814343522251,0.05048718423900067 113.52552214731492,0.1634308759854507 113.6146818213742,0.2749740037607058 113.7056000119292,0.38508848717885646 113.79825383081167,0.4937466055075681 113.89261995291821,0.6009210046466268 113.98867462208221,0.7065847040141908 114.08639365705437,0.8107111033390085 114.18575245759024,0.9132739893568946 114.28672601064312,1.0142475424097686 114.389288896661,1.113606342945634 114.49341529598581,1.211325377917802 114.59907899535338,1.3073800470817942 114.70625339449245,1.4017461691883257 114.81491151282114,1.4943999880708034 114.9250259962393,1.5853181786258146 115.03656912401456,1.6744778526850879 115.149512815761,1.7618565647774922 115.26382863850824,1.8474323177795298 115.37948781385923,1.9311835684530236 115.49646122523507,2.0130892328684964 115.61471942520501,2.093128691712944 115.73423264289963,2.171281795480631 115.85497079150548,2.2475288695456297 115.97690347583935,2.3218507191147957 116.10000000000001,2.3942286340599495 116.22422937509577,2.464644393628067 116.34956032704585,2.53308027102824 116.47596130445332,2.5995190378943125 116.60340048654804,2.663943968622026 116.73184579119746,2.7263388445795917 116.86126488298302,2.786687958190667 116.99162518134048,2.8449761168886276 117.12289386876184,2.9011886469412342 117.25503789905706,2.9553113971446554 117.38802400567316,3.007330742385962 117.52181871006898,3.057233587073177 117.6563883301432,3.1050073684320183 117.79169898871362,3.1506400596685102 117.92771662204552,3.194120172996666 118.06440698842714,3.2354367625304787 118.2017356767897,3.2745794270394804 118.33966811537029,3.3115383125672073 118.47816958041516,3.346304114911876 118.61720520492115,3.3788680819686645 118.75673998741328,3.4092220159330098 118.89673880075631,3.4373582753643617 119.03716640099763,3.4632697771098733 119.17798743623986,3.486949998087551 119.31916645554044,3.5083929769283966 119.46066791783626,3.5275933154771595 119.60245620089091,3.544546180151288 119.74449561026236,3.5592473031577625 119.8867503882889,3.5716929835674827 120.02918472309092,3.5818800882469612 120.17176275758634,3.5898060526470728 120.31444859851739,3.595468881448668 120.45720632548674,3.5988671490648767 120.60000000000001,3.6000000000000014 138.6,3.5999999999999983 " style="stroke:#ff9999;fill:#ffcccc;stroke-width:2;stroke-dasharray:-;stroke-linecap:round;stroke-linejoin:round;" /><polygon points="23.4,3.6000000000000014 23.542793674513266,3.5988671490648767 23.685551401482606,3.595468881448668 23.828237242413678,3.5898060526470728 23.97081527690908,3.5818800882469612 24.113249611711097,3.5716929835674827 24.255504389737645,3.5592473031577625 24.397543799109098,3.5445461801512894 24.53933208216374,3.5275933154771595 24.680833544459563,3.5083929769283966 24.822012563760147,3.486949998087551 24.962833599002373,3.4632697771098746 25.103261199243693,3.4373582753643617 25.243260012586713,3.4092220159330098 25.382794795078862,3.3788680819686654 25.521830419584845,3.3463041149118773 25.660331884629713,3.311538312567208 25.798264323210315,3.2745794270394804 25.935593011572863,3.2354367625304787 26.072283377954474,3.194120172996667 26.208301011286384,3.1506400596685102 26.34361166985679,3.1050073684320183 26.478181289931015,3.057233587073178 26.611975994326848,3.007330742385962 26.74496210094295,2.9553113971446554 26.877106131238158,2.9011886469412342 27.008374818659522,2.8449761168886285 27.138735117016974,2.786687958190667 27.268154208802546,2.7263388445795926 27.396599513451967,2.663943968622025 27.524038695546693,2.5995190378943134 27.650439672954143,2.53308027102824 27.77577062490422,2.4646443936280655 27.900000000000002,2.3942286340599495 28.023096524160657,2.321850719114795 28.14502920849452,2.247528869545632 28.26576735710038,2.171281795480633 28.38528057479499,2.093128691712944 28.503538774764937,2.0130892328684964 28.620512186140786,1.9311835684530227 28.736171361491763,1.8474323177795289 28.850487184239,1.761856564777491 28.96343087598545,1.6744778526850888 29.074974003760705,1.5853181786258126 29.185088487178852,1.4943999880708043 29.293746605507565,1.4017461691883257 29.400921004646623,1.3073800470817942 29.506584704014188,1.211325377917801 29.61071110333901,1.113606342945633 29.713273989356892,1.0142475424097674 29.814247542409767,0.9132739893568926 29.91360634294563,0.8107111033390095 30.0113253779178,0.7065847040141908 30.10738004708179,0.6009210046466258 30.201746169188326,0.4937466055075671 30.2943999880708,0.38508848717885447 30.385318178625813,0.2749740037607038 30.474477852685087,0.1634308759854477 30.56185656477749,0.05048718423900167 30.647432317779526,-0.06382863850823517 30.73118356845302,-0.17948781385921542 30.813089232868492,-0.29646122523506213 30.893128691712942,-0.4147194252050065 30.971281795480635,-0.5342326428996208 31.04752886954563,-0.6549707915054774 31.121850719114796,-0.776903475839342 31.19422863405995,-0.9000000000000004 31.264644393628068,-1.0242293750957814 31.33308027102824,-1.149560327045855 31.399519037894315,-1.2759613044533051 31.463943968622026,-1.4034004865480332 31.526338844579595,-1.531845791197455 31.586687958190666,-1.6612648829830214 31.64497611688863,-1.7916251813404773 31.701188646941233,-1.9228938687618422 31.755311397144652,-2.0550378990570515 31.807330742385965,-2.1880240056731544 31.857233587073175,-2.3218187100689818 31.905007368432017,-2.4563883301432052 31.95064005966851,-2.591698988713615 31.994120172996666,-2.727716622045527 32.03543676253048,-2.8644069884271333 32.07457942703948,-3.001735676789685 32.111538312567205,-3.1396681153702883 32.14630411491188,-3.2781695804151556 32.178868081968666,-3.4172052049211348 32.20922201593301,-3.5567399874132852 32.23735827536436,-3.696738800756309 32.263269777109876,-3.8371664009976274 32.28694999808755,-3.977987436239851 32.308392976928396,-4.1191664555404355 32.32759331547716,-4.260667917836257 32.34454618015129,-4.402456200890901 32.35924730315776,-4.544495610262358 32.37169298356748,-4.686750388288905 32.38188008824696,-4.82918472309092 32.389806052647074,-4.971762757586319 32.395468881448664,-5.114448598517392 32.39886714906488,-5.25720632548673 32.4,-5.4 32.4,-23.4 32.39886714906488,-23.542793674513266 32.395468881448664,-23.685551401482606 32.389806052647074,-23.828237242413678 32.38188008824696,-23.97081527690908 32.37169298356748,-24.11324961171109 32.35924730315776,-24.255504389737638 32.34454618015129,-24.397543799109098 32.32759331547716,-24.53933208216374 32.308392976928396,-24.680833544459563 32.28694999808755,-24.822012563760147 32.263269777109876,-24.962833599002373 32.23735827536436,-25.10326119924369 32.20922201593301,-25.243260012586713 32.178868081968666,-25.382794795078862 32.14630411491188,-25.521830419584845 32.111538312567205,-25.660331884629713 32.07457942703948,-25.798264323210315 32.03543676253048,-25.935593011572863 31.994120172996666,-26.072283377954474 31.95064005966851,-26.208301011286384 31.905007368432017,-26.34361166985679 31.857233587073175,-26.478181289931015 31.807330742385965,-26.611975994326848 31.755311397144652,-26.74496210094295 31.701188646941233,-26.877106131238154 31.64497611688863,-27.008374818659522 31.586687958190666,-27.138735117016974 31.526338844579595,-27.268154208802546 31.463943968622026,-27.396599513451967 31.399519037894315,-27.52403869554669 31.33308027102824,-27.650439672954143 31.264644393628068,-27.77577062490422 31.19422863405995,-27.900000000000002 31.121850719114796,-28.023096524160657 31.04752886954563,-28.14502920849452 30.971281795480635,-28.265767357100376 30.893128691712946,-28.38528057479499 30.813089232868492,-28.503538774764937 30.731183568453023,-28.620512186140786 30.647432317779526,-28.736171361491763 30.56185656477749,-28.850487184239 30.474477852685087,-28.963430875985445 30.385318178625813,-29.074974003760705 30.294399988070808,-29.185088487178852 30.20174616918833,-29.293746605507565 30.10738004708179,-29.400921004646623 30.0113253779178,-29.506584704014188 29.91360634294563,-29.61071110333901 29.814247542409767,-29.71327398935689 29.713273989356892,-29.814247542409763 29.61071110333901,-29.91360634294563 29.506584704014188,-30.0113253779178 29.400921004646626,-30.10738004708179 29.293746605507568,-30.201746169188326 29.185088487178852,-30.2943999880708 29.074974003760705,-30.385318178625813 28.96343087598545,-30.474477852685087 28.850487184239,-30.56185656477749 28.736171361491767,-30.647432317779526 28.620512186140786,-30.73118356845302 28.503538774764937,-30.813089232868492 28.385280574794994,-30.893128691712942 28.26576735710038,-30.97128179548063 28.14502920849452,-31.04752886954563 28.02309652416066,-31.121850719114793 27.900000000000002,-31.19422863405995 27.77577062490422,-31.264644393628068 27.650439672954146,-31.33308027102824 27.524038695546693,-31.399519037894315 27.396599513451967,-31.463943968622022 27.268154208802546,-31.526338844579595 27.138735117016978,-31.586687958190666 27.008374818659522,-31.64497611688863 26.877106131238158,-31.701188646941233 26.74496210094295,-31.755311397144652 26.611975994326848,-31.807330742385965 26.478181289931015,-31.857233587073175 26.34361166985679,-31.905007368432017 26.208301011286384,-31.95064005966851 26.072283377954474,-31.994120172996666 25.93559301157287,-32.03543676253048 25.798264323210315,-32.07457942703948 25.660331884629713,-32.111538312567205 25.521830419584845,-32.14630411491188 25.382794795078865,-32.178868081968666 25.243260012586713,-32.20922201593301 25.103261199243693,-32.23735827536436 24.962833599002373,-32.263269777109876 24.822012563760147,-32.28694999808755 24.680833544459563,-32.308392976928396 24.539332082163746,-32.32759331547716 24.3975437991091,-32.34454618015129 24.255504389737645,-32.35924730315776 24.113249611711097,-32.37169298356748 23.970815276909082,-32.38188008824696 23.82823724241368,-32.389806052647074 23.685551401482606,-32.395468881448664 23.54279367451327,-32.39886714906488 23.400000000000002,-32.4 5.400000000000003,-32.4 5.257206325486732,-32.39886714906488 5.114448598517392,-32.395468881448664 4.971762757586322,-32.389806052647074 4.829184723090922,-32.38188008824696 4.686750388288908,-32.37169298356748 4.5444956102623575,-32.35924730315776 4.402456200890903,-32.34454618015129 4.260667917836259,-32.32759331547716 4.119166455540435,-32.308392976928396 3.9779874362398524,-32.28694999808755 3.837166400997629,-32.263269777109876 3.696738800756311,-32.23735827536436 3.556739987413285,-32.20922201593301 3.4172052049211357,-32.178868081968666 3.278169580415155,-32.14630411491188 3.139668115370288,-32.111538312567205 3.0017356767896866,-32.07457942703948 2.8644069884271346,-32.03543676253048 2.7277166220455267,-31.994120172996666 2.591698988713617,-31.95064005966851 2.456388330143207,-31.905007368432017 2.3218187100689813,-31.857233587073175 2.188024005673154,-31.807330742385965 2.0550378990570533,-31.755311397144652 1.9228938687618438,-31.701188646941233 1.7916251813404769,-31.644976116888625 1.6612648829830228,-31.586687958190666 1.531845791197455,-31.52633884457959 1.4034004865480327,-31.463943968622022 1.2759613044533067,-31.399519037894315 1.1495603270458563,-31.33308027102824 1.024229375095783,-31.264644393628068 0.8999999999999978,-31.194228634059947 0.776903475839345,-31.121850719114796 0.6549707915054774,-31.047528869545626 0.5342326428996208,-30.97128179548063 0.4147194252050075,-30.893128691712942 0.29646122523506413,-30.813089232868492 0.17948781385921742,-30.731183568453023 0.06382863850823417,-30.647432317779526 -0.05048718423899867,-30.56185656477749 -0.1634308759854477,-30.474477852685087 -0.2749740037607028,-30.385318178625813 -0.38508848717885447,-30.2943999880708 -0.4937466055075651,-30.201746169188326 -0.6009210046466238,-30.10738004708179 -0.7065847040141918,-30.0113253779178 -0.8107111033390065,-29.91360634294563 -0.9132739893568926,-29.814247542409763 -1.0142475424097666,-29.71327398935689 -1.113606342945632,-29.61071110333901 -1.211325377917799,-29.506584704014188 -1.3073800470817922,-29.400921004646626 -1.4017461691883266,-29.293746605507565 -1.4943999880708043,-29.185088487178852 -1.5853181786258126,-29.074974003760705 -1.6744778526850879,-28.963430875985445 -1.76185656477749,-28.850487184239 -1.847432317779528,-28.736171361491763 -1.9311835684530219,-28.620512186140786 -2.0130892328684964,-28.503538774764937 -2.093128691712944,-28.38528057479499 -2.171281795480632,-28.26576735710038 -2.2475288695456306,-28.14502920849452 -2.321850719114794,-28.02309652416066 -2.3942286340599503,-27.9 -2.4646443936280646,-27.77577062490422 -2.53308027102824,-27.650439672954143 -2.5995190378943107,-27.524038695546693 -2.663943968622024,-27.396599513451967 -2.7263388445795917,-27.268154208802546 -2.786687958190666,-27.138735117016978 -2.8449761168886285,-27.00837481865952 -2.9011886469412325,-26.877106131238158 -2.9553113971446554,-26.744962100942942 -3.007330742385962,-26.611975994326844 -3.057233587073176,-26.478181289931015 -3.1050073684320174,-26.34361166985679 -3.1506400596685094,-26.208301011286384 -3.194120172996667,-26.07228337795447 -3.2354367625304765,-25.93559301157287 -3.2745794270394795,-25.79826432321031 -3.3115383125672073,-25.66033188462971 -3.346304114911876,-25.521830419584845 -3.3788680819686645,-25.382794795078862 -3.409222015933009,-25.243260012586713 -3.4373582753643617,-25.10326119924369 -3.4632697771098724,-24.962833599002373 -3.4869499980875496,-24.822012563760143 -3.5083929769283952,-24.680833544459563 -3.527593315477158,-24.53933208216374 -3.544546180151288,-24.397543799109098 -3.5592473031577616,-24.255504389737645 -3.5716929835674818,-24.11324961171109 -3.58188008824696,-23.970815276909082 -3.589806052647072,-23.828237242413678 -3.595468881448667,-23.685551401482606 -3.598867149064876,-23.54279367451327 -3.6,-23.4 -3.6000000000000023,-5.399999999999998 -3.598867149064878,-5.257206325486727 -3.595468881448668,-5.11444859851739 -3.5898060526470736,-4.971762757586318 -3.5818800882469612,-4.829184723090916 -3.5716929835674827,-4.686750388288901 -3.5592473031577634,-4.544495610262352 -3.5445461801512894,-4.4024562008908985 -3.5275933154771604,-4.260667917836255 -3.5083929769283966,-4.119166455540432 -3.486949998087551,-3.9779874362398497 -3.4632697771098746,-3.837166400997626 -3.4373582753643617,-3.6967388007563042 -3.4092220159330098,-3.5567399874132803 -3.3788680819686654,-3.4172052049211317 -3.3463041149118773,-3.2781695804151525 -3.311538312567208,-3.1396681153702852 -3.2745794270394804,-3.0017356767896834 -3.2354367625304787,-2.864406988427132 -3.194120172996666,-2.727716622045522 -3.1506400596685102,-2.591698988713613 -3.1050073684320183,-2.456388330143202 -3.057233587073177,-2.321818710068979 -3.007330742385962,-2.1880240056731513 -2.9553113971446554,-2.0550378990570506 -2.9011886469412342,-1.9228938687618413 -2.8449761168886276,-1.7916251813404729 -2.786687958190666,-1.6612648829830183 -2.7263388445795917,-1.5318457911974526 -2.663943968622024,-1.4034004865480303 -2.5995190378943125,-1.275961304453304 -2.53308027102824,-1.1495603270458539 -2.464644393628067,-1.0242293750957805 -2.3942286340599486,-0.8999999999999958 -2.3218507191147957,-0.776903475839342 -2.2475288695456306,-0.6549707915054744 -2.171281795480632,-0.5342326428996188 -2.093128691712944,-0.4147194252050055 -2.0130892328684964,-0.29646122523506113 -1.9311835684530236,-0.17948781385921442 -1.8474323177795298,-0.06382863850823517 -1.7618565647774922,0.05048718423900067 -1.6744778526850879,0.1634308759854507 -1.5853181786258126,0.2749740037607058 -1.4943999880708034,0.38508848717885646 -1.4017461691883257,0.4937466055075681 -1.3073800470817942,0.6009210046466268 -1.211325377917801,0.7065847040141908 -1.113606342945634,0.8107111033390085 -1.0142475424097657,0.9132739893568946 -0.9132739893568916,1.0142475424097686 -0.8107111033390085,1.113606342945634 -0.7065847040141908,1.211325377917802 -0.6009210046466258,1.3073800470817942 -0.4937466055075671,1.4017461691883257 -0.38508848717885646,1.4943999880708034 -0.2749740037607018,1.5853181786258146 -0.1634308759854497,1.6744778526850879 -0.05048718423900067,1.7618565647774922 0.06382863850823517,1.8474323177795298 0.17948781385921542,1.9311835684530236 0.29646122523506213,2.0130892328684964 0.4147194252050055,2.093128691712944 0.5342326428996188,2.171281795480631 0.6549707915054754,2.2475288695456297 0.776903475839343,2.3218507191147957 0.8999999999999998,2.3942286340599495 1.024229375095781,2.464644393628067 1.1495603270458545,2.53308027102824 1.2759613044533047,2.5995190378943125 1.4034004865480343,2.663943968622026 1.531845791197453,2.7263388445795917 1.661264882983021,2.786687958190667 1.7916251813404749,2.8449761168886276 1.9228938687618418,2.9011886469412342 2.055037899057051,2.9553113971446554 2.1880240056731517,3.007330742385962 2.3218187100689796,3.057233587073177 2.456388330143205,3.1050073684320183 2.5916989887136146,3.1506400596685102 2.7277166220455245,3.194120172996666 2.864406988427133,3.2354367625304787 3.0017356767896843,3.2745794270394804 3.1396681153702857,3.3115383125672073 3.2781695804151534,3.346304114911876 3.417205204921134,3.3788680819686645 3.556739987413283,3.4092220159330098 3.6967388007563073,3.4373582753643617 3.837166400997625,3.4632697771098733 3.97798743623985,3.486949998087551 4.119166455540433,3.5083929769283966 4.260667917836256,3.5275933154771595 4.402456200890899,3.544546180151288 4.544495610262356,3.5592473031577625 4.686750388288903,3.5716929835674827 4.8291847230909175,3.5818800882469612 4.971762757586319,3.5898060526470728 5.114448598517391,3.595468881448668 5.257206325486728,3.5988671490648767 5.399999999999999,3.6000000000000014 23.4,3.6000000000000014 " style="stroke:#ff9999;fill:#ffcccc;stroke-width:2;stroke-dasharray:-;stroke-linecap:round;stroke-linejoin:round;" /><polygon points="23.4,-111.60000000000001 23.542793674513266,-111.60113285093513 23.685551401482606,-111.60453111855135 23.828237242413678,-111.61019394735294 23.97081527690908,-111.61811991175304 24.11324961171109,-111.62830701643253 24.255504389737645,-111.64075269684224 24.397543799109098,-111.65545381984872 24.53933208216374,-111.67240668452284 24.680833544459563,-111.69160702307161 24.822012563760147,-111.71305000191246 24.962833599002373,-111.73673022289015 25.10326119924369,-111.76264172463564 25.243260012586713,-111.79077798406699 25.382794795078862,-111.82113191803134 25.521830419584845,-111.85369588508813 25.66033188462971,-111.8884616874328 25.79826432321031,-111.92542057296053 25.935593011572863,-111.96456323746953 26.07228337795447,-112.00587982700334 26.20830101128638,-112.0493599403315 26.34361166985679,-112.09499263156799 26.478181289931015,-112.14276641292682 26.611975994326844,-112.19266925761404 26.744962100942942,-112.24468860285535 26.877106131238154,-112.29881135305877 27.008374818659522,-112.35502388311137 27.138735117016974,-112.41331204180935 27.268154208802542,-112.47366115542042 27.396599513451967,-112.53605603137798 27.52403869554669,-112.60048096210569 27.650439672954143,-112.66691972897176 27.775770624904215,-112.73535560637194 27.9,-112.80577136594005 28.023096524160657,-112.8781492808852 28.14502920849452,-112.95247113045438 28.265767357100376,-113.02871820451936 28.38528057479499,-113.10687130828705 28.503538774764934,-113.18691076713151 28.620512186140783,-113.26881643154698 28.736171361491763,-113.35256768222048 28.850487184238997,-113.43814343522251 28.963430875985445,-113.52552214731492 29.0749740037607,-113.61468182137418 29.18508848717885,-113.70560001192919 29.293746605507565,-113.79825383081167 29.40092100464662,-113.89261995291821 29.506584704014188,-113.98867462208221 29.610711103339007,-114.08639365705437 29.713273989356885,-114.18575245759024 29.814247542409763,-114.28672601064311 29.913606342945627,-114.389288896661 30.0113253779178,-114.49341529598581 30.10738004708179,-114.59907899535338 30.20174616918832,-114.70625339449245 30.294399988070797,-114.81491151282114 30.38531817862581,-114.9250259962393 30.474477852685087,-115.03656912401456 30.561856564777486,-115.149512815761 30.647432317779526,-115.26382863850824 30.73118356845302,-115.37948781385923 30.813089232868492,-115.49646122523507 30.89312869171294,-115.61471942520501 30.971281795480625,-115.73423264289963 31.047528869545626,-115.85497079150548 31.12185071911479,-115.97690347583935 31.194228634059947,-116.10000000000001 31.26464439362806,-116.22422937509577 31.333080271028233,-116.34956032704585 31.399519037894308,-116.47596130445332 31.46394396862202,-116.60340048654804 31.52633884457959,-116.73184579119746 31.586687958190662,-116.86126488298302 31.64497611688862,-116.99162518134048 31.70118864694123,-117.12289386876184 31.75531139714465,-117.25503789905706 31.807330742385957,-117.38802400567316 31.85723358707317,-117.52181871006898 31.905007368432017,-117.6563883301432 31.950640059668505,-117.79169898871362 31.99412017299666,-117.92771662204552 32.03543676253047,-118.06440698842714 32.074579427039474,-118.20173567678968 32.111538312567205,-118.33966811537029 32.14630411491187,-118.47816958041516 32.17886808196866,-118.61720520492115 32.20922201593301,-118.75673998741328 32.23735827536436,-118.89673880075631 32.26326977710987,-119.03716640099763 32.28694999808754,-119.17798743623985 32.30839297692839,-119.31916645554044 32.32759331547715,-119.46066791783626 32.34454618015128,-119.60245620089091 32.35924730315776,-119.74449561026236 32.37169298356748,-119.8867503882889 32.38188008824696,-120.02918472309092 32.38980605264707,-120.17176275758634 32.395468881448664,-120.31444859851739 32.39886714906487,-120.45720632548674 32.4,-120.60000000000001 32.4,-138.6 32.39886714906487,-138.74279367451325 32.395468881448664,-138.8855514014826 32.38980605264707,-139.02823724241367 32.38188008824696,-139.17081527690908 32.37169298356748,-139.3132496117111 32.35924730315776,-139.45550438973763 32.34454618015128,-139.59754379910908 32.32759331547715,-139.73933208216374 32.30839297692839,-139.88083354445953 32.28694999808754,-140.02201256376014 32.26326977710987,-140.16283359900237 32.23735827536436,-140.30326119924368 32.20922201593301,-140.4432600125867 32.17886808196866,-140.58279479507885 32.14630411491187,-140.72183041958482 32.111538312567205,-140.86033188462972 32.074579427039474,-140.99826432321032 32.03543676253047,-141.13559301157287 31.99412017299666,-141.27228337795447 31.950640059668505,-141.40830101128637 31.905007368432013,-141.54361166985677 31.85723358707317,-141.67818128993102 31.807330742385957,-141.81197599432681 31.75531139714465,-141.94496210094294 31.70118864694123,-142.07710613123814 31.64497611688862,-142.2083748186595 31.586687958190662,-142.33873511701697 31.52633884457959,-142.46815420880253 31.46394396862202,-142.59659951345196 31.399519037894308,-142.72403869554668 31.333080271028233,-142.85043967295414 31.26464439362806,-142.97577062490421 31.194228634059943,-143.1 31.12185071911479,-143.22309652416064 31.047528869545626,-143.3450292084945 30.971281795480625,-143.46576735710036 30.89312869171294,-143.58528057479498 30.813089232868492,-143.70353877476492 30.73118356845302,-143.82051218614077 30.647432317779526,-143.93617136149174 30.561856564777486,-144.050487184239 30.474477852685087,-144.16343087598545 30.38531817862581,-144.2749740037607 30.294399988070797,-144.38508848717885 30.20174616918832,-144.49374660550754 30.10738004708179,-144.60092100464664 30.011325377917796,-144.70658470401418 29.913606342945627,-144.810711103339 29.814247542409763,-144.9132739893569 29.713273989356885,-145.01424754240975 29.610711103339007,-145.11360634294562 29.506584704014188,-145.21132537791777 29.40092100464662,-145.30738004708178 29.293746605507565,-145.4017461691883 29.18508848717885,-145.4943999880708 29.0749740037607,-145.58531817862578 28.963430875985445,-145.67447785268507 28.850487184238997,-145.76185656477747 28.736171361491763,-145.84743231777952 28.620512186140783,-145.931183568453 28.503538774764934,-146.01308923286848 28.38528057479499,-146.09312869171293 28.265767357100376,-146.17128179548064 28.145029208494517,-146.24752886954562 28.023096524160657,-146.32185071911476 27.9,-146.3942286340599 27.775770624904215,-146.46464439362805 27.650439672954143,-146.53308027102824 27.52403869554669,-146.5995190378943 27.396599513451964,-146.66394396862202 27.268154208802542,-146.72633884457957 27.138735117016974,-146.78668795819067 27.008374818659522,-146.84497611688863 26.877106131238154,-146.90118864694122 26.744962100942942,-146.95531139714464 26.611975994326844,-147.00733074238593 26.478181289931015,-147.05723358707317 26.343611669856788,-147.10500736843198 26.20830101128638,-147.15064005966852 26.07228337795447,-147.19412017299666 25.935593011572863,-147.23543676253047 25.79826432321031,-147.27457942703947 25.66033188462971,-147.3115383125672 25.521830419584845,-147.34630411491187 25.382794795078862,-147.37886808196865 25.243260012586713,-147.40922201593298 25.10326119924369,-147.43735827536435 24.962833599002373,-147.46326977710987 24.822012563760143,-147.48694999808754 24.680833544459563,-147.50839297692838 24.53933208216374,-147.52759331547713 24.397543799109098,-147.5445461801513 24.255504389737638,-147.55924730315775 24.11324961171109,-147.57169298356746 23.97081527690908,-147.58188008824695 23.828237242413678,-147.58980605264705 23.685551401482606,-147.59546888144865 23.542793674513266,-147.59886714906486 23.4,-147.6 5.400000000000003,-147.6 5.257206325486732,-147.59886714906486 5.114448598517392,-147.59546888144865 4.971762757586322,-147.58980605264705 4.829184723090922,-147.58188008824695 4.686750388288908,-147.57169298356746 4.5444956102623575,-147.55924730315775 4.402456200890903,-147.5445461801513 4.260667917836259,-147.52759331547713 4.119166455540436,-147.5083929769284 3.9779874362398524,-147.48694999808754 3.837166400997629,-147.46326977710987 3.696738800756311,-147.43735827536435 3.556739987413285,-147.40922201593298 3.4172052049211357,-147.37886808196865 3.2781695804151574,-147.34630411491187 3.1396681153702897,-147.3115383125672 3.0017356767896883,-147.27457942703947 2.8644069884271346,-147.23543676253047 2.7277166220455284,-147.19412017299666 2.5916989887136186,-147.15064005966852 2.456388330143207,-147.10500736843198 2.3218187100689835,-147.05723358707317 2.1880240056731557,-147.00733074238593 2.055037899057055,-146.95531139714464 1.9228938687618438,-146.90118864694122 1.7916251813404789,-146.84497611688863 1.661264882983025,-146.78668795819067 1.531845791197457,-146.72633884457957 1.4034004865480347,-146.66394396862202 1.2759613044533087,-146.5995190378943 1.1495603270458585,-146.53308027102824 1.024229375095785,-146.46464439362805 0.8999999999999998,-146.3942286340599 0.776903475839347,-146.32185071911476 0.6549707915054794,-146.24752886954562 0.5342326428996228,-146.17128179548064 0.4147194252050095,-146.09312869171293 0.29646122523506613,-146.01308923286848 0.17948781385921941,-145.931183568453 0.06382863850823917,-145.84743231777952 -0.050487184238996674,-145.76185656477747 -0.1634308759854457,-145.67447785268507 -0.2749740037607008,-145.58531817862578 -0.38508848717885247,-145.4943999880708 -0.4937466055075631,-145.4017461691883 -0.6009210046466218,-145.30738004708178 -0.7065847040141868,-145.21132537791777 -0.8107111033390045,-145.11360634294562 -0.9132739893568906,-145.01424754240975 -1.0142475424097646,-144.9132739893569 -1.11360634294563,-144.810711103339 -1.211325377917797,-144.70658470401418 -1.3073800470817902,-144.60092100464664 -1.4017461691883217,-144.49374660550754 -1.4943999880707994,-144.38508848717885 -1.5853181786258106,-144.2749740037607 -1.6744778526850839,-144.16343087598545 -1.7618565647774882,-144.050487184239 -1.8474323177795258,-143.93617136149174 -1.9311835684530196,-143.82051218614077 -2.0130892328684924,-143.70353877476492 -2.09312869171294,-143.58528057479498 -2.171281795480628,-143.46576735710036 -2.2475288695456266,-143.3450292084945 -2.3218507191147917,-143.22309652416064 -2.394228634059947,-143.1 -2.4646443936280624,-142.97577062490421 -2.533080271028236,-142.85043967295414 -2.5995190378943085,-142.72403869554668 -2.663943968622022,-142.59659951345196 -2.7263388445795878,-142.46815420880253 -2.7866879581906643,-142.33873511701697 -2.8449761168886236,-142.2083748186595 -2.9011886469412307,-142.07710613123814 -2.9553113971446514,-141.94496210094294 -3.007330742385958,-141.81197599432681 -3.0572335870731733,-141.67818128993102 -3.1050073684320143,-141.54361166985677 -3.150640059668507,-141.40830101128637 -3.194120172996662,-141.27228337795447 -3.2354367625304743,-141.13559301157287 -3.274579427039477,-140.99826432321032 -3.3115383125672047,-140.86033188462972 -3.346304114911873,-140.72183041958482 -3.378868081968662,-140.58279479507885 -3.4092220159330067,-140.4432600125867 -3.4373582753643577,-140.30326119924368 -3.46326977710987,-140.16283359900237 -3.486949998087547,-140.02201256376014 -3.508392976928392,-139.88083354445953 -3.5275933154771564,-139.73933208216374 -3.5445461801512854,-139.59754379910908 -3.5592473031577594,-139.45550438973763 -3.5716929835674787,-139.3132496117111 -3.581880088246958,-139.17081527690908 -3.58980605264707,-139.02823724241367 -3.5954688814486637,-138.8855514014826 -3.5988671490648736,-138.74279367451325 -3.5999999999999983,-138.6 -3.6000000000000023,-120.60000000000001 -3.598867149064878,-120.45720632548674 -3.595468881448669,-120.31444859851739 -3.5898060526470736,-120.17176275758634 -3.581880088246962,-120.02918472309092 -3.5716929835674835,-119.8867503882889 -3.5592473031577634,-119.74449561026236 -3.5445461801512894,-119.60245620089091 -3.5275933154771604,-119.46066791783626 -3.5083929769283975,-119.31916645554044 -3.486949998087552,-119.17798743623986 -3.4632697771098755,-119.03716640099763 -3.4373582753643626,-118.89673880075631 -3.409222015933011,-118.75673998741328 -3.3788680819686654,-118.61720520492115 -3.346304114911878,-118.47816958041516 -3.3115383125672095,-118.33966811537029 -3.2745794270394817,-118.2017356767897 -3.2354367625304796,-118.06440698842714 -3.194120172996667,-117.92771662204552 -3.1506400596685102,-117.79169898871362 -3.1050073684320183,-117.6563883301432 -3.057233587073178,-117.52181871006898 -3.007330742385963,-117.38802400567316 -2.9553113971446563,-117.25503789905706 -2.9011886469412356,-117.12289386876184 -2.8449761168886285,-116.99162518134048 -2.786687958190667,-116.86126488298302 -2.7263388445795926,-116.73184579119746 -2.663943968622025,-116.60340048654804 -2.5995190378943134,-116.47596130445332 -2.5330802710282407,-116.34956032704585 -2.4646443936280678,-116.22422937509577 -2.3942286340599495,-116.10000000000001 -2.3218507191147966,-115.97690347583935 -2.247528869545632,-115.85497079150548 -2.171281795480633,-115.73423264289963 -2.093128691712945,-115.61471942520501 -2.0130892328684973,-115.49646122523507 -1.9311835684530247,-115.37948781385923 -1.8474323177795309,-115.26382863850824 -1.761856564777493,-115.149512815761 -1.6744778526850888,-115.03656912401456 -1.5853181786258137,-114.9250259962393 -1.4943999880708043,-114.81491151282114 -1.4017461691883275,-114.70625339449245 -1.3073800470817951,-114.59907899535338 -1.211325377917803,-114.49341529598581 -1.1136063429456349,-114.389288896661 -1.0142475424097674,-114.28672601064311 -0.9132739893568936,-114.18575245759024 -0.8107111033390105,-114.08639365705437 -0.7065847040141918,-113.98867462208221 -0.6009210046466278,-113.89261995291821 -0.4937466055075691,-113.79825383081167 -0.38508848717885746,-113.7056000119292 -0.2749740037607038,-113.61468182137418 -0.1634308759854517,-113.52552214731492 -0.05048718423900167,-113.43814343522251 0.06382863850823017,-113.35256768222048 0.17948781385921342,-113.26881643154698 0.29646122523505714,-113.18691076713151 0.4147194252050035,-113.10687130828705 0.5342326428996208,-113.02871820451936 0.6549707915054734,-112.95247113045438 0.776903475839341,-112.8781492808852 0.9000000000000012,-112.80577136594005 1.024229375095779,-112.73535560637194 1.149560327045849,-112.66691972897176 1.2759613044533027,-112.60048096210569 1.403400486548032,-112.53605603137798 1.531845791197451,-112.47366115542042 1.6612648829830203,-112.41331204180935 1.7916251813404713,-112.35502388311139 1.9228938687618398,-112.29881135305877 2.0550378990570457,-112.24468860285535 2.18802400567315,-112.19266925761404 2.321818710068981,-112.14276641292682 2.456388330143201,-112.09499263156799 2.5916989887136146,-112.0493599403315 2.7277166220455205,-112.00587982700334 2.86440698842713,-111.96456323746953 3.0017356767896786,-111.92542057296053 3.139668115370284,-111.8884616874328 3.278169580415155,-111.85369588508813 3.41720520492113,-111.82113191803134 3.556739987413283,-111.79077798406699 3.6967388007563025,-111.76264172463564 3.837166400997625,-111.73673022289015 3.9779874362398444,-111.71305000191246 4.119166455540431,-111.69160702307161 4.2606679178362565,-111.67240668452284 4.402456200890897,-111.65545381984872 4.544495610262356,-111.64075269684224 4.686750388288899,-111.62830701643253 4.8291847230909175,-111.61811991175304 4.971762757586314,-111.61019394735294 5.114448598517389,-111.60453111855135 5.257206325486729,-111.60113285093513 5.399999999999996,-111.60000000000001 23.4,-111.60000000000001 " style="stroke:#ff9999;fill:#ffcccc;stroke-width:2;stroke-dasharray:-;stroke-linecap:round;stroke-linejoin:round;" /><polygon points="138.6,-111.60000000000001 138.74279367451325,-111.60113285093513 138.8855514014826,-111.60453111855135 139.02823724241367,-111.61019394735294 139.17081527690908,-111.61811991175304 139.3132496117111,-111.62830701643253 139.45550438973763,-111.64075269684224 139.59754379910908,-111.65545381984872 139.73933208216374,-111.67240668452284 139.88083354445953,-111.69160702307161 140.02201256376014,-111.71305000191246 140.16283359900237,-111.73673022289015 140.30326119924368,-111.76264172463564 140.4432600125867,-111.79077798406699 140.58279479507885,-111.82113191803134 140.72183041958482,-111.85369588508813 140.86033188462972,-111.8884616874328 140.99826432321032,-111.92542057296053 141.13559301157287,-111.96456323746953 141.27228337795447,-112.00587982700334 141.40830101128637,-112.0493599403315 141.54361166985677,-112.09499263156799 141.67818128993102,-112.14276641292682 141.81197599432681,-112.19266925761404 141.94496210094294,-112.24468860285535 142.07710613123814,-112.29881135305877 142.2083748186595,-112.35502388311137 142.33873511701697,-112.41331204180935 142.46815420880253,-112.47366115542042 142.59659951345196,-112.53605603137798 142.72403869554668,-112.60048096210569 142.85043967295414,-112.66691972897176 142.97577062490421,-112.73535560637194 143.1,-112.80577136594005 143.22309652416064,-112.8781492808852 143.3450292084945,-112.95247113045438 143.46576735710036,-113.02871820451936 143.58528057479498,-113.10687130828705 143.70353877476492,-113.18691076713151 143.82051218614077,-113.26881643154698 143.93617136149174,-113.35256768222048 144.050487184239,-113.43814343522251 144.16343087598545,-113.52552214731492 144.2749740037607,-113.61468182137418 144.38508848717885,-113.70560001192919 144.49374660550754,-113.79825383081167 144.60092100464664,-113.89261995291821 144.70658470401418,-113.98867462208221 144.810711103339,-114.08639365705437 144.9132739893569,-114.18575245759024 145.01424754240975,-114.28672601064311 145.11360634294562,-114.389288896661 145.21132537791777,-114.49341529598581 145.30738004708178,-114.59907899535338 145.4017461691883,-114.70625339449245 145.4943999880708,-114.81491151282114 145.58531817862578,-114.9250259962393 145.67447785268507,-115.03656912401456 145.76185656477747,-115.149512815761 145.84743231777952,-115.26382863850824 145.931183568453,-115.37948781385923 146.01308923286848,-115.49646122523507 146.09312869171293,-115.61471942520501 146.17128179548064,-115.73423264289963 146.24752886954562,-115.85497079150548 146.32185071911476,-115.97690347583935 146.3942286340599,-116.10000000000001 146.46464439362805,-116.22422937509577 146.53308027102824,-116.34956032704585 146.5995190378943,-116.47596130445332 146.66394396862202,-116.60340048654804 146.72633884457957,-116.73184579119746 146.78668795819067,-116.86126488298302 146.84497611688863,-116.99162518134048 146.90118864694122,-117.12289386876184 146.95531139714464,-117.25503789905706 147.00733074238593,-117.38802400567316 147.05723358707317,-117.52181871006898 147.10500736843198,-117.6563883301432 147.15064005966852,-117.79169898871362 147.19412017299666,-117.92771662204552 147.23543676253047,-118.06440698842714 147.27457942703947,-118.20173567678968 147.3115383125672,-118.33966811537029 147.34630411491187,-118.47816958041516 147.37886808196865,-118.61720520492115 147.40922201593298,-118.75673998741328 147.43735827536435,-118.89673880075631 147.46326977710987,-119.03716640099763 147.48694999808754,-119.17798743623985 147.5083929769284,-119.31916645554044 147.52759331547713,-119.46066791783626 147.5445461801513,-119.60245620089091 147.55924730315775,-119.74449561026236 147.57169298356746,-119.8867503882889 147.58188008824695,-120.02918472309092 147.58980605264705,-120.17176275758634 147.59546888144865,-120.31444859851739 147.59886714906486,-120.45720632548674 147.6,-120.60000000000001 147.6,-138.6 147.59886714906486,-138.74279367451325 147.59546888144865,-138.8855514014826 147.58980605264705,-139.02823724241367 147.58188008824695,-139.17081527690908 147.57169298356746,-139.3132496117111 147.55924730315775,-139.45550438973763 147.5445461801513,-139.59754379910908 147.52759331547713,-139.73933208216374 147.50839297692838,-139.88083354445953 147.48694999808754,-140.02201256376014 147.46326977710987,-140.16283359900237 147.43735827536435,-140.30326119924368 147.40922201593298,-140.4432600125867 147.37886808196865,-140.58279479507885 147.34630411491187,-140.72183041958482 147.3115383125672,-140.86033188462972 147.27457942703947,-140.99826432321032 147.23543676253047,-141.13559301157287 147.19412017299666,-141.27228337795447 147.15064005966852,-141.40830101128637 147.10500736843198,-141.54361166985677 147.05723358707317,-141.67818128993102 147.00733074238593,-141.81197599432681 146.95531139714464,-141.94496210094294 146.90118864694122,-142.07710613123814 146.84497611688863,-142.2083748186595 146.78668795819067,-142.33873511701697 146.72633884457957,-142.46815420880253 146.66394396862202,-142.59659951345196 146.5995190378943,-142.72403869554668 146.53308027102824,-142.85043967295414 146.46464439362805,-142.97577062490421 146.3942286340599,-143.1 146.32185071911476,-143.22309652416064 146.24752886954562,-143.3450292084945 146.17128179548064,-143.46576735710036 146.0931286917129,-143.58528057479498 146.01308923286848,-143.70353877476492 145.931183568453,-143.82051218614077 145.84743231777952,-143.93617136149174 145.76185656477747,-144.050487184239 145.67447785268507,-144.16343087598545 145.58531817862578,-144.2749740037607 145.4943999880708,-144.38508848717885 145.4017461691883,-144.49374660550754 145.30738004708178,-144.60092100464664 145.21132537791777,-144.70658470401418 145.11360634294562,-144.810711103339 145.01424754240975,-144.9132739893569 144.9132739893569,-145.01424754240975 144.810711103339,-145.11360634294562 144.70658470401418,-145.21132537791777 144.60092100464664,-145.30738004708178 144.49374660550754,-145.4017461691883 144.38508848717885,-145.4943999880708 144.2749740037607,-145.58531817862578 144.16343087598545,-145.67447785268507 144.050487184239,-145.76185656477747 143.93617136149174,-145.84743231777952 143.82051218614077,-145.931183568453 143.70353877476492,-146.01308923286848 143.58528057479498,-146.09312869171293 143.46576735710036,-146.17128179548064 143.3450292084945,-146.24752886954562 143.22309652416064,-146.32185071911476 143.1,-146.3942286340599 142.97577062490421,-146.46464439362805 142.85043967295414,-146.53308027102824 142.72403869554668,-146.5995190378943 142.59659951345196,-146.66394396862202 142.46815420880253,-146.72633884457957 142.33873511701697,-146.78668795819067 142.2083748186595,-146.84497611688863 142.07710613123814,-146.90118864694122 141.94496210094294,-146.95531139714464 141.81197599432681,-147.00733074238593 141.67818128993102,-147.05723358707317 141.54361166985677,-147.10500736843198 141.40830101128637,-147.15064005966852 141.27228337795447,-147.19412017299666 141.13559301157287,-147.23543676253047 140.99826432321032,-147.27457942703947 140.86033188462972,-147.3115383125672 140.72183041958482,-147.34630411491187 140.58279479507885,-147.37886808196865 140.4432600125867,-147.40922201593298 140.30326119924368,-147.43735827536435 140.16283359900237,-147.46326977710987 140.02201256376014,-147.48694999808754 139.88083354445953,-147.50839297692838 139.73933208216374,-147.52759331547713 139.59754379910908,-147.5445461801513 139.45550438973763,-147.55924730315775 139.3132496117111,-147.57169298356746 139.17081527690908,-147.58188008824695 139.02823724241367,-147.58980605264705 138.8855514014826,-147.59546888144865 138.74279367451325,-147.59886714906486 138.6,-147.6 120.60000000000001,-147.6 120.45720632548674,-147.59886714906486 120.31444859851739,-147.59546888144865 120.17176275758632,-147.58980605264705 120.02918472309092,-147.58188008824695 119.8867503882889,-147.57169298356746 119.74449561026236,-147.55924730315775 119.60245620089091,-147.5445461801513 119.46066791783626,-147.52759331547713 119.31916645554044,-147.5083929769284 119.17798743623985,-147.48694999808754 119.03716640099763,-147.46326977710987 118.89673880075631,-147.43735827536435 118.75673998741328,-147.40922201593298 118.61720520492115,-147.37886808196865 118.47816958041516,-147.34630411491187 118.33966811537029,-147.3115383125672 118.2017356767897,-147.27457942703947 118.06440698842714,-147.23543676253047 117.92771662204552,-147.19412017299666 117.79169898871362,-147.15064005966852 117.6563883301432,-147.10500736843198 117.52181871006898,-147.05723358707317 117.38802400567316,-147.00733074238593 117.25503789905706,-146.95531139714464 117.12289386876184,-146.90118864694122 116.99162518134048,-146.84497611688863 116.86126488298302,-146.78668795819067 116.73184579119746,-146.72633884457957 116.60340048654804,-146.66394396862202 116.47596130445332,-146.5995190378943 116.34956032704585,-146.53308027102824 116.22422937509577,-146.46464439362805 116.10000000000001,-146.3942286340599 115.97690347583935,-146.32185071911476 115.85497079150548,-146.24752886954562 115.73423264289963,-146.17128179548064 115.61471942520501,-146.09312869171293 115.49646122523507,-146.01308923286848 115.37948781385923,-145.931183568453 115.26382863850824,-145.84743231777952 115.149512815761,-145.76185656477747 115.03656912401456,-145.67447785268507 114.9250259962393,-145.58531817862578 114.81491151282114,-145.4943999880708 114.70625339449245,-145.4017461691883 114.59907899535338,-145.30738004708178 114.49341529598581,-145.21132537791777 114.389288896661,-145.11360634294562 114.28672601064311,-145.01424754240975 114.18575245759024,-144.9132739893569 114.08639365705437,-144.810711103339 113.98867462208221,-144.70658470401418 113.89261995291821,-144.60092100464664 113.79825383081167,-144.49374660550754 113.7056000119292,-144.38508848717885 113.61468182137418,-144.2749740037607 113.52552214731492,-144.16343087598545 113.43814343522251,-144.050487184239 113.35256768222048,-143.93617136149174 113.26881643154698,-143.82051218614077 113.18691076713151,-143.70353877476492 113.10687130828705,-143.58528057479498 113.02871820451936,-143.46576735710036 112.95247113045438,-143.3450292084945 112.8781492808852,-143.22309652416064 112.80577136594005,-143.1 112.73535560637194,-142.97577062490421 112.66691972897176,-142.85043967295414 112.60048096210569,-142.72403869554668 112.53605603137798,-142.59659951345196 112.47366115542042,-142.46815420880253 112.41331204180935,-142.33873511701697 112.35502388311139,-142.2083748186595 112.29881135305877,-142.07710613123814 112.24468860285535,-141.94496210094294 112.19266925761404,-141.81197599432681 112.14276641292682,-141.67818128993102 112.09499263156799,-141.54361166985677 112.0493599403315,-141.40830101128637 112.00587982700334,-141.27228337795447 111.96456323746953,-141.13559301157287 111.92542057296053,-140.99826432321032 111.8884616874328,-140.86033188462972 111.85369588508813,-140.72183041958482 111.82113191803134,-140.58279479507885 111.79077798406699,-140.4432600125867 111.76264172463564,-140.30326119924368 111.73673022289015,-140.16283359900237 111.71305000191246,-140.02201256376014 111.69160702307161,-139.88083354445953 111.67240668452284,-139.73933208216374 111.65545381984872,-139.59754379910908 111.64075269684224,-139.45550438973763 111.62830701643253,-139.3132496117111 111.61811991175304,-139.17081527690908 111.61019394735294,-139.02823724241367 111.60453111855135,-138.8855514014826 111.60113285093513,-138.74279367451325 111.60000000000001,-138.6 111.60000000000001,-120.60000000000001 111.60113285093513,-120.45720632548674 111.60453111855134,-120.31444859851739 111.61019394735294,-120.17176275758634 111.61811991175304,-120.02918472309092 111.62830701643253,-119.8867503882889 111.64075269684224,-119.74449561026236 111.65545381984872,-119.60245620089091 111.67240668452284,-119.46066791783626 111.69160702307161,-119.31916645554044 111.71305000191246,-119.17798743623986 111.73673022289015,-119.03716640099763 111.76264172463564,-118.89673880075631 111.79077798406699,-118.75673998741328 111.82113191803134,-118.61720520492115 111.85369588508813,-118.47816958041516 111.8884616874328,-118.33966811537029 111.92542057296053,-118.2017356767897 111.96456323746953,-118.06440698842714 112.00587982700334,-117.92771662204552 112.0493599403315,-117.79169898871362 112.09499263156799,-117.6563883301432 112.14276641292682,-117.52181871006898 112.19266925761404,-117.38802400567316 112.24468860285535,-117.25503789905706 112.29881135305877,-117.12289386876184 112.35502388311137,-116.99162518134048 112.41331204180935,-116.86126488298302 112.47366115542042,-116.73184579119746 112.53605603137798,-116.60340048654804 112.60048096210569,-116.47596130445332 112.66691972897176,-116.34956032704585 112.73535560637194,-116.22422937509577 112.80577136594005,-116.10000000000001 112.8781492808852,-115.97690347583935 112.95247113045438,-115.85497079150548 113.02871820451936,-115.73423264289963 113.10687130828705,-115.61471942520501 113.18691076713151,-115.49646122523507 113.26881643154698,-115.37948781385923 113.35256768222048,-115.26382863850824 113.4381434352225,-115.149512815761 113.52552214731492,-115.03656912401456 113.61468182137418,-114.9250259962393 113.70560001192919,-114.81491151282114 113.79825383081167,-114.70625339449245 113.89261995291821,-114.59907899535338 113.98867462208221,-114.49341529598581 114.08639365705437,-114.389288896661 114.18575245759024,-114.28672601064311 114.28672601064311,-114.18575245759024 114.389288896661,-114.08639365705437 114.49341529598581,-113.98867462208221 114.59907899535338,-113.89261995291821 114.70625339449242,-113.79825383081167 114.81491151282114,-113.7056000119292 114.9250259962393,-113.61468182137418 115.03656912401456,-113.52552214731492 115.149512815761,-113.43814343522251 115.26382863850823,-113.35256768222048 115.37948781385923,-113.26881643154698 115.49646122523505,-113.18691076713151 115.61471942520501,-113.10687130828705 115.73423264289963,-113.02871820451936 115.85497079150548,-112.95247113045438 115.97690347583935,-112.8781492808852 116.10000000000001,-112.80577136594005 116.22422937509577,-112.73535560637194 116.34956032704585,-112.66691972897176 116.4759613044533,-112.60048096210569 116.60340048654804,-112.53605603137798 116.73184579119746,-112.47366115542042 116.86126488298302,-112.41331204180935 116.99162518134048,-112.35502388311139 117.12289386876184,-112.29881135305877 117.25503789905706,-112.24468860285535 117.38802400567316,-112.19266925761404 117.52181871006898,-112.14276641292682 117.6563883301432,-112.09499263156799 117.79169898871362,-112.0493599403315 117.92771662204552,-112.00587982700334 118.06440698842714,-111.96456323746953 118.20173567678968,-111.92542057296053 118.33966811537029,-111.8884616874328 118.47816958041516,-111.85369588508813 118.61720520492113,-111.82113191803134 118.75673998741328,-111.79077798406699 118.89673880075631,-111.76264172463564 119.03716640099763,-111.73673022289015 119.17798743623985,-111.71305000191246 119.31916645554044,-111.69160702307161 119.46066791783626,-111.67240668452284 119.60245620089091,-111.65545381984872 119.74449561026236,-111.64075269684224 119.8867503882889,-111.62830701643253 120.02918472309092,-111.61811991175304 120.17176275758632,-111.61019394735294 120.31444859851739,-111.60453111855135 120.45720632548674,-111.60113285093513 120.60000000000001,-111.60000000000001 138.6,-111.60000000000001 " style="stroke:#ff9999;fill:#ffcccc;stroke-width:2;stroke-dasharray:-;stroke-linecap:round;stroke-linejoin:round;" /><text x="0.0" y="-175.09188309203677" dominant-baseline="ideographic" fill="#333" font-size="12" font-family="sans" text-anchor="end"><tspan x="0.0" dy="12">CD</tspan></text><text x="-19.09188309203678" y="-156.0" dominant-baseline="ideographic" fill="#333" font-size="12" font-family="sans" text-anchor="end"><tspan x="-19.09188309203678" dy="12">AB</tspan></text><text x="18.0" y="-155.79999999999998" dominant-baseline="ideographic" fill="#333" font-size="10" font-family="sans" text-anchor="middle"><tspan x="18.0" dy="10">00</tspan></text><text x="54.0" y="-155.79999999999998" dominant-baseline="ideographic" fill="#333" font-size="10" font-family="sans" text-anchor="middle"><tspan x="54.0" dy="10">01</tspan></text><text x="126.0" y="-155.79999999999998" dominant-baseline="ideographic" fill="#333" font-size="10" font-family="sans" text-anchor="middle"><tspan x="126.0" dy="10">10</tspan></text><text x="90.0" y="-155.79999999999998" dominant-baseline="ideographic" fill="#333" font-size="10" font-family="sans" text-anchor="middle"><tspan x="90.0" dy="10">11</tspan></text><text x="-3.6" y="-136.0" dominant-baseline="central" fill="#333" font-size="10" font-family="sans" text-anchor="end"><tspan x="-3.6" dy="10">00</tspan></text><text x="-3.6" y="-100.0" dominant-baseline="central" fill="#333" font-size="10" font-family="sans" text-anchor="end"><tspan x="-3.6" dy="10">01</tspan></text><text x="-3.6" y="-28.0" dominant-baseline="central" fill="#333" font-size="10" font-family="sans" text-anchor="end"><tspan x="-3.6" dy="10">10</tspan></text><text x="-3.6" y="-64.0" dominant-baseline="central" fill="#333" font-size="10" font-family="sans" text-anchor="end"><tspan x="-3.6" dy="10">11</tspan></text><text x="18.0" y="-138.0" dominant-baseline="central" fill="#333" font-size="12" font-family="sans" text-anchor="middle"><tspan x="18.0" dy="12">1</tspan></text><text x="18.0" y="-102.0" dominant-baseline="central" fill="#333" font-size="12" font-family="sans" text-anchor="middle"><tspan x="18.0" dy="12">0</tspan></text><text x="18.0" y="-30.0" dominant-baseline="central" fill="#333" font-size="12" font-family="sans" text-anchor="middle"><tspan x="18.0" dy="12">1</tspan></text><text x="18.0" y="-66.0" dominant-baseline="central" fill="#333" font-size="12" font-family="sans" text-anchor="middle"><tspan x="18.0" dy="12">0</tspan></text><text x="54.0" y="-138.0" dominant-baseline="central" fill="#333" font-size="12" font-family="sans" text-anchor="middle"><tspan x="54.0" dy="12">0</tspan></text><text x="54.0" y="-102.0" dominant-baseline="central" fill="#333" font-size="12" font-family="sans" text-anchor="middle"><tspan x="54.0" dy="12">0</tspan></text><text x="54.0" y="-30.0" dominant-baseline="central" fill="#333" font-size="12" font-family="sans" text-anchor="middle"><tspan x="54.0" dy="12">0</tspan></text><text x="54.0" y="-66.0" dominant-baseline="central" fill="#333" font-size="12" font-family="sans" text-anchor="middle"><tspan x="54.0" dy="12">0</tspan></text><text x="126.0" y="-138.0" dominant-baseline="central" fill="#333" font-size="12" font-family="sans" text-anchor="middle"><tspan x="126.0" dy="12">1</tspan></text><text x="126.0" y="-102.0" dominant-baseline="central" fill="#333" font-size="12" font-family="sans" text-anchor="middle"><tspan x="126.0" dy="12">0</tspan></text><text x="126.0" y="-30.0" dominant-baseline="central" fill="#333" font-size="12" font-family="sans" text-anchor="middle"><tspan x="126.0" dy="12">1</tspan></text><text x="126.0" y="-66.0" dominant-baseline="central" fill="#333" font-size="12" font-family="sans" text-anchor="middle"><tspan x="126.0" dy="12">0</tspan></text><text x="90.0" y="-138.0" dominant-baseline="central" fill="#333" font-size="12" font-family="sans" text-anchor="middle"><tspan x="90.0" dy="12">0</tspan></text><text x="90.0" y="-102.0" dominant-baseline="central" fill="#333" font-size="12" font-family="sans" text-anchor="middle"><tspan x="90.0" dy="12">0</tspan></text><text x="90.0" y="-30.0" dominant-baseline="central" fill="#333" font-size="12" font-family="sans" text-anchor="middle"><tspan x="90.0" dy="12">0</tspan></text><text x="90.0" y="-66.0" dominant-baseline="central" fill="#333" font-size="12" font-family="sans" text-anchor="middle"><tspan x="90.0" dy="12">0</tspan></text></svg>