<svg class="kmap-graph" xmlns="http://www.w3.org/2000/svg" xmlns:xlink="http://www.w3.org/1999/xlink" xml:lang="en" height="112.29188309203678pt" width="180.35588309203678pt" viewBox="-31.75588309203678 -107.69188309203679 180.35588309203678 112.29188309203678"><path d="M 0.0,-0.0 L 144.0,-0.0 L 144.0,-72.0 L 0.0,-72.0 L 0.0,-0.0" style="stroke:black;fill:none;stroke-width:1.25;stroke-dasharray:-;stroke-linecap:round;stroke-linejoin:round;" /><path d="M 0.0,-0.0 L 144.0,-0.0" style="stroke:black;fill:none;stroke-width:1.25;stroke-dasharray:-;stroke-linecap:round;stroke-linejoin:round;" /><path d="M 0.0,-36.0 L 144.0,-36.0" style="stroke:black;fill:none;stroke-width:1.25;stroke-dasharray:-;stroke-linecap:round;stroke-linejoin:round;" /><path d="M 0.0,-0.0 L 0.0,-72.0" style="stroke:black;fill:none;stroke-width:1.25;stroke-dasharray:-;stroke-linecap:round;stroke-linejoin:round;" /><path d="M 36.0,-0.0 L 36.0,-72.0" style="stroke:black;fill:none;stroke-width:1.25;stroke-dasharray:-;stroke-linecap:round;stroke-linejoin:round;" /><path d="M 72.0,-0.0 L 72.0,-72.0" style="stroke:black;fill:none;stroke-width:1.25;stroke-dasharray:-;stroke-linecap:round;stroke-linejoin:round;" /><path d="M 108.0,-0.0 L 108.0,-72.0" style="stroke:black;fill:none;stroke-width:1.25;stroke-dasharray:-;stroke-linecap:round;stroke-linejoin:round;" /><path d="M 0.0,-72.0 L -25.45584412271571,-97.4558441227157" style="stroke:black;fill:none;stroke-width:1.25;stroke-dasharray:-;stroke-linecap:round;stroke-linejoin:round;" /><polygon points="131.4,-3.599999999999995 131.54279367451326,-3.6011328509351195 131.6855514014826,-3.6045311185513293 131.82823724241368,-3.6101939473529234 131.97081527690906,-3.6181199117530354 132.1132496117111,-3.628307016432515 132.25550438973764,-3.6407526968422337 132.3975437991091,-3.655453819848708 132.53933208216375,-3.672406684522837 132.68083354445957,-3.691607023071601 132.82201256376015,-3.7130500019124466 132.96283359900238,-3.736730222890123 133.1032611992437,-3.762641724635635 133.24326001258672,-3.7907779840669864 133.38279479507887,-3.8211319180313317 133.52183041958483,-3.85369588508812 133.66033188462973,-3.888461687432789 133.79826432321033,-3.9254205729605167 133.93559301157288,-3.9645632374695188 134.07228337795448,-4.005879827003332 134.20830101128638,-4.049359940331487 134.34361166985678,-4.094992631567979 134.47818128993103,-4.142766412926821 134.61197599432683,-4.192669257614035 134.74496210094296,-4.2446886028553426 134.87710613123815,-4.298811353058764 135.00837481865952,-4.35502388311137 135.13873511701698,-4.4133120418093315 135.26815420880254,-4.473661155420404 135.39659951345195,-4.5360560313779725 135.5240386955467,-4.600480962105685 135.65043967295415,-4.666919728971758 135.77577062490423,-4.735355606371932 135.9,-4.805771365940049 136.02309652416065,-4.878149280885204 136.14502920849452,-4.9524711304543665 136.26576735710037,-5.028718204519366 136.385280574795,-5.1068713082870545 136.50353877476493,-5.1869107671315025 136.6205121861408,-5.268816431546975 136.73617136149176,-5.352567682220469 136.850487184239,-5.438143435222507 136.96343087598544,-5.525522147314909 137.0749740037607,-5.614681821374186 137.18508848717886,-5.705600011929195 137.29374660550758,-5.798253830811673 137.40092100464662,-5.8926199529182055 137.5065847040142,-5.988674622082199 137.610711103339,-6.086393657054366 137.7132739893569,-6.185752457590231 137.81424754240976,-6.286726010643107 137.91360634294563,-6.3892888966609895 138.0113253779178,-6.493415295985809 138.1073800470818,-6.5990789953533735 138.2017461691883,-6.706253394492432 138.2943999880708,-6.814911512821145 138.38531817862582,-6.925025996239295 138.47447785268508,-7.036569124014552 138.5618565647775,-7.149512815760998 138.64743231777953,-7.263828638508235 138.73118356845302,-7.379487813859216 138.8130892328685,-7.496461225235062 138.89312869171295,-7.614719425205007 138.97128179548062,-7.73423264289962 139.04752886954563,-7.854970791505477 139.1218507191148,-7.976903475839341 139.19422863405995,-8.1 139.26464439362806,-8.224229375095781 139.33308027102822,-8.349560327045856 139.3995190378943,-8.475961304453305 139.463943968622,-8.603400486548033 139.52633884457958,-8.731845791197456 139.58668795819065,-8.861264882983022 139.64497611688864,-8.991625181340478 139.70118864694123,-9.122893868761842 139.75531139714465,-9.255037899057053 139.80733074238594,-9.388024005673152 139.85723358707318,-9.521818710068981 139.905007368432,-9.656388330143205 139.9506400596685,-9.791698988713616 139.99412017299667,-9.927716622045526 140.03543676253048,-10.064406988427134 140.07457942703948,-10.201735676789685 140.1115383125672,-10.339668115370289 140.14630411491189,-10.478169580415157 140.17886808196866,-10.617205204921135 140.209222015933,-10.756739987413287 140.23735827536436,-10.89673880075631 140.26326977710985,-11.037166400997629 140.28694999808755,-11.177987436239851 140.3083929769284,-11.319166455540437 140.32759331547717,-11.460667917836258 140.34454618015127,-11.602456200890902 140.35924730315776,-11.744495610262359 140.37169298356747,-11.886750388288906 140.38188008824696,-12.029184723090921 140.38980605264706,-12.17176275758632 140.39546888144866,-12.314448598517393 140.39886714906487,-12.457206325486732 140.4,-12.600000000000001 140.4,-23.4 140.39886714906487,-23.542793674513266 140.39546888144866,-23.685551401482606 140.38980605264706,-23.828237242413678 140.38188008824696,-23.97081527690908 140.37169298356747,-24.11324961171109 140.35924730315776,-24.255504389737638 140.34454618015127,-24.397543799109098 140.32759331547717,-24.53933208216374 140.3083929769284,-24.680833544459563 140.28694999808755,-24.822012563760143 140.26326977710985,-24.962833599002373 140.23735827536436,-25.10326119924369 140.209222015933,-25.243260012586713 140.17886808196866,-25.382794795078862 140.14630411491189,-25.521830419584845 140.1115383125672,-25.66033188462971 140.07457942703948,-25.79826432321031 140.03543676253048,-25.935593011572863 139.99412017299667,-26.07228337795447 139.9506400596685,-26.20830101128638 139.905007368432,-26.34361166985679 139.85723358707318,-26.478181289931015 139.80733074238594,-26.611975994326844 139.75531139714465,-26.744962100942942 139.70118864694123,-26.877106131238154 139.64497611688864,-27.008374818659522 139.58668795819065,-27.138735117016974 139.52633884457958,-27.268154208802542 139.463943968622,-27.396599513451964 139.3995190378943,-27.52403869554669 139.33308027102822,-27.650439672954143 139.26464439362806,-27.775770624904215 139.19422863405995,-27.9 139.1218507191148,-28.02309652416065 139.04752886954563,-28.145029208494517 138.97128179548062,-28.265767357100376 138.89312869171295,-28.38528057479499 138.8130892328685,-28.503538774764934 138.73118356845302,-28.620512186140783 138.64743231777953,-28.736171361491763 138.5618565647775,-28.850487184238997 138.47447785268508,-28.96343087598544 138.38531817862582,-29.0749740037607 138.2943999880708,-29.18508848717885 138.2017461691883,-29.293746605507565 138.1073800470818,-29.40092100464662 138.01132537791779,-29.506584704014188 137.91360634294563,-29.610711103339007 137.81424754240976,-29.713273989356885 137.7132739893569,-29.814247542409763 137.610711103339,-29.913606342945627 137.5065847040142,-30.0113253779178 137.40092100464662,-30.107380047081787 137.29374660550755,-30.20174616918832 137.18508848717886,-30.294399988070797 137.0749740037607,-30.38531817862581 136.96343087598544,-30.474477852685087 136.850487184239,-30.561856564777486 136.73617136149176,-30.647432317779526 136.6205121861408,-30.73118356845302 136.50353877476493,-30.81308923286849 136.385280574795,-30.89312869171294 136.26576735710037,-30.971281795480625 136.14502920849452,-31.047528869545626 136.02309652416065,-31.12185071911479 135.9,-31.194228634059947 135.77577062490423,-31.26464439362806 135.65043967295415,-31.333080271028233 135.5240386955467,-31.399519037894308 135.39659951345195,-31.46394396862202 135.26815420880254,-31.52633884457959 135.13873511701698,-31.586687958190662 135.00837481865952,-31.64497611688862 134.87710613123815,-31.70118864694123 134.74496210094296,-31.75531139714465 134.61197599432683,-31.807330742385957 134.47818128993103,-31.85723358707317 134.34361166985678,-31.905007368432013 134.20830101128638,-31.950640059668505 134.07228337795448,-31.99412017299666 133.93559301157288,-32.03543676253047 133.79826432321033,-32.074579427039474 133.66033188462973,-32.111538312567205 133.52183041958483,-32.14630411491187 133.38279479507887,-32.17886808196866 133.24326001258672,-32.20922201593301 133.1032611992437,-32.23735827536436 132.96283359900238,-32.26326977710987 132.82201256376015,-32.28694999808754 132.68083354445955,-32.30839297692839 132.53933208216375,-32.32759331547715 132.3975437991091,-32.34454618015128 132.25550438973764,-32.35924730315776 132.1132496117111,-32.37169298356748 131.97081527690906,-32.38188008824696 131.82823724241368,-32.38980605264707 131.6855514014826,-32.395468881448664 131.54279367451326,-32.39886714906487 131.4,-32.4 12.600000000000003,-32.4 12.457206325486734,-32.39886714906488 12.314448598517393,-32.395468881448664 12.171762757586322,-32.389806052647074 12.029184723090923,-32.38188008824696 11.886750388288906,-32.37169298356748 11.744495610262359,-32.35924730315776 11.602456200890904,-32.34454618015129 11.46066791783626,-32.32759331547716 11.319166455540437,-32.308392976928396 11.177987436239853,-32.28694999808755 11.03716640099763,-32.263269777109876 10.89673880075631,-32.23735827536436 10.756739987413287,-32.20922201593301 10.617205204921138,-32.178868081968666 10.478169580415159,-32.14630411491188 10.339668115370289,-32.111538312567205 10.201735676789687,-32.07457942703948 10.064406988427136,-32.03543676253048 9.927716622045528,-31.994120172996666 9.791698988713618,-31.95064005966851 9.656388330143207,-31.905007368432017 9.521818710068985,-31.857233587073175 9.388024005673156,-31.807330742385965 9.255037899057054,-31.755311397144652 9.122893868761842,-31.701188646941233 8.991625181340478,-31.64497611688863 8.861264882983024,-31.586687958190666 8.731845791197458,-31.526338844579595 8.603400486548036,-31.463943968622026 8.475961304453305,-31.399519037894315 8.349560327045856,-31.33308027102824 8.224229375095783,-31.264644393628068 8.100000000000001,-31.19422863405995 7.976903475839345,-31.121850719114796 7.85497079150548,-31.04752886954563 7.734232642899624,-30.971281795480635 7.614719425205007,-30.893128691712942 7.4964612252350635,-30.813089232868492 7.379487813859217,-30.731183568453023 7.263828638508237,-30.64743231777953 7.149512815761001,-30.56185656477749 7.036569124014555,-30.47447785268509 6.9250259962393,-30.385318178625816 6.814911512821145,-30.2943999880708 6.7062533944924345,-30.201746169188326 6.599078995353375,-30.10738004708179 6.493415295985811,-30.011325377917803 6.389288896660993,-29.91360634294563 6.286726010643109,-29.814247542409767 6.185752457590236,-29.713273989356892 6.0863936570543675,-29.61071110333901 5.9886746220822005,-29.506584704014188 5.892619952918207,-29.400921004646626 5.798253830811676,-29.293746605507568 5.705600011929198,-29.185088487178852 5.614681821374189,-29.07497400376071 5.525522147314914,-28.96343087598545 5.438143435222509,-28.850487184239 5.352567682220472,-28.736171361491763 5.268816431546978,-28.620512186140786 5.186910767131505,-28.503538774764937 5.106871308287058,-28.385280574794994 5.028718204519369,-28.26576735710038 4.952471130454371,-28.145029208494527 4.878149280885205,-28.02309652416066 4.805771365940051,-27.900000000000002 4.735355606371935,-27.77577062490422 4.666919728971761,-27.650439672954146 4.600480962105689,-27.524038695546693 4.536056031377975,-27.396599513451967 4.47366115542041,-27.26815420880255 4.413312041809333,-27.138735117016978 4.355023883111373,-27.008374818659522 4.298811353058767,-26.877106131238158 4.244688602855346,-26.74496210094295 4.192669257614039,-26.611975994326848 4.142766412926823,-26.478181289931015 4.094992631567983,-26.3436116698568 4.04935994033149,-26.208301011286384 4.0058798270033344,-26.072283377954474 3.9645632374695228,-25.93559301157287 3.9254205729605207,-25.798264323210315 3.888461687432793,-25.660331884629713 3.8536958850881233,-25.521830419584845 3.8211319180313357,-25.382794795078865 3.7907779840669904,-25.243260012586713 3.762641724635639,-25.103261199243693 3.736730222890127,-24.962833599002373 3.7130500019124506,-24.822012563760147 3.691607023071605,-24.680833544459567 3.672406684522841,-24.53933208216374 3.655453819848712,-24.3975437991091 3.640752696842238,-24.255504389737645 3.628307016432518,-24.113249611711097 3.6181199117530394,-23.970815276909082 3.6101939473529274,-23.82823724241368 3.6045311185513333,-23.685551401482613 3.6011328509351235,-23.54279367451327 3.599999999999999,-23.400000000000002 3.599999999999999,-12.599999999999998 3.6011328509351235,-12.457206325486727 3.6045311185513333,-12.31444859851739 3.6101939473529274,-12.171762757586318 3.6181199117530394,-12.02918472309092 3.628307016432519,-11.886750388288899 3.640752696842238,-11.744495610262353 3.655453819848712,-11.602456200890899 3.672406684522841,-11.460667917836256 3.691607023071605,-11.319166455540431 3.7130500019124506,-11.17798743623985 3.736730222890127,-11.037166400997627 3.76264172463564,-10.896738800756305 3.7907779840669917,-10.75673998741328 3.8211319180313357,-10.617205204921131 3.853695885088124,-10.478169580415152 3.888461687432793,-10.339668115370285 3.9254205729605207,-10.201735676789683 3.9645632374695228,-10.064406988427132 4.0058798270033344,-9.927716622045526 4.04935994033149,-9.791698988713616 4.094992631567983,-9.656388330143203 4.142766412926824,-9.52181871006898 4.192669257614039,-9.38802400567315 4.244688602855346,-9.25503789905705 4.298811353058767,-9.12289386876184 4.355023883111373,-8.991625181340476 4.413312041809333,-8.861264882983022 4.47366115542041,-8.731845791197454 4.536056031377978,-8.603400486548031 4.600480962105689,-8.475961304453305 4.666919728971761,-8.349560327045854 4.735355606371935,-8.224229375095781 4.805771365940051,-8.1 4.878149280885205,-7.976903475839342 4.952471130454371,-7.854970791505475 5.028718204519367,-7.734232642899622 5.106871308287058,-7.614719425205006 5.186910767131505,-7.496461225235062 5.268816431546978,-7.379487813859215 5.352567682220472,-7.263828638508236 5.438143435222509,-7.149512815761 5.525522147314912,-7.036569124014553 5.6146818213741865,-6.925025996239298 5.705600011929198,-6.814911512821144 5.798253830811673,-6.706253394492435 5.892619952918207,-6.5990789953533735 5.9886746220822005,-6.49341529598581 6.0863936570543675,-6.389288896660992 6.185752457590233,-6.286726010643108 6.286726010643107,-6.185752457590235 6.389288896660993,-6.086393657054367 6.493415295985807,-5.988674622082201 6.599078995353375,-5.892619952918206 6.7062533944924345,-5.7982538308116744 6.814911512821145,-5.705600011929197 6.925025996239297,-5.614681821374187 7.036569124014552,-5.525522147314913 7.149512815760998,-5.4381434352225115 7.263828638508233,-5.3525676822204735 7.379487813859217,-5.268816431546977 7.496461225235059,-5.186910767131506 7.614719425205007,-5.106871308287056 7.73423264289962,-5.028718204519369 7.854970791505477,-4.952471130454371 7.9769034758393405,-4.878149280885206 8.099999999999998,-4.8057713659400525 8.224229375095783,-4.735355606371934 8.349560327045852,-4.666919728971763 8.475961304453305,-4.600480962105688 8.603400486548031,-4.536056031377976 8.731845791197454,-4.473661155420409 8.86126488298302,-4.413312041809334 8.991625181340474,-4.3550238831113735 9.12289386876184,-4.298811353058768 9.25503789905705,-4.244688602855346 9.38802400567315,-4.192669257614039 9.52181871006898,-4.142766412926824 9.656388330143205,-4.094992631567983 9.791698988713614,-4.049359940331492 9.927716622045525,-4.0058798270033344 10.06440698842713,-3.9645632374695228 10.201735676789681,-3.9254205729605207 10.339668115370285,-3.888461687432793 10.478169580415152,-3.853695885088124 10.617205204921131,-3.8211319180313357 10.756739987413283,-3.7907779840669904 10.896738800756305,-3.762641724635639 11.037166400997624,-3.736730222890127 11.177987436239848,-3.7130500019124506 11.31916645554043,-3.691607023071605 11.460667917836254,-3.672406684522842 11.602456200890897,-3.655453819848712 11.744495610262353,-3.640752696842238 11.886750388288903,-3.628307016432518 12.029184723090918,-3.6181199117530394 12.171762757586317,-3.6101939473529274 12.314448598517387,-3.6045311185513333 12.457206325486725,-3.6011328509351235 12.599999999999998,-3.599999999999999 131.4,-3.599999999999995 " style="stroke:#cc99ff;fill:#e6ccff;stroke-width:2;stroke-dasharray:-;stroke-linecap:round;stroke-linejoin:round;" /><text x="0.0" y="-103.09188309203678" dominant-baseline="ideographic" fill="black" font-size="12" font-family="sans" text-anchor="end"><tspan x="0.0" dy="12">BC</tspan></text><text x="-19.09188309203678" y="-84.0" dominant-baseline="ideographic" fill="black" font-size="12" font-family="sans" text-anchor="end"><tspan x="-19.09188309203678" dy="12">A</tspan></text><text x="18.0" y="-83.8" dominant-baseline="ideographic" fill="black" font-size="10" font-family="sans" text-anchor="middle"><tspan x="18.0" dy="10">00</tspan></text><text x="54.0" y="-83.8" dominant-baseline="ideographic" fill="black" font-size="10" font-family="sans" text-anchor="middle"><tspan x="54.0" dy="10">01</tspan></text><text x="126.0" y="-83.8" dominant-baseline="ideographic" fill="black" font-size="10" font-family="sans" text-anchor="middle"><tspan x="126.0" dy="10">10</tspan></text><text x="90.0" y="-83.8" dominant-baseline="ideographic" fill="black" font-size="10" font-family="sans" text-anchor="middle"><tspan x="90.0" dy="10">11</tspan></text><text x="-3.6" y="-64.0" dominant-baseline="central" fill="black" font-size="10" font-family="sans" text-anchor="end"><tspan x="-3.6" dy="10">0</tspan></text><text x="-3.6" y="-28.0" dominant-baseline="central" fill="black" font-size="10" font-family="sans" text-anchor="end"><tspan x="-3.6" dy="10">1</tspan></text><text x="18.0" y="-66.0" dominant-baseline="central" fill="black" font-size="12" font-family="sans" text-anchor="middle"><tspan x="18.0" dy="12">0</tspan></text><text x="18.0" y="-30.0" dominant-baseline="central" fill="black" font-size="12" font-family="sans" text-anchor="middle"><tspan x="18.0" dy="12">1</tspan></text><text x="54.0" y="-66.0" dominant-baseline="central" fill="black" font-size="12" font-family="sans" text-anchor="middle"><tspan x="54.0" dy="12">0</tspan></text><text x="54.0" y="-30.0" dominant-baseline="central" fill="black" font-size="12" font-family="sans" text-anchor="middle"><tspan x="54.0" dy="12">1</tspan></text><text x="126.0" y="-66.0" dominant-baseline="central" fill="black" font-size="12" font-family="sans" text-anchor="middle"><tspan x="126.0" dy="12">0</tspan></text><text x="126.0" y="-30.0" dominant-baseline="central" fill="black" font-size="12" font-family="sans" text-anchor="middle"><tspan x="126.0" dy="12">1</tspan></text><text x="90.0" y="-66.0" dominant-baseline="central" fill="black" font-size="12" font-family="sans" text-anchor="middle"><tspan x="90.0" dy="12">0</tspan></text><text x="90.0" y="-30.0" dominant-baseline="central" fill="black" font-size="12" font-family="sans" text-anchor="middle"><tspan x="90.0" dy="12">1</tspan></text></svg>