<?xml version="1.0" encoding="utf-8" standalone="no"?><!DOCTYPE svg PUBLIC "-//W3C//DTD SVG 1.1//EN"  "http://www.w3.org/Graphics/SVG/1.1/DTD/svg11.dtd"><svg xmlns:xlink="http://www.w3.org/1999/xlink" width="119.508pt" height="59.76pt" viewBox="0 0 119.508 59.76" xmlns="http://www.w3.org/2000/svg" version="1.1"> <metadata>  <rdf:RDF xmlns:dc="http://purl.org/dc/elements/1.1/" xmlns:cc="http://creativecommons.org/ns#" xmlns:rdf="http://www.w3.org/1999/02/22-rdf-syntax-ns#">   <cc:Work>    <dc:type rdf:resource="http://purl.org/dc/dcmitype/StillImage"/>    <dc:date>2026-03-29T21:19:39.380720</dc:date>    <dc:format>image/svg+xml</dc:format>    <dc:creator>     <cc:Agent>      <dc:title>Matplotlib v3.10.8, https://matplotlib.org/</dc:title>     </cc:Agent>    </dc:creator>   </cc:Work>  </rdf:RDF> </metadata> <defs>  <style type="text/css">*{stroke-linejoin: round; stroke-linecap: butt}</style> </defs> <g id="figure_1">  <g id="patch_1">   <path d="M 0 59.76 L 145.983333 59.76 L 145.983333 -3.24 L 0 -3.24 z" style="fill: #ffffff"/>  </g>  <g id="axes_1">   <g id="patch_2">    <path d="M 90.816667 34.26 C 92.407885 34.26 93.934146 33.627802 95.059307 32.502641 C 96.184469 31.377479 96.816667 29.851219 96.816667 28.26 C 96.816667 26.668781 96.184469 25.142521 95.059307 24.017359 C 93.934146 22.892198 92.407885 22.26 90.816667 22.26 C 89.225448 22.26 87.699187 22.892198 86.574026 24.017359 C 85.448865 25.142521 84.816667 26.668781 84.816667 28.26 C 84.816667 29.851219 85.448865 31.377479 86.574026 32.502641 C 87.699187 33.627802 89.225448 34.26 90.816667 34.26 L 90.816667 34.26 z" clip-path="url(#p6d82d04e38)" style="fill: none; stroke: #000000; stroke-width: 2; stroke-linejoin: miter"/>   </g>   <g id="line2d_1">    <path d="M 24.566667 28.26 L 52.316667 28.26 M 96.816667 28.26 L 120.508 28.26 " clip-path="url(#p6d82d04e38)" style="fill: none; stroke: #000000; stroke-width: 2; stroke-linecap: round"/>   </g>   <g id="line2d_2">    <path d="M 52.316667 3.26 L 84.816667 28.26 L 52.316667 53.26 L 52.316667 3.26 " clip-path="url(#p6d82d04e38)" style="fill: none; stroke: #000000; stroke-width: 2; stroke-linecap: round"/>   </g>   <g id="text_1">    <text style="font-size: 14px; font-family: 'DejaVu Sans', 'Bitstream Vera Sans', 'Computer Modern Sans Serif', 'Lucida Grande', 'Verdana', 'Geneva', 'Lucid', 'Arial', 'Helvetica', 'Avant Garde', sans-serif; text-anchor: start" x="129.566667" y="32.123125" transform="rotate(-0 129.566667 32.123125)">x</text>   </g>   <g id="text_2">    <text style="font-size: 14px; font-family: 'DejaVu Sans', 'Bitstream Vera Sans', 'Computer Modern Sans Serif', 'Lucida Grande', 'Verdana', 'Geneva', 'Lucid', 'Arial', 'Helvetica', 'Avant Garde', sans-serif; text-anchor: end" x="19.566667" y="32.123125" transform="rotate(-0 19.566667 32.123125)">A</text>   </g>  </g> </g> <defs>  <clipPath id="p6d82d04e38">   <rect x="0" y="-3.24" width="145.983333" height="63"/>  </clipPath> </defs></svg>