<?xml version="1.0" encoding="utf-8" standalone="no"?><!DOCTYPE svg PUBLIC "-//W3C//DTD SVG 1.1//EN"  "http://www.w3.org/Graphics/SVG/1.1/DTD/svg11.dtd"><svg xmlns:xlink="http://www.w3.org/1999/xlink" width="191.508pt" height="72.9pt" viewBox="0 0 191.508 72.9" xmlns="http://www.w3.org/2000/svg" version="1.1"> <metadata>  <rdf:RDF xmlns:dc="http://purl.org/dc/elements/1.1/" xmlns:cc="http://creativecommons.org/ns#" xmlns:rdf="http://www.w3.org/1999/02/22-rdf-syntax-ns#">   <cc:Work>    <dc:type rdf:resource="http://purl.org/dc/dcmitype/StillImage"/>    <dc:date>2026-03-29T21:19:39.655635</dc:date>    <dc:format>image/svg+xml</dc:format>    <dc:creator>     <cc:Agent>      <dc:title>Matplotlib v3.10.8, https://matplotlib.org/</dc:title>     </cc:Agent>    </dc:creator>   </cc:Work>  </rdf:RDF> </metadata> <defs>  <style type="text/css">*{stroke-linejoin: round; stroke-linecap: butt}</style> </defs> <g id="figure_1">  <g id="patch_1">   <path d="M 0 72.9 L 245.983333 72.9 L 245.983333 -8.35 L 0 -8.35 z" style="fill: #ffffff"/>  </g>  <g id="axes_1">   <g id="patch_2">    <path d="M 90.816667 29.15 C 92.407885 29.15 93.934146 28.517802 95.059307 27.392641 C 96.184469 26.267479 96.816667 24.741219 96.816667 23.15 C 96.816667 21.558781 96.184469 20.032521 95.059307 18.907359 C 93.934146 17.782198 92.407885 17.15 90.816667 17.15 C 89.225448 17.15 87.699187 17.782198 86.574026 18.907359 C 85.448865 20.032521 84.816667 21.558781 84.816667 23.15 C 84.816667 24.741219 85.448865 26.267479 86.574026 27.392641 C 87.699187 28.517802 89.225448 29.15 90.816667 29.15 L 90.816667 29.15 z" clip-path="url(#p61d553b5dd)" style="fill: none; stroke: #000000; stroke-width: 2; stroke-linejoin: miter"/>   </g>   <g id="line2d_1">    <path d="M 147.066667 66.4 L 174.209524 66.308163 L 176.352381 66.032653 L 178.495238 65.573469 L 180.638095 64.930612 L 182.780952 64.104082 L 184.92381 63.093878 L 187.780952 61.461224 L 190.638095 59.502041 L 192.508 58.040629 M 192.508 25.759371 L 189.92381 23.777551 L 187.066667 21.9 L 184.209524 20.34898 L 181.352381 19.12449 L 179.209524 18.420408 L 177.066667 17.9 L 174.92381 17.563265 L 172.780952 17.410204 L 172.066667 17.4 L 147.066667 17.4 L 147.066667 17.4 L 149.826667 20.4 L 152.226667 23.4 L 154.266667 26.4 L 155.946667 29.4 L 157.266667 32.4 L 157.946667 34.4 L 158.466667 36.4 L 158.826667 38.4 L 159.026667 40.4 L 159.066667 42.4 L 158.946667 44.4 L 158.666667 46.4 L 158.226667 48.4 L 157.626667 50.4 L 156.866667 52.4 L 155.426667 55.4 L 153.626667 58.4 L 151.466667 61.4 L 148.946667 64.4 L 147.066667 66.4 L 147.066667 66.4 " clip-path="url(#p61d553b5dd)" style="fill: none; stroke: #000000; stroke-width: 2; stroke-linecap: round"/>   </g>   <g id="line2d_2">    <path d="M 129.566667 54.4 L 155.946667 54.4 " clip-path="url(#p61d553b5dd)" style="fill: none; stroke: #000000; stroke-width: 2; stroke-linecap: round"/>   </g>   <g id="line2d_3">    <path d="M 129.566667 29.4 L 155.946667 29.4 " clip-path="url(#p61d553b5dd)" style="fill: none; stroke: #000000; stroke-width: 2; stroke-linecap: round"/>   </g>   <g id="line2d_4">    <path clip-path="url(#p61d553b5dd)" style="fill: none; stroke: #000000; stroke-width: 2; stroke-linecap: round"/>   </g>   <g id="line2d_5">    <path d="M 24.566667 23.15 L 52.316667 23.15 M 96.816667 23.15 L 124.566667 23.15 " clip-path="url(#p61d553b5dd)" style="fill: none; stroke: #000000; stroke-width: 2; stroke-linecap: round"/>   </g>   <g id="line2d_6">    <path d="M 53.421667 -1 L 84.816667 23.15 L 52.316667 48.15 L 52.316667 -1 " clip-path="url(#p61d553b5dd)" style="fill: none; stroke: #000000; stroke-width: 2; stroke-linecap: round"/>   </g>   <g id="line2d_7">    <path d="M 129.566667 29.4 L 124.566667 29.4 L 124.566667 23.15 " clip-path="url(#p61d553b5dd)" style="fill: none; stroke: #000000; stroke-width: 2; stroke-linecap: round"/>   </g>   <g id="text_1">    <text style="font-size: 14px; font-family: 'DejaVu Sans', 'Bitstream Vera Sans', 'Computer Modern Sans Serif', 'Lucida Grande', 'Verdana', 'Geneva', 'Lucid', 'Arial', 'Helvetica', 'Avant Garde', sans-serif; text-anchor: start" x="229.566667" y="45.763125" transform="rotate(-0 229.566667 45.763125)">x</text>   </g>   <g id="text_2">    <text style="font-size: 14px; font-family: 'DejaVu Sans', 'Bitstream Vera Sans', 'Computer Modern Sans Serif', 'Lucida Grande', 'Verdana', 'Geneva', 'Lucid', 'Arial', 'Helvetica', 'Avant Garde', sans-serif; text-anchor: end" x="124.566667" y="58.263125" transform="rotate(-0 124.566667 58.263125)">B</text>   </g>   <g id="text_3">    <text style="font-size: 14px; font-family: 'DejaVu Sans', 'Bitstream Vera Sans', 'Computer Modern Sans Serif', 'Lucida Grande', 'Verdana', 'Geneva', 'Lucid', 'Arial', 'Helvetica', 'Avant Garde', sans-serif; text-anchor: end" x="19.566667" y="27.013125" transform="rotate(-0 19.566667 27.013125)">A</text>   </g>  </g> </g> <defs>  <clipPath id="p61d553b5dd">   <rect x="0" y="-8.35" width="245.983333" height="81.25"/>  </clipPath> </defs></svg>