<?xml version="1.0" encoding="utf-8" standalone="no"?><!DOCTYPE svg PUBLIC "-//W3C//DTD SVG 1.1//EN"  "http://www.w3.org/Graphics/SVG/1.1/DTD/svg11.dtd"><svg xmlns:xlink="http://www.w3.org/1999/xlink" width="712.495625pt" height="279.154375pt" viewBox="0 0 712.495625 279.154375" xmlns="http://www.w3.org/2000/svg" version="1.1"> <metadata>  <rdf:RDF xmlns:dc="http://purl.org/dc/elements/1.1/" xmlns:cc="http://creativecommons.org/ns#" xmlns:rdf="http://www.w3.org/1999/02/22-rdf-syntax-ns#">   <cc:Work>    <dc:type rdf:resource="http://purl.org/dc/dcmitype/StillImage"/>    <dc:date>2026-03-29T21:19:40.349989</dc:date>    <dc:format>image/svg+xml</dc:format>    <dc:creator>     <cc:Agent>      <dc:title>Matplotlib v3.10.8, https://matplotlib.org/</dc:title>     </cc:Agent>    </dc:creator>   </cc:Work>  </rdf:RDF> </metadata> <defs>  <style type="text/css">*{stroke-linejoin: round; stroke-linecap: butt}</style> </defs> <g id="figure_1">  <g id="patch_1">   <path d="M 0 279.154375 L 712.495625 279.154375 L 712.495625 0 L 0 0 L 0 279.154375 z" style="fill: none"/>  </g>  <g id="axes_1">   <g id="patch_2">    <path d="M 46.965625 241.598125 L 705.295625 241.598125 L 705.295625 22.798125 L 46.965625 22.798125 L 46.965625 241.598125 z" style="fill: none"/>   </g>   <g id="matplotlib.axis_1">    <g id="xtick_1">     <g id="line2d_1">      <path d="M 73.88227 241.598125 L 73.88227 22.798125 " clip-path="url(#pbcd861b76d)" style="fill: none; stroke: #b0b0b0; stroke-opacity: 0.3; stroke-width: 0.8; stroke-linecap: square"/>     </g>     <g id="line2d_2">      <defs>       <path id="mb59b6133ee" d="M 0 0 L 0 3.5 " style="stroke: #000000; stroke-width: 0.8"/>      </defs>      <g>       <use xlink:href="#mb59b6133ee" x="73.88227" y="241.598125" style="stroke: #000000; stroke-width: 0.8"/>      </g>     </g>     <g id="text_1">      <text style="font-size: 10px; font-family: 'DejaVu Sans', 'Bitstream Vera Sans', 'Computer Modern Sans Serif', 'Lucida Grande', 'Verdana', 'Geneva', 'Lucid', 'Arial', 'Helvetica', 'Avant Garde', sans-serif; text-anchor: middle" x="73.88227" y="256.196563" transform="rotate(-0 73.88227 256.196563)">0</text>     </g>    </g>    <g id="xtick_2">     <g id="line2d_3">      <path d="M 149.068428 241.598125 L 149.068428 22.798125 " clip-path="url(#pbcd861b76d)" style="fill: none; stroke: #b0b0b0; stroke-opacity: 0.3; stroke-width: 0.8; stroke-linecap: square"/>     </g>     <g id="line2d_4">      <g>       <use xlink:href="#mb59b6133ee" x="149.068428" y="241.598125" style="stroke: #000000; stroke-width: 0.8"/>      </g>     </g>     <g id="text_2">      <text style="font-size: 10px; font-family: 'DejaVu Sans', 'Bitstream Vera Sans', 'Computer Modern Sans Serif', 'Lucida Grande', 'Verdana', 'Geneva', 'Lucid', 'Arial', 'Helvetica', 'Avant Garde', sans-serif; text-anchor: middle" x="149.068428" y="256.196563" transform="rotate(-0 149.068428 256.196563)">25</text>     </g>    </g>    <g id="xtick_3">     <g id="line2d_5">      <path d="M 224.254586 241.598125 L 224.254586 22.798125 " clip-path="url(#pbcd861b76d)" style="fill: none; stroke: #b0b0b0; stroke-opacity: 0.3; stroke-width: 0.8; stroke-linecap: square"/>     </g>     <g id="line2d_6">      <g>       <use xlink:href="#mb59b6133ee" x="224.254586" y="241.598125" style="stroke: #000000; stroke-width: 0.8"/>      </g>     </g>     <g id="text_3">      <text style="font-size: 10px; font-family: 'DejaVu Sans', 'Bitstream Vera Sans', 'Computer Modern Sans Serif', 'Lucida Grande', 'Verdana', 'Geneva', 'Lucid', 'Arial', 'Helvetica', 'Avant Garde', sans-serif; text-anchor: middle" x="224.254586" y="256.196563" transform="rotate(-0 224.254586 256.196563)">50</text>     </g>    </g>    <g id="xtick_4">     <g id="line2d_7">      <path d="M 299.440744 241.598125 L 299.440744 22.798125 " clip-path="url(#pbcd861b76d)" style="fill: none; stroke: #b0b0b0; stroke-opacity: 0.3; stroke-width: 0.8; stroke-linecap: square"/>     </g>     <g id="line2d_8">      <g>       <use xlink:href="#mb59b6133ee" x="299.440744" y="241.598125" style="stroke: #000000; stroke-width: 0.8"/>      </g>     </g>     <g id="text_4">      <text style="font-size: 10px; font-family: 'DejaVu Sans', 'Bitstream Vera Sans', 'Computer Modern Sans Serif', 'Lucida Grande', 'Verdana', 'Geneva', 'Lucid', 'Arial', 'Helvetica', 'Avant Garde', sans-serif; text-anchor: middle" x="299.440744" y="256.196563" transform="rotate(-0 299.440744 256.196563)">75</text>     </g>    </g>    <g id="xtick_5">     <g id="line2d_9">      <path d="M 374.626902 241.598125 L 374.626902 22.798125 " clip-path="url(#pbcd861b76d)" style="fill: none; stroke: #b0b0b0; stroke-opacity: 0.3; stroke-width: 0.8; stroke-linecap: square"/>     </g>     <g id="line2d_10">      <g>       <use xlink:href="#mb59b6133ee" x="374.626902" y="241.598125" style="stroke: #000000; stroke-width: 0.8"/>      </g>     </g>     <g id="text_5">      <text style="font-size: 10px; font-family: 'DejaVu Sans', 'Bitstream Vera Sans', 'Computer Modern Sans Serif', 'Lucida Grande', 'Verdana', 'Geneva', 'Lucid', 'Arial', 'Helvetica', 'Avant Garde', sans-serif; text-anchor: middle" x="374.626902" y="256.196563" transform="rotate(-0 374.626902 256.196563)">100</text>     </g>    </g>    <g id="xtick_6">     <g id="line2d_11">      <path d="M 449.81306 241.598125 L 449.81306 22.798125 " clip-path="url(#pbcd861b76d)" style="fill: none; stroke: #b0b0b0; stroke-opacity: 0.3; stroke-width: 0.8; stroke-linecap: square"/>     </g>     <g id="line2d_12">      <g>       <use xlink:href="#mb59b6133ee" x="449.81306" y="241.598125" style="stroke: #000000; stroke-width: 0.8"/>      </g>     </g>     <g id="text_6">      <text style="font-size: 10px; font-family: 'DejaVu Sans', 'Bitstream Vera Sans', 'Computer Modern Sans Serif', 'Lucida Grande', 'Verdana', 'Geneva', 'Lucid', 'Arial', 'Helvetica', 'Avant Garde', sans-serif; text-anchor: middle" x="449.81306" y="256.196563" transform="rotate(-0 449.81306 256.196563)">125</text>     </g>    </g>    <g id="xtick_7">     <g id="line2d_13">      <path d="M 524.999218 241.598125 L 524.999218 22.798125 " clip-path="url(#pbcd861b76d)" style="fill: none; stroke: #b0b0b0; stroke-opacity: 0.3; stroke-width: 0.8; stroke-linecap: square"/>     </g>     <g id="line2d_14">      <g>       <use xlink:href="#mb59b6133ee" x="524.999218" y="241.598125" style="stroke: #000000; stroke-width: 0.8"/>      </g>     </g>     <g id="text_7">      <text style="font-size: 10px; font-family: 'DejaVu Sans', 'Bitstream Vera Sans', 'Computer Modern Sans Serif', 'Lucida Grande', 'Verdana', 'Geneva', 'Lucid', 'Arial', 'Helvetica', 'Avant Garde', sans-serif; text-anchor: middle" x="524.999218" y="256.196563" transform="rotate(-0 524.999218 256.196563)">150</text>     </g>    </g>    <g id="xtick_8">     <g id="line2d_15">      <path d="M 600.185376 241.598125 L 600.185376 22.798125 " clip-path="url(#pbcd861b76d)" style="fill: none; stroke: #b0b0b0; stroke-opacity: 0.3; stroke-width: 0.8; stroke-linecap: square"/>     </g>     <g id="line2d_16">      <g>       <use xlink:href="#mb59b6133ee" x="600.185376" y="241.598125" style="stroke: #000000; stroke-width: 0.8"/>      </g>     </g>     <g id="text_8">      <text style="font-size: 10px; font-family: 'DejaVu Sans', 'Bitstream Vera Sans', 'Computer Modern Sans Serif', 'Lucida Grande', 'Verdana', 'Geneva', 'Lucid', 'Arial', 'Helvetica', 'Avant Garde', sans-serif; text-anchor: middle" x="600.185376" y="256.196563" transform="rotate(-0 600.185376 256.196563)">175</text>     </g>    </g>    <g id="xtick_9">     <g id="line2d_17">      <path d="M 675.371534 241.598125 L 675.371534 22.798125 " clip-path="url(#pbcd861b76d)" style="fill: none; stroke: #b0b0b0; stroke-opacity: 0.3; stroke-width: 0.8; stroke-linecap: square"/>     </g>     <g id="line2d_18">      <g>       <use xlink:href="#mb59b6133ee" x="675.371534" y="241.598125" style="stroke: #000000; stroke-width: 0.8"/>      </g>     </g>     <g id="text_9">      <text style="font-size: 10px; font-family: 'DejaVu Sans', 'Bitstream Vera Sans', 'Computer Modern Sans Serif', 'Lucida Grande', 'Verdana', 'Geneva', 'Lucid', 'Arial', 'Helvetica', 'Avant Garde', sans-serif; text-anchor: middle" x="675.371534" y="256.196563" transform="rotate(-0 675.371534 256.196563)">200</text>     </g>    </g>    <g id="text_10">     <text style="font-size: 10px; font-family: 'DejaVu Sans', 'Bitstream Vera Sans', 'Computer Modern Sans Serif', 'Lucida Grande', 'Verdana', 'Geneva', 'Lucid', 'Arial', 'Helvetica', 'Avant Garde', sans-serif; text-anchor: middle" x="376.130625" y="269.874687" transform="rotate(-0 376.130625 269.874687)">Número de Sorteios</text>    </g>   </g>   <g id="matplotlib.axis_2">    <g id="ytick_1">     <g id="line2d_19">      <path d="M 46.965625 231.65267 L 705.295625 231.65267 " clip-path="url(#pbcd861b76d)" style="fill: none; stroke: #b0b0b0; stroke-opacity: 0.3; stroke-width: 0.8; stroke-linecap: square"/>     </g>     <g id="line2d_20">      <defs>       <path id="mbd7d78a558" d="M 0 0 L -3.5 0 " style="stroke: #000000; stroke-width: 0.8"/>      </defs>      <g>       <use xlink:href="#mbd7d78a558" x="46.965625" y="231.65267" style="stroke: #000000; stroke-width: 0.8"/>      </g>     </g>     <g id="text_11">      <text style="font-size: 10px; font-family: 'DejaVu Sans', 'Bitstream Vera Sans', 'Computer Modern Sans Serif', 'Lucida Grande', 'Verdana', 'Geneva', 'Lucid', 'Arial', 'Helvetica', 'Avant Garde', sans-serif; text-anchor: end" x="39.965625" y="235.451889" transform="rotate(-0 39.965625 235.451889)">0</text>     </g>    </g>    <g id="ytick_2">     <g id="line2d_21">      <path d="M 46.965625 191.870852 L 705.295625 191.870852 " clip-path="url(#pbcd861b76d)" style="fill: none; stroke: #b0b0b0; stroke-opacity: 0.3; stroke-width: 0.8; stroke-linecap: square"/>     </g>     <g id="line2d_22">      <g>       <use xlink:href="#mbd7d78a558" x="46.965625" y="191.870852" style="stroke: #000000; stroke-width: 0.8"/>      </g>     </g>     <g id="text_12">      <text style="font-size: 10px; font-family: 'DejaVu Sans', 'Bitstream Vera Sans', 'Computer Modern Sans Serif', 'Lucida Grande', 'Verdana', 'Geneva', 'Lucid', 'Arial', 'Helvetica', 'Avant Garde', sans-serif; text-anchor: end" x="39.965625" y="195.670071" transform="rotate(-0 39.965625 195.670071)">20</text>     </g>    </g>    <g id="ytick_3">     <g id="line2d_23">      <path d="M 46.965625 152.089034 L 705.295625 152.089034 " clip-path="url(#pbcd861b76d)" style="fill: none; stroke: #b0b0b0; stroke-opacity: 0.3; stroke-width: 0.8; stroke-linecap: square"/>     </g>     <g id="line2d_24">      <g>       <use xlink:href="#mbd7d78a558" x="46.965625" y="152.089034" style="stroke: #000000; stroke-width: 0.8"/>      </g>     </g>     <g id="text_13">      <text style="font-size: 10px; font-family: 'DejaVu Sans', 'Bitstream Vera Sans', 'Computer Modern Sans Serif', 'Lucida Grande', 'Verdana', 'Geneva', 'Lucid', 'Arial', 'Helvetica', 'Avant Garde', sans-serif; text-anchor: end" x="39.965625" y="155.888253" transform="rotate(-0 39.965625 155.888253)">40</text>     </g>    </g>    <g id="ytick_4">     <g id="line2d_25">      <path d="M 46.965625 112.307216 L 705.295625 112.307216 " clip-path="url(#pbcd861b76d)" style="fill: none; stroke: #b0b0b0; stroke-opacity: 0.3; stroke-width: 0.8; stroke-linecap: square"/>     </g>     <g id="line2d_26">      <g>       <use xlink:href="#mbd7d78a558" x="46.965625" y="112.307216" style="stroke: #000000; stroke-width: 0.8"/>      </g>     </g>     <g id="text_14">      <text style="font-size: 10px; font-family: 'DejaVu Sans', 'Bitstream Vera Sans', 'Computer Modern Sans Serif', 'Lucida Grande', 'Verdana', 'Geneva', 'Lucid', 'Arial', 'Helvetica', 'Avant Garde', sans-serif; text-anchor: end" x="39.965625" y="116.106435" transform="rotate(-0 39.965625 116.106435)">60</text>     </g>    </g>    <g id="ytick_5">     <g id="line2d_27">      <path d="M 46.965625 72.525398 L 705.295625 72.525398 " clip-path="url(#pbcd861b76d)" style="fill: none; stroke: #b0b0b0; stroke-opacity: 0.3; stroke-width: 0.8; stroke-linecap: square"/>     </g>     <g id="line2d_28">      <g>       <use xlink:href="#mbd7d78a558" x="46.965625" y="72.525398" style="stroke: #000000; stroke-width: 0.8"/>      </g>     </g>     <g id="text_15">      <text style="font-size: 10px; font-family: 'DejaVu Sans', 'Bitstream Vera Sans', 'Computer Modern Sans Serif', 'Lucida Grande', 'Verdana', 'Geneva', 'Lucid', 'Arial', 'Helvetica', 'Avant Garde', sans-serif; text-anchor: end" x="39.965625" y="76.324616" transform="rotate(-0 39.965625 76.324616)">80</text>     </g>    </g>    <g id="ytick_6">     <g id="line2d_29">      <path d="M 46.965625 32.74358 L 705.295625 32.74358 " clip-path="url(#pbcd861b76d)" style="fill: none; stroke: #b0b0b0; stroke-opacity: 0.3; stroke-width: 0.8; stroke-linecap: square"/>     </g>     <g id="line2d_30">      <g>       <use xlink:href="#mbd7d78a558" x="46.965625" y="32.74358" style="stroke: #000000; stroke-width: 0.8"/>      </g>     </g>     <g id="text_16">      <text style="font-size: 10px; font-family: 'DejaVu Sans', 'Bitstream Vera Sans', 'Computer Modern Sans Serif', 'Lucida Grande', 'Verdana', 'Geneva', 'Lucid', 'Arial', 'Helvetica', 'Avant Garde', sans-serif; text-anchor: end" x="39.965625" y="36.542798" transform="rotate(-0 39.965625 36.542798)">100</text>     </g>    </g>    <g id="text_17">     <text style="font-size: 10px; font-family: 'DejaVu Sans', 'Bitstream Vera Sans', 'Computer Modern Sans Serif', 'Lucida Grande', 'Verdana', 'Geneva', 'Lucid', 'Arial', 'Helvetica', 'Avant Garde', sans-serif; text-anchor: middle" x="14.798438" y="132.198125" transform="rotate(-90 14.798438 132.198125)">% de CPU Recebida (Acumulada)</text>    </g>   </g>   <g id="line2d_31">    <path d="M 76.889716 231.65267 L 82.904609 231.65267 L 85.912055 181.925398 L 88.919501 152.089034 L 91.926948 132.198125 L 94.934394 146.405917 L 97.94184 132.198125 L 100.949286 143.24863 L 103.956733 132.198125 L 106.964179 141.239447 L 109.971625 148.773883 L 112.979072 155.149174 L 115.986518 160.613709 L 118.993964 165.34964 L 122.001411 157.061761 L 125.008857 161.449462 L 128.016303 165.34964 L 131.02375 168.839273 L 134.031196 162.034489 L 137.038642 165.34964 L 140.046089 168.363414 L 143.053535 171.115121 L 146.060981 165.34964 L 149.068428 160.045398 L 152.075874 162.799524 L 155.08332 165.34964 L 158.090767 167.717606 L 161.098213 169.922263 L 164.105659 165.34964 L 167.113106 167.488448 L 170.120552 163.27767 L 173.127998 159.322092 L 176.135445 155.599195 L 179.142891 152.089034 L 182.150337 148.773883 L 185.157784 145.637928 L 191.172676 139.848475 L 194.180122 142.14358 L 200.195015 136.934056 L 206.209908 141.239447 L 212.2248 145.170457 L 215.232247 142.778396 L 218.239693 144.629943 L 221.247139 142.346548 L 227.262032 145.848749 L 233.276925 149.086633 L 236.284371 146.932132 L 239.291817 148.472505 L 245.30671 144.411841 L 248.314156 145.915993 L 251.321603 143.997817 L 257.336495 146.871746 L 260.343942 145.03097 L 263.351388 146.405917 L 266.358834 144.629943 L 269.366281 145.968754 L 275.381173 142.588898 L 278.38862 140.973526 L 281.396066 142.287717 L 287.410958 139.201966 L 296.433297 142.949968 L 302.44819 145.284249 L 305.455636 143.822682 L 311.470529 146.046226 L 317.485422 143.24863 L 323.500314 145.378848 L 326.507761 144.037952 L 329.515207 145.068713 L 332.522653 143.762607 L 335.5301 144.772838 L 341.544992 142.255326 L 344.552439 143.24863 L 347.559885 142.034289 L 350.567331 143.008402 L 356.582224 140.662342 L 359.58967 141.620135 L 362.597117 140.486004 L 365.604563 141.425866 L 368.612009 140.316863 L 377.634348 143.029808 L 380.641794 141.948571 L 389.664133 144.511545 L 392.67158 143.45713 L 398.686472 145.090381 L 401.693919 144.059676 L 404.701365 144.855976 L 407.708811 143.845955 L 413.723704 145.400056 L 419.738597 143.440813 L 425.753489 144.948708 L 428.760936 143.997817 L 431.768382 144.734412 L 434.775828 143.801155 L 437.783275 144.527201 L 449.81306 140.950125 L 452.820506 140.091343 L 458.835399 141.521989 L 461.842845 140.678745 L 464.850292 141.378545 L 470.865184 139.73256 L 476.880077 141.104502 L 485.902416 138.731635 L 491.917308 140.068629 L 494.924755 139.302021 L 509.961986 142.486526 L 524.999218 138.828428 L 534.021557 140.648511 L 546.051342 137.899341 L 552.066235 139.078628 L 555.073681 138.414034 L 561.088574 139.565128 L 567.103466 138.262427 L 570.110913 138.828428 L 579.133252 136.934056 L 588.155591 138.595786 L 591.163037 137.980366 L 597.17793 139.057059 L 600.185376 138.449554 L 603.192822 138.979117 L 606.200269 138.378916 L 612.215161 139.421081 L 618.230054 138.242324 L 621.2375 138.755568 L 624.244947 138.176267 L 627.252393 138.684291 L 630.259839 138.111639 L 636.274732 139.112077 L 642.289625 137.986485 L 645.297071 138.479465 L 648.304517 137.925874 L 660.334302 139.848475 L 663.341749 139.302021 L 666.349195 139.770806 L 669.356641 139.230265 L 675.371534 140.154489 L 675.371534 140.154489 " clip-path="url(#pbcd861b76d)" style="fill: none; stroke: #1f77b4; stroke-width: 1.5; stroke-linecap: square"/>   </g>   <g id="line2d_32">    <path d="M 46.965625 132.198125 L 705.295625 132.198125 " clip-path="url(#pbcd861b76d)" style="fill: none; stroke-dasharray: 1.5,2.475; stroke-dashoffset: 0; stroke: #808080; stroke-opacity: 0.5; stroke-width: 1.5"/>   </g>   <g id="line2d_33">    <path d="M 76.889716 231.65267 L 91.926948 231.65267 L 94.934394 203.237086 L 97.94184 206.789034 L 100.949286 187.45065 L 103.956733 191.870852 L 106.964179 177.404737 L 109.971625 165.34964 L 112.979072 170.449873 L 115.986518 174.821502 L 118.993964 178.610246 L 122.001411 181.925398 L 125.008857 173.149997 L 128.016303 176.400145 L 131.02375 168.839273 L 134.031196 171.979943 L 137.038642 165.34964 L 140.046089 159.322092 L 143.053535 153.818678 L 146.060981 157.061761 L 149.068428 160.045398 L 152.075874 162.799524 L 155.08332 165.34964 L 158.090767 160.613709 L 161.098213 163.063329 L 164.105659 165.34964 L 170.120552 169.49358 L 176.135445 173.149997 L 182.150337 176.400145 L 188.16523 179.308173 L 191.172676 180.650339 L 194.180122 176.95267 L 200.195015 179.557432 L 203.202461 180.76895 L 206.209908 177.404737 L 209.217354 178.610246 L 212.2248 175.439232 L 215.232247 176.635262 L 218.239693 173.637519 L 224.254586 175.958125 L 230.269478 178.100223 L 233.276925 175.357645 L 236.284371 176.400145 L 239.291817 173.788208 L 248.314156 176.781197 L 257.336495 179.479794 L 260.343942 180.321292 L 263.351388 177.978789 L 272.373727 180.418511 L 278.38862 181.925398 L 281.396066 179.763342 L 287.410958 181.225014 L 293.425851 177.157029 L 296.433297 177.893457 L 299.440744 175.958125 L 311.470529 178.778102 L 317.485422 180.083647 L 323.500314 176.533284 L 326.507761 177.189467 L 329.515207 175.490104 L 341.544992 178.014264 L 344.552439 176.400145 L 356.582224 178.751316 L 368.612009 180.910555 L 371.619456 179.413919 L 374.626902 179.936307 L 377.634348 178.478953 L 380.641794 179.000264 L 386.656687 176.187635 L 395.679026 177.74273 L 398.686472 176.400145 L 401.693919 176.907049 L 404.701365 175.596472 L 419.738597 178.033698 L 425.753489 175.550106 L 434.775828 176.95267 L 437.783275 175.76086 L 452.820506 177.978789 L 458.835399 175.709489 L 476.880077 178.214407 L 485.902416 179.384588 L 488.909862 178.321972 L 506.95454 180.544085 L 509.961986 179.524771 L 531.014111 181.925398 L 546.051342 183.509069 L 549.058789 182.554857 L 567.103466 184.351118 L 570.110913 183.432285 L 579.133252 184.293363 L 588.155591 181.634595 L 591.163037 181.925398 L 594.170483 181.063075 L 600.185376 181.641242 L 603.192822 180.795232 L 606.200269 181.082563 L 609.207715 180.249198 L 636.274732 182.723161 L 642.289625 183.240934 L 645.297071 182.448843 L 651.311964 182.961383 L 657.326856 181.412745 L 669.356641 182.427693 L 672.364088 181.675512 L 675.371534 181.925398 L 675.371534 181.925398 " clip-path="url(#pbcd861b76d)" style="fill: none; stroke: #ff7f0e; stroke-width: 1.5; stroke-linecap: square"/>   </g>   <g id="line2d_34">    <path d="M 46.965625 191.870852 L 705.295625 191.870852 " clip-path="url(#pbcd861b76d)" style="fill: none; stroke-dasharray: 1.5,2.475; stroke-dashoffset: 0; stroke: #808080; stroke-opacity: 0.5; stroke-width: 1.5"/>   </g>   <g id="line2d_35">    <path d="M 76.889716 32.74358 L 82.904609 32.74358 L 85.912055 82.470852 L 88.919501 112.307216 L 91.926948 132.198125 L 94.934394 146.405917 L 97.94184 157.061761 L 100.949286 165.34964 L 103.956733 171.979943 L 106.964179 177.404737 L 109.971625 181.925398 L 112.979072 170.449873 L 115.986518 160.613709 L 118.993964 152.089034 L 122.001411 157.061761 L 125.008857 161.449462 L 128.016303 154.299135 L 131.02375 158.370374 L 134.031196 162.034489 L 137.038642 165.34964 L 140.046089 168.363414 L 143.053535 171.115121 L 146.060981 173.637519 L 149.068428 175.958125 L 152.075874 170.449873 L 155.08332 165.34964 L 158.090767 167.717606 L 161.098213 163.063329 L 164.105659 165.34964 L 167.113106 161.072025 L 173.127998 165.34964 L 179.142891 169.138385 L 185.157784 172.517535 L 191.172676 175.550106 L 197.187569 178.286817 L 200.195015 179.557432 L 203.202461 176.143157 L 206.209908 177.404737 L 209.217354 174.190044 L 215.232247 176.635262 L 221.247139 178.880871 L 227.262032 173.149997 L 230.269478 170.449873 L 236.284371 172.716644 L 245.30671 175.81854 L 248.314156 173.35173 L 251.321603 174.339882 L 257.336495 169.69738 L 266.358834 172.601534 L 269.366281 170.449873 L 278.38862 173.149997 L 287.410958 175.621941 L 293.425851 177.157029 L 296.433297 175.205496 L 299.440744 175.958125 L 302.44819 174.073723 L 305.455636 174.821502 L 311.470529 171.224592 L 323.500314 174.136789 L 332.522653 176.143157 L 335.5301 174.494886 L 347.559885 177.007316 L 350.567331 175.439232 L 356.582224 176.635262 L 359.58967 175.120613 L 362.597117 175.709489 L 365.604563 174.235613 L 371.619456 175.395554 L 374.626902 173.969034 L 386.656687 176.187635 L 389.664133 174.821502 L 392.67158 175.357645 L 395.679026 174.024803 L 407.708811 176.101483 L 413.723704 173.564175 L 428.760936 176.025552 L 431.768382 174.821502 L 446.805614 177.113081 L 461.842845 179.227019 L 464.850292 178.100223 L 470.865184 178.911624 L 476.880077 176.730011 L 488.909862 178.321972 L 491.917308 177.274646 L 494.924755 177.66306 L 506.95454 173.637519 L 524.999218 175.958125 L 534.021557 173.149997 L 549.058789 175.001347 L 552.066235 174.106644 L 555.073681 174.466307 L 561.088574 172.716644 L 582.140698 175.157781 L 594.170483 176.464021 L 597.17793 175.638041 L 609.207715 176.896797 L 612.215161 176.091472 L 618.230054 176.705408 L 621.2375 175.914409 L 624.244947 176.218989 L 627.252393 175.439232 L 630.259839 175.743088 L 636.274732 174.213682 L 648.304517 175.416592 L 651.311964 174.673504 L 657.326856 175.260918 L 660.334302 174.53006 L 663.341749 174.821502 L 666.349195 174.100294 L 672.364088 174.67871 L 675.371534 173.969034 L 675.371534 173.969034 " clip-path="url(#pbcd861b76d)" style="fill: none; stroke: #2ca02c; stroke-width: 1.5; stroke-linecap: square"/>   </g>   <g id="line2d_36">    <path d="M 46.965625 171.979943 L 705.295625 171.979943 " clip-path="url(#pbcd861b76d)" style="fill: none; stroke-dasharray: 1.5,2.475; stroke-dashoffset: 0; stroke: #808080; stroke-opacity: 0.5; stroke-width: 1.5"/>   </g>   <g id="patch_3">    <path d="M 46.965625 241.598125 L 46.965625 22.798125 " style="fill: none; stroke: #000000; stroke-width: 0.8; stroke-linejoin: miter; stroke-linecap: square"/>   </g>   <g id="patch_4">    <path d="M 705.295625 241.598125 L 705.295625 22.798125 " style="fill: none; stroke: #000000; stroke-width: 0.8; stroke-linejoin: miter; stroke-linecap: square"/>   </g>   <g id="patch_5">    <path d="M 46.965625 241.598125 L 705.295625 241.598125 " style="fill: none; stroke: #000000; stroke-width: 0.8; stroke-linejoin: miter; stroke-linecap: square"/>   </g>   <g id="patch_6">    <path d="M 46.965625 22.798125 L 705.295625 22.798125 " style="fill: none; stroke: #000000; stroke-width: 0.8; stroke-linejoin: miter; stroke-linecap: square"/>   </g>   <g id="text_18">    <text style="font-size: 12px; font-family: 'DejaVu Sans', 'Bitstream Vera Sans', 'Computer Modern Sans Serif', 'Lucida Grande', 'Verdana', 'Geneva', 'Lucid', 'Arial', 'Helvetica', 'Avant Garde', sans-serif; text-anchor: middle" x="376.130625" y="16.798125" transform="rotate(-0 376.130625 16.798125)">Simulação de Escalonamento por Loteria: Convergência para a Proporção Ideal</text>   </g>   <g id="legend_1">    <g id="patch_7">     <path d="M 578.878438 74.8325 L 698.295625 74.8325 Q 700.295625 74.8325 700.295625 72.8325 L 700.295625 29.798125 Q 700.295625 27.798125 698.295625 27.798125 L 578.878438 27.798125 Q 576.878438 27.798125 576.878438 29.798125 L 576.878438 72.8325 Q 576.878438 74.8325 578.878438 74.8325 z" style="fill: #ffffff; opacity: 0.8; stroke: #cccccc; stroke-linejoin: miter"/>    </g>    <g id="line2d_37">     <path d="M 580.878438 35.896562 L 590.878438 35.896562 L 600.878438 35.896562 " style="fill: none; stroke: #1f77b4; stroke-width: 1.5; stroke-linecap: square"/>    </g>    <g id="text_19">     <text style="font-size: 10px; font-family: 'DejaVu Sans', 'Bitstream Vera Sans', 'Computer Modern Sans Serif', 'Lucida Grande', 'Verdana', 'Geneva', 'Lucid', 'Arial', 'Helvetica', 'Avant Garde', sans-serif; text-anchor: start" x="608.878438" y="39.396562" transform="rotate(-0 608.878438 39.396562)">Processo A (50%)</text>    </g>    <g id="line2d_38">     <path d="M 580.878438 50.574687 L 590.878438 50.574687 L 600.878438 50.574687 " style="fill: none; stroke: #ff7f0e; stroke-width: 1.5; stroke-linecap: square"/>    </g>    <g id="text_20">     <text style="font-size: 10px; font-family: 'DejaVu Sans', 'Bitstream Vera Sans', 'Computer Modern Sans Serif', 'Lucida Grande', 'Verdana', 'Geneva', 'Lucid', 'Arial', 'Helvetica', 'Avant Garde', sans-serif; text-anchor: start" x="608.878438" y="54.074687" transform="rotate(-0 608.878438 54.074687)">Processo B (20%)</text>    </g>    <g id="line2d_39">     <path d="M 580.878438 65.252813 L 590.878438 65.252813 L 600.878438 65.252813 " style="fill: none; stroke: #2ca02c; stroke-width: 1.5; stroke-linecap: square"/>    </g>    <g id="text_21">     <text style="font-size: 10px; font-family: 'DejaVu Sans', 'Bitstream Vera Sans', 'Computer Modern Sans Serif', 'Lucida Grande', 'Verdana', 'Geneva', 'Lucid', 'Arial', 'Helvetica', 'Avant Garde', sans-serif; text-anchor: start" x="608.878438" y="68.752813" transform="rotate(-0 608.878438 68.752813)">Processo C (30%)</text>    </g>   </g>  </g> </g> <defs>  <clipPath id="pbcd861b76d">   <rect x="46.965625" y="22.798125" width="658.33" height="218.8"/>  </clipPath> </defs></svg>