<?xml version="1.0" encoding="utf-8" standalone="no"?><!DOCTYPE svg PUBLIC "-//W3C//DTD SVG 1.1//EN"  "http://www.w3.org/Graphics/SVG/1.1/DTD/svg11.dtd"><svg xmlns:xlink="http://www.w3.org/1999/xlink" width="116.376pt" height="59.76pt" viewBox="0 0 116.376 59.76" xmlns="http://www.w3.org/2000/svg" version="1.1"> <metadata>  <rdf:RDF xmlns:dc="http://purl.org/dc/elements/1.1/" xmlns:cc="http://creativecommons.org/ns#" xmlns:rdf="http://www.w3.org/1999/02/22-rdf-syntax-ns#">   <cc:Work>    <dc:type rdf:resource="http://purl.org/dc/dcmitype/StillImage"/>    <dc:date>2026-03-29T21:19:38.896793</dc:date>    <dc:format>image/svg+xml</dc:format>    <dc:creator>     <cc:Agent>      <dc:title>Matplotlib v3.10.8, https://matplotlib.org/</dc:title>     </cc:Agent>    </dc:creator>   </cc:Work>  </rdf:RDF> </metadata> <defs>  <style type="text/css">*{stroke-linejoin: round; stroke-linecap: butt}</style> </defs> <g id="figure_1">  <g id="patch_1">   <path d="M 0 59.76 L 141.633333 59.76 L 141.633333 -3.24 L 0 -3.24 z" style="fill: #ffffff"/>  </g>  <g id="axes_1">   <g id="patch_2">    <path d="M 105.566667 34.26 C 107.157885 34.26 108.684146 33.627802 109.809307 32.502641 C 110.934469 31.377479 111.566667 29.851219 111.566667 28.26 C 111.566667 26.668781 110.934469 25.142521 109.809307 24.017359 C 108.684146 22.892198 107.157885 22.26 105.566667 22.26 C 103.975448 22.26 102.449187 22.892198 101.324026 24.017359 C 100.198865 25.142521 99.566667 26.668781 99.566667 28.26 C 99.566667 29.851219 100.198865 31.377479 101.324026 32.502641 C 102.449187 33.627802 103.975448 34.26 105.566667 34.26 L 105.566667 34.26 z" clip-path="url(#pd38ce77157)" style="fill: none; stroke: #000000; stroke-width: 2; stroke-linejoin: miter"/>   </g>   <g id="line2d_1">    <path d="M 74.566667 53.26 L 76.168422 53.208635 L 77.763596 53.05475 L 79.345632 52.798979 L 80.908031 52.442372 L 82.444372 51.986394 L 83.948342 51.432919 L 85.41376 50.784222 L 86.834605 50.042968 L 88.205039 49.212203 L 89.51943 48.295341 L 90.772377 47.296149 L 91.95873 46.218734 L 93.073617 45.067522 L 94.112454 43.847245 L 95.070973 42.562917 L 95.945236 41.219814 L 96.731649 39.823457 L 97.426982 38.379584 L 98.028377 36.894126 L 98.533363 35.37319 L 98.939864 33.823023 L 99.246211 32.249997 L 99.451144 30.660576 L 99.553822 29.061289 L 99.553822 27.458711 L 99.451144 25.859424 L 99.246211 24.270003 L 98.939864 22.696977 L 98.533363 21.14681 L 98.028377 19.625874 L 97.426982 18.140416 L 96.731649 16.696543 L 95.945236 15.300186 L 95.070973 13.957083 L 94.112454 12.672755 L 93.073617 11.452478 L 91.95873 10.301266 L 90.772377 9.223851 L 89.51943 8.224659 L 88.205039 7.307797 L 86.834605 6.477032 L 85.41376 5.735778 L 83.948342 5.087081 L 82.444372 4.533606 L 80.908031 4.077628 L 79.345632 3.721021 L 77.763596 3.46525 L 76.168422 3.311365 L 74.566667 3.26 L 74.566667 3.26 L 42.066667 3.26 L 42.066667 28.26 L 42.066667 53.26 L 74.566667 53.26 " clip-path="url(#pd38ce77157)" style="fill: none; stroke: #000000; stroke-width: 2; stroke-linecap: round"/>   </g>   <g id="line2d_2">    <path d="M 24.566667 40.76 L 42.066667 40.76 " clip-path="url(#pd38ce77157)" style="fill: none; stroke: #000000; stroke-width: 2; stroke-linecap: round"/>   </g>   <g id="line2d_3">    <path d="M 24.566667 15.76 L 42.066667 15.76 " clip-path="url(#pd38ce77157)" style="fill: none; stroke: #000000; stroke-width: 2; stroke-linecap: round"/>   </g>   <g id="line2d_4">    <path d="M 111.566667 28.26 L 117.066667 28.26 " clip-path="url(#pd38ce77157)" style="fill: none; stroke: #000000; stroke-width: 2; stroke-linecap: round"/>   </g>   <g id="text_1">    <text style="font-size: 14px; font-family: 'DejaVu Sans', 'Bitstream Vera Sans', 'Computer Modern Sans Serif', 'Lucida Grande', 'Verdana', 'Geneva', 'Lucid', 'Arial', 'Helvetica', 'Avant Garde', sans-serif; text-anchor: start" x="122.066667" y="32.123125" transform="rotate(-0 122.066667 32.123125)">S</text>   </g>   <g id="text_2">    <text style="font-size: 14px; font-family: 'DejaVu Sans', 'Bitstream Vera Sans', 'Computer Modern Sans Serif', 'Lucida Grande', 'Verdana', 'Geneva', 'Lucid', 'Arial', 'Helvetica', 'Avant Garde', sans-serif; text-anchor: end" x="19.566667" y="19.623125" transform="rotate(-0 19.566667 19.623125)">A</text>   </g>   <g id="text_3">    <text style="font-size: 14px; font-family: 'DejaVu Sans', 'Bitstream Vera Sans', 'Computer Modern Sans Serif', 'Lucida Grande', 'Verdana', 'Geneva', 'Lucid', 'Arial', 'Helvetica', 'Avant Garde', sans-serif; text-anchor: end" x="19.566667" y="44.623125" transform="rotate(-0 19.566667 44.623125)">B</text>   </g>  </g> </g> <defs>  <clipPath id="pd38ce77157">   <rect x="0" y="-3.24" width="141.633333" height="63"/>  </clipPath> </defs></svg>