<?xml version="1.0" encoding="utf-8" standalone="no"?><!DOCTYPE svg PUBLIC "-//W3C//DTD SVG 1.1//EN"  "http://www.w3.org/Graphics/SVG/1.1/DTD/svg11.dtd"><svg xmlns:xlink="http://www.w3.org/1999/xlink" width="406.608pt" height="158.76pt" viewBox="0 0 406.608 158.76" xmlns="http://www.w3.org/2000/svg" version="1.1"> <metadata>  <rdf:RDF xmlns:dc="http://purl.org/dc/elements/1.1/" xmlns:cc="http://creativecommons.org/ns#" xmlns:rdf="http://www.w3.org/1999/02/22-rdf-syntax-ns#">   <cc:Work>    <dc:type rdf:resource="http://purl.org/dc/dcmitype/StillImage"/>    <dc:date>2026-03-31T11:00:55.547447</dc:date>    <dc:format>image/svg+xml</dc:format>    <dc:creator>     <cc:Agent>      <dc:title>Matplotlib v3.10.8, https://matplotlib.org/</dc:title>     </cc:Agent>    </dc:creator>   </cc:Work>  </rdf:RDF> </metadata> <defs>  <style type="text/css">*{stroke-linejoin: round; stroke-linecap: butt}</style> </defs> <g id="figure_1">  <g id="patch_1">   <path d="M 0 158.76 L 544.733333 158.76 L 544.733333 -41.74 L 0 -41.74 z" style="fill: #ffffff"/>  </g>  <g id="axes_1">   <g id="patch_2">    <path d="M 113.066667 -4.24 C 114.657885 -4.24 116.184146 -4.872198 117.309307 -5.997359 C 118.434469 -7.122521 119.066667 -8.648781 119.066667 -10.24 C 119.066667 -11.831219 118.434469 -13.357479 117.309307 -14.482641 C 116.184146 -15.607802 114.657885 -16.24 113.066667 -16.24 C 111.475448 -16.24 109.949187 -15.607802 108.824026 -14.482641 C 107.698865 -13.357479 107.066667 -11.831219 107.066667 -10.24 C 107.066667 -8.648781 107.698865 -7.122521 108.824026 -5.997359 C 109.949187 -4.872198 111.475448 -4.24 113.066667 -4.24 " clip-path="url(#p671328cd46)" style="fill: none; stroke: #333333; stroke-width: 2; stroke-linejoin: miter"/>   </g>   <g id="line2d_1">    <path clip-path="url(#p671328cd46)" style="fill: none; stroke: #333333; stroke-width: 2; stroke-linecap: round"/>   </g>   <g id="line2d_2">    <path clip-path="url(#p671328cd46)" style="fill: none; stroke: #333333; stroke-width: 2; stroke-linecap: round"/>   </g>   <g id="line2d_3">    <path d="M 95.054667 -1 L 74.566667 14.76 L 74.566667 -1 " clip-path="url(#p671328cd46)" style="fill: none; stroke: #333333; stroke-width: 2; stroke-linecap: round"/>   </g>   <g id="line2d_4">    <path d="M 274.566667 27.26 L 276.168422 27.208635 L 277.763596 27.05475 L 279.345632 26.798979 L 280.908031 26.442372 L 282.444372 25.986394 L 283.948342 25.432919 L 285.41376 24.784222 L 286.834605 24.042968 L 288.205039 23.212203 L 289.51943 22.295341 L 290.772377 21.296149 L 291.95873 20.218734 L 293.073617 19.067522 L 294.112454 17.847245 L 295.070973 16.562917 L 295.945236 15.219814 L 296.731649 13.823457 L 297.426982 12.379584 L 298.028377 10.894126 L 298.533363 9.37319 L 298.939864 7.823023 L 299.246211 6.249997 L 299.451144 4.660576 L 299.553822 3.061289 L 299.553822 1.458711 L 299.451144 -0.140576 L 299.340334 -1 M 242.066667 -1 L 242.066667 2.26 L 242.066667 27.26 L 274.566667 27.26 " clip-path="url(#p671328cd46)" style="fill: none; stroke: #333333; stroke-width: 2; stroke-linecap: round"/>   </g>   <g id="line2d_5">    <path d="M 224.566667 14.76 L 242.066667 14.76 " clip-path="url(#p671328cd46)" style="fill: none; stroke: #333333; stroke-width: 2; stroke-linecap: round"/>   </g>   <g id="line2d_6">    <path clip-path="url(#p671328cd46)" style="fill: none; stroke: #333333; stroke-width: 2; stroke-linecap: round"/>   </g>   <g id="line2d_7">    <path d="M 299.566667 2.26 L 317.066667 2.26 " clip-path="url(#p671328cd46)" style="fill: none; stroke: #333333; stroke-width: 2; stroke-linecap: round"/>   </g>   <g id="line2d_8">    <path d="M 274.566667 152.26 L 276.168422 152.208635 L 277.763596 152.05475 L 279.345632 151.798979 L 280.908031 151.442372 L 282.444372 150.986394 L 283.948342 150.432919 L 285.41376 149.784222 L 286.834605 149.042968 L 288.205039 148.212203 L 289.51943 147.295341 L 290.772377 146.296149 L 291.95873 145.218734 L 293.073617 144.067522 L 294.112454 142.847245 L 295.070973 141.562917 L 295.945236 140.219814 L 296.731649 138.823457 L 297.426982 137.379584 L 298.028377 135.894126 L 298.533363 134.37319 L 298.939864 132.823023 L 299.246211 131.249997 L 299.451144 129.660576 L 299.553822 128.061289 L 299.553822 126.458711 L 299.451144 124.859424 L 299.246211 123.270003 L 298.939864 121.696977 L 298.533363 120.14681 L 298.028377 118.625874 L 297.426982 117.140416 L 296.731649 115.696543 L 295.945236 114.300186 L 295.070973 112.957083 L 294.112454 111.672755 L 293.073617 110.452478 L 291.95873 109.301266 L 290.772377 108.223851 L 289.51943 107.224659 L 288.205039 106.307797 L 286.834605 105.477032 L 285.41376 104.735778 L 283.948342 104.087081 L 282.444372 103.533606 L 280.908031 103.077628 L 279.345632 102.721021 L 277.763596 102.46525 L 276.168422 102.311365 L 274.566667 102.26 L 274.566667 102.26 L 242.066667 102.26 L 242.066667 127.26 L 242.066667 152.26 L 274.566667 152.26 " clip-path="url(#p671328cd46)" style="fill: none; stroke: #333333; stroke-width: 2; stroke-linecap: round"/>   </g>   <g id="line2d_9">    <path d="M 224.566667 139.76 L 242.066667 139.76 " clip-path="url(#p671328cd46)" style="fill: none; stroke: #333333; stroke-width: 2; stroke-linecap: round"/>   </g>   <g id="line2d_10">    <path d="M 224.566667 114.76 L 242.066667 114.76 " clip-path="url(#p671328cd46)" style="fill: none; stroke: #333333; stroke-width: 2; stroke-linecap: round"/>   </g>   <g id="line2d_11">    <path d="M 299.566667 127.26 L 317.066667 127.26 " clip-path="url(#p671328cd46)" style="fill: none; stroke: #333333; stroke-width: 2; stroke-linecap: round"/>   </g>   <g id="line2d_12">    <path clip-path="url(#p671328cd46)" style="fill: none; stroke: #333333; stroke-width: 2; stroke-linecap: round"/>   </g>   <g id="line2d_13">    <path clip-path="url(#p671328cd46)" style="fill: none; stroke: #333333; stroke-width: 2; stroke-linecap: round"/>   </g>   <g id="line2d_14">    <path d="M 24.566667 14.76 L 99.566667 14.76 L 174.566667 14.76 " clip-path="url(#p671328cd46)" style="fill: none; stroke: #333333; stroke-width: 2; stroke-linecap: round"/>   </g>   <g id="line2d_15">    <path d="M 174.566667 14.76 L 199.566667 14.76 L 224.566667 14.76 " clip-path="url(#p671328cd46)" style="fill: none; stroke: #333333; stroke-width: 2; stroke-linecap: round"/>   </g>   <g id="line2d_16">    <path d="M 174.566667 14.76 L 174.566667 64.76 L 174.566667 114.76 " clip-path="url(#p671328cd46)" style="fill: none; stroke: #333333; stroke-width: 2; stroke-linecap: round"/>   </g>   <g id="line2d_17">    <path d="M 174.566667 114.76 L 199.566667 114.76 L 224.566667 114.76 " clip-path="url(#p671328cd46)" style="fill: none; stroke: #333333; stroke-width: 2; stroke-linecap: round"/>   </g>   <g id="line2d_18">    <path d="M 24.566667 139.76 L 124.566667 139.76 L 224.566667 139.76 " clip-path="url(#p671328cd46)" style="fill: none; stroke: #333333; stroke-width: 2; stroke-linecap: round"/>   </g>   <g id="line2d_19">    <path d="M 0 0 " clip-path="url(#p671328cd46)" style="fill: none; stroke: #333333; stroke-width: 2; stroke-linecap: round"/>   </g>   <g id="line2d_20">    <path d="M 399.566667 77.26 L 407.608 77.26 " clip-path="url(#p671328cd46)" style="fill: none; stroke: #333333; stroke-width: 2; stroke-linecap: round"/>   </g>   <g id="line2d_21">    <path d="M 399.566667 52.26 L 407.608 52.26 " clip-path="url(#p671328cd46)" style="fill: none; stroke: #333333; stroke-width: 2; stroke-linecap: round"/>   </g>   <g id="line2d_22">    <path clip-path="url(#p671328cd46)" style="fill: none; stroke: #333333; stroke-width: 2; stroke-linecap: round"/>   </g>   <g id="line2d_23">    <path d="M 317.066667 2.26 L 337.066667 2.26 L 357.066667 2.26 " clip-path="url(#p671328cd46)" style="fill: none; stroke: #333333; stroke-width: 2; stroke-linecap: round"/>   </g>   <g id="line2d_24">    <path d="M 357.066667 2.26 L 378.316667 2.26 L 399.566667 2.26 " clip-path="url(#p671328cd46)" style="fill: none; stroke: #333333; stroke-width: 2; stroke-linecap: round"/>   </g>   <g id="line2d_25">    <path d="M 399.566667 2.26 L 399.566667 27.26 L 399.566667 52.26 " clip-path="url(#p671328cd46)" style="fill: none; stroke: #333333; stroke-width: 2; stroke-linecap: round"/>   </g>   <g id="line2d_26">    <path d="M 317.066667 127.26 L 337.066667 127.26 L 357.066667 127.26 " clip-path="url(#p671328cd46)" style="fill: none; stroke: #333333; stroke-width: 2; stroke-linecap: round"/>   </g>   <g id="line2d_27">    <path d="M 357.066667 127.26 L 378.316667 127.26 L 399.566667 127.26 " clip-path="url(#p671328cd46)" style="fill: none; stroke: #333333; stroke-width: 2; stroke-linecap: round"/>   </g>   <g id="line2d_28">    <path d="M 399.566667 127.26 L 399.566667 102.26 L 399.566667 77.26 " clip-path="url(#p671328cd46)" style="fill: none; stroke: #333333; stroke-width: 2; stroke-linecap: round"/>   </g>   <g id="line2d_29">    <path clip-path="url(#p671328cd46)" style="fill: none; stroke: #333333; stroke-width: 2; stroke-linecap: round"/>   </g>   <g id="text_1">    <text style="font-size: 14px; font-family: 'DejaVu Sans', 'Bitstream Vera Sans', 'Computer Modern Sans Serif', 'Lucida Grande', 'Verdana', 'Geneva', 'Lucid', 'Arial', 'Helvetica', 'Avant Garde', sans-serif; text-anchor: end; fill: #333333" x="19.566667" y="-6.376875" transform="rotate(-0 19.566667 -6.376875)">A</text>   </g>   <g id="text_2">    <!-- $u = \overline{A}$ -->    <g style="fill: #333333" transform="translate(113.716667 -18.151563)">     <text>      <tspan x="0" y="-0.331875" style="font-style: oblique; font-size: 14px; font-family: 'DejaVu Sans'; fill: #333333">u</tspan>      <tspan x="26.058594" y="0.078125" style="font-style: oblique; font-size: 14px; font-family: 'DejaVu Sans'; fill: #333333">A</tspan>      <tspan x="11.600586" y="-0.331875" style="font-size: 14px; font-family: 'DejaVu Sans'; fill: #333333">=</tspan>     </text>     <rect x="26.058594" y="-13.25" width="9.577148" height="0.875"/>    </g>   </g>   <g id="text_3">    <text style="font-size: 14px; font-family: 'DejaVu Sans', 'Bitstream Vera Sans', 'Computer Modern Sans Serif', 'Lucida Grande', 'Verdana', 'Geneva', 'Lucid', 'Arial', 'Helvetica', 'Avant Garde', sans-serif; text-anchor: end; fill: #333333" x="19.566667" y="18.623125" transform="rotate(-0 19.566667 18.623125)">B</text>   </g>   <g id="text_4">    <text style="font-size: 14px; font-family: 'DejaVu Sans', 'Bitstream Vera Sans', 'Computer Modern Sans Serif', 'Lucida Grande', 'Verdana', 'Geneva', 'Lucid', 'Arial', 'Helvetica', 'Avant Garde', sans-serif; text-anchor: end; fill: #333333" x="19.566667" y="143.623125" transform="rotate(-0 19.566667 143.623125)">C</text>   </g>   <g id="text_5">    <!-- $v = \overline{A}B$ -->    <g style="fill: #333333" transform="translate(314.736667 -5.651563)">     <text>      <tspan x="0" y="-0.331875" style="font-style: oblique; font-size: 14px; font-family: 'DejaVu Sans'; fill: #333333">v</tspan>      <tspan x="25.470703" y="0.078125" style="font-style: oblique; font-size: 14px; font-family: 'DejaVu Sans'; fill: #333333">A</tspan>      <tspan x="35.047852" y="-0.331875" style="font-style: oblique; font-size: 14px; font-family: 'DejaVu Sans'; fill: #333333">B</tspan>      <tspan x="11.012695" y="-0.331875" style="font-size: 14px; font-family: 'DejaVu Sans'; fill: #333333">=</tspan>     </text>     <rect x="25.470703" y="-13.25" width="9.577148" height="0.875"/>    </g>   </g>   <g id="text_6">    <!-- $w = BC$ -->    <g style="fill: #333333" transform="translate(313.056667 119.348437)">     <text>      <tspan x="0" y="-0.609375" style="font-style: oblique; font-size: 14px; font-family: 'DejaVu Sans'; fill: #333333">w</tspan>      <tspan x="28.635742" y="-0.609375" style="font-style: oblique; font-size: 14px; font-family: 'DejaVu Sans'; fill: #333333">B</tspan>      <tspan x="38.240234" y="-0.609375" style="font-style: oblique; font-size: 14px; font-family: 'DejaVu Sans'; fill: #333333">C</tspan>      <tspan x="14.177734" y="-0.609375" style="font-size: 14px; font-family: 'DejaVu Sans'; fill: #333333">=</tspan>     </text>    </g>   </g>   <g id="patch_3">    <path d="M 519.566667 68.51 C 520.561178 68.51 521.515091 68.114876 522.218317 67.41165 C 522.921543 66.708425 523.316667 65.754512 523.316667 64.76 C 523.316667 63.765488 522.921543 62.811575 522.218317 62.10835 C 521.515091 61.405124 520.561178 61.01 519.566667 61.01 C 518.572155 61.01 517.618242 61.405124 516.915016 62.10835 C 516.21179 62.811575 515.816667 63.765488 515.816667 64.76 C 515.816667 65.754512 516.21179 66.708425 516.915016 67.41165 C 517.618242 68.114876 518.572155 68.51 519.566667 68.51 z" clip-path="url(#p671328cd46)" style="fill: #ffffff; stroke: #333333; stroke-width: 2; stroke-linejoin: miter"/>   </g>   <g id="text_7">    <text style="font-size: 14px; font-family: 'DejaVu Sans', 'Bitstream Vera Sans', 'Computer Modern Sans Serif', 'Lucida Grande', 'Verdana', 'Geneva', 'Lucid', 'Arial', 'Helvetica', 'Avant Garde', sans-serif; text-anchor: start; fill: #333333" x="528.316667" y="68.623125" transform="rotate(-0 528.316667 68.623125)">x</text>   </g>   <g id="patch_4">    <path d="M 174.566667 18.51 C 175.561178 18.51 176.515091 18.114876 177.218317 17.41165 C 177.921543 16.708425 178.316667 15.754512 178.316667 14.76 C 178.316667 13.765488 177.921543 12.811575 177.218317 12.10835 C 176.515091 11.405124 175.561178 11.01 174.566667 11.01 C 173.572155 11.01 172.618242 11.405124 171.915016 12.10835 C 171.21179 12.811575 170.816667 13.765488 170.816667 14.76 C 170.816667 15.754512 171.21179 16.708425 171.915016 17.41165 C 172.618242 18.114876 173.572155 18.51 174.566667 18.51 z" clip-path="url(#p671328cd46)" style="fill: #333333; stroke: #333333; stroke-width: 2; stroke-linejoin: miter"/>   </g>   <g id="patch_5">    <path d="M 174.566667 118.51 C 175.561178 118.51 176.515091 118.114876 177.218317 117.41165 C 177.921543 116.708425 178.316667 115.754512 178.316667 114.76 C 178.316667 113.765488 177.921543 112.811575 177.218317 112.10835 C 176.515091 111.405124 175.561178 111.01 174.566667 111.01 C 173.572155 111.01 172.618242 111.405124 171.915016 112.10835 C 171.21179 112.811575 170.816667 113.765488 170.816667 114.76 C 170.816667 115.754512 171.21179 116.708425 171.915016 117.41165 C 172.618242 118.114876 173.572155 118.51 174.566667 118.51 z" clip-path="url(#p671328cd46)" style="fill: #333333; stroke: #333333; stroke-width: 2; stroke-linejoin: miter"/>   </g>  </g> </g> <defs>  <clipPath id="p671328cd46">   <rect x="0" y="-41.74" width="544.733333" height="200.5"/>  </clipPath> </defs></svg>