<?xml version="1.0" encoding="utf-8" standalone="no"?><!DOCTYPE svg PUBLIC "-//W3C//DTD SVG 1.1//EN"  "http://www.w3.org/Graphics/SVG/1.1/DTD/svg11.dtd"><svg xmlns:xlink="http://www.w3.org/1999/xlink" width="331.908pt" height="72.9pt" viewBox="0 0 331.908 72.9" xmlns="http://www.w3.org/2000/svg" version="1.1"> <metadata>  <rdf:RDF xmlns:dc="http://purl.org/dc/elements/1.1/" xmlns:cc="http://creativecommons.org/ns#" xmlns:rdf="http://www.w3.org/1999/02/22-rdf-syntax-ns#">   <cc:Work>    <dc:type rdf:resource="http://purl.org/dc/dcmitype/StillImage"/>    <dc:date>2026-03-29T21:19:39.930786</dc:date>    <dc:format>image/svg+xml</dc:format>    <dc:creator>     <cc:Agent>      <dc:title>Matplotlib v3.10.8, https://matplotlib.org/</dc:title>     </cc:Agent>    </dc:creator>   </cc:Work>  </rdf:RDF> </metadata> <defs>  <style type="text/css">*{stroke-linejoin: round; stroke-linecap: butt}</style> </defs> <g id="figure_1">  <g id="patch_1">   <path d="M 0 72.9 L 440.983333 72.9 L 440.983333 -8.35 L 0 -8.35 z" style="fill: #ffffff"/>  </g>  <g id="axes_1">   <g id="line2d_1">    <path clip-path="url(#p74a99abd56)" style="fill: none; stroke: #000000; stroke-width: 2; stroke-linecap: round"/>   </g>   <g id="line2d_2">    <path d="M 327.066667 53.9 L 332.908 53.9 " clip-path="url(#p74a99abd56)" style="fill: none; stroke: #000000; stroke-width: 2; stroke-linecap: round"/>   </g>   <g id="line2d_3">    <path d="M 327.066667 28.9 L 332.908 28.9 " clip-path="url(#p74a99abd56)" style="fill: none; stroke: #000000; stroke-width: 2; stroke-linecap: round"/>   </g>   <g id="line2d_4">    <path clip-path="url(#p74a99abd56)" style="fill: none; stroke: #000000; stroke-width: 2; stroke-linecap: round"/>   </g>   <g id="line2d_5">    <path d="M 242.066667 47.15 L 269.209524 47.058163 L 271.352381 46.782653 L 273.495238 46.323469 L 275.638095 45.680612 L 277.780952 44.854082 L 279.92381 43.843878 L 282.780952 42.211224 L 285.638095 40.252041 L 288.495238 37.966327 L 291.352381 35.354082 L 294.209524 32.415306 L 297.066667 29.15 L 299.92381 25.558163 L 302.066667 22.65 L 302.066667 22.65 L 299.209524 18.813265 L 296.352381 15.303061 L 293.495238 12.119388 L 290.638095 9.262245 L 287.780952 6.731633 L 284.92381 4.527551 L 282.066667 2.65 L 279.209524 1.09898 L 276.352381 -0.12551 L 273.581704 -1 M 242.882667 -1 L 244.826667 1.15 L 247.226667 4.15 L 249.266667 7.15 L 250.946667 10.15 L 252.266667 13.15 L 252.946667 15.15 L 253.466667 17.15 L 253.826667 19.15 L 254.026667 21.15 L 254.066667 23.15 L 253.946667 25.15 L 253.666667 27.15 L 253.226667 29.15 L 252.626667 31.15 L 251.866667 33.15 L 250.426667 36.15 L 248.626667 39.15 L 246.466667 42.15 L 243.946667 45.15 L 242.066667 47.15 L 242.066667 47.15 " clip-path="url(#p74a99abd56)" style="fill: none; stroke: #000000; stroke-width: 2; stroke-linecap: round"/>   </g>   <g id="line2d_6">    <path d="M 224.566667 35.15 L 250.946667 35.15 " clip-path="url(#p74a99abd56)" style="fill: none; stroke: #000000; stroke-width: 2; stroke-linecap: round"/>   </g>   <g id="line2d_7">    <path d="M 224.566667 10.15 L 250.946667 10.15 " clip-path="url(#p74a99abd56)" style="fill: none; stroke: #000000; stroke-width: 2; stroke-linecap: round"/>   </g>   <g id="line2d_8">    <path d="M 302.066667 22.65 L 319.566667 22.65 " clip-path="url(#p74a99abd56)" style="fill: none; stroke: #000000; stroke-width: 2; stroke-linecap: round"/>   </g>   <g id="line2d_9">    <path d="M 177.066667 66.4 L 178.668422 66.348635 L 180.263596 66.19475 L 181.845632 65.938979 L 183.408031 65.582372 L 184.944372 65.126394 L 186.448342 64.572919 L 187.91376 63.924222 L 189.334605 63.182968 L 190.705039 62.352203 L 192.01943 61.435341 L 193.272377 60.436149 L 194.45873 59.358734 L 195.573617 58.207522 L 196.612454 56.987245 L 197.570973 55.702917 L 198.445236 54.359814 L 199.231649 52.963457 L 199.926982 51.519584 L 200.528377 50.034126 L 201.033363 48.51319 L 201.439864 46.963023 L 201.746211 45.389997 L 201.951144 43.800576 L 202.053822 42.201289 L 202.053822 40.598711 L 201.951144 38.999424 L 201.746211 37.410003 L 201.439864 35.836977 L 201.033363 34.28681 L 200.528377 32.765874 L 199.926982 31.280416 L 199.231649 29.836543 L 198.445236 28.440186 L 197.570973 27.097083 L 196.612454 25.812755 L 195.573617 24.592478 L 194.45873 23.441266 L 193.272377 22.363851 L 192.01943 21.364659 L 190.705039 20.447797 L 189.334605 19.617032 L 187.91376 18.875778 L 186.448342 18.227081 L 184.944372 17.673606 L 183.408031 17.217628 L 181.845632 16.861021 L 180.263596 16.60525 L 178.668422 16.451365 L 177.066667 16.4 L 177.066667 16.4 L 144.566667 16.4 L 144.566667 41.4 L 144.566667 66.4 L 177.066667 66.4 " clip-path="url(#p74a99abd56)" style="fill: none; stroke: #000000; stroke-width: 2; stroke-linecap: round"/>   </g>   <g id="line2d_10">    <path d="M 127.066667 53.9 L 144.566667 53.9 " clip-path="url(#p74a99abd56)" style="fill: none; stroke: #000000; stroke-width: 2; stroke-linecap: round"/>   </g>   <g id="line2d_11">    <path d="M 127.066667 28.9 L 144.566667 28.9 " clip-path="url(#p74a99abd56)" style="fill: none; stroke: #000000; stroke-width: 2; stroke-linecap: round"/>   </g>   <g id="line2d_12">    <path d="M 202.066667 41.4 L 219.566667 41.4 " clip-path="url(#p74a99abd56)" style="fill: none; stroke: #000000; stroke-width: 2; stroke-linecap: round"/>   </g>   <g id="line2d_13">    <path d="M 42.066667 47.15 L 69.209524 47.058163 L 71.352381 46.782653 L 73.495238 46.323469 L 75.638095 45.680612 L 77.780952 44.854082 L 79.92381 43.843878 L 82.780952 42.211224 L 85.638095 40.252041 L 88.495238 37.966327 L 91.352381 35.354082 L 94.209524 32.415306 L 97.066667 29.15 L 99.92381 25.558163 L 102.066667 22.65 L 102.066667 22.65 L 99.209524 18.813265 L 96.352381 15.303061 L 93.495238 12.119388 L 90.638095 9.262245 L 87.780952 6.731633 L 84.92381 4.527551 L 82.066667 2.65 L 79.209524 1.09898 L 76.352381 -0.12551 L 73.581704 -1 M 42.882667 -1 L 44.826667 1.15 L 47.226667 4.15 L 49.266667 7.15 L 50.946667 10.15 L 52.266667 13.15 L 52.946667 15.15 L 53.466667 17.15 L 53.826667 19.15 L 54.026667 21.15 L 54.066667 23.15 L 53.946667 25.15 L 53.666667 27.15 L 53.226667 29.15 L 52.626667 31.15 L 51.866667 33.15 L 50.426667 36.15 L 48.626667 39.15 L 46.466667 42.15 L 43.946667 45.15 L 42.066667 47.15 L 42.066667 47.15 " clip-path="url(#p74a99abd56)" style="fill: none; stroke: #000000; stroke-width: 2; stroke-linecap: round"/>   </g>   <g id="line2d_14">    <path d="M 24.566667 35.15 L 50.946667 35.15 " clip-path="url(#p74a99abd56)" style="fill: none; stroke: #000000; stroke-width: 2; stroke-linecap: round"/>   </g>   <g id="line2d_15">    <path d="M 24.566667 10.15 L 50.946667 10.15 " clip-path="url(#p74a99abd56)" style="fill: none; stroke: #000000; stroke-width: 2; stroke-linecap: round"/>   </g>   <g id="line2d_16">    <path d="M 102.066667 22.65 L 119.566667 22.65 " clip-path="url(#p74a99abd56)" style="fill: none; stroke: #000000; stroke-width: 2; stroke-linecap: round"/>   </g>   <g id="line2d_17">    <path d="M 127.066667 28.9 L 119.566667 28.9 L 119.566667 22.65 " clip-path="url(#p74a99abd56)" style="fill: none; stroke: #000000; stroke-width: 2; stroke-linecap: round"/>   </g>   <g id="line2d_18">    <path d="M 224.566667 35.15 L 219.566667 35.15 L 219.566667 41.4 " clip-path="url(#p74a99abd56)" style="fill: none; stroke: #000000; stroke-width: 2; stroke-linecap: round"/>   </g>   <g id="line2d_19">    <path d="M 327.066667 28.9 L 319.566667 28.9 L 319.566667 22.65 " clip-path="url(#p74a99abd56)" style="fill: none; stroke: #000000; stroke-width: 2; stroke-linecap: round"/>   </g>   <g id="text_1">    <text style="font-size: 14px; font-family: 'DejaVu Sans', 'Bitstream Vera Sans', 'Computer Modern Sans Serif', 'Lucida Grande', 'Verdana', 'Geneva', 'Lucid', 'Arial', 'Helvetica', 'Avant Garde', sans-serif; text-anchor: start" x="424.566667" y="45.263125" transform="rotate(-0 424.566667 45.263125)">x</text>   </g>   <g id="text_2">    <text style="font-size: 14px; font-family: 'DejaVu Sans', 'Bitstream Vera Sans', 'Computer Modern Sans Serif', 'Lucida Grande', 'Verdana', 'Geneva', 'Lucid', 'Arial', 'Helvetica', 'Avant Garde', sans-serif; text-anchor: end" x="322.066667" y="57.763125" transform="rotate(-0 322.066667 57.763125)">E</text>   </g>   <g id="text_3">    <text style="font-size: 14px; font-family: 'DejaVu Sans', 'Bitstream Vera Sans', 'Computer Modern Sans Serif', 'Lucida Grande', 'Verdana', 'Geneva', 'Lucid', 'Arial', 'Helvetica', 'Avant Garde', sans-serif; text-anchor: end" x="219.566667" y="14.013125" transform="rotate(-0 219.566667 14.013125)">D</text>   </g>   <g id="text_4">    <text style="font-size: 14px; font-family: 'DejaVu Sans', 'Bitstream Vera Sans', 'Computer Modern Sans Serif', 'Lucida Grande', 'Verdana', 'Geneva', 'Lucid', 'Arial', 'Helvetica', 'Avant Garde', sans-serif; text-anchor: end" x="122.066667" y="57.763125" transform="rotate(-0 122.066667 57.763125)">C</text>   </g>   <g id="text_5">    <text style="font-size: 14px; font-family: 'DejaVu Sans', 'Bitstream Vera Sans', 'Computer Modern Sans Serif', 'Lucida Grande', 'Verdana', 'Geneva', 'Lucid', 'Arial', 'Helvetica', 'Avant Garde', sans-serif; text-anchor: end" x="19.566667" y="14.013125" transform="rotate(-0 19.566667 14.013125)">A</text>   </g>   <g id="text_6">    <text style="font-size: 14px; font-family: 'DejaVu Sans', 'Bitstream Vera Sans', 'Computer Modern Sans Serif', 'Lucida Grande', 'Verdana', 'Geneva', 'Lucid', 'Arial', 'Helvetica', 'Avant Garde', sans-serif; text-anchor: end" x="19.566667" y="39.013125" transform="rotate(-0 19.566667 39.013125)">B</text>   </g>  </g> </g> <defs>  <clipPath id="p74a99abd56">   <rect x="0" y="-8.35" width="440.983333" height="81.25"/>  </clipPath> </defs></svg>