<svg width="332pt" height="239pt"
 viewBox="0.00 0.00 332.00 239.00" xmlns="http://www.w3.org/2000/svg" xmlns:xlink="http://www.w3.org/1999/xlink">
<g id="graph0" class="graph" transform="scale(1 1) rotate(0) translate(4 235)">
<title>AST</title>
<!-- ast_bb85c2b1_0 -->
<g id="node1" class="node">
<title>ast_bb85c2b1_0</title>
<path fill="none" stroke="#8a6cff" stroke-width="2" d="M222,-231C222,-231 192,-231 192,-231 186,-231 180,-225 180,-219 180,-219 180,-207 180,-207 180,-201 186,-195 192,-195 192,-195 222,-195 222,-195 228,-195 234,-201 234,-207 234,-207 234,-219 234,-219 234,-225 228,-231 222,-231"/>
<text xml:space="preserve" text-anchor="middle" x="207" y="-206.75" font-family="JetBrains Mono, Fira Code, Consolas, Helvetica" font-size="20.00" fill="#8a6cff">E</text>
</g>
<!-- ast_bb85c2b1_1 -->
<g id="node2" class="node">
<title>ast_bb85c2b1_1</title>
<path fill="none" stroke="#8a6cff" stroke-width="2" d="M132,-166C132,-166 102,-166 102,-166 96,-166 90,-160 90,-154 90,-154 90,-142 90,-142 90,-136 96,-130 102,-130 102,-130 132,-130 132,-130 138,-130 144,-136 144,-142 144,-142 144,-154 144,-154 144,-160 138,-166 132,-166"/>
<text xml:space="preserve" text-anchor="middle" x="117" y="-141.75" font-family="JetBrains Mono, Fira Code, Consolas, Helvetica" font-size="20.00" fill="#8a6cff">E</text>
</g>
<!-- ast_bb85c2b1_0&#45;&gt;ast_bb85c2b1_1 -->
<g id="edge1" class="edge">
<title>ast_bb85c2b1_0&#45;&gt;ast_bb85c2b1_1</title>
<path fill="none" stroke="#333333" stroke-width="1.5" d="M181.45,-194.12C171.66,-187.27 160.36,-179.35 149.98,-172.08"/>
<polygon fill="#333333" stroke="#333333" stroke-width="1.5" points="151.61,-170.24 144.47,-168.23 148.8,-174.25 151.61,-170.24"/>
</g>
<!-- ast_bb85c2b1_8 -->
<g id="node5" class="node">
<title>ast_bb85c2b1_8</title>
<path fill="none" stroke="#8a6cff" stroke-width="2" d="M312,-166C312,-166 282,-166 282,-166 276,-166 270,-160 270,-154 270,-154 270,-142 270,-142 270,-136 276,-130 282,-130 282,-130 312,-130 312,-130 318,-130 324,-136 324,-142 324,-142 324,-154 324,-154 324,-160 318,-166 312,-166"/>
<text xml:space="preserve" text-anchor="middle" x="297" y="-141.75" font-family="JetBrains Mono, Fira Code, Consolas, Helvetica" font-size="20.00" fill="#8a6cff">E</text>
</g>
<!-- ast_bb85c2b1_0&#45;&gt;ast_bb85c2b1_8 -->
<g id="edge8" class="edge">
<title>ast_bb85c2b1_0&#45;&gt;ast_bb85c2b1_8</title>
<path fill="none" stroke="#333333" stroke-width="1.5" d="M232.55,-194.12C242.34,-187.27 253.64,-179.35 264.02,-172.08"/>
<polygon fill="#333333" stroke="#333333" stroke-width="1.5" points="265.2,-174.25 269.53,-168.23 262.39,-170.24 265.2,-174.25"/>
</g>
<!-- ast_bb85c2b1_7 -->
<g id="node9" class="node">
<title>ast_bb85c2b1_7</title>
<path fill="none" stroke="none" stroke-width="2" d="M222,-166C222,-166 192,-166 192,-166 186,-166 180,-160 180,-154 180,-154 180,-142 180,-142 180,-136 186,-130 192,-130 192,-130 222,-130 222,-130 228,-130 234,-136 234,-142 234,-142 234,-154 234,-154 234,-160 228,-166 222,-166"/>
<text xml:space="preserve" text-anchor="middle" x="207" y="-141.75" font-family="JetBrains Mono, Fira Code, Consolas, Helvetica" font-size="20.00" fill="#333333">+</text>
</g>
<!-- ast_bb85c2b1_0&#45;&gt;ast_bb85c2b1_7 -->
<g id="edge7" class="edge">
<title>ast_bb85c2b1_0&#45;&gt;ast_bb85c2b1_7</title>
<path fill="none" stroke="#333333" stroke-width="1.5" d="M207,-194.12C207,-188.15 207,-181.38 207,-174.93"/>
<polygon fill="#333333" stroke="#333333" stroke-width="1.5" points="209.45,-175.12 207,-168.12 204.55,-175.12 209.45,-175.12"/>
</g>
<!-- ast_bb85c2b1_2 -->
<g id="node3" class="node">
<title>ast_bb85c2b1_2</title>
<path fill="none" stroke="#8a6cff" stroke-width="2" d="M42,-101C42,-101 12,-101 12,-101 6,-101 0,-95 0,-89 0,-89 0,-77 0,-77 0,-71 6,-65 12,-65 12,-65 42,-65 42,-65 48,-65 54,-71 54,-77 54,-77 54,-89 54,-89 54,-95 48,-101 42,-101"/>
<text xml:space="preserve" text-anchor="middle" x="27" y="-76.75" font-family="JetBrains Mono, Fira Code, Consolas, Helvetica" font-size="20.00" fill="#8a6cff">E</text>
</g>
<!-- ast_bb85c2b1_1&#45;&gt;ast_bb85c2b1_2 -->
<g id="edge2" class="edge">
<title>ast_bb85c2b1_1&#45;&gt;ast_bb85c2b1_2</title>
<path fill="none" stroke="#333333" stroke-width="1.5" d="M91.45,-129.12C81.66,-122.27 70.36,-114.35 59.98,-107.08"/>
<polygon fill="#333333" stroke="#333333" stroke-width="1.5" points="61.61,-105.24 54.47,-103.23 58.8,-109.25 61.61,-105.24"/>
</g>
<!-- ast_bb85c2b1_5 -->
<g id="node4" class="node">
<title>ast_bb85c2b1_5</title>
<path fill="none" stroke="#8a6cff" stroke-width="2" d="M222,-101C222,-101 192,-101 192,-101 186,-101 180,-95 180,-89 180,-89 180,-77 180,-77 180,-71 186,-65 192,-65 192,-65 222,-65 222,-65 228,-65 234,-71 234,-77 234,-77 234,-89 234,-89 234,-95 228,-101 222,-101"/>
<text xml:space="preserve" text-anchor="middle" x="207" y="-76.75" font-family="JetBrains Mono, Fira Code, Consolas, Helvetica" font-size="20.00" fill="#8a6cff">E</text>
</g>
<!-- ast_bb85c2b1_1&#45;&gt;ast_bb85c2b1_5 -->
<g id="edge5" class="edge">
<title>ast_bb85c2b1_1&#45;&gt;ast_bb85c2b1_5</title>
<path fill="none" stroke="#333333" stroke-width="1.5" d="M142.55,-129.12C152.34,-122.27 163.64,-114.35 174.02,-107.08"/>
<polygon fill="#333333" stroke="#333333" stroke-width="1.5" points="175.2,-109.25 179.53,-103.23 172.39,-105.24 175.2,-109.25"/>
</g>
<!-- ast_bb85c2b1_4 -->
<g id="node7" class="node">
<title>ast_bb85c2b1_4</title>
<path fill="none" stroke="none" stroke-width="2" d="M132,-101C132,-101 102,-101 102,-101 96,-101 90,-95 90,-89 90,-89 90,-77 90,-77 90,-71 96,-65 102,-65 102,-65 132,-65 132,-65 138,-65 144,-71 144,-77 144,-77 144,-89 144,-89 144,-95 138,-101 132,-101"/>
<text xml:space="preserve" text-anchor="middle" x="117" y="-76.75" font-family="JetBrains Mono, Fira Code, Consolas, Helvetica" font-size="20.00" fill="#333333">+</text>
</g>
<!-- ast_bb85c2b1_1&#45;&gt;ast_bb85c2b1_4 -->
<g id="edge4" class="edge">
<title>ast_bb85c2b1_1&#45;&gt;ast_bb85c2b1_4</title>
<path fill="none" stroke="#333333" stroke-width="1.5" d="M117,-129.12C117,-123.15 117,-116.38 117,-109.93"/>
<polygon fill="#333333" stroke="#333333" stroke-width="1.5" points="119.45,-110.12 117,-103.12 114.55,-110.12 119.45,-110.12"/>
</g>
<!-- ast_bb85c2b1_3 -->
<g id="node6" class="node">
<title>ast_bb85c2b1_3</title>
<path fill="none" stroke="none" stroke-width="2" d="M42,-36C42,-36 12,-36 12,-36 6,-36 0,-30 0,-24 0,-24 0,-12 0,-12 0,-6 6,0 12,0 12,0 42,0 42,0 48,0 54,-6 54,-12 54,-12 54,-24 54,-24 54,-30 48,-36 42,-36"/>
<text xml:space="preserve" text-anchor="middle" x="27" y="-11.75" font-family="JetBrains Mono, Fira Code, Consolas, Helvetica" font-size="20.00" fill="#333333">id</text>
</g>
<!-- ast_bb85c2b1_2&#45;&gt;ast_bb85c2b1_3 -->
<g id="edge3" class="edge">
<title>ast_bb85c2b1_2&#45;&gt;ast_bb85c2b1_3</title>
<path fill="none" stroke="#333333" stroke-width="1.5" d="M27,-64.12C27,-58.15 27,-51.38 27,-44.93"/>
<polygon fill="#333333" stroke="#333333" stroke-width="1.5" points="29.45,-45.12 27,-38.12 24.55,-45.12 29.45,-45.12"/>
</g>
<!-- ast_bb85c2b1_6 -->
<g id="node8" class="node">
<title>ast_bb85c2b1_6</title>
<path fill="none" stroke="none" stroke-width="2" d="M222,-36C222,-36 192,-36 192,-36 186,-36 180,-30 180,-24 180,-24 180,-12 180,-12 180,-6 186,0 192,0 192,0 222,0 222,0 228,0 234,-6 234,-12 234,-12 234,-24 234,-24 234,-30 228,-36 222,-36"/>
<text xml:space="preserve" text-anchor="middle" x="207" y="-11.75" font-family="JetBrains Mono, Fira Code, Consolas, Helvetica" font-size="20.00" fill="#333333">id</text>
</g>
<!-- ast_bb85c2b1_5&#45;&gt;ast_bb85c2b1_6 -->
<g id="edge6" class="edge">
<title>ast_bb85c2b1_5&#45;&gt;ast_bb85c2b1_6</title>
<path fill="none" stroke="#333333" stroke-width="1.5" d="M207,-64.12C207,-58.15 207,-51.38 207,-44.93"/>
<polygon fill="#333333" stroke="#333333" stroke-width="1.5" points="209.45,-45.12 207,-38.12 204.55,-45.12 209.45,-45.12"/>
</g>
<!-- ast_bb85c2b1_9 -->
<g id="node10" class="node">
<title>ast_bb85c2b1_9</title>
<path fill="none" stroke="none" stroke-width="2" d="M312,-101C312,-101 282,-101 282,-101 276,-101 270,-95 270,-89 270,-89 270,-77 270,-77 270,-71 276,-65 282,-65 282,-65 312,-65 312,-65 318,-65 324,-71 324,-77 324,-77 324,-89 324,-89 324,-95 318,-101 312,-101"/>
<text xml:space="preserve" text-anchor="middle" x="297" y="-76.75" font-family="JetBrains Mono, Fira Code, Consolas, Helvetica" font-size="20.00" fill="#333333">id</text>
</g>
<!-- ast_bb85c2b1_8&#45;&gt;ast_bb85c2b1_9 -->
<g id="edge9" class="edge">
<title>ast_bb85c2b1_8&#45;&gt;ast_bb85c2b1_9</title>
<path fill="none" stroke="#333333" stroke-width="1.5" d="M297,-129.12C297,-123.15 297,-116.38 297,-109.93"/>
<polygon fill="#333333" stroke="#333333" stroke-width="1.5" points="299.45,-110.12 297,-103.12 294.55,-110.12 299.45,-110.12"/>
</g>
</g>
</svg>