<svg width="332pt" height="434pt"
 viewBox="0.00 0.00 332.00 434.00" xmlns="http://www.w3.org/2000/svg" xmlns:xlink="http://www.w3.org/1999/xlink">
<g id="graph0" class="graph" transform="scale(1 1) rotate(0) translate(4 430)">
<title>AST</title>
<!-- ast_ec7d4b0b_0 -->
<g id="node1" class="node">
<title>ast_ec7d4b0b_0</title>
<path fill="none" stroke="#8a6cff" stroke-width="2" d="M132,-426C132,-426 102,-426 102,-426 96,-426 90,-420 90,-414 90,-414 90,-402 90,-402 90,-396 96,-390 102,-390 102,-390 132,-390 132,-390 138,-390 144,-396 144,-402 144,-402 144,-414 144,-414 144,-420 138,-426 132,-426"/>
<text xml:space="preserve" text-anchor="middle" x="117" y="-401.75" font-family="JetBrains Mono, Fira Code, Consolas, Helvetica" font-size="20.00" fill="#8a6cff">E</text>
</g>
<!-- ast_ec7d4b0b_1 -->
<g id="node2" class="node">
<title>ast_ec7d4b0b_1</title>
<path fill="none" stroke="#8a6cff" stroke-width="2" d="M132,-361C132,-361 102,-361 102,-361 96,-361 90,-355 90,-349 90,-349 90,-337 90,-337 90,-331 96,-325 102,-325 102,-325 132,-325 132,-325 138,-325 144,-331 144,-337 144,-337 144,-349 144,-349 144,-355 138,-361 132,-361"/>
<text xml:space="preserve" text-anchor="middle" x="117" y="-336.75" font-family="JetBrains Mono, Fira Code, Consolas, Helvetica" font-size="20.00" fill="#8a6cff">T</text>
</g>
<!-- ast_ec7d4b0b_0&#45;&gt;ast_ec7d4b0b_1 -->
<g id="edge1" class="edge">
<title>ast_ec7d4b0b_0&#45;&gt;ast_ec7d4b0b_1</title>
<path fill="none" stroke="#333333" stroke-width="1.5" d="M117,-389.12C117,-383.35 117,-376.82 117,-370.57"/>
<polygon fill="#333333" stroke="#333333" stroke-width="1.5" points="119.45,-370.98 117,-363.98 114.55,-370.98 119.45,-370.98"/>
</g>
<!-- ast_ec7d4b0b_2 -->
<g id="node3" class="node">
<title>ast_ec7d4b0b_2</title>
<path fill="none" stroke="#8a6cff" stroke-width="2" d="M132,-296C132,-296 102,-296 102,-296 96,-296 90,-290 90,-284 90,-284 90,-272 90,-272 90,-266 96,-260 102,-260 102,-260 132,-260 132,-260 138,-260 144,-266 144,-272 144,-272 144,-284 144,-284 144,-290 138,-296 132,-296"/>
<text xml:space="preserve" text-anchor="middle" x="117" y="-271.75" font-family="JetBrains Mono, Fira Code, Consolas, Helvetica" font-size="20.00" fill="#8a6cff">P</text>
</g>
<!-- ast_ec7d4b0b_1&#45;&gt;ast_ec7d4b0b_2 -->
<g id="edge2" class="edge">
<title>ast_ec7d4b0b_1&#45;&gt;ast_ec7d4b0b_2</title>
<path fill="none" stroke="#333333" stroke-width="1.5" d="M117,-324.12C117,-318.35 117,-311.82 117,-305.57"/>
<polygon fill="#333333" stroke="#333333" stroke-width="1.5" points="119.45,-305.98 117,-298.98 114.55,-305.98 119.45,-305.98"/>
</g>
<!-- ast_ec7d4b0b_3 -->
<g id="node4" class="node">
<title>ast_ec7d4b0b_3</title>
<path fill="none" stroke="#8a6cff" stroke-width="2" d="M42,-231C42,-231 12,-231 12,-231 6,-231 0,-225 0,-219 0,-219 0,-207 0,-207 0,-201 6,-195 12,-195 12,-195 42,-195 42,-195 48,-195 54,-201 54,-207 54,-207 54,-219 54,-219 54,-225 48,-231 42,-231"/>
<text xml:space="preserve" text-anchor="middle" x="27" y="-206.75" font-family="JetBrains Mono, Fira Code, Consolas, Helvetica" font-size="20.00" fill="#8a6cff">F</text>
</g>
<!-- ast_ec7d4b0b_2&#45;&gt;ast_ec7d4b0b_3 -->
<g id="edge3" class="edge">
<title>ast_ec7d4b0b_2&#45;&gt;ast_ec7d4b0b_3</title>
<path fill="none" stroke="#333333" stroke-width="1.5" d="M91.45,-259.12C81.66,-252.27 70.36,-244.35 59.98,-237.08"/>
<polygon fill="#333333" stroke="#333333" stroke-width="1.5" points="61.61,-235.24 54.47,-233.23 58.8,-239.25 61.61,-235.24"/>
</g>
<!-- ast_ec7d4b0b_6 -->
<g id="node5" class="node">
<title>ast_ec7d4b0b_6</title>
<path fill="none" stroke="#8a6cff" stroke-width="2" d="M222,-231C222,-231 192,-231 192,-231 186,-231 180,-225 180,-219 180,-219 180,-207 180,-207 180,-201 186,-195 192,-195 192,-195 222,-195 222,-195 228,-195 234,-201 234,-207 234,-207 234,-219 234,-219 234,-225 228,-231 222,-231"/>
<text xml:space="preserve" text-anchor="middle" x="207" y="-206.75" font-family="JetBrains Mono, Fira Code, Consolas, Helvetica" font-size="20.00" fill="#8a6cff">P</text>
</g>
<!-- ast_ec7d4b0b_2&#45;&gt;ast_ec7d4b0b_6 -->
<g id="edge6" class="edge">
<title>ast_ec7d4b0b_2&#45;&gt;ast_ec7d4b0b_6</title>
<path fill="none" stroke="#333333" stroke-width="1.5" d="M142.55,-259.12C152.34,-252.27 163.64,-244.35 174.02,-237.08"/>
<polygon fill="#333333" stroke="#333333" stroke-width="1.5" points="175.2,-239.25 179.53,-233.23 172.39,-235.24 175.2,-239.25"/>
</g>
<!-- ast_ec7d4b0b_5 -->
<g id="node10" class="node">
<title>ast_ec7d4b0b_5</title>
<path fill="none" stroke="none" stroke-width="2" d="M132,-231C132,-231 102,-231 102,-231 96,-231 90,-225 90,-219 90,-219 90,-207 90,-207 90,-201 96,-195 102,-195 102,-195 132,-195 132,-195 138,-195 144,-201 144,-207 144,-207 144,-219 144,-219 144,-225 138,-231 132,-231"/>
<text xml:space="preserve" text-anchor="middle" x="117" y="-206.75" font-family="JetBrains Mono, Fira Code, Consolas, Helvetica" font-size="20.00" fill="#333333">^</text>
</g>
<!-- ast_ec7d4b0b_2&#45;&gt;ast_ec7d4b0b_5 -->
<g id="edge5" class="edge">
<title>ast_ec7d4b0b_2&#45;&gt;ast_ec7d4b0b_5</title>
<path fill="none" stroke="#333333" stroke-width="1.5" d="M117,-259.12C117,-253.15 117,-246.38 117,-239.93"/>
<polygon fill="#333333" stroke="#333333" stroke-width="1.5" points="119.45,-240.12 117,-233.12 114.55,-240.12 119.45,-240.12"/>
</g>
<!-- ast_ec7d4b0b_4 -->
<g id="node9" class="node">
<title>ast_ec7d4b0b_4</title>
<path fill="none" stroke="none" stroke-width="2" d="M42,-166C42,-166 12,-166 12,-166 6,-166 0,-160 0,-154 0,-154 0,-142 0,-142 0,-136 6,-130 12,-130 12,-130 42,-130 42,-130 48,-130 54,-136 54,-142 54,-142 54,-154 54,-154 54,-160 48,-166 42,-166"/>
<text xml:space="preserve" text-anchor="middle" x="27" y="-141.75" font-family="JetBrains Mono, Fira Code, Consolas, Helvetica" font-size="20.00" fill="#333333">id</text>
</g>
<!-- ast_ec7d4b0b_3&#45;&gt;ast_ec7d4b0b_4 -->
<g id="edge4" class="edge">
<title>ast_ec7d4b0b_3&#45;&gt;ast_ec7d4b0b_4</title>
<path fill="none" stroke="#333333" stroke-width="1.5" d="M27,-194.12C27,-188.15 27,-181.38 27,-174.93"/>
<polygon fill="#333333" stroke="#333333" stroke-width="1.5" points="29.45,-175.12 27,-168.12 24.55,-175.12 29.45,-175.12"/>
</g>
<!-- ast_ec7d4b0b_7 -->
<g id="node6" class="node">
<title>ast_ec7d4b0b_7</title>
<path fill="none" stroke="#8a6cff" stroke-width="2" d="M132,-166C132,-166 102,-166 102,-166 96,-166 90,-160 90,-154 90,-154 90,-142 90,-142 90,-136 96,-130 102,-130 102,-130 132,-130 132,-130 138,-130 144,-136 144,-142 144,-142 144,-154 144,-154 144,-160 138,-166 132,-166"/>
<text xml:space="preserve" text-anchor="middle" x="117" y="-141.75" font-family="JetBrains Mono, Fira Code, Consolas, Helvetica" font-size="20.00" fill="#8a6cff">F</text>
</g>
<!-- ast_ec7d4b0b_6&#45;&gt;ast_ec7d4b0b_7 -->
<g id="edge7" class="edge">
<title>ast_ec7d4b0b_6&#45;&gt;ast_ec7d4b0b_7</title>
<path fill="none" stroke="#333333" stroke-width="1.5" d="M181.45,-194.12C171.66,-187.27 160.36,-179.35 149.98,-172.08"/>
<polygon fill="#333333" stroke="#333333" stroke-width="1.5" points="151.61,-170.24 144.47,-168.23 148.8,-174.25 151.61,-170.24"/>
</g>
<!-- ast_ec7d4b0b_10 -->
<g id="node7" class="node">
<title>ast_ec7d4b0b_10</title>
<path fill="none" stroke="#8a6cff" stroke-width="2" d="M312,-166C312,-166 282,-166 282,-166 276,-166 270,-160 270,-154 270,-154 270,-142 270,-142 270,-136 276,-130 282,-130 282,-130 312,-130 312,-130 318,-130 324,-136 324,-142 324,-142 324,-154 324,-154 324,-160 318,-166 312,-166"/>
<text xml:space="preserve" text-anchor="middle" x="297" y="-141.75" font-family="JetBrains Mono, Fira Code, Consolas, Helvetica" font-size="20.00" fill="#8a6cff">P</text>
</g>
<!-- ast_ec7d4b0b_6&#45;&gt;ast_ec7d4b0b_10 -->
<g id="edge10" class="edge">
<title>ast_ec7d4b0b_6&#45;&gt;ast_ec7d4b0b_10</title>
<path fill="none" stroke="#333333" stroke-width="1.5" d="M232.55,-194.12C242.34,-187.27 253.64,-179.35 264.02,-172.08"/>
<polygon fill="#333333" stroke="#333333" stroke-width="1.5" points="265.2,-174.25 269.53,-168.23 262.39,-170.24 265.2,-174.25"/>
</g>
<!-- ast_ec7d4b0b_9 -->
<g id="node12" class="node">
<title>ast_ec7d4b0b_9</title>
<path fill="none" stroke="none" stroke-width="2" d="M222,-166C222,-166 192,-166 192,-166 186,-166 180,-160 180,-154 180,-154 180,-142 180,-142 180,-136 186,-130 192,-130 192,-130 222,-130 222,-130 228,-130 234,-136 234,-142 234,-142 234,-154 234,-154 234,-160 228,-166 222,-166"/>
<text xml:space="preserve" text-anchor="middle" x="207" y="-141.75" font-family="JetBrains Mono, Fira Code, Consolas, Helvetica" font-size="20.00" fill="#333333">^</text>
</g>
<!-- ast_ec7d4b0b_6&#45;&gt;ast_ec7d4b0b_9 -->
<g id="edge9" class="edge">
<title>ast_ec7d4b0b_6&#45;&gt;ast_ec7d4b0b_9</title>
<path fill="none" stroke="#333333" stroke-width="1.5" d="M207,-194.12C207,-188.15 207,-181.38 207,-174.93"/>
<polygon fill="#333333" stroke="#333333" stroke-width="1.5" points="209.45,-175.12 207,-168.12 204.55,-175.12 209.45,-175.12"/>
</g>
<!-- ast_ec7d4b0b_8 -->
<g id="node11" class="node">
<title>ast_ec7d4b0b_8</title>
<path fill="none" stroke="none" stroke-width="2" d="M132,-101C132,-101 102,-101 102,-101 96,-101 90,-95 90,-89 90,-89 90,-77 90,-77 90,-71 96,-65 102,-65 102,-65 132,-65 132,-65 138,-65 144,-71 144,-77 144,-77 144,-89 144,-89 144,-95 138,-101 132,-101"/>
<text xml:space="preserve" text-anchor="middle" x="117" y="-76.75" font-family="JetBrains Mono, Fira Code, Consolas, Helvetica" font-size="20.00" fill="#333333">id</text>
</g>
<!-- ast_ec7d4b0b_7&#45;&gt;ast_ec7d4b0b_8 -->
<g id="edge8" class="edge">
<title>ast_ec7d4b0b_7&#45;&gt;ast_ec7d4b0b_8</title>
<path fill="none" stroke="#333333" stroke-width="1.5" d="M117,-129.12C117,-123.15 117,-116.38 117,-109.93"/>
<polygon fill="#333333" stroke="#333333" stroke-width="1.5" points="119.45,-110.12 117,-103.12 114.55,-110.12 119.45,-110.12"/>
</g>
<!-- ast_ec7d4b0b_11 -->
<g id="node8" class="node">
<title>ast_ec7d4b0b_11</title>
<path fill="none" stroke="#8a6cff" stroke-width="2" d="M312,-101C312,-101 282,-101 282,-101 276,-101 270,-95 270,-89 270,-89 270,-77 270,-77 270,-71 276,-65 282,-65 282,-65 312,-65 312,-65 318,-65 324,-71 324,-77 324,-77 324,-89 324,-89 324,-95 318,-101 312,-101"/>
<text xml:space="preserve" text-anchor="middle" x="297" y="-76.75" font-family="JetBrains Mono, Fira Code, Consolas, Helvetica" font-size="20.00" fill="#8a6cff">F</text>
</g>
<!-- ast_ec7d4b0b_10&#45;&gt;ast_ec7d4b0b_11 -->
<g id="edge11" class="edge">
<title>ast_ec7d4b0b_10&#45;&gt;ast_ec7d4b0b_11</title>
<path fill="none" stroke="#333333" stroke-width="1.5" d="M297,-129.12C297,-123.35 297,-116.82 297,-110.57"/>
<polygon fill="#333333" stroke="#333333" stroke-width="1.5" points="299.45,-110.98 297,-103.98 294.55,-110.98 299.45,-110.98"/>
</g>
<!-- ast_ec7d4b0b_12 -->
<g id="node13" class="node">
<title>ast_ec7d4b0b_12</title>
<path fill="none" stroke="none" stroke-width="2" d="M312,-36C312,-36 282,-36 282,-36 276,-36 270,-30 270,-24 270,-24 270,-12 270,-12 270,-6 276,0 282,0 282,0 312,0 312,0 318,0 324,-6 324,-12 324,-12 324,-24 324,-24 324,-30 318,-36 312,-36"/>
<text xml:space="preserve" text-anchor="middle" x="297" y="-11.75" font-family="JetBrains Mono, Fira Code, Consolas, Helvetica" font-size="20.00" fill="#333333">id</text>
</g>
<!-- ast_ec7d4b0b_11&#45;&gt;ast_ec7d4b0b_12 -->
<g id="edge12" class="edge">
<title>ast_ec7d4b0b_11&#45;&gt;ast_ec7d4b0b_12</title>
<path fill="none" stroke="#333333" stroke-width="1.5" d="M297,-64.12C297,-58.15 297,-51.38 297,-44.93"/>
<polygon fill="#333333" stroke="#333333" stroke-width="1.5" points="299.45,-45.12 297,-38.12 294.55,-45.12 299.45,-45.12"/>
</g>
</g>
</svg>