<svg width="532pt" height="239pt"
 viewBox="0.00 0.00 532.00 239.00" xmlns="http://www.w3.org/2000/svg" xmlns:xlink="http://www.w3.org/1999/xlink">
<g id="graph0" class="graph" transform="scale(1 1) rotate(0) translate(4 235)">
<title>AST</title>
<!-- ast_32c014c0_0 -->
<g id="node1" class="node">
<title>ast_32c014c0_0</title>
<path fill="none" stroke="#8a6cff" stroke-width="2" d="M274,-231C274,-231 244,-231 244,-231 238,-231 232,-225 232,-219 232,-219 232,-207 232,-207 232,-201 238,-195 244,-195 244,-195 274,-195 274,-195 280,-195 286,-201 286,-207 286,-207 286,-219 286,-219 286,-225 280,-231 274,-231"/>
<text xml:space="preserve" text-anchor="middle" x="259" y="-206.75" font-family="JetBrains Mono, Fira Code, Consolas, Helvetica" font-size="20.00" fill="#8a6cff">S</text>
</g>
<!-- ast_32c014c0_4 -->
<g id="node2" class="node">
<title>ast_32c014c0_4</title>
<path fill="none" stroke="#8a6cff" stroke-width="2" d="M322,-166C322,-166 292,-166 292,-166 286,-166 280,-160 280,-154 280,-154 280,-142 280,-142 280,-136 286,-130 292,-130 292,-130 322,-130 322,-130 328,-130 334,-136 334,-142 334,-142 334,-154 334,-154 334,-160 328,-166 322,-166"/>
<text xml:space="preserve" text-anchor="middle" x="307" y="-141.75" font-family="JetBrains Mono, Fira Code, Consolas, Helvetica" font-size="20.00" fill="#8a6cff">S</text>
</g>
<!-- ast_32c014c0_0&#45;&gt;ast_32c014c0_4 -->
<g id="edge4" class="edge">
<title>ast_32c014c0_0&#45;&gt;ast_32c014c0_4</title>
<path fill="none" stroke="#333333" stroke-width="1.5" d="M272.63,-194.12C277.43,-187.81 282.92,-180.6 288.08,-173.83"/>
<polygon fill="#333333" stroke="#333333" stroke-width="1.5" points="289.84,-175.57 292.13,-168.52 285.94,-172.6 289.84,-175.57"/>
</g>
<!-- ast_32c014c0_11 -->
<g id="node4" class="node">
<title>ast_32c014c0_11</title>
<path fill="none" stroke="#8a6cff" stroke-width="2" d="M512,-166C512,-166 482,-166 482,-166 476,-166 470,-160 470,-154 470,-154 470,-142 470,-142 470,-136 476,-130 482,-130 482,-130 512,-130 512,-130 518,-130 524,-136 524,-142 524,-142 524,-154 524,-154 524,-160 518,-166 512,-166"/>
<text xml:space="preserve" text-anchor="middle" x="497" y="-141.75" font-family="JetBrains Mono, Fira Code, Consolas, Helvetica" font-size="20.00" fill="#8a6cff">S</text>
</g>
<!-- ast_32c014c0_0&#45;&gt;ast_32c014c0_11 -->
<g id="edge11" class="edge">
<title>ast_32c014c0_0&#45;&gt;ast_32c014c0_11</title>
<path fill="none" stroke="#333333" stroke-width="1.5" d="M286.78,-206.54C324.55,-198.85 394.04,-183.78 452,-166 454.79,-165.14 457.67,-164.2 460.54,-163.22"/>
<polygon fill="#333333" stroke="#333333" stroke-width="1.5" points="461.19,-165.59 466.97,-160.93 459.55,-160.97 461.19,-165.59"/>
</g>
<!-- ast_32c014c0_1 -->
<g id="node5" class="node">
<title>ast_32c014c0_1</title>
<path fill="none" stroke="none" stroke-width="2" d="M42,-166C42,-166 12,-166 12,-166 6,-166 0,-160 0,-154 0,-154 0,-142 0,-142 0,-136 6,-130 12,-130 12,-130 42,-130 42,-130 48,-130 54,-136 54,-142 54,-142 54,-154 54,-154 54,-160 48,-166 42,-166"/>
<text xml:space="preserve" text-anchor="middle" x="27" y="-141.75" font-family="JetBrains Mono, Fira Code, Consolas, Helvetica" font-size="20.00" fill="#333333">if</text>
</g>
<!-- ast_32c014c0_0&#45;&gt;ast_32c014c0_1 -->
<g id="edge1" class="edge">
<title>ast_32c014c0_0&#45;&gt;ast_32c014c0_1</title>
<path fill="none" stroke="#333333" stroke-width="1.5" d="M231.15,-206.24C194.36,-198.39 127.71,-183.31 72,-166 68.86,-165.03 65.63,-163.95 62.4,-162.83"/>
<polygon fill="#333333" stroke="#333333" stroke-width="1.5" points="63.5,-160.62 56.08,-160.55 61.84,-165.23 63.5,-160.62"/>
</g>
<!-- ast_32c014c0_2 -->
<g id="node6" class="node">
<title>ast_32c014c0_2</title>
<path fill="none" stroke="none" stroke-width="2" d="M132,-166C132,-166 102,-166 102,-166 96,-166 90,-160 90,-154 90,-154 90,-142 90,-142 90,-136 96,-130 102,-130 102,-130 132,-130 132,-130 138,-130 144,-136 144,-142 144,-142 144,-154 144,-154 144,-160 138,-166 132,-166"/>
<text xml:space="preserve" text-anchor="middle" x="117" y="-141.75" font-family="JetBrains Mono, Fira Code, Consolas, Helvetica" font-size="20.00" fill="#333333">c</text>
</g>
<!-- ast_32c014c0_0&#45;&gt;ast_32c014c0_2 -->
<g id="edge2" class="edge">
<title>ast_32c014c0_0&#45;&gt;ast_32c014c0_2</title>
<path fill="none" stroke="#333333" stroke-width="1.5" d="M231.28,-199.7C208.61,-189.65 176.42,-175.36 151.98,-164.52"/>
<polygon fill="#333333" stroke="#333333" stroke-width="1.5" points="153.15,-162.36 145.76,-161.76 151.16,-166.84 153.15,-162.36"/>
</g>
<!-- ast_32c014c0_3 -->
<g id="node7" class="node">
<title>ast_32c014c0_3</title>
<path fill="none" stroke="none" stroke-width="2" d="M232,-166C232,-166 192,-166 192,-166 186,-166 180,-160 180,-154 180,-154 180,-142 180,-142 180,-136 186,-130 192,-130 192,-130 232,-130 232,-130 238,-130 244,-136 244,-142 244,-142 244,-154 244,-154 244,-160 238,-166 232,-166"/>
<text xml:space="preserve" text-anchor="middle" x="212" y="-141.75" font-family="JetBrains Mono, Fira Code, Consolas, Helvetica" font-size="20.00" fill="#333333">then</text>
</g>
<!-- ast_32c014c0_0&#45;&gt;ast_32c014c0_3 -->
<g id="edge3" class="edge">
<title>ast_32c014c0_0&#45;&gt;ast_32c014c0_3</title>
<path fill="none" stroke="#333333" stroke-width="1.5" d="M245.66,-194.12C240.79,-187.6 235.21,-180.12 230.01,-173.14"/>
<polygon fill="#333333" stroke="#333333" stroke-width="1.5" points="232.08,-171.81 225.93,-167.67 228.15,-174.74 232.08,-171.81"/>
</g>
<!-- ast_32c014c0_10 -->
<g id="node12" class="node">
<title>ast_32c014c0_10</title>
<path fill="none" stroke="none" stroke-width="2" d="M422,-166C422,-166 382,-166 382,-166 376,-166 370,-160 370,-154 370,-154 370,-142 370,-142 370,-136 376,-130 382,-130 382,-130 422,-130 422,-130 428,-130 434,-136 434,-142 434,-142 434,-154 434,-154 434,-160 428,-166 422,-166"/>
<text xml:space="preserve" text-anchor="middle" x="402" y="-141.75" font-family="JetBrains Mono, Fira Code, Consolas, Helvetica" font-size="20.00" fill="#333333">else</text>
</g>
<!-- ast_32c014c0_0&#45;&gt;ast_32c014c0_10 -->
<g id="edge10" class="edge">
<title>ast_32c014c0_0&#45;&gt;ast_32c014c0_10</title>
<path fill="none" stroke="#333333" stroke-width="1.5" d="M286.91,-199.7C308.29,-190.29 338.07,-177.17 361.98,-166.63"/>
<polygon fill="#333333" stroke="#333333" stroke-width="1.5" points="362.67,-169 368.09,-163.94 360.7,-164.52 362.67,-169"/>
</g>
<!-- ast_32c014c0_8 -->
<g id="node3" class="node">
<title>ast_32c014c0_8</title>
<path fill="none" stroke="#8a6cff" stroke-width="2" d="M419,-101C419,-101 389,-101 389,-101 383,-101 377,-95 377,-89 377,-89 377,-77 377,-77 377,-71 383,-65 389,-65 389,-65 419,-65 419,-65 425,-65 431,-71 431,-77 431,-77 431,-89 431,-89 431,-95 425,-101 419,-101"/>
<text xml:space="preserve" text-anchor="middle" x="404" y="-76.75" font-family="JetBrains Mono, Fira Code, Consolas, Helvetica" font-size="20.00" fill="#8a6cff">S</text>
</g>
<!-- ast_32c014c0_4&#45;&gt;ast_32c014c0_8 -->
<g id="edge8" class="edge">
<title>ast_32c014c0_4&#45;&gt;ast_32c014c0_8</title>
<path fill="none" stroke="#333333" stroke-width="1.5" d="M334.54,-129.12C345.19,-122.2 357.5,-114.2 368.78,-106.87"/>
<polygon fill="#333333" stroke="#333333" stroke-width="1.5" points="369.95,-109.03 374.49,-103.17 367.29,-104.92 369.95,-109.03"/>
</g>
<!-- ast_32c014c0_5 -->
<g id="node8" class="node">
<title>ast_32c014c0_5</title>
<path fill="none" stroke="none" stroke-width="2" d="M139,-101C139,-101 109,-101 109,-101 103,-101 97,-95 97,-89 97,-89 97,-77 97,-77 97,-71 103,-65 109,-65 109,-65 139,-65 139,-65 145,-65 151,-71 151,-77 151,-77 151,-89 151,-89 151,-95 145,-101 139,-101"/>
<text xml:space="preserve" text-anchor="middle" x="124" y="-76.75" font-family="JetBrains Mono, Fira Code, Consolas, Helvetica" font-size="20.00" fill="#333333">if</text>
</g>
<!-- ast_32c014c0_4&#45;&gt;ast_32c014c0_5 -->
<g id="edge5" class="edge">
<title>ast_32c014c0_4&#45;&gt;ast_32c014c0_5</title>
<path fill="none" stroke="#333333" stroke-width="1.5" d="M279.01,-136.13C273.4,-134.04 267.53,-131.9 262,-130 221.06,-115.9 209.94,-115.1 169,-101 165.81,-99.9 162.51,-98.73 159.21,-97.53"/>
<polygon fill="#333333" stroke="#333333" stroke-width="1.5" points="160.1,-95.24 152.69,-95.12 158.4,-99.84 160.1,-95.24"/>
</g>
<!-- ast_32c014c0_6 -->
<g id="node9" class="node">
<title>ast_32c014c0_6</title>
<path fill="none" stroke="none" stroke-width="2" d="M229,-101C229,-101 199,-101 199,-101 193,-101 187,-95 187,-89 187,-89 187,-77 187,-77 187,-71 193,-65 199,-65 199,-65 229,-65 229,-65 235,-65 241,-71 241,-77 241,-77 241,-89 241,-89 241,-95 235,-101 229,-101"/>
<text xml:space="preserve" text-anchor="middle" x="214" y="-76.75" font-family="JetBrains Mono, Fira Code, Consolas, Helvetica" font-size="20.00" fill="#333333">c</text>
</g>
<!-- ast_32c014c0_4&#45;&gt;ast_32c014c0_6 -->
<g id="edge6" class="edge">
<title>ast_32c014c0_4&#45;&gt;ast_32c014c0_6</title>
<path fill="none" stroke="#333333" stroke-width="1.5" d="M280.6,-129.12C269.95,-121.9 257.57,-113.51 246.38,-105.94"/>
<polygon fill="#333333" stroke="#333333" stroke-width="1.5" points="247.92,-104.02 240.75,-102.12 245.17,-108.07 247.92,-104.02"/>
</g>
<!-- ast_32c014c0_7 -->
<g id="node10" class="node">
<title>ast_32c014c0_7</title>
<path fill="none" stroke="none" stroke-width="2" d="M329,-101C329,-101 289,-101 289,-101 283,-101 277,-95 277,-89 277,-89 277,-77 277,-77 277,-71 283,-65 289,-65 289,-65 329,-65 329,-65 335,-65 341,-71 341,-77 341,-77 341,-89 341,-89 341,-95 335,-101 329,-101"/>
<text xml:space="preserve" text-anchor="middle" x="309" y="-76.75" font-family="JetBrains Mono, Fira Code, Consolas, Helvetica" font-size="20.00" fill="#333333">then</text>
</g>
<!-- ast_32c014c0_4&#45;&gt;ast_32c014c0_7 -->
<g id="edge7" class="edge">
<title>ast_32c014c0_4&#45;&gt;ast_32c014c0_7</title>
<path fill="none" stroke="#333333" stroke-width="1.5" d="M307.57,-129.12C307.76,-123.15 307.97,-116.38 308.18,-109.93"/>
<polygon fill="#333333" stroke="#333333" stroke-width="1.5" points="310.62,-110.19 308.39,-103.12 305.72,-110.03 310.62,-110.19"/>
</g>
<!-- ast_32c014c0_9 -->
<g id="node11" class="node">
<title>ast_32c014c0_9</title>
<path fill="none" stroke="none" stroke-width="2" d="M419,-36C419,-36 389,-36 389,-36 383,-36 377,-30 377,-24 377,-24 377,-12 377,-12 377,-6 383,0 389,0 389,0 419,0 419,0 425,0 431,-6 431,-12 431,-12 431,-24 431,-24 431,-30 425,-36 419,-36"/>
<text xml:space="preserve" text-anchor="middle" x="404" y="-11.75" font-family="JetBrains Mono, Fira Code, Consolas, Helvetica" font-size="20.00" fill="#333333">a</text>
</g>
<!-- ast_32c014c0_8&#45;&gt;ast_32c014c0_9 -->
<g id="edge9" class="edge">
<title>ast_32c014c0_8&#45;&gt;ast_32c014c0_9</title>
<path fill="none" stroke="#333333" stroke-width="1.5" d="M404,-64.12C404,-58.15 404,-51.38 404,-44.93"/>
<polygon fill="#333333" stroke="#333333" stroke-width="1.5" points="406.45,-45.12 404,-38.12 401.55,-45.12 406.45,-45.12"/>
</g>
<!-- ast_32c014c0_12 -->
<g id="node13" class="node">
<title>ast_32c014c0_12</title>
<path fill="none" stroke="none" stroke-width="2" d="M512,-101C512,-101 482,-101 482,-101 476,-101 470,-95 470,-89 470,-89 470,-77 470,-77 470,-71 476,-65 482,-65 482,-65 512,-65 512,-65 518,-65 524,-71 524,-77 524,-77 524,-89 524,-89 524,-95 518,-101 512,-101"/>
<text xml:space="preserve" text-anchor="middle" x="497" y="-76.75" font-family="JetBrains Mono, Fira Code, Consolas, Helvetica" font-size="20.00" fill="#333333">a</text>
</g>
<!-- ast_32c014c0_11&#45;&gt;ast_32c014c0_12 -->
<g id="edge12" class="edge">
<title>ast_32c014c0_11&#45;&gt;ast_32c014c0_12</title>
<path fill="none" stroke="#333333" stroke-width="1.5" d="M497,-129.12C497,-123.15 497,-116.38 497,-109.93"/>
<polygon fill="#333333" stroke="#333333" stroke-width="1.5" points="499.45,-110.12 497,-103.12 494.55,-110.12 499.45,-110.12"/>
</g>
</g>
</svg>