<svg width="197pt" height="239pt"
 viewBox="0.00 0.00 197.00 239.00" xmlns="http://www.w3.org/2000/svg" xmlns:xlink="http://www.w3.org/1999/xlink">
<g id="graph0" class="graph" transform="scale(1 1) rotate(0) translate(4 235)">
<title>AST</title>
<!-- ast_a3174373_0 -->
<g id="node1" class="node">
<title>ast_a3174373_0</title>
<path fill="none" stroke="#8a6cff" stroke-width="2" d="M87,-231C87,-231 57,-231 57,-231 51,-231 45,-225 45,-219 45,-219 45,-207 45,-207 45,-201 51,-195 57,-195 57,-195 87,-195 87,-195 93,-195 99,-201 99,-207 99,-207 99,-219 99,-219 99,-225 93,-231 87,-231"/>
<text xml:space="preserve" text-anchor="middle" x="72" y="-206.75" font-family="JetBrains Mono, Fira Code, Consolas, Helvetica" font-size="20.00" fill="#8a6cff">=</text>
</g>
<!-- ast_a3174373_2 -->
<g id="node2" class="node">
<title>ast_a3174373_2</title>
<path fill="none" stroke="#8a6cff" stroke-width="2" d="M132,-166C132,-166 102,-166 102,-166 96,-166 90,-160 90,-154 90,-154 90,-142 90,-142 90,-136 96,-130 102,-130 102,-130 132,-130 132,-130 138,-130 144,-136 144,-142 144,-142 144,-154 144,-154 144,-160 138,-166 132,-166"/>
<text xml:space="preserve" text-anchor="middle" x="117" y="-141.75" font-family="JetBrains Mono, Fira Code, Consolas, Helvetica" font-size="20.00" fill="#8a6cff">+</text>
</g>
<!-- ast_a3174373_0&#45;&gt;ast_a3174373_2 -->
<g id="edge2" class="edge">
<title>ast_a3174373_0&#45;&gt;ast_a3174373_2</title>
<path fill="none" stroke="#333333" stroke-width="1.5" d="M84.77,-194.12C89.28,-187.81 94.43,-180.6 99.26,-173.83"/>
<polygon fill="#333333" stroke="#333333" stroke-width="1.5" points="100.95,-175.68 103.03,-168.56 96.97,-172.83 100.95,-175.68"/>
</g>
<!-- ast_a3174373_1 -->
<g id="node4" class="node">
<title>ast_a3174373_1</title>
<path fill="none" stroke="none" stroke-width="2" d="M42,-166C42,-166 12,-166 12,-166 6,-166 0,-160 0,-154 0,-154 0,-142 0,-142 0,-136 6,-130 12,-130 12,-130 42,-130 42,-130 48,-130 54,-136 54,-142 54,-142 54,-154 54,-154 54,-160 48,-166 42,-166"/>
<text xml:space="preserve" text-anchor="middle" x="27" y="-141.75" font-family="JetBrains Mono, Fira Code, Consolas, Helvetica" font-size="20.00" fill="#333333">x</text>
</g>
<!-- ast_a3174373_0&#45;&gt;ast_a3174373_1 -->
<g id="edge1" class="edge">
<title>ast_a3174373_0&#45;&gt;ast_a3174373_1</title>
<path fill="none" stroke="#333333" stroke-width="1.5" d="M59.23,-194.12C54.57,-187.6 49.23,-180.12 44.24,-173.14"/>
<polygon fill="#333333" stroke="#333333" stroke-width="1.5" points="46.42,-171.97 40.35,-167.69 42.43,-174.81 46.42,-171.97"/>
</g>
<!-- ast_a3174373_3 -->
<g id="node3" class="node">
<title>ast_a3174373_3</title>
<path fill="none" stroke="#8a6cff" stroke-width="2" d="M87,-101C87,-101 57,-101 57,-101 51,-101 45,-95 45,-89 45,-89 45,-77 45,-77 45,-71 51,-65 57,-65 57,-65 87,-65 87,-65 93,-65 99,-71 99,-77 99,-77 99,-89 99,-89 99,-95 93,-101 87,-101"/>
<text xml:space="preserve" text-anchor="middle" x="72" y="-76.75" font-family="JetBrains Mono, Fira Code, Consolas, Helvetica" font-size="20.00" fill="#8a6cff">∗</text>
</g>
<!-- ast_a3174373_2&#45;&gt;ast_a3174373_3 -->
<g id="edge3" class="edge">
<title>ast_a3174373_2&#45;&gt;ast_a3174373_3</title>
<path fill="none" stroke="#333333" stroke-width="1.5" d="M104.23,-129.12C99.72,-122.81 94.57,-115.6 89.74,-108.83"/>
<polygon fill="#333333" stroke="#333333" stroke-width="1.5" points="92.03,-107.83 85.97,-103.56 88.05,-110.68 92.03,-107.83"/>
</g>
<!-- ast_a3174373_6 -->
<g id="node7" class="node">
<title>ast_a3174373_6</title>
<path fill="none" stroke="none" stroke-width="2" d="M177,-101C177,-101 147,-101 147,-101 141,-101 135,-95 135,-89 135,-89 135,-77 135,-77 135,-71 141,-65 147,-65 147,-65 177,-65 177,-65 183,-65 189,-71 189,-77 189,-77 189,-89 189,-89 189,-95 183,-101 177,-101"/>
<text xml:space="preserve" text-anchor="middle" x="162" y="-76.75" font-family="JetBrains Mono, Fira Code, Consolas, Helvetica" font-size="20.00" fill="#333333">a</text>
</g>
<!-- ast_a3174373_2&#45;&gt;ast_a3174373_6 -->
<g id="edge6" class="edge">
<title>ast_a3174373_2&#45;&gt;ast_a3174373_6</title>
<path fill="none" stroke="#333333" stroke-width="1.5" d="M129.77,-129.12C134.43,-122.6 139.77,-115.12 144.76,-108.14"/>
<polygon fill="#333333" stroke="#333333" stroke-width="1.5" points="146.57,-109.81 148.65,-102.69 142.58,-106.97 146.57,-109.81"/>
</g>
<!-- ast_a3174373_4 -->
<g id="node5" class="node">
<title>ast_a3174373_4</title>
<path fill="none" stroke="none" stroke-width="2" d="M42,-36C42,-36 12,-36 12,-36 6,-36 0,-30 0,-24 0,-24 0,-12 0,-12 0,-6 6,0 12,0 12,0 42,0 42,0 48,0 54,-6 54,-12 54,-12 54,-24 54,-24 54,-30 48,-36 42,-36"/>
<text xml:space="preserve" text-anchor="middle" x="27" y="-11.75" font-family="JetBrains Mono, Fira Code, Consolas, Helvetica" font-size="20.00" fill="#333333">2</text>
</g>
<!-- ast_a3174373_3&#45;&gt;ast_a3174373_4 -->
<g id="edge4" class="edge">
<title>ast_a3174373_3&#45;&gt;ast_a3174373_4</title>
<path fill="none" stroke="#333333" stroke-width="1.5" d="M59.23,-64.12C54.57,-57.6 49.23,-50.12 44.24,-43.14"/>
<polygon fill="#333333" stroke="#333333" stroke-width="1.5" points="46.42,-41.97 40.35,-37.69 42.43,-44.81 46.42,-41.97"/>
</g>
<!-- ast_a3174373_5 -->
<g id="node6" class="node">
<title>ast_a3174373_5</title>
<path fill="none" stroke="none" stroke-width="2" d="M132,-36C132,-36 102,-36 102,-36 96,-36 90,-30 90,-24 90,-24 90,-12 90,-12 90,-6 96,0 102,0 102,0 132,0 132,0 138,0 144,-6 144,-12 144,-12 144,-24 144,-24 144,-30 138,-36 132,-36"/>
<text xml:space="preserve" text-anchor="middle" x="117" y="-11.75" font-family="JetBrains Mono, Fira Code, Consolas, Helvetica" font-size="20.00" fill="#333333">3</text>
</g>
<!-- ast_a3174373_3&#45;&gt;ast_a3174373_5 -->
<g id="edge5" class="edge">
<title>ast_a3174373_3&#45;&gt;ast_a3174373_5</title>
<path fill="none" stroke="#333333" stroke-width="1.5" d="M84.77,-64.12C89.43,-57.6 94.77,-50.12 99.76,-43.14"/>
<polygon fill="#333333" stroke="#333333" stroke-width="1.5" points="101.57,-44.81 103.65,-37.69 97.58,-41.97 101.57,-44.81"/>
</g>
</g>
</svg>