<svg width="247pt" height="174pt"
 viewBox="0.00 0.00 247.00 174.00" xmlns="http://www.w3.org/2000/svg" xmlns:xlink="http://www.w3.org/1999/xlink">
<g id="graph0" class="graph" transform="scale(1 1) rotate(0) translate(4 170)">
<title>AST</title>
<!-- ast_34d6df1f_0 -->
<g id="node1" class="node">
<title>ast_34d6df1f_0</title>
<path fill="none" stroke="#8a6cff" stroke-width="2" d="M112,-166C112,-166 82,-166 82,-166 76,-166 70,-160 70,-154 70,-154 70,-142 70,-142 70,-136 76,-130 82,-130 82,-130 112,-130 112,-130 118,-130 124,-136 124,-142 124,-142 124,-154 124,-154 124,-160 118,-166 112,-166"/>
<text xml:space="preserve" text-anchor="middle" x="97" y="-141.75" font-family="JetBrains Mono, Fira Code, Consolas, Helvetica" font-size="20.00" fill="#8a6cff">=</text>
</g>
<!-- ast_34d6df1f_2 -->
<g id="node2" class="node">
<title>ast_34d6df1f_2</title>
<path fill="none" stroke="#8a6cff" stroke-width="2" d="M166,-101C166,-101 136,-101 136,-101 130,-101 124,-95 124,-89 124,-89 124,-77 124,-77 124,-71 130,-65 136,-65 136,-65 166,-65 166,-65 172,-65 178,-71 178,-77 178,-77 178,-89 178,-89 178,-95 172,-101 166,-101"/>
<text xml:space="preserve" text-anchor="middle" x="151" y="-76.75" font-family="JetBrains Mono, Fira Code, Consolas, Helvetica" font-size="20.00" fill="#8a6cff">+</text>
</g>
<!-- ast_34d6df1f_0&#45;&gt;ast_34d6df1f_2 -->
<g id="edge2" class="edge">
<title>ast_34d6df1f_0&#45;&gt;ast_34d6df1f_2</title>
<path fill="none" stroke="#333333" stroke-width="1.5" d="M112.33,-129.12C117.85,-122.68 124.17,-115.3 130.09,-108.4"/>
<polygon fill="#333333" stroke="#333333" stroke-width="1.5" points="131.65,-110.34 134.34,-103.44 127.93,-107.16 131.65,-110.34"/>
</g>
<!-- ast_34d6df1f_1 -->
<g id="node3" class="node">
<title>ast_34d6df1f_1</title>
<path fill="none" stroke="none" stroke-width="2" d="M76,-101C76,-101 12,-101 12,-101 6,-101 0,-95 0,-89 0,-89 0,-77 0,-77 0,-71 6,-65 12,-65 12,-65 76,-65 76,-65 82,-65 88,-71 88,-77 88,-77 88,-89 88,-89 88,-95 82,-101 76,-101"/>
<text xml:space="preserve" text-anchor="middle" x="44" y="-76.75" font-family="JetBrains Mono, Fira Code, Consolas, Helvetica" font-size="20.00" fill="#333333">&lt;id,1&gt;</text>
</g>
<!-- ast_34d6df1f_0&#45;&gt;ast_34d6df1f_1 -->
<g id="edge1" class="edge">
<title>ast_34d6df1f_0&#45;&gt;ast_34d6df1f_1</title>
<path fill="none" stroke="#333333" stroke-width="1.5" d="M81.95,-129.12C76.35,-122.46 69.91,-114.8 63.94,-107.7"/>
<polygon fill="#333333" stroke="#333333" stroke-width="1.5" points="66.02,-106.36 59.63,-102.58 62.27,-109.52 66.02,-106.36"/>
</g>
<!-- ast_34d6df1f_3 -->
<g id="node4" class="node">
<title>ast_34d6df1f_3</title>
<path fill="none" stroke="none" stroke-width="2" d="M127,-36C127,-36 63,-36 63,-36 57,-36 51,-30 51,-24 51,-24 51,-12 51,-12 51,-6 57,0 63,0 63,0 127,0 127,0 133,0 139,-6 139,-12 139,-12 139,-24 139,-24 139,-30 133,-36 127,-36"/>
<text xml:space="preserve" text-anchor="middle" x="95" y="-11.75" font-family="JetBrains Mono, Fira Code, Consolas, Helvetica" font-size="20.00" fill="#333333">&lt;id,2&gt;</text>
</g>
<!-- ast_34d6df1f_2&#45;&gt;ast_34d6df1f_3 -->
<g id="edge3" class="edge">
<title>ast_34d6df1f_2&#45;&gt;ast_34d6df1f_3</title>
<path fill="none" stroke="#333333" stroke-width="1.5" d="M135.1,-64.12C129.18,-57.46 122.37,-49.8 116.07,-42.7"/>
<polygon fill="#333333" stroke="#333333" stroke-width="1.5" points="117.96,-41.15 111.48,-37.54 114.3,-44.4 117.96,-41.15"/>
</g>
<!-- ast_34d6df1f_4 -->
<g id="node5" class="node">
<title>ast_34d6df1f_4</title>
<path fill="none" stroke="none" stroke-width="2" d="M227,-36C227,-36 187,-36 187,-36 181,-36 175,-30 175,-24 175,-24 175,-12 175,-12 175,-6 181,0 187,0 187,0 227,0 227,0 233,0 239,-6 239,-12 239,-12 239,-24 239,-24 239,-30 233,-36 227,-36"/>
<text xml:space="preserve" text-anchor="middle" x="207" y="-11.75" font-family="JetBrains Mono, Fira Code, Consolas, Helvetica" font-size="20.00" fill="#333333">1200</text>
</g>
<!-- ast_34d6df1f_2&#45;&gt;ast_34d6df1f_4 -->
<g id="edge4" class="edge">
<title>ast_34d6df1f_2&#45;&gt;ast_34d6df1f_4</title>
<path fill="none" stroke="#333333" stroke-width="1.5" d="M166.9,-64.12C172.82,-57.46 179.63,-49.8 185.93,-42.7"/>
<polygon fill="#333333" stroke="#333333" stroke-width="1.5" points="187.7,-44.4 190.52,-37.54 184.04,-41.15 187.7,-44.4"/>
</g>
</g>
</svg>