<svg width="532pt" height="174pt"
 viewBox="0.00 0.00 532.00 174.00" xmlns="http://www.w3.org/2000/svg" xmlns:xlink="http://www.w3.org/1999/xlink">
<g id="graph0" class="graph" transform="scale(1 1) rotate(0) translate(4 170)">
<title>AST</title>
<!-- ast_541c632e_0 -->
<g id="node1" class="node">
<title>ast_541c632e_0</title>
<path fill="none" stroke="#8a6cff" stroke-width="2" d="M274,-166C274,-166 244,-166 244,-166 238,-166 232,-160 232,-154 232,-154 232,-142 232,-142 232,-136 238,-130 244,-130 244,-130 274,-130 274,-130 280,-130 286,-136 286,-142 286,-142 286,-154 286,-154 286,-160 280,-166 274,-166"/>
<text xml:space="preserve" text-anchor="middle" x="259" y="-141.75" font-family="JetBrains Mono, Fira Code, Consolas, Helvetica" font-size="20.00" fill="#8a6cff">S</text>
</g>
<!-- ast_541c632e_4 -->
<g id="node2" class="node">
<title>ast_541c632e_4</title>
<path fill="none" stroke="#8a6cff" stroke-width="2" d="M322,-101C322,-101 292,-101 292,-101 286,-101 280,-95 280,-89 280,-89 280,-77 280,-77 280,-71 286,-65 292,-65 292,-65 322,-65 322,-65 328,-65 334,-71 334,-77 334,-77 334,-89 334,-89 334,-95 328,-101 322,-101"/>
<text xml:space="preserve" text-anchor="middle" x="307" y="-76.75" font-family="JetBrains Mono, Fira Code, Consolas, Helvetica" font-size="20.00" fill="#8a6cff">S</text>
</g>
<!-- ast_541c632e_0&#45;&gt;ast_541c632e_4 -->
<g id="edge4" class="edge">
<title>ast_541c632e_0&#45;&gt;ast_541c632e_4</title>
<path fill="none" stroke="#333333" stroke-width="1.5" d="M272.63,-129.12C277.43,-122.81 282.92,-115.6 288.08,-108.83"/>
<polygon fill="#333333" stroke="#333333" stroke-width="1.5" points="289.84,-110.57 292.13,-103.52 285.94,-107.6 289.84,-110.57"/>
</g>
<!-- ast_541c632e_7 -->
<g id="node3" class="node">
<title>ast_541c632e_7</title>
<path fill="none" stroke="#8a6cff" stroke-width="2" d="M512,-101C512,-101 482,-101 482,-101 476,-101 470,-95 470,-89 470,-89 470,-77 470,-77 470,-71 476,-65 482,-65 482,-65 512,-65 512,-65 518,-65 524,-71 524,-77 524,-77 524,-89 524,-89 524,-95 518,-101 512,-101"/>
<text xml:space="preserve" text-anchor="middle" x="497" y="-76.75" font-family="JetBrains Mono, Fira Code, Consolas, Helvetica" font-size="20.00" fill="#8a6cff">S</text>
</g>
<!-- ast_541c632e_0&#45;&gt;ast_541c632e_7 -->
<g id="edge7" class="edge">
<title>ast_541c632e_0&#45;&gt;ast_541c632e_7</title>
<path fill="none" stroke="#333333" stroke-width="1.5" d="M286.78,-141.54C324.55,-133.85 394.04,-118.78 452,-101 454.79,-100.14 457.67,-99.2 460.54,-98.22"/>
<polygon fill="#333333" stroke="#333333" stroke-width="1.5" points="461.19,-100.59 466.97,-95.93 459.55,-95.97 461.19,-100.59"/>
</g>
<!-- ast_541c632e_1 -->
<g id="node4" class="node">
<title>ast_541c632e_1</title>
<path fill="none" stroke="none" stroke-width="2" d="M42,-101C42,-101 12,-101 12,-101 6,-101 0,-95 0,-89 0,-89 0,-77 0,-77 0,-71 6,-65 12,-65 12,-65 42,-65 42,-65 48,-65 54,-71 54,-77 54,-77 54,-89 54,-89 54,-95 48,-101 42,-101"/>
<text xml:space="preserve" text-anchor="middle" x="27" y="-76.75" font-family="JetBrains Mono, Fira Code, Consolas, Helvetica" font-size="20.00" fill="#333333">if</text>
</g>
<!-- ast_541c632e_0&#45;&gt;ast_541c632e_1 -->
<g id="edge1" class="edge">
<title>ast_541c632e_0&#45;&gt;ast_541c632e_1</title>
<path fill="none" stroke="#333333" stroke-width="1.5" d="M231.15,-141.24C194.36,-133.39 127.71,-118.31 72,-101 68.86,-100.03 65.63,-98.95 62.4,-97.83"/>
<polygon fill="#333333" stroke="#333333" stroke-width="1.5" points="63.5,-95.62 56.08,-95.55 61.84,-100.23 63.5,-95.62"/>
</g>
<!-- ast_541c632e_2 -->
<g id="node5" class="node">
<title>ast_541c632e_2</title>
<path fill="none" stroke="none" stroke-width="2" d="M132,-101C132,-101 102,-101 102,-101 96,-101 90,-95 90,-89 90,-89 90,-77 90,-77 90,-71 96,-65 102,-65 102,-65 132,-65 132,-65 138,-65 144,-71 144,-77 144,-77 144,-89 144,-89 144,-95 138,-101 132,-101"/>
<text xml:space="preserve" text-anchor="middle" x="117" y="-76.75" font-family="JetBrains Mono, Fira Code, Consolas, Helvetica" font-size="20.00" fill="#333333">c</text>
</g>
<!-- ast_541c632e_0&#45;&gt;ast_541c632e_2 -->
<g id="edge2" class="edge">
<title>ast_541c632e_0&#45;&gt;ast_541c632e_2</title>
<path fill="none" stroke="#333333" stroke-width="1.5" d="M231.28,-134.7C208.61,-124.65 176.42,-110.36 151.98,-99.52"/>
<polygon fill="#333333" stroke="#333333" stroke-width="1.5" points="153.15,-97.36 145.76,-96.76 151.16,-101.84 153.15,-97.36"/>
</g>
<!-- ast_541c632e_3 -->
<g id="node6" class="node">
<title>ast_541c632e_3</title>
<path fill="none" stroke="none" stroke-width="2" d="M232,-101C232,-101 192,-101 192,-101 186,-101 180,-95 180,-89 180,-89 180,-77 180,-77 180,-71 186,-65 192,-65 192,-65 232,-65 232,-65 238,-65 244,-71 244,-77 244,-77 244,-89 244,-89 244,-95 238,-101 232,-101"/>
<text xml:space="preserve" text-anchor="middle" x="212" y="-76.75" font-family="JetBrains Mono, Fira Code, Consolas, Helvetica" font-size="20.00" fill="#333333">then</text>
</g>
<!-- ast_541c632e_0&#45;&gt;ast_541c632e_3 -->
<g id="edge3" class="edge">
<title>ast_541c632e_0&#45;&gt;ast_541c632e_3</title>
<path fill="none" stroke="#333333" stroke-width="1.5" d="M245.66,-129.12C240.79,-122.6 235.21,-115.12 230.01,-108.14"/>
<polygon fill="#333333" stroke="#333333" stroke-width="1.5" points="232.08,-106.81 225.93,-102.67 228.15,-109.74 232.08,-106.81"/>
</g>
<!-- ast_541c632e_6 -->
<g id="node8" class="node">
<title>ast_541c632e_6</title>
<path fill="none" stroke="none" stroke-width="2" d="M422,-101C422,-101 382,-101 382,-101 376,-101 370,-95 370,-89 370,-89 370,-77 370,-77 370,-71 376,-65 382,-65 382,-65 422,-65 422,-65 428,-65 434,-71 434,-77 434,-77 434,-89 434,-89 434,-95 428,-101 422,-101"/>
<text xml:space="preserve" text-anchor="middle" x="402" y="-76.75" font-family="JetBrains Mono, Fira Code, Consolas, Helvetica" font-size="20.00" fill="#333333">else</text>
</g>
<!-- ast_541c632e_0&#45;&gt;ast_541c632e_6 -->
<g id="edge6" class="edge">
<title>ast_541c632e_0&#45;&gt;ast_541c632e_6</title>
<path fill="none" stroke="#333333" stroke-width="1.5" d="M286.91,-134.7C308.29,-125.29 338.07,-112.17 361.98,-101.63"/>
<polygon fill="#333333" stroke="#333333" stroke-width="1.5" points="362.67,-104 368.09,-98.94 360.7,-99.52 362.67,-104"/>
</g>
<!-- ast_541c632e_5 -->
<g id="node7" class="node">
<title>ast_541c632e_5</title>
<path fill="none" stroke="none" stroke-width="2" d="M322,-36C322,-36 292,-36 292,-36 286,-36 280,-30 280,-24 280,-24 280,-12 280,-12 280,-6 286,0 292,0 292,0 322,0 322,0 328,0 334,-6 334,-12 334,-12 334,-24 334,-24 334,-30 328,-36 322,-36"/>
<text xml:space="preserve" text-anchor="middle" x="307" y="-11.75" font-family="JetBrains Mono, Fira Code, Consolas, Helvetica" font-size="20.00" fill="#333333">a</text>
</g>
<!-- ast_541c632e_4&#45;&gt;ast_541c632e_5 -->
<g id="edge5" class="edge">
<title>ast_541c632e_4&#45;&gt;ast_541c632e_5</title>
<path fill="none" stroke="#333333" stroke-width="1.5" d="M307,-64.12C307,-58.15 307,-51.38 307,-44.93"/>
<polygon fill="#333333" stroke="#333333" stroke-width="1.5" points="309.45,-45.12 307,-38.12 304.55,-45.12 309.45,-45.12"/>
</g>
<!-- ast_541c632e_8 -->
<g id="node9" class="node">
<title>ast_541c632e_8</title>
<path fill="none" stroke="none" stroke-width="2" d="M512,-36C512,-36 482,-36 482,-36 476,-36 470,-30 470,-24 470,-24 470,-12 470,-12 470,-6 476,0 482,0 482,0 512,0 512,0 518,0 524,-6 524,-12 524,-12 524,-24 524,-24 524,-30 518,-36 512,-36"/>
<text xml:space="preserve" text-anchor="middle" x="497" y="-11.75" font-family="JetBrains Mono, Fira Code, Consolas, Helvetica" font-size="20.00" fill="#333333">a</text>
</g>
<!-- ast_541c632e_7&#45;&gt;ast_541c632e_8 -->
<g id="edge8" class="edge">
<title>ast_541c632e_7&#45;&gt;ast_541c632e_8</title>
<path fill="none" stroke="#333333" stroke-width="1.5" d="M497,-64.12C497,-58.15 497,-51.38 497,-44.93"/>
<polygon fill="#333333" stroke="#333333" stroke-width="1.5" points="499.45,-45.12 497,-38.12 494.55,-45.12 499.45,-45.12"/>
</g>
</g>
</svg>