<svg width="332pt" height="304pt"
 viewBox="0.00 0.00 332.00 304.00" xmlns="http://www.w3.org/2000/svg" xmlns:xlink="http://www.w3.org/1999/xlink">
<g id="graph0" class="graph" transform="scale(1 1) rotate(0) translate(4 300)">
<title>AST</title>
<!-- ast_b261caa5_0 -->
<g id="node1" class="node">
<title>ast_b261caa5_0</title>
<path fill="none" stroke="#8a6cff" stroke-width="2" d="M222,-296C222,-296 192,-296 192,-296 186,-296 180,-290 180,-284 180,-284 180,-272 180,-272 180,-266 186,-260 192,-260 192,-260 222,-260 222,-260 228,-260 234,-266 234,-272 234,-272 234,-284 234,-284 234,-290 228,-296 222,-296"/>
<text xml:space="preserve" text-anchor="middle" x="207" y="-271.75" font-family="JetBrains Mono, Fira Code, Consolas, Helvetica" font-size="20.00" fill="#8a6cff">E</text>
</g>
<!-- ast_b261caa5_1 -->
<g id="node2" class="node">
<title>ast_b261caa5_1</title>
<path fill="none" stroke="#8a6cff" stroke-width="2" d="M132,-231C132,-231 102,-231 102,-231 96,-231 90,-225 90,-219 90,-219 90,-207 90,-207 90,-201 96,-195 102,-195 102,-195 132,-195 132,-195 138,-195 144,-201 144,-207 144,-207 144,-219 144,-219 144,-225 138,-231 132,-231"/>
<text xml:space="preserve" text-anchor="middle" x="117" y="-206.75" font-family="JetBrains Mono, Fira Code, Consolas, Helvetica" font-size="20.00" fill="#8a6cff">E</text>
</g>
<!-- ast_b261caa5_0&#45;&gt;ast_b261caa5_1 -->
<g id="edge1" class="edge">
<title>ast_b261caa5_0&#45;&gt;ast_b261caa5_1</title>
<path fill="none" stroke="#333333" stroke-width="1.5" d="M181.45,-259.12C171.66,-252.27 160.36,-244.35 149.98,-237.08"/>
<polygon fill="#333333" stroke="#333333" stroke-width="1.5" points="151.61,-235.24 144.47,-233.23 148.8,-239.25 151.61,-235.24"/>
</g>
<!-- ast_b261caa5_9 -->
<g id="node6" class="node">
<title>ast_b261caa5_9</title>
<path fill="none" stroke="#8a6cff" stroke-width="2" d="M312,-231C312,-231 282,-231 282,-231 276,-231 270,-225 270,-219 270,-219 270,-207 270,-207 270,-201 276,-195 282,-195 282,-195 312,-195 312,-195 318,-195 324,-201 324,-207 324,-207 324,-219 324,-219 324,-225 318,-231 312,-231"/>
<text xml:space="preserve" text-anchor="middle" x="297" y="-206.75" font-family="JetBrains Mono, Fira Code, Consolas, Helvetica" font-size="20.00" fill="#8a6cff">T</text>
</g>
<!-- ast_b261caa5_0&#45;&gt;ast_b261caa5_9 -->
<g id="edge9" class="edge">
<title>ast_b261caa5_0&#45;&gt;ast_b261caa5_9</title>
<path fill="none" stroke="#333333" stroke-width="1.5" d="M232.55,-259.12C242.34,-252.27 253.64,-244.35 264.02,-237.08"/>
<polygon fill="#333333" stroke="#333333" stroke-width="1.5" points="265.2,-239.25 269.53,-233.23 262.39,-235.24 265.2,-239.25"/>
</g>
<!-- ast_b261caa5_8 -->
<g id="node10" class="node">
<title>ast_b261caa5_8</title>
<path fill="none" stroke="none" stroke-width="2" d="M222,-231C222,-231 192,-231 192,-231 186,-231 180,-225 180,-219 180,-219 180,-207 180,-207 180,-201 186,-195 192,-195 192,-195 222,-195 222,-195 228,-195 234,-201 234,-207 234,-207 234,-219 234,-219 234,-225 228,-231 222,-231"/>
<text xml:space="preserve" text-anchor="middle" x="207" y="-206.75" font-family="JetBrains Mono, Fira Code, Consolas, Helvetica" font-size="20.00" fill="#333333">&#45;</text>
</g>
<!-- ast_b261caa5_0&#45;&gt;ast_b261caa5_8 -->
<g id="edge8" class="edge">
<title>ast_b261caa5_0&#45;&gt;ast_b261caa5_8</title>
<path fill="none" stroke="#333333" stroke-width="1.5" d="M207,-259.12C207,-253.15 207,-246.38 207,-239.93"/>
<polygon fill="#333333" stroke="#333333" stroke-width="1.5" points="209.45,-240.12 207,-233.12 204.55,-240.12 209.45,-240.12"/>
</g>
<!-- ast_b261caa5_2 -->
<g id="node3" class="node">
<title>ast_b261caa5_2</title>
<path fill="none" stroke="#8a6cff" stroke-width="2" d="M42,-166C42,-166 12,-166 12,-166 6,-166 0,-160 0,-154 0,-154 0,-142 0,-142 0,-136 6,-130 12,-130 12,-130 42,-130 42,-130 48,-130 54,-136 54,-142 54,-142 54,-154 54,-154 54,-160 48,-166 42,-166"/>
<text xml:space="preserve" text-anchor="middle" x="27" y="-141.75" font-family="JetBrains Mono, Fira Code, Consolas, Helvetica" font-size="20.00" fill="#8a6cff">E</text>
</g>
<!-- ast_b261caa5_1&#45;&gt;ast_b261caa5_2 -->
<g id="edge2" class="edge">
<title>ast_b261caa5_1&#45;&gt;ast_b261caa5_2</title>
<path fill="none" stroke="#333333" stroke-width="1.5" d="M91.45,-194.12C81.66,-187.27 70.36,-179.35 59.98,-172.08"/>
<polygon fill="#333333" stroke="#333333" stroke-width="1.5" points="61.61,-170.24 54.47,-168.23 58.8,-174.25 61.61,-170.24"/>
</g>
<!-- ast_b261caa5_6 -->
<g id="node5" class="node">
<title>ast_b261caa5_6</title>
<path fill="none" stroke="#8a6cff" stroke-width="2" d="M222,-166C222,-166 192,-166 192,-166 186,-166 180,-160 180,-154 180,-154 180,-142 180,-142 180,-136 186,-130 192,-130 192,-130 222,-130 222,-130 228,-130 234,-136 234,-142 234,-142 234,-154 234,-154 234,-160 228,-166 222,-166"/>
<text xml:space="preserve" text-anchor="middle" x="207" y="-141.75" font-family="JetBrains Mono, Fira Code, Consolas, Helvetica" font-size="20.00" fill="#8a6cff">T</text>
</g>
<!-- ast_b261caa5_1&#45;&gt;ast_b261caa5_6 -->
<g id="edge6" class="edge">
<title>ast_b261caa5_1&#45;&gt;ast_b261caa5_6</title>
<path fill="none" stroke="#333333" stroke-width="1.5" d="M142.55,-194.12C152.34,-187.27 163.64,-179.35 174.02,-172.08"/>
<polygon fill="#333333" stroke="#333333" stroke-width="1.5" points="175.2,-174.25 179.53,-168.23 172.39,-170.24 175.2,-174.25"/>
</g>
<!-- ast_b261caa5_5 -->
<g id="node8" class="node">
<title>ast_b261caa5_5</title>
<path fill="none" stroke="none" stroke-width="2" d="M132,-166C132,-166 102,-166 102,-166 96,-166 90,-160 90,-154 90,-154 90,-142 90,-142 90,-136 96,-130 102,-130 102,-130 132,-130 132,-130 138,-130 144,-136 144,-142 144,-142 144,-154 144,-154 144,-160 138,-166 132,-166"/>
<text xml:space="preserve" text-anchor="middle" x="117" y="-141.75" font-family="JetBrains Mono, Fira Code, Consolas, Helvetica" font-size="20.00" fill="#333333">&#45;</text>
</g>
<!-- ast_b261caa5_1&#45;&gt;ast_b261caa5_5 -->
<g id="edge5" class="edge">
<title>ast_b261caa5_1&#45;&gt;ast_b261caa5_5</title>
<path fill="none" stroke="#333333" stroke-width="1.5" d="M117,-194.12C117,-188.15 117,-181.38 117,-174.93"/>
<polygon fill="#333333" stroke="#333333" stroke-width="1.5" points="119.45,-175.12 117,-168.12 114.55,-175.12 119.45,-175.12"/>
</g>
<!-- ast_b261caa5_3 -->
<g id="node4" class="node">
<title>ast_b261caa5_3</title>
<path fill="none" stroke="#8a6cff" stroke-width="2" d="M42,-101C42,-101 12,-101 12,-101 6,-101 0,-95 0,-89 0,-89 0,-77 0,-77 0,-71 6,-65 12,-65 12,-65 42,-65 42,-65 48,-65 54,-71 54,-77 54,-77 54,-89 54,-89 54,-95 48,-101 42,-101"/>
<text xml:space="preserve" text-anchor="middle" x="27" y="-76.75" font-family="JetBrains Mono, Fira Code, Consolas, Helvetica" font-size="20.00" fill="#8a6cff">T</text>
</g>
<!-- ast_b261caa5_2&#45;&gt;ast_b261caa5_3 -->
<g id="edge3" class="edge">
<title>ast_b261caa5_2&#45;&gt;ast_b261caa5_3</title>
<path fill="none" stroke="#333333" stroke-width="1.5" d="M27,-129.12C27,-123.35 27,-116.82 27,-110.57"/>
<polygon fill="#333333" stroke="#333333" stroke-width="1.5" points="29.45,-110.98 27,-103.98 24.55,-110.98 29.45,-110.98"/>
</g>
<!-- ast_b261caa5_4 -->
<g id="node7" class="node">
<title>ast_b261caa5_4</title>
<path fill="none" stroke="none" stroke-width="2" d="M42,-36C42,-36 12,-36 12,-36 6,-36 0,-30 0,-24 0,-24 0,-12 0,-12 0,-6 6,0 12,0 12,0 42,0 42,0 48,0 54,-6 54,-12 54,-12 54,-24 54,-24 54,-30 48,-36 42,-36"/>
<text xml:space="preserve" text-anchor="middle" x="27" y="-11.75" font-family="JetBrains Mono, Fira Code, Consolas, Helvetica" font-size="20.00" fill="#333333">id</text>
</g>
<!-- ast_b261caa5_3&#45;&gt;ast_b261caa5_4 -->
<g id="edge4" class="edge">
<title>ast_b261caa5_3&#45;&gt;ast_b261caa5_4</title>
<path fill="none" stroke="#333333" stroke-width="1.5" d="M27,-64.12C27,-58.15 27,-51.38 27,-44.93"/>
<polygon fill="#333333" stroke="#333333" stroke-width="1.5" points="29.45,-45.12 27,-38.12 24.55,-45.12 29.45,-45.12"/>
</g>
<!-- ast_b261caa5_7 -->
<g id="node9" class="node">
<title>ast_b261caa5_7</title>
<path fill="none" stroke="none" stroke-width="2" d="M222,-101C222,-101 192,-101 192,-101 186,-101 180,-95 180,-89 180,-89 180,-77 180,-77 180,-71 186,-65 192,-65 192,-65 222,-65 222,-65 228,-65 234,-71 234,-77 234,-77 234,-89 234,-89 234,-95 228,-101 222,-101"/>
<text xml:space="preserve" text-anchor="middle" x="207" y="-76.75" font-family="JetBrains Mono, Fira Code, Consolas, Helvetica" font-size="20.00" fill="#333333">id</text>
</g>
<!-- ast_b261caa5_6&#45;&gt;ast_b261caa5_7 -->
<g id="edge7" class="edge">
<title>ast_b261caa5_6&#45;&gt;ast_b261caa5_7</title>
<path fill="none" stroke="#333333" stroke-width="1.5" d="M207,-129.12C207,-123.15 207,-116.38 207,-109.93"/>
<polygon fill="#333333" stroke="#333333" stroke-width="1.5" points="209.45,-110.12 207,-103.12 204.55,-110.12 209.45,-110.12"/>
</g>
<!-- ast_b261caa5_10 -->
<g id="node11" class="node">
<title>ast_b261caa5_10</title>
<path fill="none" stroke="none" stroke-width="2" d="M312,-166C312,-166 282,-166 282,-166 276,-166 270,-160 270,-154 270,-154 270,-142 270,-142 270,-136 276,-130 282,-130 282,-130 312,-130 312,-130 318,-130 324,-136 324,-142 324,-142 324,-154 324,-154 324,-160 318,-166 312,-166"/>
<text xml:space="preserve" text-anchor="middle" x="297" y="-141.75" font-family="JetBrains Mono, Fira Code, Consolas, Helvetica" font-size="20.00" fill="#333333">id</text>
</g>
<!-- ast_b261caa5_9&#45;&gt;ast_b261caa5_10 -->
<g id="edge10" class="edge">
<title>ast_b261caa5_9&#45;&gt;ast_b261caa5_10</title>
<path fill="none" stroke="#333333" stroke-width="1.5" d="M297,-194.12C297,-188.15 297,-181.38 297,-174.93"/>
<polygon fill="#333333" stroke="#333333" stroke-width="1.5" points="299.45,-175.12 297,-168.12 294.55,-175.12 299.45,-175.12"/>
</g>
</g>
</svg>