<svg width="579pt" height="239pt"
 viewBox="0.00 0.00 579.00 239.00" xmlns="http://www.w3.org/2000/svg" xmlns:xlink="http://www.w3.org/1999/xlink">
<g id="graph0" class="graph" transform="scale(1 1) rotate(0) translate(4 235)">
<title>AST</title>
<!-- ast_dd313198_0 -->
<g id="node1" class="node">
<title>ast_dd313198_0</title>
<path fill="none" stroke="#8a6cff" stroke-width="2" d="M179,-231C179,-231 149,-231 149,-231 143,-231 137,-225 137,-219 137,-219 137,-207 137,-207 137,-201 143,-195 149,-195 149,-195 179,-195 179,-195 185,-195 191,-201 191,-207 191,-207 191,-219 191,-219 191,-225 185,-231 179,-231"/>
<text xml:space="preserve" text-anchor="middle" x="164" y="-206.75" font-family="JetBrains Mono, Fira Code, Consolas, Helvetica" font-size="20.00" fill="#8a6cff">S</text>
</g>
<!-- ast_dd313198_4 -->
<g id="node2" class="node">
<title>ast_dd313198_4</title>
<path fill="none" stroke="#8a6cff" stroke-width="2" d="M322,-166C322,-166 292,-166 292,-166 286,-166 280,-160 280,-154 280,-154 280,-142 280,-142 280,-136 286,-130 292,-130 292,-130 322,-130 322,-130 328,-130 334,-136 334,-142 334,-142 334,-154 334,-154 334,-160 328,-166 322,-166"/>
<text xml:space="preserve" text-anchor="middle" x="307" y="-141.75" font-family="JetBrains Mono, Fira Code, Consolas, Helvetica" font-size="20.00" fill="#8a6cff">S</text>
</g>
<!-- ast_dd313198_0&#45;&gt;ast_dd313198_4 -->
<g id="edge4" class="edge">
<title>ast_dd313198_0&#45;&gt;ast_dd313198_4</title>
<path fill="none" stroke="#333333" stroke-width="1.5" d="M191.91,-199.7C214.45,-189.77 246.34,-175.73 270.83,-164.93"/>
<polygon fill="#333333" stroke="#333333" stroke-width="1.5" points="271.66,-167.25 277.08,-162.18 269.69,-162.76 271.66,-167.25"/>
</g>
<!-- ast_dd313198_1 -->
<g id="node5" class="node">
<title>ast_dd313198_1</title>
<path fill="none" stroke="none" stroke-width="2" d="M42,-166C42,-166 12,-166 12,-166 6,-166 0,-160 0,-154 0,-154 0,-142 0,-142 0,-136 6,-130 12,-130 12,-130 42,-130 42,-130 48,-130 54,-136 54,-142 54,-142 54,-154 54,-154 54,-160 48,-166 42,-166"/>
<text xml:space="preserve" text-anchor="middle" x="27" y="-141.75" font-family="JetBrains Mono, Fira Code, Consolas, Helvetica" font-size="20.00" fill="#333333">if</text>
</g>
<!-- ast_dd313198_0&#45;&gt;ast_dd313198_1 -->
<g id="edge1" class="edge">
<title>ast_dd313198_0&#45;&gt;ast_dd313198_1</title>
<path fill="none" stroke="#333333" stroke-width="1.5" d="M136.28,-199.25C114.83,-189.39 85,-175.67 61.92,-165.06"/>
<polygon fill="#333333" stroke="#333333" stroke-width="1.5" points="63.2,-162.95 55.81,-162.25 61.15,-167.4 63.2,-162.95"/>
</g>
<!-- ast_dd313198_2 -->
<g id="node6" class="node">
<title>ast_dd313198_2</title>
<path fill="none" stroke="none" stroke-width="2" d="M132,-166C132,-166 102,-166 102,-166 96,-166 90,-160 90,-154 90,-154 90,-142 90,-142 90,-136 96,-130 102,-130 102,-130 132,-130 132,-130 138,-130 144,-136 144,-142 144,-142 144,-154 144,-154 144,-160 138,-166 132,-166"/>
<text xml:space="preserve" text-anchor="middle" x="117" y="-141.75" font-family="JetBrains Mono, Fira Code, Consolas, Helvetica" font-size="20.00" fill="#333333">c</text>
</g>
<!-- ast_dd313198_0&#45;&gt;ast_dd313198_2 -->
<g id="edge2" class="edge">
<title>ast_dd313198_0&#45;&gt;ast_dd313198_2</title>
<path fill="none" stroke="#333333" stroke-width="1.5" d="M150.66,-194.12C145.79,-187.6 140.21,-180.12 135.01,-173.14"/>
<polygon fill="#333333" stroke="#333333" stroke-width="1.5" points="137.08,-171.81 130.93,-167.67 133.15,-174.74 137.08,-171.81"/>
</g>
<!-- ast_dd313198_3 -->
<g id="node7" class="node">
<title>ast_dd313198_3</title>
<path fill="none" stroke="none" stroke-width="2" d="M232,-166C232,-166 192,-166 192,-166 186,-166 180,-160 180,-154 180,-154 180,-142 180,-142 180,-136 186,-130 192,-130 192,-130 232,-130 232,-130 238,-130 244,-136 244,-142 244,-142 244,-154 244,-154 244,-160 238,-166 232,-166"/>
<text xml:space="preserve" text-anchor="middle" x="212" y="-141.75" font-family="JetBrains Mono, Fira Code, Consolas, Helvetica" font-size="20.00" fill="#333333">then</text>
</g>
<!-- ast_dd313198_0&#45;&gt;ast_dd313198_3 -->
<g id="edge3" class="edge">
<title>ast_dd313198_0&#45;&gt;ast_dd313198_3</title>
<path fill="none" stroke="#333333" stroke-width="1.5" d="M177.63,-194.12C182.59,-187.6 188.29,-180.12 193.61,-173.14"/>
<polygon fill="#333333" stroke="#333333" stroke-width="1.5" points="195.5,-174.71 197.79,-167.65 191.6,-171.74 195.5,-174.71"/>
</g>
<!-- ast_dd313198_8 -->
<g id="node3" class="node">
<title>ast_dd313198_8</title>
<path fill="none" stroke="#8a6cff" stroke-width="2" d="M369,-101C369,-101 339,-101 339,-101 333,-101 327,-95 327,-89 327,-89 327,-77 327,-77 327,-71 333,-65 339,-65 339,-65 369,-65 369,-65 375,-65 381,-71 381,-77 381,-77 381,-89 381,-89 381,-95 375,-101 369,-101"/>
<text xml:space="preserve" text-anchor="middle" x="354" y="-76.75" font-family="JetBrains Mono, Fira Code, Consolas, Helvetica" font-size="20.00" fill="#8a6cff">S</text>
</g>
<!-- ast_dd313198_4&#45;&gt;ast_dd313198_8 -->
<g id="edge8" class="edge">
<title>ast_dd313198_4&#45;&gt;ast_dd313198_8</title>
<path fill="none" stroke="#333333" stroke-width="1.5" d="M320.34,-129.12C325.05,-122.81 330.42,-115.6 335.48,-108.83"/>
<polygon fill="#333333" stroke="#333333" stroke-width="1.5" points="337.21,-110.61 339.43,-103.53 333.28,-107.68 337.21,-110.61"/>
</g>
<!-- ast_dd313198_11 -->
<g id="node4" class="node">
<title>ast_dd313198_11</title>
<path fill="none" stroke="#8a6cff" stroke-width="2" d="M559,-101C559,-101 529,-101 529,-101 523,-101 517,-95 517,-89 517,-89 517,-77 517,-77 517,-71 523,-65 529,-65 529,-65 559,-65 559,-65 565,-65 571,-71 571,-77 571,-77 571,-89 571,-89 571,-95 565,-101 559,-101"/>
<text xml:space="preserve" text-anchor="middle" x="544" y="-76.75" font-family="JetBrains Mono, Fira Code, Consolas, Helvetica" font-size="20.00" fill="#8a6cff">S</text>
</g>
<!-- ast_dd313198_4&#45;&gt;ast_dd313198_11 -->
<g id="edge11" class="edge">
<title>ast_dd313198_4&#45;&gt;ast_dd313198_11</title>
<path fill="none" stroke="#333333" stroke-width="1.5" d="M334.96,-141.46C372.6,-133.73 441.5,-118.67 499,-101 501.79,-100.14 504.67,-99.2 507.54,-98.21"/>
<polygon fill="#333333" stroke="#333333" stroke-width="1.5" points="508.19,-100.58 513.96,-95.92 506.55,-95.97 508.19,-100.58"/>
</g>
<!-- ast_dd313198_5 -->
<g id="node8" class="node">
<title>ast_dd313198_5</title>
<path fill="none" stroke="none" stroke-width="2" d="M89,-101C89,-101 59,-101 59,-101 53,-101 47,-95 47,-89 47,-89 47,-77 47,-77 47,-71 53,-65 59,-65 59,-65 89,-65 89,-65 95,-65 101,-71 101,-77 101,-77 101,-89 101,-89 101,-95 95,-101 89,-101"/>
<text xml:space="preserve" text-anchor="middle" x="74" y="-76.75" font-family="JetBrains Mono, Fira Code, Consolas, Helvetica" font-size="20.00" fill="#333333">if</text>
</g>
<!-- ast_dd313198_4&#45;&gt;ast_dd313198_5 -->
<g id="edge5" class="edge">
<title>ast_dd313198_4&#45;&gt;ast_dd313198_5</title>
<path fill="none" stroke="#333333" stroke-width="1.5" d="M279.15,-135.68C273.53,-133.62 267.62,-131.62 262,-130 199.69,-112.04 181.31,-118.96 119,-101 115.85,-100.09 112.6,-99.06 109.36,-97.97"/>
<polygon fill="#333333" stroke="#333333" stroke-width="1.5" points="110.45,-95.75 103.03,-95.72 108.81,-100.37 110.45,-95.75"/>
</g>
<!-- ast_dd313198_6 -->
<g id="node9" class="node">
<title>ast_dd313198_6</title>
<path fill="none" stroke="none" stroke-width="2" d="M179,-101C179,-101 149,-101 149,-101 143,-101 137,-95 137,-89 137,-89 137,-77 137,-77 137,-71 143,-65 149,-65 149,-65 179,-65 179,-65 185,-65 191,-71 191,-77 191,-77 191,-89 191,-89 191,-95 185,-101 179,-101"/>
<text xml:space="preserve" text-anchor="middle" x="164" y="-76.75" font-family="JetBrains Mono, Fira Code, Consolas, Helvetica" font-size="20.00" fill="#333333">c</text>
</g>
<!-- ast_dd313198_4&#45;&gt;ast_dd313198_6 -->
<g id="edge6" class="edge">
<title>ast_dd313198_4&#45;&gt;ast_dd313198_6</title>
<path fill="none" stroke="#333333" stroke-width="1.5" d="M279.09,-134.7C256.26,-124.65 223.84,-110.36 199.23,-99.52"/>
<polygon fill="#333333" stroke="#333333" stroke-width="1.5" points="200.34,-97.33 192.95,-96.75 198.37,-101.82 200.34,-97.33"/>
</g>
<!-- ast_dd313198_7 -->
<g id="node10" class="node">
<title>ast_dd313198_7</title>
<path fill="none" stroke="none" stroke-width="2" d="M279,-101C279,-101 239,-101 239,-101 233,-101 227,-95 227,-89 227,-89 227,-77 227,-77 227,-71 233,-65 239,-65 239,-65 279,-65 279,-65 285,-65 291,-71 291,-77 291,-77 291,-89 291,-89 291,-95 285,-101 279,-101"/>
<text xml:space="preserve" text-anchor="middle" x="259" y="-76.75" font-family="JetBrains Mono, Fira Code, Consolas, Helvetica" font-size="20.00" fill="#333333">then</text>
</g>
<!-- ast_dd313198_4&#45;&gt;ast_dd313198_7 -->
<g id="edge7" class="edge">
<title>ast_dd313198_4&#45;&gt;ast_dd313198_7</title>
<path fill="none" stroke="#333333" stroke-width="1.5" d="M293.37,-129.12C288.41,-122.6 282.71,-115.12 277.39,-108.14"/>
<polygon fill="#333333" stroke="#333333" stroke-width="1.5" points="279.4,-106.74 273.21,-102.65 275.5,-109.71 279.4,-106.74"/>
</g>
<!-- ast_dd313198_10 -->
<g id="node12" class="node">
<title>ast_dd313198_10</title>
<path fill="none" stroke="none" stroke-width="2" d="M469,-101C469,-101 429,-101 429,-101 423,-101 417,-95 417,-89 417,-89 417,-77 417,-77 417,-71 423,-65 429,-65 429,-65 469,-65 469,-65 475,-65 481,-71 481,-77 481,-77 481,-89 481,-89 481,-95 475,-101 469,-101"/>
<text xml:space="preserve" text-anchor="middle" x="449" y="-76.75" font-family="JetBrains Mono, Fira Code, Consolas, Helvetica" font-size="20.00" fill="#333333">else</text>
</g>
<!-- ast_dd313198_4&#45;&gt;ast_dd313198_10 -->
<g id="edge10" class="edge">
<title>ast_dd313198_4&#45;&gt;ast_dd313198_10</title>
<path fill="none" stroke="#333333" stroke-width="1.5" d="M334.72,-134.7C355.78,-125.36 385.06,-112.37 408.71,-101.88"/>
<polygon fill="#333333" stroke="#333333" stroke-width="1.5" points="409.66,-104.13 415.06,-99.06 407.67,-99.66 409.66,-104.13"/>
</g>
<!-- ast_dd313198_9 -->
<g id="node11" class="node">
<title>ast_dd313198_9</title>
<path fill="none" stroke="none" stroke-width="2" d="M369,-36C369,-36 339,-36 339,-36 333,-36 327,-30 327,-24 327,-24 327,-12 327,-12 327,-6 333,0 339,0 339,0 369,0 369,0 375,0 381,-6 381,-12 381,-12 381,-24 381,-24 381,-30 375,-36 369,-36"/>
<text xml:space="preserve" text-anchor="middle" x="354" y="-11.75" font-family="JetBrains Mono, Fira Code, Consolas, Helvetica" font-size="20.00" fill="#333333">a</text>
</g>
<!-- ast_dd313198_8&#45;&gt;ast_dd313198_9 -->
<g id="edge9" class="edge">
<title>ast_dd313198_8&#45;&gt;ast_dd313198_9</title>
<path fill="none" stroke="#333333" stroke-width="1.5" d="M354,-64.12C354,-58.15 354,-51.38 354,-44.93"/>
<polygon fill="#333333" stroke="#333333" stroke-width="1.5" points="356.45,-45.12 354,-38.12 351.55,-45.12 356.45,-45.12"/>
</g>
<!-- ast_dd313198_12 -->
<g id="node13" class="node">
<title>ast_dd313198_12</title>
<path fill="none" stroke="none" stroke-width="2" d="M559,-36C559,-36 529,-36 529,-36 523,-36 517,-30 517,-24 517,-24 517,-12 517,-12 517,-6 523,0 529,0 529,0 559,0 559,0 565,0 571,-6 571,-12 571,-12 571,-24 571,-24 571,-30 565,-36 559,-36"/>
<text xml:space="preserve" text-anchor="middle" x="544" y="-11.75" font-family="JetBrains Mono, Fira Code, Consolas, Helvetica" font-size="20.00" fill="#333333">a</text>
</g>
<!-- ast_dd313198_11&#45;&gt;ast_dd313198_12 -->
<g id="edge12" class="edge">
<title>ast_dd313198_11&#45;&gt;ast_dd313198_12</title>
<path fill="none" stroke="#333333" stroke-width="1.5" d="M544,-64.12C544,-58.15 544,-51.38 544,-44.93"/>
<polygon fill="#333333" stroke="#333333" stroke-width="1.5" points="546.45,-45.12 544,-38.12 541.55,-45.12 546.45,-45.12"/>
</g>
</g>
</svg>