<svg width="197pt" height="174pt"
 viewBox="0.00 0.00 197.00 174.00" xmlns="http://www.w3.org/2000/svg" xmlns:xlink="http://www.w3.org/1999/xlink">
<g id="graph0" class="graph" transform="scale(1 1) rotate(0) translate(4 170)">
<title>AST</title>
<!-- ast_fd12763b_0 -->
<g id="node1" class="node">
<title>ast_fd12763b_0</title>
<path fill="none" stroke="#8a6cff" stroke-width="2" d="M87,-166C87,-166 57,-166 57,-166 51,-166 45,-160 45,-154 45,-154 45,-142 45,-142 45,-136 51,-130 57,-130 57,-130 87,-130 87,-130 93,-130 99,-136 99,-142 99,-142 99,-154 99,-154 99,-160 93,-166 87,-166"/>
<text xml:space="preserve" text-anchor="middle" x="72" y="-141.75" font-family="JetBrains Mono, Fira Code, Consolas, Helvetica" font-size="20.00" fill="#8a6cff">=</text>
</g>
<!-- ast_fd12763b_2 -->
<g id="node2" class="node">
<title>ast_fd12763b_2</title>
<path fill="none" stroke="#8a6cff" stroke-width="2" d="M132,-101C132,-101 102,-101 102,-101 96,-101 90,-95 90,-89 90,-89 90,-77 90,-77 90,-71 96,-65 102,-65 102,-65 132,-65 132,-65 138,-65 144,-71 144,-77 144,-77 144,-89 144,-89 144,-95 138,-101 132,-101"/>
<text xml:space="preserve" text-anchor="middle" x="117" y="-76.75" font-family="JetBrains Mono, Fira Code, Consolas, Helvetica" font-size="20.00" fill="#8a6cff">+</text>
</g>
<!-- ast_fd12763b_0&#45;&gt;ast_fd12763b_2 -->
<g id="edge2" class="edge">
<title>ast_fd12763b_0&#45;&gt;ast_fd12763b_2</title>
<path fill="none" stroke="#333333" stroke-width="1.5" d="M84.77,-129.12C89.28,-122.81 94.43,-115.6 99.26,-108.83"/>
<polygon fill="#333333" stroke="#333333" stroke-width="1.5" points="100.95,-110.68 103.03,-103.56 96.97,-107.83 100.95,-110.68"/>
</g>
<!-- ast_fd12763b_1 -->
<g id="node3" class="node">
<title>ast_fd12763b_1</title>
<path fill="none" stroke="none" stroke-width="2" d="M42,-101C42,-101 12,-101 12,-101 6,-101 0,-95 0,-89 0,-89 0,-77 0,-77 0,-71 6,-65 12,-65 12,-65 42,-65 42,-65 48,-65 54,-71 54,-77 54,-77 54,-89 54,-89 54,-95 48,-101 42,-101"/>
<text xml:space="preserve" text-anchor="middle" x="27" y="-76.75" font-family="JetBrains Mono, Fira Code, Consolas, Helvetica" font-size="20.00" fill="#333333">x</text>
</g>
<!-- ast_fd12763b_0&#45;&gt;ast_fd12763b_1 -->
<g id="edge1" class="edge">
<title>ast_fd12763b_0&#45;&gt;ast_fd12763b_1</title>
<path fill="none" stroke="#333333" stroke-width="1.5" d="M59.23,-129.12C54.57,-122.6 49.23,-115.12 44.24,-108.14"/>
<polygon fill="#333333" stroke="#333333" stroke-width="1.5" points="46.42,-106.97 40.35,-102.69 42.43,-109.81 46.42,-106.97"/>
</g>
<!-- ast_fd12763b_3 -->
<g id="node4" class="node">
<title>ast_fd12763b_3</title>
<path fill="none" stroke="none" stroke-width="2" d="M87,-36C87,-36 57,-36 57,-36 51,-36 45,-30 45,-24 45,-24 45,-12 45,-12 45,-6 51,0 57,0 57,0 87,0 87,0 93,0 99,-6 99,-12 99,-12 99,-24 99,-24 99,-30 93,-36 87,-36"/>
<text xml:space="preserve" text-anchor="middle" x="72" y="-11.75" font-family="JetBrains Mono, Fira Code, Consolas, Helvetica" font-size="20.00" fill="#333333">6</text>
</g>
<!-- ast_fd12763b_2&#45;&gt;ast_fd12763b_3 -->
<g id="edge3" class="edge">
<title>ast_fd12763b_2&#45;&gt;ast_fd12763b_3</title>
<path fill="none" stroke="#333333" stroke-width="1.5" d="M104.23,-64.12C99.57,-57.6 94.23,-50.12 89.24,-43.14"/>
<polygon fill="#333333" stroke="#333333" stroke-width="1.5" points="91.42,-41.97 85.35,-37.69 87.43,-44.81 91.42,-41.97"/>
</g>
<!-- ast_fd12763b_4 -->
<g id="node5" class="node">
<title>ast_fd12763b_4</title>
<path fill="none" stroke="none" stroke-width="2" d="M177,-36C177,-36 147,-36 147,-36 141,-36 135,-30 135,-24 135,-24 135,-12 135,-12 135,-6 141,0 147,0 147,0 177,0 177,0 183,0 189,-6 189,-12 189,-12 189,-24 189,-24 189,-30 183,-36 177,-36"/>
<text xml:space="preserve" text-anchor="middle" x="162" y="-11.75" font-family="JetBrains Mono, Fira Code, Consolas, Helvetica" font-size="20.00" fill="#333333">a</text>
</g>
<!-- ast_fd12763b_2&#45;&gt;ast_fd12763b_4 -->
<g id="edge4" class="edge">
<title>ast_fd12763b_2&#45;&gt;ast_fd12763b_4</title>
<path fill="none" stroke="#333333" stroke-width="1.5" d="M129.77,-64.12C134.43,-57.6 139.77,-50.12 144.76,-43.14"/>
<polygon fill="#333333" stroke="#333333" stroke-width="1.5" points="146.57,-44.81 148.65,-37.69 142.58,-41.97 146.57,-44.81"/>
</g>
</g>
</svg>