<svg width="229pt" height="209pt"
 viewBox="0.00 0.00 229.00 209.00" xmlns="http://www.w3.org/2000/svg" xmlns:xlink="http://www.w3.org/1999/xlink">
<g id="graph0" class="graph" transform="scale(1 1) rotate(0) translate(4 205)">
<title>Flowchart</title>
<polygon fill="white" stroke="none" points="-4,4 -4,-205 224.91,-205 224.91,4 -4,4"/>
<!-- Decisao1 -->
<g id="node1" class="node">
<title>Decisao1</title>
<path fill="#fff9c4" stroke="#333333" d="M42.41,-197.19C42.41,-197.19 11.38,-186.81 11.38,-186.81 5.69,-184.9 5.69,-181.1 11.38,-179.19 11.38,-179.19 42.41,-168.81 42.41,-168.81 48.1,-166.9 59.48,-166.9 65.17,-168.81 65.17,-168.81 96.2,-179.19 96.2,-179.19 101.89,-181.1 101.89,-184.9 96.2,-186.81 96.2,-186.81 65.17,-197.19 65.17,-197.19 59.48,-199.1 48.1,-199.1 42.41,-197.19"/>
<text xml:space="preserve" text-anchor="middle" x="53.79" y="-179.5" font-family="Arial" font-size="10.00">num == 10</text>
</g>
<!-- PrintIgual -->
<g id="node2" class="node">
<title>PrintIgual</title>
<path fill="#f9f9f9" stroke="#333333" d="M208.91,-201C208.91,-201 154.66,-201 154.66,-201 148.66,-201 142.66,-195 142.66,-189 142.66,-189 142.66,-177 142.66,-177 142.66,-171 148.66,-165 154.66,-165 154.66,-165 208.91,-165 208.91,-165 214.91,-165 220.91,-171 220.91,-177 220.91,-177 220.91,-189 220.91,-189 220.91,-195 214.91,-201 208.91,-201"/>
<text xml:space="preserve" text-anchor="middle" x="181.79" y="-179.5" font-family="Arial" font-size="10.00">printf (&quot;Igual&quot;);</text>
</g>
<!-- Decisao1&#45;&gt;PrintIgual -->
<g id="edge1" class="edge">
<title>Decisao1&#45;&gt;PrintIgual</title>
<path fill="none" stroke="#333333" d="M108.82,-183C116.11,-183 123.56,-183 130.78,-183"/>
<polygon fill="#333333" stroke="#333333" points="130.75,-186.5 140.75,-183 130.75,-179.5 130.75,-186.5"/>
<text xml:space="preserve" text-anchor="middle" x="125.12" y="-187.95" font-family="Arial" font-size="9.00">SIM</text>
</g>
<!-- Decisao2 -->
<g id="node3" class="node">
<title>Decisao2</title>
<path fill="#fff9c4" stroke="#333333" d="M42.53,-114.34C42.53,-114.34 16.36,-104.66 16.36,-104.66 10.73,-102.58 10.73,-98.42 16.36,-96.34 16.36,-96.34 42.53,-86.66 42.53,-86.66 48.16,-84.58 59.42,-84.58 65.04,-86.66 65.04,-86.66 91.22,-96.34 91.22,-96.34 96.85,-98.42 96.85,-102.58 91.22,-104.66 91.22,-104.66 65.04,-114.34 65.04,-114.34 59.42,-116.42 48.16,-116.42 42.53,-114.34"/>
<text xml:space="preserve" text-anchor="middle" x="53.79" y="-97" font-family="Arial" font-size="10.00">num &gt; 10</text>
</g>
<!-- Decisao1&#45;&gt;Decisao2 -->
<g id="edge2" class="edge">
<title>Decisao1&#45;&gt;Decisao2</title>
<path fill="none" stroke="#333333" d="M53.79,-164.53C53.79,-154.51 53.79,-141.68 53.79,-130.21"/>
<polygon fill="#333333" stroke="#333333" points="57.29,-130.45 53.79,-120.45 50.29,-130.45 57.29,-130.45"/>
<text xml:space="preserve" text-anchor="middle" x="63.54" y="-138.45" font-family="Arial" font-size="9.00">NÃO</text>
</g>
<!-- PrintMaior -->
<g id="node4" class="node">
<title>PrintMaior</title>
<path fill="#f9f9f9" stroke="#333333" d="M207.41,-118.5C207.41,-118.5 150.16,-118.5 150.16,-118.5 144.16,-118.5 138.16,-112.5 138.16,-106.5 138.16,-106.5 138.16,-94.5 138.16,-94.5 138.16,-88.5 144.16,-82.5 150.16,-82.5 150.16,-82.5 207.41,-82.5 207.41,-82.5 213.41,-82.5 219.41,-88.5 219.41,-94.5 219.41,-94.5 219.41,-106.5 219.41,-106.5 219.41,-112.5 213.41,-118.5 207.41,-118.5"/>
<text xml:space="preserve" text-anchor="middle" x="178.79" y="-97" font-family="Arial" font-size="10.00">printf (&quot;Maior&quot;);</text>
</g>
<!-- Decisao2&#45;&gt;PrintMaior -->
<g id="edge3" class="edge">
<title>Decisao2&#45;&gt;PrintMaior</title>
<path fill="none" stroke="#333333" d="M103.91,-100.5C111.31,-100.5 118.95,-100.5 126.39,-100.5"/>
<polygon fill="#333333" stroke="#333333" points="126.35,-104 136.35,-100.5 126.35,-97 126.35,-104"/>
<text xml:space="preserve" text-anchor="middle" x="120.32" y="-105.45" font-family="Arial" font-size="9.00">SIM</text>
</g>
<!-- PrintMenor -->
<g id="node5" class="node">
<title>PrintMenor</title>
<path fill="#f9f9f9" stroke="#333333" d="M83.91,-36C83.91,-36 23.66,-36 23.66,-36 17.66,-36 11.66,-30 11.66,-24 11.66,-24 11.66,-12 11.66,-12 11.66,-6 17.66,0 23.66,0 23.66,0 83.91,0 83.91,0 89.91,0 95.91,-6 95.91,-12 95.91,-12 95.91,-24 95.91,-24 95.91,-30 89.91,-36 83.91,-36"/>
<text xml:space="preserve" text-anchor="middle" x="53.79" y="-14.5" font-family="Arial" font-size="10.00">printf (&quot;Menor&quot;);</text>
</g>
<!-- Decisao2&#45;&gt;PrintMenor -->
<g id="edge4" class="edge">
<title>Decisao2&#45;&gt;PrintMenor</title>
<path fill="none" stroke="#333333" d="M53.79,-82.03C53.79,-72.01 53.79,-59.18 53.79,-47.71"/>
<polygon fill="#333333" stroke="#333333" points="57.29,-47.95 53.79,-37.95 50.29,-47.95 57.29,-47.95"/>
<text xml:space="preserve" text-anchor="middle" x="63.54" y="-55.95" font-family="Arial" font-size="9.00">NÃO</text>
</g>
</g>
</svg>