<svg width="807pt" height="499pt"
 viewBox="0.00 0.00 807.00 499.00" xmlns="http://www.w3.org/2000/svg" xmlns:xlink="http://www.w3.org/1999/xlink">
<g id="graph0" class="graph" transform="scale(1 1) rotate(0) translate(4 495)">
<title>ProgrammingLanguages</title>
<polygon fill="white" stroke="none" points="-4,4 -4,-495 803.12,-495 803.12,4 -4,4"/>
<!-- C -->
<g id="node1" class="node">
<title>C</title>
<path fill="#cccccc" stroke="black" d="M287,-491C287,-491 203,-491 203,-491 197,-491 191,-485 191,-479 191,-479 191,-467 191,-467 191,-461 197,-455 203,-455 203,-455 287,-455 287,-455 293,-455 299,-461 299,-467 299,-467 299,-479 299,-479 299,-485 293,-491 287,-491"/>
<text xml:space="preserve" text-anchor="middle" x="245" y="-467.57" font-family="Arial Bold" font-size="14.00" fill="#000000">C</text>
</g>
<!-- awk -->
<g id="node2" class="node">
<title>awk</title>
<path fill="#cccccc" stroke="black" d="M215,-426C215,-426 131,-426 131,-426 125,-426 119,-420 119,-414 119,-414 119,-402 119,-402 119,-396 125,-390 131,-390 131,-390 215,-390 215,-390 221,-390 227,-396 227,-402 227,-402 227,-414 227,-414 227,-420 221,-426 215,-426"/>
<text xml:space="preserve" text-anchor="middle" x="173" y="-402.57" font-family="Arial Bold" font-size="14.00" fill="#000000">awk</text>
</g>
<!-- C&#45;&gt;awk -->
<g id="edge1" class="edge">
<title>C&#45;&gt;awk</title>
<path fill="none" stroke="#333333" stroke-width="1.5" d="M225.33,-454.78C218.02,-448.4 209.58,-441.01 201.64,-434.06"/>
<polygon fill="#333333" stroke="#333333" stroke-width="1.5" points="204.19,-431.64 194.36,-427.69 199.58,-436.91 204.19,-431.64"/>
</g>
<!-- C (K &amp; R) -->
<g id="node3" class="node">
<title>C (K &amp; R)</title>
<path fill="#cccccc" stroke="black" d="M385,-426C385,-426 301,-426 301,-426 295,-426 289,-420 289,-414 289,-414 289,-402 289,-402 289,-396 295,-390 301,-390 301,-390 385,-390 385,-390 391,-390 397,-396 397,-402 397,-402 397,-414 397,-414 397,-420 391,-426 385,-426"/>
<text xml:space="preserve" text-anchor="middle" x="343" y="-402.57" font-family="Arial Bold" font-size="14.00" fill="#000000">C (K &amp; R)</text>
</g>
<!-- C&#45;&gt;C (K &amp; R) -->
<g id="edge2" class="edge">
<title>C&#45;&gt;C (K &amp; R)</title>
<path fill="none" stroke="#333333" stroke-width="1.5" d="M272.04,-454.62C282.54,-447.87 294.73,-440.03 306.01,-432.78"/>
<polygon fill="#333333" stroke="#333333" stroke-width="1.5" points="307.62,-435.9 314.14,-427.55 303.84,-430.02 307.62,-435.9"/>
</g>
<!-- nawk -->
<g id="node4" class="node">
<title>nawk</title>
<path fill="#cccccc" stroke="black" d="M163,-361C163,-361 79,-361 79,-361 73,-361 67,-355 67,-349 67,-349 67,-337 67,-337 67,-331 73,-325 79,-325 79,-325 163,-325 163,-325 169,-325 175,-331 175,-337 175,-337 175,-349 175,-349 175,-355 169,-361 163,-361"/>
<text xml:space="preserve" text-anchor="middle" x="121" y="-337.57" font-family="Arial Bold" font-size="14.00" fill="#000000">nawk</text>
</g>
<!-- awk&#45;&gt;nawk -->
<g id="edge3" class="edge">
<title>awk&#45;&gt;nawk</title>
<path fill="none" stroke="#333333" stroke-width="1.5" d="M158.79,-389.78C153.86,-383.81 148.21,-376.97 142.81,-370.43"/>
<polygon fill="#333333" stroke="#333333" stroke-width="1.5" points="145.7,-368.43 136.64,-362.95 140.3,-372.89 145.7,-368.43"/>
</g>
<!-- ANSIC -->
<g id="node6" class="node">
<title>ANSIC</title>
<path fill="#cccccc" stroke="black" d="M346,-361C346,-361 262,-361 262,-361 256,-361 250,-355 250,-349 250,-349 250,-337 250,-337 250,-331 256,-325 262,-325 262,-325 346,-325 346,-325 352,-325 358,-331 358,-337 358,-337 358,-349 358,-349 358,-355 352,-361 346,-361"/>
<text xml:space="preserve" text-anchor="middle" x="304" y="-337.57" font-family="Arial Bold" font-size="14.00" fill="#000000">ANSIC</text>
</g>
<!-- C (K &amp; R)&#45;&gt;ANSIC -->
<g id="edge5" class="edge">
<title>C (K &amp; R)&#45;&gt;ANSIC</title>
<path fill="none" stroke="#333333" stroke-width="1.5" d="M332.34,-389.78C328.82,-384.09 324.8,-377.61 320.93,-371.34"/>
<polygon fill="#333333" stroke="#333333" stroke-width="1.5" points="324.08,-369.78 315.84,-363.12 318.13,-373.47 324.08,-369.78"/>
</g>
<!-- C with Classes -->
<g id="node7" class="node">
<title>C with Classes</title>
<path fill="#cccccc" stroke="black" d="M494,-361C494,-361 406,-361 406,-361 400,-361 394,-355 394,-349 394,-349 394,-337 394,-337 394,-331 400,-325 406,-325 406,-325 494,-325 494,-325 500,-325 506,-331 506,-337 506,-337 506,-349 506,-349 506,-355 500,-361 494,-361"/>
<text xml:space="preserve" text-anchor="middle" x="450" y="-337.57" font-family="Arial Bold" font-size="14.00" fill="#000000">C with Classes</text>
</g>
<!-- C (K &amp; R)&#45;&gt;C with Classes -->
<g id="edge6" class="edge">
<title>C (K &amp; R)&#45;&gt;C with Classes</title>
<path fill="none" stroke="#333333" stroke-width="1.5" d="M372.52,-389.62C384.22,-382.73 397.84,-374.71 410.37,-367.33"/>
<polygon fill="#333333" stroke="#333333" stroke-width="1.5" points="411.78,-370.57 418.62,-362.48 408.23,-364.53 411.78,-370.57"/>
</g>
<!-- Objective&#45;C -->
<g id="node8" class="node">
<title>Objective&#45;C</title>
<path fill="#cccccc" stroke="black" d="M638,-361C638,-361 554,-361 554,-361 548,-361 542,-355 542,-349 542,-349 542,-337 542,-337 542,-331 548,-325 554,-325 554,-325 638,-325 638,-325 644,-325 650,-331 650,-337 650,-337 650,-349 650,-349 650,-355 644,-361 638,-361"/>
<text xml:space="preserve" text-anchor="middle" x="596" y="-337.57" font-family="Arial Bold" font-size="14.00" fill="#000000">Objective&#45;C</text>
</g>
<!-- C (K &amp; R)&#45;&gt;Objective&#45;C -->
<g id="edge7" class="edge">
<title>C (K &amp; R)&#45;&gt;Objective&#45;C</title>
<path fill="none" stroke="#333333" stroke-width="1.5" d="M397.27,-393.48C436.13,-383.81 488.65,-370.73 529.94,-360.45"/>
<polygon fill="#333333" stroke="#333333" stroke-width="1.5" points="530.75,-363.85 539.61,-358.04 529.06,-357.06 530.75,-363.85"/>
</g>
<!-- Perl -->
<g id="node5" class="node">
<title>Perl</title>
<path fill="#cccccc" stroke="black" d="M113,-296C113,-296 29,-296 29,-296 23,-296 17,-290 17,-284 17,-284 17,-272 17,-272 17,-266 23,-260 29,-260 29,-260 113,-260 113,-260 119,-260 125,-266 125,-272 125,-272 125,-284 125,-284 125,-290 119,-296 113,-296"/>
<text xml:space="preserve" text-anchor="middle" x="71" y="-272.57" font-family="Arial Bold" font-size="14.00" fill="#000000">Perl</text>
</g>
<!-- nawk&#45;&gt;Perl -->
<g id="edge4" class="edge">
<title>nawk&#45;&gt;Perl</title>
<path fill="none" stroke="#333333" stroke-width="1.5" d="M107.34,-324.78C102.6,-318.81 97.17,-311.97 91.98,-305.43"/>
<polygon fill="#333333" stroke="#333333" stroke-width="1.5" points="95.02,-303.63 86.06,-297.97 89.53,-307.98 95.02,-303.63"/>
</g>
<!-- Perl 5.0 -->
<g id="node9" class="node">
<title>Perl 5.0</title>
<path fill="#cccccc" stroke="black" d="M96,-231C96,-231 12,-231 12,-231 6,-231 0,-225 0,-219 0,-219 0,-207 0,-207 0,-201 6,-195 12,-195 12,-195 96,-195 96,-195 102,-195 108,-201 108,-207 108,-207 108,-219 108,-219 108,-225 102,-231 96,-231"/>
<text xml:space="preserve" text-anchor="middle" x="54" y="-207.57" font-family="Arial Bold" font-size="14.00" fill="#000000">Perl 5.0</text>
</g>
<!-- Perl&#45;&gt;Perl 5.0 -->
<g id="edge8" class="edge">
<title>Perl&#45;&gt;Perl 5.0</title>
<path fill="none" stroke="#333333" stroke-width="1.5" d="M66.35,-259.78C64.93,-254.51 63.32,-248.55 61.75,-242.72"/>
<polygon fill="#333333" stroke="#333333" stroke-width="1.5" points="65.22,-242.13 59.23,-233.39 58.46,-243.95 65.22,-242.13"/>
</g>
<!-- ISO C (C99) -->
<g id="node12" class="node">
<title>ISO C (C99)</title>
<path fill="#cccccc" stroke="black" d="M240,-231C240,-231 156,-231 156,-231 150,-231 144,-225 144,-219 144,-219 144,-207 144,-207 144,-201 150,-195 156,-195 156,-195 240,-195 240,-195 246,-195 252,-201 252,-207 252,-207 252,-219 252,-219 252,-225 246,-231 240,-231"/>
<text xml:space="preserve" text-anchor="middle" x="198" y="-207.57" font-family="Arial Bold" font-size="14.00" fill="#000000">ISO C (C99)</text>
</g>
<!-- ANSIC&#45;&gt;ISO C (C99) -->
<g id="edge11" class="edge">
<title>ANSIC&#45;&gt;ISO C (C99)</title>
<path fill="none" stroke="#333333" stroke-width="1.5" d="M270.15,-324.68C257.89,-317.15 244.68,-307.42 235,-296 221.83,-280.47 212.48,-259.5 206.47,-242.65"/>
<polygon fill="#333333" stroke="#333333" stroke-width="1.5" points="209.87,-241.78 203.4,-233.4 203.23,-243.99 209.87,-241.78"/>
</g>
<!-- Python -->
<g id="node13" class="node">
<title>Python</title>
<path fill="#cccccc" stroke="black" d="M349,-296C349,-296 265,-296 265,-296 259,-296 253,-290 253,-284 253,-284 253,-272 253,-272 253,-266 259,-260 265,-260 265,-260 349,-260 349,-260 355,-260 361,-266 361,-272 361,-272 361,-284 361,-284 361,-290 355,-296 349,-296"/>
<text xml:space="preserve" text-anchor="middle" x="307" y="-272.57" font-family="Arial Bold" font-size="14.00" fill="#000000">Python</text>
</g>
<!-- ANSIC&#45;&gt;Python -->
<g id="edge12" class="edge">
<title>ANSIC&#45;&gt;Python</title>
<path fill="none" stroke="#333333" stroke-width="1.5" d="M304.82,-324.78C305.06,-319.65 305.34,-313.86 305.61,-308.18"/>
<polygon fill="#333333" stroke="#333333" stroke-width="1.5" points="309.09,-308.62 306.07,-298.46 302.1,-308.28 309.09,-308.62"/>
</g>
<!-- C++ -->
<g id="node15" class="node">
<title>C++</title>
<path fill="#cccccc" stroke="black" d="M493,-296C493,-296 409,-296 409,-296 403,-296 397,-290 397,-284 397,-284 397,-272 397,-272 397,-266 403,-260 409,-260 409,-260 493,-260 493,-260 499,-260 505,-266 505,-272 505,-272 505,-284 505,-284 505,-290 499,-296 493,-296"/>
<text xml:space="preserve" text-anchor="middle" x="451" y="-272.57" font-family="Arial Bold" font-size="14.00" fill="#000000">C++</text>
</g>
<!-- C with Classes&#45;&gt;C++ -->
<g id="edge14" class="edge">
<title>C with Classes&#45;&gt;C++</title>
<path fill="none" stroke="#333333" stroke-width="1.5" d="M450.27,-324.78C450.35,-319.65 450.45,-313.86 450.54,-308.18"/>
<polygon fill="#333333" stroke="#333333" stroke-width="1.5" points="454.03,-308.52 450.69,-298.46 447.03,-308.41 454.03,-308.52"/>
</g>
<!-- Oak -->
<g id="node17" class="node">
<title>Oak</title>
<path fill="#cccccc" stroke="black" d="M637,-231C637,-231 553,-231 553,-231 547,-231 541,-225 541,-219 541,-219 541,-207 541,-207 541,-201 547,-195 553,-195 553,-195 637,-195 637,-195 643,-195 649,-201 649,-207 649,-207 649,-219 649,-219 649,-225 643,-231 637,-231"/>
<text xml:space="preserve" text-anchor="middle" x="595" y="-207.57" font-family="Arial Bold" font-size="14.00" fill="#000000">Oak</text>
</g>
<!-- Objective&#45;C&#45;&gt;Oak -->
<g id="edge18" class="edge">
<title>Objective&#45;C&#45;&gt;Oak</title>
<path fill="none" stroke="#333333" stroke-width="1.5" d="M595.87,-324.74C595.7,-303.93 595.43,-268.64 595.23,-243.49"/>
<polygon fill="#333333" stroke="#333333" stroke-width="1.5" points="598.73,-243.64 595.15,-233.67 591.73,-243.7 598.73,-243.64"/>
</g>
<!-- Objective&#45;C 2.1 -->
<g id="node18" class="node">
<title>Objective&#45;C 2.1</title>
<path fill="#cccccc" stroke="black" d="M787.12,-231C787.12,-231 696.88,-231 696.88,-231 690.88,-231 684.88,-225 684.88,-219 684.88,-219 684.88,-207 684.88,-207 684.88,-201 690.88,-195 696.88,-195 696.88,-195 787.12,-195 787.12,-195 793.12,-195 799.12,-201 799.12,-207 799.12,-207 799.12,-219 799.12,-219 799.12,-225 793.12,-231 787.12,-231"/>
<text xml:space="preserve" text-anchor="middle" x="742" y="-207.57" font-family="Arial Bold" font-size="14.00" fill="#000000">Objective&#45;C 2.1</text>
</g>
<!-- Objective&#45;C&#45;&gt;Objective&#45;C 2.1 -->
<g id="edge17" class="edge">
<title>Objective&#45;C&#45;&gt;Objective&#45;C 2.1</title>
<path fill="none" stroke="#333333" stroke-width="1.5" d="M615.69,-324.74C640.73,-302.79 684.15,-264.72 712.98,-239.44"/>
<polygon fill="#333333" stroke="#333333" stroke-width="1.5" points="715.24,-242.12 720.45,-232.89 710.62,-236.86 715.24,-242.12"/>
</g>
<!-- PHP/FI -->
<g id="node10" class="node">
<title>PHP/FI</title>
<path fill="#cccccc" stroke="black" d="M96,-166C96,-166 12,-166 12,-166 6,-166 0,-160 0,-154 0,-154 0,-142 0,-142 0,-136 6,-130 12,-130 12,-130 96,-130 96,-130 102,-130 108,-136 108,-142 108,-142 108,-154 108,-154 108,-160 102,-166 96,-166"/>
<text xml:space="preserve" text-anchor="middle" x="54" y="-142.57" font-family="Arial Bold" font-size="14.00" fill="#000000">PHP/FI</text>
</g>
<!-- Perl 5.0&#45;&gt;PHP/FI -->
<g id="edge9" class="edge">
<title>Perl 5.0&#45;&gt;PHP/FI</title>
<path fill="none" stroke="#333333" stroke-width="1.5" d="M54,-194.78C54,-189.65 54,-183.86 54,-178.18"/>
<polygon fill="#333333" stroke="#333333" stroke-width="1.5" points="57.5,-178.46 54,-168.46 50.5,-178.46 57.5,-178.46"/>
</g>
<!-- PHP -->
<g id="node11" class="node">
<title>PHP</title>
<path fill="#cccccc" stroke="black" d="M96,-101C96,-101 12,-101 12,-101 6,-101 0,-95 0,-89 0,-89 0,-77 0,-77 0,-71 6,-65 12,-65 12,-65 96,-65 96,-65 102,-65 108,-71 108,-77 108,-77 108,-89 108,-89 108,-95 102,-101 96,-101"/>
<text xml:space="preserve" text-anchor="middle" x="54" y="-77.58" font-family="Arial Bold" font-size="14.00" fill="#000000">PHP</text>
</g>
<!-- PHP/FI&#45;&gt;PHP -->
<g id="edge10" class="edge">
<title>PHP/FI&#45;&gt;PHP</title>
<path fill="none" stroke="#333333" stroke-width="1.5" d="M54,-129.78C54,-124.65 54,-118.86 54,-113.18"/>
<polygon fill="#333333" stroke="#333333" stroke-width="1.5" points="57.5,-113.46 54,-103.46 50.5,-113.46 57.5,-113.46"/>
</g>
<!-- C1X -->
<g id="node14" class="node">
<title>C1X</title>
<path fill="#cccccc" stroke="black" d="M240,-166C240,-166 156,-166 156,-166 150,-166 144,-160 144,-154 144,-154 144,-142 144,-142 144,-136 150,-130 156,-130 156,-130 240,-130 240,-130 246,-130 252,-136 252,-142 252,-142 252,-154 252,-154 252,-160 246,-166 240,-166"/>
<text xml:space="preserve" text-anchor="middle" x="198" y="-142.57" font-family="Arial Bold" font-size="14.00" fill="#000000">C1X</text>
</g>
<!-- ISO C (C99)&#45;&gt;C1X -->
<g id="edge13" class="edge">
<title>ISO C (C99)&#45;&gt;C1X</title>
<path fill="none" stroke="#333333" stroke-width="1.5" d="M198,-194.78C198,-189.65 198,-183.86 198,-178.18"/>
<polygon fill="#333333" stroke="#333333" stroke-width="1.5" points="201.5,-178.46 198,-168.46 194.5,-178.46 201.5,-178.46"/>
</g>
<!-- C++ ANSI/ISO -->
<g id="node16" class="node">
<title>C++ ANSI/ISO</title>
<path fill="#cccccc" stroke="black" d="M493,-231C493,-231 409,-231 409,-231 403,-231 397,-225 397,-219 397,-219 397,-207 397,-207 397,-201 403,-195 409,-195 409,-195 493,-195 493,-195 499,-195 505,-201 505,-207 505,-207 505,-219 505,-219 505,-225 499,-231 493,-231"/>
<text xml:space="preserve" text-anchor="middle" x="451" y="-207.57" font-family="Arial Bold" font-size="14.00" fill="#000000">C++ ANSI/ISO</text>
</g>
<!-- C++&#45;&gt;C++ ANSI/ISO -->
<g id="edge15" class="edge">
<title>C++&#45;&gt;C++ ANSI/ISO</title>
<path fill="none" stroke="#333333" stroke-width="1.5" d="M451,-259.78C451,-254.65 451,-248.86 451,-243.18"/>
<polygon fill="#333333" stroke="#333333" stroke-width="1.5" points="454.5,-243.46 451,-233.46 447.5,-243.46 454.5,-243.46"/>
</g>
<!-- C++&#45;&gt;Oak -->
<g id="edge16" class="edge">
<title>C++&#45;&gt;Oak</title>
<path fill="none" stroke="#333333" stroke-width="1.5" d="M490.73,-259.62C507.26,-252.39 526.64,-243.91 544.19,-236.23"/>
<polygon fill="#333333" stroke="#333333" stroke-width="1.5" points="545.56,-239.45 553.32,-232.24 542.76,-233.04 545.56,-239.45"/>
</g>
<!-- C++11 -->
<g id="node19" class="node">
<title>C++11</title>
<path fill="#cccccc" stroke="black" d="M384,-166C384,-166 300,-166 300,-166 294,-166 288,-160 288,-154 288,-154 288,-142 288,-142 288,-136 294,-130 300,-130 300,-130 384,-130 384,-130 390,-130 396,-136 396,-142 396,-142 396,-154 396,-154 396,-160 390,-166 384,-166"/>
<text xml:space="preserve" text-anchor="middle" x="342" y="-142.57" font-family="Arial Bold" font-size="14.00" fill="#000000">C++11</text>
</g>
<!-- C++ ANSI/ISO&#45;&gt;C++11 -->
<g id="edge19" class="edge">
<title>C++ ANSI/ISO&#45;&gt;C++11</title>
<path fill="none" stroke="#333333" stroke-width="1.5" d="M420.93,-194.62C409.01,-187.73 395.14,-179.71 382.37,-172.33"/>
<polygon fill="#333333" stroke="#333333" stroke-width="1.5" points="384.35,-169.44 373.94,-167.46 380.85,-175.5 384.35,-169.44"/>
</g>
<!-- C# -->
<g id="node20" class="node">
<title>C#</title>
<path fill="#cccccc" stroke="black" d="M493,-36C493,-36 409,-36 409,-36 403,-36 397,-30 397,-24 397,-24 397,-12 397,-12 397,-6 403,0 409,0 409,0 493,0 493,0 499,0 505,-6 505,-12 505,-12 505,-24 505,-24 505,-30 499,-36 493,-36"/>
<text xml:space="preserve" text-anchor="middle" x="451" y="-12.57" font-family="Arial Bold" font-size="14.00" fill="#000000">C#</text>
</g>
<!-- C++ ANSI/ISO&#45;&gt;C# -->
<g id="edge20" class="edge">
<title>C++ ANSI/ISO&#45;&gt;C#</title>
<path fill="none" stroke="#333333" stroke-width="1.5" d="M451,-194.53C451,-161.38 451,-89 451,-48.3"/>
<polygon fill="#333333" stroke="#333333" stroke-width="1.5" points="454.5,-48.56 451,-38.56 447.5,-48.56 454.5,-48.56"/>
</g>
<!-- JAVA1 -->
<g id="node21" class="node">
<title>JAVA1</title>
<path fill="#cccccc" stroke="black" d="M637,-166C637,-166 553,-166 553,-166 547,-166 541,-160 541,-154 541,-154 541,-142 541,-142 541,-136 547,-130 553,-130 553,-130 637,-130 637,-130 643,-130 649,-136 649,-142 649,-142 649,-154 649,-154 649,-160 643,-166 637,-166"/>
<text xml:space="preserve" text-anchor="middle" x="595" y="-142.57" font-family="Arial Bold" font-size="14.00" fill="#000000">JAVA1</text>
</g>
<!-- Oak&#45;&gt;JAVA1 -->
<g id="edge21" class="edge">
<title>Oak&#45;&gt;JAVA1</title>
<path fill="none" stroke="#333333" stroke-width="1.5" d="M595,-194.78C595,-189.65 595,-183.86 595,-178.18"/>
<polygon fill="#333333" stroke="#333333" stroke-width="1.5" points="598.5,-178.46 595,-168.46 591.5,-178.46 598.5,-178.46"/>
</g>
<!-- JAVA2 -->
<g id="node22" class="node">
<title>JAVA2</title>
<path fill="#cccccc" stroke="black" d="M637,-101C637,-101 553,-101 553,-101 547,-101 541,-95 541,-89 541,-89 541,-77 541,-77 541,-71 547,-65 553,-65 553,-65 637,-65 637,-65 643,-65 649,-71 649,-77 649,-77 649,-89 649,-89 649,-95 643,-101 637,-101"/>
<text xml:space="preserve" text-anchor="middle" x="595" y="-77.58" font-family="Arial Bold" font-size="14.00" fill="#000000">JAVA2</text>
</g>
<!-- JAVA1&#45;&gt;JAVA2 -->
<g id="edge22" class="edge">
<title>JAVA1&#45;&gt;JAVA2</title>
<path fill="none" stroke="#333333" stroke-width="1.5" d="M595,-129.78C595,-124.65 595,-118.86 595,-113.18"/>
<polygon fill="#333333" stroke="#333333" stroke-width="1.5" points="598.5,-113.46 595,-103.46 591.5,-113.46 598.5,-113.46"/>
</g>
<!-- JAVA2&#45;&gt;C# -->
<g id="edge24" class="edge">
<title>JAVA2&#45;&gt;C#</title>
<path fill="none" stroke="#333333" stroke-width="1.5" d="M555.27,-64.62C538.74,-57.39 519.36,-48.91 501.81,-41.23"/>
<polygon fill="#333333" stroke="#333333" stroke-width="1.5" points="503.24,-38.04 492.68,-37.24 500.44,-44.45 503.24,-38.04"/>
</g>
<!-- JAVA -->
<g id="node23" class="node">
<title>JAVA</title>
<path fill="#cccccc" stroke="black" d="M637,-36C637,-36 553,-36 553,-36 547,-36 541,-30 541,-24 541,-24 541,-12 541,-12 541,-6 547,0 553,0 553,0 637,0 637,0 643,0 649,-6 649,-12 649,-12 649,-24 649,-24 649,-30 643,-36 637,-36"/>
<text xml:space="preserve" text-anchor="middle" x="595" y="-12.57" font-family="Arial Bold" font-size="14.00" fill="#000000">JAVA</text>
</g>
<!-- JAVA2&#45;&gt;JAVA -->
<g id="edge23" class="edge">
<title>JAVA2&#45;&gt;JAVA</title>
<path fill="none" stroke="#333333" stroke-width="1.5" d="M595,-64.78C595,-59.65 595,-53.86 595,-48.18"/>
<polygon fill="#333333" stroke="#333333" stroke-width="1.5" points="598.5,-48.46 595,-38.46 591.5,-48.46 598.5,-48.46"/>
</g>
<!-- ActionScript -->
<g id="node24" class="node">
<title>ActionScript</title>
<path fill="#cccccc" stroke="black" d="M781,-36C781,-36 697,-36 697,-36 691,-36 685,-30 685,-24 685,-24 685,-12 685,-12 685,-6 691,0 697,0 697,0 781,0 781,0 787,0 793,-6 793,-12 793,-12 793,-24 793,-24 793,-30 787,-36 781,-36"/>
<text xml:space="preserve" text-anchor="middle" x="739" y="-12.57" font-family="Arial Bold" font-size="14.00" fill="#000000">ActionScript</text>
</g>
<!-- JAVA2&#45;&gt;ActionScript -->
<g id="edge25" class="edge">
<title>JAVA2&#45;&gt;ActionScript</title>
<path fill="none" stroke="#333333" stroke-width="1.5" d="M634.73,-64.62C651.26,-57.39 670.64,-48.91 688.19,-41.23"/>
<polygon fill="#333333" stroke="#333333" stroke-width="1.5" points="689.56,-44.45 697.32,-37.24 686.76,-38.04 689.56,-44.45"/>
</g>
</g>
</svg>