<svg width="336pt" height="324pt"
 viewBox="0.00 0.00 336.00 324.00" xmlns="http://www.w3.org/2000/svg" xmlns:xlink="http://www.w3.org/1999/xlink">
<g id="graph0" class="graph" transform="scale(1 1) rotate(0) translate(4 319.5)">
<title>Flowchart</title>
<polygon fill="white" stroke="none" points="-4,4 -4,-319.5 331.59,-319.5 331.59,4 -4,4"/>
<!-- ScanA -->
<g id="node1" class="node">
<title>ScanA</title>
<path fill="#f9f9f9" stroke="#333333" d="M229.94,-315.5C229.94,-315.5 148.69,-315.5 148.69,-315.5 142.69,-315.5 136.69,-309.5 136.69,-303.5 136.69,-303.5 136.69,-291.5 136.69,-291.5 136.69,-285.5 142.69,-279.5 148.69,-279.5 148.69,-279.5 229.94,-279.5 229.94,-279.5 235.94,-279.5 241.94,-285.5 241.94,-291.5 241.94,-291.5 241.94,-303.5 241.94,-303.5 241.94,-309.5 235.94,-315.5 229.94,-315.5"/>
<text xml:space="preserve" text-anchor="middle" x="189.32" y="-293.23" font-family="Arial" font-size="12.00">scanf (&quot;%d&quot;, &amp;a);</text>
</g>
<!-- ScanB -->
<g id="node2" class="node">
<title>ScanB</title>
<path fill="#f9f9f9" stroke="#333333" d="M229.94,-248.5C229.94,-248.5 148.69,-248.5 148.69,-248.5 142.69,-248.5 136.69,-242.5 136.69,-236.5 136.69,-236.5 136.69,-224.5 136.69,-224.5 136.69,-218.5 142.69,-212.5 148.69,-212.5 148.69,-212.5 229.94,-212.5 229.94,-212.5 235.94,-212.5 241.94,-218.5 241.94,-224.5 241.94,-224.5 241.94,-236.5 241.94,-236.5 241.94,-242.5 235.94,-248.5 229.94,-248.5"/>
<text xml:space="preserve" text-anchor="middle" x="189.32" y="-226.22" font-family="Arial" font-size="12.00">scanf (&quot;%d&quot;, &amp;b);</text>
</g>
<!-- ScanA&#45;&gt;ScanB -->
<g id="edge1" class="edge">
<title>ScanA&#45;&gt;ScanB</title>
<path fill="none" stroke="#333333" stroke-width="1.2" d="M189.32,-279.08C189.32,-273.4 189.32,-266.92 189.32,-260.62"/>
<polygon fill="#333333" stroke="#333333" stroke-width="1.2" points="192.82,-260.78 189.32,-250.78 185.82,-260.78 192.82,-260.78"/>
</g>
<!-- While -->
<g id="node3" class="node">
<title>While</title>
<polygon fill="#fff9c4" stroke="#333333" points="189.32,-181.5 112.86,-163.5 189.32,-145.5 265.77,-163.5 189.32,-181.5"/>
<text xml:space="preserve" text-anchor="middle" x="189.32" y="-159.22" font-family="Arial" font-size="12.00">while (a &lt; b){</text>
</g>
<!-- ScanB&#45;&gt;While -->
<g id="edge2" class="edge">
<title>ScanB&#45;&gt;While</title>
<path fill="none" stroke="#333333" stroke-width="1.2" d="M189.32,-212.08C189.32,-206.4 189.32,-199.92 189.32,-193.62"/>
<polygon fill="#333333" stroke="#333333" stroke-width="1.2" points="192.82,-193.78 189.32,-183.78 185.82,-193.78 192.82,-193.78"/>
</g>
<!-- Incremento -->
<g id="node4" class="node">
<title>Incremento</title>
<path fill="#f9f9f9" stroke="#333333" d="M209.69,-103.25C209.69,-103.25 168.94,-103.25 168.94,-103.25 162.94,-103.25 156.94,-97.25 156.94,-91.25 156.94,-91.25 156.94,-79.25 156.94,-79.25 156.94,-73.25 162.94,-67.25 168.94,-67.25 168.94,-67.25 209.69,-67.25 209.69,-67.25 215.69,-67.25 221.69,-73.25 221.69,-79.25 221.69,-79.25 221.69,-91.25 221.69,-91.25 221.69,-97.25 215.69,-103.25 209.69,-103.25"/>
<text xml:space="preserve" text-anchor="middle" x="189.32" y="-80.97" font-family="Arial" font-size="12.00">a = a + 1;</text>
</g>
<!-- While&#45;&gt;Incremento -->
<g id="edge3" class="edge">
<title>While&#45;&gt;Incremento:n</title>
<path fill="none" stroke="#333333" stroke-width="1.2" d="M189.32,-145.2C189.32,-136.66 189.32,-125.92 189.32,-115.31"/>
<polygon fill="#333333" stroke="#333333" stroke-width="1.2" points="192.82,-115.32 189.32,-105.32 185.82,-115.32 192.82,-115.32"/>
<text xml:space="preserve" text-anchor="middle" x="198.32" y="-121" font-family="Arial" font-size="10.00">SIM</text>
</g>
<!-- Continua -->
<g id="node6" class="node">
<title>Continua</title>
<path fill="#f9f9f9" stroke="#333333" d="M109.19,-103.5C109.19,-103.5 29.44,-103.5 29.44,-103.5 23.44,-103.5 17.44,-97.5 17.44,-91.5 17.44,-91.5 17.44,-79 17.44,-79 17.44,-73 23.44,-67 29.44,-67 29.44,-67 109.19,-67 109.19,-67 115.19,-67 121.19,-73 121.19,-79 121.19,-79 121.19,-91.5 121.19,-91.5 121.19,-97.5 115.19,-103.5 109.19,-103.5"/>
<text xml:space="preserve" text-anchor="middle" x="69.32" y="-88.1" font-family="Arial" font-size="12.00">Continuação do </text>
<text xml:space="preserve" text-anchor="middle" x="69.32" y="-73.85" font-family="Arial" font-size="12.00">programa</text>
</g>
<!-- While&#45;&gt;Continua -->
<g id="edge6" class="edge">
<title>While:w&#45;&gt;Continua:w</title>
<path fill="none" stroke="#333333" stroke-width="1.2" d="M109.96,-163.5C60.85,-163.5 -20.56,-99.23 4.94,-87.18"/>
<polygon fill="#333333" stroke="#333333" stroke-width="1.2" points="5.37,-90.66 14.65,-85.55 4.21,-83.76 5.37,-90.66"/>
<text xml:space="preserve" text-anchor="middle" x="39.29" y="-121" font-family="Arial" font-size="10.00">NÃO</text>
</g>
<!-- Print -->
<g id="node5" class="node">
<title>Print</title>
<path fill="#f9f9f9" stroke="#333333" d="M269.07,-36C269.07,-36 185.57,-36 185.57,-36 179.57,-36 173.57,-30 173.57,-24 173.57,-24 173.57,-12 173.57,-12 173.57,-6 179.57,0 185.57,0 185.57,0 269.07,0 269.07,0 275.07,0 281.07,-6 281.07,-12 281.07,-12 281.07,-24 281.07,-24 281.07,-30 275.07,-36 269.07,-36"/>
<text xml:space="preserve" text-anchor="middle" x="227.32" y="-13.72" font-family="Arial" font-size="12.00">printf (&quot;%d \n&quot;, a);</text>
</g>
<!-- Incremento&#45;&gt;Print -->
<g id="edge4" class="edge">
<title>Incremento&#45;&gt;Print</title>
<path fill="none" stroke="#333333" stroke-width="1.2" d="M199.5,-66.76C203.23,-60.37 207.53,-52.99 211.62,-45.96"/>
<polygon fill="#333333" stroke="#333333" stroke-width="1.2" points="214.45,-48.05 216.46,-37.65 208.4,-44.53 214.45,-48.05"/>
</g>
<!-- Print&#45;&gt;While -->
<g id="edge5" class="edge">
<title>Print:e&#45;&gt;While:e</title>
<path fill="none" stroke="#333333" stroke-width="1.2" d="M282.07,-18C342.95,-18 334.99,-145.88 280.24,-161.87"/>
<polygon fill="#333333" stroke="#333333" stroke-width="1.2" points="279.89,-158.38 270.48,-163.25 280.87,-165.31 279.89,-158.38"/>
<text xml:space="preserve" text-anchor="middle" x="326.09" y="-81.75" font-family="Arial" font-size="10.00"> </text>
</g>
</g>
</svg>