<svg width="240pt" height="85pt"
 viewBox="0.00 0.00 240.00 85.00" xmlns="http://www.w3.org/2000/svg" xmlns:xlink="http://www.w3.org/1999/xlink">
<g id="graph0" class="graph" transform="scale(1 1) rotate(0) translate(4 81)">
<title>G</title>
<polygon fill="white" stroke="none" points="-4,4 -4,-81 236,-81 236,4 -4,4"/>
<!-- array -->
<g id="node1" class="node">
<title>array</title>
<polygon fill="#cccccc" stroke="none" points="8,-38.5 8,-73 59.75,-73 59.75,-38.5 8,-38.5"/>
<polygon fill="none" stroke="black" points="8,-38.5 8,-73 59.75,-73 59.75,-38.5 8,-38.5"/>
<text xml:space="preserve" text-anchor="start" x="17" y="-51.25" font-family="Times,serif" font-size="14.00">Índice</text>
<polygon fill="none" stroke="black" points="59.75,-38.5 59.75,-73 95,-73 95,-38.5 59.75,-38.5"/>
<text xml:space="preserve" text-anchor="start" x="74" y="-51.25" font-family="Times,serif" font-size="14.00">0</text>
<polygon fill="none" stroke="black" points="95,-38.5 95,-73 130.25,-73 130.25,-38.5 95,-38.5"/>
<text xml:space="preserve" text-anchor="start" x="109.25" y="-51.25" font-family="Times,serif" font-size="14.00">1</text>
<polygon fill="none" stroke="black" points="130.25,-38.5 130.25,-73 159.5,-73 159.5,-38.5 130.25,-38.5"/>
<text xml:space="preserve" text-anchor="start" x="141.5" y="-51.25" font-family="Times,serif" font-size="14.00">2</text>
<polygon fill="none" stroke="black" points="159.5,-38.5 159.5,-73 188.75,-73 188.75,-38.5 159.5,-38.5"/>
<text xml:space="preserve" text-anchor="start" x="170.75" y="-51.25" font-family="Times,serif" font-size="14.00">3</text>
<polygon fill="none" stroke="black" points="188.75,-38.5 188.75,-73 224,-73 224,-38.5 188.75,-38.5"/>
<text xml:space="preserve" text-anchor="start" x="203" y="-51.25" font-family="Times,serif" font-size="14.00">4</text>
<polygon fill="#cccccc" stroke="none" points="8,-4 8,-38.5 59.75,-38.5 59.75,-4 8,-4"/>
<polygon fill="none" stroke="black" points="8,-4 8,-38.5 59.75,-38.5 59.75,-4 8,-4"/>
<text xml:space="preserve" text-anchor="start" x="19.25" y="-16.75" font-family="Times,serif" font-size="14.00">Valor</text>
<polygon fill="#9fc5e8" stroke="none" points="59.75,-4 59.75,-38.5 95,-38.5 95,-4 59.75,-4"/>
<polygon fill="none" stroke="black" points="59.75,-4 59.75,-38.5 95,-38.5 95,-4 59.75,-4"/>
<text xml:space="preserve" text-anchor="start" x="68.75" y="-16.75" font-family="Times,serif" font-size="14.00">8.5</text>
<polygon fill="#9fc5e8" stroke="none" points="95,-4 95,-38.5 130.25,-38.5 130.25,-4 95,-4"/>
<polygon fill="none" stroke="black" points="95,-4 95,-38.5 130.25,-38.5 130.25,-4 95,-4"/>
<text xml:space="preserve" text-anchor="start" x="104" y="-16.75" font-family="Times,serif" font-size="14.00">7.0</text>
<polygon fill="#9fc5e8" stroke="none" points="130.25,-4 130.25,-38.5 159.5,-38.5 159.5,-4 130.25,-4"/>
<polygon fill="none" stroke="black" points="130.25,-4 130.25,-38.5 159.5,-38.5 159.5,-4 130.25,-4"/>
<text xml:space="preserve" text-anchor="start" x="139.25" y="-16.75" font-family="Times,serif" font-size="14.00">...</text>
<polygon fill="#9fc5e8" stroke="none" points="159.5,-4 159.5,-38.5 188.75,-38.5 188.75,-4 159.5,-4"/>
<polygon fill="none" stroke="black" points="159.5,-4 159.5,-38.5 188.75,-38.5 188.75,-4 159.5,-4"/>
<text xml:space="preserve" text-anchor="start" x="168.5" y="-16.75" font-family="Times,serif" font-size="14.00">...</text>
<polygon fill="#9fc5e8" stroke="none" points="188.75,-4 188.75,-38.5 224,-38.5 224,-4 188.75,-4"/>
<polygon fill="none" stroke="black" points="188.75,-4 188.75,-38.5 224,-38.5 224,-4 188.75,-4"/>
<text xml:space="preserve" text-anchor="start" x="197.75" y="-16.75" font-family="Times,serif" font-size="14.00">9.2</text>
</g>
</g>
</svg>