<svg width="432pt" height="524pt"
 viewBox="0.00 0.00 432.00 524.00" xmlns="http://www.w3.org/2000/svg" xmlns:xlink="http://www.w3.org/1999/xlink">
<g id="graph0" class="graph" transform="scale(1 1) rotate(0) translate(4 520)">
<title>Flowchart</title>
<polygon fill="white" stroke="none" points="-4,4 -4,-520 427.5,-520 427.5,4 -4,4"/>
<!-- Início -->
<g id="node1" class="node">
<title>Início</title>
<ellipse fill="#e1f5fe" stroke="#333333" cx="81.12" cy="-498" rx="28.3" ry="18"/>
<text xml:space="preserve" text-anchor="middle" x="81.12" y="-493.73" font-family="Arial" font-size="12.00">Início</text>
</g>
<!-- DeclVar -->
<g id="node3" class="node">
<title>DeclVar</title>
<path fill="#f9f9f9" stroke="#333333" d="M98.12,-449C98.12,-449 64.12,-449 64.12,-449 58.12,-449 52.12,-443 52.12,-437 52.12,-437 52.12,-425 52.12,-425 52.12,-419 58.12,-413 64.12,-413 64.12,-413 98.12,-413 98.12,-413 104.12,-413 110.12,-419 110.12,-425 110.12,-425 110.12,-437 110.12,-437 110.12,-443 104.12,-449 98.12,-449"/>
<text xml:space="preserve" text-anchor="middle" x="81.12" y="-426.73" font-family="Arial" font-size="12.00">int num;</text>
</g>
<!-- Início&#45;&gt;DeclVar -->
<g id="edge1" class="edge">
<title>Início&#45;&gt;DeclVar</title>
<path fill="none" stroke="#333333" stroke-width="1.2" d="M81.12,-479.58C81.12,-473.9 81.12,-467.42 81.12,-461.12"/>
<polygon fill="#333333" stroke="#333333" stroke-width="1.2" points="84.63,-461.28 81.13,-451.28 77.63,-461.28 84.63,-461.28"/>
</g>
<!-- Fim -->
<g id="node2" class="node">
<title>Fim</title>
<ellipse fill="#e1f5fe" stroke="#333333" cx="203.12" cy="-18" rx="27" ry="18"/>
<text xml:space="preserve" text-anchor="middle" x="203.12" y="-13.72" font-family="Arial" font-size="12.00">Fim</text>
</g>
<!-- PrintIn -->
<g id="node4" class="node">
<title>PrintIn</title>
<path fill="#f9f9f9" stroke="#333333" d="M150.25,-382C150.25,-382 12,-382 12,-382 6,-382 0,-376 0,-370 0,-370 0,-358 0,-358 0,-352 6,-346 12,-346 12,-346 150.25,-346 150.25,-346 156.25,-346 162.25,-352 162.25,-358 162.25,-358 162.25,-370 162.25,-370 162.25,-376 156.25,-382 150.25,-382"/>
<text xml:space="preserve" text-anchor="middle" x="81.12" y="-359.73" font-family="Arial" font-size="12.00">printf(&quot;Digite um numero: &quot;);</text>
</g>
<!-- DeclVar&#45;&gt;PrintIn -->
<g id="edge2" class="edge">
<title>DeclVar&#45;&gt;PrintIn</title>
<path fill="none" stroke="#333333" stroke-width="1.2" d="M81.12,-412.58C81.12,-406.9 81.12,-400.42 81.12,-394.12"/>
<polygon fill="#333333" stroke="#333333" stroke-width="1.2" points="84.63,-394.28 81.13,-384.28 77.63,-394.28 84.63,-394.28"/>
</g>
<!-- Scan -->
<g id="node5" class="node">
<title>Scan</title>
<path fill="#f9f9f9" stroke="#333333" d="M128.5,-315C128.5,-315 33.75,-315 33.75,-315 27.75,-315 21.75,-309 21.75,-303 21.75,-303 21.75,-291 21.75,-291 21.75,-285 27.75,-279 33.75,-279 33.75,-279 128.5,-279 128.5,-279 134.5,-279 140.5,-285 140.5,-291 140.5,-291 140.5,-303 140.5,-303 140.5,-309 134.5,-315 128.5,-315"/>
<text xml:space="preserve" text-anchor="middle" x="81.12" y="-292.73" font-family="Arial" font-size="12.00">scanf(&quot;%d&quot;, &amp;num);</text>
</g>
<!-- PrintIn&#45;&gt;Scan -->
<g id="edge3" class="edge">
<title>PrintIn&#45;&gt;Scan</title>
<path fill="none" stroke="#333333" stroke-width="1.2" d="M81.12,-345.58C81.12,-339.9 81.12,-333.42 81.12,-327.12"/>
<polygon fill="#333333" stroke="#333333" stroke-width="1.2" points="84.63,-327.28 81.13,-317.28 77.63,-327.28 84.63,-327.28"/>
</g>
<!-- Decisão -->
<g id="node6" class="node">
<title>Decisão</title>
<polygon fill="#fff9c4" stroke="#333333" points="81.12,-248 7.37,-230 81.12,-212 154.88,-230 81.12,-248"/>
<text xml:space="preserve" text-anchor="middle" x="81.12" y="-225.72" font-family="Arial" font-size="12.00">if (num &gt; 10)</text>
</g>
<!-- Scan&#45;&gt;Decisão -->
<g id="edge4" class="edge">
<title>Scan&#45;&gt;Decisão</title>
<path fill="none" stroke="#333333" stroke-width="1.2" d="M81.12,-278.58C81.12,-272.9 81.12,-266.42 81.12,-260.12"/>
<polygon fill="#333333" stroke="#333333" stroke-width="1.2" points="84.63,-260.28 81.13,-250.28 77.63,-260.28 84.63,-260.28"/>
</g>
<!-- PrintOut -->
<g id="node7" class="node">
<title>PrintOut</title>
<path fill="#f9f9f9" stroke="#333333" d="M411.5,-248C411.5,-248 238.75,-248 238.75,-248 232.75,-248 226.75,-242 226.75,-236 226.75,-236 226.75,-224 226.75,-224 226.75,-218 232.75,-212 238.75,-212 238.75,-212 411.5,-212 411.5,-212 417.5,-212 423.5,-218 423.5,-224 423.5,-224 423.5,-236 423.5,-236 423.5,-242 417.5,-248 411.5,-248"/>
<text xml:space="preserve" text-anchor="middle" x="325.12" y="-225.72" font-family="Arial" font-size="12.00">printf(&quot;O numero e maior que 10&quot;);</text>
</g>
<!-- Decisão&#45;&gt;PrintOut -->
<g id="edge5" class="edge">
<title>Decisão&#45;&gt;PrintOut</title>
<path fill="none" stroke="#333333" stroke-width="1.2" d="M156.99,-230C175.27,-230 195.16,-230 214.66,-230"/>
<polygon fill="#333333" stroke="#333333" stroke-width="1.2" points="214.58,-233.5 224.58,-230 214.58,-226.5 214.58,-233.5"/>
<text xml:space="preserve" text-anchor="middle" x="190.82" y="-235.5" font-family="Arial" font-size="10.00">SIM</text>
</g>
<!-- Pause -->
<g id="node8" class="node">
<title>Pause</title>
<path fill="#f9f9f9" stroke="#333333" d="M244.12,-170C244.12,-170 162.12,-170 162.12,-170 156.12,-170 150.12,-164 150.12,-158 150.12,-158 150.12,-146 150.12,-146 150.12,-140 156.12,-134 162.12,-134 162.12,-134 244.12,-134 244.12,-134 250.12,-134 256.12,-140 256.12,-146 256.12,-146 256.12,-158 256.12,-158 256.12,-164 250.12,-170 244.12,-170"/>
<text xml:space="preserve" text-anchor="middle" x="203.12" y="-147.72" font-family="Arial" font-size="12.00">system(&quot;pause&quot;);</text>
</g>
<!-- Decisão&#45;&gt;Pause -->
<g id="edge7" class="edge">
<title>Decisão&#45;&gt;Pause</title>
<path fill="none" stroke="#333333" stroke-width="1.2" d="M101.27,-216.45C118.6,-205.65 144.08,-189.78 165.22,-176.62"/>
<polygon fill="#333333" stroke="#333333" stroke-width="1.2" points="167.01,-179.62 173.65,-171.36 163.31,-173.68 167.01,-179.62"/>
<text xml:space="preserve" text-anchor="middle" x="160.3" y="-187.5" font-family="Arial" font-size="10.00">NÃO</text>
</g>
<!-- PrintOut&#45;&gt;Pause -->
<g id="edge6" class="edge">
<title>PrintOut&#45;&gt;Pause</title>
<path fill="none" stroke="#333333" stroke-width="1.2" d="M297.14,-211.56C280.47,-201.19 259.11,-187.88 240.96,-176.57"/>
<polygon fill="#333333" stroke="#333333" stroke-width="1.2" points="242.86,-173.63 232.53,-171.32 239.16,-179.57 242.86,-173.63"/>
</g>
<!-- Return -->
<g id="node9" class="node">
<title>Return</title>
<path fill="#f9f9f9" stroke="#333333" d="M220.88,-103C220.88,-103 185.38,-103 185.38,-103 179.38,-103 173.38,-97 173.38,-91 173.38,-91 173.38,-79 173.38,-79 173.38,-73 179.38,-67 185.38,-67 185.38,-67 220.88,-67 220.88,-67 226.88,-67 232.88,-73 232.88,-79 232.88,-79 232.88,-91 232.88,-91 232.88,-97 226.88,-103 220.88,-103"/>
<text xml:space="preserve" text-anchor="middle" x="203.12" y="-80.72" font-family="Arial" font-size="12.00">return 0;</text>
</g>
<!-- Pause&#45;&gt;Return -->
<g id="edge8" class="edge">
<title>Pause&#45;&gt;Return</title>
<path fill="none" stroke="#333333" stroke-width="1.2" d="M203.12,-133.58C203.12,-127.9 203.12,-121.42 203.12,-115.12"/>
<polygon fill="#333333" stroke="#333333" stroke-width="1.2" points="206.63,-115.28 203.13,-105.28 199.63,-115.28 206.63,-115.28"/>
</g>
<!-- Return&#45;&gt;Fim -->
<g id="edge9" class="edge">
<title>Return&#45;&gt;Fim</title>
<path fill="none" stroke="#333333" stroke-width="1.2" d="M203.12,-66.58C203.12,-60.9 203.12,-54.42 203.12,-48.12"/>
<polygon fill="#333333" stroke="#333333" stroke-width="1.2" points="206.63,-48.28 203.13,-38.28 199.63,-48.28 206.63,-48.28"/>
</g>
</g>
</svg>