<svg width="289pt" height="169pt"
 viewBox="0.00 0.00 289.00 169.00" xmlns="http://www.w3.org/2000/svg" xmlns:xlink="http://www.w3.org/1999/xlink">
<g id="graph0" class="graph" transform="scale(1 1) rotate(0) translate(4 164.6)">
<title>Flowchart</title>
<polygon fill="white" stroke="none" points="-4,4 -4,-164.6 284.63,-164.6 284.63,4 -4,4"/>
<!-- Decisão -->
<g id="node1" class="node">
<title>Decisão</title>
<path fill="#fff9c4" stroke="#333333" d="M65.44,-157.87C65.44,-157.87 11.69,-145.33 11.69,-145.33 5.84,-143.96 5.84,-141.24 11.69,-139.87 11.69,-139.87 65.44,-127.33 65.44,-127.33 71.29,-125.96 82.97,-125.96 88.82,-127.33 88.82,-127.33 142.57,-139.87 142.57,-139.87 148.42,-141.24 148.42,-143.96 142.57,-145.33 142.57,-145.33 88.82,-157.87 88.82,-157.87 82.97,-159.24 71.29,-159.24 65.44,-157.87"/>
<text xml:space="preserve" text-anchor="middle" x="77.13" y="-138.32" font-family="Arial" font-size="12.00">if(num == 10)</text>
</g>
<!-- PrintSim -->
<g id="node2" class="node">
<title>PrintSim</title>
<path fill="#f9f9f9" stroke="#333333" d="M268.63,-160.6C268.63,-160.6 201.63,-160.6 201.63,-160.6 195.63,-160.6 189.63,-154.6 189.63,-148.6 189.63,-148.6 189.63,-136.6 189.63,-136.6 189.63,-130.6 195.63,-124.6 201.63,-124.6 201.63,-124.6 268.63,-124.6 268.63,-124.6 274.63,-124.6 280.63,-130.6 280.63,-136.6 280.63,-136.6 280.63,-148.6 280.63,-148.6 280.63,-154.6 274.63,-160.6 268.63,-160.6"/>
<text xml:space="preserve" text-anchor="middle" x="235.13" y="-138.32" font-family="Arial" font-size="12.00">printf (&quot;Igual&quot;);</text>
</g>
<!-- Decisão&#45;&gt;PrintSim -->
<g id="edge1" class="edge">
<title>Decisão&#45;&gt;PrintSim</title>
<path fill="none" stroke="#333333" d="M156.13,-142.6C163.53,-142.6 170.94,-142.6 178.08,-142.6"/>
<polygon fill="#333333" stroke="#333333" points="177.92,-146.1 187.92,-142.6 177.92,-139.1 177.92,-146.1"/>
<text xml:space="preserve" text-anchor="middle" x="171.94" y="-148.1" font-family="Arial" font-size="10.00">SIM</text>
</g>
<!-- PrintNao -->
<g id="node3" class="node">
<title>PrintNao</title>
<path fill="#f9f9f9" stroke="#333333" d="M175.88,-76.6C175.88,-76.6 86.38,-76.6 86.38,-76.6 80.38,-76.6 74.38,-70.6 74.38,-64.6 74.38,-64.6 74.38,-52.6 74.38,-52.6 74.38,-46.6 80.38,-40.6 86.38,-40.6 86.38,-40.6 175.88,-40.6 175.88,-40.6 181.88,-40.6 187.88,-46.6 187.88,-52.6 187.88,-52.6 187.88,-64.6 187.88,-64.6 187.88,-70.6 181.88,-76.6 175.88,-76.6"/>
<text xml:space="preserve" text-anchor="middle" x="131.13" y="-54.32" font-family="Arial" font-size="12.00">printf (&quot;Diferente&quot;);</text>
</g>
<!-- Decisão&#45;&gt;PrintNao -->
<g id="edge2" class="edge">
<title>Decisão&#45;&gt;PrintNao</title>
<path fill="none" stroke="#333333" d="M87.03,-126.56C94.48,-115.25 104.88,-99.46 113.71,-86.06"/>
<polygon fill="#333333" stroke="#333333" points="116.38,-88.36 118.96,-78.08 110.54,-84.51 116.38,-88.36"/>
<text xml:space="preserve" text-anchor="middle" x="118.24" y="-97.1" font-family="Arial" font-size="10.00">NÃO</text>
</g>
<!-- Fim -->
<g id="node4" class="node">
<title>Fim</title>
<ellipse fill="#f9f9f9" stroke="#333333" cx="178.13" cy="-1.8" rx="1.8" ry="1.8"/>
</g>
<!-- PrintSim&#45;&gt;Fim -->
<g id="edge3" class="edge">
<title>PrintSim&#45;&gt;Fim</title>
<path fill="none" stroke="#333333" d="M229.22,-124.22C222.18,-103.92 209.76,-69.43 197.13,-40.6 193.13,-31.46 188.03,-21.39 184.12,-13.93"/>
<polygon fill="#333333" stroke="#333333" points="187.29,-12.45 179.48,-5.29 181.12,-15.76 187.29,-12.45"/>
</g>
<!-- PrintNao&#45;&gt;Fim -->
<g id="edge4" class="edge">
<title>PrintNao&#45;&gt;Fim</title>
<path fill="none" stroke="#333333" d="M146,-40.26C153.91,-31.04 163.33,-20.06 169.92,-12.38"/>
<polygon fill="#333333" stroke="#333333" points="172.48,-14.77 176.33,-4.9 167.16,-10.21 172.48,-14.77"/>
</g>
</g>
</svg>