<svg width="234pt" height="117pt"
 viewBox="0.00 0.00 234.00 117.00" xmlns="http://www.w3.org/2000/svg" xmlns:xlink="http://www.w3.org/1999/xlink">
<g id="graph0" class="graph" transform="scale(1 1) rotate(0) translate(4 112.5)">
<title>G</title>
<polygon fill="white" stroke="none" points="-4,4 -4,-112.5 230,-112.5 230,4 -4,4"/>
<!-- array -->
<g id="node1" class="node">
<title>array</title>
<text xml:space="preserve" text-anchor="start" x="22.12" y="-83.75" font-family="Times,serif" font-size="14.00">0</text>
<text xml:space="preserve" text-anchor="start" x="57.12" y="-83.75" font-family="Times,serif" font-size="14.00">1</text>
<text xml:space="preserve" text-anchor="start" x="89.88" y="-83.75" font-family="Times,serif" font-size="14.00">...</text>
<text xml:space="preserve" text-anchor="start" x="193.75" y="-83.75" font-family="Times,serif" font-size="14.00">99</text>
<polygon fill="#9fc5e8" stroke="none" points="8,-37 8,-72 43,-72 43,-37 8,-37"/>
<polygon fill="none" stroke="black" points="8,-37 8,-72 43,-72 43,-37 8,-37"/>
<text xml:space="preserve" text-anchor="start" x="18.75" y="-50.45" font-family="Times,serif" font-weight="bold" font-size="14.00">81</text>
<polygon fill="#9fc5e8" stroke="none" points="43,-37 43,-72 78,-72 78,-37 43,-37"/>
<polygon fill="none" stroke="black" points="43,-37 43,-72 78,-72 78,-37 43,-37"/>
<text xml:space="preserve" text-anchor="start" x="53.75" y="-50.45" font-family="Times,serif" font-weight="bold" font-size="14.00">55</text>
<polygon fill="#9fc5e8" stroke="none" points="78,-37 78,-72 113,-72 113,-37 78,-37"/>
<polygon fill="none" stroke="black" points="78,-37 78,-72 113,-72 113,-37 78,-37"/>
<polygon fill="#9fc5e8" stroke="none" points="113,-37 113,-72 148,-72 148,-37 113,-37"/>
<polygon fill="none" stroke="black" points="113,-37 113,-72 148,-72 148,-37 113,-37"/>
<polygon fill="#9fc5e8" stroke="none" points="148,-37 148,-72 183,-72 183,-37 148,-37"/>
<polygon fill="none" stroke="black" points="148,-37 148,-72 183,-72 183,-37 148,-37"/>
<polygon fill="#9fc5e8" stroke="none" points="183,-37 183,-72 218,-72 218,-37 183,-37"/>
<polygon fill="none" stroke="black" points="183,-37 183,-72 218,-72 218,-37 183,-37"/>
<text xml:space="preserve" text-anchor="start" x="193.75" y="-50.45" font-family="Times,serif" font-weight="bold" font-size="14.00">72</text>
<text xml:space="preserve" text-anchor="start" x="111.12" y="-24.25" font-family="Times,serif" font-size="14.00"> </text>
<text xml:space="preserve" text-anchor="start" x="30.12" y="-8.2" font-family="Times,serif" font-size="14.00"> &#160;&#160;&#160;&#160;&#160;&#160;&#160;&#160;&#160;&#160;&#160;&#160;&#160;&#160;&#160;&#160;&#160;&#160;&#160;</text>
<text xml:space="preserve" text-anchor="start" x="105.12" y="-8.2" font-family="Times,serif" font-weight="bold" font-size="14.00">notas</text>
<text xml:space="preserve" text-anchor="start" x="135.88" y="-8.2" font-family="Times,serif" font-size="14.00"> &#160;&#160;&#160;&#160;&#160;&#160;&#160;&#160;&#160;&#160;&#160;&#160;&#160;&#160;&#160;</text>
</g>
</g>
</svg>