<svg width="774pt" height="244pt"
 viewBox="0.00 0.00 774.00 244.00" xmlns="http://www.w3.org/2000/svg" xmlns:xlink="http://www.w3.org/1999/xlink">
<g id="graph0" class="graph" transform="scale(1 1) rotate(0) translate(4 240.25)">
<title>G</title>
<polygon fill="white" stroke="none" points="-4,4 -4,-240.25 770,-240.25 770,4 -4,4"/>
<!-- matriz -->
<g id="node1" class="node">
<title>matriz</title>
<text xml:space="preserve" text-anchor="start" x="318.62" y="-219.5" font-family="Arial" font-size="14.00">0,0</text>
<polygon fill="#9fc5e8" stroke="none" points="337.38,-194.5 337.38,-216.5 359.38,-216.5 359.38,-194.5 337.38,-194.5"/>
<polygon fill="none" stroke="black" points="337.38,-194.5 337.38,-216.5 359.38,-216.5 359.38,-194.5 337.38,-194.5"/>
<polygon fill="#9fc5e8" stroke="none" points="359.38,-194.5 359.38,-216.5 381.38,-216.5 381.38,-194.5 359.38,-194.5"/>
<polygon fill="none" stroke="black" points="359.38,-194.5 359.38,-216.5 381.38,-216.5 381.38,-194.5 359.38,-194.5"/>
<polygon fill="#9fc5e8" stroke="none" points="381.38,-194.5 381.38,-216.5 403.38,-216.5 403.38,-194.5 381.38,-194.5"/>
<polygon fill="none" stroke="black" points="381.38,-194.5 381.38,-216.5 403.38,-216.5 403.38,-194.5 381.38,-194.5"/>
<polygon fill="#9fc5e8" stroke="none" points="403.38,-194.5 403.38,-216.5 425.38,-216.5 425.38,-194.5 403.38,-194.5"/>
<polygon fill="none" stroke="black" points="403.38,-194.5 403.38,-216.5 425.38,-216.5 425.38,-194.5 403.38,-194.5"/>
<polygon fill="#9fc5e8" stroke="none" points="425.38,-194.5 425.38,-216.5 447.38,-216.5 447.38,-194.5 425.38,-194.5"/>
<polygon fill="none" stroke="black" points="425.38,-194.5 425.38,-216.5 447.38,-216.5 447.38,-194.5 425.38,-194.5"/>
<polygon fill="#9fc5e8" stroke="none" points="337.38,-172.5 337.38,-194.5 359.38,-194.5 359.38,-172.5 337.38,-172.5"/>
<polygon fill="none" stroke="black" points="337.38,-172.5 337.38,-194.5 359.38,-194.5 359.38,-172.5 337.38,-172.5"/>
<polygon fill="#9fc5e8" stroke="none" points="359.38,-172.5 359.38,-194.5 381.38,-194.5 381.38,-172.5 359.38,-172.5"/>
<polygon fill="none" stroke="black" points="359.38,-172.5 359.38,-194.5 381.38,-194.5 381.38,-172.5 359.38,-172.5"/>
<polygon fill="#9fc5e8" stroke="none" points="381.38,-172.5 381.38,-194.5 403.38,-194.5 403.38,-172.5 381.38,-172.5"/>
<polygon fill="none" stroke="black" points="381.38,-172.5 381.38,-194.5 403.38,-194.5 403.38,-172.5 381.38,-172.5"/>
<polygon fill="#9fc5e8" stroke="none" points="403.38,-172.5 403.38,-194.5 425.38,-194.5 425.38,-172.5 403.38,-172.5"/>
<polygon fill="none" stroke="black" points="403.38,-172.5 403.38,-194.5 425.38,-194.5 425.38,-172.5 403.38,-172.5"/>
<polygon fill="#9fc5e8" stroke="none" points="425.38,-172.5 425.38,-194.5 447.38,-194.5 447.38,-172.5 425.38,-172.5"/>
<polygon fill="none" stroke="black" points="425.38,-172.5 425.38,-194.5 447.38,-194.5 447.38,-172.5 425.38,-172.5"/>
<polygon fill="#9fc5e8" stroke="none" points="337.38,-150.5 337.38,-172.5 359.38,-172.5 359.38,-150.5 337.38,-150.5"/>
<polygon fill="none" stroke="black" points="337.38,-150.5 337.38,-172.5 359.38,-172.5 359.38,-150.5 337.38,-150.5"/>
<polygon fill="#9fc5e8" stroke="none" points="359.38,-150.5 359.38,-172.5 381.38,-172.5 381.38,-150.5 359.38,-150.5"/>
<polygon fill="none" stroke="black" points="359.38,-150.5 359.38,-172.5 381.38,-172.5 381.38,-150.5 359.38,-150.5"/>
<polygon fill="#9fc5e8" stroke="none" points="381.38,-150.5 381.38,-172.5 403.38,-172.5 403.38,-150.5 381.38,-150.5"/>
<polygon fill="none" stroke="black" points="381.38,-150.5 381.38,-172.5 403.38,-172.5 403.38,-150.5 381.38,-150.5"/>
<polygon fill="#9fc5e8" stroke="none" points="403.38,-150.5 403.38,-172.5 425.38,-172.5 425.38,-150.5 403.38,-150.5"/>
<polygon fill="none" stroke="black" points="403.38,-150.5 403.38,-172.5 425.38,-172.5 425.38,-150.5 403.38,-150.5"/>
<polygon fill="#9fc5e8" stroke="none" points="425.38,-150.5 425.38,-172.5 447.38,-172.5 447.38,-150.5 425.38,-150.5"/>
<polygon fill="none" stroke="black" points="425.38,-150.5 425.38,-172.5 447.38,-172.5 447.38,-150.5 425.38,-150.5"/>
<polygon fill="#9fc5e8" stroke="none" points="337.38,-128.5 337.38,-150.5 359.38,-150.5 359.38,-128.5 337.38,-128.5"/>
<polygon fill="none" stroke="black" points="337.38,-128.5 337.38,-150.5 359.38,-150.5 359.38,-128.5 337.38,-128.5"/>
<polygon fill="#9fc5e8" stroke="none" points="359.38,-128.5 359.38,-150.5 381.38,-150.5 381.38,-128.5 359.38,-128.5"/>
<polygon fill="none" stroke="black" points="359.38,-128.5 359.38,-150.5 381.38,-150.5 381.38,-128.5 359.38,-128.5"/>
<polygon fill="#9fc5e8" stroke="none" points="381.38,-128.5 381.38,-150.5 403.38,-150.5 403.38,-128.5 381.38,-128.5"/>
<polygon fill="none" stroke="black" points="381.38,-128.5 381.38,-150.5 403.38,-150.5 403.38,-128.5 381.38,-128.5"/>
<polygon fill="#9fc5e8" stroke="none" points="403.38,-128.5 403.38,-150.5 425.38,-150.5 425.38,-128.5 403.38,-128.5"/>
<polygon fill="none" stroke="black" points="403.38,-128.5 403.38,-150.5 425.38,-150.5 425.38,-128.5 403.38,-128.5"/>
<polygon fill="#9fc5e8" stroke="none" points="425.38,-128.5 425.38,-150.5 447.38,-150.5 447.38,-128.5 425.38,-128.5"/>
<polygon fill="none" stroke="black" points="425.38,-128.5 425.38,-150.5 447.38,-150.5 447.38,-128.5 425.38,-128.5"/>
<polygon fill="#9fc5e8" stroke="none" points="337.38,-106.5 337.38,-128.5 359.38,-128.5 359.38,-106.5 337.38,-106.5"/>
<polygon fill="none" stroke="black" points="337.38,-106.5 337.38,-128.5 359.38,-128.5 359.38,-106.5 337.38,-106.5"/>
<polygon fill="#9fc5e8" stroke="none" points="359.38,-106.5 359.38,-128.5 381.38,-128.5 381.38,-106.5 359.38,-106.5"/>
<polygon fill="none" stroke="black" points="359.38,-106.5 359.38,-128.5 381.38,-128.5 381.38,-106.5 359.38,-106.5"/>
<polygon fill="#9fc5e8" stroke="none" points="381.38,-106.5 381.38,-128.5 403.38,-128.5 403.38,-106.5 381.38,-106.5"/>
<polygon fill="none" stroke="black" points="381.38,-106.5 381.38,-128.5 403.38,-128.5 403.38,-106.5 381.38,-106.5"/>
<polygon fill="#9fc5e8" stroke="none" points="403.38,-106.5 403.38,-128.5 425.38,-128.5 425.38,-106.5 403.38,-106.5"/>
<polygon fill="none" stroke="black" points="403.38,-106.5 403.38,-128.5 425.38,-128.5 425.38,-106.5 403.38,-106.5"/>
<polygon fill="#9fc5e8" stroke="none" points="425.38,-106.5 425.38,-128.5 447.38,-128.5 447.38,-106.5 425.38,-106.5"/>
<polygon fill="none" stroke="black" points="425.38,-106.5 425.38,-128.5 447.38,-128.5 447.38,-106.5 425.38,-106.5"/>
<text xml:space="preserve" text-anchor="start" x="428.62" y="-93.75" font-family="Arial" font-size="14.00">4,4</text>
</g>
<!-- linear -->
<g id="node2" class="node">
<title>linear</title>
<text xml:space="preserve" text-anchor="start" x="8" y="-27" font-family="Arial" font-size="14.00">0,0</text>
<text xml:space="preserve" text-anchor="start" x="158" y="-27" font-family="Arial" font-size="14.00">1,0</text>
<text xml:space="preserve" text-anchor="start" x="308" y="-27" font-family="Arial" font-size="14.00">2,0</text>
<text xml:space="preserve" text-anchor="start" x="458" y="-27" font-family="Arial" font-size="14.00">3,0</text>
<text xml:space="preserve" text-anchor="start" x="608" y="-27" font-family="Arial" font-size="14.00">4,0</text>
<text xml:space="preserve" text-anchor="start" x="739.25" y="-27" font-family="Arial" font-size="14.00">4,4</text>
<polygon fill="#9fc5e8" stroke="none" points="8,-4 8,-24 38,-24 38,-4 8,-4"/>
<polygon fill="none" stroke="black" points="8,-4 8,-24 38,-24 38,-4 8,-4"/>
<polygon fill="#9fc5e8" stroke="none" points="38,-4 38,-24 68,-24 68,-4 38,-4"/>
<polygon fill="none" stroke="black" points="38,-4 38,-24 68,-24 68,-4 38,-4"/>
<polygon fill="#9fc5e8" stroke="none" points="68,-4 68,-24 98,-24 98,-4 68,-4"/>
<polygon fill="none" stroke="black" points="68,-4 68,-24 98,-24 98,-4 68,-4"/>
<polygon fill="#9fc5e8" stroke="none" points="98,-4 98,-24 128,-24 128,-4 98,-4"/>
<polygon fill="none" stroke="black" points="98,-4 98,-24 128,-24 128,-4 98,-4"/>
<polygon fill="#9fc5e8" stroke="none" points="128,-4 128,-24 158,-24 158,-4 128,-4"/>
<polygon fill="none" stroke="black" points="128,-4 128,-24 158,-24 158,-4 128,-4"/>
<polygon fill="#9fc5e8" stroke="none" points="158,-4 158,-24 188,-24 188,-4 158,-4"/>
<polygon fill="none" stroke="black" points="158,-4 158,-24 188,-24 188,-4 158,-4"/>
<polygon fill="#9fc5e8" stroke="none" points="188,-4 188,-24 218,-24 218,-4 188,-4"/>
<polygon fill="none" stroke="black" points="188,-4 188,-24 218,-24 218,-4 188,-4"/>
<polygon fill="#9fc5e8" stroke="none" points="218,-4 218,-24 248,-24 248,-4 218,-4"/>
<polygon fill="none" stroke="black" points="218,-4 218,-24 248,-24 248,-4 218,-4"/>
<polygon fill="#9fc5e8" stroke="none" points="248,-4 248,-24 278,-24 278,-4 248,-4"/>
<polygon fill="none" stroke="black" points="248,-4 248,-24 278,-24 278,-4 248,-4"/>
<polygon fill="#9fc5e8" stroke="none" points="278,-4 278,-24 308,-24 308,-4 278,-4"/>
<polygon fill="none" stroke="black" points="278,-4 278,-24 308,-24 308,-4 278,-4"/>
<polygon fill="#9fc5e8" stroke="none" points="308,-4 308,-24 338,-24 338,-4 308,-4"/>
<polygon fill="none" stroke="black" points="308,-4 308,-24 338,-24 338,-4 308,-4"/>
<polygon fill="#9fc5e8" stroke="none" points="338,-4 338,-24 368,-24 368,-4 338,-4"/>
<polygon fill="none" stroke="black" points="338,-4 338,-24 368,-24 368,-4 338,-4"/>
<polygon fill="#9fc5e8" stroke="none" points="368,-4 368,-24 398,-24 398,-4 368,-4"/>
<polygon fill="none" stroke="black" points="368,-4 368,-24 398,-24 398,-4 368,-4"/>
<polygon fill="#9fc5e8" stroke="none" points="398,-4 398,-24 428,-24 428,-4 398,-4"/>
<polygon fill="none" stroke="black" points="398,-4 398,-24 428,-24 428,-4 398,-4"/>
<polygon fill="#9fc5e8" stroke="none" points="428,-4 428,-24 458,-24 458,-4 428,-4"/>
<polygon fill="none" stroke="black" points="428,-4 428,-24 458,-24 458,-4 428,-4"/>
<polygon fill="#9fc5e8" stroke="none" points="458,-4 458,-24 488,-24 488,-4 458,-4"/>
<polygon fill="none" stroke="black" points="458,-4 458,-24 488,-24 488,-4 458,-4"/>
<polygon fill="#9fc5e8" stroke="none" points="488,-4 488,-24 518,-24 518,-4 488,-4"/>
<polygon fill="none" stroke="black" points="488,-4 488,-24 518,-24 518,-4 488,-4"/>
<polygon fill="#9fc5e8" stroke="none" points="518,-4 518,-24 548,-24 548,-4 518,-4"/>
<polygon fill="none" stroke="black" points="518,-4 518,-24 548,-24 548,-4 518,-4"/>
<polygon fill="#9fc5e8" stroke="none" points="548,-4 548,-24 578,-24 578,-4 548,-4"/>
<polygon fill="none" stroke="black" points="548,-4 548,-24 578,-24 578,-4 548,-4"/>
<polygon fill="#9fc5e8" stroke="none" points="578,-4 578,-24 608,-24 608,-4 578,-4"/>
<polygon fill="none" stroke="black" points="578,-4 578,-24 608,-24 608,-4 578,-4"/>
<polygon fill="#9fc5e8" stroke="none" points="608,-4 608,-24 638,-24 638,-4 608,-4"/>
<polygon fill="none" stroke="black" points="608,-4 608,-24 638,-24 638,-4 608,-4"/>
<polygon fill="#9fc5e8" stroke="none" points="638,-4 638,-24 668,-24 668,-4 638,-4"/>
<polygon fill="none" stroke="black" points="638,-4 638,-24 668,-24 668,-4 638,-4"/>
<polygon fill="#9fc5e8" stroke="none" points="668,-4 668,-24 698,-24 698,-4 668,-4"/>
<polygon fill="none" stroke="black" points="668,-4 668,-24 698,-24 698,-4 668,-4"/>
<polygon fill="#9fc5e8" stroke="none" points="698,-4 698,-24 728,-24 728,-4 698,-4"/>
<polygon fill="none" stroke="black" points="698,-4 698,-24 728,-24 728,-4 698,-4"/>
<polygon fill="#9fc5e8" stroke="none" points="728,-4 728,-24 758,-24 758,-4 728,-4"/>
<polygon fill="none" stroke="black" points="728,-4 728,-24 758,-24 758,-4 728,-4"/>
</g>
<!-- matriz&#45;&gt;linear -->
</g>
</svg>