<svg width="212pt" height="209pt"
 viewBox="0.00 0.00 212.00 209.00" xmlns="http://www.w3.org/2000/svg" xmlns:xlink="http://www.w3.org/1999/xlink">
<g id="graph0" class="graph" transform="scale(1 1) rotate(0) translate(4 205)">
<title>Flowchart</title>
<polygon fill="white" stroke="none" points="-4,4 -4,-205 208.43,-205 208.43,4 -4,4"/>
<!-- Igual1 -->
<g id="node1" class="node">
<title>Igual1</title>
<path fill="#fff9c4" stroke="black" d="M25.2,-195.63C25.2,-195.63 10.73,-188.37 10.73,-188.37 5.36,-185.69 5.36,-180.31 10.73,-177.63 10.73,-177.63 25.2,-170.37 25.2,-170.37 30.57,-167.69 41.29,-167.69 46.66,-170.37 46.66,-170.37 61.13,-177.63 61.13,-177.63 66.5,-180.31 66.5,-185.69 61.13,-188.37 61.13,-188.37 46.66,-195.63 46.66,-195.63 41.29,-198.31 30.57,-198.31 25.2,-195.63"/>
<text xml:space="preserve" text-anchor="middle" x="35.93" y="-179.5" font-family="Arial" font-size="10.00">Igual?</text>
</g>
<!-- Case1 -->
<g id="node2" class="node">
<title>Case1</title>
<path fill="#f9f9f9" stroke="black" d="M192.06,-201C192.06,-201 119.81,-201 119.81,-201 113.81,-201 107.81,-195 107.81,-189 107.81,-189 107.81,-177 107.81,-177 107.81,-171 113.81,-165 119.81,-165 119.81,-165 192.06,-165 192.06,-165 198.06,-165 204.06,-171 204.06,-177 204.06,-177 204.06,-189 204.06,-189 204.06,-195 198.06,-201 192.06,-201"/>
<text xml:space="preserve" text-anchor="middle" x="155.93" y="-179.5" font-family="Arial" font-size="10.00">case 1: printf(&quot;A&quot;);</text>
</g>
<!-- Igual1&#45;&gt;Case1 -->
<g id="edge1" class="edge">
<title>Igual1&#45;&gt;Case1</title>
<path fill="none" stroke="black" d="M72.91,-183C80.22,-183 88.07,-183 95.92,-183"/>
<polygon fill="black" stroke="black" points="95.84,-186.5 105.84,-183 95.84,-179.5 95.84,-186.5"/>
<text xml:space="preserve" text-anchor="middle" x="89.83" y="-187.95" font-family="Arial" font-size="9.00">SIM</text>
</g>
<!-- Case2 -->
<g id="node3" class="node">
<title>Case2</title>
<path fill="#f9f9f9" stroke="black" d="M192.06,-118.5C192.06,-118.5 119.81,-118.5 119.81,-118.5 113.81,-118.5 107.81,-112.5 107.81,-106.5 107.81,-106.5 107.81,-94.5 107.81,-94.5 107.81,-88.5 113.81,-82.5 119.81,-82.5 119.81,-82.5 192.06,-82.5 192.06,-82.5 198.06,-82.5 204.06,-88.5 204.06,-94.5 204.06,-94.5 204.06,-106.5 204.06,-106.5 204.06,-112.5 198.06,-118.5 192.06,-118.5"/>
<text xml:space="preserve" text-anchor="middle" x="155.93" y="-97" font-family="Arial" font-size="10.00">case 2: printf(&quot;B&quot;);</text>
</g>
<!-- Case1&#45;&gt;Case2 -->
<g id="edge2" class="edge">
<title>Case1&#45;&gt;Case2</title>
<path fill="none" stroke="black" d="M155.93,-164.53C155.93,-154.51 155.93,-141.68 155.93,-130.21"/>
<polygon fill="black" stroke="black" points="159.43,-130.45 155.93,-120.45 152.43,-130.45 159.43,-130.45"/>
<text xml:space="preserve" text-anchor="middle" x="179.18" y="-138.45" font-family="Arial" font-size="9.00">Sem break!</text>
</g>
<!-- Case3 -->
<g id="node4" class="node">
<title>Case3</title>
<path fill="#f9f9f9" stroke="black" d="M192.43,-36C192.43,-36 119.43,-36 119.43,-36 113.43,-36 107.43,-30 107.43,-24 107.43,-24 107.43,-12 107.43,-12 107.43,-6 113.43,0 119.43,0 119.43,0 192.43,0 192.43,0 198.43,0 204.43,-6 204.43,-12 204.43,-12 204.43,-24 204.43,-24 204.43,-30 198.43,-36 192.43,-36"/>
<text xml:space="preserve" text-anchor="middle" x="155.93" y="-14.5" font-family="Arial" font-size="10.00">case 3: printf(&quot;C&quot;);</text>
</g>
<!-- Case2&#45;&gt;Case3 -->
<g id="edge3" class="edge">
<title>Case2&#45;&gt;Case3</title>
<path fill="none" stroke="black" d="M155.93,-82.03C155.93,-72.01 155.93,-59.18 155.93,-47.71"/>
<polygon fill="black" stroke="black" points="159.43,-47.95 155.93,-37.95 152.43,-47.95 159.43,-47.95"/>
<text xml:space="preserve" text-anchor="middle" x="179.18" y="-55.95" font-family="Arial" font-size="9.00">Sem break!</text>
</g>
</g>
</svg>