<svg width="114pt" height="141pt"
 viewBox="0.00 0.00 114.00 141.00" xmlns="http://www.w3.org/2000/svg" xmlns:xlink="http://www.w3.org/1999/xlink">
<g id="graph0" class="graph" transform="scale(1 1) rotate(0) translate(4 136.7)">
<title>figura41</title>
<polygon fill="white" stroke="none" points="-4,4 -4,-136.7 110.32,-136.7 110.32,4 -4,4"/>
<!-- start -->
<g id="node1" class="node">
<title>start</title>
<ellipse fill="#333333" stroke="#333333" cx="53.16" cy="-130.9" rx="1.8" ry="1.8"/>
</g>
<!-- cond -->
<g id="node2" class="node">
<title>cond</title>
<polygon fill="#b7d8ec" stroke="#333333" points="53.16,-92.1 0,-74.1 53.16,-56.1 106.32,-74.1 53.16,-92.1"/>
<text xml:space="preserve" text-anchor="middle" x="53.16" y="-68.67" font-family="Arial" font-size="14.00" fill="#333333">A &gt; B?</text>
</g>
<!-- start&#45;&gt;cond -->
<g id="edge1" class="edge">
<title>start&#45;&gt;cond</title>
<path fill="none" stroke="#333333" d="M53.16,-128.95C53.16,-125.74 53.16,-114.9 53.16,-103.78"/>
<polygon fill="#333333" stroke="#333333" points="56.66,-103.91 53.16,-93.91 49.66,-103.92 56.66,-103.91"/>
</g>
<!-- sim -->
<g id="node3" class="node">
<title>sim</title>
<ellipse fill="#333333" stroke="#333333" cx="30.16" cy="-1.8" rx="1.8" ry="1.8"/>
</g>
<!-- cond&#45;&gt;sim -->
<g id="edge2" class="edge">
<title>cond&#45;&gt;sim</title>
<path fill="none" stroke="#333333" d="M42.4,-59.25C38.25,-53.12 33.95,-45.6 31.66,-38.1 29.41,-30.74 29.01,-22.11 29.18,-15.23"/>
<polygon fill="#333333" stroke="#333333" points="32.66,-15.67 29.9,-5.44 25.68,-15.16 32.66,-15.67"/>
<text xml:space="preserve" text-anchor="middle" x="42.91" y="-24.8" font-family="Times,serif" font-size="14.00" fill="#333333">Sim</text>
</g>
<!-- nao -->
<g id="node4" class="node">
<title>nao</title>
<ellipse fill="#333333" stroke="#333333" cx="76.16" cy="-1.8" rx="1.8" ry="1.8"/>
</g>
<!-- cond&#45;&gt;nao -->
<g id="edge3" class="edge">
<title>cond&#45;&gt;nao</title>
<path fill="none" stroke="#333333" d="M58.27,-57.5C62.54,-44.45 68.53,-26.13 72.38,-14.36"/>
<polygon fill="#333333" stroke="#333333" points="75.63,-15.69 75.41,-5.1 68.97,-13.51 75.63,-15.69"/>
<text xml:space="preserve" text-anchor="middle" x="81.24" y="-24.8" font-family="Times,serif" font-size="14.00" fill="#333333">Não</text>
</g>
</g>
</svg>