<svg width="189pt" height="106pt"
 viewBox="0.00 0.00 189.00 106.00" xmlns="http://www.w3.org/2000/svg" xmlns:xlink="http://www.w3.org/1999/xlink">
<g id="graph0" class="graph" transform="scale(1 1) rotate(0) translate(4 101.5)">
<title>GluedBuffer</title>
<!-- array -->
<g id="node1" class="node">
<title>array</title>
<polygon fill="white" stroke="none" points="0.25,-54.75 0.25,-97.5 37,-97.5 37,-54.75 0.25,-54.75"/>
<polygon fill="none" stroke="#333333" stroke-width="2" points="1.25,-55.75 1.25,-96.5 36,-96.5 36,-55.75 1.25,-55.75"/>
<text xml:space="preserve" text-anchor="start" x="12.25" y="-71.3" font-family="Arial" font-weight="bold" font-size="16.00">w</text>
<polygon fill="white" stroke="none" stroke-width="2" points="37,-54.75 37,-97.5 70.75,-97.5 70.75,-54.75 37,-54.75"/>
<polygon fill="none" stroke="#333333" stroke-width="2" points="38,-55.75 38,-96.5 69.75,-96.5 69.75,-55.75 38,-55.75"/>
<text xml:space="preserve" text-anchor="start" x="49" y="-71.3" font-family="Arial" font-weight="bold" font-size="16.00">h</text>
<polygon fill="white" stroke="none" stroke-width="2" points="70.75,-54.75 70.75,-97.5 99.25,-97.5 99.25,-54.75 70.75,-54.75"/>
<polygon fill="none" stroke="#333333" stroke-width="2" points="71.75,-55.75 71.75,-96.5 98.25,-96.5 98.25,-55.75 71.75,-55.75"/>
<text xml:space="preserve" text-anchor="start" x="82.75" y="-71.3" font-family="Arial" font-weight="bold" font-size="16.00">i</text>
<polygon fill="red" stroke="none" stroke-width="2" points="99.25,-54.75 99.25,-97.5 119.25,-97.5 119.25,-54.75 99.25,-54.75"/>
<polygon fill="white" stroke="none" stroke-width="2" points="119.25,-54.75 119.25,-97.5 147.75,-97.5 147.75,-54.75 119.25,-54.75"/>
<polygon fill="none" stroke="#333333" stroke-width="2" points="120.25,-55.75 120.25,-96.5 146.75,-96.5 146.75,-55.75 120.25,-55.75"/>
<text xml:space="preserve" text-anchor="start" x="131.25" y="-71.3" font-family="Arial" font-weight="bold" font-size="16.00">l</text>
<polygon fill="white" stroke="none" stroke-width="2" points="147.75,-54.75 147.75,-97.5 180.75,-97.5 180.75,-54.75 147.75,-54.75"/>
<polygon fill="none" stroke="#333333" stroke-width="2" points="148.75,-55.75 148.75,-96.5 179.75,-96.5 179.75,-55.75 148.75,-55.75"/>
<text xml:space="preserve" text-anchor="start" x="159.75" y="-71.3" font-family="Arial" font-weight="bold" font-size="16.00">e</text>
</g>
<!-- start -->
<g id="node2" class="node">
<title>start</title>
<text xml:space="preserve" text-anchor="middle" x="19.5" y="-3.55" font-family="Arial" font-size="16.00">Início</text>
</g>
<!-- start&#45;&gt;array -->
<g id="edge1" class="edge">
<title>start&#45;&gt;array:0</title>
<path fill="none" stroke="black" d="M19.34,-18.51C19.2,-25.52 19,-35.7 18.85,-43.49"/>
<polygon fill="black" stroke="black" points="15.35,-43.17 18.65,-53.24 22.35,-43.31 15.35,-43.17"/>
</g>
<!-- end -->
<g id="node3" class="node">
<title>end</title>
<text xml:space="preserve" text-anchor="middle" x="133.5" y="-3.55" font-family="Arial" font-size="16.00">Fim</text>
</g>
<!-- end&#45;&gt;array -->
<g id="edge2" class="edge">
<title>end&#45;&gt;array:3</title>
<path fill="none" stroke="black" d="M133.5,-18.51C133.5,-25.52 133.5,-35.7 133.5,-43.49"/>
<polygon fill="black" stroke="black" points="130,-43.24 133.5,-53.24 137,-43.24 130,-43.24"/>
</g>
</g>
</svg>