<svg width="630pt" height="154pt"
 viewBox="0.00 0.00 630.00 154.00" xmlns="http://www.w3.org/2000/svg" xmlns:xlink="http://www.w3.org/1999/xlink">
<g id="graph0" class="graph" transform="scale(1 1) rotate(0) translate(4 150)">
<title>G</title>
<!-- quadro -->
<g id="node1" class="node">
<title>quadro</title>
<polygon fill="none" stroke="black" points="9,-110.5 9,-141 612.75,-141 612.75,-110.5 9,-110.5"/>
<text xml:space="preserve" text-anchor="start" x="224.62" y="-121.7" font-family="Times,serif" font-weight="bold" font-size="14.00">ESTRUTURA DO QUADRO</text>
<polygon fill="none" stroke="black" points="9,-68.5 9,-110.5 199.25,-110.5 199.25,-68.5 9,-68.5"/>
<text xml:space="preserve" text-anchor="start" x="59.88" y="-91.2" font-family="Times,serif" font-weight="bold" font-size="14.00">CABEÇALHO</text>
<text xml:space="preserve" text-anchor="start" x="77.88" y="-77.2" font-family="Times,serif" font-weight="bold" font-size="14.00">(Header)</text>
<polygon fill="none" stroke="black" points="199.25,-68.5 199.25,-110.5 445.75,-110.5 445.75,-68.5 199.25,-68.5"/>
<text xml:space="preserve" text-anchor="start" x="289.5" y="-91.2" font-family="Times,serif" font-weight="bold" font-size="14.00">PAYLOAD</text>
<text xml:space="preserve" text-anchor="start" x="287.25" y="-77.2" font-family="Times,serif" font-weight="bold" font-size="14.00">(Carga Útil)</text>
<polygon fill="none" stroke="black" points="445.75,-68.5 445.75,-110.5 612.75,-110.5 612.75,-68.5 445.75,-68.5"/>
<text xml:space="preserve" text-anchor="start" x="500.38" y="-91.2" font-family="Times,serif" font-weight="bold" font-size="14.00">RODAPÉ</text>
<text xml:space="preserve" text-anchor="start" x="504.5" y="-77.2" font-family="Times,serif" font-weight="bold" font-size="14.00">(Trailer)</text>
<polygon fill="none" stroke="black" points="9,-5 9,-68.5 199.25,-68.5 199.25,-5 9,-5"/>
<text xml:space="preserve" text-anchor="start" x="38.88" y="-48.75" font-family="Times,serif" font-size="14.00"> &#160;&#160;&#160;&#160;&#160;&#160;&#160;&#160;&#160;&#160;&#160;Origem: 1 Byte</text>
<text xml:space="preserve" text-anchor="start" x="38.88" y="-32.25" font-family="Times,serif" font-size="14.00"> &#160;&#160;&#160;&#160;&#160;&#160;&#160;&#160;&#160;&#160;&#160;Destino: 1 Byte</text>
<text xml:space="preserve" text-anchor="start" x="16" y="-15.75" font-family="Times,serif" font-size="14.00"> &#160;&#160;&#160;&#160;&#160;&#160;&#160;&#160;&#160;&#160;&#160;Tamanho: 1 Byte &#160;&#160;&#160;&#160;&#160;&#160;&#160;&#160;&#160;</text>
<polygon fill="none" stroke="black" points="199.25,-5 199.25,-68.5 445.75,-68.5 445.75,-5 199.25,-5"/>
<text xml:space="preserve" text-anchor="start" x="206.25" y="-32.25" font-family="Times,serif" font-size="14.00"> &#160;&#160;&#160;&#160;&#160;&#160;&#160;&#160;&#160;&#160;&#160;[ DADOS DO USUÁRIO ] &#160;&#160;&#160;&#160;&#160;&#160;&#160;&#160;&#160;</text>
<polygon fill="none" stroke="black" points="445.75,-5 445.75,-68.5 612.75,-68.5 612.75,-5 445.75,-5"/>
<text xml:space="preserve" text-anchor="start" x="452.75" y="-32.25" font-family="Times,serif" font-size="14.00"> &#160;&#160;&#160;&#160;&#160;&#160;&#160;&#160;&#160;&#160;&#160;CRC: 1 Byte &#160;&#160;&#160;&#160;&#160;&#160;&#160;&#160;&#160;</text>
<polygon fill="none" stroke="black" points="8,-4 8,-142 613.75,-142 613.75,-4 8,-4"/>
</g>
</g>
</svg>