<svg width="461pt" height="101pt"
 viewBox="0.00 0.00 461.00 101.00" xmlns="http://www.w3.org/2000/svg" xmlns:xlink="http://www.w3.org/1999/xlink">
<g id="graph0" class="graph" transform="scale(1 1) rotate(0) translate(4 97)">
<title>Flowchart</title>
<g id="clust1" class="cluster">
<title>cluster_process</title>
<path fill="#f5f5e8" stroke="#d6d6a5" d="M187.75,-8C187.75,-8 258,-8 258,-8 264,-8 270,-14 270,-20 270,-20 270,-73 270,-73 270,-79 264,-85 258,-85 258,-85 187.75,-85 187.75,-85 181.75,-85 175.75,-79 175.75,-73 175.75,-73 175.75,-20 175.75,-20 175.75,-14 181.75,-8 187.75,-8"/>
<text xml:space="preserve" text-anchor="middle" x="222.88" y="-67.7" font-family="Times,serif" font-size="14.00">Processo</text>
</g>
<!-- B -->
<g id="node1" class="node">
<title>B</title>
<path fill="none" stroke="#333333" stroke-width="2" stroke-dasharray="5,2" d="M250,-52C250,-52 195.75,-52 195.75,-52 189.75,-52 183.75,-46 183.75,-40 183.75,-40 183.75,-28 183.75,-28 183.75,-22 189.75,-16 195.75,-16 195.75,-16 250,-16 250,-16 256,-16 262,-22 262,-28 262,-28 262,-40 262,-40 262,-46 256,-52 250,-52"/>
<text xml:space="preserve" text-anchor="middle" x="222.88" y="-29.73" font-family="Helvetica,sans-Serif" font-size="12.00" fill="#333333">Compilador</text>
</g>
<!-- C -->
<g id="node3" class="node">
<title>C</title>
<path fill="none" stroke="#8a6cff" stroke-width="2" d="M440.5,-52C440.5,-52 360,-52 360,-52 354,-52 348,-46 348,-40 348,-40 348,-28 348,-28 348,-22 354,-16 360,-16 360,-16 440.5,-16 440.5,-16 446.5,-16 452.5,-22 452.5,-28 452.5,-28 452.5,-40 452.5,-40 452.5,-46 446.5,-52 440.5,-52"/>
<text xml:space="preserve" text-anchor="middle" x="400.25" y="-29.73" font-family="Helvetica,sans-Serif" font-size="12.00" fill="#333333">Programa objeto</text>
</g>
<!-- B&#45;&gt;C -->
<g id="edge2" class="edge">
<title>B&#45;&gt;C</title>
<path fill="none" stroke="#333333" d="M263,-32.35C298.04,-30.93 319.54,-30.2 336.05,-30.15"/>
<polygon fill="#333333" stroke="#333333" points="335.78,-33.64 345.8,-30.22 335.83,-26.64 335.78,-33.64"/>
</g>
<!-- A -->
<g id="node2" class="node">
<title>A</title>
<path fill="none" stroke="#8a6cff" stroke-width="2" d="M85.75,-52C85.75,-52 12,-52 12,-52 6,-52 0,-46 0,-40 0,-40 0,-28 0,-28 0,-22 6,-16 12,-16 12,-16 85.75,-16 85.75,-16 91.75,-16 97.75,-22 97.75,-28 97.75,-28 97.75,-40 97.75,-40 97.75,-46 91.75,-52 85.75,-52"/>
<text xml:space="preserve" text-anchor="middle" x="48.88" y="-29.73" font-family="Helvetica,sans-Serif" font-size="12.00" fill="#333333">Programa fonte</text>
</g>
<!-- A&#45;&gt;B -->
<g id="edge1" class="edge">
<title>A&#45;&gt;B</title>
<path fill="none" stroke="#333333" d="M98.55,-30.55C115.04,-30.17 134.84,-30.66 171.56,-32.02"/>
<polygon fill="#333333" stroke="#333333" points="171.3,-35.51 181.42,-32.39 171.56,-28.51 171.3,-35.51"/>
</g>
</g>
</svg>