<svg width="528pt" height="169pt"
 viewBox="0.00 0.00 528.00 169.00" xmlns="http://www.w3.org/2000/svg" xmlns:xlink="http://www.w3.org/1999/xlink">
<g id="graph0" class="graph" transform="scale(1 1) rotate(0) translate(4 164.6)">
<title>Aula9</title>
<polygon fill="white" stroke="none" points="-4,4 -4,-164.6 523.75,-164.6 523.75,4 -4,4"/>
<!-- G -->
<g id="node1" class="node">
<title>G</title>
<path fill="#e8efe3" stroke="black" d="M102.25,-100.29C102.25,-100.29 12,-100.29 12,-100.29 6,-100.29 0,-94.29 0,-88.29 0,-88.29 0,-72.79 0,-72.79 0,-66.79 6,-60.79 12,-60.79 12,-60.79 102.25,-60.79 102.25,-60.79 108.25,-60.79 114.25,-66.79 114.25,-72.79 114.25,-72.79 114.25,-88.29 114.25,-88.29 114.25,-94.29 108.25,-100.29 102.25,-100.29"/>
<text xml:space="preserve" text-anchor="middle" x="57.12" y="-82.99" font-family="Helvetica,sans-Serif" font-size="14.00">Gramática com</text>
<text xml:space="preserve" text-anchor="middle" x="57.12" y="-67.24" font-family="Helvetica,sans-Serif" font-size="14.00">algum problema</text>
</g>
<!-- A -->
<g id="node2" class="node">
<title>A</title>
<path fill="#f5f5e8" stroke="black" d="M249.5,-155.54C249.5,-155.54 178,-155.54 178,-155.54 172,-155.54 166,-149.54 166,-143.54 166,-143.54 166,-131.54 166,-131.54 166,-125.54 172,-119.54 178,-119.54 178,-119.54 249.5,-119.54 249.5,-119.54 255.5,-119.54 261.5,-125.54 261.5,-131.54 261.5,-131.54 261.5,-143.54 261.5,-143.54 261.5,-149.54 255.5,-155.54 249.5,-155.54"/>
<text xml:space="preserve" text-anchor="middle" x="213.75" y="-132.12" font-family="Helvetica,sans-Serif" font-size="14.00">Ambiguidade</text>
</g>
<!-- G&#45;&gt;A -->
<g id="edge1" class="edge">
<title>G&#45;&gt;A</title>
<path fill="none" stroke="black" d="M83.81,-100.66C101.7,-112.74 116.89,-118.15 154.43,-126"/>
<polygon fill="black" stroke="black" points="153.64,-129.41 164.14,-127.98 155.04,-122.55 153.64,-129.41"/>
</g>
<!-- R -->
<g id="node3" class="node">
<title>R</title>
<path fill="#f5f5e8" stroke="black" d="M243.5,-100.29C243.5,-100.29 184,-100.29 184,-100.29 178,-100.29 172,-94.29 172,-88.29 172,-88.29 172,-72.79 172,-72.79 172,-66.79 178,-60.79 184,-60.79 184,-60.79 243.5,-60.79 243.5,-60.79 249.5,-60.79 255.5,-66.79 255.5,-72.79 255.5,-72.79 255.5,-88.29 255.5,-88.29 255.5,-94.29 249.5,-100.29 243.5,-100.29"/>
<text xml:space="preserve" text-anchor="middle" x="213.75" y="-82.99" font-family="Helvetica,sans-Serif" font-size="14.00">Recursão</text>
<text xml:space="preserve" text-anchor="middle" x="213.75" y="-67.24" font-family="Helvetica,sans-Serif" font-size="14.00">à esquerda</text>
</g>
<!-- G&#45;&gt;R -->
<g id="edge3" class="edge">
<title>G&#45;&gt;R</title>
<path fill="none" stroke="black" d="M114.28,-80.54C125.71,-80.54 139.91,-80.54 160.4,-80.54"/>
<polygon fill="black" stroke="black" points="160.19,-84.04 170.19,-80.54 160.19,-77.04 160.19,-84.04"/>
</g>
<!-- N -->
<g id="node4" class="node">
<title>N</title>
<path fill="#f5f5e8" stroke="black" d="M265.25,-42.29C265.25,-42.29 162.25,-42.29 162.25,-42.29 156.25,-42.29 150.25,-36.29 150.25,-30.29 150.25,-30.29 150.25,-14.79 150.25,-14.79 150.25,-8.79 156.25,-2.79 162.25,-2.79 162.25,-2.79 265.25,-2.79 265.25,-2.79 271.25,-2.79 277.25,-8.79 277.25,-14.79 277.25,-14.79 277.25,-30.29 277.25,-30.29 277.25,-36.29 271.25,-42.29 265.25,-42.29"/>
<text xml:space="preserve" text-anchor="middle" x="213.75" y="-24.99" font-family="Helvetica,sans-Serif" font-size="14.00">Não determinismo</text>
<text xml:space="preserve" text-anchor="middle" x="213.75" y="-9.24" font-family="Helvetica,sans-Serif" font-size="14.00">local</text>
</g>
<!-- G&#45;&gt;N -->
<g id="edge5" class="edge">
<title>G&#45;&gt;N</title>
<path fill="none" stroke="black" d="M83.39,-60.4C98.74,-49.81 111.99,-44.23 138.91,-37.82"/>
<polygon fill="black" stroke="black" points="139.48,-41.28 148.46,-35.65 137.93,-34.46 139.48,-41.28"/>
</g>
<!-- D1 -->
<g id="node5" class="node">
<title>D1</title>
<path fill="#e8f4f8" stroke="black" d="M507.75,-158.29C507.75,-158.29 325.25,-158.29 325.25,-158.29 319.25,-158.29 313.25,-152.29 313.25,-146.29 313.25,-146.29 313.25,-130.79 313.25,-130.79 313.25,-124.79 319.25,-118.79 325.25,-118.79 325.25,-118.79 507.75,-118.79 507.75,-118.79 513.75,-118.79 519.75,-124.79 519.75,-130.79 519.75,-130.79 519.75,-146.29 519.75,-146.29 519.75,-152.29 513.75,-158.29 507.75,-158.29"/>
<text xml:space="preserve" text-anchor="middle" x="416.5" y="-140.99" font-family="Helvetica,sans-Serif" font-size="14.00">Desambiguação</text>
<text xml:space="preserve" text-anchor="middle" x="416.5" y="-125.24" font-family="Helvetica,sans-Serif" font-size="14.00">(precedência + associatividade)</text>
</g>
<!-- A&#45;&gt;D1 -->
<g id="edge2" class="edge">
<title>A&#45;&gt;D1</title>
<path fill="none" stroke="black" d="M261.97,-148.64C301.26,-157.4 323.88,-161.17 343.62,-160.03"/>
<polygon fill="black" stroke="black" points="343.95,-163.51 353.52,-158.94 343.19,-156.55 343.95,-163.51"/>
</g>
<!-- D2 -->
<g id="node6" class="node">
<title>D2</title>
<path fill="#eef7f0" stroke="black" d="M474.38,-100.29C474.38,-100.29 358.62,-100.29 358.62,-100.29 352.62,-100.29 346.62,-94.29 346.62,-88.29 346.62,-88.29 346.62,-72.79 346.62,-72.79 346.62,-66.79 352.62,-60.79 358.62,-60.79 358.62,-60.79 474.38,-60.79 474.38,-60.79 480.38,-60.79 486.38,-66.79 486.38,-72.79 486.38,-72.79 486.38,-88.29 486.38,-88.29 486.38,-94.29 480.38,-100.29 474.38,-100.29"/>
<text xml:space="preserve" text-anchor="middle" x="416.5" y="-82.99" font-family="Helvetica,sans-Serif" font-size="14.00">Eliminação da</text>
<text xml:space="preserve" text-anchor="middle" x="416.5" y="-67.24" font-family="Helvetica,sans-Serif" font-size="14.00">recursão à esquerda</text>
</g>
<!-- R&#45;&gt;D2 -->
<g id="edge4" class="edge">
<title>R&#45;&gt;D2</title>
<path fill="none" stroke="black" d="M255.82,-80.54C292.41,-80.54 316.48,-80.54 334.9,-80.54"/>
<polygon fill="black" stroke="black" points="334.75,-84.04 344.75,-80.54 334.75,-77.04 334.75,-84.04"/>
</g>
<!-- D3 -->
<g id="node7" class="node">
<title>D3</title>
<path fill="#fdf1e7" stroke="black" d="M446.25,-42.29C446.25,-42.29 386.75,-42.29 386.75,-42.29 380.75,-42.29 374.75,-36.29 374.75,-30.29 374.75,-30.29 374.75,-14.79 374.75,-14.79 374.75,-8.79 380.75,-2.79 386.75,-2.79 386.75,-2.79 446.25,-2.79 446.25,-2.79 452.25,-2.79 458.25,-8.79 458.25,-14.79 458.25,-14.79 458.25,-30.29 458.25,-30.29 458.25,-36.29 452.25,-42.29 446.25,-42.29"/>
<text xml:space="preserve" text-anchor="middle" x="416.5" y="-24.99" font-family="Helvetica,sans-Serif" font-size="14.00">Fatoração</text>
<text xml:space="preserve" text-anchor="middle" x="416.5" y="-9.24" font-family="Helvetica,sans-Serif" font-size="14.00">à esquerda</text>
</g>
<!-- N&#45;&gt;D3 -->
<g id="edge6" class="edge">
<title>N&#45;&gt;D3</title>
<path fill="none" stroke="black" d="M277.51,-8.44C319.52,0.19 340.2,1.77 363.44,-3.72"/>
<polygon fill="black" stroke="black" points="362.35,-7.05 372.92,-6.34 364.21,-0.31 362.35,-7.05"/>
</g>
</g>
</svg>