<svg width="672pt" height="239pt"
 viewBox="0.00 0.00 672.00 239.00" xmlns="http://www.w3.org/2000/svg" xmlns:xlink="http://www.w3.org/1999/xlink">
<g id="graph0" class="graph" transform="scale(1 1) rotate(0) translate(4 235)">
<title>CompilerFlow</title>
<!-- TS -->
<g id="node1" class="node">
<title>TS</title>
<path fill="none" stroke="#8a6cff" stroke-width="1.5" d="M123.25,-231C123.25,-231 12,-231 12,-231 6,-231 0,-225 0,-219 0,-219 0,-207 0,-207 0,-201 6,-195 12,-195 12,-195 123.25,-195 123.25,-195 129.25,-195 135.25,-201 135.25,-207 135.25,-207 135.25,-219 135.25,-219 135.25,-225 129.25,-231 123.25,-231"/>
<text xml:space="preserve" text-anchor="middle" x="67.62" y="-207.57" font-family="Helvetica,sans-Serif" font-size="14.00" fill="#333333">Tabela de Símbolos</text>
</g>
<!-- IN -->
<g id="node2" class="node">
<title>IN</title>
<path fill="none" stroke="#8a6cff" stroke-width="1.5" d="M254,-231C254,-231 219.25,-231 219.25,-231 213.25,-231 207.25,-225 207.25,-219 207.25,-219 207.25,-207 207.25,-207 207.25,-201 213.25,-195 219.25,-195 219.25,-195 254,-195 254,-195 260,-195 266,-201 266,-207 266,-207 266,-219 266,-219 266,-225 260,-231 254,-231"/>
<text xml:space="preserve" text-anchor="middle" x="236.62" y="-207.57" font-family="Helvetica,sans-Serif" font-size="14.00" fill="#333333">Código</text>
</g>
<!-- AL -->
<g id="node3" class="node">
<title>AL</title>
<path fill="none" stroke="#8a6cff" stroke-width="1.5" d="M285.88,-166C285.88,-166 187.38,-166 187.38,-166 181.38,-166 175.38,-160 175.38,-154 175.38,-154 175.38,-142 175.38,-142 175.38,-136 181.38,-130 187.38,-130 187.38,-130 285.88,-130 285.88,-130 291.88,-130 297.88,-136 297.88,-142 297.88,-142 297.88,-154 297.88,-154 297.88,-160 291.88,-166 285.88,-166"/>
<text xml:space="preserve" text-anchor="middle" x="236.62" y="-142.57" font-family="Helvetica,sans-Serif" font-size="14.00" fill="#333333">Analisador Léxico</text>
</g>
<!-- IN&#45;&gt;AL -->
<g id="edge1" class="edge">
<title>IN&#45;&gt;AL</title>
<path fill="none" stroke="#333333" d="M229.61,-194.43C228.14,-188.42 228.23,-183.06 229.89,-174.7"/>
<polygon fill="#333333" stroke="#333333" points="232.26,-175.34 231.42,-167.97 227.48,-174.26 232.26,-175.34"/>
</g>
<!-- FT -->
<g id="node4" class="node">
<title>FT</title>
<path fill="none" stroke="#8a6cff" stroke-width="1.5" d="M254,-101C254,-101 219.25,-101 219.25,-101 213.25,-101 207.25,-95 207.25,-89 207.25,-89 207.25,-77 207.25,-77 207.25,-71 213.25,-65 219.25,-65 219.25,-65 254,-65 254,-65 260,-65 266,-71 266,-77 266,-77 266,-89 266,-89 266,-95 260,-101 254,-101"/>
<text xml:space="preserve" text-anchor="middle" x="236.62" y="-77.58" font-family="Helvetica,sans-Serif" font-size="14.00" fill="#333333">Tokens</text>
</g>
<!-- AL&#45;&gt;FT -->
<g id="edge2" class="edge">
<title>AL&#45;&gt;FT</title>
<path fill="none" stroke="#333333" d="M229.63,-129.67C226.96,-121.61 226.23,-116.14 227.45,-109.49"/>
<polygon fill="#333333" stroke="#333333" points="229.71,-110.49 229.14,-103.1 224.98,-109.24 229.71,-110.49"/>
</g>
<!-- AS -->
<g id="node5" class="node">
<title>AS</title>
<path fill="none" stroke="#8a6cff" stroke-width="1.5" d="M292.25,-36C292.25,-36 181,-36 181,-36 175,-36 169,-30 169,-24 169,-24 169,-12 169,-12 169,-6 175,0 181,0 181,0 292.25,0 292.25,0 298.25,0 304.25,-6 304.25,-12 304.25,-12 304.25,-24 304.25,-24 304.25,-30 298.25,-36 292.25,-36"/>
<text xml:space="preserve" text-anchor="middle" x="236.62" y="-12.57" font-family="Helvetica,sans-Serif" font-size="14.00" fill="#333333">Analisador Sintático</text>
</g>
<!-- FT&#45;&gt;AS -->
<g id="edge3" class="edge">
<title>FT&#45;&gt;AS</title>
<path fill="none" stroke="#333333" d="M231.72,-64.37C229.62,-55.86 228.57,-50.06 228.57,-44.97"/>
<polygon fill="#333333" stroke="#333333" points="230.98,-45.48 229.39,-38.24 226.11,-44.89 230.98,-45.48"/>
</g>
<!-- ArS1 -->
<g id="node6" class="node">
<title>ArS1</title>
<path fill="none" stroke="#8a6cff" stroke-width="1.5" d="M639.25,-231C639.25,-231 540,-231 540,-231 534,-231 528,-225 528,-219 528,-219 528,-207 528,-207 528,-201 534,-195 540,-195 540,-195 639.25,-195 639.25,-195 645.25,-195 651.25,-201 651.25,-207 651.25,-207 651.25,-219 651.25,-219 651.25,-225 645.25,-231 639.25,-231"/>
<text xml:space="preserve" text-anchor="middle" x="589.62" y="-207.57" font-family="Helvetica,sans-Serif" font-size="14.00" fill="#333333">Árvore de Sintaxe</text>
</g>
<!-- ArS1&#45;&gt;AS -->
<g id="edge4" class="edge">
<title>ArS1:sw&#45;&gt;AS:ne</title>
<path fill="none" stroke="#333333" d="M523.13,-188.21C470.88,-115.43 466.14,-113.17 304.25,-36"/>
<polygon fill="#333333" stroke="#333333" points="521.05,-189.51 527.12,-193.77 525.03,-186.65 521.05,-189.51"/>
</g>
<!-- ASe -->
<g id="node7" class="node">
<title>ASe</title>
<path fill="none" stroke="#8a6cff" stroke-width="1.5" d="M651.62,-166C651.62,-166 527.62,-166 527.62,-166 521.62,-166 515.62,-160 515.62,-154 515.62,-154 515.62,-142 515.62,-142 515.62,-136 521.62,-130 527.62,-130 527.62,-130 651.62,-130 651.62,-130 657.62,-130 663.62,-136 663.62,-142 663.62,-142 663.62,-154 663.62,-154 663.62,-160 657.62,-166 651.62,-166"/>
<text xml:space="preserve" text-anchor="middle" x="589.62" y="-142.57" font-family="Helvetica,sans-Serif" font-size="14.00" fill="#333333">Analisador Semântico</text>
</g>
<!-- ArS1&#45;&gt;ASe -->
<g id="edge5" class="edge">
<title>ArS1&#45;&gt;ASe</title>
<path fill="none" stroke="#333333" d="M597,-194.62C599.32,-187.44 599.7,-182.12 598.14,-174.73"/>
<polygon fill="#333333" stroke="#333333" points="600.51,-174.11 596.34,-167.98 595.78,-175.38 600.51,-174.11"/>
</g>
<!-- ArS2 -->
<g id="node8" class="node">
<title>ArS2</title>
<path fill="none" stroke="#8a6cff" stroke-width="1.5" d="M639.25,-101C639.25,-101 540,-101 540,-101 534,-101 528,-95 528,-89 528,-89 528,-77 528,-77 528,-71 534,-65 540,-65 540,-65 639.25,-65 639.25,-65 645.25,-65 651.25,-71 651.25,-77 651.25,-77 651.25,-89 651.25,-89 651.25,-95 645.25,-101 639.25,-101"/>
<text xml:space="preserve" text-anchor="middle" x="589.62" y="-77.58" font-family="Helvetica,sans-Serif" font-size="14.00" fill="#333333">Árvore de Sintaxe</text>
</g>
<!-- ASe&#45;&gt;ArS2 -->
<g id="edge6" class="edge">
<title>ASe&#45;&gt;ArS2</title>
<path fill="none" stroke="#333333" d="M596.62,-129.67C599.29,-121.61 600.02,-116.14 598.8,-109.49"/>
<polygon fill="#333333" stroke="#333333" points="601.27,-109.24 597.11,-103.1 596.54,-110.49 601.27,-109.24"/>
</g>
<!-- GCI -->
<g id="node9" class="node">
<title>GCI</title>
<path fill="none" stroke="#8a6cff" stroke-width="1.5" d="M604.62,-36C604.62,-36 574.62,-36 574.62,-36 568.62,-36 562.62,-30 562.62,-24 562.62,-24 562.62,-12 562.62,-12 562.62,-6 568.62,0 574.62,0 574.62,0 604.62,0 604.62,0 610.62,0 616.62,-6 616.62,-12 616.62,-12 616.62,-24 616.62,-24 616.62,-30 610.62,-36 604.62,-36"/>
<text xml:space="preserve" text-anchor="middle" x="589.62" y="-12.57" font-family="Helvetica,sans-Serif" font-size="14.00" fill="#333333">IR</text>
</g>
<!-- ArS2&#45;&gt;GCI -->
<g id="edge7" class="edge">
<title>ArS2&#45;&gt;GCI</title>
<path fill="none" stroke="#333333" d="M596,-64.3C598.55,-56.03 599.52,-50.48 598.9,-44.77"/>
<polygon fill="#333333" stroke="#333333" points="601.32,-44.39 597.41,-38.09 596.54,-45.45 601.32,-44.39"/>
</g>
</g>
</svg>