<svg width="222pt" height="323pt"
 viewBox="0.00 0.00 222.00 323.00" xmlns="http://www.w3.org/2000/svg" xmlns:xlink="http://www.w3.org/1999/xlink">
<g id="graph0" class="graph" transform="scale(1 1) rotate(0) translate(4 319)">
<title>Flowchart</title>
<polygon fill="white" stroke="none" points="-4,4 -4,-319 218.05,-319 218.05,4 -4,4"/>
<!-- Inicio -->
<g id="node1" class="node">
<title>Inicio</title>
<ellipse fill="#e1f5fe" stroke="#333333" cx="77.05" cy="-297" rx="28.3" ry="18"/>
<text xml:space="preserve" text-anchor="middle" x="77.05" y="-292.73" font-family="Arial" font-size="12.00">Início</text>
</g>
<!-- ReadAB -->
<g id="node3" class="node">
<title>ReadAB</title>
<path fill="#f9f9f9" stroke="#333333" d="M100.42,-248C100.42,-248 53.67,-248 53.67,-248 47.67,-248 41.67,-242 41.67,-236 41.67,-236 41.67,-224 41.67,-224 41.67,-218 47.67,-212 53.67,-212 53.67,-212 100.42,-212 100.42,-212 106.42,-212 112.42,-218 112.42,-224 112.42,-224 112.42,-236 112.42,-236 112.42,-242 106.42,-248 100.42,-248"/>
<text xml:space="preserve" text-anchor="middle" x="77.05" y="-225.72" font-family="Arial" font-size="12.00">Leia A e B</text>
</g>
<!-- Inicio&#45;&gt;ReadAB -->
<g id="edge1" class="edge">
<title>Inicio&#45;&gt;ReadAB</title>
<path fill="none" stroke="#333333" stroke-width="1.2" d="M77.05,-278.58C77.05,-272.9 77.05,-266.42 77.05,-260.12"/>
<polygon fill="#333333" stroke="#333333" stroke-width="1.2" points="80.55,-260.28 77.05,-250.28 73.55,-260.28 80.55,-260.28"/>
</g>
<!-- Fim -->
<g id="node2" class="node">
<title>Fim</title>
<ellipse fill="#e1f5fe" stroke="#333333" cx="187.05" cy="-85" rx="27" ry="18"/>
<text xml:space="preserve" text-anchor="middle" x="187.05" y="-80.72" font-family="Arial" font-size="12.00">Fim</text>
</g>
<!-- Condicao -->
<g id="node4" class="node">
<title>Condicao</title>
<polygon fill="#fff9c4" stroke="#333333" points="77.05,-181 30.95,-163 77.05,-145 123.15,-163 77.05,-181"/>
<text xml:space="preserve" text-anchor="middle" x="77.05" y="-158.72" font-family="Arial" font-size="12.00">A &lt; B?</text>
</g>
<!-- ReadAB&#45;&gt;Condicao -->
<g id="edge2" class="edge">
<title>ReadAB&#45;&gt;Condicao</title>
<path fill="none" stroke="#333333" stroke-width="1.2" d="M77.05,-211.58C77.05,-205.9 77.05,-199.42 77.05,-193.12"/>
<polygon fill="#333333" stroke="#333333" stroke-width="1.2" points="80.55,-193.28 77.05,-183.28 73.55,-193.28 80.55,-193.28"/>
</g>
<!-- Condicao&#45;&gt;Fim -->
<g id="edge6" class="edge">
<title>Condicao&#45;&gt;Fim</title>
<path fill="none" stroke="#333333" stroke-width="1.2" d="M92.81,-151.11C110.07,-139.19 138.07,-119.84 159.08,-105.32"/>
<polygon fill="#333333" stroke="#333333" stroke-width="1.2" points="161.02,-108.24 167.26,-99.67 157.04,-102.48 161.02,-108.24"/>
<text xml:space="preserve" text-anchor="middle" x="147.64" y="-120.5" font-family="Arial" font-size="10.00">Não</text>
</g>
<!-- SomaA -->
<g id="node5" class="node">
<title>SomaA</title>
<path fill="#f9f9f9" stroke="#333333" d="M112.42,-103C112.42,-103 41.67,-103 41.67,-103 35.67,-103 29.67,-97 29.67,-91 29.67,-91 29.67,-79 29.67,-79 29.67,-73 35.67,-67 41.67,-67 41.67,-67 112.42,-67 112.42,-67 118.42,-67 124.42,-73 124.42,-79 124.42,-79 124.42,-91 124.42,-91 124.42,-97 118.42,-103 112.42,-103"/>
<text xml:space="preserve" text-anchor="middle" x="77.05" y="-80.72" font-family="Arial" font-size="12.00">Some +1 em A</text>
</g>
<!-- Condicao&#45;&gt;SomaA -->
<g id="edge3" class="edge">
<title>Condicao&#45;&gt;SomaA</title>
<path fill="none" stroke="#333333" stroke-width="1.2" d="M77.05,-144.75C77.05,-135.97 77.05,-125.06 77.05,-115.03"/>
<polygon fill="#333333" stroke="#333333" stroke-width="1.2" points="80.55,-115.26 77.05,-105.26 73.55,-115.26 80.55,-115.26"/>
<text xml:space="preserve" text-anchor="middle" x="85.67" y="-120.5" font-family="Arial" font-size="10.00">Sim</text>
</g>
<!-- PrintA -->
<g id="node6" class="node">
<title>PrintA</title>
<path fill="#f9f9f9" stroke="#333333" d="M63.05,-36C63.05,-36 17.05,-36 17.05,-36 11.05,-36 5.05,-30 5.05,-24 5.05,-24 5.05,-12 5.05,-12 5.05,-6 11.05,0 17.05,0 17.05,0 63.05,0 63.05,0 69.05,0 75.05,-6 75.05,-12 75.05,-12 75.05,-24 75.05,-24 75.05,-30 69.05,-36 63.05,-36"/>
<text xml:space="preserve" text-anchor="middle" x="40.05" y="-13.72" font-family="Arial" font-size="12.00">Imprima A</text>
</g>
<!-- SomaA&#45;&gt;PrintA -->
<g id="edge4" class="edge">
<title>SomaA&#45;&gt;PrintA</title>
<path fill="none" stroke="#333333" stroke-width="1.2" d="M67.13,-66.58C63.65,-60.46 59.64,-53.42 55.8,-46.67"/>
<polygon fill="#333333" stroke="#333333" stroke-width="1.2" points="58.88,-45 50.89,-38.05 52.8,-48.47 58.88,-45"/>
</g>
<!-- PrintA&#45;&gt;Condicao -->
<g id="edge5" class="edge">
<title>PrintA:w&#45;&gt;Condicao:w</title>
<path fill="none" stroke="#333333" stroke-width="1.2" d="M4.05,-18C-0.32,-18 -5.71,-133.02 18.66,-158.18"/>
<polygon fill="#333333" stroke="#333333" stroke-width="1.2" points="16.85,-161.19 27.4,-162.23 19.8,-154.85 16.85,-161.19"/>
<text xml:space="preserve" text-anchor="middle" x="3.65" y="-81.5" font-family="Arial" font-size="10.00"> </text>
</g>
</g>
</svg>