<svg width="274pt" height="245pt"
 viewBox="0.00 0.00 274.00 245.00" xmlns="http://www.w3.org/2000/svg" xmlns:xlink="http://www.w3.org/1999/xlink">
<g id="graph0" class="graph" transform="scale(1 1) rotate(0) translate(4 241)">
<title>CompilerPipeline</title>
<g id="clust1" class="cluster">
<title>cluster_frontends</title>
<path fill="#f5f5e8" stroke="#d6d6a5" d="M20,-8C20,-8 66,-8 66,-8 72,-8 78,-14 78,-20 78,-20 78,-217 78,-217 78,-223 72,-229 66,-229 66,-229 20,-229 20,-229 14,-229 8,-223 8,-217 8,-217 8,-20 8,-20 8,-14 14,-8 20,-8"/>
<text xml:space="preserve" text-anchor="middle" x="43" y="-211.7" font-family="Times,serif" font-size="14.00">Frontends</text>
</g>
<g id="clust2" class="cluster">
<title>cluster_backends</title>
<path fill="#f5f5e8" stroke="#d6d6a5" d="M200,-8C200,-8 246,-8 246,-8 252,-8 258,-14 258,-20 258,-20 258,-217 258,-217 258,-223 252,-229 246,-229 246,-229 200,-229 200,-229 194,-229 188,-223 188,-217 188,-217 188,-20 188,-20 188,-14 194,-8 200,-8"/>
<text xml:space="preserve" text-anchor="middle" x="223" y="-211.7" font-family="Times,serif" font-size="14.00">Backends</text>
</g>
<!-- c -->
<g id="node1" class="node">
<title>c</title>
<path fill="none" stroke="black" stroke-dasharray="5,2" d="M58,-52C58,-52 28,-52 28,-52 22,-52 16,-46 16,-40 16,-40 16,-28 16,-28 16,-22 22,-16 28,-16 28,-16 58,-16 58,-16 64,-16 70,-22 70,-28 70,-28 70,-40 70,-40 70,-46 64,-52 58,-52"/>
<text xml:space="preserve" text-anchor="middle" x="43" y="-30.5" font-family="Helvetica,sans-Serif" font-size="10.00">C</text>
</g>
<!-- ir -->
<g id="node4" class="node">
<title>ir</title>
<path fill="none" stroke="#7a5cff" stroke-width="2" d="M148,-124C148,-124 118,-124 118,-124 112,-124 106,-118 106,-112 106,-112 106,-100 106,-100 106,-94 112,-88 118,-88 118,-88 148,-88 148,-88 154,-88 160,-94 160,-100 160,-100 160,-112 160,-112 160,-118 154,-124 148,-124"/>
<text xml:space="preserve" text-anchor="middle" x="133" y="-102.5" font-family="Helvetica,sans-Serif" font-size="10.00">IR</text>
</g>
<!-- c&#45;&gt;ir -->
<g id="edge1" class="edge">
<title>c&#45;&gt;ir</title>
<path fill="none" stroke="#333333" d="M69.78,-52.29C77.87,-58.41 87.01,-66.07 102.95,-79.85"/>
<polygon fill="#333333" stroke="#333333" points="100.35,-82.24 110.2,-86.15 104.94,-76.95 100.35,-82.24"/>
</g>
<!-- java -->
<g id="node2" class="node">
<title>java</title>
<path fill="none" stroke="black" stroke-dasharray="5,2" d="M58,-124C58,-124 28,-124 28,-124 22,-124 16,-118 16,-112 16,-112 16,-100 16,-100 16,-94 22,-88 28,-88 28,-88 58,-88 58,-88 64,-88 70,-94 70,-100 70,-100 70,-112 70,-112 70,-118 64,-124 58,-124"/>
<text xml:space="preserve" text-anchor="middle" x="43" y="-102.5" font-family="Helvetica,sans-Serif" font-size="10.00">Java</text>
</g>
<!-- java&#45;&gt;ir -->
<g id="edge2" class="edge">
<title>java&#45;&gt;ir</title>
<path fill="none" stroke="#333333" d="M70.47,-102.46C76.5,-102.26 83.49,-102.48 93.71,-103.11"/>
<polygon fill="#333333" stroke="#333333" points="93.37,-106.6 103.59,-103.78 93.85,-99.61 93.37,-106.6"/>
</g>
<!-- python -->
<g id="node3" class="node">
<title>python</title>
<path fill="none" stroke="black" stroke-dasharray="5,2" d="M58,-196C58,-196 28,-196 28,-196 22,-196 16,-190 16,-184 16,-184 16,-172 16,-172 16,-166 22,-160 28,-160 28,-160 58,-160 58,-160 64,-160 70,-166 70,-172 70,-172 70,-184 70,-184 70,-190 64,-196 58,-196"/>
<text xml:space="preserve" text-anchor="middle" x="43" y="-174.5" font-family="Helvetica,sans-Serif" font-size="10.00">Python</text>
</g>
<!-- python&#45;&gt;ir -->
<g id="edge3" class="edge">
<title>python&#45;&gt;ir</title>
<path fill="none" stroke="#333333" d="M61.16,-159.87C69.53,-152.13 78.52,-145.14 97.27,-131.58"/>
<polygon fill="#333333" stroke="#333333" points="99.3,-134.43 105.37,-125.75 95.21,-128.75 99.3,-134.43"/>
</g>
<!-- x86 -->
<g id="node5" class="node">
<title>x86</title>
<path fill="none" stroke="black" stroke-dasharray="5,2" d="M238,-52C238,-52 208,-52 208,-52 202,-52 196,-46 196,-40 196,-40 196,-28 196,-28 196,-22 202,-16 208,-16 208,-16 238,-16 238,-16 244,-16 250,-22 250,-28 250,-28 250,-40 250,-40 250,-46 244,-52 238,-52"/>
<text xml:space="preserve" text-anchor="middle" x="223" y="-30.5" font-family="Helvetica,sans-Serif" font-size="10.00">x86</text>
</g>
<!-- ir&#45;&gt;x86 -->
<g id="edge4" class="edge">
<title>ir&#45;&gt;x86</title>
<path fill="none" stroke="#333333" d="M154.72,-87.09C169.69,-74.07 179.49,-65.66 187.26,-59.34"/>
<polygon fill="#333333" stroke="#333333" points="189.37,-62.14 195.07,-53.2 185.04,-56.63 189.37,-62.14"/>
</g>
<!-- arm -->
<g id="node6" class="node">
<title>arm</title>
<path fill="none" stroke="black" stroke-dasharray="5,2" d="M238,-124C238,-124 208,-124 208,-124 202,-124 196,-118 196,-112 196,-112 196,-100 196,-100 196,-94 202,-88 208,-88 208,-88 238,-88 238,-88 244,-88 250,-94 250,-100 250,-100 250,-112 250,-112 250,-118 244,-124 238,-124"/>
<text xml:space="preserve" text-anchor="middle" x="223" y="-102.5" font-family="Helvetica,sans-Serif" font-size="10.00">ARM</text>
</g>
<!-- ir&#45;&gt;arm -->
<g id="edge5" class="edge">
<title>ir&#45;&gt;arm</title>
<path fill="none" stroke="#333333" d="M160.84,-103.89C171.01,-103.15 178.6,-102.69 184.78,-102.49"/>
<polygon fill="#333333" stroke="#333333" points="184.37,-105.99 194.36,-102.47 184.36,-98.99 184.37,-105.99"/>
</g>
<!-- mips -->
<g id="node7" class="node">
<title>mips</title>
<path fill="none" stroke="black" stroke-dasharray="5,2" d="M238,-196C238,-196 208,-196 208,-196 202,-196 196,-190 196,-184 196,-184 196,-172 196,-172 196,-166 202,-160 208,-160 208,-160 238,-160 238,-160 244,-160 250,-166 250,-172 250,-172 250,-184 250,-184 250,-190 244,-196 238,-196"/>
<text xml:space="preserve" text-anchor="middle" x="223" y="-174.5" font-family="Helvetica,sans-Serif" font-size="10.00">MIPS</text>
</g>
<!-- ir&#45;&gt;mips -->
<g id="edge6" class="edge">
<title>ir&#45;&gt;mips</title>
<path fill="none" stroke="#333333" d="M159.5,-124.93C177.49,-137.84 187.97,-145.57 196,-152.17"/>
<polygon fill="#333333" stroke="#333333" points="193.62,-154.74 203.46,-158.65 198.21,-149.45 193.62,-154.74"/>
</g>
</g>
</svg>