<svg width="298pt" height="434pt"
 viewBox="0.00 0.00 298.00 434.00" xmlns="http://www.w3.org/2000/svg" xmlns:xlink="http://www.w3.org/1999/xlink">
<g id="graph0" class="graph" transform="scale(1 1) rotate(0) translate(4 430)">
<title>VerticalBackend</title>
<!-- TS -->
<g id="node1" class="node">
<title>TS</title>
<path fill="none" stroke="#8a6cff" stroke-width="1.5" d="M123.25,-426C123.25,-426 12,-426 12,-426 6,-426 0,-420 0,-414 0,-414 0,-402 0,-402 0,-396 6,-390 12,-390 12,-390 123.25,-390 123.25,-390 129.25,-390 135.25,-396 135.25,-402 135.25,-402 135.25,-414 135.25,-414 135.25,-420 129.25,-426 123.25,-426"/>
<text xml:space="preserve" text-anchor="middle" x="67.62" y="-402.57" font-family="Helvetica,sans-Serif" font-size="14.00" fill="#333333">Tabela de Símbolos</text>
</g>
<!-- RI1 -->
<g id="node2" class="node">
<title>RI1</title>
<path fill="none" stroke="#8a6cff" stroke-width="1.5" d="M248.38,-426C248.38,-426 182.88,-426 182.88,-426 176.88,-426 170.88,-420 170.88,-414 170.88,-414 170.88,-402 170.88,-402 170.88,-396 176.88,-390 182.88,-390 182.88,-390 248.38,-390 248.38,-390 254.38,-390 260.38,-396 260.38,-402 260.38,-402 260.38,-414 260.38,-414 260.38,-420 254.38,-426 248.38,-426"/>
<text xml:space="preserve" text-anchor="middle" x="215.62" y="-402.57" font-family="Helvetica,sans-Serif" font-size="14.00" fill="#333333">IR (Entrada)</text>
</g>
<!-- OIM -->
<g id="node3" class="node">
<title>OIM</title>
<path fill="none" stroke="#8a6cff" stroke-width="1.5" d="M263.75,-361C263.75,-361 167.5,-361 167.5,-361 161.5,-361 155.5,-355 155.5,-349 155.5,-349 155.5,-337 155.5,-337 155.5,-331 161.5,-325 167.5,-325 167.5,-325 263.75,-325 263.75,-325 269.75,-325 275.75,-331 275.75,-337 275.75,-337 275.75,-349 275.75,-349 275.75,-355 269.75,-361 263.75,-361"/>
<text xml:space="preserve" text-anchor="middle" x="215.62" y="-337.57" font-family="Helvetica,sans-Serif" font-size="14.00" fill="#333333">Otimizador Geral</text>
</g>
<!-- RI1&#45;&gt;OIM -->
<g id="edge1" class="edge">
<title>RI1&#45;&gt;OIM</title>
<path fill="none" stroke="#333333" stroke-width="1.2" d="M215.62,-389.45C215.62,-383.44 215.62,-376.59 215.62,-370.05"/>
<polygon fill="#333333" stroke="#333333" stroke-width="1.2" points="218.08,-370.27 215.63,-363.27 213.18,-370.27 218.08,-370.27"/>
</g>
<!-- RI2 -->
<g id="node4" class="node">
<title>RI2</title>
<path fill="none" stroke="#8a6cff" stroke-width="1.5" d="M255.88,-296C255.88,-296 175.38,-296 175.38,-296 169.38,-296 163.38,-290 163.38,-284 163.38,-284 163.38,-272 163.38,-272 163.38,-266 169.38,-260 175.38,-260 175.38,-260 255.88,-260 255.88,-260 261.88,-260 267.88,-266 267.88,-272 267.88,-272 267.88,-284 267.88,-284 267.88,-290 261.88,-296 255.88,-296"/>
<text xml:space="preserve" text-anchor="middle" x="215.62" y="-272.57" font-family="Helvetica,sans-Serif" font-size="14.00" fill="#333333">IR (Otimizada)</text>
</g>
<!-- OIM&#45;&gt;RI2 -->
<g id="edge2" class="edge">
<title>OIM&#45;&gt;RI2</title>
<path fill="none" stroke="#333333" stroke-width="1.2" d="M215.62,-324.45C215.62,-318.44 215.62,-311.59 215.62,-305.05"/>
<polygon fill="#333333" stroke="#333333" stroke-width="1.2" points="218.08,-305.27 215.63,-298.27 213.18,-305.27 218.08,-305.27"/>
</g>
<!-- GC -->
<g id="node5" class="node">
<title>GC</title>
<path fill="none" stroke="#8a6cff" stroke-width="1.5" d="M269.38,-231C269.38,-231 161.88,-231 161.88,-231 155.88,-231 149.88,-225 149.88,-219 149.88,-219 149.88,-207 149.88,-207 149.88,-201 155.88,-195 161.88,-195 161.88,-195 269.38,-195 269.38,-195 275.38,-195 281.38,-201 281.38,-207 281.38,-207 281.38,-219 281.38,-219 281.38,-225 275.38,-231 269.38,-231"/>
<text xml:space="preserve" text-anchor="middle" x="215.62" y="-207.57" font-family="Helvetica,sans-Serif" font-size="14.00" fill="#333333">Gerador de Código</text>
</g>
<!-- RI2&#45;&gt;GC -->
<g id="edge3" class="edge">
<title>RI2&#45;&gt;GC</title>
<path fill="none" stroke="#333333" stroke-width="1.2" d="M215.62,-259.45C215.62,-253.44 215.62,-246.59 215.62,-240.05"/>
<polygon fill="#333333" stroke="#333333" stroke-width="1.2" points="218.08,-240.27 215.63,-233.27 213.18,-240.27 218.08,-240.27"/>
</g>
<!-- CMA1 -->
<g id="node6" class="node">
<title>CMA1</title>
<path fill="none" stroke="#8a6cff" stroke-width="1.5" d="M275.75,-166C275.75,-166 155.5,-166 155.5,-166 149.5,-166 143.5,-160 143.5,-154 143.5,-154 143.5,-142 143.5,-142 143.5,-136 149.5,-130 155.5,-130 155.5,-130 275.75,-130 275.75,-130 281.75,-130 287.75,-136 287.75,-142 287.75,-142 287.75,-154 287.75,-154 287.75,-160 281.75,-166 275.75,-166"/>
<text xml:space="preserve" text-anchor="middle" x="215.62" y="-142.57" font-family="Helvetica,sans-Serif" font-size="14.00" fill="#333333">Código Máquina Alvo</text>
</g>
<!-- GC&#45;&gt;CMA1 -->
<g id="edge4" class="edge">
<title>GC&#45;&gt;CMA1</title>
<path fill="none" stroke="#333333" stroke-width="1.2" d="M215.62,-194.45C215.62,-188.44 215.62,-181.59 215.62,-175.05"/>
<polygon fill="#333333" stroke="#333333" stroke-width="1.2" points="218.08,-175.27 215.63,-168.27 213.18,-175.27 218.08,-175.27"/>
</g>
<!-- ODM -->
<g id="node7" class="node">
<title>ODM</title>
<path fill="none" stroke="#8a6cff" stroke-width="1.5" d="M278,-101C278,-101 153.25,-101 153.25,-101 147.25,-101 141.25,-95 141.25,-89 141.25,-89 141.25,-77 141.25,-77 141.25,-71 147.25,-65 153.25,-65 153.25,-65 278,-65 278,-65 284,-65 290,-71 290,-77 290,-77 290,-89 290,-89 290,-95 284,-101 278,-101"/>
<text xml:space="preserve" text-anchor="middle" x="215.62" y="-77.58" font-family="Helvetica,sans-Serif" font-size="14.00" fill="#333333">Otimizador Específico</text>
</g>
<!-- CMA1&#45;&gt;ODM -->
<g id="edge5" class="edge">
<title>CMA1&#45;&gt;ODM</title>
<path fill="none" stroke="#333333" stroke-width="1.2" d="M215.62,-129.45C215.62,-123.44 215.62,-116.59 215.62,-110.05"/>
<polygon fill="#333333" stroke="#333333" stroke-width="1.2" points="218.08,-110.27 215.63,-103.27 213.18,-110.27 218.08,-110.27"/>
</g>
<!-- CMA2 -->
<g id="node8" class="node">
<title>CMA2</title>
<path fill="none" stroke="#8a6cff" stroke-width="1.5" d="M249.5,-36C249.5,-36 181.75,-36 181.75,-36 175.75,-36 169.75,-30 169.75,-24 169.75,-24 169.75,-12 169.75,-12 169.75,-6 175.75,0 181.75,0 181.75,0 249.5,0 249.5,0 255.5,0 261.5,-6 261.5,-12 261.5,-12 261.5,-24 261.5,-24 261.5,-30 255.5,-36 249.5,-36"/>
<text xml:space="preserve" text-anchor="middle" x="215.62" y="-12.57" font-family="Helvetica,sans-Serif" font-size="14.00" fill="#333333">Código Final</text>
</g>
<!-- ODM&#45;&gt;CMA2 -->
<g id="edge6" class="edge">
<title>ODM&#45;&gt;CMA2</title>
<path fill="none" stroke="#333333" stroke-width="1.2" d="M215.62,-64.45C215.62,-58.44 215.62,-51.59 215.62,-45.05"/>
<polygon fill="#333333" stroke="#333333" stroke-width="1.2" points="218.08,-45.27 215.63,-38.27 213.18,-45.27 218.08,-45.27"/>
</g>
</g>
</svg>