<svg width="317pt" height="367pt"
 viewBox="0.00 0.00 317.00 367.00" xmlns="http://www.w3.org/2000/svg" xmlns:xlink="http://www.w3.org/1999/xlink">
<g id="graph0" class="graph" transform="scale(1 1) rotate(0) translate(4 363)">
<title>Flow</title>
<polygon fill="white" stroke="none" points="-4,4 -4,-363 312.5,-363 312.5,4 -4,4"/>
<!-- Start -->
<g id="node1" class="node">
<title>Start</title>
<path fill="none" stroke="black" d="M140.5,-359C140.5,-359 64.5,-359 64.5,-359 58.5,-359 52.5,-353 52.5,-347 52.5,-347 52.5,-335 52.5,-335 52.5,-329 58.5,-323 64.5,-323 64.5,-323 140.5,-323 140.5,-323 146.5,-323 152.5,-329 152.5,-335 152.5,-335 152.5,-347 152.5,-347 152.5,-353 146.5,-359 140.5,-359"/>
<text xml:space="preserve" text-anchor="middle" x="102.5" y="-335.57" font-family="Arial" font-size="14.00">Início do Laço</text>
</g>
<!-- Cond -->
<g id="node2" class="node">
<title>Cond</title>
<path fill="none" stroke="black" d="M90.83,-283.23C90.83,-283.23 38.43,-270.77 38.43,-270.77 32.59,-269.39 32.59,-266.61 38.43,-265.23 38.43,-265.23 90.83,-252.77 90.83,-252.77 96.66,-251.39 108.34,-251.39 114.17,-252.77 114.17,-252.77 166.57,-265.23 166.57,-265.23 172.41,-266.61 172.41,-269.39 166.57,-270.77 166.57,-270.77 114.17,-283.23 114.17,-283.23 108.34,-284.61 96.66,-284.61 90.83,-283.23"/>
<text xml:space="preserve" text-anchor="middle" x="102.5" y="-262.57" font-family="Arial" font-size="14.00">Condição?</text>
</g>
<!-- Start&#45;&gt;Cond -->
<g id="edge1" class="edge">
<title>Start&#45;&gt;Cond</title>
<path fill="none" stroke="black" d="M102.5,-322.81C102.5,-315.23 102.5,-306.1 102.5,-297.54"/>
<polygon fill="black" stroke="black" points="106,-297.54 102.5,-287.54 99,-297.54 106,-297.54"/>
</g>
<!-- Cmd1 -->
<g id="node3" class="node">
<title>Cmd1</title>
<path fill="none" stroke="black" d="M234.75,-197.5C234.75,-197.5 172.25,-197.5 172.25,-197.5 166.25,-197.5 160.25,-191.5 160.25,-185.5 160.25,-185.5 160.25,-173.5 160.25,-173.5 160.25,-167.5 166.25,-161.5 172.25,-161.5 172.25,-161.5 234.75,-161.5 234.75,-161.5 240.75,-161.5 246.75,-167.5 246.75,-173.5 246.75,-173.5 246.75,-185.5 246.75,-185.5 246.75,-191.5 240.75,-197.5 234.75,-197.5"/>
<text xml:space="preserve" text-anchor="middle" x="203.5" y="-174.07" font-family="Arial" font-size="14.00">Comando 1</text>
</g>
<!-- Cond&#45;&gt;Cmd1 -->
<g id="edge2" class="edge">
<title>Cond&#45;&gt;Cmd1</title>
<path fill="none" stroke="black" d="M118.28,-253.48C133.35,-240.58 156.41,-220.83 174.74,-205.13"/>
<polygon fill="black" stroke="black" points="176.84,-207.94 182.15,-198.78 172.28,-202.63 176.84,-207.94"/>
<text xml:space="preserve" text-anchor="middle" x="173.3" y="-218.7" font-family="Times,serif" font-size="14.00">Sim</text>
</g>
<!-- End -->
<g id="node7" class="node">
<title>End</title>
<path fill="none" stroke="black" d="M79,-36C79,-36 12,-36 12,-36 6,-36 0,-30 0,-24 0,-24 0,-12 0,-12 0,-6 6,0 12,0 12,0 79,0 79,0 85,0 91,-6 91,-12 91,-12 91,-24 91,-24 91,-30 85,-36 79,-36"/>
<text xml:space="preserve" text-anchor="middle" x="45.5" y="-12.57" font-family="Arial" font-size="14.00">Fim do Laço</text>
</g>
<!-- Cond&#45;&gt;End -->
<g id="edge9" class="edge">
<title>Cond&#45;&gt;End</title>
<path fill="none" stroke="black" d="M96.15,-251.17C85.19,-223.06 62.88,-162.38 52.5,-109 48.56,-88.75 46.82,-65.53 46.06,-47.75"/>
<polygon fill="black" stroke="black" points="49.57,-47.8 45.73,-37.92 42.57,-48.04 49.57,-47.8"/>
<text xml:space="preserve" text-anchor="middle" x="71.58" y="-130.2" font-family="Times,serif" font-size="14.00">Não</text>
</g>
<!-- Break -->
<g id="node4" class="node">
<title>Break</title>
<path fill="none" stroke="black" d="M296.5,-109C296.5,-109 266.5,-109 266.5,-109 260.5,-109 254.5,-103 254.5,-97 254.5,-97 254.5,-85 254.5,-85 254.5,-79 260.5,-73 266.5,-73 266.5,-73 296.5,-73 296.5,-73 302.5,-73 308.5,-79 308.5,-85 308.5,-85 308.5,-97 308.5,-97 308.5,-103 302.5,-109 296.5,-109"/>
<text xml:space="preserve" text-anchor="middle" x="281.5" y="-85.58" font-family="Arial" font-size="14.00">break;</text>
</g>
<!-- Cmd1&#45;&gt;Break -->
<g id="edge3" class="edge">
<title>Cmd1&#45;&gt;Break</title>
<path fill="none" stroke="black" d="M218.91,-161.41C230.16,-148.93 245.61,-131.8 258.34,-117.68"/>
<polygon fill="black" stroke="black" points="260.74,-120.24 264.84,-110.47 255.55,-115.56 260.74,-120.24"/>
<text xml:space="preserve" text-anchor="middle" x="268.99" y="-130.2" font-family="Times,serif" font-size="14.00">Se erro</text>
</g>
<!-- Cont -->
<g id="node5" class="node">
<title>Cont</title>
<path fill="none" stroke="black" d="M119.88,-109C119.88,-109 73.12,-109 73.12,-109 67.12,-109 61.12,-103 61.12,-97 61.12,-97 61.12,-85 61.12,-85 61.12,-79 67.12,-73 73.12,-73 73.12,-73 119.88,-73 119.88,-73 125.88,-73 131.88,-79 131.88,-85 131.88,-85 131.88,-97 131.88,-97 131.88,-103 125.88,-109 119.88,-109"/>
<text xml:space="preserve" text-anchor="middle" x="96.5" y="-85.58" font-family="Arial" font-size="14.00">continue;</text>
</g>
<!-- Cmd1&#45;&gt;Cont -->
<g id="edge5" class="edge">
<title>Cmd1&#45;&gt;Cont</title>
<path fill="none" stroke="black" d="M175.93,-161.13C167.86,-155.74 159.16,-149.6 151.5,-143.5 141.42,-135.47 130.95,-126 121.89,-117.38"/>
<polygon fill="black" stroke="black" points="124.4,-114.93 114.78,-110.5 119.53,-119.97 124.4,-114.93"/>
<text xml:space="preserve" text-anchor="middle" x="174" y="-130.2" font-family="Times,serif" font-size="14.00">Se pular</text>
</g>
<!-- Cmd2 -->
<g id="node6" class="node">
<title>Cmd2</title>
<path fill="none" stroke="black" d="M224.75,-109C224.75,-109 162.25,-109 162.25,-109 156.25,-109 150.25,-103 150.25,-97 150.25,-97 150.25,-85 150.25,-85 150.25,-79 156.25,-73 162.25,-73 162.25,-73 224.75,-73 224.75,-73 230.75,-73 236.75,-79 236.75,-85 236.75,-85 236.75,-97 236.75,-97 236.75,-103 230.75,-109 224.75,-109"/>
<text xml:space="preserve" text-anchor="middle" x="193.5" y="-85.58" font-family="Arial" font-size="14.00">Comando 2</text>
</g>
<!-- Cmd1&#45;&gt;Cmd2 -->
<g id="edge7" class="edge">
<title>Cmd1&#45;&gt;Cmd2</title>
<path fill="none" stroke="black" d="M203.1,-161.28C202.71,-151.25 201.96,-138.37 200.5,-127 200.23,-124.92 199.91,-122.79 199.56,-120.64"/>
<polygon fill="black" stroke="black" points="203.01,-120.05 197.75,-110.86 196.13,-121.33 203.01,-120.05"/>
</g>
<!-- Break&#45;&gt;End -->
<g id="edge4" class="edge">
<title>Break&#45;&gt;End</title>
<path fill="none" stroke="black" d="M254.2,-76.49C251.29,-75.24 248.35,-74.05 245.5,-73 198.29,-55.64 142.98,-41.13 102.5,-31.54"/>
<polygon fill="black" stroke="black" points="103.5,-28.18 92.97,-29.31 101.91,-35 103.5,-28.18"/>
</g>
<!-- Cont&#45;&gt;Cond -->
<g id="edge6" class="edge">
<title>Cont&#45;&gt;Cond</title>
<path fill="none" stroke="black" d="M97.1,-109.43C98.13,-139.64 100.27,-202.02 101.53,-238.58"/>
<polygon fill="black" stroke="black" points="98.02,-238.51 101.86,-248.39 105.02,-238.27 98.02,-238.51"/>
</g>
<!-- Cmd2&#45;&gt;Cond -->
<g id="edge8" class="edge">
<title>Cmd2&#45;&gt;Cond</title>
<path fill="none" stroke="black" d="M154.71,-109.45C147.44,-114.23 140.56,-120.06 135.5,-127 122.65,-144.63 111.97,-203.43 106.48,-238.97"/>
<polygon fill="black" stroke="black" points="103.07,-238.14 105.05,-248.54 109.99,-239.17 103.07,-238.14"/>
</g>
</g>
</svg>