<svg width="293pt" height="351pt"
 viewBox="0.00 0.00 293.00 351.00" xmlns="http://www.w3.org/2000/svg" xmlns:xlink="http://www.w3.org/1999/xlink">
<g id="graph0" class="graph" transform="scale(1 1) rotate(0) translate(4 346.5)">
<title>G</title>
<polygon fill="white" stroke="none" points="-4,4 -4,-346.5 289.25,-346.5 289.25,4 -4,4"/>
<!-- memoria -->
<g id="node1" class="node">
<title>memoria</title>
<polygon fill="#cccccc" stroke="none" points="8,-308 8,-338.5 202.25,-338.5 202.25,-308 8,-308"/>
<polygon fill="none" stroke="black" points="8,-308 8,-338.5 202.25,-338.5 202.25,-308 8,-308"/>
<text xml:space="preserve" text-anchor="start" x="77.75" y="-319.2" font-family="Times,serif" font-weight="bold" font-size="14.00">Memória</text>
<polygon fill="#eeeeee" stroke="none" points="8,-277.5 8,-308 42.25,-308 42.25,-277.5 8,-277.5"/>
<polygon fill="none" stroke="black" points="8,-277.5 8,-308 42.25,-308 42.25,-277.5 8,-277.5"/>
<text xml:space="preserve" text-anchor="start" x="21.75" y="-288.7" font-family="Times,serif" font-weight="bold" font-size="14.00" fill="red">#</text>
<polygon fill="#eeeeee" stroke="none" points="42.25,-277.5 42.25,-308 122.25,-308 122.25,-277.5 42.25,-277.5"/>
<polygon fill="none" stroke="black" points="42.25,-277.5 42.25,-308 122.25,-308 122.25,-277.5 42.25,-277.5"/>
<text xml:space="preserve" text-anchor="start" x="72.5" y="-288.7" font-family="Times,serif" font-weight="bold" font-size="14.00" fill="red">var</text>
<polygon fill="#eeeeee" stroke="none" points="122.25,-277.5 122.25,-308 202.25,-308 202.25,-277.5 122.25,-277.5"/>
<polygon fill="none" stroke="black" points="122.25,-277.5 122.25,-308 202.25,-308 202.25,-277.5 122.25,-277.5"/>
<text xml:space="preserve" text-anchor="start" x="136" y="-288.7" font-family="Times,serif" font-weight="bold" font-size="14.00" fill="red">conteúdo</text>
<polygon fill="none" stroke="black" points="8,-247 8,-277.5 42.25,-277.5 42.25,-247 8,-247"/>
<text xml:space="preserve" text-anchor="start" x="15" y="-257.75" font-family="Times,serif" font-size="14.00">123</text>
<polygon fill="none" stroke="black" points="42.25,-247 42.25,-277.5 122.25,-277.5 122.25,-247 42.25,-247"/>
<text xml:space="preserve" text-anchor="start" x="66.88" y="-258.2" font-family="Times,serif" font-weight="bold" font-size="14.00">notas</text>
<polygon fill="#eeeeee" stroke="none" points="122.25,-247 122.25,-277.5 202.25,-277.5 202.25,-247 122.25,-247"/>
<polygon fill="none" stroke="black" points="122.25,-247 122.25,-277.5 202.25,-277.5 202.25,-247 122.25,-247"/>
<text xml:space="preserve" text-anchor="start" x="155.5" y="-257.75" font-family="Times,serif" font-size="14.00">81</text>
<polygon fill="none" stroke="black" points="8,-216.5 8,-247 42.25,-247 42.25,-216.5 8,-216.5"/>
<text xml:space="preserve" text-anchor="start" x="15" y="-227.25" font-family="Times,serif" font-size="14.00">124</text>
<polygon fill="none" stroke="black" points="42.25,-216.5 42.25,-247 122.25,-247 122.25,-216.5 42.25,-216.5"/>
<polygon fill="#eeeeee" stroke="none" points="122.25,-216.5 122.25,-247 202.25,-247 202.25,-216.5 122.25,-216.5"/>
<polygon fill="none" stroke="black" points="122.25,-216.5 122.25,-247 202.25,-247 202.25,-216.5 122.25,-216.5"/>
<text xml:space="preserve" text-anchor="start" x="155.5" y="-227.25" font-family="Times,serif" font-size="14.00">55</text>
<polygon fill="none" stroke="black" points="8,-186 8,-216.5 42.25,-216.5 42.25,-186 8,-186"/>
<text xml:space="preserve" text-anchor="start" x="15" y="-196.75" font-family="Times,serif" font-size="14.00">125</text>
<polygon fill="none" stroke="black" points="42.25,-186 42.25,-216.5 122.25,-216.5 122.25,-186 42.25,-186"/>
<polygon fill="#eeeeee" stroke="none" points="122.25,-186 122.25,-216.5 202.25,-216.5 202.25,-186 122.25,-186"/>
<polygon fill="none" stroke="black" points="122.25,-186 122.25,-216.5 202.25,-216.5 202.25,-186 122.25,-186"/>
<text xml:space="preserve" text-anchor="start" x="155.5" y="-196.75" font-family="Times,serif" font-size="14.00">63</text>
<polygon fill="none" stroke="black" points="8,-155.5 8,-186 42.25,-186 42.25,-155.5 8,-155.5"/>
<text xml:space="preserve" text-anchor="start" x="15" y="-166.25" font-family="Times,serif" font-size="14.00">126</text>
<polygon fill="none" stroke="black" points="42.25,-155.5 42.25,-186 122.25,-186 122.25,-155.5 42.25,-155.5"/>
<polygon fill="#eeeeee" stroke="none" points="122.25,-155.5 122.25,-186 202.25,-186 202.25,-155.5 122.25,-155.5"/>
<polygon fill="none" stroke="black" points="122.25,-155.5 122.25,-186 202.25,-186 202.25,-155.5 122.25,-155.5"/>
<text xml:space="preserve" text-anchor="start" x="155.5" y="-166.25" font-family="Times,serif" font-size="14.00">67</text>
<polygon fill="none" stroke="black" points="8,-125 8,-155.5 42.25,-155.5 42.25,-125 8,-125"/>
<text xml:space="preserve" text-anchor="start" x="15" y="-135.75" font-family="Times,serif" font-size="14.00">127</text>
<polygon fill="none" stroke="black" points="42.25,-125 42.25,-155.5 122.25,-155.5 122.25,-125 42.25,-125"/>
<polygon fill="#eeeeee" stroke="none" points="122.25,-125 122.25,-155.5 202.25,-155.5 202.25,-125 122.25,-125"/>
<polygon fill="none" stroke="black" points="122.25,-125 122.25,-155.5 202.25,-155.5 202.25,-125 122.25,-125"/>
<text xml:space="preserve" text-anchor="start" x="155.5" y="-135.75" font-family="Times,serif" font-size="14.00">90</text>
<polygon fill="none" stroke="black" points="8,-94.5 8,-125 42.25,-125 42.25,-94.5 8,-94.5"/>
<text xml:space="preserve" text-anchor="start" x="15" y="-105.25" font-family="Times,serif" font-size="14.00">128</text>
<polygon fill="none" stroke="black" points="42.25,-94.5 42.25,-125 122.25,-125 122.25,-94.5 42.25,-94.5"/>
<polygon fill="#eeeeee" stroke="none" points="122.25,-94.5 122.25,-125 202.25,-125 202.25,-94.5 122.25,-94.5"/>
<polygon fill="none" stroke="black" points="122.25,-94.5 122.25,-125 202.25,-125 202.25,-94.5 122.25,-94.5"/>
<text xml:space="preserve" text-anchor="start" x="156.62" y="-105.25" font-family="Times,serif" font-size="14.00">...</text>
<polygon fill="none" stroke="black" points="8,-64 8,-94.5 42.25,-94.5 42.25,-64 8,-64"/>
<text xml:space="preserve" text-anchor="start" x="15" y="-74.75" font-family="Times,serif" font-size="14.00">129</text>
<polygon fill="none" stroke="black" points="42.25,-64 42.25,-94.5 122.25,-94.5 122.25,-64 42.25,-64"/>
<polygon fill="#eeeeee" stroke="none" points="122.25,-64 122.25,-94.5 202.25,-94.5 202.25,-64 122.25,-64"/>
<polygon fill="none" stroke="black" points="122.25,-64 122.25,-94.5 202.25,-94.5 202.25,-64 122.25,-64"/>
<polygon fill="#cccccc" stroke="none" points="8,-4 8,-64 202.25,-64 202.25,-4 8,-4"/>
<polygon fill="none" stroke="black" points="8,-4 8,-64 202.25,-64 202.25,-4 8,-4"/>
<text xml:space="preserve" text-anchor="start" x="35.38" y="-28.02" font-family="Times,serif" font-size="14.00"> &#160;&#160;&#160;&#160;&#160;&#160;&#160;&#160;&#160;&#160;&#160;&#160;&#160;&#160;&#160;&#160;&#160;&#160;&#160;</text>
<text xml:space="preserve" text-anchor="start" x="110.38" y="-28.02" font-family="Times,serif" font-size="18.00">⋮</text>
<text xml:space="preserve" text-anchor="start" x="114.88" y="-28.02" font-family="Times,serif" font-size="14.00"> &#160;&#160;&#160;&#160;&#160;&#160;&#160;&#160;&#160;&#160;&#160;&#160;&#160;&#160;&#160;</text>
</g>
<!-- rotulos -->
<g id="node2" class="node">
<title>rotulos</title>
<text xml:space="preserve" text-anchor="start" x="226" y="-258.25" font-family="Times,serif" font-size="14.00">notas[0]</text>
<text xml:space="preserve" text-anchor="start" x="226" y="-227.75" font-family="Times,serif" font-size="14.00">notas[1]</text>
<text xml:space="preserve" text-anchor="start" x="226" y="-197.25" font-family="Times,serif" font-size="14.00">notas[2]</text>
<text xml:space="preserve" text-anchor="start" x="226" y="-166.75" font-family="Times,serif" font-size="14.00">notas[3]</text>
<text xml:space="preserve" text-anchor="start" x="226" y="-136.25" font-family="Times,serif" font-size="14.00">notas[4]</text>
<text xml:space="preserve" text-anchor="start" x="226" y="-105.75" font-family="Times,serif" font-size="14.00"> </text>
<text xml:space="preserve" text-anchor="start" x="226" y="-75.25" font-family="Times,serif" font-size="14.00"> </text>
</g>
</g>
</svg>