<svg width="653pt" height="133pt"
 viewBox="0.00 0.00 653.00 133.00" xmlns="http://www.w3.org/2000/svg" xmlns:xlink="http://www.w3.org/1999/xlink">
<g id="graph0" class="graph" transform="scale(1 1) rotate(0) translate(0 132.5)">
<title>LexicalAnalysis</title>
<!-- src_row -->
<g id="node1" class="node">
<title>src_row</title>
<polygon fill="none" stroke="none" points="157.62,-80.75 157.62,-118.5 232.12,-118.5 232.12,-80.75 157.62,-80.75"/>
<polygon fill="none" stroke="#7fb881" points="157.62,-80.75 157.62,-118.5 232.12,-118.5 232.12,-80.75 157.62,-80.75"/>
<text xml:space="preserve" text-anchor="start" x="168.62" y="-95.2" font-family="Arial" font-weight="bold" font-size="14.00">position</text>
<polygon fill="none" stroke="none" points="242.12,-80.75 242.12,-118.5 272.38,-118.5 272.38,-80.75 242.12,-80.75"/>
<polygon fill="none" stroke="#8f81c1" points="242.12,-80.75 242.12,-118.5 272.38,-118.5 272.38,-80.75 242.12,-80.75"/>
<text xml:space="preserve" text-anchor="start" x="253.12" y="-95.2" font-family="Arial" font-weight="bold" font-size="14.00">=</text>
<polygon fill="none" stroke="none" points="282.38,-80.75 282.38,-118.5 339.62,-118.5 339.62,-80.75 282.38,-80.75"/>
<polygon fill="none" stroke="#7fb881" points="282.38,-80.75 282.38,-118.5 339.62,-118.5 339.62,-80.75 282.38,-80.75"/>
<text xml:space="preserve" text-anchor="start" x="293.38" y="-95.2" font-family="Arial" font-weight="bold" font-size="14.00">initial</text>
<polygon fill="none" stroke="none" points="349.62,-80.75 349.62,-118.5 379.88,-118.5 379.88,-80.75 349.62,-80.75"/>
<polygon fill="none" stroke="#8f81c1" points="349.62,-80.75 349.62,-118.5 379.88,-118.5 379.88,-80.75 349.62,-80.75"/>
<text xml:space="preserve" text-anchor="start" x="360.62" y="-95.2" font-family="Arial" font-weight="bold" font-size="14.00">+</text>
<polygon fill="none" stroke="none" points="389.88,-80.75 389.88,-118.5 436.62,-118.5 436.62,-80.75 389.88,-80.75"/>
<polygon fill="none" stroke="#7fb881" points="389.88,-80.75 389.88,-118.5 436.62,-118.5 436.62,-80.75 389.88,-80.75"/>
<text xml:space="preserve" text-anchor="start" x="400.88" y="-95.2" font-family="Arial" font-weight="bold" font-size="14.00">rate</text>
<polygon fill="none" stroke="none" points="446.62,-80.75 446.62,-118.5 473.88,-118.5 473.88,-80.75 446.62,-80.75"/>
<polygon fill="none" stroke="#8f81c1" points="446.62,-80.75 446.62,-118.5 473.88,-118.5 473.88,-80.75 446.62,-80.75"/>
<text xml:space="preserve" text-anchor="start" x="457.62" y="-95.2" font-family="Arial" font-weight="bold" font-size="14.00">*</text>
<polygon fill="none" stroke="none" points="483.88,-80.75 483.88,-118.5 520.88,-118.5 520.88,-80.75 483.88,-80.75"/>
<polygon fill="none" stroke="#e5954e" points="483.88,-80.75 483.88,-118.5 520.88,-118.5 520.88,-80.75 483.88,-80.75"/>
<text xml:space="preserve" text-anchor="start" x="494.88" y="-95.2" font-family="Arial" font-weight="bold" font-size="14.00">60</text>
</g>
<!-- tk1 -->
<g id="node2" class="node">
<title>tk1</title>
<text xml:space="preserve" text-anchor="middle" x="55.25" y="-6.45" font-family="Arial" font-size="14.00" fill="#7fb881">&lt;ID, &quot;position&quot;&gt;</text>
</g>
<!-- src_row&#45;&gt;tk1 -->
<g id="edge1" class="edge">
<title>src_row:p1&#45;&gt;tk1</title>
<path fill="none" stroke="#7fb881" stroke-width="1.2" d="M156.62,-99.62C115.18,-99.63 82.15,-57.26 66.02,-31.74"/>
<polygon fill="#7fb881" stroke="#7fb881" stroke-width="1.2" points="68.51,-30.45 61.97,-25.07 63.73,-33.36 68.51,-30.45"/>
</g>
<!-- tk2 -->
<g id="node3" class="node">
<title>tk2</title>
<text xml:space="preserve" text-anchor="middle" x="166.25" y="-6.45" font-family="Arial" font-size="14.00" fill="#8f81c1">&lt;OP, assign&gt;</text>
</g>
<!-- src_row&#45;&gt;tk2 -->
<g id="edge2" class="edge">
<title>src_row:p2&#45;&gt;tk2</title>
<path fill="none" stroke="#8f81c1" stroke-width="1.2" d="M257.25,-79.75C257.25,-54.65 234.5,-37.93 211.75,-27.49"/>
<polygon fill="#8f81c1" stroke="#8f81c1" stroke-width="1.2" points="212.87,-24.92 204.41,-24.37 210.68,-30.08 212.87,-24.92"/>
</g>
<!-- tk3 -->
<g id="node4" class="node">
<title>tk3</title>
<text xml:space="preserve" text-anchor="middle" x="269.25" y="-6.45" font-family="Arial" font-size="14.00" fill="#7fb881">&lt;ID, &quot;initial&quot;&gt;</text>
</g>
<!-- src_row&#45;&gt;tk3 -->
<g id="edge3" class="edge">
<title>src_row:p3&#45;&gt;tk3</title>
<path fill="none" stroke="#7fb881" stroke-width="1.2" d="M311,-79.75C311,-60.93 298.96,-43.04 287.81,-30.51"/>
<polygon fill="#7fb881" stroke="#7fb881" stroke-width="1.2" points="289.89,-28.63 282.35,-24.75 285.83,-32.48 289.89,-28.63"/>
</g>
<!-- tk4 -->
<g id="node5" class="node">
<title>tk4</title>
<text xml:space="preserve" text-anchor="middle" x="364.25" y="-6.45" font-family="Arial" font-size="14.00" fill="#8f81c1">&lt;OP, add&gt;</text>
</g>
<!-- src_row&#45;&gt;tk4 -->
<g id="edge4" class="edge">
<title>src_row:p4&#45;&gt;tk4</title>
<path fill="none" stroke="#8f81c1" stroke-width="1.2" d="M364.75,-79.75C364.75,-63.99 364.61,-46.15 364.48,-32.86"/>
<polygon fill="#8f81c1" stroke="#8f81c1" stroke-width="1.2" points="367.28,-33.09 364.4,-25.12 361.68,-33.15 367.28,-33.09"/>
</g>
<!-- tk5 -->
<g id="node6" class="node">
<title>tk5</title>
<text xml:space="preserve" text-anchor="middle" x="455.25" y="-6.45" font-family="Arial" font-size="14.00" fill="#7fb881">&lt;ID, &quot;rate&quot;&gt;</text>
</g>
<!-- src_row&#45;&gt;tk5 -->
<g id="edge5" class="edge">
<title>src_row:p5&#45;&gt;tk5</title>
<path fill="none" stroke="#7fb881" stroke-width="1.2" d="M413.25,-79.75C413.25,-60.9 425.36,-43.01 436.58,-30.49"/>
<polygon fill="#7fb881" stroke="#7fb881" stroke-width="1.2" points="438.57,-32.45 442.07,-24.73 434.52,-28.58 438.57,-32.45"/>
</g>
<!-- tk6 -->
<g id="node7" class="node">
<title>tk6</title>
<text xml:space="preserve" text-anchor="middle" x="538.25" y="-6.45" font-family="Arial" font-size="14.00" fill="#8f81c1">&lt;OP, *&gt;</text>
</g>
<!-- src_row&#45;&gt;tk6 -->
<g id="edge6" class="edge">
<title>src_row:p6&#45;&gt;tk6</title>
<path fill="none" stroke="#8f81c1" stroke-width="1.2" d="M460.25,-79.75C460.25,-56.03 481.3,-38.9 501.53,-27.92"/>
<polygon fill="#8f81c1" stroke="#8f81c1" stroke-width="1.2" points="502.6,-30.53 508.47,-24.41 500.07,-25.53 502.6,-30.53"/>
</g>
<!-- tk7 -->
<g id="node8" class="node">
<title>tk7</title>
<text xml:space="preserve" text-anchor="middle" x="615.25" y="-6.45" font-family="Arial" font-size="14.00" fill="#e5954e">&lt;INT, 60&gt;</text>
</g>
<!-- src_row&#45;&gt;tk7 -->
<g id="edge7" class="edge">
<title>src_row:p7&#45;&gt;tk7</title>
<path fill="none" stroke="#e5954e" stroke-width="1.2" d="M521.88,-99.62C561.29,-99.62 591.06,-57.63 605.53,-32.07"/>
<polygon fill="#e5954e" stroke="#e5954e" stroke-width="1.2" points="607.95,-33.48 609.29,-25.11 603.02,-30.82 607.95,-33.48"/>
</g>
<!-- tk1&#45;&gt;tk2 -->
<!-- tk2&#45;&gt;tk3 -->
<!-- tk3&#45;&gt;tk4 -->
<!-- tk4&#45;&gt;tk5 -->
<!-- tk5&#45;&gt;tk6 -->
<!-- tk6&#45;&gt;tk7 -->
</g>
</svg>