<svg width="414pt" height="138pt"
 viewBox="0.00 0.00 414.00 138.00" xmlns="http://www.w3.org/2000/svg" xmlns:xlink="http://www.w3.org/1999/xlink">
<g id="graph0" class="graph" transform="scale(1 1) rotate(0) translate(4 134)">
<title>Flowchart</title>
<g id="clust1" class="cluster">
<title>cluster_process</title>
<path fill="#f5f5e8" stroke="#d6d6a5" d="M186.25,-39C186.25,-39 261.75,-39 261.75,-39 267.75,-39 273.75,-45 273.75,-51 273.75,-51 273.75,-104 273.75,-104 273.75,-110 267.75,-116 261.75,-116 261.75,-116 186.25,-116 186.25,-116 180.25,-116 174.25,-110 174.25,-104 174.25,-104 174.25,-51 174.25,-51 174.25,-45 180.25,-39 186.25,-39"/>
<text xml:space="preserve" text-anchor="middle" x="224" y="-98.7" font-family="Times,serif" font-size="14.00">Processo</text>
</g>
<!-- I -->
<g id="node1" class="node">
<title>I</title>
<path fill="none" stroke="#333333" stroke-width="2" stroke-dasharray="5,2" d="M253.75,-83C253.75,-83 194.25,-83 194.25,-83 188.25,-83 182.25,-77 182.25,-71 182.25,-71 182.25,-59 182.25,-59 182.25,-53 188.25,-47 194.25,-47 194.25,-47 253.75,-47 253.75,-47 259.75,-47 265.75,-53 265.75,-59 265.75,-59 265.75,-71 265.75,-71 265.75,-77 259.75,-83 253.75,-83"/>
<text xml:space="preserve" text-anchor="middle" x="224" y="-60.73" font-family="Helvetica,sans-Serif" font-size="12.00" fill="#333333">Interpretador</text>
</g>
<!-- S -->
<g id="node4" class="node">
<title>S</title>
<path fill="none" stroke="#8a6cff" stroke-width="2" d="M393.75,-83C393.75,-83 363.75,-83 363.75,-83 357.75,-83 351.75,-77 351.75,-71 351.75,-71 351.75,-59 351.75,-59 351.75,-53 357.75,-47 363.75,-47 363.75,-47 393.75,-47 393.75,-47 399.75,-47 405.75,-53 405.75,-59 405.75,-59 405.75,-71 405.75,-71 405.75,-77 399.75,-83 393.75,-83"/>
<text xml:space="preserve" text-anchor="middle" x="378.75" y="-60.73" font-family="Helvetica,sans-Serif" font-size="12.00" fill="#333333">saída</text>
</g>
<!-- I&#45;&gt;S -->
<g id="edge3" class="edge">
<title>I&#45;&gt;S</title>
<path fill="none" stroke="#333333" d="M266.51,-65C305.36,-65 323.67,-65 339.9,-65"/>
<polygon fill="#333333" stroke="#333333" points="339.52,-68.5 349.52,-65 339.52,-61.5 339.52,-68.5"/>
</g>
<!-- A -->
<g id="node2" class="node">
<title>A</title>
<path fill="none" stroke="#8a6cff" stroke-width="2" d="M84.25,-130C84.25,-130 12,-130 12,-130 6,-130 0,-124 0,-118 0,-118 0,-106 0,-106 0,-100 6,-94 12,-94 12,-94 84.25,-94 84.25,-94 90.25,-94 96.25,-100 96.25,-106 96.25,-106 96.25,-118 96.25,-118 96.25,-124 90.25,-130 84.25,-130"/>
<text xml:space="preserve" text-anchor="middle" x="48.12" y="-107.72" font-family="Helvetica,sans-Serif" font-size="12.00" fill="#333333">programa fonte</text>
</g>
<!-- A&#45;&gt;I -->
<g id="edge1" class="edge">
<title>A&#45;&gt;I</title>
<path fill="none" stroke="#333333" d="M96.88,-101.04C113.7,-96.83 133.4,-91.29 170.57,-80.52"/>
<polygon fill="#333333" stroke="#333333" points="171.45,-83.91 180.08,-77.77 169.5,-77.19 171.45,-83.91"/>
</g>
<!-- E -->
<g id="node3" class="node">
<title>E</title>
<path fill="none" stroke="#8a6cff" stroke-width="2" d="M64.38,-36C64.38,-36 31.88,-36 31.88,-36 25.88,-36 19.88,-30 19.88,-24 19.88,-24 19.88,-12 19.88,-12 19.88,-6 25.88,0 31.88,0 31.88,0 64.38,0 64.38,0 70.38,0 76.38,-6 76.38,-12 76.38,-12 76.38,-24 76.38,-24 76.38,-30 70.38,-36 64.38,-36"/>
<text xml:space="preserve" text-anchor="middle" x="48.12" y="-13.72" font-family="Helvetica,sans-Serif" font-size="12.00" fill="#333333">entrada</text>
</g>
<!-- E&#45;&gt;I -->
<g id="edge2" class="edge">
<title>E&#45;&gt;I</title>
<path fill="none" stroke="#333333" d="M76.99,-24.24C100.68,-29.56 118.44,-34.38 170.68,-49.51"/>
<polygon fill="#333333" stroke="#333333" points="169.56,-52.83 180.14,-52.25 171.51,-46.1 169.56,-52.83"/>
</g>
</g>
</svg>