<svg width="184pt" height="245pt"
 viewBox="0.00 0.00 184.00 245.00" xmlns="http://www.w3.org/2000/svg" xmlns:xlink="http://www.w3.org/1999/xlink">
<g id="graph0" class="graph" transform="scale(1 1) rotate(0) translate(4 241)">
<title>SourceToTarget</title>
<g id="clust1" class="cluster">
<title>cluster_sources</title>
<path fill="#f6f6d8" stroke="#e0e08a" d="M20,-8C20,-8 66,-8 66,-8 72,-8 78,-14 78,-20 78,-20 78,-217 78,-217 78,-223 72,-229 66,-229 66,-229 20,-229 20,-229 14,-229 8,-223 8,-217 8,-217 8,-20 8,-20 8,-14 14,-8 20,-8"/>
<text xml:space="preserve" text-anchor="middle" x="43" y="-211.7" font-family="Times,serif" font-size="14.00">Fontes</text>
</g>
<g id="clust2" class="cluster">
<title>cluster_targets</title>
<path fill="#f6f6d8" stroke="#e0e08a" d="M110,-8C110,-8 156,-8 156,-8 162,-8 168,-14 168,-20 168,-20 168,-217 168,-217 168,-223 162,-229 156,-229 156,-229 110,-229 110,-229 104,-229 98,-223 98,-217 98,-217 98,-20 98,-20 98,-14 104,-8 110,-8"/>
<text xml:space="preserve" text-anchor="middle" x="133" y="-211.7" font-family="Times,serif" font-size="14.00">Alvo</text>
</g>
<!-- c -->
<g id="node1" class="node">
<title>c</title>
<path fill="#efe9ff" stroke="#8a6cff" stroke-dasharray="5,2" d="M58,-196C58,-196 28,-196 28,-196 22,-196 16,-190 16,-184 16,-184 16,-172 16,-172 16,-166 22,-160 28,-160 28,-160 58,-160 58,-160 64,-160 70,-166 70,-172 70,-172 70,-184 70,-184 70,-190 64,-196 58,-196"/>
<text xml:space="preserve" text-anchor="middle" x="43" y="-174.5" font-family="Helvetica,sans-Serif" font-size="10.00">C</text>
</g>
<!-- x86 -->
<g id="node4" class="node">
<title>x86</title>
<path fill="#efe9ff" stroke="#8a6cff" stroke-dasharray="5,2" d="M148,-124C148,-124 118,-124 118,-124 112,-124 106,-118 106,-112 106,-112 106,-100 106,-100 106,-94 112,-88 118,-88 118,-88 148,-88 148,-88 154,-88 160,-94 160,-100 160,-100 160,-112 160,-112 160,-118 154,-124 148,-124"/>
<text xml:space="preserve" text-anchor="middle" x="133" y="-102.5" font-family="Helvetica,sans-Serif" font-size="10.00">x86</text>
</g>
<!-- c&#45;&gt;x86 -->
<g id="edge1" class="edge">
<title>c&#45;&gt;x86</title>
<path fill="none" stroke="#444444" d="M70.37,-169.33C85.87,-163.17 94.58,-155.25 112.13,-133.1"/>
<polygon fill="#444444" stroke="#444444" points="114.69,-135.5 118.09,-125.47 109.18,-131.19 114.69,-135.5"/>
</g>
<!-- arm -->
<g id="node5" class="node">
<title>arm</title>
<path fill="#efe9ff" stroke="#8a6cff" stroke-dasharray="5,2" d="M148,-196C148,-196 118,-196 118,-196 112,-196 106,-190 106,-184 106,-184 106,-172 106,-172 106,-166 112,-160 118,-160 118,-160 148,-160 148,-160 154,-160 160,-166 160,-172 160,-172 160,-184 160,-184 160,-190 154,-196 148,-196"/>
<text xml:space="preserve" text-anchor="middle" x="133" y="-174.5" font-family="Helvetica,sans-Serif" font-size="10.00">ARM</text>
</g>
<!-- c&#45;&gt;arm -->
<g id="edge2" class="edge">
<title>c&#45;&gt;arm</title>
<path fill="none" stroke="#444444" d="M70.37,-188.33C79.89,-191.32 86.84,-192.19 94.86,-190.96"/>
<polygon fill="#444444" stroke="#444444" points="95.5,-194.4 104.38,-188.62 93.83,-187.6 95.5,-194.4"/>
</g>
<!-- mips -->
<g id="node6" class="node">
<title>mips</title>
<path fill="#efe9ff" stroke="#8a6cff" stroke-dasharray="5,2" d="M148,-52C148,-52 118,-52 118,-52 112,-52 106,-46 106,-40 106,-40 106,-28 106,-28 106,-22 112,-16 118,-16 118,-16 148,-16 148,-16 154,-16 160,-22 160,-28 160,-28 160,-40 160,-40 160,-46 154,-52 148,-52"/>
<text xml:space="preserve" text-anchor="middle" x="133" y="-30.5" font-family="Helvetica,sans-Serif" font-size="10.00">MIPS</text>
</g>
<!-- c&#45;&gt;mips -->
<g id="edge3" class="edge">
<title>c&#45;&gt;mips</title>
<path fill="none" stroke="#444444" d="M50.82,-159.61C76.99,-98.15 86.1,-78.67 103.74,-60.24"/>
<polygon fill="#444444" stroke="#444444" points="106.09,-62.83 110.81,-53.34 101.21,-57.82 106.09,-62.83"/>
</g>
<!-- java -->
<g id="node2" class="node">
<title>java</title>
<path fill="#efe9ff" stroke="#8a6cff" stroke-dasharray="5,2" d="M58,-52C58,-52 28,-52 28,-52 22,-52 16,-46 16,-40 16,-40 16,-28 16,-28 16,-22 22,-16 28,-16 28,-16 58,-16 58,-16 64,-16 70,-22 70,-28 70,-28 70,-40 70,-40 70,-46 64,-52 58,-52"/>
<text xml:space="preserve" text-anchor="middle" x="43" y="-30.5" font-family="Helvetica,sans-Serif" font-size="10.00">Java</text>
</g>
<!-- java&#45;&gt;x86 -->
<g id="edge4" class="edge">
<title>java&#45;&gt;x86</title>
<path fill="none" stroke="#444444" d="M70.37,-42.67C85.87,-48.83 94.58,-56.75 112.13,-78.9"/>
<polygon fill="#444444" stroke="#444444" points="109.18,-80.81 118.09,-86.53 114.69,-76.5 109.18,-80.81"/>
</g>
<!-- java&#45;&gt;arm -->
<g id="edge5" class="edge">
<title>java&#45;&gt;arm</title>
<path fill="none" stroke="#444444" d="M64.16,-52.33C86.45,-72.88 94.47,-87.82 120.76,-149.24"/>
<polygon fill="#444444" stroke="#444444" points="117.4,-150.29 124.55,-158.12 123.84,-147.55 117.4,-150.29"/>
</g>
<!-- java&#45;&gt;mips -->
<g id="edge6" class="edge">
<title>java&#45;&gt;mips</title>
<path fill="none" stroke="#444444" d="M70.37,-23.67C79.89,-20.68 86.84,-19.81 94.86,-21.04"/>
<polygon fill="#444444" stroke="#444444" points="93.83,-24.4 104.38,-23.38 95.5,-17.6 93.83,-24.4"/>
</g>
<!-- python -->
<g id="node3" class="node">
<title>python</title>
<path fill="#efe9ff" stroke="#8a6cff" stroke-dasharray="5,2" d="M58,-124C58,-124 28,-124 28,-124 22,-124 16,-118 16,-112 16,-112 16,-100 16,-100 16,-94 22,-88 28,-88 28,-88 58,-88 58,-88 64,-88 70,-94 70,-100 70,-100 70,-112 70,-112 70,-118 64,-124 58,-124"/>
<text xml:space="preserve" text-anchor="middle" x="43" y="-102.5" font-family="Helvetica,sans-Serif" font-size="10.00">Python</text>
</g>
<!-- python&#45;&gt;x86 -->
<g id="edge7" class="edge">
<title>python&#45;&gt;x86</title>
<path fill="none" stroke="#444444" d="M70.37,-95.67C79.89,-92.68 86.84,-91.81 94.86,-93.04"/>
<polygon fill="#444444" stroke="#444444" points="93.83,-96.4 104.38,-95.38 95.5,-89.6 93.83,-96.4"/>
</g>
<!-- python&#45;&gt;arm -->
<g id="edge8" class="edge">
<title>python&#45;&gt;arm</title>
<path fill="none" stroke="#444444" d="M57.11,-124.44C74.69,-147.2 83.91,-157.67 95.52,-164.48"/>
<polygon fill="#444444" stroke="#444444" points="93.67,-167.46 104.19,-168.65 96.7,-161.16 93.67,-167.46"/>
</g>
<!-- python&#45;&gt;mips -->
<g id="edge9" class="edge">
<title>python&#45;&gt;mips</title>
<path fill="none" stroke="#444444" d="M57.11,-87.56C74.69,-64.8 83.91,-54.33 95.52,-47.52"/>
<polygon fill="#444444" stroke="#444444" points="96.7,-50.84 104.19,-43.35 93.67,-44.54 96.7,-50.84"/>
</g>
</g>
</svg>