<svg width="330pt" height="201pt"
 viewBox="0.00 0.00 330.00 201.00" xmlns="http://www.w3.org/2000/svg" xmlns:xlink="http://www.w3.org/1999/xlink">
<g id="graph0" class="graph" transform="scale(1 1) rotate(0) translate(4 196.5)">
<title>G</title>
<polygon fill="white" stroke="none" points="-4,4 -4,-196.5 325.5,-196.5 325.5,4 -4,4"/>
<!-- matriz -->
<g id="node1" class="node">
<title>matriz</title>
<text xml:space="preserve" text-anchor="start" x="134.88" y="-165.75" font-family="Times,serif" font-size="14.00">0</text>
<text xml:space="preserve" text-anchor="start" x="167.62" y="-165.75" font-family="Times,serif" font-size="14.00">1</text>
<text xml:space="preserve" text-anchor="start" x="198.75" y="-165.75" font-family="Times,serif" font-size="14.00">...</text>
<text xml:space="preserve" text-anchor="start" x="290" y="-165.75" font-family="Times,serif" font-size="14.00">49</text>
<text xml:space="preserve" text-anchor="start" x="103.12" y="-128.25" font-family="Times,serif" font-size="14.00">0</text>
<polygon fill="#9fc5e8" stroke="none" points="123.25,-113.5 123.25,-152 153.25,-152 153.25,-113.5 123.25,-113.5"/>
<polygon fill="none" stroke="black" points="123.25,-113.5 123.25,-152 153.25,-152 153.25,-113.5 123.25,-113.5"/>
<polygon fill="#9fc5e8" stroke="none" points="153.25,-113.5 153.25,-152 188.75,-152 188.75,-113.5 153.25,-113.5"/>
<polygon fill="none" stroke="black" points="153.25,-113.5 153.25,-152 188.75,-152 188.75,-113.5 153.25,-113.5"/>
<text xml:space="preserve" text-anchor="start" x="164.25" y="-128.25" font-family="Times,serif" font-size="14.00">99</text>
<polygon fill="#9fc5e8" stroke="none" points="188.75,-113.5 188.75,-152 220,-152 220,-113.5 188.75,-113.5"/>
<polygon fill="none" stroke="black" points="188.75,-113.5 188.75,-152 220,-152 220,-113.5 188.75,-113.5"/>
<polygon fill="#9fc5e8" stroke="none" points="220,-113.5 220,-152 250,-152 250,-113.5 220,-113.5"/>
<polygon fill="none" stroke="black" points="220,-113.5 220,-152 250,-152 250,-113.5 220,-113.5"/>
<polygon fill="#9fc5e8" stroke="none" points="250,-113.5 250,-152 280,-152 280,-113.5 250,-113.5"/>
<polygon fill="none" stroke="black" points="250,-113.5 250,-152 280,-152 280,-113.5 250,-113.5"/>
<polygon fill="#9fc5e8" stroke="none" points="280,-113.5 280,-152 313.5,-152 313.5,-113.5 280,-113.5"/>
<polygon fill="none" stroke="black" points="280,-113.5 280,-152 313.5,-152 313.5,-113.5 280,-113.5"/>
<text xml:space="preserve" text-anchor="start" x="103.12" y="-90.75" font-family="Times,serif" font-size="14.00">1</text>
<polygon fill="#9fc5e8" stroke="none" points="123.25,-77 123.25,-113.5 153.25,-113.5 153.25,-77 123.25,-77"/>
<polygon fill="none" stroke="black" points="123.25,-77 123.25,-113.5 153.25,-113.5 153.25,-77 123.25,-77"/>
<polygon fill="#9fc5e8" stroke="none" points="153.25,-77 153.25,-113.5 188.75,-113.5 188.75,-77 153.25,-77"/>
<polygon fill="none" stroke="black" points="153.25,-77 153.25,-113.5 188.75,-113.5 188.75,-77 153.25,-77"/>
<polygon fill="#9fc5e8" stroke="none" points="188.75,-77 188.75,-113.5 220,-113.5 220,-77 188.75,-77"/>
<polygon fill="none" stroke="black" points="188.75,-77 188.75,-113.5 220,-113.5 220,-77 188.75,-77"/>
<polygon fill="#9fc5e8" stroke="none" points="220,-77 220,-113.5 250,-113.5 250,-77 220,-77"/>
<polygon fill="none" stroke="black" points="220,-77 220,-113.5 250,-113.5 250,-77 220,-77"/>
<polygon fill="#9fc5e8" stroke="none" points="250,-77 250,-113.5 280,-113.5 280,-77 250,-77"/>
<polygon fill="none" stroke="black" points="250,-77 250,-113.5 280,-113.5 280,-77 250,-77"/>
<polygon fill="#9fc5e8" stroke="none" points="280,-77 280,-113.5 313.5,-113.5 313.5,-77 280,-77"/>
<polygon fill="none" stroke="black" points="280,-77 280,-113.5 313.5,-113.5 313.5,-77 280,-77"/>
<text xml:space="preserve" text-anchor="start" x="100.88" y="-54.25" font-family="Times,serif" font-size="14.00">...</text>
<polygon fill="#9fc5e8" stroke="none" points="123.25,-40.5 123.25,-77 153.25,-77 153.25,-40.5 123.25,-40.5"/>
<polygon fill="none" stroke="black" points="123.25,-40.5 123.25,-77 153.25,-77 153.25,-40.5 123.25,-40.5"/>
<polygon fill="#9fc5e8" stroke="none" points="153.25,-40.5 153.25,-77 188.75,-77 188.75,-40.5 153.25,-40.5"/>
<polygon fill="none" stroke="black" points="153.25,-40.5 153.25,-77 188.75,-77 188.75,-40.5 153.25,-40.5"/>
<polygon fill="#9fc5e8" stroke="none" points="188.75,-40.5 188.75,-77 220,-77 220,-40.5 188.75,-40.5"/>
<polygon fill="none" stroke="black" points="188.75,-40.5 188.75,-77 220,-77 220,-40.5 188.75,-40.5"/>
<polygon fill="#9fc5e8" stroke="none" points="220,-40.5 220,-77 250,-77 250,-40.5 220,-40.5"/>
<polygon fill="none" stroke="black" points="220,-40.5 220,-77 250,-77 250,-40.5 220,-40.5"/>
<polygon fill="#9fc5e8" stroke="none" points="250,-40.5 250,-77 280,-77 280,-40.5 250,-40.5"/>
<polygon fill="none" stroke="black" points="250,-40.5 250,-77 280,-77 280,-40.5 250,-40.5"/>
<polygon fill="#9fc5e8" stroke="none" points="280,-40.5 280,-77 313.5,-77 313.5,-40.5 280,-40.5"/>
<polygon fill="none" stroke="black" points="280,-40.5 280,-77 313.5,-77 313.5,-40.5 280,-40.5"/>
<text xml:space="preserve" text-anchor="start" x="99.75" y="-17.75" font-family="Times,serif" font-size="14.00">99</text>
<polygon fill="#9fc5e8" stroke="none" points="123.25,-4 123.25,-40.5 153.25,-40.5 153.25,-4 123.25,-4"/>
<polygon fill="none" stroke="black" points="123.25,-4 123.25,-40.5 153.25,-40.5 153.25,-4 123.25,-4"/>
<polygon fill="#9fc5e8" stroke="none" points="153.25,-4 153.25,-40.5 188.75,-40.5 188.75,-4 153.25,-4"/>
<polygon fill="none" stroke="black" points="153.25,-4 153.25,-40.5 188.75,-40.5 188.75,-4 153.25,-4"/>
<polygon fill="#9fc5e8" stroke="none" points="188.75,-4 188.75,-40.5 220,-40.5 220,-4 188.75,-4"/>
<polygon fill="none" stroke="black" points="188.75,-4 188.75,-40.5 220,-40.5 220,-4 188.75,-4"/>
<polygon fill="#9fc5e8" stroke="none" points="220,-4 220,-40.5 250,-40.5 250,-4 220,-4"/>
<polygon fill="none" stroke="black" points="220,-4 220,-40.5 250,-40.5 250,-4 220,-4"/>
<polygon fill="#9fc5e8" stroke="none" points="250,-4 250,-40.5 280,-40.5 280,-4 250,-4"/>
<polygon fill="none" stroke="black" points="250,-4 250,-40.5 280,-40.5 280,-4 250,-4"/>
<polygon fill="#9fc5e8" stroke="none" points="280,-4 280,-40.5 313.5,-40.5 313.5,-4 280,-4"/>
<polygon fill="none" stroke="black" points="280,-4 280,-40.5 313.5,-40.5 313.5,-4 280,-4"/>
</g>
<!-- label_mat -->
<g id="node2" class="node">
<title>label_mat</title>
<text xml:space="preserve" text-anchor="middle" x="36.88" y="-126.83" font-family="Arial Bold" font-size="14.00">mat[0][1]</text>
</g>
<!-- label_mat&#45;&gt;matriz -->
<g id="edge1" class="edge">
<title>label_mat&#45;&gt;matriz:celula99</title>
<path fill="none" stroke="#333333" stroke-width="1.5" d="M73.63,-132.39C94.84,-132.47 121.38,-132.57 141.23,-132.64"/>
<polygon fill="#333333" stroke="#333333" stroke-width="1.5" points="141.19,-136.14 151.21,-132.68 141.22,-129.14 141.19,-136.14"/>
</g>
</g>
</svg>