<svg width="289pt" height="106pt"
 viewBox="0.00 0.00 289.00 106.00" xmlns="http://www.w3.org/2000/svg" xmlns:xlink="http://www.w3.org/1999/xlink">
<g id="graph0" class="graph" transform="scale(1 1) rotate(0) translate(4 101.5)">
<title>SplitBuffers</title>
<!-- array1 -->
<g id="node1" class="node">
<title>array1</title>
<polygon fill="white" stroke="none" points="4.5,-54.75 4.5,-97.5 109.5,-97.5 109.5,-54.75 4.5,-54.75"/>
<polygon fill="none" stroke="#333333" stroke-width="2" points="5.5,-55.75 5.5,-96.5 36.5,-96.5 36.5,-55.75 5.5,-55.75"/>
<text xml:space="preserve" text-anchor="start" x="16.5" y="-71.3" font-family="Arial" font-weight="bold" font-size="16.00" fill="#333333">s</text>
<polygon fill="none" stroke="#333333" stroke-width="2" points="38.5,-55.75 38.5,-96.5 70.25,-96.5 70.25,-55.75 38.5,-55.75"/>
<text xml:space="preserve" text-anchor="start" x="49.5" y="-71.3" font-family="Arial" font-weight="bold" font-size="16.00" fill="#333333">o</text>
<polygon fill="none" stroke="#333333" stroke-width="2" points="72.25,-55.75 72.25,-96.5 108.5,-96.5 108.5,-55.75 72.25,-55.75"/>
<text xml:space="preserve" text-anchor="start" x="83.25" y="-71.3" font-family="Arial" font-weight="bold" font-size="16.00" fill="#333333">m</text>
</g>
<!-- array2 -->
<g id="node2" class="node">
<title>array2</title>
<polygon fill="white" stroke="none" points="181.5,-54.75 181.5,-97.5 280.5,-97.5 280.5,-54.75 181.5,-54.75"/>
<polygon fill="none" stroke="#333333" stroke-width="2" points="182.5,-55.75 182.5,-96.5 213.5,-96.5 213.5,-55.75 182.5,-55.75"/>
<text xml:space="preserve" text-anchor="start" x="193.5" y="-71.3" font-family="Arial" font-weight="bold" font-size="16.00" fill="#333333">a</text>
<polygon fill="none" stroke="#333333" stroke-width="2" points="215.5,-55.75 215.5,-96.5 246.5,-96.5 246.5,-55.75 215.5,-55.75"/>
<text xml:space="preserve" text-anchor="start" x="226.5" y="-71.3" font-family="Arial" font-weight="bold" font-size="16.00" fill="#333333">=</text>
<polygon fill="none" stroke="#333333" stroke-width="2" points="248.5,-55.75 248.5,-96.5 279.5,-96.5 279.5,-55.75 248.5,-55.75"/>
<text xml:space="preserve" text-anchor="start" x="259.5" y="-71.3" font-family="Arial" font-weight="bold" font-size="16.00" fill="#333333">a</text>
</g>
<!-- start -->
<g id="node3" class="node">
<title>start</title>
<text xml:space="preserve" text-anchor="start" x="0" y="-4.55" font-family="Arial" font-weight="bold" font-size="16.00" fill="#333333">início</text>
</g>
<!-- start&#45;&gt;array1 -->
<g id="edge1" class="edge">
<title>start&#45;&gt;array1:0</title>
<path fill="none" stroke="#333333" stroke-width="3" d="M21,-18.51C21,-24.62 21,-33.13 21,-40.38"/>
<polygon fill="#333333" stroke="#333333" stroke-width="3" points="17.5,-40.21 21,-50.21 24.5,-40.21 17.5,-40.21"/>
</g>
</g>
</svg>