<svg width="370pt" height="106pt"
 viewBox="0.00 0.00 370.00 106.00" xmlns="http://www.w3.org/2000/svg" xmlns:xlink="http://www.w3.org/1999/xlink">
<g id="graph0" class="graph" transform="scale(1 1) rotate(0) translate(4 101.5)">
<title>BufferScanner</title>
<!-- array -->
<g id="node1" class="node">
<title>array</title>
<polygon fill="white" stroke="none" points="4.5,-54.75 4.5,-97.5 361.5,-97.5 361.5,-54.75 4.5,-54.75"/>
<polygon fill="none" stroke="#333333" stroke-width="2" points="5.5,-55.75 5.5,-96.5 36.5,-96.5 36.5,-55.75 5.5,-55.75"/>
<text xml:space="preserve" text-anchor="start" x="16.5" y="-71.3" font-family="Arial" font-weight="bold" font-size="16.00" fill="#333333">s</text>
<polygon fill="none" stroke="#333333" stroke-width="2" points="38.5,-55.75 38.5,-96.5 70.25,-96.5 70.25,-55.75 38.5,-55.75"/>
<text xml:space="preserve" text-anchor="start" x="49.5" y="-71.3" font-family="Arial" font-weight="bold" font-size="16.00" fill="#333333">o</text>
<polygon fill="none" stroke="#333333" stroke-width="2" points="72.25,-55.75 72.25,-96.5 108.5,-96.5 108.5,-55.75 72.25,-55.75"/>
<text xml:space="preserve" text-anchor="start" x="83.25" y="-71.3" font-family="Arial" font-weight="bold" font-size="16.00" fill="#333333">m</text>
<polygon fill="none" stroke="#333333" stroke-width="2" points="110.5,-55.75 110.5,-96.5 141.5,-96.5 141.5,-55.75 110.5,-55.75"/>
<text xml:space="preserve" text-anchor="start" x="121.5" y="-71.3" font-family="Arial" font-weight="bold" font-size="16.00" fill="#333333">a</text>
<polygon fill="none" stroke="#333333" stroke-width="2" points="143.5,-55.75 143.5,-96.5 174.5,-96.5 174.5,-55.75 143.5,-55.75"/>
<text xml:space="preserve" text-anchor="start" x="154.5" y="-71.3" font-family="Arial" font-weight="bold" font-size="16.00" fill="#333333">=</text>
<polygon fill="none" stroke="#333333" stroke-width="2" points="176.5,-55.75 176.5,-96.5 207.5,-96.5 207.5,-55.75 176.5,-55.75"/>
<text xml:space="preserve" text-anchor="start" x="187.5" y="-71.3" font-family="Arial" font-weight="bold" font-size="16.00" fill="#333333">a</text>
<polygon fill="none" stroke="#333333" stroke-width="2" points="209.5,-55.75 209.5,-96.5 236,-96.5 236,-55.75 209.5,-55.75"/>
<text xml:space="preserve" text-anchor="start" x="220.5" y="-70.5" font-family="Arial" font-size="16.00" fill="#333333"> </text>
<polygon fill="none" stroke="#333333" stroke-width="2" points="238,-55.75 238,-96.5 269,-96.5 269,-55.75 238,-55.75"/>
<text xml:space="preserve" text-anchor="start" x="249" y="-71.3" font-family="Arial" font-weight="bold" font-size="16.00" fill="#333333">+</text>
<polygon fill="none" stroke="#333333" stroke-width="2" points="271,-55.75 271,-96.5 297.5,-96.5 297.5,-55.75 271,-55.75"/>
<text xml:space="preserve" text-anchor="start" x="282" y="-70.5" font-family="Arial" font-size="16.00" fill="#333333"> </text>
<polygon fill="none" stroke="#333333" stroke-width="2" points="299.5,-55.75 299.5,-96.5 331.25,-96.5 331.25,-55.75 299.5,-55.75"/>
<text xml:space="preserve" text-anchor="start" x="310.5" y="-71.3" font-family="Arial" font-weight="bold" font-size="16.00" fill="#333333">b</text>
<polygon fill="none" stroke="#333333" stroke-width="2" points="333.25,-55.75 333.25,-96.5 360.5,-96.5 360.5,-55.75 333.25,-55.75"/>
<text xml:space="preserve" text-anchor="start" x="344.25" y="-71.3" font-family="Arial" font-weight="bold" font-size="16.00" fill="#333333">;</text>
</g>
<!-- start -->
<g id="node2" class="node">
<title>start</title>
<text xml:space="preserve" text-anchor="start" x="0" y="-4.55" font-family="Arial" font-weight="bold" font-size="16.00" fill="#333333">Início</text>
</g>
<!-- start&#45;&gt;array -->
<g id="edge1" class="edge">
<title>start&#45;&gt;array:0</title>
<path fill="none" stroke="#333333" stroke-width="3" d="M21,-18.51C21,-24.62 21,-33.13 21,-40.38"/>
<polygon fill="#333333" stroke="#333333" stroke-width="3" points="17.5,-40.21 21,-50.21 24.5,-40.21 17.5,-40.21"/>
</g>
<!-- end -->
<g id="node3" class="node">
<title>end</title>
<text xml:space="preserve" text-anchor="start" x="111.75" y="-4.55" font-family="Arial" font-weight="bold" font-size="16.00" fill="#333333">Fim</text>
</g>
<!-- end&#45;&gt;array -->
<g id="edge2" class="edge">
<title>end&#45;&gt;array:3</title>
<path fill="none" stroke="#333333" stroke-width="3" d="M126,-18.51C126,-24.62 126,-33.13 126,-40.38"/>
<polygon fill="#333333" stroke="#333333" stroke-width="3" points="122.5,-40.21 126,-50.21 129.5,-40.21 122.5,-40.21"/>
</g>
</g>
</svg>