<svg width="367pt" height="85pt"
 viewBox="0.00 0.00 367.00 85.00" xmlns="http://www.w3.org/2000/svg" xmlns:xlink="http://www.w3.org/1999/xlink">
<g id="graph0" class="graph" transform="scale(1 1) rotate(0) translate(4 81.25)">
<title>G</title>
<polygon fill="white" stroke="none" points="-4,4 -4,-81.25 363.49,-81.25 363.49,4 -4,4"/>
<!-- P1 -->
<g id="node1" class="node">
<title>P1</title>
<ellipse fill="#f9f9f9" stroke="black" cx="21.62" cy="-21.62" rx="21.62" ry="21.62"/>
<text xml:space="preserve" text-anchor="middle" x="21.62" y="-16.2" font-family="Arial" font-size="14.00">P1</text>
</g>
<!-- R2 -->
<g id="node4" class="node">
<title>R2</title>
<polygon fill="#d1eaff" stroke="black" points="140.75,-71.62 104.75,-71.62 104.75,-35.62 140.75,-35.62 140.75,-71.62"/>
<text xml:space="preserve" text-anchor="middle" x="122.75" y="-48.2" font-family="Arial" font-size="14.00">R2</text>
</g>
<!-- P1&#45;&gt;R2 -->
<g id="edge1" class="edge">
<title>P1&#45;&gt;R2</title>
<path fill="none" stroke="red" d="M42.68,-28.1C57.39,-32.85 77.55,-39.35 93.83,-44.61"/>
<polygon fill="red" stroke="red" points="92.33,-47.81 102.93,-47.55 94.49,-41.14 92.33,-47.81"/>
<text xml:space="preserve" text-anchor="middle" x="74" y="-44.63" font-family="Times,serif" font-size="14.00">pede</text>
</g>
<!-- P2 -->
<g id="node2" class="node">
<title>P2</title>
<ellipse fill="#f9f9f9" stroke="black" cx="240.37" cy="-55.62" rx="21.62" ry="21.62"/>
<text xml:space="preserve" text-anchor="middle" x="240.37" y="-50.2" font-family="Arial" font-size="14.00">P2</text>
</g>
<!-- R1 -->
<g id="node3" class="node">
<title>R1</title>
<polygon fill="#d1eaff" stroke="black" points="359.49,-39.62 323.49,-39.62 323.49,-3.62 359.49,-3.62 359.49,-39.62"/>
<text xml:space="preserve" text-anchor="middle" x="341.49" y="-16.2" font-family="Arial" font-size="14.00">R1</text>
</g>
<!-- P2&#45;&gt;R1 -->
<g id="edge3" class="edge">
<title>P2&#45;&gt;R1</title>
<path fill="none" stroke="red" d="M260.95,-48.91C275.71,-43.84 296.16,-36.83 312.62,-31.18"/>
<polygon fill="red" stroke="red" points="313.51,-34.58 321.84,-28.02 311.24,-27.96 313.51,-34.58"/>
<text xml:space="preserve" text-anchor="middle" x="292.74" y="-44.87" font-family="Times,serif" font-size="14.00">pede</text>
</g>
<!-- R1&#45;&gt;P1 -->
<g id="edge4" class="edge">
<title>R1&#45;&gt;P1</title>
<path fill="none" stroke="blue" d="M323.15,-21.62C272.04,-21.62 121.45,-21.62 54.89,-21.62"/>
<polygon fill="blue" stroke="blue" points="54.99,-18.12 44.99,-21.62 54.99,-25.12 54.99,-18.12"/>
<text xml:space="preserve" text-anchor="middle" x="179.75" y="-24.82" font-family="Times,serif" font-size="14.00">alocado</text>
</g>
<!-- R2&#45;&gt;P2 -->
<g id="edge2" class="edge">
<title>R2&#45;&gt;P2</title>
<path fill="none" stroke="blue" d="M141.06,-53.92C158.41,-54.22 185.55,-54.69 206.92,-55.06"/>
<polygon fill="blue" stroke="blue" points="206.84,-58.56 216.9,-55.23 206.96,-51.56 206.84,-58.56"/>
<text xml:space="preserve" text-anchor="middle" x="179.75" y="-58.12" font-family="Times,serif" font-size="14.00">alocado</text>
</g>
</g>
</svg>