<svg width="452pt" height="403pt"
 viewBox="0.00 0.00 452.00 403.00" xmlns="http://www.w3.org/2000/svg" xmlns:xlink="http://www.w3.org/1999/xlink">
<g id="graph0" class="graph" transform="scale(1 1) rotate(0) translate(4 398.75)">
<title>Flowchart</title>
<polygon fill="white" stroke="none" points="-4,4 -4,-398.75 448.25,-398.75 448.25,4 -4,4"/>
<text xml:space="preserve" text-anchor="middle" x="222.12" y="-6.45" font-family="Arial" font-size="14.00" fill="#73a2cf">FIGURA 4.6</text>
<!-- PrintIn -->
<g id="node1" class="node">
<title>PrintIn</title>
<path fill="#f9f9f9" stroke="#333333" d="M153.25,-394.75C153.25,-394.75 12,-394.75 12,-394.75 6,-394.75 0,-388.75 0,-382.75 0,-382.75 0,-370.75 0,-370.75 0,-364.75 6,-358.75 12,-358.75 12,-358.75 153.25,-358.75 153.25,-358.75 159.25,-358.75 165.25,-364.75 165.25,-370.75 165.25,-370.75 165.25,-382.75 165.25,-382.75 165.25,-388.75 159.25,-394.75 153.25,-394.75"/>
<text xml:space="preserve" text-anchor="middle" x="82.62" y="-372.48" font-family="Arial" font-size="12.00">printf (&quot;Digite um numero: &quot;);</text>
</g>
<!-- Scan -->
<g id="node2" class="node">
<title>Scan</title>
<path fill="#f9f9f9" stroke="#333333" d="M131.5,-321.75C131.5,-321.75 33.75,-321.75 33.75,-321.75 27.75,-321.75 21.75,-315.75 21.75,-309.75 21.75,-309.75 21.75,-297.75 21.75,-297.75 21.75,-291.75 27.75,-285.75 33.75,-285.75 33.75,-285.75 131.5,-285.75 131.5,-285.75 137.5,-285.75 143.5,-291.75 143.5,-297.75 143.5,-297.75 143.5,-309.75 143.5,-309.75 143.5,-315.75 137.5,-321.75 131.5,-321.75"/>
<text xml:space="preserve" text-anchor="middle" x="82.62" y="-299.48" font-family="Arial" font-size="12.00">scanf (&quot;%d&quot;, &amp;num);</text>
</g>
<!-- PrintIn&#45;&gt;Scan -->
<g id="edge1" class="edge">
<title>PrintIn&#45;&gt;Scan</title>
<path fill="none" stroke="#333333" stroke-width="1.2" d="M82.62,-358.56C82.62,-351.06 82.62,-342.06 82.62,-333.58"/>
<polygon fill="#333333" stroke="#333333" stroke-width="1.2" points="86.13,-333.6 82.63,-323.6 79.13,-333.6 86.13,-333.6"/>
</g>
<!-- Decisao -->
<g id="node3" class="node">
<title>Decisao</title>
<polygon fill="#fff9c4" stroke="#333333" points="82.62,-248.75 2.12,-230.75 82.62,-212.75 163.13,-230.75 82.62,-248.75"/>
<text xml:space="preserve" text-anchor="middle" x="82.62" y="-226.47" font-family="Arial" font-size="12.00">if(num == 10){</text>
</g>
<!-- Scan&#45;&gt;Decisao -->
<g id="edge2" class="edge">
<title>Scan&#45;&gt;Decisao</title>
<path fill="none" stroke="#333333" stroke-width="1.2" d="M82.62,-285.56C82.62,-278.06 82.62,-269.06 82.62,-260.58"/>
<polygon fill="#333333" stroke="#333333" stroke-width="1.2" points="86.13,-260.6 82.63,-250.6 79.13,-260.6 86.13,-260.6"/>
</g>
<!-- PrintSim -->
<g id="node4" class="node">
<title>PrintSim</title>
<path fill="#f9f9f9" stroke="#333333" d="M432.25,-248.75C432.25,-248.75 261,-248.75 261,-248.75 255,-248.75 249,-242.75 249,-236.75 249,-236.75 249,-224.75 249,-224.75 249,-218.75 255,-212.75 261,-212.75 261,-212.75 432.25,-212.75 432.25,-212.75 438.25,-212.75 444.25,-218.75 444.25,-224.75 444.25,-224.75 444.25,-236.75 444.25,-236.75 444.25,-242.75 438.25,-248.75 432.25,-248.75"/>
<text xml:space="preserve" text-anchor="middle" x="346.62" y="-226.47" font-family="Arial" font-size="12.00">printf (&quot;O numero e igual a 10.\n&quot;);</text>
</g>
<!-- Decisao&#45;&gt;PrintSim -->
<g id="edge3" class="edge">
<title>Decisao&#45;&gt;PrintSim</title>
<path fill="none" stroke="#333333" stroke-width="1.2" d="M165.07,-230.75C187.82,-230.75 212.87,-230.75 236.91,-230.75"/>
<polygon fill="#333333" stroke="#333333" stroke-width="1.2" points="236.8,-234.25 246.8,-230.75 236.8,-227.25 236.8,-234.25"/>
<text xml:space="preserve" text-anchor="middle" x="206.06" y="-236.25" font-family="Arial" font-size="10.00">SIM</text>
</g>
<!-- PrintNao -->
<g id="node5" class="node">
<title>PrintNao</title>
<path fill="#f9f9f9" stroke="#333333" d="M247.75,-164.75C247.75,-164.75 49.5,-164.75 49.5,-164.75 43.5,-164.75 37.5,-158.75 37.5,-152.75 37.5,-152.75 37.5,-140.75 37.5,-140.75 37.5,-134.75 43.5,-128.75 49.5,-128.75 49.5,-128.75 247.75,-128.75 247.75,-128.75 253.75,-128.75 259.75,-134.75 259.75,-140.75 259.75,-140.75 259.75,-152.75 259.75,-152.75 259.75,-158.75 253.75,-164.75 247.75,-164.75"/>
<text xml:space="preserve" text-anchor="middle" x="148.62" y="-142.47" font-family="Arial" font-size="12.00">printf (&quot;O numero e diferente de 10.\n&quot;);</text>
</g>
<!-- Decisao&#45;&gt;PrintNao -->
<g id="edge4" class="edge">
<title>Decisao&#45;&gt;PrintNao</title>
<path fill="none" stroke="#333333" stroke-width="1.2" d="M94.42,-215.09C103.58,-203.71 116.52,-187.64 127.46,-174.05"/>
<polygon fill="#333333" stroke="#333333" stroke-width="1.2" points="129.96,-176.53 133.5,-166.54 124.5,-172.14 129.96,-176.53"/>
<text xml:space="preserve" text-anchor="middle" x="130.45" y="-185.25" font-family="Arial" font-size="10.00">NÃO</text>
</g>
<!-- Pause -->
<g id="node6" class="node">
<title>Pause</title>
<path fill="#f9f9f9" stroke="#333333" d="M284.12,-91.75C284.12,-91.75 199.12,-91.75 199.12,-91.75 193.12,-91.75 187.12,-85.75 187.12,-79.75 187.12,-79.75 187.12,-67.75 187.12,-67.75 187.12,-61.75 193.12,-55.75 199.12,-55.75 199.12,-55.75 284.12,-55.75 284.12,-55.75 290.12,-55.75 296.12,-61.75 296.12,-67.75 296.12,-67.75 296.12,-79.75 296.12,-79.75 296.12,-85.75 290.12,-91.75 284.12,-91.75"/>
<text xml:space="preserve" text-anchor="middle" x="241.62" y="-69.47" font-family="Arial" font-size="12.00">system (&quot;pause&quot;);</text>
</g>
<!-- PrintSim&#45;&gt;Pause -->
<g id="edge5" class="edge">
<title>PrintSim&#45;&gt;Pause</title>
<path fill="none" stroke="#333333" stroke-width="1.2" d="M335.92,-212.37C323.31,-192.06 301.54,-157.57 281.62,-128.75 275.36,-119.68 268.27,-109.96 261.82,-101.29"/>
<polygon fill="#333333" stroke="#333333" stroke-width="1.2" points="264.78,-99.4 255.98,-93.5 259.18,-103.6 264.78,-99.4"/>
</g>
<!-- PrintNao&#45;&gt;Pause -->
<g id="edge6" class="edge">
<title>PrintNao&#45;&gt;Pause</title>
<path fill="none" stroke="#333333" stroke-width="1.2" d="M171.14,-128.56C182.7,-119.73 197,-108.82 209.68,-99.14"/>
<polygon fill="#333333" stroke="#333333" stroke-width="1.2" points="211.73,-101.98 217.55,-93.13 207.48,-96.41 211.73,-101.98"/>
</g>
</g>
</svg>