<svg width="563pt" height="334pt"
 viewBox="0.00 0.00 563.00 334.00" xmlns="http://www.w3.org/2000/svg" xmlns:xlink="http://www.w3.org/1999/xlink">
<g id="graph0" class="graph" transform="scale(1 1) rotate(0) translate(4 330)">
<title>Flowchart</title>
<polygon fill="white" stroke="none" points="-4,4 -4,-330 559.38,-330 559.38,4 -4,4"/>
<!-- Scan -->
<g id="node1" class="node">
<title>Scan</title>
<path fill="#f9f9f9" stroke="#333333" d="M218.63,-326C218.63,-326 120.88,-326 120.88,-326 114.88,-326 108.88,-320 108.88,-314 108.88,-314 108.88,-302 108.88,-302 108.88,-296 114.88,-290 120.88,-290 120.88,-290 218.63,-290 218.63,-290 224.63,-290 230.63,-296 230.63,-302 230.63,-302 230.63,-314 230.63,-314 230.63,-320 224.63,-326 218.63,-326"/>
<text xml:space="preserve" text-anchor="middle" x="169.76" y="-303.73" font-family="Arial" font-size="12.00">scanf (&quot;%d&quot;, &amp;num);</text>
</g>
<!-- Decisao1 -->
<g id="node2" class="node">
<title>Decisao1</title>
<polygon fill="#fff9c4" stroke="#333333" points="169.76,-259 89.25,-241 169.76,-223 250.26,-241 169.76,-259"/>
<text xml:space="preserve" text-anchor="middle" x="169.76" y="-236.72" font-family="Arial" font-size="12.00">if(num == 10){</text>
</g>
<!-- Scan&#45;&gt;Decisao1 -->
<g id="edge1" class="edge">
<title>Scan&#45;&gt;Decisao1</title>
<path fill="none" stroke="#333333" stroke-width="1.2" d="M169.76,-289.58C169.76,-283.9 169.76,-277.42 169.76,-271.12"/>
<polygon fill="#333333" stroke="#333333" stroke-width="1.2" points="173.26,-271.28 169.76,-261.28 166.26,-271.28 173.26,-271.28"/>
</g>
<!-- PrintIgual -->
<g id="node3" class="node">
<title>PrintIgual</title>
<path fill="#f9f9f9" stroke="#333333" d="M543.38,-259C543.38,-259 372.13,-259 372.13,-259 366.13,-259 360.13,-253 360.13,-247 360.13,-247 360.13,-235 360.13,-235 360.13,-229 366.13,-223 372.13,-223 372.13,-223 543.38,-223 543.38,-223 549.38,-223 555.38,-229 555.38,-235 555.38,-235 555.38,-247 555.38,-247 555.38,-253 549.38,-259 543.38,-259"/>
<text xml:space="preserve" text-anchor="middle" x="457.76" y="-236.72" font-family="Arial" font-size="12.00">printf (&quot;O numero e igual a 10.\n&quot;);</text>
</g>
<!-- Decisao1&#45;&gt;PrintIgual -->
<g id="edge2" class="edge">
<title>Decisao1&#45;&gt;PrintIgual</title>
<path fill="none" stroke="#333333" stroke-width="1.2" d="M252.29,-241C282.12,-241 316.28,-241 348.07,-241"/>
<polygon fill="#333333" stroke="#333333" stroke-width="1.2" points="347.85,-244.5 357.85,-241 347.85,-237.5 347.85,-244.5"/>
<text xml:space="preserve" text-anchor="middle" x="305.2" y="-246.5" font-family="Arial" font-size="10.00">SIM</text>
</g>
<!-- Decisao2 -->
<g id="node4" class="node">
<title>Decisao2</title>
<polygon fill="#fff9c4" stroke="#333333" points="73.76,-181 0,-163 73.76,-145 147.51,-163 73.76,-181"/>
<text xml:space="preserve" text-anchor="middle" x="73.76" y="-158.72" font-family="Arial" font-size="12.00">if (num &gt; 10)</text>
</g>
<!-- Decisao1&#45;&gt;Decisao2 -->
<g id="edge3" class="edge">
<title>Decisao1&#45;&gt;Decisao2</title>
<path fill="none" stroke="#333333" stroke-width="1.2" d="M152.59,-226.41C137.76,-214.67 116.11,-197.53 99.25,-184.18"/>
<polygon fill="#333333" stroke="#333333" stroke-width="1.2" points="101.89,-181.81 91.87,-178.34 97.54,-187.29 101.89,-181.81"/>
<text xml:space="preserve" text-anchor="middle" x="138.38" y="-198.5" font-family="Arial" font-size="10.00">NÃO</text>
</g>
<!-- Pause -->
<g id="node7" class="node">
<title>Pause</title>
<path fill="#f9f9f9" stroke="#333333" d="M363.26,-36C363.26,-36 278.26,-36 278.26,-36 272.26,-36 266.26,-30 266.26,-24 266.26,-24 266.26,-12 266.26,-12 266.26,-6 272.26,0 278.26,0 278.26,0 363.26,0 363.26,0 369.26,0 375.26,-6 375.26,-12 375.26,-12 375.26,-24 375.26,-24 375.26,-30 369.26,-36 363.26,-36"/>
<text xml:space="preserve" text-anchor="middle" x="320.76" y="-13.72" font-family="Arial" font-size="12.00">system (&quot;pause&quot;);</text>
</g>
<!-- PrintIgual&#45;&gt;Pause -->
<g id="edge6" class="edge">
<title>PrintIgual&#45;&gt;Pause</title>
<path fill="none" stroke="#333333" stroke-width="1.2" d="M457.36,-222.59C456.28,-202.79 452.5,-169.97 439.76,-145 418.74,-103.83 380.09,-66.69 352.54,-43.58"/>
<polygon fill="#333333" stroke="#333333" stroke-width="1.2" points="355.02,-41.09 345.07,-37.44 350.58,-46.5 355.02,-41.09"/>
</g>
<!-- PrintMaior -->
<g id="node5" class="node">
<title>PrintMaior</title>
<path fill="#f9f9f9" stroke="#333333" d="M410.13,-181C410.13,-181 231.38,-181 231.38,-181 225.38,-181 219.38,-175 219.38,-169 219.38,-169 219.38,-157 219.38,-157 219.38,-151 225.38,-145 231.38,-145 231.38,-145 410.13,-145 410.13,-145 416.13,-145 422.13,-151 422.13,-157 422.13,-157 422.13,-169 422.13,-169 422.13,-175 416.13,-181 410.13,-181"/>
<text xml:space="preserve" text-anchor="middle" x="320.76" y="-158.72" font-family="Arial" font-size="12.00">printf (&quot;O numero e maior que 10.&quot;);</text>
</g>
<!-- Decisao2&#45;&gt;PrintMaior -->
<g id="edge4" class="edge">
<title>Decisao2&#45;&gt;PrintMaior</title>
<path fill="none" stroke="#333333" stroke-width="1.2" d="M149.54,-163C167.83,-163 187.77,-163 207.37,-163"/>
<polygon fill="#333333" stroke="#333333" stroke-width="1.2" points="207.36,-166.5 217.36,-163 207.36,-159.5 207.36,-166.5"/>
<text xml:space="preserve" text-anchor="middle" x="183.45" y="-168.5" font-family="Arial" font-size="10.00">SIM</text>
</g>
<!-- PrintMenor -->
<g id="node6" class="node">
<title>PrintMenor</title>
<path fill="#f9f9f9" stroke="#333333" d="M232.01,-103C232.01,-103 49.51,-103 49.51,-103 43.51,-103 37.51,-97 37.51,-91 37.51,-91 37.51,-79 37.51,-79 37.51,-73 43.51,-67 49.51,-67 49.51,-67 232.01,-67 232.01,-67 238.01,-67 244.01,-73 244.01,-79 244.01,-79 244.01,-91 244.01,-91 244.01,-97 238.01,-103 232.01,-103"/>
<text xml:space="preserve" text-anchor="middle" x="140.76" y="-80.72" font-family="Arial" font-size="12.00">printf (&quot;O numero e menor que 10.&quot;);</text>
</g>
<!-- Decisao2&#45;&gt;PrintMenor -->
<g id="edge5" class="edge">
<title>Decisao2&#45;&gt;PrintMenor</title>
<path fill="none" stroke="#333333" stroke-width="1.2" d="M86.36,-147.7C95.18,-137.7 107.22,-124.04 117.73,-112.12"/>
<polygon fill="#333333" stroke="#333333" stroke-width="1.2" points="120.2,-114.61 124.19,-104.8 114.95,-109.98 120.2,-114.61"/>
<text xml:space="preserve" text-anchor="middle" x="122.14" y="-120.5" font-family="Arial" font-size="10.00">NÃO</text>
</g>
<!-- PrintMaior&#45;&gt;Pause -->
<g id="edge7" class="edge">
<title>PrintMaior&#45;&gt;Pause</title>
<path fill="none" stroke="#333333" stroke-width="1.2" d="M320.76,-144.75C320.76,-120.7 320.76,-76.79 320.76,-47.74"/>
<polygon fill="#333333" stroke="#333333" stroke-width="1.2" points="324.26,-48.13 320.76,-38.13 317.26,-48.13 324.26,-48.13"/>
</g>
<!-- PrintMenor&#45;&gt;Pause -->
<g id="edge8" class="edge">
<title>PrintMenor&#45;&gt;Pause</title>
<path fill="none" stroke="#333333" stroke-width="1.2" d="M188.99,-66.58C211.29,-58.53 237.98,-48.89 261.49,-40.4"/>
<polygon fill="#333333" stroke="#333333" stroke-width="1.2" points="262.46,-43.77 270.68,-37.08 260.08,-37.19 262.46,-43.77"/>
</g>
</g>
</svg>