<svg width="269pt" height="50pt"
 viewBox="0.00 0.00 269.00 50.00" xmlns="http://www.w3.org/2000/svg" xmlns:xlink="http://www.w3.org/1999/xlink">
<g id="graph0" class="graph" transform="scale(1 1) rotate(0) translate(4 45.93)">
<title>LexerDemand</title>
<!-- Lex -->
<g id="node1" class="node">
<title>Lex</title>
<ellipse fill="none" stroke="black" cx="32.41" cy="-23.93" rx="32.41" ry="18"/>
<text xml:space="preserve" text-anchor="middle" x="32.41" y="-18.88" font-family="Times,serif" font-size="14.00">Lexer</text>
</g>
<!-- Sin -->
<g id="node2" class="node">
<title>Sin</title>
<ellipse fill="none" stroke="black" cx="227.03" cy="-23.93" rx="33.95" ry="18"/>
<text xml:space="preserve" text-anchor="middle" x="227.03" y="-18.88" font-family="Times,serif" font-size="14.00">Parser</text>
</g>
<!-- Lex&#45;&gt;Sin -->
<g id="edge2" class="edge">
<title>Lex&#45;&gt;Sin</title>
<path fill="none" stroke="black" d="M65.22,-23.93C96.9,-23.93 145.81,-23.93 181.38,-23.93"/>
<polygon fill="black" stroke="black" points="181.37,-27.43 191.37,-23.93 181.37,-20.43 181.37,-27.43"/>
<text xml:space="preserve" text-anchor="middle" x="128.95" y="-27.13" font-family="Times,serif" font-size="14.00">token</text>
</g>
<!-- Sin&#45;&gt;Lex -->
<g id="edge1" class="edge">
<title>Sin&#45;&gt;Lex</title>
<path fill="none" stroke="black" d="M200.06,-12.53C192.19,-9.62 183.42,-6.9 175.08,-5.43 134.7,1.68 123.17,1.88 82.83,-5.43 78.22,-6.26 73.47,-7.5 68.83,-8.96"/>
<polygon fill="black" stroke="black" points="68.03,-5.53 59.74,-12.13 70.34,-12.14 68.03,-5.53"/>
<text xml:space="preserve" text-anchor="middle" x="128.95" y="-8.63" font-family="Times,serif" font-size="14.00">get_next_token()</text>
</g>
</g>
</svg>