<svg width="622pt" height="624pt"
 viewBox="0.00 0.00 622.00 624.00" xmlns="http://www.w3.org/2000/svg" xmlns:xlink="http://www.w3.org/1999/xlink">
<g id="graph0" class="graph" transform="scale(1 1) rotate(0) translate(4 620)">
<title>Flowchart</title>
<polygon fill="white" stroke="none" points="-4,4 -4,-620 618.07,-620 618.07,4 -4,4"/>
<!-- Inicio -->
<g id="node1" class="node">
<title>Inicio</title>
<ellipse fill="#e1f5fe" stroke="#333333" cx="293.07" cy="-598" rx="28.3" ry="18"/>
<text xml:space="preserve" text-anchor="middle" x="293.07" y="-593.73" font-family="Arial" font-size="12.00">Início</text>
</g>
<!-- GetChar -->
<g id="node3" class="node">
<title>GetChar</title>
<path fill="#f9f9f9" stroke="#333333" d="M326.95,-549C326.95,-549 259.2,-549 259.2,-549 253.2,-549 247.2,-543 247.2,-537 247.2,-537 247.2,-525 247.2,-525 247.2,-519 253.2,-513 259.2,-513 259.2,-513 326.95,-513 326.95,-513 332.95,-513 338.95,-519 338.95,-525 338.95,-525 338.95,-537 338.95,-537 338.95,-543 332.95,-549 326.95,-549"/>
<text xml:space="preserve" text-anchor="middle" x="293.07" y="-526.73" font-family="Arial" font-size="12.00">ch = getchar();</text>
</g>
<!-- Inicio&#45;&gt;GetChar -->
<g id="edge1" class="edge">
<title>Inicio&#45;&gt;GetChar</title>
<path fill="none" stroke="#333333" stroke-width="1.2" d="M293.07,-579.58C293.07,-573.9 293.07,-567.42 293.07,-561.12"/>
<polygon fill="#333333" stroke="#333333" stroke-width="1.2" points="296.57,-561.28 293.07,-551.28 289.57,-561.28 296.57,-561.28"/>
</g>
<!-- Fim -->
<g id="node2" class="node">
<title>Fim</title>
<ellipse fill="#e1f5fe" stroke="#333333" cx="422.07" cy="-18" rx="27" ry="18"/>
<text xml:space="preserve" text-anchor="middle" x="422.07" y="-13.72" font-family="Arial" font-size="12.00">Fim</text>
</g>
<!-- Switch -->
<g id="node4" class="node">
<title>Switch</title>
<polygon fill="#f9f9f9" stroke="#333333" points="331.45,-482 254.7,-482 254.7,-446 331.45,-446 331.45,-482"/>
<text xml:space="preserve" text-anchor="middle" x="293.07" y="-459.73" font-family="Arial" font-size="12.00">switch(ch) {</text>
</g>
<!-- GetChar&#45;&gt;Switch -->
<g id="edge2" class="edge">
<title>GetChar&#45;&gt;Switch</title>
<path fill="none" stroke="#333333" stroke-width="1.2" d="M293.07,-512.58C293.07,-506.9 293.07,-500.42 293.07,-494.12"/>
<polygon fill="#333333" stroke="#333333" stroke-width="1.2" points="296.57,-494.28 293.07,-484.28 289.57,-494.28 296.57,-494.28"/>
</g>
<!-- Igual1 -->
<g id="node5" class="node">
<title>Igual1</title>
<path fill="#fff9c4" stroke="#333333" d="M281.96,-410.46C281.96,-410.46 260.11,-401.54 260.11,-401.54 254.55,-399.27 254.55,-394.73 260.11,-392.46 260.11,-392.46 281.96,-383.54 281.96,-383.54 287.52,-381.27 298.63,-381.27 304.18,-383.54 304.18,-383.54 326.04,-392.46 326.04,-392.46 331.59,-394.73 331.59,-399.27 326.04,-401.54 326.04,-401.54 304.18,-410.46 304.18,-410.46 298.63,-412.73 287.52,-412.73 281.96,-410.46"/>
<text xml:space="preserve" text-anchor="middle" x="293.07" y="-392.73" font-family="Arial" font-size="12.00">Igual?</text>
</g>
<!-- Switch&#45;&gt;Igual1 -->
<g id="edge3" class="edge">
<title>Switch&#45;&gt;Igual1:n</title>
<path fill="none" stroke="#333333" stroke-width="1.2" d="M293.07,-445.67C293.07,-439.97 293.07,-433.38 293.07,-426.77"/>
<polygon fill="#333333" stroke="#333333" stroke-width="1.2" points="296.57,-426.82 293.07,-416.82 289.57,-426.82 296.57,-426.82"/>
</g>
<!-- Igual2 -->
<g id="node6" class="node">
<title>Igual2</title>
<path fill="#fff9c4" stroke="#333333" d="M192.96,-332.46C192.96,-332.46 171.11,-323.54 171.11,-323.54 165.55,-321.27 165.55,-316.73 171.11,-314.46 171.11,-314.46 192.96,-305.54 192.96,-305.54 198.52,-303.27 209.63,-303.27 215.18,-305.54 215.18,-305.54 237.04,-314.46 237.04,-314.46 242.59,-316.73 242.59,-321.27 237.04,-323.54 237.04,-323.54 215.18,-332.46 215.18,-332.46 209.63,-334.73 198.52,-334.73 192.96,-332.46"/>
<text xml:space="preserve" text-anchor="middle" x="204.07" y="-314.73" font-family="Arial" font-size="12.00">Igual?</text>
</g>
<!-- Igual1&#45;&gt;Igual2 -->
<g id="edge4" class="edge">
<title>Igual1&#45;&gt;Igual2</title>
<path fill="none" stroke="#333333" stroke-width="1.2" d="M279.56,-384.46C265.44,-372.4 243.07,-353.3 226.34,-339.02"/>
<polygon fill="#333333" stroke="#333333" stroke-width="1.2" points="228.98,-336.66 219.1,-332.83 224.43,-341.99 228.98,-336.66"/>
<text xml:space="preserve" text-anchor="middle" x="264.78" y="-354.5" font-family="Arial" font-size="10.00">NÃO</text>
</g>
<!-- Case1 -->
<g id="node9" class="node">
<title>Case1</title>
<path fill="#f9f9f9" stroke="#333333" d="M602.07,-415C602.07,-415 442.07,-415 442.07,-415 436.07,-415 430.07,-409 430.07,-403 430.07,-403 430.07,-391 430.07,-391 430.07,-385 436.07,-379 442.07,-379 442.07,-379 602.07,-379 602.07,-379 608.07,-379 614.07,-385 614.07,-391 614.07,-391 614.07,-403 614.07,-403 614.07,-409 608.07,-415 602.07,-415"/>
<text xml:space="preserve" text-anchor="middle" x="522.07" y="-392.73" font-family="Arial" font-size="12.00">case &#39;.&#39;: printf(&quot;Ponto.\n&quot;); break;</text>
</g>
<!-- Igual1&#45;&gt;Case1 -->
<g id="edge8" class="edge">
<title>Igual1&#45;&gt;Case1</title>
<path fill="none" stroke="#333333" stroke-width="1.2" d="M338.32,-397C361.34,-397 390.36,-397 418.48,-397"/>
<polygon fill="#333333" stroke="#333333" stroke-width="1.2" points="418.23,-400.5 428.23,-397 418.23,-393.5 418.23,-400.5"/>
<text xml:space="preserve" text-anchor="middle" x="383.61" y="-402.5" font-family="Arial" font-size="10.00">SIM</text>
</g>
<!-- Igual3 -->
<g id="node7" class="node">
<title>Igual3</title>
<path fill="#fff9c4" stroke="#333333" d="M107.96,-254.46C107.96,-254.46 86.11,-245.54 86.11,-245.54 80.55,-243.27 80.55,-238.73 86.11,-236.46 86.11,-236.46 107.96,-227.54 107.96,-227.54 113.52,-225.27 124.63,-225.27 130.18,-227.54 130.18,-227.54 152.04,-236.46 152.04,-236.46 157.59,-238.73 157.59,-243.27 152.04,-245.54 152.04,-245.54 130.18,-254.46 130.18,-254.46 124.63,-256.73 113.52,-256.73 107.96,-254.46"/>
<text xml:space="preserve" text-anchor="middle" x="119.07" y="-236.72" font-family="Arial" font-size="12.00">Igual?</text>
</g>
<!-- Igual2&#45;&gt;Igual3 -->
<g id="edge5" class="edge">
<title>Igual2&#45;&gt;Igual3</title>
<path fill="none" stroke="#333333" stroke-width="1.2" d="M190.79,-306.12C177.44,-294.19 156.64,-275.59 140.87,-261.49"/>
<polygon fill="#333333" stroke="#333333" stroke-width="1.2" points="143.4,-259.06 133.62,-255 138.74,-264.28 143.4,-259.06"/>
<text xml:space="preserve" text-anchor="middle" x="177.54" y="-276.5" font-family="Arial" font-size="10.00">NÃO</text>
</g>
<!-- Case2 -->
<g id="node10" class="node">
<title>Case2</title>
<path fill="#f9f9f9" stroke="#333333" d="M484.07,-337C484.07,-337 318.07,-337 318.07,-337 312.07,-337 306.07,-331 306.07,-325 306.07,-325 306.07,-313 306.07,-313 306.07,-307 312.07,-301 318.07,-301 318.07,-301 484.07,-301 484.07,-301 490.07,-301 496.07,-307 496.07,-313 496.07,-313 496.07,-325 496.07,-325 496.07,-331 490.07,-337 484.07,-337"/>
<text xml:space="preserve" text-anchor="middle" x="401.07" y="-314.73" font-family="Arial" font-size="12.00">case &#39;,&#39;: printf(&quot;Virgula.\n&quot;); break;</text>
</g>
<!-- Igual2&#45;&gt;Case2 -->
<g id="edge9" class="edge">
<title>Igual2&#45;&gt;Case2</title>
<path fill="none" stroke="#333333" stroke-width="1.2" d="M249.27,-319C262.89,-319 278.46,-319 294.31,-319"/>
<polygon fill="#333333" stroke="#333333" stroke-width="1.2" points="294.06,-322.5 304.06,-319 294.06,-315.5 294.06,-322.5"/>
<text xml:space="preserve" text-anchor="middle" x="277.11" y="-324.5" font-family="Arial" font-size="10.00">SIM</text>
</g>
<!-- Igual4 -->
<g id="node8" class="node">
<title>Igual4</title>
<path fill="#fff9c4" stroke="#333333" d="M32.96,-176.46C32.96,-176.46 11.11,-167.54 11.11,-167.54 5.55,-165.27 5.55,-160.73 11.11,-158.46 11.11,-158.46 32.96,-149.54 32.96,-149.54 38.52,-147.27 49.63,-147.27 55.18,-149.54 55.18,-149.54 77.04,-158.46 77.04,-158.46 82.59,-160.73 82.59,-165.27 77.04,-167.54 77.04,-167.54 55.18,-176.46 55.18,-176.46 49.63,-178.73 38.52,-178.73 32.96,-176.46"/>
<text xml:space="preserve" text-anchor="middle" x="44.07" y="-158.72" font-family="Arial" font-size="12.00">Igual?</text>
</g>
<!-- Igual3&#45;&gt;Igual4 -->
<g id="edge6" class="edge">
<title>Igual3&#45;&gt;Igual4</title>
<path fill="none" stroke="#333333" stroke-width="1.2" d="M107.02,-227.79C95.61,-216.22 78.24,-198.62 64.64,-184.84"/>
<polygon fill="#333333" stroke="#333333" stroke-width="1.2" points="67.13,-182.38 57.62,-177.73 62.15,-187.3 67.13,-182.38"/>
<text xml:space="preserve" text-anchor="middle" x="96.94" y="-198.5" font-family="Arial" font-size="10.00">NÃO</text>
</g>
<!-- Case3 -->
<g id="node11" class="node">
<title>Case3</title>
<path fill="#f9f9f9" stroke="#333333" d="M425.2,-259C425.2,-259 232.95,-259 232.95,-259 226.95,-259 220.95,-253 220.95,-247 220.95,-247 220.95,-235 220.95,-235 220.95,-229 226.95,-223 232.95,-223 232.95,-223 425.2,-223 425.2,-223 431.2,-223 437.2,-229 437.2,-235 437.2,-235 437.2,-247 437.2,-247 437.2,-253 431.2,-259 425.2,-259"/>
<text xml:space="preserve" text-anchor="middle" x="329.07" y="-236.72" font-family="Arial" font-size="12.00">case &#39;:&#39;: printf(&quot;Dois pontos.\n&quot;); break;</text>
</g>
<!-- Igual3&#45;&gt;Case3 -->
<g id="edge10" class="edge">
<title>Igual3&#45;&gt;Case3</title>
<path fill="none" stroke="#333333" stroke-width="1.2" d="M164.38,-241C177.77,-241 193.1,-241 208.9,-241"/>
<polygon fill="#333333" stroke="#333333" stroke-width="1.2" points="208.65,-244.5 218.65,-241 208.65,-237.5 208.65,-244.5"/>
<text xml:space="preserve" text-anchor="middle" x="192.05" y="-246.5" font-family="Arial" font-size="10.00">SIM</text>
</g>
<!-- Case4 -->
<g id="node12" class="node">
<title>Case4</title>
<path fill="#f9f9f9" stroke="#333333" d="M366.45,-181C366.45,-181 157.7,-181 157.7,-181 151.7,-181 145.7,-175 145.7,-169 145.7,-169 145.7,-157 145.7,-157 145.7,-151 151.7,-145 157.7,-145 157.7,-145 366.45,-145 366.45,-145 372.45,-145 378.45,-151 378.45,-157 378.45,-157 378.45,-169 378.45,-169 378.45,-175 372.45,-181 366.45,-181"/>
<text xml:space="preserve" text-anchor="middle" x="262.07" y="-158.72" font-family="Arial" font-size="12.00">case &#39;;&#39;: printf(&quot;Ponto e virgula.\n&quot;); break;</text>
</g>
<!-- Igual4&#45;&gt;Case4 -->
<g id="edge11" class="edge">
<title>Igual4&#45;&gt;Case4</title>
<path fill="none" stroke="#333333" stroke-width="1.2" d="M89.24,-163C102.59,-163 117.91,-163 133.79,-163"/>
<polygon fill="#333333" stroke="#333333" stroke-width="1.2" points="133.62,-166.5 143.62,-163 133.62,-159.5 133.62,-166.5"/>
<text xml:space="preserve" text-anchor="middle" x="116.92" y="-168.5" font-family="Arial" font-size="10.00">SIM</text>
</g>
<!-- Default -->
<g id="node13" class="node">
<title>Default</title>
<path fill="#f9f9f9" stroke="#333333" d="M244.95,-103C244.95,-103 51.2,-103 51.2,-103 45.2,-103 39.2,-97 39.2,-91 39.2,-91 39.2,-79 39.2,-79 39.2,-73 45.2,-67 51.2,-67 51.2,-67 244.95,-67 244.95,-67 250.95,-67 256.95,-73 256.95,-79 256.95,-79 256.95,-91 256.95,-91 256.95,-97 250.95,-103 244.95,-103"/>
<text xml:space="preserve" text-anchor="middle" x="148.07" y="-80.72" font-family="Arial" font-size="12.00">default : printf(&quot;Nao eh pontuacao.\n&quot;);</text>
</g>
<!-- Igual4&#45;&gt;Default -->
<g id="edge7" class="edge">
<title>Igual4&#45;&gt;Default</title>
<path fill="none" stroke="#333333" stroke-width="1.2" d="M59.42,-150.79C73.95,-140.17 96.25,-123.87 114.85,-110.28"/>
<polygon fill="#333333" stroke="#333333" stroke-width="1.2" points="116.7,-113.26 122.71,-104.53 112.57,-107.61 116.7,-113.26"/>
<text xml:space="preserve" text-anchor="middle" x="113.18" y="-120.5" font-family="Arial" font-size="10.00">NÃO</text>
</g>
<!-- Case1&#45;&gt;Fim -->
<g id="edge12" class="edge">
<title>Case1&#45;&gt;Fim</title>
<path fill="none" stroke="#333333" stroke-width="1.2" d="M528.57,-378.77C533.73,-363.54 540.07,-340.61 540.07,-320 540.07,-320 540.07,-320 540.07,-84 540.07,-46.81 494.54,-30.74 460.04,-23.9"/>
<polygon fill="#333333" stroke="#333333" stroke-width="1.2" points="461.1,-20.54 450.64,-22.24 459.88,-27.43 461.1,-20.54"/>
</g>
<!-- Case2&#45;&gt;Fim -->
<g id="edge13" class="edge">
<title>Case2&#45;&gt;Fim</title>
<path fill="none" stroke="#333333" stroke-width="1.2" d="M437.33,-300.73C458.5,-287.87 481.07,-268.05 481.07,-242 481.07,-242 481.07,-242 481.07,-84 481.07,-64.62 466.52,-48.46 451.87,-37.1"/>
<polygon fill="#333333" stroke="#333333" stroke-width="1.2" points="454.03,-34.34 443.86,-31.39 449.97,-40.04 454.03,-34.34"/>
</g>
<!-- Case3&#45;&gt;Fim -->
<g id="edge14" class="edge">
<title>Case3&#45;&gt;Fim</title>
<path fill="none" stroke="#333333" stroke-width="1.2" d="M354.74,-222.72C368.27,-212.25 383.92,-197.7 393.07,-181 416.22,-138.79 421.46,-81.98 422.34,-48.06"/>
<polygon fill="#333333" stroke="#333333" stroke-width="1.2" points="425.84,-48.12 422.47,-38.08 418.84,-48.03 425.84,-48.12"/>
</g>
<!-- Case4&#45;&gt;Fim -->
<g id="edge15" class="edge">
<title>Case4&#45;&gt;Fim</title>
<path fill="none" stroke="#333333" stroke-width="1.2" d="M281.37,-144.75C310.57,-118.65 365.95,-69.16 397.83,-40.67"/>
<polygon fill="#333333" stroke="#333333" stroke-width="1.2" points="400.06,-43.37 405.18,-34.1 395.39,-38.15 400.06,-43.37"/>
</g>
<!-- Default&#45;&gt;Fim -->
<g id="edge16" class="edge">
<title>Default&#45;&gt;Fim</title>
<path fill="none" stroke="#333333" stroke-width="1.2" d="M221.5,-66.58C274.56,-53.99 343.98,-37.53 385.68,-27.63"/>
<polygon fill="#333333" stroke="#333333" stroke-width="1.2" points="386.23,-31.1 395.16,-25.39 384.62,-24.29 386.23,-31.1"/>
</g>
</g>
</svg>