<svg width="350pt" height="624pt"
 viewBox="0.00 0.00 350.00 624.00" xmlns="http://www.w3.org/2000/svg" xmlns:xlink="http://www.w3.org/1999/xlink">
<g id="graph0" class="graph" transform="scale(1 1) rotate(0) translate(4 620)">
<title>Flowchart</title>
<polygon fill="white" stroke="none" points="-4,4 -4,-620 346.45,-620 346.45,4 -4,4"/>
<!-- Inicio -->
<g id="node1" class="node">
<title>Inicio</title>
<ellipse fill="#e1f5fe" stroke="#333333" cx="61.07" cy="-598" rx="28.3" ry="18"/>
<text xml:space="preserve" text-anchor="middle" x="61.07" y="-593.73" font-family="Arial" font-size="12.00">Início</text>
</g>
<!-- GetChar -->
<g id="node3" class="node">
<title>GetChar</title>
<path fill="#f9f9f9" stroke="#333333" d="M94.95,-549C94.95,-549 27.2,-549 27.2,-549 21.2,-549 15.2,-543 15.2,-537 15.2,-537 15.2,-525 15.2,-525 15.2,-519 21.2,-513 27.2,-513 27.2,-513 94.95,-513 94.95,-513 100.95,-513 106.95,-519 106.95,-525 106.95,-525 106.95,-537 106.95,-537 106.95,-543 100.95,-549 94.95,-549"/>
<text xml:space="preserve" text-anchor="middle" x="61.07" y="-526.73" font-family="Arial" font-size="12.00">ch = getchar();</text>
</g>
<!-- Inicio&#45;&gt;GetChar -->
<g id="edge1" class="edge">
<title>Inicio&#45;&gt;GetChar</title>
<path fill="none" stroke="#333333" stroke-width="1.2" d="M61.07,-579.58C61.07,-573.9 61.07,-567.42 61.07,-561.12"/>
<polygon fill="#333333" stroke="#333333" stroke-width="1.2" points="64.57,-561.28 61.07,-551.28 57.57,-561.28 64.57,-561.28"/>
</g>
<!-- Fim -->
<g id="node2" class="node">
<title>Fim</title>
<ellipse fill="#e1f5fe" stroke="#333333" cx="144.07" cy="-18" rx="27" ry="18"/>
<text xml:space="preserve" text-anchor="middle" x="144.07" y="-13.72" font-family="Arial" font-size="12.00">Fim</text>
</g>
<!-- Switch -->
<g id="node4" class="node">
<title>Switch</title>
<polygon fill="#f9f9f9" stroke="#333333" points="99.45,-482 22.7,-482 22.7,-446 99.45,-446 99.45,-482"/>
<text xml:space="preserve" text-anchor="middle" x="61.07" y="-459.73" font-family="Arial" font-size="12.00">switch(ch) {</text>
</g>
<!-- GetChar&#45;&gt;Switch -->
<g id="edge2" class="edge">
<title>GetChar&#45;&gt;Switch</title>
<path fill="none" stroke="#333333" stroke-width="1.2" d="M61.07,-512.58C61.07,-506.9 61.07,-500.42 61.07,-494.12"/>
<polygon fill="#333333" stroke="#333333" stroke-width="1.2" points="64.57,-494.28 61.07,-484.28 57.57,-494.28 64.57,-494.28"/>
</g>
<!-- Igual1 -->
<g id="node5" class="node">
<title>Igual1</title>
<path fill="#fff9c4" stroke="#333333" d="M49.96,-410.46C49.96,-410.46 28.11,-401.54 28.11,-401.54 22.55,-399.27 22.55,-394.73 28.11,-392.46 28.11,-392.46 49.96,-383.54 49.96,-383.54 55.52,-381.27 66.63,-381.27 72.18,-383.54 72.18,-383.54 94.04,-392.46 94.04,-392.46 99.59,-394.73 99.59,-399.27 94.04,-401.54 94.04,-401.54 72.18,-410.46 72.18,-410.46 66.63,-412.73 55.52,-412.73 49.96,-410.46"/>
<text xml:space="preserve" text-anchor="middle" x="61.07" y="-392.73" font-family="Arial" font-size="12.00">Igual?</text>
</g>
<!-- Switch&#45;&gt;Igual1 -->
<g id="edge3" class="edge">
<title>Switch&#45;&gt;Igual1</title>
<path fill="none" stroke="#333333" stroke-width="1.2" d="M61.07,-445.58C61.07,-439.9 61.07,-433.42 61.07,-427.12"/>
<polygon fill="#333333" stroke="#333333" stroke-width="1.2" points="64.57,-427.28 61.07,-417.28 57.57,-427.28 64.57,-427.28"/>
</g>
<!-- Igual2 -->
<g id="node6" class="node">
<title>Igual2</title>
<path fill="#fff9c4" stroke="#333333" d="M47.96,-332.46C47.96,-332.46 26.11,-323.54 26.11,-323.54 20.55,-321.27 20.55,-316.73 26.11,-314.46 26.11,-314.46 47.96,-305.54 47.96,-305.54 53.52,-303.27 64.63,-303.27 70.18,-305.54 70.18,-305.54 92.04,-314.46 92.04,-314.46 97.59,-316.73 97.59,-321.27 92.04,-323.54 92.04,-323.54 70.18,-332.46 70.18,-332.46 64.63,-334.73 53.52,-334.73 47.96,-332.46"/>
<text xml:space="preserve" text-anchor="middle" x="59.07" y="-314.73" font-family="Arial" font-size="12.00">Igual?</text>
</g>
<!-- Igual1&#45;&gt;Igual2 -->
<g id="edge4" class="edge">
<title>Igual1&#45;&gt;Igual2</title>
<path fill="none" stroke="#333333" stroke-width="1.2" d="M60.62,-378.75C60.39,-369.91 60.1,-358.91 59.83,-348.82"/>
<polygon fill="#333333" stroke="#333333" stroke-width="1.2" points="63.34,-348.9 59.57,-338.99 56.34,-349.08 63.34,-348.9"/>
<text xml:space="preserve" text-anchor="middle" x="71.07" y="-354.5" font-family="Arial" font-size="10.00">NÃO</text>
</g>
<!-- Case1 -->
<g id="node9" class="node">
<title>Case1</title>
<path fill="#f9f9f9" stroke="#333333" d="M299.07,-415C299.07,-415 175.07,-415 175.07,-415 169.07,-415 163.07,-409 163.07,-403 163.07,-403 163.07,-391 163.07,-391 163.07,-385 169.07,-379 175.07,-379 175.07,-379 299.07,-379 299.07,-379 305.07,-379 311.07,-385 311.07,-391 311.07,-391 311.07,-403 311.07,-403 311.07,-409 305.07,-415 299.07,-415"/>
<text xml:space="preserve" text-anchor="middle" x="237.07" y="-392.73" font-family="Arial" font-size="12.00">case &#39;.&#39;: printf(&quot;Ponto.\n&quot;);</text>
</g>
<!-- Igual1&#45;&gt;Case1 -->
<g id="edge8" class="edge">
<title>Igual1&#45;&gt;Case1</title>
<path fill="none" stroke="#333333" stroke-width="1.2" d="M106.4,-397C120.11,-397 135.66,-397 151.11,-397"/>
<polygon fill="#333333" stroke="#333333" stroke-width="1.2" points="151.07,-400.5 161.07,-397 151.07,-393.5 151.07,-400.5"/>
<text xml:space="preserve" text-anchor="middle" x="134.11" y="-402.5" font-family="Arial" font-size="10.00">SIM</text>
</g>
<!-- Igual3 -->
<g id="node7" class="node">
<title>Igual3</title>
<path fill="#fff9c4" stroke="#333333" d="M38.96,-254.46C38.96,-254.46 17.11,-245.54 17.11,-245.54 11.55,-243.27 11.55,-238.73 17.11,-236.46 17.11,-236.46 38.96,-227.54 38.96,-227.54 44.52,-225.27 55.63,-225.27 61.18,-227.54 61.18,-227.54 83.04,-236.46 83.04,-236.46 88.59,-238.73 88.59,-243.27 83.04,-245.54 83.04,-245.54 61.18,-254.46 61.18,-254.46 55.63,-256.73 44.52,-256.73 38.96,-254.46"/>
<text xml:space="preserve" text-anchor="middle" x="50.07" y="-236.72" font-family="Arial" font-size="12.00">Igual?</text>
</g>
<!-- Igual2&#45;&gt;Igual3 -->
<g id="edge5" class="edge">
<title>Igual2&#45;&gt;Igual3</title>
<path fill="none" stroke="#333333" stroke-width="1.2" d="M57.12,-301.51C56.04,-292.41 54.68,-280.86 53.43,-270.36"/>
<polygon fill="#333333" stroke="#333333" stroke-width="1.2" points="56.92,-270.04 52.27,-260.52 49.97,-270.87 56.92,-270.04"/>
<text xml:space="preserve" text-anchor="middle" x="65.99" y="-276.5" font-family="Arial" font-size="10.00">NÃO</text>
</g>
<!-- Case2 -->
<g id="node10" class="node">
<title>Case2</title>
<path fill="#f9f9f9" stroke="#333333" d="M303.07,-337C303.07,-337 173.07,-337 173.07,-337 167.07,-337 161.07,-331 161.07,-325 161.07,-325 161.07,-313 161.07,-313 161.07,-307 167.07,-301 173.07,-301 173.07,-301 303.07,-301 303.07,-301 309.07,-301 315.07,-307 315.07,-313 315.07,-313 315.07,-325 315.07,-325 315.07,-331 309.07,-337 303.07,-337"/>
<text xml:space="preserve" text-anchor="middle" x="238.07" y="-314.73" font-family="Arial" font-size="12.00">case &#39;,&#39;: printf(&quot;Virgula.\n&quot;);</text>
</g>
<!-- Igual2&#45;&gt;Case2 -->
<g id="edge9" class="edge">
<title>Igual2&#45;&gt;Case2</title>
<path fill="none" stroke="#333333" stroke-width="1.2" d="M104.24,-319C118.08,-319 133.8,-319 149.49,-319"/>
<polygon fill="#333333" stroke="#333333" stroke-width="1.2" points="149.06,-322.5 159.06,-319 149.06,-315.5 149.06,-322.5"/>
<text xml:space="preserve" text-anchor="middle" x="132.11" y="-324.5" font-family="Arial" font-size="10.00">SIM</text>
</g>
<!-- Igual4 -->
<g id="node8" class="node">
<title>Igual4</title>
<path fill="#fff9c4" stroke="#333333" d="M32.96,-176.46C32.96,-176.46 11.11,-167.54 11.11,-167.54 5.55,-165.27 5.55,-160.73 11.11,-158.46 11.11,-158.46 32.96,-149.54 32.96,-149.54 38.52,-147.27 49.63,-147.27 55.18,-149.54 55.18,-149.54 77.04,-158.46 77.04,-158.46 82.59,-160.73 82.59,-165.27 77.04,-167.54 77.04,-167.54 55.18,-176.46 55.18,-176.46 49.63,-178.73 38.52,-178.73 32.96,-176.46"/>
<text xml:space="preserve" text-anchor="middle" x="44.07" y="-158.72" font-family="Arial" font-size="12.00">Igual?</text>
</g>
<!-- Igual3&#45;&gt;Igual4 -->
<g id="edge6" class="edge">
<title>Igual3&#45;&gt;Igual4</title>
<path fill="none" stroke="#333333" stroke-width="1.2" d="M48.74,-223.13C48.03,-214.08 47.13,-202.68 46.31,-192.31"/>
<polygon fill="#333333" stroke="#333333" stroke-width="1.2" points="49.82,-192.32 45.55,-182.63 42.84,-192.87 49.82,-192.32"/>
<text xml:space="preserve" text-anchor="middle" x="58.31" y="-198.5" font-family="Arial" font-size="10.00">NÃO</text>
</g>
<!-- Case3 -->
<g id="node11" class="node">
<title>Case3</title>
<path fill="#f9f9f9" stroke="#333333" d="M320.2,-259C320.2,-259 163.95,-259 163.95,-259 157.95,-259 151.95,-253 151.95,-247 151.95,-247 151.95,-235 151.95,-235 151.95,-229 157.95,-223 163.95,-223 163.95,-223 320.2,-223 320.2,-223 326.2,-223 332.2,-229 332.2,-235 332.2,-235 332.2,-247 332.2,-247 332.2,-253 326.2,-259 320.2,-259"/>
<text xml:space="preserve" text-anchor="middle" x="242.07" y="-236.72" font-family="Arial" font-size="12.00">case &#39;:&#39;: printf(&quot;Dois pontos.\n&quot;);</text>
</g>
<!-- Igual3&#45;&gt;Case3 -->
<g id="edge10" class="edge">
<title>Igual3&#45;&gt;Case3</title>
<path fill="none" stroke="#333333" stroke-width="1.2" d="M95.09,-241C108.74,-241 124.32,-241 140.12,-241"/>
<polygon fill="#333333" stroke="#333333" stroke-width="1.2" points="139.82,-244.5 149.82,-241 139.82,-237.5 139.82,-244.5"/>
<text xml:space="preserve" text-anchor="middle" x="123.05" y="-246.5" font-family="Arial" font-size="10.00">SIM</text>
</g>
<!-- Case4 -->
<g id="node12" class="node">
<title>Case4</title>
<path fill="#f9f9f9" stroke="#333333" d="M330.45,-181C330.45,-181 157.7,-181 157.7,-181 151.7,-181 145.7,-175 145.7,-169 145.7,-169 145.7,-157 145.7,-157 145.7,-151 151.7,-145 157.7,-145 157.7,-145 330.45,-145 330.45,-145 336.45,-145 342.45,-151 342.45,-157 342.45,-157 342.45,-169 342.45,-169 342.45,-175 336.45,-181 330.45,-181"/>
<text xml:space="preserve" text-anchor="middle" x="244.07" y="-158.72" font-family="Arial" font-size="12.00">case &#39;;&#39;: printf(&quot;Ponto e virgula.\n&quot;);</text>
</g>
<!-- Igual4&#45;&gt;Case4 -->
<g id="edge11" class="edge">
<title>Igual4&#45;&gt;Case4</title>
<path fill="none" stroke="#333333" stroke-width="1.2" d="M89.46,-163C102.9,-163 118.25,-163 133.94,-163"/>
<polygon fill="#333333" stroke="#333333" stroke-width="1.2" points="133.58,-166.5 143.58,-163 133.58,-159.5 133.58,-166.5"/>
<text xml:space="preserve" text-anchor="middle" x="116.92" y="-168.5" font-family="Arial" font-size="10.00">SIM</text>
</g>
<!-- Default -->
<g id="node13" class="node">
<title>Default</title>
<path fill="#f9f9f9" stroke="#333333" d="M240.95,-103C240.95,-103 47.2,-103 47.2,-103 41.2,-103 35.2,-97 35.2,-91 35.2,-91 35.2,-79 35.2,-79 35.2,-73 41.2,-67 47.2,-67 47.2,-67 240.95,-67 240.95,-67 246.95,-67 252.95,-73 252.95,-79 252.95,-79 252.95,-91 252.95,-91 252.95,-97 246.95,-103 240.95,-103"/>
<text xml:space="preserve" text-anchor="middle" x="144.07" y="-80.72" font-family="Arial" font-size="12.00">default : printf(&quot;Nao eh pontuacao.\n&quot;);</text>
</g>
<!-- Igual4&#45;&gt;Default -->
<g id="edge7" class="edge">
<title>Igual4&#45;&gt;Default</title>
<path fill="none" stroke="#333333" stroke-width="1.2" d="M58.83,-150.79C72.8,-140.17 94.24,-123.87 112.13,-110.28"/>
<polygon fill="#333333" stroke="#333333" stroke-width="1.2" points="113.81,-113.4 119.65,-104.56 109.57,-107.83 113.81,-113.4"/>
<text xml:space="preserve" text-anchor="middle" x="110.94" y="-120.5" font-family="Arial" font-size="10.00">NÃO</text>
</g>
<!-- Case1&#45;&gt;Case2 -->
<g id="edge12" class="edge">
<title>Case1&#45;&gt;Case2</title>
<path fill="none" stroke="#333333" stroke-width="1.2" d="M237.3,-378.75C237.42,-369.97 237.56,-359.06 237.69,-349.03"/>
<polygon fill="#333333" stroke="#333333" stroke-width="1.2" points="241.19,-349.3 237.82,-339.26 234.19,-349.21 241.19,-349.3"/>
</g>
<!-- Case2&#45;&gt;Case3 -->
<g id="edge13" class="edge">
<title>Case2&#45;&gt;Case3</title>
<path fill="none" stroke="#333333" stroke-width="1.2" d="M238.98,-300.75C239.44,-291.97 240.02,-281.06 240.55,-271.03"/>
<polygon fill="#333333" stroke="#333333" stroke-width="1.2" points="244.03,-271.42 241.06,-261.25 237.04,-271.06 244.03,-271.42"/>
</g>
<!-- Case3&#45;&gt;Case4 -->
<g id="edge14" class="edge">
<title>Case3&#45;&gt;Case4</title>
<path fill="none" stroke="#333333" stroke-width="1.2" d="M242.53,-222.75C242.76,-213.97 243.05,-203.06 243.31,-193.03"/>
<polygon fill="#333333" stroke="#333333" stroke-width="1.2" points="246.8,-193.34 243.57,-183.26 239.81,-193.16 246.8,-193.34"/>
</g>
<!-- Case4&#45;&gt;Default -->
<g id="edge15" class="edge">
<title>Case4&#45;&gt;Default</title>
<path fill="none" stroke="#333333" stroke-width="1.2" d="M221.38,-144.75C208.05,-134.62 190.99,-121.65 176.28,-110.48"/>
<polygon fill="#333333" stroke="#333333" stroke-width="1.2" points="178.55,-107.8 168.47,-104.54 174.31,-113.38 178.55,-107.8"/>
</g>
<!-- Default&#45;&gt;Fim -->
<g id="edge16" class="edge">
<title>Default&#45;&gt;Fim</title>
<path fill="none" stroke="#333333" stroke-width="1.2" d="M144.07,-66.58C144.07,-60.9 144.07,-54.42 144.07,-48.12"/>
<polygon fill="#333333" stroke="#333333" stroke-width="1.2" points="147.57,-48.28 144.07,-38.28 140.57,-48.28 147.57,-48.28"/>
</g>
</g>
</svg>