<?xml version="1.0" encoding="utf-8" standalone="no"?>
<!DOCTYPE svg PUBLIC "-//W3C//DTD SVG 1.1//EN"
  "http://www.w3.org/Graphics/SVG/1.1/DTD/svg11.dtd">
<svg xmlns:xlink="http://www.w3.org/1999/xlink" width="99.708pt" height="47.12pt" viewBox="0 0 99.708 47.12" xmlns="http://www.w3.org/2000/svg" version="1.1">
 <metadata>
  <rdf:RDF xmlns:dc="http://purl.org/dc/elements/1.1/" xmlns:cc="http://creativecommons.org/ns#" xmlns:rdf="http://www.w3.org/1999/02/22-rdf-syntax-ns#">
   <cc:Work>
    <dc:type rdf:resource="http://purl.org/dc/dcmitype/StillImage"/>
    <dc:date>2026-03-31T11:00:53.587224</dc:date>
    <dc:format>image/svg+xml</dc:format>
    <dc:creator>
     <cc:Agent>
      <dc:title>Matplotlib v3.10.8, https://matplotlib.org/</dc:title>
     </cc:Agent>
    </dc:creator>
   </cc:Work>
  </rdf:RDF>
 </metadata>
 <defs>
  <style type="text/css">*{stroke-linejoin: round; stroke-linecap: butt}</style>
 </defs>
 <g id="figure_1">
  <g id="patch_1">
   <path d="M 0 47.12 
L 99.708 47.12 
L 99.708 0 
L 0 0 
L 0 47.12 
z
" style="fill: none"/>
  </g>
  <g id="axes_1">
   <g id="line2d_1">
    <path d="M 53.688 41.56 
L 54.841264 41.523017 
L 55.989789 41.41222 
L 57.128855 41.228065 
L 58.253783 40.971308 
L 59.359948 40.643003 
L 60.442806 40.244502 
L 61.497907 39.77744 
L 62.520916 39.243737 
L 63.507628 38.645586 
L 64.45399 37.985445 
L 65.356111 37.266027 
L 66.210286 36.490288 
L 67.013004 35.661416 
L 67.760967 34.782816 
L 68.451101 33.8581 
L 69.08057 32.891066 
L 69.646788 31.885689 
L 70.147427 30.8461 
L 70.580432 29.776571 
L 70.944021 28.681497 
L 71.236702 27.565377 
L 71.457272 26.432798 
L 71.604824 25.288414 
L 71.678752 24.136928 
L 71.678752 22.983072 
L 71.604824 21.831586 
L 71.457272 20.687202 
L 71.236702 19.554623 
L 70.944021 18.438503 
L 70.580432 17.343429 
L 70.147427 16.2739 
L 69.646788 15.234311 
L 69.08057 14.228934 
L 68.451101 13.2619 
L 67.760967 12.337184 
L 67.013004 11.458584 
L 66.210286 10.629712 
L 65.356111 9.853973 
L 64.45399 9.134555 
L 63.507628 8.474414 
L 62.520916 7.876263 
L 61.497907 7.34256 
L 60.442806 6.875498 
L 59.359948 6.476997 
L 58.253783 6.148692 
L 57.128855 5.891935 
L 55.989789 5.70778 
L 54.841264 5.596983 
L 53.688 5.56 
L 53.688 5.56 
L 30.288 5.56 
L 30.288 23.56 
L 30.288 41.56 
L 53.688 41.56 
" clip-path="url(#p0f1a6ac841)" style="fill: none; stroke: #333333; stroke-width: 2; stroke-linecap: round"/>
   </g>
   <g id="line2d_2">
    <path d="M 17.688 35.44 
L 30.288 35.44 
" clip-path="url(#p0f1a6ac841)" style="fill: none; stroke: #333333; stroke-width: 2; stroke-linecap: round"/>
   </g>
   <g id="line2d_3">
    <path d="M 17.688 23.56 
L 30.288 23.56 
" clip-path="url(#p0f1a6ac841)" style="fill: none; stroke: #333333; stroke-width: 2; stroke-linecap: round"/>
   </g>
   <g id="line2d_4">
    <path d="M 17.688 11.68 
L 30.288 11.68 
" clip-path="url(#p0f1a6ac841)" style="fill: none; stroke: #333333; stroke-width: 2; stroke-linecap: round"/>
   </g>
   <g id="line2d_5">
    <path d="M 71.688 23.56 
L 84.288 23.56 
" clip-path="url(#p0f1a6ac841)" style="fill: none; stroke: #333333; stroke-width: 2; stroke-linecap: round"/>
   </g>
   <g id="text_1">
    <text style="font-size: 14px; font-family: 'DejaVu Sans', 'Bitstream Vera Sans', 'Computer Modern Sans Serif', 'Lucida Grande', 'Verdana', 'Geneva', 'Lucid', 'Arial', 'Helvetica', 'Avant Garde', sans-serif; text-anchor: start; fill: #333333" x="87.888" y="27.423125" transform="rotate(-0 87.888 27.423125)">x</text>
   </g>
   <g id="text_2">
    <text style="font-size: 14px; font-family: 'DejaVu Sans', 'Bitstream Vera Sans', 'Computer Modern Sans Serif', 'Lucida Grande', 'Verdana', 'Geneva', 'Lucid', 'Arial', 'Helvetica', 'Avant Garde', sans-serif; text-anchor: end; fill: #333333" x="14.088" y="15.543125" transform="rotate(-0 14.088 15.543125)">A</text>
   </g>
   <g id="text_3">
    <text style="font-size: 14px; font-family: 'DejaVu Sans', 'Bitstream Vera Sans', 'Computer Modern Sans Serif', 'Lucida Grande', 'Verdana', 'Geneva', 'Lucid', 'Arial', 'Helvetica', 'Avant Garde', sans-serif; text-anchor: end; fill: #333333" x="14.088" y="27.423125" transform="rotate(-0 14.088 27.423125)">B</text>
   </g>
   <g id="text_4">
    <text style="font-size: 14px; font-family: 'DejaVu Sans', 'Bitstream Vera Sans', 'Computer Modern Sans Serif', 'Lucida Grande', 'Verdana', 'Geneva', 'Lucid', 'Arial', 'Helvetica', 'Avant Garde', sans-serif; text-anchor: end; fill: #333333" x="14.088" y="39.303125" transform="rotate(-0 14.088 39.303125)">C</text>
   </g>
  </g>
 </g>
 <defs>
  <clipPath id="p0f1a6ac841">
   <rect x="0" y="0" width="99.708" height="47.12"/>
  </clipPath>
 </defs>
</svg>
