<svg xmlns="http://www.w3.org/2000/svg" xmlns:xlink="http://www.w3.org/1999/xlink" xml:lang="en" height="113.22000000000001pt" width="173.348pt" viewBox="-158.008 3.5199999999999987 173.348 113.22000000000001"><path d="M -30.6,78.75 L -29.446736040347172,78.71301706950607 L -28.298211089678894,78.60222024881844 L -27.1591446833753,78.41806482583918 L -26.03421748962887,78.16130753470253 L -24.928052075574826,77.83300344619204 L -23.84519391217127,77.43450163222839 L -22.790092695883956,76.96743962224355 L -21.767084063929126,76.43373667422101 L -20.780371778210124,75.83558588805313 L -19.83401045115812,75.17544519362322 L -18.931888884459806,74.45602725064442 L -18.077714089137253,73.68028830175909 L -17.274996052644326,72.85141602470371 L -16.527033315575473,71.9728164334572 L -15.83689941725479,71.04809988219905 L -15.207430265903778,70.08106622958945 L -14.641212485286,69.07568922433504 L -14.140572785715374,68.03610017620309 L -13.70756840310431,66.96657097958354 L -13.343978645340105,65.87149655935858 L -13.05129758072718,64.75537681121367 L -12.830727898539898,63.622798110600826 L -12.683175966914435,62.47841446633828 L -12.609248108387625,61.3269283962898 L -12.609248108387625,60.17307160371021 L -12.683175966914435,59.021585533661735 L -12.830727898539898,57.877201889399174 L -13.05129758072718,56.74462318878634 L -13.343978645340105,55.62850344064142 L -13.70756840310431,54.53342902041646 L -14.140572785715374,53.463899823796915 L -14.641212485286,52.424310775664964 L -15.207430265903778,51.41893377041055 L -15.83689941725479,50.451900117800946 L -16.527033315575473,49.5271835665428 L -17.274996052644326,48.648583975296305 L -18.077714089137245,47.8197116982409 L -18.931888884459806,47.04397274935558 L -19.834010451158107,46.32455480637678 L -20.780371778210124,45.66441411194687 L -21.767084063929126,45.06626332577899 L -22.790092695883956,44.532560377756454 L -23.84519391217127,44.06549836777161 L -24.928052075574826,43.66699655380796 L -26.03421748962887,43.33869246529747 L -27.1591446833753,43.081935174160826 L -28.298211089678887,42.897779751181574 L -29.446736040347165,42.78698293049395 L -30.6,42.75 L -30.6,42.75 L -54.0,42.75 L -54.0,60.75 L -54.0,78.75 L -30.6,78.75" style="stroke:black;fill:none;stroke-width:2.0;stroke-dasharray:-;stroke-linecap:round;stroke-linejoin:round;" /><path d="M -66.60000000000001,69.75 L -54.0,69.75" style="stroke:black;fill:none;stroke-width:2.0;stroke-dasharray:-;stroke-linecap:round;stroke-linejoin:round;" /><path d="M -66.60000000000001,51.75 L -54.0,51.75" style="stroke:black;fill:none;stroke-width:2.0;stroke-dasharray:-;stroke-linecap:round;stroke-linejoin:round;" /><path d="M -12.600000000000003,60.75 L 0.0,60.75" style="stroke:black;fill:none;stroke-width:2.0;stroke-dasharray:-;stroke-linecap:round;stroke-linejoin:round;" /><path d="M -102.60000000000001,45.0 L -101.44673604034718,44.96301706950605 L -100.29821108967889,44.852220248818426 L -99.1591446833753,44.668064825839174 L -98.03421748962887,44.41130753470253 L -96.92805207557483,44.08300344619204 L -95.84519391217127,43.68450163222839 L -94.79009269588396,43.217439622243546 L -93.76708406392912,42.68373667422101 L -92.78037177821012,42.08558588805314 L -91.83401045115812,41.425445193623226 L -90.93188888445981,40.70602725064442 L -90.07771408913726,39.9302883017591 L -89.27499605264433,39.10141602470371 L -88.52703331557547,38.2228164334572 L -87.83689941725478,37.298099882199054 L -87.20743026590378,36.33106622958945 L -86.641212485286,35.325689224335036 L -86.14057278571538,34.28610017620309 L -85.7075684031043,33.216570979583544 L -85.3439786453401,32.12149655935859 L -85.05129758072718,31.005376811213658 L -84.83072789853989,29.872798110600826 L -84.68317596691443,28.728414466338272 L -84.60924810838762,27.576928396289794 L -84.60924810838762,26.42307160371021 L -84.68317596691443,25.27158553366173 L -84.83072789853989,24.127201889399178 L -85.05129758072718,22.994623188786342 L -85.3439786453401,21.878503440641417 L -85.7075684031043,20.783429020416463 L -86.14057278571538,19.713899823796915 L -86.641212485286,18.674310775664964 L -87.20743026590378,17.66893377041055 L -87.83689941725478,16.70190011780095 L -88.52703331557547,15.777183566542798 L -89.27499605264433,14.898583975296301 L -90.07771408913723,14.069711698240905 L -90.93188888445981,13.293972749355584 L -91.83401045115811,12.574554806376781 L -92.78037177821012,11.914414111946874 L -93.76708406392912,11.316263325778994 L -94.79009269588396,10.782560377756456 L -95.84519391217127,10.31549836777161 L -96.92805207557483,9.916996553807964 L -98.03421748962887,9.588692465297472 L -99.1591446833753,9.331935174160824 L -100.29821108967889,9.14777975118157 L -101.44673604034718,9.036982930493945 L -102.60000000000001,9.0 L -102.60000000000001,9.0 L -126.0,9.0 L -126.0,27.0 L -126.0,45.0 L -102.60000000000001,45.0" style="stroke:black;fill:none;stroke-width:2.0;stroke-dasharray:-;stroke-linecap:round;stroke-linejoin:round;" /><path d="M -138.6,38.88 L -126.0,38.88" style="stroke:black;fill:none;stroke-width:2.0;stroke-dasharray:-;stroke-linecap:round;stroke-linejoin:round;" /><path d="M -138.6,27.0 L -126.0,27.0" style="stroke:black;fill:none;stroke-width:2.0;stroke-dasharray:-;stroke-linecap:round;stroke-linejoin:round;" /><path d="M -138.6,15.12 L -126.0,15.12" style="stroke:black;fill:none;stroke-width:2.0;stroke-dasharray:-;stroke-linecap:round;stroke-linejoin:round;" /><path d="M -84.60000000000001,27.0 L -72.0,27.0" style="stroke:black;fill:none;stroke-width:2.0;stroke-dasharray:-;stroke-linecap:round;stroke-linejoin:round;" /><path d="M -66.60000000000001,51.75 L -72.0,51.75 L -72.0,27.0" style="stroke:black;fill:none;stroke-width:2;stroke-dasharray:-;stroke-linecap:round;stroke-linejoin:round;" /><path d="M -127.80000000000001,112.14000000000001 L -109.80000000000001,112.14000000000001 L -109.28571428571429,112.13265306122449 L -108.77142857142859,112.11061224489796 L -108.25714285714287,112.07387755102042 L -107.74285714285716,112.02244897959184 L -107.22857142857144,111.95632653061224 L -106.71428571428572,111.87551020408164 L -106.2,111.78 L -105.6857142857143,111.66979591836736 L -105.17142857142858,111.54489795918369 L -104.65714285714287,111.40530612244898 L -104.14285714285715,111.25102040816327 L -103.62857142857145,111.08204081632653 L -103.11428571428573,110.89836734693878 L -102.60000000000002,110.7 L -102.0857142857143,110.4869387755102 L -101.57142857142858,110.2591836734694 L -101.05714285714286,110.01673469387754 L -100.54285714285716,109.75959183673469 L -100.02857142857144,109.48775510204082 L -99.51428571428573,109.20122448979592 L -99.00000000000001,108.89999999999999 L -98.48571428571431,108.58408163265305 L -97.97142857142858,108.2534693877551 L -97.45714285714286,107.90816326530613 L -96.94285714285715,107.54816326530612 L -96.42857142857144,107.17346938775509 L -95.91428571428573,106.78408163265307 L -95.4,106.38 L -94.8857142857143,105.96122448979592 L -94.3714285714286,105.52775510204083 L -93.85714285714288,105.07959183673469 L -93.34285714285716,104.61673469387755 L -92.82857142857144,104.13918367346939 L -92.31428571428572,103.64693877551021 L -91.80000000000001,103.14000000000001 L -91.28571428571429,102.61836734693878 L -90.77142857142859,102.08204081632653 L -90.25714285714287,101.53102040816326 L -89.74285714285716,100.96530612244898 L -89.22857142857143,100.38489795918366 L -88.71428571428572,99.78979591836735 L -88.2,99.17999999999999 L -87.6857142857143,98.55551020408163 L -87.17142857142858,97.91632653061224 L -86.65714285714287,97.26244897959184 L -86.14285714285715,96.5938775510204 L -85.62857142857145,95.91061224489796 L -85.11428571428573,95.21265306122449 L -84.60000000000001,94.5 L -84.60000000000001,94.5 L -85.11428571428573,93.78734693877551 L -85.62857142857145,93.08938775510204 L -86.14285714285715,92.4061224489796 L -86.65714285714287,91.73755102040816 L -87.17142857142858,91.08367346938776 L -87.6857142857143,90.44448979591837 L -88.2,89.82000000000001 L -88.71428571428572,89.21020408163265 L -89.22857142857143,88.61510204081634 L -89.74285714285716,88.03469387755102 L -90.25714285714287,87.46897959183674 L -90.77142857142859,86.91795918367347 L -91.28571428571429,86.38163265306122 L -91.80000000000001,85.85999999999999 L -92.31428571428572,85.35306122448979 L -92.82857142857144,84.86081632653061 L -93.34285714285716,84.38326530612245 L -93.85714285714288,83.92040816326531 L -94.3714285714286,83.47224489795917 L -94.8857142857143,83.03877551020408 L -95.4,82.62 L -95.91428571428573,82.21591836734693 L -96.42857142857144,81.82653061224491 L -96.94285714285715,81.45183673469388 L -97.45714285714286,81.09183673469387 L -97.97142857142858,80.7465306122449 L -98.48571428571431,80.41591836734695 L -99.00000000000001,80.10000000000001 L -99.51428571428573,79.79877551020408 L -100.02857142857144,79.51224489795918 L -100.54285714285716,79.24040816326531 L -101.05714285714286,78.98326530612246 L -101.57142857142858,78.7408163265306 L -102.0857142857143,78.5130612244898 L -102.60000000000002,78.3 L -103.11428571428573,78.10163265306122 L -103.62857142857145,77.91795918367347 L -104.14285714285715,77.74897959183673 L -104.65714285714287,77.59469387755102 L -105.17142857142858,77.45510204081631 L -105.6857142857143,77.33020408163264 L -106.2,77.22 L -106.71428571428572,77.12448979591836 L -107.22857142857144,77.04367346938776 L -107.74285714285716,76.97755102040816 L -108.25714285714287,76.92612244897958 L -108.77142857142859,76.88938775510204 L -109.28571428571429,76.86734693877551 L -109.80000000000001,76.85999999999999 L -127.80000000000001,76.85999999999999 L -127.80000000000001,76.85999999999999 L -127.1088,77.58 L -126.44640000000001,78.3 L -125.81280000000002,79.02 L -125.20800000000001,79.74 L -124.632,80.46 L -124.08480000000002,81.17999999999999 L -123.56640000000002,81.89999999999999 L -123.0768,82.62 L -122.61600000000001,83.34 L -122.184,84.06 L -121.78080000000001,84.78 L -121.4064,85.5 L -121.06080000000001,86.22 L -120.744,86.94 L -120.456,87.66 L -120.19680000000001,88.38 L -119.96640000000001,89.10000000000001 L -119.76480000000001,89.82000000000001 L -119.592,90.54 L -119.44800000000002,91.26 L -119.33280000000002,91.98 L -119.24640000000001,92.7 L -119.18880000000001,93.41999999999999 L -119.16000000000003,94.14000000000001 L -119.16000000000003,94.85999999999999 L -119.18880000000001,95.58000000000001 L -119.24640000000001,96.3 L -119.33280000000002,97.02 L -119.44800000000002,97.74 L -119.592,98.46 L -119.76480000000001,99.17999999999999 L -119.96640000000001,99.89999999999999 L -120.19680000000001,100.62 L -120.456,101.34 L -120.744,102.06 L -121.0608,102.78 L -121.4064,103.5 L -121.78080000000001,104.22 L -122.184,104.94 L -122.61600000000001,105.66 L -123.0768,106.38 L -123.56640000000002,107.10000000000001 L -124.08480000000002,107.82000000000001 L -124.632,108.54 L -125.20800000000003,109.26 L -125.81280000000002,109.98 L -126.44640000000001,110.7 L -127.1088,111.42 L -127.80000000000001,112.14000000000001" style="stroke:black;fill:none;stroke-width:2.0;stroke-dasharray:-;stroke-linecap:round;stroke-linejoin:round;" /><path d="M -140.4,103.5 L -121.4064,103.5" style="stroke:black;fill:none;stroke-width:2.0;stroke-dasharray:-;stroke-linecap:round;stroke-linejoin:round;" /><path d="M -140.4,85.5 L -121.4064,85.5" style="stroke:black;fill:none;stroke-width:2.0;stroke-dasharray:-;stroke-linecap:round;stroke-linejoin:round;" /><path d="M -84.60000000000001,94.5 L -72.0,94.5" style="stroke:black;fill:none;stroke-width:2.0;stroke-dasharray:-;stroke-linecap:round;stroke-linejoin:round;" /><path d="M -66.60000000000001,69.75 L -72.0,69.75 L -72.0,94.5" style="stroke:black;fill:none;stroke-width:2;stroke-dasharray:-;stroke-linecap:round;stroke-linejoin:round;" /><text x="3.600000000000003" y="46.75" dominant-baseline="central" fill="black" font-size="14.0" font-family="sans" text-anchor="start"><tspan x="3.600000000000003" dy="14.0">x</tspan></text><text x="-142.20000000000002" y="1.1199999999999992" dominant-baseline="central" fill="black" font-size="14.0" font-family="sans" text-anchor="end"><tspan x="-142.20000000000002" dy="14.0">A</tspan></text><text x="-142.20000000000002" y="13.0" dominant-baseline="central" fill="black" font-size="14.0" font-family="sans" text-anchor="end"><tspan x="-142.20000000000002" dy="14.0">B</tspan></text><text x="-142.20000000000002" y="24.880000000000003" dominant-baseline="central" fill="black" font-size="14.0" font-family="sans" text-anchor="end"><tspan x="-142.20000000000002" dy="14.0">C</tspan></text><text x="-144.0" y="71.5" dominant-baseline="central" fill="black" font-size="14.0" font-family="sans" text-anchor="end"><tspan x="-144.0" dy="14.0">A</tspan></text><text x="-144.0" y="89.5" dominant-baseline="central" fill="black" font-size="14.0" font-family="sans" text-anchor="end"><tspan x="-144.0" dy="14.0">D</tspan></text></svg>