<?xml version="1.0" encoding="utf-8" standalone="no"?>
<!DOCTYPE svg PUBLIC "-//W3C//DTD SVG 1.1//EN"
  "http://www.w3.org/Graphics/SVG/1.1/DTD/svg11.dtd">
<svg xmlns:xlink="http://www.w3.org/1999/xlink" width="99.708pt" height="45.36pt" viewBox="0 0 99.708 45.36" xmlns="http://www.w3.org/2000/svg" version="1.1">
 <metadata>
  <rdf:RDF xmlns:dc="http://purl.org/dc/elements/1.1/" xmlns:cc="http://creativecommons.org/ns#" xmlns:rdf="http://www.w3.org/1999/02/22-rdf-syntax-ns#">
   <cc:Work>
    <dc:type rdf:resource="http://purl.org/dc/dcmitype/StillImage"/>
    <dc:date>2026-03-31T11:00:55.501795</dc:date>
    <dc:format>image/svg+xml</dc:format>
    <dc:creator>
     <cc:Agent>
      <dc:title>Matplotlib v3.10.8, https://matplotlib.org/</dc:title>
     </cc:Agent>
    </dc:creator>
   </cc:Work>
  </rdf:RDF>
 </metadata>
 <defs>
  <style type="text/css">*{stroke-linejoin: round; stroke-linecap: butt}</style>
 </defs>
 <g id="figure_1">
  <g id="patch_1">
   <path d="M 0 45.36 
L 99.708 45.36 
L 99.708 0 
L 0 0 
L 0 45.36 
z
" style="fill: none"/>
  </g>
  <g id="axes_1">
   <g id="patch_2">
    <path d="M 76.008 27 
C 77.153677 27 78.252585 26.544818 79.062701 25.734701 
C 79.872818 24.924585 80.328 23.825677 80.328 22.68 
C 80.328 21.534323 79.872818 20.435415 79.062701 19.625299 
C 78.252585 18.815182 77.153677 18.36 76.008 18.36 
C 74.862323 18.36 73.763415 18.815182 72.953299 19.625299 
C 72.143182 20.435415 71.688 21.534323 71.688 22.68 
C 71.688 23.825677 72.143182 24.924585 72.953299 25.734701 
C 73.763415 26.544818 74.862323 27 76.008 27 
L 76.008 27 
z
" clip-path="url(#pbd0779eace)" style="fill: none; stroke: #333333; stroke-width: 2; stroke-linejoin: miter"/>
   </g>
   <g id="line2d_1">
    <path d="M 53.688 40.68 
L 54.841264 40.643017 
L 55.989789 40.53222 
L 57.128855 40.348065 
L 58.253783 40.091308 
L 59.359948 39.763003 
L 60.442806 39.364502 
L 61.497907 38.89744 
L 62.520916 38.363737 
L 63.507628 37.765586 
L 64.45399 37.105445 
L 65.356111 36.386027 
L 66.210286 35.610288 
L 67.013004 34.781416 
L 67.760967 33.902816 
L 68.451101 32.9781 
L 69.08057 32.011066 
L 69.646788 31.005689 
L 70.147427 29.9661 
L 70.580432 28.896571 
L 70.944021 27.801497 
L 71.236702 26.685377 
L 71.457272 25.552798 
L 71.604824 24.408414 
L 71.678752 23.256928 
L 71.678752 22.103072 
L 71.604824 20.951586 
L 71.457272 19.807202 
L 71.236702 18.674623 
L 70.944021 17.558503 
L 70.580432 16.463429 
L 70.147427 15.3939 
L 69.646788 14.354311 
L 69.08057 13.348934 
L 68.451101 12.3819 
L 67.760967 11.457184 
L 67.013004 10.578584 
L 66.210286 9.749712 
L 65.356111 8.973973 
L 64.45399 8.254555 
L 63.507628 7.594414 
L 62.520916 6.996263 
L 61.497907 6.46256 
L 60.442806 5.995498 
L 59.359948 5.596997 
L 58.253783 5.268692 
L 57.128855 5.011935 
L 55.989789 4.82778 
L 54.841264 4.716983 
L 53.688 4.68 
L 53.688 4.68 
L 30.288 4.68 
L 30.288 22.68 
L 30.288 40.68 
L 53.688 40.68 
" clip-path="url(#pbd0779eace)" style="fill: none; stroke: #333333; stroke-width: 2; stroke-linecap: round"/>
   </g>
   <g id="line2d_2">
    <path d="M 17.688 31.68 
L 30.288 31.68 
" clip-path="url(#pbd0779eace)" style="fill: none; stroke: #333333; stroke-width: 2; stroke-linecap: round"/>
   </g>
   <g id="line2d_3">
    <path d="M 17.688 13.68 
L 30.288 13.68 
" clip-path="url(#pbd0779eace)" style="fill: none; stroke: #333333; stroke-width: 2; stroke-linecap: round"/>
   </g>
   <g id="line2d_4">
    <path d="M 80.328 22.68 
L 84.288 22.68 
" clip-path="url(#pbd0779eace)" style="fill: none; stroke: #333333; stroke-width: 2; stroke-linecap: round"/>
   </g>
   <g id="text_1">
    <text style="font-size: 14px; font-family: 'DejaVu Sans', 'Bitstream Vera Sans', 'Computer Modern Sans Serif', 'Lucida Grande', 'Verdana', 'Geneva', 'Lucid', 'Arial', 'Helvetica', 'Avant Garde', sans-serif; text-anchor: start; fill: #333333" x="87.888" y="26.543125" transform="rotate(-0 87.888 26.543125)">x</text>
   </g>
   <g id="text_2">
    <text style="font-size: 14px; font-family: 'DejaVu Sans', 'Bitstream Vera Sans', 'Computer Modern Sans Serif', 'Lucida Grande', 'Verdana', 'Geneva', 'Lucid', 'Arial', 'Helvetica', 'Avant Garde', sans-serif; text-anchor: end; fill: #333333" x="14.088" y="17.543125" transform="rotate(-0 14.088 17.543125)">A</text>
   </g>
   <g id="text_3">
    <text style="font-size: 14px; font-family: 'DejaVu Sans', 'Bitstream Vera Sans', 'Computer Modern Sans Serif', 'Lucida Grande', 'Verdana', 'Geneva', 'Lucid', 'Arial', 'Helvetica', 'Avant Garde', sans-serif; text-anchor: end; fill: #333333" x="14.088" y="35.543125" transform="rotate(-0 14.088 35.543125)">B</text>
   </g>
  </g>
 </g>
 <defs>
  <clipPath id="pbd0779eace">
   <rect x="0" y="0" width="99.708" height="45.36"/>
  </clipPath>
 </defs>
</svg>
