<?xml version="1.0" encoding="utf-8" standalone="no"?>
<!DOCTYPE svg PUBLIC "-//W3C//DTD SVG 1.1//EN"
  "http://www.w3.org/Graphics/SVG/1.1/DTD/svg11.dtd">
<svg xmlns:xlink="http://www.w3.org/1999/xlink" width="175.776pt" height="58.5pt" viewBox="0 0 175.776 58.5" xmlns="http://www.w3.org/2000/svg" version="1.1">
 <metadata>
  <rdf:RDF xmlns:dc="http://purl.org/dc/elements/1.1/" xmlns:cc="http://creativecommons.org/ns#" xmlns:rdf="http://www.w3.org/1999/02/22-rdf-syntax-ns#">
   <cc:Work>
    <dc:type rdf:resource="http://purl.org/dc/dcmitype/StillImage"/>
    <dc:date>2026-03-31T11:00:53.145853</dc:date>
    <dc:format>image/svg+xml</dc:format>
    <dc:creator>
     <cc:Agent>
      <dc:title>Matplotlib v3.10.8, https://matplotlib.org/</dc:title>
     </cc:Agent>
    </dc:creator>
   </cc:Work>
  </rdf:RDF>
 </metadata>
 <defs>
  <style type="text/css">*{stroke-linejoin: round; stroke-linecap: butt}</style>
 </defs>
 <g id="figure_1">
  <g id="patch_1">
   <path d="M 0 58.5 
L 175.776 58.5 
L 175.776 0 
L 0 0 
L 0 58.5 
z
" style="fill: none"/>
  </g>
  <g id="axes_1">
   <g id="line2d_1">
    <path d="M 127.488 53.82 
L 128.641264 53.783017 
L 129.789789 53.67222 
L 130.928855 53.488065 
L 132.053783 53.231308 
L 133.159948 52.903003 
L 134.242806 52.504502 
L 135.297907 52.03744 
L 136.320916 51.503737 
L 137.307628 50.905586 
L 138.25399 50.245445 
L 139.156111 49.526027 
L 140.010286 48.750288 
L 140.813004 47.921416 
L 141.560967 47.042816 
L 142.251101 46.1181 
L 142.88057 45.151066 
L 143.446788 44.145689 
L 143.947427 43.1061 
L 144.380432 42.036571 
L 144.744021 40.941497 
L 145.036702 39.825377 
L 145.257272 38.692798 
L 145.404824 37.548414 
L 145.478752 36.396928 
L 145.478752 35.243072 
L 145.404824 34.091586 
L 145.257272 32.947202 
L 145.036702 31.814623 
L 144.744021 30.698503 
L 144.380432 29.603429 
L 143.947427 28.5339 
L 143.446788 27.494311 
L 142.88057 26.488934 
L 142.251101 25.5219 
L 141.560967 24.597184 
L 140.813004 23.718584 
L 140.010286 22.889712 
L 139.156111 22.113973 
L 138.25399 21.394555 
L 137.307628 20.734414 
L 136.320916 20.136263 
L 135.297907 19.60256 
L 134.242806 19.135498 
L 133.159948 18.736997 
L 132.053783 18.408692 
L 130.928855 18.151935 
L 129.789789 17.96778 
L 128.641264 17.856983 
L 127.488 17.82 
L 127.488 17.82 
L 104.088 17.82 
L 104.088 35.82 
L 104.088 53.82 
L 127.488 53.82 
" clip-path="url(#pb2749f4c55)" style="fill: none; stroke: #333333; stroke-width: 2; stroke-linecap: round"/>
   </g>
   <g id="line2d_2">
    <path d="M 91.488 44.82 
L 104.088 44.82 
" clip-path="url(#pb2749f4c55)" style="fill: none; stroke: #333333; stroke-width: 2; stroke-linecap: round"/>
   </g>
   <g id="line2d_3">
    <path d="M 91.488 26.82 
L 104.088 26.82 
" clip-path="url(#pb2749f4c55)" style="fill: none; stroke: #333333; stroke-width: 2; stroke-linecap: round"/>
   </g>
   <g id="line2d_4">
    <path d="M 145.488 35.82 
L 158.088 35.82 
" clip-path="url(#pb2749f4c55)" style="fill: none; stroke: #333333; stroke-width: 2; stroke-linecap: round"/>
   </g>
   <g id="line2d_5">
    <path d="M 30.288 39.96 
L 49.830857 39.893878 
L 51.888 39.6 
L 53.945143 39.07102 
L 56.002286 38.306939 
L 58.059429 37.307755 
L 60.116571 36.073469 
L 62.173714 34.604082 
L 64.230857 32.899592 
L 66.802286 30.438367 
L 69.373714 27.609796 
L 71.945143 24.413878 
L 73.488 22.32 
L 73.488 22.32 
L 70.916571 18.903673 
L 68.345143 15.854694 
L 65.773714 13.173061 
L 63.202286 10.858776 
L 61.145143 9.271837 
L 59.088 7.92 
L 57.030857 6.803265 
L 54.973714 5.921633 
L 52.916571 5.275102 
L 50.859429 4.863673 
L 48.802286 4.687347 
L 48.288 4.68 
L 30.288 4.68 
L 30.288 4.68 
L 32.2752 6.84 
L 34.0032 9 
L 35.472 11.16 
L 36.6816 13.32 
L 37.632 15.48 
L 38.3232 17.64 
L 38.7552 19.8 
L 38.928 21.96 
L 38.8416 24.12 
L 38.496 26.28 
L 37.8912 28.44 
L 37.0272 30.6 
L 35.904 32.76 
L 34.5216 34.92 
L 32.88 37.08 
L 30.9792 39.24 
L 30.288 39.96 
L 30.288 39.96 
" clip-path="url(#pb2749f4c55)" style="fill: none; stroke: #333333; stroke-width: 2; stroke-linecap: round"/>
   </g>
   <g id="line2d_6">
    <path d="M 17.688 31.32 
L 36.6816 31.32 
" clip-path="url(#pb2749f4c55)" style="fill: none; stroke: #333333; stroke-width: 2; stroke-linecap: round"/>
   </g>
   <g id="line2d_7">
    <path d="M 17.688 13.32 
L 36.6816 13.32 
" clip-path="url(#pb2749f4c55)" style="fill: none; stroke: #333333; stroke-width: 2; stroke-linecap: round"/>
   </g>
   <g id="line2d_8">
    <path d="M 73.488 22.32 
L 86.088 22.32 
" clip-path="url(#pb2749f4c55)" style="fill: none; stroke: #333333; stroke-width: 2; stroke-linecap: round"/>
   </g>
   <g id="line2d_9">
    <path d="M 91.488 26.82 
L 86.088 26.82 
L 86.088 22.32 
" clip-path="url(#pb2749f4c55)" style="fill: none; stroke: #000000; stroke-width: 2; stroke-linecap: round"/>
   </g>
   <g id="text_1">
    <text style="font-size: 14px; font-family: 'DejaVu Sans', 'Bitstream Vera Sans', 'Computer Modern Sans Serif', 'Lucida Grande', 'Verdana', 'Geneva', 'Lucid', 'Arial', 'Helvetica', 'Avant Garde', sans-serif; text-anchor: start; fill: #333333" x="161.688" y="39.683125" transform="rotate(-0 161.688 39.683125)">S</text>
   </g>
   <g id="text_2">
    <text style="font-size: 14px; font-family: 'DejaVu Sans', 'Bitstream Vera Sans', 'Computer Modern Sans Serif', 'Lucida Grande', 'Verdana', 'Geneva', 'Lucid', 'Arial', 'Helvetica', 'Avant Garde', sans-serif; text-anchor: end; fill: #333333" x="87.888" y="48.683125" transform="rotate(-0 87.888 48.683125)">C</text>
   </g>
   <g id="text_3">
    <text style="font-size: 14px; font-family: 'DejaVu Sans', 'Bitstream Vera Sans', 'Computer Modern Sans Serif', 'Lucida Grande', 'Verdana', 'Geneva', 'Lucid', 'Arial', 'Helvetica', 'Avant Garde', sans-serif; text-anchor: end; fill: #333333" x="14.088" y="17.183125" transform="rotate(-0 14.088 17.183125)">A</text>
   </g>
   <g id="text_4">
    <text style="font-size: 14px; font-family: 'DejaVu Sans', 'Bitstream Vera Sans', 'Computer Modern Sans Serif', 'Lucida Grande', 'Verdana', 'Geneva', 'Lucid', 'Arial', 'Helvetica', 'Avant Garde', sans-serif; text-anchor: end; fill: #333333" x="14.088" y="35.183125" transform="rotate(-0 14.088 35.183125)">B</text>
   </g>
  </g>
 </g>
 <defs>
  <clipPath id="pb2749f4c55">
   <rect x="0" y="0" width="175.776" height="58.5"/>
  </clipPath>
 </defs>
</svg>
