<?xml version="1.0" encoding="utf-8" standalone="no"?>
<!DOCTYPE svg PUBLIC "-//W3C//DTD SVG 1.1//EN"
  "http://www.w3.org/Graphics/SVG/1.1/DTD/svg11.dtd">
<svg xmlns:xlink="http://www.w3.org/1999/xlink" width="171.708pt" height="99.36pt" viewBox="0 0 171.708 99.36" xmlns="http://www.w3.org/2000/svg" version="1.1">
 <metadata>
  <rdf:RDF xmlns:dc="http://purl.org/dc/elements/1.1/" xmlns:cc="http://creativecommons.org/ns#" xmlns:rdf="http://www.w3.org/1999/02/22-rdf-syntax-ns#">
   <cc:Work>
    <dc:type rdf:resource="http://purl.org/dc/dcmitype/StillImage"/>
    <dc:date>2026-03-29T21:23:03.897558</dc:date>
    <dc:format>image/svg+xml</dc:format>
    <dc:creator>
     <cc:Agent>
      <dc:title>Matplotlib v3.10.8, https://matplotlib.org/</dc:title>
     </cc:Agent>
    </dc:creator>
   </cc:Work>
  </rdf:RDF>
 </metadata>
 <defs>
  <style type="text/css">*{stroke-linejoin: round; stroke-linecap: butt}</style>
 </defs>
 <g id="figure_1">
  <g id="patch_1">
   <path d="M 0 99.36 
L 171.708 99.36 
L 171.708 0 
L 0 0 
L 0 99.36 
z
" style="fill: none"/>
  </g>
  <g id="axes_1">
   <g id="line2d_1">
    <path d="M 100.488 67.32 
L 120.030857 67.253878 
L 122.088 66.96 
L 124.145143 66.43102 
L 126.202286 65.666939 
L 128.259429 64.667755 
L 130.316571 63.433469 
L 132.373714 61.964082 
L 134.430857 60.259592 
L 137.002286 57.798367 
L 139.573714 54.969796 
L 142.145143 51.773878 
L 143.688 49.68 
L 143.688 49.68 
L 141.116571 46.263673 
L 138.545143 43.214694 
L 135.973714 40.533061 
L 133.402286 38.218776 
L 131.345143 36.631837 
L 129.288 35.28 
L 127.230857 34.163265 
L 125.173714 33.281633 
L 123.116571 32.635102 
L 121.059429 32.223673 
L 119.002286 32.047347 
L 118.488 32.04 
L 100.488 32.04 
L 100.488 32.04 
L 102.4752 34.2 
L 104.2032 36.36 
L 105.672 38.52 
L 106.8816 40.68 
L 107.832 42.84 
L 108.5232 45 
L 108.9552 47.16 
L 109.128 49.32 
L 109.0416 51.48 
L 108.696 53.64 
L 108.0912 55.8 
L 107.2272 57.96 
L 106.104 60.12 
L 104.7216 62.28 
L 103.08 64.44 
L 101.1792 66.6 
L 100.488 67.32 
L 100.488 67.32 
" clip-path="url(#p76acd17b80)" style="fill: none; stroke: #000000; stroke-width: 2; stroke-linecap: round"/>
   </g>
   <g id="line2d_2">
    <path d="M 87.888 58.68 
L 106.8816 58.68 
" clip-path="url(#p76acd17b80)" style="fill: none; stroke: #000000; stroke-width: 2; stroke-linecap: round"/>
   </g>
   <g id="line2d_3">
    <path d="M 87.888 40.68 
L 106.8816 40.68 
" clip-path="url(#p76acd17b80)" style="fill: none; stroke: #000000; stroke-width: 2; stroke-linecap: round"/>
   </g>
   <g id="line2d_4">
    <path d="M 143.688 49.68 
L 156.288 49.68 
" clip-path="url(#p76acd17b80)" style="fill: none; stroke: #000000; stroke-width: 2; stroke-linecap: round"/>
   </g>
   <g id="line2d_5">
    <path d="M 53.688 40.68 
L 54.841264 40.643017 
L 55.989789 40.53222 
L 57.128855 40.348065 
L 58.253783 40.091308 
L 59.359948 39.763003 
L 60.442806 39.364502 
L 61.497907 38.89744 
L 62.520916 38.363737 
L 63.507628 37.765586 
L 64.45399 37.105445 
L 65.356111 36.386027 
L 66.210286 35.610288 
L 67.013004 34.781416 
L 67.760967 33.902816 
L 68.451101 32.9781 
L 69.08057 32.011066 
L 69.646788 31.005689 
L 70.147427 29.9661 
L 70.580432 28.896571 
L 70.944021 27.801497 
L 71.236702 26.685377 
L 71.457272 25.552798 
L 71.604824 24.408414 
L 71.678752 23.256928 
L 71.678752 22.103072 
L 71.604824 20.951586 
L 71.457272 19.807202 
L 71.236702 18.674623 
L 70.944021 17.558503 
L 70.580432 16.463429 
L 70.147427 15.3939 
L 69.646788 14.354311 
L 69.08057 13.348934 
L 68.451101 12.3819 
L 67.760967 11.457184 
L 67.013004 10.578584 
L 66.210286 9.749712 
L 65.356111 8.973973 
L 64.45399 8.254555 
L 63.507628 7.594414 
L 62.520916 6.996263 
L 61.497907 6.46256 
L 60.442806 5.995498 
L 59.359948 5.596997 
L 58.253783 5.268692 
L 57.128855 5.011935 
L 55.989789 4.82778 
L 54.841264 4.716983 
L 53.688 4.68 
L 53.688 4.68 
L 30.288 4.68 
L 30.288 22.68 
L 30.288 40.68 
L 53.688 40.68 
" clip-path="url(#p76acd17b80)" style="fill: none; stroke: #000000; stroke-width: 2; stroke-linecap: round"/>
   </g>
   <g id="line2d_6">
    <path d="M 17.688 31.68 
L 30.288 31.68 
" clip-path="url(#p76acd17b80)" style="fill: none; stroke: #000000; stroke-width: 2; stroke-linecap: round"/>
   </g>
   <g id="line2d_7">
    <path d="M 17.688 13.68 
L 30.288 13.68 
" clip-path="url(#p76acd17b80)" style="fill: none; stroke: #000000; stroke-width: 2; stroke-linecap: round"/>
   </g>
   <g id="line2d_8">
    <path d="M 71.688 22.68 
L 84.288 22.68 
" clip-path="url(#p76acd17b80)" style="fill: none; stroke: #000000; stroke-width: 2; stroke-linecap: round"/>
   </g>
   <g id="line2d_9">
    <path d="M 87.888 40.68 
L 84.288 40.68 
L 84.288 22.68 
" clip-path="url(#p76acd17b80)" style="fill: none; stroke: #000000; stroke-width: 2; stroke-linecap: round"/>
   </g>
   <g id="line2d_10">
    <path d="M 53.688 94.68 
L 54.841264 94.643017 
L 55.989789 94.53222 
L 57.128855 94.348065 
L 58.253783 94.091308 
L 59.359948 93.763003 
L 60.442806 93.364502 
L 61.497907 92.89744 
L 62.520916 92.363737 
L 63.507628 91.765586 
L 64.45399 91.105445 
L 65.356111 90.386027 
L 66.210286 89.610288 
L 67.013004 88.781416 
L 67.760967 87.902816 
L 68.451101 86.9781 
L 69.08057 86.011066 
L 69.646788 85.005689 
L 70.147427 83.9661 
L 70.580432 82.896571 
L 70.944021 81.801497 
L 71.236702 80.685377 
L 71.457272 79.552798 
L 71.604824 78.408414 
L 71.678752 77.256928 
L 71.678752 76.103072 
L 71.604824 74.951586 
L 71.457272 73.807202 
L 71.236702 72.674623 
L 70.944021 71.558503 
L 70.580432 70.463429 
L 70.147427 69.3939 
L 69.646788 68.354311 
L 69.08057 67.348934 
L 68.451101 66.3819 
L 67.760967 65.457184 
L 67.013004 64.578584 
L 66.210286 63.749712 
L 65.356111 62.973973 
L 64.45399 62.254555 
L 63.507628 61.594414 
L 62.520916 60.996263 
L 61.497907 60.46256 
L 60.442806 59.995498 
L 59.359948 59.596997 
L 58.253783 59.268692 
L 57.128855 59.011935 
L 55.989789 58.82778 
L 54.841264 58.716983 
L 53.688 58.68 
L 53.688 58.68 
L 30.288 58.68 
L 30.288 76.68 
L 30.288 94.68 
L 53.688 94.68 
" clip-path="url(#p76acd17b80)" style="fill: none; stroke: #000000; stroke-width: 2; stroke-linecap: round"/>
   </g>
   <g id="line2d_11">
    <path d="M 17.688 85.68 
L 30.288 85.68 
" clip-path="url(#p76acd17b80)" style="fill: none; stroke: #000000; stroke-width: 2; stroke-linecap: round"/>
   </g>
   <g id="line2d_12">
    <path d="M 17.688 67.68 
L 30.288 67.68 
" clip-path="url(#p76acd17b80)" style="fill: none; stroke: #000000; stroke-width: 2; stroke-linecap: round"/>
   </g>
   <g id="line2d_13">
    <path d="M 71.688 76.68 
L 84.288 76.68 
" clip-path="url(#p76acd17b80)" style="fill: none; stroke: #000000; stroke-width: 2; stroke-linecap: round"/>
   </g>
   <g id="line2d_14">
    <path d="M 87.888 58.68 
L 84.288 58.68 
L 84.288 76.68 
" clip-path="url(#p76acd17b80)" style="fill: none; stroke: #000000; stroke-width: 2; stroke-linecap: round"/>
   </g>
   <g id="text_1">
    <text style="font-size: 14px; font-family: 'DejaVu Sans', 'Bitstream Vera Sans', 'Computer Modern Sans Serif', 'Lucida Grande', 'Verdana', 'Geneva', 'Lucid', 'Arial', 'Helvetica', 'Avant Garde', sans-serif; text-anchor: start" x="159.888" y="53.543125" transform="rotate(-0 159.888 53.543125)">x</text>
   </g>
   <g id="text_2">
    <text style="font-size: 14px; font-family: 'DejaVu Sans', 'Bitstream Vera Sans', 'Computer Modern Sans Serif', 'Lucida Grande', 'Verdana', 'Geneva', 'Lucid', 'Arial', 'Helvetica', 'Avant Garde', sans-serif; text-anchor: end" x="14.088" y="17.543125" transform="rotate(-0 14.088 17.543125)">A</text>
   </g>
   <g id="text_3">
    <text style="font-size: 14px; font-family: 'DejaVu Sans', 'Bitstream Vera Sans', 'Computer Modern Sans Serif', 'Lucida Grande', 'Verdana', 'Geneva', 'Lucid', 'Arial', 'Helvetica', 'Avant Garde', sans-serif; text-anchor: end" x="14.088" y="35.543125" transform="rotate(-0 14.088 35.543125)">B</text>
   </g>
   <g id="text_4">
    <text style="font-size: 14px; font-family: 'DejaVu Sans', 'Bitstream Vera Sans', 'Computer Modern Sans Serif', 'Lucida Grande', 'Verdana', 'Geneva', 'Lucid', 'Arial', 'Helvetica', 'Avant Garde', sans-serif; text-anchor: end" x="14.088" y="71.543125" transform="rotate(-0 14.088 71.543125)">C</text>
   </g>
   <g id="text_5">
    <text style="font-size: 14px; font-family: 'DejaVu Sans', 'Bitstream Vera Sans', 'Computer Modern Sans Serif', 'Lucida Grande', 'Verdana', 'Geneva', 'Lucid', 'Arial', 'Helvetica', 'Avant Garde', sans-serif; text-anchor: end" x="14.088" y="89.543125" transform="rotate(-0 14.088 89.543125)">D</text>
   </g>
  </g>
 </g>
 <defs>
  <clipPath id="p76acd17b80">
   <rect x="0" y="-0" width="171.708" height="99.36"/>
  </clipPath>
 </defs>
</svg>
