<svg xmlns="http://www.w3.org/2000/svg" xmlns:xlink="http://www.w3.org/1999/xlink" xml:lang="en" height="58.34pt" width="317.348pt" viewBox="-302.008 -8.740000000000004 317.348 58.34"><path d="M -30.6,45.0 L -29.446736040347172,44.96301706950605 L -28.298211089678894,44.852220248818426 L -27.1591446833753,44.668064825839174 L -26.03421748962887,44.41130753470253 L -24.928052075574826,44.08300344619204 L -23.84519391217127,43.68450163222839 L -22.790092695883956,43.217439622243546 L -21.767084063929126,42.68373667422101 L -20.780371778210124,42.08558588805314 L -19.83401045115812,41.425445193623226 L -18.931888884459806,40.70602725064442 L -18.077714089137253,39.9302883017591 L -17.274996052644326,39.10141602470371 L -16.527033315575473,38.2228164334572 L -15.83689941725479,37.298099882199054 L -15.207430265903778,36.33106622958945 L -14.641212485286,35.325689224335036 L -14.140572785715374,34.28610017620309 L -13.70756840310431,33.216570979583544 L -13.343978645340105,32.12149655935859 L -13.05129758072718,31.005376811213658 L -12.830727898539898,29.872798110600826 L -12.683175966914435,28.728414466338272 L -12.609248108387625,27.576928396289794 L -12.609248108387625,26.42307160371021 L -12.683175966914435,25.27158553366173 L -12.830727898539898,24.127201889399178 L -13.05129758072718,22.994623188786342 L -13.343978645340105,21.878503440641417 L -13.70756840310431,20.783429020416463 L -14.140572785715374,19.713899823796915 L -14.641212485286,18.674310775664964 L -15.207430265903778,17.66893377041055 L -15.83689941725479,16.70190011780095 L -16.527033315575473,15.777183566542798 L -17.274996052644326,14.898583975296301 L -18.077714089137245,14.069711698240905 L -18.931888884459806,13.293972749355584 L -19.834010451158107,12.574554806376781 L -20.780371778210124,11.914414111946874 L -21.767084063929126,11.316263325778994 L -22.790092695883956,10.782560377756456 L -23.84519391217127,10.31549836777161 L -24.928052075574826,9.916996553807964 L -26.03421748962887,9.588692465297472 L -27.1591446833753,9.331935174160824 L -28.298211089678887,9.14777975118157 L -29.446736040347165,9.036982930493945 L -30.6,9.0 L -30.6,9.0 L -54.0,9.0 L -54.0,27.0 L -54.0,45.0 L -30.6,45.0" style="stroke:black;fill:none;stroke-width:2.0;stroke-dasharray:-;stroke-linecap:round;stroke-linejoin:round;" /><path d="M -66.60000000000001,36.0 L -54.0,36.0" style="stroke:black;fill:none;stroke-width:2.0;stroke-dasharray:-;stroke-linecap:round;stroke-linejoin:round;" /><path d="M -66.60000000000001,18.0 L -54.0,18.0" style="stroke:black;fill:none;stroke-width:2.0;stroke-dasharray:-;stroke-linecap:round;stroke-linejoin:round;" /><path d="M -12.600000000000003,27.0 L 0.0,27.0" style="stroke:black;fill:none;stroke-width:2.0;stroke-dasharray:-;stroke-linecap:round;stroke-linejoin:round;" /><path d="M -127.80000000000001,31.140000000000004 L -109.80000000000001,31.140000000000004 L -109.28571428571429,31.132653061224495 L -108.77142857142859,31.11061224489796 L -108.25714285714287,31.07387755102041 L -107.74285714285716,31.022448979591843 L -107.22857142857144,30.956326530612245 L -106.71428571428572,30.875510204081635 L -106.2,30.780000000000005 L -105.6857142857143,30.66979591836735 L -105.17142857142858,30.54489795918368 L -104.65714285714287,30.405306122448984 L -104.14285714285715,30.251020408163267 L -103.62857142857145,30.082040816326533 L -103.11428571428573,29.89836734693878 L -102.60000000000002,29.700000000000003 L -102.0857142857143,29.486938775510207 L -101.57142857142858,29.259183673469387 L -101.05714285714286,29.016734693877552 L -100.54285714285716,28.759591836734696 L -100.02857142857144,28.487755102040822 L -99.51428571428573,28.201224489795923 L -99.00000000000001,27.900000000000006 L -98.48571428571431,27.584081632653067 L -97.97142857142858,27.253469387755107 L -97.45714285714286,26.90816326530613 L -96.94285714285715,26.548163265306126 L -96.42857142857144,26.173469387755105 L -95.91428571428573,25.784081632653063 L -95.4,25.380000000000003 L -94.8857142857143,24.96122448979592 L -94.3714285714286,24.527755102040818 L -93.85714285714288,24.079591836734696 L -93.34285714285716,23.616734693877554 L -92.82857142857144,23.13918367346939 L -92.31428571428572,22.646938775510208 L -91.80000000000001,22.140000000000004 L -91.28571428571429,21.618367346938776 L -90.77142857142859,21.082040816326533 L -90.25714285714287,20.531020408163265 L -89.74285714285716,19.965306122448986 L -89.22857142857143,19.384897959183675 L -88.71428571428572,18.789795918367346 L -88.2,18.18 L -87.6857142857143,17.555510204081635 L -87.17142857142858,16.916326530612245 L -86.65714285714287,16.262448979591838 L -86.14285714285715,15.593877551020407 L -85.62857142857145,14.91061224489796 L -85.11428571428573,14.212653061224492 L -84.60000000000001,13.5 L -84.60000000000001,13.5 L -85.11428571428573,12.787346938775508 L -85.62857142857145,12.08938775510204 L -86.14285714285715,11.406122448979593 L -86.65714285714287,10.737551020408162 L -87.17142857142858,10.083673469387756 L -87.6857142857143,9.444489795918365 L -88.2,8.82 L -88.71428571428572,8.210204081632652 L -89.22857142857143,7.615102040816326 L -89.74285714285716,7.034693877551017 L -90.25714285714287,6.468979591836734 L -90.77142857142859,5.917959183673466 L -91.28571428571429,5.381632653061223 L -91.80000000000001,4.859999999999996 L -92.31428571428572,4.353061224489794 L -92.82857142857144,3.8608163265306104 L -93.34285714285716,3.3832653061224476 L -93.85714285714288,2.920408163265303 L -94.3714285714286,2.4722448979591816 L -94.8857142857143,2.03877551020408 L -95.4,1.6199999999999974 L -95.91428571428573,1.2159183673469354 L -96.42857142857144,0.8265306122448939 L -96.94285714285715,0.451836734693873 L -97.45714285714286,0.09183673469387466 L -97.97142857142858,-0.2534693877551051 L -98.48571428571431,-0.5840816326530642 L -99.00000000000001,-0.9000000000000028 L -99.51428571428573,-1.2012244897959208 L -100.02857142857144,-1.4877551020408202 L -100.54285714285716,-1.759591836734697 L -101.05714285714286,-2.016734693877553 L -101.57142857142858,-2.2591836734693906 L -102.0857142857143,-2.486938775510208 L -102.60000000000002,-2.7000000000000024 L -103.11428571428573,-2.8983673469387785 L -103.62857142857145,-3.0820408163265336 L -104.14285714285715,-3.251020408163268 L -104.65714285714287,-3.4053061224489825 L -105.17142857142858,-3.544897959183678 L -105.6857142857143,-3.6697959183673508 L -106.2,-3.7800000000000034 L -106.71428571428572,-3.875510204081637 L -107.22857142857144,-3.956326530612248 L -107.74285714285716,-4.022448979591841 L -108.25714285714287,-4.073877551020411 L -108.77142857142859,-4.110612244897963 L -109.28571428571429,-4.132653061224493 L -109.80000000000001,-4.140000000000004 L -127.80000000000001,-4.140000000000004 L -127.80000000000001,-4.140000000000004 L -127.1088,-3.420000000000003 L -126.44640000000001,-2.7000000000000024 L -125.81280000000002,-1.9800000000000018 L -125.20800000000001,-1.2600000000000011 L -124.632,-0.5400000000000005 L -124.08480000000002,0.17999999999999616 L -123.56640000000002,0.8999999999999968 L -123.0768,1.6199999999999974 L -122.61600000000001,2.339999999999998 L -122.184,3.0599999999999987 L -121.78080000000001,3.7799999999999994 L -121.4064,4.5 L -121.06080000000001,5.219999999999997 L -120.744,5.939999999999998 L -120.456,6.659999999999998 L -120.19680000000001,7.379999999999999 L -119.96640000000001,8.1 L -119.76480000000001,8.82 L -119.592,9.540000000000001 L -119.44800000000002,10.260000000000002 L -119.33280000000002,10.980000000000002 L -119.24640000000001,11.7 L -119.18880000000001,12.419999999999998 L -119.16000000000003,13.14 L -119.16000000000003,13.86 L -119.18880000000001,14.580000000000002 L -119.24640000000001,15.3 L -119.33280000000002,16.02 L -119.44800000000002,16.740000000000002 L -119.592,17.46 L -119.76480000000001,18.18 L -119.96640000000001,18.900000000000002 L -120.19680000000001,19.62 L -120.456,20.340000000000003 L -120.744,21.060000000000002 L -121.0608,21.78 L -121.4064,22.5 L -121.78080000000001,23.22 L -122.184,23.94 L -122.61600000000001,24.660000000000004 L -123.0768,25.380000000000003 L -123.56640000000002,26.1 L -124.08480000000002,26.820000000000004 L -124.632,27.540000000000006 L -125.20800000000003,28.260000000000005 L -125.81280000000002,28.980000000000004 L -126.44640000000001,29.700000000000003 L -127.1088,30.42 L -127.80000000000001,31.140000000000004" style="stroke:black;fill:none;stroke-width:2.0;stroke-dasharray:-;stroke-linecap:round;stroke-linejoin:round;" /><path d="M -140.4,22.5 L -121.4064,22.5" style="stroke:black;fill:none;stroke-width:2.0;stroke-dasharray:-;stroke-linecap:round;stroke-linejoin:round;" /><path d="M -140.4,4.5 L -121.4064,4.5" style="stroke:black;fill:none;stroke-width:2.0;stroke-dasharray:-;stroke-linecap:round;stroke-linejoin:round;" /><path d="M -84.60000000000001,13.5 L -72.0,13.5" style="stroke:black;fill:none;stroke-width:2.0;stroke-dasharray:-;stroke-linecap:round;stroke-linejoin:round;" /><path d="M -174.6,45.0 L -173.44673604034716,44.96301706950605 L -172.2982110896789,44.852220248818426 L -171.1591446833753,44.668064825839174 L -170.03421748962887,44.41130753470253 L -168.9280520755748,44.08300344619204 L -167.84519391217128,43.68450163222839 L -166.79009269588394,43.217439622243546 L -165.76708406392913,42.68373667422101 L -164.7803717782101,42.08558588805314 L -163.83401045115812,41.425445193623226 L -162.9318888844598,40.70602725064442 L -162.07771408913723,39.9302883017591 L -161.27499605264433,39.10141602470371 L -160.52703331557547,38.2228164334572 L -159.8368994172548,37.298099882199054 L -159.20743026590378,36.33106622958945 L -158.641212485286,35.325689224335036 L -158.14057278571536,34.28610017620309 L -157.70756840310432,33.216570979583544 L -157.34397864534012,32.12149655935859 L -157.05129758072718,31.005376811213658 L -156.8307278985399,29.872798110600826 L -156.6831759669144,28.728414466338272 L -156.60924810838762,27.576928396289794 L -156.60924810838762,26.42307160371021 L -156.6831759669144,25.27158553366173 L -156.8307278985399,24.127201889399178 L -157.05129758072718,22.994623188786342 L -157.34397864534012,21.878503440641417 L -157.70756840310432,20.783429020416463 L -158.14057278571536,19.713899823796915 L -158.641212485286,18.674310775664964 L -159.20743026590378,17.66893377041055 L -159.8368994172548,16.70190011780095 L -160.52703331557547,15.777183566542798 L -161.27499605264433,14.898583975296301 L -162.07771408913723,14.069711698240905 L -162.9318888844598,13.293972749355584 L -163.83401045115812,12.574554806376781 L -164.7803717782101,11.914414111946874 L -165.76708406392913,11.316263325778994 L -166.79009269588394,10.782560377756456 L -167.84519391217128,10.31549836777161 L -168.9280520755748,9.916996553807964 L -170.03421748962887,9.588692465297472 L -171.1591446833753,9.331935174160824 L -172.2982110896789,9.14777975118157 L -173.44673604034716,9.036982930493945 L -174.6,9.0 L -174.6,9.0 L -198.0,9.0 L -198.0,27.0 L -198.0,45.0 L -174.6,45.0" style="stroke:black;fill:none;stroke-width:2.0;stroke-dasharray:-;stroke-linecap:round;stroke-linejoin:round;" /><path d="M -210.6,36.0 L -198.0,36.0" style="stroke:black;fill:none;stroke-width:2.0;stroke-dasharray:-;stroke-linecap:round;stroke-linejoin:round;" /><path d="M -210.6,18.0 L -198.0,18.0" style="stroke:black;fill:none;stroke-width:2.0;stroke-dasharray:-;stroke-linecap:round;stroke-linejoin:round;" /><path d="M -156.6,27.0 L -144.0,27.0" style="stroke:black;fill:none;stroke-width:2.0;stroke-dasharray:-;stroke-linecap:round;stroke-linejoin:round;" /><path d="M -271.8,31.140000000000004 L -253.8,31.140000000000004 L -253.2857142857143,31.132653061224495 L -252.7714285714286,31.11061224489796 L -252.2571428571429,31.07387755102041 L -251.74285714285713,31.022448979591843 L -251.22857142857143,30.956326530612245 L -250.71428571428572,30.875510204081635 L -250.20000000000002,30.780000000000005 L -249.68571428571428,30.66979591836735 L -249.17142857142858,30.54489795918368 L -248.65714285714287,30.405306122448984 L -248.14285714285717,30.251020408163267 L -247.62857142857143,30.082040816326533 L -247.11428571428573,29.89836734693878 L -246.60000000000002,29.700000000000003 L -246.08571428571432,29.486938775510207 L -245.57142857142856,29.259183673469387 L -245.05714285714285,29.016734693877552 L -244.54285714285714,28.759591836734696 L -244.0285714285714,28.487755102040822 L -243.5142857142857,28.201224489795923 L -243.0,27.900000000000006 L -242.4857142857143,27.584081632653067 L -241.9714285714286,27.253469387755107 L -241.45714285714286,26.90816326530613 L -240.94285714285715,26.548163265306126 L -240.42857142857144,26.173469387755105 L -239.9142857142857,25.784081632653063 L -239.4,25.380000000000003 L -238.8857142857143,24.96122448979592 L -238.3714285714286,24.527755102040818 L -237.8571428571429,24.079591836734696 L -237.34285714285716,23.616734693877554 L -236.82857142857145,23.13918367346939 L -236.31428571428575,22.646938775510208 L -235.8,22.140000000000004 L -235.2857142857143,21.618367346938776 L -234.7714285714286,21.082040816326533 L -234.2571428571429,20.531020408163265 L -233.7428571428572,19.965306122448986 L -233.22857142857143,19.384897959183675 L -232.71428571428572,18.789795918367346 L -232.20000000000002,18.18 L -231.68571428571428,17.555510204081635 L -231.17142857142858,16.916326530612245 L -230.65714285714287,16.262448979591838 L -230.14285714285717,15.593877551020407 L -229.62857142857143,14.91061224489796 L -229.11428571428573,14.212653061224492 L -228.6,13.5 L -228.6,13.5 L -229.11428571428573,12.787346938775508 L -229.62857142857143,12.08938775510204 L -230.14285714285717,11.406122448979593 L -230.65714285714287,10.737551020408162 L -231.17142857142858,10.083673469387756 L -231.68571428571428,9.444489795918365 L -232.20000000000002,8.82 L -232.71428571428572,8.210204081632652 L -233.22857142857143,7.615102040816326 L -233.7428571428572,7.034693877551017 L -234.2571428571429,6.468979591836734 L -234.7714285714286,5.917959183673466 L -235.2857142857143,5.381632653061223 L -235.8,4.859999999999996 L -236.31428571428575,4.353061224489794 L -236.82857142857145,3.8608163265306104 L -237.34285714285716,3.3832653061224476 L -237.8571428571429,2.920408163265303 L -238.3714285714286,2.4722448979591816 L -238.8857142857143,2.03877551020408 L -239.4,1.6199999999999974 L -239.9142857142857,1.2159183673469354 L -240.42857142857144,0.8265306122448939 L -240.94285714285715,0.451836734693873 L -241.45714285714286,0.09183673469387466 L -241.9714285714286,-0.2534693877551051 L -242.4857142857143,-0.5840816326530642 L -243.0,-0.9000000000000028 L -243.5142857142857,-1.2012244897959208 L -244.0285714285714,-1.4877551020408202 L -244.54285714285714,-1.759591836734697 L -245.05714285714285,-2.016734693877553 L -245.57142857142856,-2.2591836734693906 L -246.08571428571432,-2.486938775510208 L -246.60000000000002,-2.7000000000000024 L -247.11428571428573,-2.8983673469387785 L -247.62857142857143,-3.0820408163265336 L -248.14285714285717,-3.251020408163268 L -248.65714285714287,-3.4053061224489825 L -249.17142857142858,-3.544897959183678 L -249.68571428571428,-3.6697959183673508 L -250.20000000000002,-3.7800000000000034 L -250.71428571428572,-3.875510204081637 L -251.22857142857143,-3.956326530612248 L -251.74285714285713,-4.022448979591841 L -252.2571428571429,-4.073877551020411 L -252.7714285714286,-4.110612244897963 L -253.2857142857143,-4.132653061224493 L -253.8,-4.140000000000004 L -271.8,-4.140000000000004 L -271.8,-4.140000000000004 L -271.10880000000003,-3.420000000000003 L -270.44640000000004,-2.7000000000000024 L -269.81280000000004,-1.9800000000000018 L -269.20799999999997,-1.2600000000000011 L -268.632,-0.5400000000000005 L -268.08480000000003,0.17999999999999616 L -267.5664,0.8999999999999968 L -267.0768,1.6199999999999974 L -266.61600000000004,2.339999999999998 L -266.184,3.0599999999999987 L -265.7808,3.7799999999999994 L -265.4064,4.5 L -265.0608,5.219999999999997 L -264.744,5.939999999999998 L -264.456,6.659999999999998 L -264.19680000000005,7.379999999999999 L -263.9664,8.1 L -263.76480000000004,8.82 L -263.592,9.540000000000001 L -263.44800000000004,10.260000000000002 L -263.3328,10.980000000000002 L -263.2464,11.7 L -263.1888,12.419999999999998 L -263.16,13.14 L -263.16,13.86 L -263.1888,14.580000000000002 L -263.2464,15.3 L -263.3328,16.02 L -263.44800000000004,16.740000000000002 L -263.592,17.46 L -263.76480000000004,18.18 L -263.9664,18.900000000000002 L -264.19680000000005,19.62 L -264.456,20.340000000000003 L -264.744,21.060000000000002 L -265.0608,21.78 L -265.4064,22.5 L -265.7808,23.22 L -266.184,23.94 L -266.61600000000004,24.660000000000004 L -267.0768,25.380000000000003 L -267.5664,26.1 L -268.08480000000003,26.820000000000004 L -268.632,27.540000000000006 L -269.208,28.260000000000005 L -269.81280000000004,28.980000000000004 L -270.44640000000004,29.700000000000003 L -271.10880000000003,30.42 L -271.8,31.140000000000004" style="stroke:black;fill:none;stroke-width:2.0;stroke-dasharray:-;stroke-linecap:round;stroke-linejoin:round;" /><path d="M -284.40000000000003,22.5 L -265.4064,22.5" style="stroke:black;fill:none;stroke-width:2.0;stroke-dasharray:-;stroke-linecap:round;stroke-linejoin:round;" /><path d="M -284.40000000000003,4.5 L -265.4064,4.5" style="stroke:black;fill:none;stroke-width:2.0;stroke-dasharray:-;stroke-linecap:round;stroke-linejoin:round;" /><path d="M -228.6,13.5 L -216.0,13.5" style="stroke:black;fill:none;stroke-width:2.0;stroke-dasharray:-;stroke-linecap:round;stroke-linejoin:round;" /><path d="M -210.6,18.0 L -216.0,18.0 L -216.0,13.5" style="stroke:black;fill:none;stroke-width:2;stroke-dasharray:-;stroke-linecap:round;stroke-linejoin:round;" /><path d="M -140.4,22.5 L -144.0,22.5 L -144.0,27.0" style="stroke:black;fill:none;stroke-width:2;stroke-dasharray:-;stroke-linecap:round;stroke-linejoin:round;" /><path d="M -66.60000000000001,18.0 L -72.0,18.0 L -72.0,13.5" style="stroke:black;fill:none;stroke-width:2;stroke-dasharray:-;stroke-linecap:round;stroke-linejoin:round;" /><text x="3.600000000000003" y="13.0" dominant-baseline="central" fill="black" font-size="14.0" font-family="sans" text-anchor="start"><tspan x="3.600000000000003" dy="14.0">x</tspan></text><text x="-70.2" y="22.0" dominant-baseline="central" fill="black" font-size="14.0" font-family="sans" text-anchor="end"><tspan x="-70.2" dy="14.0">E</tspan></text><text x="-144.0" y="-9.5" dominant-baseline="central" fill="black" font-size="14.0" font-family="sans" text-anchor="end"><tspan x="-144.0" dy="14.0">D</tspan></text><text x="-214.20000000000002" y="22.0" dominant-baseline="central" fill="black" font-size="14.0" font-family="sans" text-anchor="end"><tspan x="-214.20000000000002" dy="14.0">C</tspan></text><text x="-288.0" y="-9.5" dominant-baseline="central" fill="black" font-size="14.0" font-family="sans" text-anchor="end"><tspan x="-288.0" dy="14.0">A</tspan></text><text x="-288.0" y="8.5" dominant-baseline="central" fill="black" font-size="14.0" font-family="sans" text-anchor="end"><tspan x="-288.0" dy="14.0">B</tspan></text></svg>