<?xml version="1.0" encoding="utf-8" standalone="no"?>
<!DOCTYPE svg PUBLIC "-//W3C//DTD SVG 1.1//EN"
  "http://www.w3.org/Graphics/SVG/1.1/DTD/svg11.dtd">
<svg xmlns:xlink="http://www.w3.org/1999/xlink" width="251.376pt" height="112.5pt" viewBox="0 0 251.376 112.5" xmlns="http://www.w3.org/2000/svg" version="1.1">
 <metadata>
  <rdf:RDF xmlns:dc="http://purl.org/dc/elements/1.1/" xmlns:cc="http://creativecommons.org/ns#" xmlns:rdf="http://www.w3.org/1999/02/22-rdf-syntax-ns#">
   <cc:Work>
    <dc:type rdf:resource="http://purl.org/dc/dcmitype/StillImage"/>
    <dc:date>2026-03-31T11:00:53.156446</dc:date>
    <dc:format>image/svg+xml</dc:format>
    <dc:creator>
     <cc:Agent>
      <dc:title>Matplotlib v3.10.8, https://matplotlib.org/</dc:title>
     </cc:Agent>
    </dc:creator>
   </cc:Work>
  </rdf:RDF>
 </metadata>
 <defs>
  <style type="text/css">*{stroke-linejoin: round; stroke-linecap: butt}</style>
 </defs>
 <g id="figure_1">
  <g id="patch_1">
   <path d="M 0 112.5 
L 251.376 112.5 
L 251.376 0 
L 0 0 
L 0 112.5 
z
" style="fill: none"/>
  </g>
  <g id="axes_1">
   <g id="patch_2">
    <path d="M 65.388 94.14 
C 66.533677 94.14 67.632585 93.684818 68.442701 92.874701 
C 69.252818 92.064585 69.708 90.965677 69.708 89.82 
C 69.708 88.674323 69.252818 87.575415 68.442701 86.765299 
C 67.632585 85.955182 66.533677 85.5 65.388 85.5 
C 64.242323 85.5 63.143415 85.955182 62.333299 86.765299 
C 61.523182 87.575415 61.068 88.674323 61.068 89.82 
C 61.068 90.965677 61.523182 92.064585 62.333299 92.874701 
C 63.143415 93.684818 64.242323 94.14 65.388 94.14 
L 65.388 94.14 
z
" clip-path="url(#pdcab9db59b)" style="fill: none; stroke: #333333; stroke-width: 2; stroke-linejoin: miter"/>
   </g>
   <g id="line2d_1">
    <path d="M 203.088 67.32 
L 204.241264 67.283017 
L 205.389789 67.17222 
L 206.528855 66.988065 
L 207.653783 66.731308 
L 208.759948 66.403003 
L 209.842806 66.004502 
L 210.897907 65.53744 
L 211.920916 65.003737 
L 212.907628 64.405586 
L 213.85399 63.745445 
L 214.756111 63.026027 
L 215.610286 62.250288 
L 216.413004 61.421416 
L 217.160967 60.542816 
L 217.851101 59.6181 
L 218.48057 58.651066 
L 219.046788 57.645689 
L 219.547427 56.6061 
L 219.980432 55.536571 
L 220.344021 54.441497 
L 220.636702 53.325377 
L 220.857272 52.192798 
L 221.004824 51.048414 
L 221.078752 49.896928 
L 221.078752 48.743072 
L 221.004824 47.591586 
L 220.857272 46.447202 
L 220.636702 45.314623 
L 220.344021 44.198503 
L 219.980432 43.103429 
L 219.547427 42.0339 
L 219.046788 40.994311 
L 218.48057 39.988934 
L 217.851101 39.0219 
L 217.160967 38.097184 
L 216.413004 37.218584 
L 215.610286 36.389712 
L 214.756111 35.613973 
L 213.85399 34.894555 
L 212.907628 34.234414 
L 211.920916 33.636263 
L 210.897907 33.10256 
L 209.842806 32.635498 
L 208.759948 32.236997 
L 207.653783 31.908692 
L 206.528855 31.651935 
L 205.389789 31.46778 
L 204.241264 31.356983 
L 203.088 31.32 
L 203.088 31.32 
L 179.688 31.32 
L 179.688 49.32 
L 179.688 67.32 
L 203.088 67.32 
" clip-path="url(#pdcab9db59b)" style="fill: none; stroke: #333333; stroke-width: 2; stroke-linecap: round"/>
   </g>
   <g id="line2d_2">
    <path d="M 167.088 58.32 
L 179.688 58.32 
" clip-path="url(#pdcab9db59b)" style="fill: none; stroke: #333333; stroke-width: 2; stroke-linecap: round"/>
   </g>
   <g id="line2d_3">
    <path d="M 167.088 40.32 
L 179.688 40.32 
" clip-path="url(#pdcab9db59b)" style="fill: none; stroke: #333333; stroke-width: 2; stroke-linecap: round"/>
   </g>
   <g id="line2d_4">
    <path d="M 221.088 49.32 
L 233.688 49.32 
" clip-path="url(#pdcab9db59b)" style="fill: none; stroke: #333333; stroke-width: 2; stroke-linecap: round"/>
   </g>
   <g id="line2d_5">
    <path d="M 105.888 39.96 
L 125.430857 39.893878 
L 127.488 39.6 
L 129.545143 39.07102 
L 131.602286 38.306939 
L 133.659429 37.307755 
L 135.716571 36.073469 
L 137.773714 34.604082 
L 139.830857 32.899592 
L 142.402286 30.438367 
L 144.973714 27.609796 
L 147.545143 24.413878 
L 149.088 22.32 
L 149.088 22.32 
L 146.516571 18.903673 
L 143.945143 15.854694 
L 141.373714 13.173061 
L 138.802286 10.858776 
L 136.745143 9.271837 
L 134.688 7.92 
L 132.630857 6.803265 
L 130.573714 5.921633 
L 128.516571 5.275102 
L 126.459429 4.863673 
L 124.402286 4.687347 
L 123.888 4.68 
L 105.888 4.68 
L 105.888 4.68 
L 107.8752 6.84 
L 109.6032 9 
L 111.072 11.16 
L 112.2816 13.32 
L 113.232 15.48 
L 113.9232 17.64 
L 114.3552 19.8 
L 114.528 21.96 
L 114.4416 24.12 
L 114.096 26.28 
L 113.4912 28.44 
L 112.6272 30.6 
L 111.504 32.76 
L 110.1216 34.92 
L 108.48 37.08 
L 106.5792 39.24 
L 105.888 39.96 
L 105.888 39.96 
" clip-path="url(#pdcab9db59b)" style="fill: none; stroke: #333333; stroke-width: 2; stroke-linecap: round"/>
   </g>
   <g id="line2d_6">
    <path d="M 93.288 31.32 
L 112.2816 31.32 
" clip-path="url(#pdcab9db59b)" style="fill: none; stroke: #333333; stroke-width: 2; stroke-linecap: round"/>
   </g>
   <g id="line2d_7">
    <path d="M 93.288 13.32 
L 112.2816 13.32 
" clip-path="url(#pdcab9db59b)" style="fill: none; stroke: #333333; stroke-width: 2; stroke-linecap: round"/>
   </g>
   <g id="line2d_8">
    <path d="M 149.088 22.32 
L 161.688 22.32 
" clip-path="url(#pdcab9db59b)" style="fill: none; stroke: #333333; stroke-width: 2; stroke-linecap: round"/>
   </g>
   <g id="line2d_9">
    <path d="M 167.088 40.32 
L 161.688 40.32 
L 161.688 22.32 
" clip-path="url(#pdcab9db59b)" style="fill: none; stroke: #000000; stroke-width: 2; stroke-linecap: round"/>
   </g>
   <g id="line2d_10">
    <path d="M 105.888 93.96 
L 125.430857 93.893878 
L 127.488 93.6 
L 129.545143 93.07102 
L 131.602286 92.306939 
L 133.659429 91.307755 
L 135.716571 90.073469 
L 137.773714 88.604082 
L 139.830857 86.899592 
L 142.402286 84.438367 
L 144.973714 81.609796 
L 147.545143 78.413878 
L 149.088 76.32 
L 149.088 76.32 
L 146.516571 72.903673 
L 143.945143 69.854694 
L 141.373714 67.173061 
L 138.802286 64.858776 
L 136.745143 63.271837 
L 134.688 61.92 
L 132.630857 60.803265 
L 130.573714 59.921633 
L 128.516571 59.275102 
L 126.459429 58.863673 
L 124.402286 58.687347 
L 123.888 58.68 
L 105.888 58.68 
L 105.888 58.68 
L 107.8752 60.84 
L 109.6032 63 
L 111.072 65.16 
L 112.2816 67.32 
L 113.232 69.48 
L 113.9232 71.64 
L 114.3552 73.8 
L 114.528 75.96 
L 114.4416 78.12 
L 114.096 80.28 
L 113.4912 82.44 
L 112.6272 84.6 
L 111.504 86.76 
L 110.1216 88.92 
L 108.48 91.08 
L 106.5792 93.24 
L 105.888 93.96 
L 105.888 93.96 
" clip-path="url(#pdcab9db59b)" style="fill: none; stroke: #333333; stroke-width: 2; stroke-linecap: round"/>
   </g>
   <g id="line2d_11">
    <path d="M 93.288 85.32 
L 112.2816 85.32 
" clip-path="url(#pdcab9db59b)" style="fill: none; stroke: #333333; stroke-width: 2; stroke-linecap: round"/>
   </g>
   <g id="line2d_12">
    <path d="M 93.288 67.32 
L 112.2816 67.32 
" clip-path="url(#pdcab9db59b)" style="fill: none; stroke: #333333; stroke-width: 2; stroke-linecap: round"/>
   </g>
   <g id="line2d_13">
    <path d="M 149.088 76.32 
L 161.688 76.32 
" clip-path="url(#pdcab9db59b)" style="fill: none; stroke: #333333; stroke-width: 2; stroke-linecap: round"/>
   </g>
   <g id="line2d_14">
    <path d="M 17.688 89.82 
L 37.668 89.82 
M 69.708 89.82 
L 89.688 89.82 
" clip-path="url(#pdcab9db59b)" style="fill: none; stroke: #333333; stroke-width: 2; stroke-linecap: round"/>
   </g>
   <g id="line2d_15">
    <path d="M 37.668 71.82 
L 61.068 89.82 
L 37.668 107.82 
L 37.668 71.82 
" clip-path="url(#pdcab9db59b)" style="fill: none; stroke: #333333; stroke-width: 2; stroke-linecap: round"/>
   </g>
   <g id="line2d_16">
    <path d="M 93.288 85.32 
L 89.688 85.32 
L 89.688 89.82 
" clip-path="url(#pdcab9db59b)" style="fill: none; stroke: #000000; stroke-width: 2; stroke-linecap: round"/>
   </g>
   <g id="line2d_17">
    <path d="M 167.088 58.32 
L 161.688 58.32 
L 161.688 76.32 
" clip-path="url(#pdcab9db59b)" style="fill: none; stroke: #000000; stroke-width: 2; stroke-linecap: round"/>
   </g>
   <g id="text_1">
    <text style="font-size: 14px; font-family: 'DejaVu Sans', 'Bitstream Vera Sans', 'Computer Modern Sans Serif', 'Lucida Grande', 'Verdana', 'Geneva', 'Lucid', 'Arial', 'Helvetica', 'Avant Garde', sans-serif; text-anchor: start; fill: #333333" x="237.288" y="53.183125" transform="rotate(-0 237.288 53.183125)">S</text>
   </g>
   <g id="text_2">
    <text style="font-size: 14px; font-family: 'DejaVu Sans', 'Bitstream Vera Sans', 'Computer Modern Sans Serif', 'Lucida Grande', 'Verdana', 'Geneva', 'Lucid', 'Arial', 'Helvetica', 'Avant Garde', sans-serif; text-anchor: end; fill: #333333" x="89.688" y="17.183125" transform="rotate(-0 89.688 17.183125)">A</text>
   </g>
   <g id="text_3">
    <text style="font-size: 14px; font-family: 'DejaVu Sans', 'Bitstream Vera Sans', 'Computer Modern Sans Serif', 'Lucida Grande', 'Verdana', 'Geneva', 'Lucid', 'Arial', 'Helvetica', 'Avant Garde', sans-serif; text-anchor: end; fill: #333333" x="89.688" y="35.183125" transform="rotate(-0 89.688 35.183125)">B</text>
   </g>
   <g id="text_4">
    <text style="font-size: 14px; font-family: 'DejaVu Sans', 'Bitstream Vera Sans', 'Computer Modern Sans Serif', 'Lucida Grande', 'Verdana', 'Geneva', 'Lucid', 'Arial', 'Helvetica', 'Avant Garde', sans-serif; text-anchor: end; fill: #333333" x="89.688" y="71.183125" transform="rotate(-0 89.688 71.183125)">A</text>
   </g>
   <g id="text_5">
    <text style="font-size: 14px; font-family: 'DejaVu Sans', 'Bitstream Vera Sans', 'Computer Modern Sans Serif', 'Lucida Grande', 'Verdana', 'Geneva', 'Lucid', 'Arial', 'Helvetica', 'Avant Garde', sans-serif; text-anchor: end; fill: #333333" x="14.088" y="93.683125" transform="rotate(-0 14.088 93.683125)">B</text>
   </g>
  </g>
 </g>
 <defs>
  <clipPath id="pdcab9db59b">
   <rect x="0" y="0" width="251.376" height="112.5"/>
  </clipPath>
 </defs>
</svg>
