<?xml version="1.0" encoding="utf-8" standalone="no"?>
<!DOCTYPE svg PUBLIC "-//W3C//DTD SVG 1.1//EN"
  "http://www.w3.org/Graphics/SVG/1.1/DTD/svg11.dtd">
<svg xmlns:xlink="http://www.w3.org/1999/xlink" width="107.376pt" height="45.36pt" viewBox="0 0 107.376 45.36" xmlns="http://www.w3.org/2000/svg" version="1.1">
 <metadata>
  <rdf:RDF xmlns:dc="http://purl.org/dc/elements/1.1/" xmlns:cc="http://creativecommons.org/ns#" xmlns:rdf="http://www.w3.org/1999/02/22-rdf-syntax-ns#">
   <cc:Work>
    <dc:type rdf:resource="http://purl.org/dc/dcmitype/StillImage"/>
    <dc:date>2026-03-29T21:23:04.755327</dc:date>
    <dc:format>image/svg+xml</dc:format>
    <dc:creator>
     <cc:Agent>
      <dc:title>Matplotlib v3.10.8, https://matplotlib.org/</dc:title>
     </cc:Agent>
    </dc:creator>
   </cc:Work>
  </rdf:RDF>
 </metadata>
 <defs>
  <style type="text/css">*{stroke-linejoin: round; stroke-linecap: butt}</style>
 </defs>
 <g id="figure_1">
  <g id="patch_1">
   <path d="M 0 45.36 
L 107.376 45.36 
L 107.376 0 
L 0 0 
L 0 45.36 
z
" style="fill: none"/>
  </g>
  <g id="axes_1">
   <g id="patch_2">
    <path d="M 65.388 27 
C 66.533677 27 67.632585 26.544818 68.442701 25.734701 
C 69.252818 24.924585 69.708 23.825677 69.708 22.68 
C 69.708 21.534323 69.252818 20.435415 68.442701 19.625299 
C 67.632585 18.815182 66.533677 18.36 65.388 18.36 
C 64.242323 18.36 63.143415 18.815182 62.333299 19.625299 
C 61.523182 20.435415 61.068 21.534323 61.068 22.68 
C 61.068 23.825677 61.523182 24.924585 62.333299 25.734701 
C 63.143415 26.544818 64.242323 27 65.388 27 
L 65.388 27 
z
" clip-path="url(#p23329a43b9)" style="fill: none; stroke: #000000; stroke-width: 2; stroke-linejoin: miter"/>
   </g>
   <g id="line2d_1">
    <path d="M 17.688 22.68 
L 37.668 22.68 
M 69.708 22.68 
L 89.688 22.68 
" clip-path="url(#p23329a43b9)" style="fill: none; stroke: #000000; stroke-width: 2; stroke-linecap: round"/>
   </g>
   <g id="line2d_2">
    <path d="M 37.668 4.68 
L 61.068 22.68 
L 37.668 40.68 
L 37.668 4.68 
" clip-path="url(#p23329a43b9)" style="fill: none; stroke: #000000; stroke-width: 2; stroke-linecap: round"/>
   </g>
   <g id="text_1">
    <text style="font-size: 14px; font-family: 'DejaVu Sans', 'Bitstream Vera Sans', 'Computer Modern Sans Serif', 'Lucida Grande', 'Verdana', 'Geneva', 'Lucid', 'Arial', 'Helvetica', 'Avant Garde', sans-serif; text-anchor: start" x="93.288" y="26.543125" transform="rotate(-0 93.288 26.543125)">S</text>
   </g>
   <g id="text_2">
    <text style="font-size: 14px; font-family: 'DejaVu Sans', 'Bitstream Vera Sans', 'Computer Modern Sans Serif', 'Lucida Grande', 'Verdana', 'Geneva', 'Lucid', 'Arial', 'Helvetica', 'Avant Garde', sans-serif; text-anchor: end" x="14.088" y="26.543125" transform="rotate(-0 14.088 26.543125)">C</text>
   </g>
  </g>
 </g>
 <defs>
  <clipPath id="p23329a43b9">
   <rect x="0" y="0" width="107.376" height="45.36"/>
  </clipPath>
 </defs>
</svg>
