<?xml version="1.0" encoding="utf-8" standalone="no"?>
<!DOCTYPE svg PUBLIC "-//W3C//DTD SVG 1.1//EN"
  "http://www.w3.org/Graphics/SVG/1.1/DTD/svg11.dtd">
<svg xmlns:xlink="http://www.w3.org/1999/xlink" width="101.976pt" height="45.36pt" viewBox="0 0 101.976 45.36" xmlns="http://www.w3.org/2000/svg" version="1.1">
 <metadata>
  <rdf:RDF xmlns:dc="http://purl.org/dc/elements/1.1/" xmlns:cc="http://creativecommons.org/ns#" xmlns:rdf="http://www.w3.org/1999/02/22-rdf-syntax-ns#">
   <cc:Work>
    <dc:type rdf:resource="http://purl.org/dc/dcmitype/StillImage"/>
    <dc:date>2026-03-31T11:00:53.715123</dc:date>
    <dc:format>image/svg+xml</dc:format>
    <dc:creator>
     <cc:Agent>
      <dc:title>Matplotlib v3.10.8, https://matplotlib.org/</dc:title>
     </cc:Agent>
    </dc:creator>
   </cc:Work>
  </rdf:RDF>
 </metadata>
 <defs>
  <style type="text/css">*{stroke-linejoin: round; stroke-linecap: butt}</style>
 </defs>
 <g id="figure_1">
  <g id="patch_1">
   <path d="M 0 45.36 
L 102.976 45.36 
M 0 -1 
L 0 45.36 
" style="fill: none"/>
  </g>
  <g id="axes_1">
   <g id="line2d_1">
    <path d="M 60.888 33.48 
L 62.041264 33.443017 
L 63.189789 33.33222 
L 64.328855 33.148065 
L 65.453783 32.891308 
L 66.559948 32.563003 
L 67.642806 32.164502 
L 68.697907 31.69744 
L 69.720916 31.163737 
L 70.707628 30.565586 
L 71.65399 29.905445 
L 72.556111 29.186027 
L 73.410286 28.410288 
L 74.213004 27.581416 
L 74.960967 26.702816 
L 75.651101 25.7781 
L 76.28057 24.811066 
L 76.846788 23.805689 
L 77.347427 22.7661 
L 77.780432 21.696571 
L 78.144021 20.601497 
L 78.436702 19.485377 
L 78.657272 18.352798 
L 78.804824 17.208414 
L 78.878752 16.056928 
L 78.878752 14.903072 
L 78.804824 13.751586 
L 78.657272 12.607202 
L 78.436702 11.474623 
L 78.144021 10.358503 
L 77.780432 9.263429 
L 77.347427 8.1939 
L 76.846788 7.154311 
L 76.28057 6.148934 
L 75.651101 5.1819 
L 74.960967 4.257184 
L 74.213004 3.378584 
L 73.410286 2.549712 
L 72.556111 1.773973 
L 71.65399 1.054555 
L 70.707628 0.394414 
L 69.720916 -0.203737 
L 68.697907 -0.73744 
L 68.104779 -1 
M 37.488 -1 
L 37.488 15.48 
L 37.488 33.48 
L 60.888 33.48 
" clip-path="url(#p9d0a298fde)" style="fill: none; stroke: #333333; stroke-width: 2; stroke-linecap: round"/>
   </g>
   <g id="line2d_2">
    <path d="M 24.888 24.48 
L 37.488 24.48 
" clip-path="url(#p9d0a298fde)" style="fill: none; stroke: #333333; stroke-width: 2; stroke-linecap: round"/>
   </g>
   <g id="line2d_3">
    <path d="M 24.888 6.48 
L 37.488 6.48 
" clip-path="url(#p9d0a298fde)" style="fill: none; stroke: #333333; stroke-width: 2; stroke-linecap: round"/>
   </g>
   <g id="line2d_4">
    <path d="M 78.888 15.48 
L 91.488 15.48 
" clip-path="url(#p9d0a298fde)" style="fill: none; stroke: #333333; stroke-width: 2; stroke-linecap: round"/>
   </g>
   <g id="text_1">
    <text style="font-size: 14px; font-family: 'DejaVu Sans', 'Bitstream Vera Sans', 'Computer Modern Sans Serif', 'Lucida Grande', 'Verdana', 'Geneva', 'Lucid', 'Arial', 'Helvetica', 'Avant Garde', sans-serif; text-anchor: start; fill: #333333" x="95.088" y="19.343125" transform="rotate(-0 95.088 19.343125)">S</text>
   </g>
   <g id="text_2">
    <text style="font-size: 14px; font-family: 'DejaVu Sans', 'Bitstream Vera Sans', 'Computer Modern Sans Serif', 'Lucida Grande', 'Verdana', 'Geneva', 'Lucid', 'Arial', 'Helvetica', 'Avant Garde', sans-serif; text-anchor: end; fill: #333333" x="21.288" y="10.343125" transform="rotate(-0 21.288 10.343125)">A</text>
   </g>
   <g id="text_3">
    <text style="font-size: 14px; font-family: 'DejaVu Sans', 'Bitstream Vera Sans', 'Computer Modern Sans Serif', 'Lucida Grande', 'Verdana', 'Geneva', 'Lucid', 'Arial', 'Helvetica', 'Avant Garde', sans-serif; text-anchor: end; fill: #333333" x="21.288" y="28.343125" transform="rotate(-0 21.288 28.343125)">B</text>
   </g>
  </g>
 </g>
 <defs>
  <clipPath id="p9d0a298fde">
   <rect x="7.2" y="-7.2" width="101.976" height="45.36"/>
  </clipPath>
 </defs>
</svg>
