<?xml version="1.0" encoding="utf-8" standalone="no"?>
<!DOCTYPE svg PUBLIC "-//W3C//DTD SVG 1.1//EN"
  "http://www.w3.org/Graphics/SVG/1.1/DTD/svg11.dtd">
<svg xmlns:xlink="http://www.w3.org/1999/xlink" width="173.508pt" height="113.38pt" viewBox="0 0 173.508 113.38" xmlns="http://www.w3.org/2000/svg" version="1.1">
 <metadata>
  <rdf:RDF xmlns:dc="http://purl.org/dc/elements/1.1/" xmlns:cc="http://creativecommons.org/ns#" xmlns:rdf="http://www.w3.org/1999/02/22-rdf-syntax-ns#">
   <cc:Work>
    <dc:type rdf:resource="http://purl.org/dc/dcmitype/StillImage"/>
    <dc:date>2026-03-29T21:23:04.300049</dc:date>
    <dc:format>image/svg+xml</dc:format>
    <dc:creator>
     <cc:Agent>
      <dc:title>Matplotlib v3.10.8, https://matplotlib.org/</dc:title>
     </cc:Agent>
    </dc:creator>
   </cc:Work>
  </rdf:RDF>
 </metadata>
 <defs>
  <style type="text/css">*{stroke-linejoin: round; stroke-linecap: butt}</style>
 </defs>
 <g id="figure_1">
  <g id="patch_1">
   <path d="M 0 113.38 
L 173.508 113.38 
L 173.508 0 
L 0 0 
L 0 113.38 
z
" style="fill: none"/>
  </g>
  <g id="axes_1">
   <g id="line2d_1">
    <path d="M 127.488 75.31 
L 128.641264 75.273017 
L 129.789789 75.16222 
L 130.928855 74.978065 
L 132.053783 74.721308 
L 133.159948 74.393003 
L 134.242806 73.994502 
L 135.297907 73.52744 
L 136.320916 72.993737 
L 137.307628 72.395586 
L 138.25399 71.735445 
L 139.156111 71.016027 
L 140.010286 70.240288 
L 140.813004 69.411416 
L 141.560967 68.532816 
L 142.251101 67.6081 
L 142.88057 66.641066 
L 143.446788 65.635689 
L 143.947427 64.5961 
L 144.380432 63.526571 
L 144.744021 62.431497 
L 145.036702 61.315377 
L 145.257272 60.182798 
L 145.404824 59.038414 
L 145.478752 57.886928 
L 145.478752 56.733072 
L 145.404824 55.581586 
L 145.257272 54.437202 
L 145.036702 53.304623 
L 144.744021 52.188503 
L 144.380432 51.093429 
L 143.947427 50.0239 
L 143.446788 48.984311 
L 142.88057 47.978934 
L 142.251101 47.0119 
L 141.560967 46.087184 
L 140.813004 45.208584 
L 140.010286 44.379712 
L 139.156111 43.603973 
L 138.25399 42.884555 
L 137.307628 42.224414 
L 136.320916 41.626263 
L 135.297907 41.09256 
L 134.242806 40.625498 
L 133.159948 40.226997 
L 132.053783 39.898692 
L 130.928855 39.641935 
L 129.789789 39.45778 
L 128.641264 39.346983 
L 127.488 39.31 
L 127.488 39.31 
L 104.088 39.31 
L 104.088 57.31 
L 104.088 75.31 
L 127.488 75.31 
" clip-path="url(#pfbdc7ac6f1)" style="fill: none; stroke: #000000; stroke-width: 2; stroke-linecap: round"/>
   </g>
   <g id="line2d_2">
    <path d="M 91.488 66.31 
L 104.088 66.31 
" clip-path="url(#pfbdc7ac6f1)" style="fill: none; stroke: #000000; stroke-width: 2; stroke-linecap: round"/>
   </g>
   <g id="line2d_3">
    <path d="M 91.488 48.31 
L 104.088 48.31 
" clip-path="url(#pfbdc7ac6f1)" style="fill: none; stroke: #000000; stroke-width: 2; stroke-linecap: round"/>
   </g>
   <g id="line2d_4">
    <path d="M 145.488 57.31 
L 158.088 57.31 
" clip-path="url(#pfbdc7ac6f1)" style="fill: none; stroke: #000000; stroke-width: 2; stroke-linecap: round"/>
   </g>
   <g id="line2d_5">
    <path d="M 55.488 41.56 
L 56.641264 41.523017 
L 57.789789 41.41222 
L 58.928855 41.228065 
L 60.053783 40.971308 
L 61.159948 40.643003 
L 62.242806 40.244502 
L 63.297907 39.77744 
L 64.320916 39.243737 
L 65.307628 38.645586 
L 66.25399 37.985445 
L 67.156111 37.266027 
L 68.010286 36.490288 
L 68.813004 35.661416 
L 69.560967 34.782816 
L 70.251101 33.8581 
L 70.88057 32.891066 
L 71.446788 31.885689 
L 71.947427 30.8461 
L 72.380432 29.776571 
L 72.744021 28.681497 
L 73.036702 27.565377 
L 73.257272 26.432798 
L 73.404824 25.288414 
L 73.478752 24.136928 
L 73.478752 22.983072 
L 73.404824 21.831586 
L 73.257272 20.687202 
L 73.036702 19.554623 
L 72.744021 18.438503 
L 72.380432 17.343429 
L 71.947427 16.2739 
L 71.446788 15.234311 
L 70.88057 14.228934 
L 70.251101 13.2619 
L 69.560967 12.337184 
L 68.813004 11.458584 
L 68.010286 10.629712 
L 67.156111 9.853973 
L 66.25399 9.134555 
L 65.307628 8.474414 
L 64.320916 7.876263 
L 63.297907 7.34256 
L 62.242806 6.875498 
L 61.159948 6.476997 
L 60.053783 6.148692 
L 58.928855 5.891935 
L 57.789789 5.70778 
L 56.641264 5.596983 
L 55.488 5.56 
L 55.488 5.56 
L 32.088 5.56 
L 32.088 23.56 
L 32.088 41.56 
L 55.488 41.56 
" clip-path="url(#pfbdc7ac6f1)" style="fill: none; stroke: #000000; stroke-width: 2; stroke-linecap: round"/>
   </g>
   <g id="line2d_6">
    <path d="M 19.488 35.44 
L 32.088 35.44 
" clip-path="url(#pfbdc7ac6f1)" style="fill: none; stroke: #000000; stroke-width: 2; stroke-linecap: round"/>
   </g>
   <g id="line2d_7">
    <path d="M 19.488 23.56 
L 32.088 23.56 
" clip-path="url(#pfbdc7ac6f1)" style="fill: none; stroke: #000000; stroke-width: 2; stroke-linecap: round"/>
   </g>
   <g id="line2d_8">
    <path d="M 19.488 11.68 
L 32.088 11.68 
" clip-path="url(#pfbdc7ac6f1)" style="fill: none; stroke: #000000; stroke-width: 2; stroke-linecap: round"/>
   </g>
   <g id="line2d_9">
    <path d="M 73.488 23.56 
L 86.088 23.56 
" clip-path="url(#pfbdc7ac6f1)" style="fill: none; stroke: #000000; stroke-width: 2; stroke-linecap: round"/>
   </g>
   <g id="line2d_10">
    <path d="M 91.488 48.31 
L 86.088 48.31 
L 86.088 23.56 
" clip-path="url(#pfbdc7ac6f1)" style="fill: none; stroke: #000000; stroke-width: 2; stroke-linecap: round"/>
   </g>
   <g id="line2d_11">
    <path d="M 30.288 108.7 
L 49.830857 108.633878 
L 51.888 108.34 
L 53.945143 107.81102 
L 56.002286 107.046939 
L 58.059429 106.047755 
L 60.116571 104.813469 
L 62.173714 103.344082 
L 64.230857 101.639592 
L 66.802286 99.178367 
L 69.373714 96.349796 
L 71.945143 93.153878 
L 73.488 91.06 
L 73.488 91.06 
L 70.916571 87.643673 
L 68.345143 84.594694 
L 65.773714 81.913061 
L 63.202286 79.598776 
L 61.145143 78.011837 
L 59.088 76.66 
L 57.030857 75.543265 
L 54.973714 74.661633 
L 52.916571 74.015102 
L 50.859429 73.603673 
L 48.802286 73.427347 
L 48.288 73.42 
L 30.288 73.42 
L 30.288 73.42 
L 32.2752 75.58 
L 34.0032 77.74 
L 35.472 79.9 
L 36.6816 82.06 
L 37.632 84.22 
L 38.3232 86.38 
L 38.7552 88.54 
L 38.928 90.7 
L 38.8416 92.86 
L 38.496 95.02 
L 37.8912 97.18 
L 37.0272 99.34 
L 35.904 101.5 
L 34.5216 103.66 
L 32.88 105.82 
L 30.9792 107.98 
L 30.288 108.7 
L 30.288 108.7 
" clip-path="url(#pfbdc7ac6f1)" style="fill: none; stroke: #000000; stroke-width: 2; stroke-linecap: round"/>
   </g>
   <g id="line2d_12">
    <path d="M 17.688 100.06 
L 36.6816 100.06 
" clip-path="url(#pfbdc7ac6f1)" style="fill: none; stroke: #000000; stroke-width: 2; stroke-linecap: round"/>
   </g>
   <g id="line2d_13">
    <path d="M 17.688 82.06 
L 36.6816 82.06 
" clip-path="url(#pfbdc7ac6f1)" style="fill: none; stroke: #000000; stroke-width: 2; stroke-linecap: round"/>
   </g>
   <g id="line2d_14">
    <path d="M 73.488 91.06 
L 86.088 91.06 
" clip-path="url(#pfbdc7ac6f1)" style="fill: none; stroke: #000000; stroke-width: 2; stroke-linecap: round"/>
   </g>
   <g id="line2d_15">
    <path d="M 91.488 66.31 
L 86.088 66.31 
L 86.088 91.06 
" clip-path="url(#pfbdc7ac6f1)" style="fill: none; stroke: #000000; stroke-width: 2; stroke-linecap: round"/>
   </g>
   <g id="text_1">
    <text style="font-size: 14px; font-family: 'DejaVu Sans', 'Bitstream Vera Sans', 'Computer Modern Sans Serif', 'Lucida Grande', 'Verdana', 'Geneva', 'Lucid', 'Arial', 'Helvetica', 'Avant Garde', sans-serif; text-anchor: start" x="161.688" y="61.173125" transform="rotate(-0 161.688 61.173125)">x</text>
   </g>
   <g id="text_2">
    <text style="font-size: 14px; font-family: 'DejaVu Sans', 'Bitstream Vera Sans', 'Computer Modern Sans Serif', 'Lucida Grande', 'Verdana', 'Geneva', 'Lucid', 'Arial', 'Helvetica', 'Avant Garde', sans-serif; text-anchor: end" x="15.888" y="15.543125" transform="rotate(-0 15.888 15.543125)">A</text>
   </g>
   <g id="text_3">
    <text style="font-size: 14px; font-family: 'DejaVu Sans', 'Bitstream Vera Sans', 'Computer Modern Sans Serif', 'Lucida Grande', 'Verdana', 'Geneva', 'Lucid', 'Arial', 'Helvetica', 'Avant Garde', sans-serif; text-anchor: end" x="15.888" y="27.423125" transform="rotate(-0 15.888 27.423125)">B</text>
   </g>
   <g id="text_4">
    <text style="font-size: 14px; font-family: 'DejaVu Sans', 'Bitstream Vera Sans', 'Computer Modern Sans Serif', 'Lucida Grande', 'Verdana', 'Geneva', 'Lucid', 'Arial', 'Helvetica', 'Avant Garde', sans-serif; text-anchor: end" x="15.888" y="39.303125" transform="rotate(-0 15.888 39.303125)">C</text>
   </g>
   <g id="text_5">
    <text style="font-size: 14px; font-family: 'DejaVu Sans', 'Bitstream Vera Sans', 'Computer Modern Sans Serif', 'Lucida Grande', 'Verdana', 'Geneva', 'Lucid', 'Arial', 'Helvetica', 'Avant Garde', sans-serif; text-anchor: end" x="14.088" y="85.923125" transform="rotate(-0 14.088 85.923125)">A</text>
   </g>
   <g id="text_6">
    <text style="font-size: 14px; font-family: 'DejaVu Sans', 'Bitstream Vera Sans', 'Computer Modern Sans Serif', 'Lucida Grande', 'Verdana', 'Geneva', 'Lucid', 'Arial', 'Helvetica', 'Avant Garde', sans-serif; text-anchor: end" x="14.088" y="103.923125" transform="rotate(-0 14.088 103.923125)">D</text>
   </g>
  </g>
 </g>
 <defs>
  <clipPath id="pfbdc7ac6f1">
   <rect x="0" y="0" width="173.508" height="113.38"/>
  </clipPath>
 </defs>
</svg>
