<?xml version="1.0" encoding="utf-8" standalone="no"?>
<!DOCTYPE svg PUBLIC "-//W3C//DTD SVG 1.1//EN"
  "http://www.w3.org/Graphics/SVG/1.1/DTD/svg11.dtd">
<svg xmlns:xlink="http://www.w3.org/1999/xlink" width="179.376pt" height="72.36pt" viewBox="0 0 179.376 72.36" xmlns="http://www.w3.org/2000/svg" version="1.1">
 <metadata>
  <rdf:RDF xmlns:dc="http://purl.org/dc/elements/1.1/" xmlns:cc="http://creativecommons.org/ns#" xmlns:rdf="http://www.w3.org/1999/02/22-rdf-syntax-ns#">
   <cc:Work>
    <dc:type rdf:resource="http://purl.org/dc/dcmitype/StillImage"/>
    <dc:date>2026-03-29T21:23:04.515074</dc:date>
    <dc:format>image/svg+xml</dc:format>
    <dc:creator>
     <cc:Agent>
      <dc:title>Matplotlib v3.10.8, https://matplotlib.org/</dc:title>
     </cc:Agent>
    </dc:creator>
   </cc:Work>
  </rdf:RDF>
 </metadata>
 <defs>
  <style type="text/css">*{stroke-linejoin: round; stroke-linecap: butt}</style>
 </defs>
 <g id="figure_1">
  <g id="patch_1">
   <path d="M 0 72.36 
L 179.376 72.36 
L 179.376 0 
L 0 0 
L 0 72.36 
z
" style="fill: none"/>
  </g>
  <g id="axes_1">
   <g id="patch_2">
    <path d="M 65.388 27 
C 66.533677 27 67.632585 26.544818 68.442701 25.734701 
C 69.252818 24.924585 69.708 23.825677 69.708 22.68 
C 69.708 21.534323 69.252818 20.435415 68.442701 19.625299 
C 67.632585 18.815182 66.533677 18.36 65.388 18.36 
C 64.242323 18.36 63.143415 18.815182 62.333299 19.625299 
C 61.523182 20.435415 61.068 21.534323 61.068 22.68 
C 61.068 23.825677 61.523182 24.924585 62.333299 25.734701 
C 63.143415 26.544818 64.242323 27 65.388 27 
L 65.388 27 
z
" clip-path="url(#p9dc302f96f)" style="fill: none; stroke: #000000; stroke-width: 2; stroke-linejoin: miter"/>
   </g>
   <g id="patch_3">
    <path d="M 65.388 54 
C 66.533677 54 67.632585 53.544818 68.442701 52.734701 
C 69.252818 51.924585 69.708 50.825677 69.708 49.68 
C 69.708 48.534323 69.252818 47.435415 68.442701 46.625299 
C 67.632585 45.815182 66.533677 45.36 65.388 45.36 
C 64.242323 45.36 63.143415 45.815182 62.333299 46.625299 
C 61.523182 47.435415 61.068 48.534323 61.068 49.68 
C 61.068 50.825677 61.523182 51.924585 62.333299 52.734701 
C 63.143415 53.544818 64.242323 54 65.388 54 
L 65.388 54 
z
" clip-path="url(#p9dc302f96f)" style="fill: none; stroke: #000000; stroke-width: 2; stroke-linejoin: miter"/>
   </g>
   <g id="line2d_1">
    <path d="M 131.088 54.18 
L 132.241264 54.143017 
L 133.389789 54.03222 
L 134.528855 53.848065 
L 135.653783 53.591308 
L 136.759948 53.263003 
L 137.842806 52.864502 
L 138.897907 52.39744 
L 139.920916 51.863737 
L 140.907628 51.265586 
L 141.85399 50.605445 
L 142.756111 49.886027 
L 143.610286 49.110288 
L 144.413004 48.281416 
L 145.160967 47.402816 
L 145.851101 46.4781 
L 146.48057 45.511066 
L 147.046788 44.505689 
L 147.547427 43.4661 
L 147.980432 42.396571 
L 148.344021 41.301497 
L 148.636702 40.185377 
L 148.857272 39.052798 
L 149.004824 37.908414 
L 149.078752 36.756928 
L 149.078752 35.603072 
L 149.004824 34.451586 
L 148.857272 33.307202 
L 148.636702 32.174623 
L 148.344021 31.058503 
L 147.980432 29.963429 
L 147.547427 28.8939 
L 147.046788 27.854311 
L 146.48057 26.848934 
L 145.851101 25.8819 
L 145.160967 24.957184 
L 144.413004 24.078584 
L 143.610286 23.249712 
L 142.756111 22.473973 
L 141.85399 21.754555 
L 140.907628 21.094414 
L 139.920916 20.496263 
L 138.897907 19.96256 
L 137.842806 19.495498 
L 136.759948 19.096997 
L 135.653783 18.768692 
L 134.528855 18.511935 
L 133.389789 18.32778 
L 132.241264 18.216983 
L 131.088 18.18 
L 131.088 18.18 
L 107.688 18.18 
L 107.688 36.18 
L 107.688 54.18 
L 131.088 54.18 
" clip-path="url(#p9dc302f96f)" style="fill: none; stroke: #000000; stroke-width: 2; stroke-linecap: round"/>
   </g>
   <g id="line2d_2">
    <path d="M 95.088 45.18 
L 107.688 45.18 
" clip-path="url(#p9dc302f96f)" style="fill: none; stroke: #000000; stroke-width: 2; stroke-linecap: round"/>
   </g>
   <g id="line2d_3">
    <path d="M 95.088 27.18 
L 107.688 27.18 
" clip-path="url(#p9dc302f96f)" style="fill: none; stroke: #000000; stroke-width: 2; stroke-linecap: round"/>
   </g>
   <g id="line2d_4">
    <path d="M 149.088 36.18 
L 161.688 36.18 
" clip-path="url(#p9dc302f96f)" style="fill: none; stroke: #000000; stroke-width: 2; stroke-linecap: round"/>
   </g>
   <g id="line2d_5">
    <path d="M 17.688 22.68 
L 37.668 22.68 
M 69.708 22.68 
L 89.688 22.68 
" clip-path="url(#p9dc302f96f)" style="fill: none; stroke: #000000; stroke-width: 2; stroke-linecap: round"/>
   </g>
   <g id="line2d_6">
    <path d="M 37.668 4.68 
L 61.068 22.68 
L 37.668 40.68 
L 37.668 4.68 
" clip-path="url(#p9dc302f96f)" style="fill: none; stroke: #000000; stroke-width: 2; stroke-linecap: round"/>
   </g>
   <g id="line2d_7">
    <path d="M 95.088 27.18 
L 89.688 27.18 
L 89.688 22.68 
" clip-path="url(#p9dc302f96f)" style="fill: none; stroke: #000000; stroke-width: 2; stroke-linecap: round"/>
   </g>
   <g id="line2d_8">
    <path d="M 17.688 49.68 
L 37.668 49.68 
M 69.708 49.68 
L 89.688 49.68 
" clip-path="url(#p9dc302f96f)" style="fill: none; stroke: #000000; stroke-width: 2; stroke-linecap: round"/>
   </g>
   <g id="line2d_9">
    <path d="M 37.668 31.68 
L 61.068 49.68 
L 37.668 67.68 
L 37.668 31.68 
" clip-path="url(#p9dc302f96f)" style="fill: none; stroke: #000000; stroke-width: 2; stroke-linecap: round"/>
   </g>
   <g id="line2d_10">
    <path d="M 95.088 45.18 
L 89.688 45.18 
L 89.688 49.68 
" clip-path="url(#p9dc302f96f)" style="fill: none; stroke: #000000; stroke-width: 2; stroke-linecap: round"/>
   </g>
   <g id="text_1">
    <text style="font-size: 14px; font-family: 'DejaVu Sans', 'Bitstream Vera Sans', 'Computer Modern Sans Serif', 'Lucida Grande', 'Verdana', 'Geneva', 'Lucid', 'Arial', 'Helvetica', 'Avant Garde', sans-serif; text-anchor: start" x="165.288" y="40.043125" transform="rotate(-0 165.288 40.043125)">S</text>
   </g>
   <g id="text_2">
    <text style="font-size: 14px; font-family: 'DejaVu Sans', 'Bitstream Vera Sans', 'Computer Modern Sans Serif', 'Lucida Grande', 'Verdana', 'Geneva', 'Lucid', 'Arial', 'Helvetica', 'Avant Garde', sans-serif; text-anchor: end" x="14.088" y="26.543125" transform="rotate(-0 14.088 26.543125)">B</text>
   </g>
   <g id="text_3">
    <text style="font-size: 14px; font-family: 'DejaVu Sans', 'Bitstream Vera Sans', 'Computer Modern Sans Serif', 'Lucida Grande', 'Verdana', 'Geneva', 'Lucid', 'Arial', 'Helvetica', 'Avant Garde', sans-serif; text-anchor: end" x="14.088" y="53.543125" transform="rotate(-0 14.088 53.543125)">D</text>
   </g>
  </g>
 </g>
 <defs>
  <clipPath id="p9dc302f96f">
   <rect x="0" y="-0" width="179.376" height="72.36"/>
  </clipPath>
 </defs>
</svg>
