<?xml version="1.0" encoding="utf-8" standalone="no"?>
<!DOCTYPE svg PUBLIC "-//W3C//DTD SVG 1.1//EN"
  "http://www.w3.org/Graphics/SVG/1.1/DTD/svg11.dtd">
<svg xmlns:xlink="http://www.w3.org/1999/xlink" width="125.573125pt" height="45.36pt" viewBox="0 0 125.573125 45.36" xmlns="http://www.w3.org/2000/svg" version="1.1">
 <metadata>
  <rdf:RDF xmlns:dc="http://purl.org/dc/elements/1.1/" xmlns:cc="http://creativecommons.org/ns#" xmlns:rdf="http://www.w3.org/1999/02/22-rdf-syntax-ns#">
   <cc:Work>
    <dc:type rdf:resource="http://purl.org/dc/dcmitype/StillImage"/>
    <dc:date>2026-03-31T11:00:53.700343</dc:date>
    <dc:format>image/svg+xml</dc:format>
    <dc:creator>
     <cc:Agent>
      <dc:title>Matplotlib v3.10.8, https://matplotlib.org/</dc:title>
     </cc:Agent>
    </dc:creator>
   </cc:Work>
  </rdf:RDF>
 </metadata>
 <defs>
  <style type="text/css">*{stroke-linejoin: round; stroke-linecap: butt}</style>
 </defs>
 <g id="figure_1">
  <g id="patch_1">
   <path d="M 0 45.36 
L 125.573125 45.36 
L 125.573125 0 
L 0 0 
L 0 45.36 
z
" style="fill: none"/>
  </g>
  <g id="axes_1">
   <g id="line2d_1">
    <path d="M 28.08 40.68 
L 29.233264 40.643017 
L 30.381789 40.53222 
L 31.520855 40.348065 
L 32.645783 40.091308 
L 33.751948 39.763003 
L 34.834806 39.364502 
L 35.889907 38.89744 
L 36.912916 38.363737 
L 37.899628 37.765586 
L 38.84599 37.105445 
L 39.748111 36.386027 
L 40.602286 35.610288 
L 41.405004 34.781416 
L 42.152967 33.902816 
L 42.843101 32.9781 
L 43.47257 32.011066 
L 44.038788 31.005689 
L 44.539427 29.9661 
L 44.972432 28.896571 
L 45.336021 27.801497 
L 45.628702 26.685377 
L 45.849272 25.552798 
L 45.996824 24.408414 
L 46.070752 23.256928 
L 46.070752 22.103072 
L 45.996824 20.951586 
L 45.849272 19.807202 
L 45.628702 18.674623 
L 45.336021 17.558503 
L 44.972432 16.463429 
L 44.539427 15.3939 
L 44.038788 14.354311 
L 43.47257 13.348934 
L 42.843101 12.3819 
L 42.152967 11.457184 
L 41.405004 10.578584 
L 40.602286 9.749712 
L 39.748111 8.973973 
L 38.84599 8.254555 
L 37.899628 7.594414 
L 36.912916 6.996263 
L 35.889907 6.46256 
L 34.834806 5.995498 
L 33.751948 5.596997 
L 32.645783 5.268692 
L 31.520855 5.011935 
L 30.381789 4.82778 
L 29.233264 4.716983 
L 28.08 4.68 
L 28.08 4.68 
L 4.68 4.68 
L 4.68 22.68 
L 4.68 40.68 
L 28.08 40.68 
" clip-path="url(#pc1752cc565)" style="fill: none; stroke: #333333; stroke-width: 2; stroke-linecap: round"/>
   </g>
   <g id="line2d_2">
    <path d="M 46.08 22.68 
L 58.68 22.68 
" clip-path="url(#pc1752cc565)" style="fill: none; stroke: #333333; stroke-width: 2; stroke-linecap: round"/>
   </g>
   <g id="text_1">
    <text style="font-size: 14px; font-family: 'DejaVu Sans', 'Bitstream Vera Sans', 'Computer Modern Sans Serif', 'Lucida Grande', 'Verdana', 'Geneva', 'Lucid', 'Arial', 'Helvetica', 'Avant Garde', sans-serif; text-anchor: start; fill: #333333" x="62.28" y="26.543125" transform="rotate(-0 62.28 26.543125)">A nand B</text>
   </g>
  </g>
 </g>
 <defs>
  <clipPath id="pc1752cc565">
   <rect x="0" y="0" width="123.912" height="45.36"/>
  </clipPath>
 </defs>
</svg>
