<?xml version="1.0" encoding="utf-8" standalone="no"?>
<!DOCTYPE svg PUBLIC "-//W3C//DTD SVG 1.1//EN"
  "http://www.w3.org/Graphics/SVG/1.1/DTD/svg11.dtd">
<svg xmlns:xlink="http://www.w3.org/1999/xlink" width="251.376pt" height="316.24pt" viewBox="0 0 251.376 316.24" xmlns="http://www.w3.org/2000/svg" version="1.1">
 <metadata>
  <rdf:RDF xmlns:dc="http://purl.org/dc/elements/1.1/" xmlns:cc="http://creativecommons.org/ns#" xmlns:rdf="http://www.w3.org/1999/02/22-rdf-syntax-ns#">
   <cc:Work>
    <dc:type rdf:resource="http://purl.org/dc/dcmitype/StillImage"/>
    <dc:date>2026-03-29T21:23:04.898076</dc:date>
    <dc:format>image/svg+xml</dc:format>
    <dc:creator>
     <cc:Agent>
      <dc:title>Matplotlib v3.10.8, https://matplotlib.org/</dc:title>
     </cc:Agent>
    </dc:creator>
   </cc:Work>
  </rdf:RDF>
 </metadata>
 <defs>
  <style type="text/css">*{stroke-linejoin: round; stroke-linecap: butt}</style>
 </defs>
 <g id="figure_1">
  <g id="patch_1">
   <path d="M 0 316.24 
L 251.376 316.24 
L 251.376 0 
L 0 0 
L 0 316.24 
z
" style="fill: none"/>
  </g>
  <g id="axes_1">
   <g id="patch_2">
    <path d="M 65.388 27.88 
C 66.533677 27.88 67.632585 27.424818 68.442701 26.614701 
C 69.252818 25.804585 69.708 24.705677 69.708 23.56 
C 69.708 22.414323 69.252818 21.315415 68.442701 20.505299 
C 67.632585 19.695182 66.533677 19.24 65.388 19.24 
C 64.242323 19.24 63.143415 19.695182 62.333299 20.505299 
C 61.523182 21.315415 61.068 22.414323 61.068 23.56 
C 61.068 24.705677 61.523182 25.804585 62.333299 26.614701 
C 63.143415 27.424818 64.242323 27.88 65.388 27.88 
L 65.388 27.88 
z
" clip-path="url(#p2c0a020164)" style="fill: none; stroke: #000000; stroke-width: 2; stroke-linejoin: miter"/>
   </g>
   <g id="patch_3">
    <path d="M 65.388 108.88 
C 66.533677 108.88 67.632585 108.424818 68.442701 107.614701 
C 69.252818 106.804585 69.708 105.705677 69.708 104.56 
C 69.708 103.414323 69.252818 102.315415 68.442701 101.505299 
C 67.632585 100.695182 66.533677 100.24 65.388 100.24 
C 64.242323 100.24 63.143415 100.695182 62.333299 101.505299 
C 61.523182 102.315415 61.068 103.414323 61.068 104.56 
C 61.068 105.705677 61.523182 106.804585 62.333299 107.614701 
C 63.143415 108.424818 64.242323 108.88 65.388 108.88 
L 65.388 108.88 
z
" clip-path="url(#p2c0a020164)" style="fill: none; stroke: #000000; stroke-width: 2; stroke-linejoin: miter"/>
   </g>
   <g id="patch_4">
    <path d="M 65.388 135.88 
C 66.533677 135.88 67.632585 135.424818 68.442701 134.614701 
C 69.252818 133.804585 69.708 132.705677 69.708 131.56 
C 69.708 130.414323 69.252818 129.315415 68.442701 128.505299 
C 67.632585 127.695182 66.533677 127.24 65.388 127.24 
C 64.242323 127.24 63.143415 127.695182 62.333299 128.505299 
C 61.523182 129.315415 61.068 130.414323 61.068 131.56 
C 61.068 132.705677 61.523182 133.804585 62.333299 134.614701 
C 63.143415 135.424818 64.242323 135.88 65.388 135.88 
L 65.388 135.88 
z
" clip-path="url(#p2c0a020164)" style="fill: none; stroke: #000000; stroke-width: 2; stroke-linejoin: miter"/>
   </g>
   <g id="patch_5">
    <path d="M 65.388 162.88 
C 66.533677 162.88 67.632585 162.424818 68.442701 161.614701 
C 69.252818 160.804585 69.708 159.705677 69.708 158.56 
C 69.708 157.414323 69.252818 156.315415 68.442701 155.505299 
C 67.632585 154.695182 66.533677 154.24 65.388 154.24 
C 64.242323 154.24 63.143415 154.695182 62.333299 155.505299 
C 61.523182 156.315415 61.068 157.414323 61.068 158.56 
C 61.068 159.705677 61.523182 160.804585 62.333299 161.614701 
C 63.143415 162.424818 64.242323 162.88 65.388 162.88 
L 65.388 162.88 
z
" clip-path="url(#p2c0a020164)" style="fill: none; stroke: #000000; stroke-width: 2; stroke-linejoin: miter"/>
   </g>
   <g id="patch_6">
    <path d="M 65.388 243.88 
C 66.533677 243.88 67.632585 243.424818 68.442701 242.614701 
C 69.252818 241.804585 69.708 240.705677 69.708 239.56 
C 69.708 238.414323 69.252818 237.315415 68.442701 236.505299 
C 67.632585 235.695182 66.533677 235.24 65.388 235.24 
C 64.242323 235.24 63.143415 235.695182 62.333299 236.505299 
C 61.523182 237.315415 61.068 238.414323 61.068 239.56 
C 61.068 240.705677 61.523182 241.804585 62.333299 242.614701 
C 63.143415 243.424818 64.242323 243.88 65.388 243.88 
L 65.388 243.88 
z
" clip-path="url(#p2c0a020164)" style="fill: none; stroke: #000000; stroke-width: 2; stroke-linejoin: miter"/>
   </g>
   <g id="patch_7">
    <path d="M 65.388 297.88 
C 66.533677 297.88 67.632585 297.424818 68.442701 296.614701 
C 69.252818 295.804585 69.708 294.705677 69.708 293.56 
C 69.708 292.414323 69.252818 291.315415 68.442701 290.505299 
C 67.632585 289.695182 66.533677 289.24 65.388 289.24 
C 64.242323 289.24 63.143415 289.695182 62.333299 290.505299 
C 61.523182 291.315415 61.068 292.414323 61.068 293.56 
C 61.068 294.705677 61.523182 295.804585 62.333299 296.614701 
C 63.143415 297.424818 64.242323 297.88 65.388 297.88 
L 65.388 297.88 
z
" clip-path="url(#p2c0a020164)" style="fill: none; stroke: #000000; stroke-width: 2; stroke-linejoin: miter"/>
   </g>
   <g id="line2d_1">
    <path d="M 177.888 162.7 
L 197.430857 162.633878 
L 199.488 162.34 
L 201.545143 161.81102 
L 203.602286 161.046939 
L 205.659429 160.047755 
L 207.716571 158.813469 
L 209.773714 157.344082 
L 211.830857 155.639592 
L 214.402286 153.178367 
L 216.973714 150.349796 
L 219.545143 147.153878 
L 221.088 145.06 
L 221.088 145.06 
L 218.516571 141.643673 
L 215.945143 138.594694 
L 213.373714 135.913061 
L 210.802286 133.598776 
L 208.745143 132.011837 
L 206.688 130.66 
L 204.630857 129.543265 
L 202.573714 128.661633 
L 200.516571 128.015102 
L 198.459429 127.603673 
L 196.402286 127.427347 
L 195.888 127.42 
L 177.888 127.42 
L 177.888 127.42 
L 179.8752 129.58 
L 181.6032 131.74 
L 183.072 133.9 
L 184.2816 136.06 
L 185.232 138.22 
L 185.9232 140.38 
L 186.3552 142.54 
L 186.528 144.7 
L 186.4416 146.86 
L 186.096 149.02 
L 185.4912 151.18 
L 184.6272 153.34 
L 183.504 155.5 
L 182.1216 157.66 
L 180.48 159.82 
L 178.5792 161.98 
L 177.888 162.7 
L 177.888 162.7 
" clip-path="url(#p2c0a020164)" style="fill: none; stroke: #000000; stroke-width: 2; stroke-linecap: round"/>
   </g>
   <g id="line2d_2">
    <path d="M 165.288 166.66 
L 177.888 166.66 
" clip-path="url(#p2c0a020164)" style="fill: none; stroke: #000000; stroke-width: 2; stroke-linecap: round"/>
   </g>
   <g id="line2d_3">
    <path d="M 165.288 152.26 
L 185.0916 152.26 
" clip-path="url(#p2c0a020164)" style="fill: none; stroke: #000000; stroke-width: 2; stroke-linecap: round"/>
   </g>
   <g id="line2d_4">
    <path d="M 165.288 137.86 
L 185.0916 137.86 
" clip-path="url(#p2c0a020164)" style="fill: none; stroke: #000000; stroke-width: 2; stroke-linecap: round"/>
   </g>
   <g id="line2d_5">
    <path d="M 165.288 123.46 
L 177.888 123.46 
" clip-path="url(#p2c0a020164)" style="fill: none; stroke: #000000; stroke-width: 2; stroke-linecap: round"/>
   </g>
   <g id="line2d_6">
    <path d="M 177.888 116.26 
L 177.888 127.42 
" clip-path="url(#p2c0a020164)" style="fill: none; stroke: #000000; stroke-width: 2; stroke-linecap: round"/>
   </g>
   <g id="line2d_7">
    <path d="M 177.888 173.86 
L 177.888 162.7 
" clip-path="url(#p2c0a020164)" style="fill: none; stroke: #000000; stroke-width: 2; stroke-linecap: round"/>
   </g>
   <g id="line2d_8">
    <path d="M 221.088 145.06 
L 233.688 145.06 
" clip-path="url(#p2c0a020164)" style="fill: none; stroke: #000000; stroke-width: 2; stroke-linecap: round"/>
   </g>
   <g id="line2d_9">
    <path d="M 131.088 41.56 
L 132.241264 41.523017 
L 133.389789 41.41222 
L 134.528855 41.228065 
L 135.653783 40.971308 
L 136.759948 40.643003 
L 137.842806 40.244502 
L 138.897907 39.77744 
L 139.920916 39.243737 
L 140.907628 38.645586 
L 141.85399 37.985445 
L 142.756111 37.266027 
L 143.610286 36.490288 
L 144.413004 35.661416 
L 145.160967 34.782816 
L 145.851101 33.8581 
L 146.48057 32.891066 
L 147.046788 31.885689 
L 147.547427 30.8461 
L 147.980432 29.776571 
L 148.344021 28.681497 
L 148.636702 27.565377 
L 148.857272 26.432798 
L 149.004824 25.288414 
L 149.078752 24.136928 
L 149.078752 22.983072 
L 149.004824 21.831586 
L 148.857272 20.687202 
L 148.636702 19.554623 
L 148.344021 18.438503 
L 147.980432 17.343429 
L 147.547427 16.2739 
L 147.046788 15.234311 
L 146.48057 14.228934 
L 145.851101 13.2619 
L 145.160967 12.337184 
L 144.413004 11.458584 
L 143.610286 10.629712 
L 142.756111 9.853973 
L 141.85399 9.134555 
L 140.907628 8.474414 
L 139.920916 7.876263 
L 138.897907 7.34256 
L 137.842806 6.875498 
L 136.759948 6.476997 
L 135.653783 6.148692 
L 134.528855 5.891935 
L 133.389789 5.70778 
L 132.241264 5.596983 
L 131.088 5.56 
L 131.088 5.56 
L 107.688 5.56 
L 107.688 23.56 
L 107.688 41.56 
L 131.088 41.56 
" clip-path="url(#p2c0a020164)" style="fill: none; stroke: #000000; stroke-width: 2; stroke-linecap: round"/>
   </g>
   <g id="line2d_10">
    <path d="M 95.088 35.44 
L 107.688 35.44 
" clip-path="url(#p2c0a020164)" style="fill: none; stroke: #000000; stroke-width: 2; stroke-linecap: round"/>
   </g>
   <g id="line2d_11">
    <path d="M 95.088 23.56 
L 107.688 23.56 
" clip-path="url(#p2c0a020164)" style="fill: none; stroke: #000000; stroke-width: 2; stroke-linecap: round"/>
   </g>
   <g id="line2d_12">
    <path d="M 95.088 11.68 
L 107.688 11.68 
" clip-path="url(#p2c0a020164)" style="fill: none; stroke: #000000; stroke-width: 2; stroke-linecap: round"/>
   </g>
   <g id="line2d_13">
    <path d="M 149.088 23.56 
L 161.688 23.56 
" clip-path="url(#p2c0a020164)" style="fill: none; stroke: #000000; stroke-width: 2; stroke-linecap: round"/>
   </g>
   <g id="line2d_14">
    <path d="M 17.688 23.56 
L 37.668 23.56 
M 69.708 23.56 
L 89.688 23.56 
" clip-path="url(#p2c0a020164)" style="fill: none; stroke: #000000; stroke-width: 2; stroke-linecap: round"/>
   </g>
   <g id="line2d_15">
    <path d="M 37.668 5.56 
L 61.068 23.56 
L 37.668 41.56 
L 37.668 5.56 
" clip-path="url(#p2c0a020164)" style="fill: none; stroke: #000000; stroke-width: 2; stroke-linecap: round"/>
   </g>
   <g id="line2d_16">
    <path d="M 95.088 23.56 
L 89.688 23.56 
L 89.688 23.56 
" clip-path="url(#p2c0a020164)" style="fill: none; stroke: #000000; stroke-width: 2; stroke-linecap: round"/>
   </g>
   <g id="line2d_17">
    <path d="M 165.288 123.46 
L 161.688 123.46 
L 161.688 23.56 
" clip-path="url(#p2c0a020164)" style="fill: none; stroke: #000000; stroke-width: 2; stroke-linecap: round"/>
   </g>
   <g id="line2d_18">
    <path d="M 131.088 122.56 
L 132.241264 122.523017 
L 133.389789 122.41222 
L 134.528855 122.228065 
L 135.653783 121.971308 
L 136.759948 121.643003 
L 137.842806 121.244502 
L 138.897907 120.77744 
L 139.920916 120.243737 
L 140.907628 119.645586 
L 141.85399 118.985445 
L 142.756111 118.266027 
L 143.610286 117.490288 
L 144.413004 116.661416 
L 145.160967 115.782816 
L 145.851101 114.8581 
L 146.48057 113.891066 
L 147.046788 112.885689 
L 147.547427 111.8461 
L 147.980432 110.776571 
L 148.344021 109.681497 
L 148.636702 108.565377 
L 148.857272 107.432798 
L 149.004824 106.288414 
L 149.078752 105.136928 
L 149.078752 103.983072 
L 149.004824 102.831586 
L 148.857272 101.687202 
L 148.636702 100.554623 
L 148.344021 99.438503 
L 147.980432 98.343429 
L 147.547427 97.2739 
L 147.046788 96.234311 
L 146.48057 95.228934 
L 145.851101 94.2619 
L 145.160967 93.337184 
L 144.413004 92.458584 
L 143.610286 91.629712 
L 142.756111 90.853973 
L 141.85399 90.134555 
L 140.907628 89.474414 
L 139.920916 88.876263 
L 138.897907 88.34256 
L 137.842806 87.875498 
L 136.759948 87.476997 
L 135.653783 87.148692 
L 134.528855 86.891935 
L 133.389789 86.70778 
L 132.241264 86.596983 
L 131.088 86.56 
L 131.088 86.56 
L 107.688 86.56 
L 107.688 104.56 
L 107.688 122.56 
L 131.088 122.56 
" clip-path="url(#p2c0a020164)" style="fill: none; stroke: #000000; stroke-width: 2; stroke-linecap: round"/>
   </g>
   <g id="line2d_19">
    <path d="M 95.088 116.44 
L 107.688 116.44 
" clip-path="url(#p2c0a020164)" style="fill: none; stroke: #000000; stroke-width: 2; stroke-linecap: round"/>
   </g>
   <g id="line2d_20">
    <path d="M 95.088 104.56 
L 107.688 104.56 
" clip-path="url(#p2c0a020164)" style="fill: none; stroke: #000000; stroke-width: 2; stroke-linecap: round"/>
   </g>
   <g id="line2d_21">
    <path d="M 95.088 92.68 
L 107.688 92.68 
" clip-path="url(#p2c0a020164)" style="fill: none; stroke: #000000; stroke-width: 2; stroke-linecap: round"/>
   </g>
   <g id="line2d_22">
    <path d="M 149.088 104.56 
L 161.688 104.56 
" clip-path="url(#p2c0a020164)" style="fill: none; stroke: #000000; stroke-width: 2; stroke-linecap: round"/>
   </g>
   <g id="line2d_23">
    <path d="M 17.688 104.56 
L 37.668 104.56 
M 69.708 104.56 
L 89.688 104.56 
" clip-path="url(#p2c0a020164)" style="fill: none; stroke: #000000; stroke-width: 2; stroke-linecap: round"/>
   </g>
   <g id="line2d_24">
    <path d="M 37.668 86.56 
L 61.068 104.56 
L 37.668 122.56 
L 37.668 86.56 
" clip-path="url(#p2c0a020164)" style="fill: none; stroke: #000000; stroke-width: 2; stroke-linecap: round"/>
   </g>
   <g id="line2d_25">
    <path d="M 95.088 104.56 
L 89.688 104.56 
L 89.688 104.56 
" clip-path="url(#p2c0a020164)" style="fill: none; stroke: #000000; stroke-width: 2; stroke-linecap: round"/>
   </g>
   <g id="line2d_26">
    <path d="M 17.688 131.56 
L 37.668 131.56 
M 69.708 131.56 
L 89.688 131.56 
" clip-path="url(#p2c0a020164)" style="fill: none; stroke: #000000; stroke-width: 2; stroke-linecap: round"/>
   </g>
   <g id="line2d_27">
    <path d="M 37.668 113.56 
L 61.068 131.56 
L 37.668 149.56 
L 37.668 113.56 
" clip-path="url(#p2c0a020164)" style="fill: none; stroke: #000000; stroke-width: 2; stroke-linecap: round"/>
   </g>
   <g id="line2d_28">
    <path d="M 95.088 116.44 
L 89.688 116.44 
L 89.688 131.56 
" clip-path="url(#p2c0a020164)" style="fill: none; stroke: #000000; stroke-width: 2; stroke-linecap: round"/>
   </g>
   <g id="line2d_29">
    <path d="M 165.288 137.86 
L 161.688 137.86 
L 161.688 104.56 
" clip-path="url(#p2c0a020164)" style="fill: none; stroke: #000000; stroke-width: 2; stroke-linecap: round"/>
   </g>
   <g id="line2d_30">
    <path d="M 131.088 203.56 
L 132.241264 203.523017 
L 133.389789 203.41222 
L 134.528855 203.228065 
L 135.653783 202.971308 
L 136.759948 202.643003 
L 137.842806 202.244502 
L 138.897907 201.77744 
L 139.920916 201.243737 
L 140.907628 200.645586 
L 141.85399 199.985445 
L 142.756111 199.266027 
L 143.610286 198.490288 
L 144.413004 197.661416 
L 145.160967 196.782816 
L 145.851101 195.8581 
L 146.48057 194.891066 
L 147.046788 193.885689 
L 147.547427 192.8461 
L 147.980432 191.776571 
L 148.344021 190.681497 
L 148.636702 189.565377 
L 148.857272 188.432798 
L 149.004824 187.288414 
L 149.078752 186.136928 
L 149.078752 184.983072 
L 149.004824 183.831586 
L 148.857272 182.687202 
L 148.636702 181.554623 
L 148.344021 180.438503 
L 147.980432 179.343429 
L 147.547427 178.2739 
L 147.046788 177.234311 
L 146.48057 176.228934 
L 145.851101 175.2619 
L 145.160967 174.337184 
L 144.413004 173.458584 
L 143.610286 172.629712 
L 142.756111 171.853973 
L 141.85399 171.134555 
L 140.907628 170.474414 
L 139.920916 169.876263 
L 138.897907 169.34256 
L 137.842806 168.875498 
L 136.759948 168.476997 
L 135.653783 168.148692 
L 134.528855 167.891935 
L 133.389789 167.70778 
L 132.241264 167.596983 
L 131.088 167.56 
L 131.088 167.56 
L 107.688 167.56 
L 107.688 185.56 
L 107.688 203.56 
L 131.088 203.56 
" clip-path="url(#p2c0a020164)" style="fill: none; stroke: #000000; stroke-width: 2; stroke-linecap: round"/>
   </g>
   <g id="line2d_31">
    <path d="M 95.088 197.44 
L 107.688 197.44 
" clip-path="url(#p2c0a020164)" style="fill: none; stroke: #000000; stroke-width: 2; stroke-linecap: round"/>
   </g>
   <g id="line2d_32">
    <path d="M 95.088 185.56 
L 107.688 185.56 
" clip-path="url(#p2c0a020164)" style="fill: none; stroke: #000000; stroke-width: 2; stroke-linecap: round"/>
   </g>
   <g id="line2d_33">
    <path d="M 95.088 173.68 
L 107.688 173.68 
" clip-path="url(#p2c0a020164)" style="fill: none; stroke: #000000; stroke-width: 2; stroke-linecap: round"/>
   </g>
   <g id="line2d_34">
    <path d="M 149.088 185.56 
L 161.688 185.56 
" clip-path="url(#p2c0a020164)" style="fill: none; stroke: #000000; stroke-width: 2; stroke-linecap: round"/>
   </g>
   <g id="line2d_35">
    <path d="M 17.688 158.56 
L 37.668 158.56 
M 69.708 158.56 
L 89.688 158.56 
" clip-path="url(#p2c0a020164)" style="fill: none; stroke: #000000; stroke-width: 2; stroke-linecap: round"/>
   </g>
   <g id="line2d_36">
    <path d="M 37.668 140.56 
L 61.068 158.56 
L 37.668 176.56 
L 37.668 140.56 
" clip-path="url(#p2c0a020164)" style="fill: none; stroke: #000000; stroke-width: 2; stroke-linecap: round"/>
   </g>
   <g id="line2d_37">
    <path d="M 95.088 173.68 
L 89.688 173.68 
L 89.688 158.56 
" clip-path="url(#p2c0a020164)" style="fill: none; stroke: #000000; stroke-width: 2; stroke-linecap: round"/>
   </g>
   <g id="line2d_38">
    <path d="M 165.288 152.26 
L 161.688 152.26 
L 161.688 185.56 
" clip-path="url(#p2c0a020164)" style="fill: none; stroke: #000000; stroke-width: 2; stroke-linecap: round"/>
   </g>
   <g id="line2d_39">
    <path d="M 131.088 284.56 
L 132.241264 284.523017 
L 133.389789 284.41222 
L 134.528855 284.228065 
L 135.653783 283.971308 
L 136.759948 283.643003 
L 137.842806 283.244502 
L 138.897907 282.77744 
L 139.920916 282.243737 
L 140.907628 281.645586 
L 141.85399 280.985445 
L 142.756111 280.266027 
L 143.610286 279.490288 
L 144.413004 278.661416 
L 145.160967 277.782816 
L 145.851101 276.8581 
L 146.48057 275.891066 
L 147.046788 274.885689 
L 147.547427 273.8461 
L 147.980432 272.776571 
L 148.344021 271.681497 
L 148.636702 270.565377 
L 148.857272 269.432798 
L 149.004824 268.288414 
L 149.078752 267.136928 
L 149.078752 265.983072 
L 149.004824 264.831586 
L 148.857272 263.687202 
L 148.636702 262.554623 
L 148.344021 261.438503 
L 147.980432 260.343429 
L 147.547427 259.2739 
L 147.046788 258.234311 
L 146.48057 257.228934 
L 145.851101 256.2619 
L 145.160967 255.337184 
L 144.413004 254.458584 
L 143.610286 253.629712 
L 142.756111 252.853973 
L 141.85399 252.134555 
L 140.907628 251.474414 
L 139.920916 250.876263 
L 138.897907 250.34256 
L 137.842806 249.875498 
L 136.759948 249.476997 
L 135.653783 249.148692 
L 134.528855 248.891935 
L 133.389789 248.70778 
L 132.241264 248.596983 
L 131.088 248.56 
L 131.088 248.56 
L 107.688 248.56 
L 107.688 266.56 
L 107.688 284.56 
L 131.088 284.56 
" clip-path="url(#p2c0a020164)" style="fill: none; stroke: #000000; stroke-width: 2; stroke-linecap: round"/>
   </g>
   <g id="line2d_40">
    <path d="M 95.088 278.44 
L 107.688 278.44 
" clip-path="url(#p2c0a020164)" style="fill: none; stroke: #000000; stroke-width: 2; stroke-linecap: round"/>
   </g>
   <g id="line2d_41">
    <path d="M 95.088 266.56 
L 107.688 266.56 
" clip-path="url(#p2c0a020164)" style="fill: none; stroke: #000000; stroke-width: 2; stroke-linecap: round"/>
   </g>
   <g id="line2d_42">
    <path d="M 95.088 254.68 
L 107.688 254.68 
" clip-path="url(#p2c0a020164)" style="fill: none; stroke: #000000; stroke-width: 2; stroke-linecap: round"/>
   </g>
   <g id="line2d_43">
    <path d="M 149.088 266.56 
L 161.688 266.56 
" clip-path="url(#p2c0a020164)" style="fill: none; stroke: #000000; stroke-width: 2; stroke-linecap: round"/>
   </g>
   <g id="line2d_44">
    <path d="M 17.688 239.56 
L 37.668 239.56 
M 69.708 239.56 
L 89.688 239.56 
" clip-path="url(#p2c0a020164)" style="fill: none; stroke: #000000; stroke-width: 2; stroke-linecap: round"/>
   </g>
   <g id="line2d_45">
    <path d="M 37.668 221.56 
L 61.068 239.56 
L 37.668 257.56 
L 37.668 221.56 
" clip-path="url(#p2c0a020164)" style="fill: none; stroke: #000000; stroke-width: 2; stroke-linecap: round"/>
   </g>
   <g id="line2d_46">
    <path d="M 95.088 254.68 
L 89.688 254.68 
L 89.688 239.56 
" clip-path="url(#p2c0a020164)" style="fill: none; stroke: #000000; stroke-width: 2; stroke-linecap: round"/>
   </g>
   <g id="line2d_47">
    <path d="M 17.688 293.56 
L 37.668 293.56 
M 69.708 293.56 
L 89.688 293.56 
" clip-path="url(#p2c0a020164)" style="fill: none; stroke: #000000; stroke-width: 2; stroke-linecap: round"/>
   </g>
   <g id="line2d_48">
    <path d="M 37.668 275.56 
L 61.068 293.56 
L 37.668 311.56 
L 37.668 275.56 
" clip-path="url(#p2c0a020164)" style="fill: none; stroke: #000000; stroke-width: 2; stroke-linecap: round"/>
   </g>
   <g id="line2d_49">
    <path d="M 95.088 278.44 
L 89.688 278.44 
L 89.688 293.56 
" clip-path="url(#p2c0a020164)" style="fill: none; stroke: #000000; stroke-width: 2; stroke-linecap: round"/>
   </g>
   <g id="line2d_50">
    <path d="M 165.288 166.66 
L 161.688 166.66 
L 161.688 266.56 
" clip-path="url(#p2c0a020164)" style="fill: none; stroke: #000000; stroke-width: 2; stroke-linecap: round"/>
   </g>
   <g id="text_1">
    <text style="font-size: 14px; font-family: 'DejaVu Sans', 'Bitstream Vera Sans', 'Computer Modern Sans Serif', 'Lucida Grande', 'Verdana', 'Geneva', 'Lucid', 'Arial', 'Helvetica', 'Avant Garde', sans-serif; text-anchor: start" x="237.288" y="148.923125" transform="rotate(-0 237.288 148.923125)">S</text>
   </g>
   <g id="text_2">
    <text style="font-size: 14px; font-family: 'DejaVu Sans', 'Bitstream Vera Sans', 'Computer Modern Sans Serif', 'Lucida Grande', 'Verdana', 'Geneva', 'Lucid', 'Arial', 'Helvetica', 'Avant Garde', sans-serif; text-anchor: end" x="91.488" y="15.543125" transform="rotate(-0 91.488 15.543125)">A</text>
   </g>
   <g id="text_3">
    <text style="font-size: 14px; font-family: 'DejaVu Sans', 'Bitstream Vera Sans', 'Computer Modern Sans Serif', 'Lucida Grande', 'Verdana', 'Geneva', 'Lucid', 'Arial', 'Helvetica', 'Avant Garde', sans-serif; text-anchor: end" x="91.488" y="39.303125" transform="rotate(-0 91.488 39.303125)">C</text>
   </g>
   <g id="text_4">
    <text style="font-size: 14px; font-family: 'DejaVu Sans', 'Bitstream Vera Sans', 'Computer Modern Sans Serif', 'Lucida Grande', 'Verdana', 'Geneva', 'Lucid', 'Arial', 'Helvetica', 'Avant Garde', sans-serif; text-anchor: end" x="14.088" y="27.423125" transform="rotate(-0 14.088 27.423125)">B</text>
   </g>
   <g id="text_5">
    <text style="font-size: 14px; font-family: 'DejaVu Sans', 'Bitstream Vera Sans', 'Computer Modern Sans Serif', 'Lucida Grande', 'Verdana', 'Geneva', 'Lucid', 'Arial', 'Helvetica', 'Avant Garde', sans-serif; text-anchor: end" x="91.488" y="96.543125" transform="rotate(-0 91.488 96.543125)">A</text>
   </g>
   <g id="text_6">
    <text style="font-size: 14px; font-family: 'DejaVu Sans', 'Bitstream Vera Sans', 'Computer Modern Sans Serif', 'Lucida Grande', 'Verdana', 'Geneva', 'Lucid', 'Arial', 'Helvetica', 'Avant Garde', sans-serif; text-anchor: end" x="14.088" y="108.423125" transform="rotate(-0 14.088 108.423125)">B</text>
   </g>
   <g id="text_7">
    <text style="font-size: 14px; font-family: 'DejaVu Sans', 'Bitstream Vera Sans', 'Computer Modern Sans Serif', 'Lucida Grande', 'Verdana', 'Geneva', 'Lucid', 'Arial', 'Helvetica', 'Avant Garde', sans-serif; text-anchor: end" x="14.088" y="135.423125" transform="rotate(-0 14.088 135.423125)">C</text>
   </g>
   <g id="text_8">
    <text style="font-size: 14px; font-family: 'DejaVu Sans', 'Bitstream Vera Sans', 'Computer Modern Sans Serif', 'Lucida Grande', 'Verdana', 'Geneva', 'Lucid', 'Arial', 'Helvetica', 'Avant Garde', sans-serif; text-anchor: end" x="91.488" y="189.423125" transform="rotate(-0 91.488 189.423125)">B</text>
   </g>
   <g id="text_9">
    <text style="font-size: 14px; font-family: 'DejaVu Sans', 'Bitstream Vera Sans', 'Computer Modern Sans Serif', 'Lucida Grande', 'Verdana', 'Geneva', 'Lucid', 'Arial', 'Helvetica', 'Avant Garde', sans-serif; text-anchor: end" x="91.488" y="201.303125" transform="rotate(-0 91.488 201.303125)">C</text>
   </g>
   <g id="text_10">
    <text style="font-size: 14px; font-family: 'DejaVu Sans', 'Bitstream Vera Sans', 'Computer Modern Sans Serif', 'Lucida Grande', 'Verdana', 'Geneva', 'Lucid', 'Arial', 'Helvetica', 'Avant Garde', sans-serif; text-anchor: end" x="14.088" y="162.423125" transform="rotate(-0 14.088 162.423125)">A</text>
   </g>
   <g id="text_11">
    <text style="font-size: 14px; font-family: 'DejaVu Sans', 'Bitstream Vera Sans', 'Computer Modern Sans Serif', 'Lucida Grande', 'Verdana', 'Geneva', 'Lucid', 'Arial', 'Helvetica', 'Avant Garde', sans-serif; text-anchor: end" x="91.488" y="270.423125" transform="rotate(-0 91.488 270.423125)">B</text>
   </g>
   <g id="text_12">
    <text style="font-size: 14px; font-family: 'DejaVu Sans', 'Bitstream Vera Sans', 'Computer Modern Sans Serif', 'Lucida Grande', 'Verdana', 'Geneva', 'Lucid', 'Arial', 'Helvetica', 'Avant Garde', sans-serif; text-anchor: end" x="14.088" y="243.423125" transform="rotate(-0 14.088 243.423125)">A</text>
   </g>
   <g id="text_13">
    <text style="font-size: 14px; font-family: 'DejaVu Sans', 'Bitstream Vera Sans', 'Computer Modern Sans Serif', 'Lucida Grande', 'Verdana', 'Geneva', 'Lucid', 'Arial', 'Helvetica', 'Avant Garde', sans-serif; text-anchor: end" x="14.088" y="297.423125" transform="rotate(-0 14.088 297.423125)">C</text>
   </g>
  </g>
 </g>
 <defs>
  <clipPath id="p2c0a020164">
   <rect x="0" y="0" width="251.376" height="316.24"/>
  </clipPath>
 </defs>
</svg>
